*
*
G04 PADS 9.5 Build Number: 522968 generated Gerber (RS-274-X) file*
G04 PC Version=2.1*
*
%IN "SF32LB52-MOD-1_PCB_V1.0"*%
*
%MOIN*%
*
%FSLAX35Y35*%
*
*
*
*
G04 PC Standard Apertures*
*
*
G04 Thermal Relief Aperture macro.*
%AMTER*
1,1,$1,0,0*
1,0,$1-$2,0,0*
21,0,$3,$4,0,0,45*
21,0,$3,$4,0,0,135*
%
*
*
G04 Annular Aperture macro.*
%AMANN*
1,1,$1,0,0*
1,0,$2,0,0*
%
*
*
G04 Odd Aperture macro.*
%AMODD*
1,1,$1,0,0*
1,0,$1-0.005,0,0*
%
*
*
G04 PC Custom Aperture Macros*
*
*
*
*
*
*
G04 PC Aperture Table*
*
%ADD010C,0.001*%
%ADD095C,0.00197*%
%ADD158C,0.00394*%
%ADD405C,0.01*%
*
*
*
*
G04 PC Circuitry*
G04 Layer Name SF32LB52-MOD-1_PCB_V1.0 - circuitry*
%LPD*%
*
*
G04 PC Custom Flashes*
G04 Layer Name SF32LB52-MOD-1_PCB_V1.0 - flashes*
%LPD*%
*
*
G04 PC Circuitry*
G04 Layer Name SF32LB52-MOD-1_PCB_V1.0 - circuitry*
%LPD*%
*
G54D10*
G01X393701Y498622D02*
X393703D01*
X464567D02*
X464570D01*
X393701Y393713D02*
X393703D01*
X393781Y503543D02*
X393784D01*
G54D95*
X393110Y475591D02*
X395079D01*
X394094Y474606D02*
Y476575D01*
X395988Y479856D02*
X395079Y476575D01*
X395988Y479856D02*
X396897Y476575D01*
X395420Y477669D02*
X396556D01*
X393110Y471260D02*
X395079D01*
X394094Y470276D02*
Y472244D01*
X395988Y475525D02*
X395079Y472244D01*
X395988Y475525D02*
X396897Y472244D01*
X395420Y473338D02*
X396556D01*
X393110Y466929D02*
X395079D01*
X394094Y465945D02*
Y467913D01*
X395988Y471195D02*
X395079Y467913D01*
X395988Y471195D02*
X396897Y467913D01*
X395420Y469007D02*
X396556D01*
X393110Y462598D02*
X395079D01*
X394094Y461614D02*
Y463583D01*
X395988Y466864D02*
X395079Y463583D01*
X395988Y466864D02*
X396897Y463583D01*
X395420Y464676D02*
X396556D01*
X393110Y458268D02*
X395079D01*
X394094Y457283D02*
Y459252D01*
X395988Y462533D02*
X395079Y459252D01*
X395988Y462533D02*
X396897Y459252D01*
X395420Y460346D02*
X396556D01*
X393110Y453937D02*
X395079D01*
X394094Y452953D02*
Y454921D01*
X395988Y458203D02*
X395079Y454921D01*
X395988Y458203D02*
X396897Y454921D01*
X395420Y456015D02*
X396556D01*
X393110Y449606D02*
X395079D01*
X394094Y448622D02*
Y450591D01*
X395988Y453872D02*
X395079Y450591D01*
X395988Y453872D02*
X396897Y450591D01*
X395420Y451684D02*
X396556D01*
X393110Y445276D02*
X395079D01*
X394094Y444291D02*
Y446260D01*
X395988Y449541D02*
X395079Y446260D01*
X395988Y449541D02*
X396897Y446260D01*
X395420Y447354D02*
X396556D01*
X393110Y440945D02*
X395079D01*
X394094Y439961D02*
Y441929D01*
X395988Y445210D02*
X395079Y441929D01*
X395988Y445210D02*
X396897Y441929D01*
X395420Y443023D02*
X396556D01*
X393110Y436614D02*
X395079D01*
X394094Y435630D02*
Y437598D01*
X395988Y440880D02*
X395079Y437598D01*
X395988Y440880D02*
X396897Y437598D01*
X395420Y438692D02*
X396556D01*
X393110Y432283D02*
X395079D01*
X394094Y431299D02*
Y433268D01*
X395988Y436549D02*
X395079Y433268D01*
X395988Y436549D02*
X396897Y433268D01*
X395420Y434361D02*
X396556D01*
X393110Y427953D02*
X395079D01*
X394094Y426969D02*
Y428937D01*
X395988Y432218D02*
X395079Y428937D01*
X395988Y432218D02*
X396897Y428937D01*
X395420Y430031D02*
X396556D01*
X393110Y423622D02*
X395079D01*
X394094Y422638D02*
Y424606D01*
X395988Y427888D02*
X395079Y424606D01*
X395988Y427888D02*
X396897Y424606D01*
X395420Y425700D02*
X396556D01*
X393110Y419291D02*
X395079D01*
X394094Y418307D02*
Y420276D01*
X395988Y423557D02*
X395079Y420276D01*
X395988Y423557D02*
X396897Y420276D01*
X395420Y421369D02*
X396556D01*
X393110Y414961D02*
X395079D01*
X394094Y413976D02*
Y415945D01*
X395988Y419226D02*
X395079Y415945D01*
X395988Y419226D02*
X396897Y415945D01*
X395420Y417039D02*
X396556D01*
X393110Y410630D02*
X395079D01*
X394094Y409646D02*
Y411614D01*
X395988Y414895D02*
X395079Y411614D01*
X395988Y414895D02*
X396897Y411614D01*
X395420Y412708D02*
X396556D01*
X393110Y406299D02*
X395079D01*
X394094Y405315D02*
Y407283D01*
X395988Y410565D02*
X395079Y407283D01*
X395988Y410565D02*
X396897Y407283D01*
X395420Y408377D02*
X396556D01*
X393110Y401969D02*
X395079D01*
X394094Y400984D02*
Y402953D01*
X395988Y406234D02*
X395079Y402953D01*
X395988Y406234D02*
X396897Y402953D01*
X395420Y404047D02*
X396556D01*
X404331Y394094D02*
X406299D01*
X405315Y393110D02*
Y395079D01*
X407208Y398360D02*
X406299Y395079D01*
X407208Y398360D02*
X408117Y395079D01*
X406640Y396172D02*
X407776D01*
X408661Y394094D02*
X410630D01*
X409646Y393110D02*
Y395079D01*
X411539Y398360D02*
X410630Y395079D01*
X411539Y398360D02*
X412448Y395079D01*
X410971Y396172D02*
X412107D01*
X412992Y394094D02*
X414961D01*
X413976Y393110D02*
Y395079D01*
X415870Y398360D02*
X414961Y395079D01*
X415870Y398360D02*
X416779Y395079D01*
X415302Y396172D02*
X416438D01*
X417323Y394094D02*
X419291D01*
X418307Y393110D02*
Y395079D01*
X420200Y398360D02*
X419291Y395079D01*
X420200Y398360D02*
X421110Y395079D01*
X419632Y396172D02*
X420769D01*
X421654Y394094D02*
X423622D01*
X422638Y393110D02*
Y395079D01*
X424531Y398360D02*
X423622Y395079D01*
X424531Y398360D02*
X425440Y395079D01*
X423963Y396172D02*
X425099D01*
X425984Y394094D02*
X427953D01*
X426969Y393110D02*
Y395079D01*
X428862Y398360D02*
X427953Y395079D01*
X428862Y398360D02*
X429771Y395079D01*
X428294Y396172D02*
X429430D01*
X430315Y394094D02*
X432283D01*
X431299Y393110D02*
Y395079D01*
X433193Y398360D02*
X432283Y395079D01*
X433193Y398360D02*
X434102Y395079D01*
X432624Y396172D02*
X433761D01*
X434646Y394094D02*
X436614D01*
X435630Y393110D02*
Y395079D01*
X437523Y398360D02*
X436614Y395079D01*
X437523Y398360D02*
X438432Y395079D01*
X436955Y396172D02*
X438091D01*
X438976Y394094D02*
X440945D01*
X439961Y393110D02*
Y395079D01*
X441854Y398360D02*
X440945Y395079D01*
X441854Y398360D02*
X442763Y395079D01*
X441286Y396172D02*
X442422D01*
X443307Y394094D02*
X445276D01*
X444291Y393110D02*
Y395079D01*
X446185Y398360D02*
X445276Y395079D01*
X446185Y398360D02*
X447094Y395079D01*
X445616Y396172D02*
X446753D01*
X447638Y394094D02*
X449606D01*
X448622Y393110D02*
Y395079D01*
X450515Y398360D02*
X449606Y395079D01*
X450515Y398360D02*
X451424Y395079D01*
X449947Y396172D02*
X451084D01*
X451969Y394094D02*
X453937D01*
X452953Y393110D02*
Y395079D01*
X454846Y398360D02*
X453937Y395079D01*
X454846Y398360D02*
X455755Y395079D01*
X454278Y396172D02*
X455414D01*
X463189Y401969D02*
X465157D01*
X464173Y400984D02*
Y402953D01*
X466067Y406234D02*
X465157Y402953D01*
X466067Y406234D02*
X466976Y402953D01*
X465498Y404047D02*
X466635D01*
X463189Y406299D02*
X465157D01*
X464173Y405315D02*
Y407283D01*
X466067Y410565D02*
X465157Y407283D01*
X466067Y410565D02*
X466976Y407283D01*
X465498Y408377D02*
X466635D01*
X463189Y410630D02*
X465157D01*
X464173Y409646D02*
Y411614D01*
X466067Y414895D02*
X465157Y411614D01*
X466067Y414895D02*
X466976Y411614D01*
X465498Y412708D02*
X466635D01*
X463189Y414961D02*
X465157D01*
X464173Y413976D02*
Y415945D01*
X466067Y419226D02*
X465157Y415945D01*
X466067Y419226D02*
X466976Y415945D01*
X465498Y417039D02*
X466635D01*
X463189Y419291D02*
X465157D01*
X464173Y418307D02*
Y420276D01*
X466067Y423557D02*
X465157Y420276D01*
X466067Y423557D02*
X466976Y420276D01*
X465498Y421369D02*
X466635D01*
X463189Y423622D02*
X465157D01*
X464173Y422638D02*
Y424606D01*
X466067Y427888D02*
X465157Y424606D01*
X466067Y427888D02*
X466976Y424606D01*
X465498Y425700D02*
X466635D01*
X463189Y427953D02*
X465157D01*
X464173Y426969D02*
Y428937D01*
X466067Y432218D02*
X465157Y428937D01*
X466067Y432218D02*
X466976Y428937D01*
X465498Y430031D02*
X466635D01*
X463189Y432283D02*
X465157D01*
X464173Y431299D02*
Y433268D01*
X466067Y436549D02*
X465157Y433268D01*
X466067Y436549D02*
X466976Y433268D01*
X465498Y434361D02*
X466635D01*
X463189Y436614D02*
X465157D01*
X464173Y435630D02*
Y437598D01*
X466067Y440880D02*
X465157Y437598D01*
X466067Y440880D02*
X466976Y437598D01*
X465498Y438692D02*
X466635D01*
X463189Y440945D02*
X465157D01*
X464173Y439961D02*
Y441929D01*
X466067Y445210D02*
X465157Y441929D01*
X466067Y445210D02*
X466976Y441929D01*
X465498Y443023D02*
X466635D01*
X463189Y445276D02*
X465157D01*
X464173Y444291D02*
Y446260D01*
X466067Y449541D02*
X465157Y446260D01*
X466067Y449541D02*
X466976Y446260D01*
X465498Y447354D02*
X466635D01*
X463189Y449606D02*
X465157D01*
X464173Y448622D02*
Y450591D01*
X466067Y453872D02*
X465157Y450591D01*
X466067Y453872D02*
X466976Y450591D01*
X465498Y451684D02*
X466635D01*
X463189Y453937D02*
X465157D01*
X464173Y452953D02*
Y454921D01*
X466067Y458203D02*
X465157Y454921D01*
X466067Y458203D02*
X466976Y454921D01*
X465498Y456015D02*
X466635D01*
X463189Y458268D02*
X465157D01*
X464173Y457283D02*
Y459252D01*
X466067Y462533D02*
X465157Y459252D01*
X466067Y462533D02*
X466976Y459252D01*
X465498Y460346D02*
X466635D01*
X463189Y462598D02*
X465157D01*
X464173Y461614D02*
Y463583D01*
X466067Y466864D02*
X465157Y463583D01*
X466067Y466864D02*
X466976Y463583D01*
X465498Y464676D02*
X466635D01*
X463189Y466929D02*
X465157D01*
X464173Y465945D02*
Y467913D01*
X466067Y471195D02*
X465157Y467913D01*
X466067Y471195D02*
X466976Y467913D01*
X465498Y469007D02*
X466635D01*
X463189Y471260D02*
X465157D01*
X464173Y470276D02*
Y472244D01*
X466067Y475525D02*
X465157Y472244D01*
X466067Y475525D02*
X466976Y472244D01*
X465498Y473338D02*
X466635D01*
X463189Y475591D02*
X465157D01*
X464173Y474606D02*
Y476575D01*
X466067Y479856D02*
X465157Y476575D01*
X466067Y479856D02*
X466976Y476575D01*
X465498Y477669D02*
X466635D01*
X400000Y394094D02*
X401969D01*
X400984Y393110D02*
Y395079D01*
X402878Y398360D02*
X401969Y395079D01*
X402878Y398360D02*
X403787Y395079D01*
X402309Y396172D02*
X403446D01*
X456299Y394094D02*
X458268D01*
X457283Y393110D02*
Y395079D01*
X459177Y398360D02*
X458268Y395079D01*
X459177Y398360D02*
X460086Y395079D01*
X458609Y396172D02*
X459745D01*
X394925Y394965D02*
X396893Y396933D01*
X394925D02*
X396893Y394965D01*
X396917Y395717D02*
X398885Y397685D01*
X396917D02*
X398885Y395717D01*
X394733Y397440D02*
X396701Y399409D01*
X394733D02*
X396701Y397440D01*
X459917Y395917D02*
X461885Y397885D01*
X459917D02*
X461885Y395917D01*
X461614Y394764D02*
X463583Y396732D01*
X461614D02*
X463583Y394764D01*
X453543Y440551D02*
X455512Y442520D01*
X453543D02*
X455512Y440551D01*
X408920Y453544D02*
X410888Y455512D01*
X408920D02*
X410888Y453544D01*
X410748Y452362D02*
X412717Y454331D01*
X410748D02*
X412717Y452362D01*
X408976Y451024D02*
X410945Y452992D01*
X408976D02*
X410945Y451024D01*
X416142Y469055D02*
X418110Y471024D01*
X416142D02*
X418110Y469055D01*
X413898Y463425D02*
X415866Y465394D01*
X413898D02*
X415866Y463425D01*
X422795Y411850D02*
X424764Y413819D01*
X422795D02*
X424764Y411850D01*
X440315Y414291D02*
X442283Y416260D01*
X440315D02*
X442283Y414291D01*
X440394Y409370D02*
X442362Y411339D01*
X440394D02*
X442362Y409370D01*
X441381Y429045D02*
X443350Y431014D01*
X441381D02*
X443350Y429045D01*
X442756Y445039D02*
X444724Y447008D01*
X442756D02*
X444724Y445039D01*
X444917Y445317D02*
X446885Y447285D01*
X444917D02*
X446885Y445317D01*
X442362Y448031D02*
X444331Y450000D01*
X442362D02*
X444331Y448031D01*
X444917Y448517D02*
X446885Y450485D01*
X444917D02*
X446885Y448517D01*
X447317Y449117D02*
X449285Y451085D01*
X447317D02*
X449285Y449117D01*
X450717Y451117D02*
X452685Y453085D01*
X450717D02*
X452685Y451117D01*
X440917Y459117D02*
X442885Y461085D01*
X440917D02*
X442885Y459117D01*
X450984Y426024D02*
X452953Y427992D01*
X450984D02*
X452953Y426024D01*
X452598Y424567D02*
X454567Y426535D01*
X452598D02*
X454567Y424567D01*
X409859Y459634D02*
X411827Y461602D01*
X409859D02*
X411827Y459634D01*
X408958Y448020D02*
X410927Y449989D01*
X408958D02*
X410927Y448020D01*
X410512Y446299D02*
X412480Y448268D01*
X410512D02*
X412480Y446299D01*
X444370Y427874D02*
X446339Y429843D01*
X444370D02*
X446339Y427874D01*
X443117Y454317D02*
X445085Y456285D01*
X443117D02*
X445085Y454317D01*
X446117Y454117D02*
X448085Y456085D01*
X446117D02*
X448085Y454117D01*
X448317Y453717D02*
X450285Y455685D01*
X448317D02*
X450285Y453717D01*
X440827Y404409D02*
X442795Y406378D01*
X440827D02*
X442795Y404409D01*
X445276Y441339D02*
X447244Y443307D01*
X445276D02*
X447244Y441339D01*
X429213Y429764D02*
X431181Y431732D01*
X429213D02*
X431181Y429764D01*
X427047Y429409D02*
X429016Y431378D01*
X427047D02*
X429016Y429409D01*
X411030Y456244D02*
X412998Y458213D01*
X411030D02*
X412998Y456244D01*
X410866Y449291D02*
X412835Y451260D01*
X410866D02*
X412835Y449291D01*
X406890Y439094D02*
X408858Y441063D01*
X406890D02*
X408858Y439094D01*
X417756Y466732D02*
X419724Y468701D01*
X417756D02*
X419724Y466732D01*
X413386Y461299D02*
X415354Y463268D01*
X413386D02*
X415354Y461299D01*
X416102Y463898D02*
X418071Y465866D01*
X416102D02*
X418071Y463898D01*
X415669Y466063D02*
X417638Y468031D01*
X415669D02*
X417638Y466063D01*
X429767Y464405D02*
X431735Y466373D01*
X429767D02*
X431735Y464405D01*
X431209Y462608D02*
X433177Y464576D01*
X431209D02*
X433177Y462608D01*
X422894Y463959D02*
X424863Y465928D01*
X422894D02*
X424863Y463959D01*
X424871Y463045D02*
X426840Y465013D01*
X424871D02*
X426840Y463045D01*
X426570Y464399D02*
X428538Y466367D01*
X426570D02*
X428538Y464399D01*
X428191Y462916D02*
X430160Y464885D01*
X428191D02*
X430160Y462916D01*
X416417Y430748D02*
X418386Y432717D01*
X416417D02*
X418386Y430748D01*
X438917Y461917D02*
X440885Y463885D01*
X438917D02*
X440885Y461917D01*
X420630Y429646D02*
X422598Y431614D01*
X420630D02*
X422598Y429646D01*
X444803Y437638D02*
X446772Y439606D01*
X444803D02*
X446772Y437638D01*
X425115Y424311D02*
X427084Y426279D01*
X425115D02*
X427084Y424311D01*
X422835Y416811D02*
X424803Y418780D01*
X422835D02*
X424803Y416811D01*
X425394Y430866D02*
X427362Y432835D01*
X425394D02*
X427362Y430866D01*
X408853Y455779D02*
X410822Y457748D01*
X408853D02*
X410822Y455779D01*
X422677Y406890D02*
X424646Y408858D01*
X422677D02*
X424646Y406890D01*
X436575Y424055D02*
X438543Y426024D01*
X436575D02*
X438543Y424055D01*
X420039Y399803D02*
X422008Y401772D01*
X420039D02*
X422008Y399803D01*
X437323Y417874D02*
X439291Y419843D01*
X437323D02*
X439291Y417874D01*
X437244Y408307D02*
X439213Y410276D01*
X437244D02*
X439213Y408307D01*
X437323Y413307D02*
X439291Y415276D01*
X437323D02*
X439291Y413307D01*
X455517Y463117D02*
X457485Y465085D01*
X455517D02*
X457485Y463117D01*
X456317Y474917D02*
X458285Y476885D01*
X456317D02*
X458285Y474917D01*
X435707Y470021D02*
X437676Y471989D01*
X435707D02*
X437676Y470021D01*
X422315Y424456D02*
X424284Y426424D01*
X422315D02*
X424284Y424456D01*
X409343Y466328D02*
X411312Y468296D01*
X409343D02*
X411312Y466328D01*
X434287Y468780D02*
X436256Y470748D01*
X434287D02*
X436256Y468780D01*
X434316Y471597D02*
X436285Y473565D01*
X434316D02*
X436285Y471597D01*
X435139Y475266D02*
X437107Y477234D01*
X435139D02*
X437107Y475266D01*
X432928Y473867D02*
X434897Y475836D01*
X432928D02*
X434897Y473867D01*
X452900Y477395D02*
X454869Y479364D01*
X452900D02*
X454869Y477395D01*
X448228Y430709D02*
X450197Y432677D01*
X448228D02*
X450197Y430709D01*
X448819Y428386D02*
X450787Y430354D01*
X448819D02*
X450787Y428386D01*
X430004Y469311D02*
X431973Y471279D01*
X430004D02*
X431973Y469311D01*
X443880Y470623D02*
X445849Y472592D01*
X443880D02*
X445849Y470623D01*
X439860Y475364D02*
X441829Y477332D01*
X439860D02*
X441829Y475364D01*
X421273Y465406D02*
X423242Y467375D01*
X421273D02*
X423242Y465406D01*
X413661Y467205D02*
X415630Y469173D01*
X413661D02*
X415630Y467205D01*
X399528Y475315D02*
X401496Y477283D01*
X399528D02*
X401496Y475315D01*
X399685Y472520D02*
X401654Y474488D01*
X399685D02*
X401654Y472520D01*
X399685Y419252D02*
X401654Y421220D01*
X399685D02*
X401654Y419252D01*
X402400Y436195D02*
X404369Y438164D01*
X402400D02*
X404369Y436195D01*
X399488Y411969D02*
X401457Y413937D01*
X399488D02*
X401457Y411969D01*
X400236Y407402D02*
X402205Y409370D01*
X400236D02*
X402205Y407402D01*
X409252Y406794D02*
X411221Y408762D01*
X409252D02*
X411221Y406794D01*
X409216Y413177D02*
X411184Y415145D01*
X409216D02*
X411184Y413177D01*
X408661Y416102D02*
X410630Y418071D01*
X408661D02*
X410630Y416102D01*
X406917Y402517D02*
X408885Y404485D01*
X406917D02*
X408885Y402517D01*
X406614Y399882D02*
X408583Y401850D01*
X406614D02*
X408583Y399882D01*
X410827Y399843D02*
X412795Y401811D01*
X410827D02*
X412795Y399843D01*
X414921Y400039D02*
X416890Y402008D01*
X414921D02*
X416890Y400039D01*
X424094Y399724D02*
X426063Y401693D01*
X424094D02*
X426063Y399724D01*
X428228Y399567D02*
X430197Y401535D01*
X428228D02*
X430197Y399567D01*
X417441Y436629D02*
X419409Y438598D01*
X417441D02*
X419409Y436629D01*
X428150Y408307D02*
X430118Y410276D01*
X428150D02*
X430118Y408307D01*
X426339Y411772D02*
X428307Y413740D01*
X426339D02*
X428307Y411772D01*
X426339Y414961D02*
X428307Y416929D01*
X426339D02*
X428307Y414961D01*
X426181Y419252D02*
X428150Y421220D01*
X426181D02*
X428150Y419252D01*
X431496Y418976D02*
X433465Y420945D01*
X431496D02*
X433465Y418976D01*
X432559Y399882D02*
X434528Y401850D01*
X432559D02*
X434528Y399882D01*
X436102Y400000D02*
X438071Y401969D01*
X436102D02*
X438071Y400000D01*
X430451Y424286D02*
X432419Y426255D01*
X430451D02*
X432419Y424286D01*
X435039Y419055D02*
X437008Y421024D01*
X435039D02*
X437008Y419055D01*
X441260Y399803D02*
X443228Y401772D01*
X441260D02*
X443228Y399803D01*
X445433Y399646D02*
X447402Y401614D01*
X445433D02*
X447402Y399646D01*
X449843Y399724D02*
X451811Y401693D01*
X449843D02*
X451811Y399724D01*
X454317Y402117D02*
X456285Y404085D01*
X454317D02*
X456285Y402117D01*
X461654Y397953D02*
X463622Y399921D01*
X461654D02*
X463622Y397953D01*
X399449Y399921D02*
X401417Y401890D01*
X399449D02*
X401417Y399921D01*
X455669Y400787D02*
X457638Y402756D01*
X455669D02*
X457638Y400787D01*
X452917Y403717D02*
X454885Y405685D01*
X452917D02*
X454885Y403717D01*
X456517Y428917D02*
X458485Y430885D01*
X456517D02*
X458485Y428917D01*
X458110Y418307D02*
X460079Y420276D01*
X458110D02*
X460079Y418307D01*
X456496Y422244D02*
X458465Y424213D01*
X456496D02*
X458465Y422244D01*
X456220Y418307D02*
X458189Y420276D01*
X456220D02*
X458189Y418307D01*
X456378Y414016D02*
X458346Y415984D01*
X456378D02*
X458346Y414016D01*
X445984Y435591D02*
X447953Y437559D01*
X445984D02*
X447953Y435591D01*
X451654Y405000D02*
X453622Y406969D01*
X451654D02*
X453622Y405000D01*
X439449Y432874D02*
X441417Y434843D01*
X439449D02*
X441417Y432874D01*
X456517Y450517D02*
X458485Y452485D01*
X456517D02*
X458485Y450517D01*
X448268Y460157D02*
X450236Y462126D01*
X448268D02*
X450236Y460157D01*
X446614Y458780D02*
X448583Y460748D01*
X446614D02*
X448583Y458780D01*
X436142Y441654D02*
X438110Y443622D01*
X436142D02*
X438110Y441654D01*
X436142Y446575D02*
X438110Y448543D01*
X436142D02*
X438110Y446575D01*
X436142Y450984D02*
X438110Y452953D01*
X436142D02*
X438110Y450984D01*
X456517Y455317D02*
X458485Y457285D01*
X456517D02*
X458485Y455317D01*
X453917Y454317D02*
X455885Y456285D01*
X453917D02*
X455885Y454317D01*
X455717Y459517D02*
X457685Y461485D01*
X455717D02*
X457685Y459517D01*
X451917Y455517D02*
X453885Y457485D01*
X451917D02*
X453885Y455517D01*
X444882Y462323D02*
X446850Y464291D01*
X444882D02*
X446850Y462323D01*
X452087Y459370D02*
X454055Y461339D01*
X452087D02*
X454055Y459370D01*
X451317Y463117D02*
X453285Y465085D01*
X451317D02*
X453285Y463117D01*
X444117Y475517D02*
X446085Y477485D01*
X444117D02*
X446085Y475517D01*
X449674Y472762D02*
X451643Y474731D01*
X449674D02*
X451643Y472762D01*
X449717Y475114D02*
X451685Y477082D01*
X449717D02*
X451685Y475114D01*
X450500Y477395D02*
X452469Y479364D01*
X450500D02*
X452469Y477395D01*
X458600D02*
X460569Y479364D01*
X458600D02*
X460569Y477395D01*
X461600D02*
X463569Y479364D01*
X461600D02*
X463569Y477395D01*
X452244Y471772D02*
X454213Y473740D01*
X452244D02*
X454213Y471772D01*
X446496Y463661D02*
X448465Y465630D01*
X446496D02*
X448465Y463661D01*
X442480Y464370D02*
X444449Y466339D01*
X442480D02*
X444449Y464370D01*
X456317Y433317D02*
X458285Y435285D01*
X456317D02*
X458285Y433317D01*
X456732Y407441D02*
X458701Y409409D01*
X456732D02*
X458701Y407441D01*
X439961Y421299D02*
X441929Y423268D01*
X439961D02*
X441929Y421299D01*
X437717Y422087D02*
X439685Y424055D01*
X437717D02*
X439685Y422087D01*
X446299Y421378D02*
X448268Y423346D01*
X446299D02*
X448268Y421378D01*
X400114Y446397D02*
X402082Y448366D01*
X400114D02*
X402082Y446397D01*
X402400Y432595D02*
X404369Y434564D01*
X402400D02*
X404369Y432595D01*
X410575Y433677D02*
X412544Y435645D01*
X410575D02*
X412544Y433677D01*
X408898Y404449D02*
X410866Y406417D01*
X408898D02*
X410866Y404449D01*
X450984Y440945D02*
X452953Y442913D01*
X450984D02*
X452953Y440945D01*
X424497Y472545D02*
X426465Y474514D01*
X424497D02*
X426465Y472545D01*
X434370Y465629D02*
X436338Y467598D01*
X434370D02*
X436338Y465629D01*
X444921Y430906D02*
X446890Y432874D01*
X444921D02*
X446890Y430906D01*
X442441Y432874D02*
X444409Y434843D01*
X442441D02*
X444409Y432874D01*
X455600Y477395D02*
X457569Y479364D01*
X455600D02*
X457569Y477395D01*
X411825Y424112D02*
X413793Y426080D01*
X411825D02*
X413793Y424112D01*
X416378Y443858D02*
X418346Y445827D01*
X416378D02*
X418346Y443858D01*
X416378Y452402D02*
X418346Y454370D01*
X416378D02*
X418346Y452402D01*
X436102Y456220D02*
X438071Y458189D01*
X436102D02*
X438071Y456220D01*
X422819Y437172D02*
X424788Y439140D01*
X422819D02*
X424788Y437172D01*
X422835Y444055D02*
X424803Y446024D01*
X422835D02*
X424803Y444055D01*
X422638Y450866D02*
X424606Y452835D01*
X422638D02*
X424606Y450866D01*
X422441Y456102D02*
X424409Y458071D01*
X422441D02*
X424409Y456102D01*
X429606Y456220D02*
X431575Y458189D01*
X429606D02*
X431575Y456220D01*
X429606Y451142D02*
X431575Y453110D01*
X429606D02*
X431575Y451142D01*
X429804Y437140D02*
X431773Y439109D01*
X429804D02*
X431773Y437140D01*
X429488Y446299D02*
X431457Y448268D01*
X429488D02*
X431457Y446299D01*
X433189Y451142D02*
X435157Y453110D01*
X433189D02*
X435157Y451142D01*
X433150Y456260D02*
X435118Y458228D01*
X433150D02*
X435118Y456260D01*
X441137Y468487D02*
X443106Y470455D01*
X441137D02*
X443106Y468487D01*
X429724Y441417D02*
X431693Y443386D01*
X429724D02*
X431693Y441417D01*
X433110Y446496D02*
X435079Y448465D01*
X433110D02*
X435079Y446496D01*
X433110Y441693D02*
X435079Y443661D01*
X433110D02*
X435079Y441693D01*
X433076Y437140D02*
X435045Y439109D01*
X433076D02*
X435045Y437140D01*
X426102Y456102D02*
X428071Y458071D01*
X426102D02*
X428071Y456102D01*
X425945Y451102D02*
X427913Y453071D01*
X425945D02*
X427913Y451102D01*
X426102Y446417D02*
X428071Y448386D01*
X426102D02*
X428071Y446417D01*
X426102Y441732D02*
X428071Y443701D01*
X426102D02*
X428071Y441732D01*
X426222Y437213D02*
X428190Y439181D01*
X426222D02*
X428190Y437213D01*
X416339Y448543D02*
X418307Y450512D01*
X416339D02*
X418307Y448543D01*
X416614Y455787D02*
X418583Y457756D01*
X416614D02*
X418583Y455787D01*
X407874Y418150D02*
X409843Y420118D01*
X407874D02*
X409843Y418150D01*
X418661Y430906D02*
X420630Y432874D01*
X418661D02*
X420630Y430906D01*
X427008Y477953D02*
X428976Y479921D01*
X427008D02*
X428976Y477953D01*
X404317Y477917D02*
X406285Y479885D01*
X404317D02*
X406285Y477917D01*
X395317D02*
X397285Y479885D01*
X395317D02*
X397285Y477917D01*
X443517D02*
X445485Y479885D01*
X443517D02*
X445485Y477917D01*
X438937Y477913D02*
X440906Y479882D01*
X438937D02*
X440906Y477913D01*
X432913D02*
X434882Y479882D01*
X432913D02*
X434882Y477913D01*
X421260Y477953D02*
X423228Y479921D01*
X421260D02*
X423228Y477953D01*
X414291Y477992D02*
X416260Y479961D01*
X414291D02*
X416260Y477992D01*
X409252Y477953D02*
X411220Y479921D01*
X409252D02*
X411220Y477953D01*
X400117Y477917D02*
X402085Y479885D01*
X400117D02*
X402085Y477917D01*
X520154Y513506D02*
X519608Y514256D01*
X518790Y514631*
X517699*
X516881Y514256*
X516335Y513506*
Y512756*
X516608Y512006*
X516881Y511631*
X517426Y511256*
X519063Y510506*
X519608Y510131*
X519881Y509756*
X520154Y509006*
Y507881*
X519608Y507131*
X518790Y506756*
X517699*
X516881Y507131*
X516335Y507881*
X522608Y514631D02*
Y506756D01*
X528881Y514631D02*
X525063Y506756D01*
Y514631D02*
X528881D01*
X525063Y506756D02*
X528881D01*
X531335Y514631D02*
Y506756D01*
Y514631D02*
X534881D01*
X531335Y510881D02*
X533517D01*
X531335Y506756D02*
X534881D01*
X578517Y514631D02*
X577972Y514256D01*
X577426Y513506*
X577154Y512756*
X576881Y511631*
Y509756*
X577154Y508631*
X577426Y507881*
X577972Y507131*
X578517Y506756*
X579608*
X580154Y507131*
X580699Y507881*
X580972Y508631*
X581244Y509756*
Y511631*
X580972Y512756*
X580699Y513506*
X580154Y514256*
X579608Y514631*
X578517*
X579335Y508256D02*
X580972Y506006D01*
X585608Y514631D02*
Y506756D01*
X583699Y514631D02*
X587517D01*
X589972D02*
X592154Y510881D01*
Y506756*
X594335Y514631D02*
X592154Y510881D01*
X616699Y513506D02*
X616154Y514256D01*
X615335Y514631*
X614244*
X613426Y514256*
X612881Y513506*
Y512756*
X613154Y512006*
X613426Y511631*
X613972Y511256*
X615608Y510506*
X616154Y510131*
X616426Y509756*
X616699Y509006*
Y507881*
X616154Y507131*
X615335Y506756*
X614244*
X613426Y507131*
X612881Y507881*
X619154Y514631D02*
X621335Y510881D01*
Y506756*
X623517Y514631D02*
X621335Y510881D01*
X625972Y514631D02*
Y506756D01*
Y514631D02*
X628154Y506756D01*
X630335Y514631D02*
X628154Y506756D01*
X630335Y514631D02*
Y506756D01*
X652154Y514631D02*
Y506756D01*
Y514631D02*
X654608D01*
X655426Y514256*
X655699Y513881*
X655972Y513131*
Y512006*
X655699Y511256*
X655426Y510881*
X654608Y510506*
X652154*
X658426Y514631D02*
Y506756D01*
X661699*
X666335Y514631D02*
X664154Y506756D01*
X666335Y514631D02*
X668517Y506756D01*
X664972Y509381D02*
X667699D01*
X672881Y514631D02*
Y506756D01*
X670972Y514631D02*
X674790D01*
X677244D02*
Y506756D01*
Y514631D02*
X680790D01*
X677244Y510881D02*
X679426D01*
X677244Y506756D02*
X680790D01*
X683244Y514631D02*
Y506756D01*
Y514631D02*
X685154D01*
X685972Y514256*
X686517Y513506*
X686790Y512756*
X687063Y511631*
Y509756*
X686790Y508631*
X686517Y507881*
X685972Y507131*
X685154Y506756*
X683244*
X711335Y514631D02*
Y506756D01*
X709426Y514631D02*
X713244D01*
X717335D02*
X716790Y514256D01*
X716244Y513506*
X715972Y512756*
X715699Y511631*
Y509756*
X715972Y508631*
X716244Y507881*
X716790Y507131*
X717335Y506756*
X718426*
X718972Y507131*
X719517Y507881*
X719790Y508631*
X720063Y509756*
Y511631*
X719790Y512756*
X719517Y513506*
X718972Y514256*
X718426Y514631*
X717335*
X722517D02*
Y506756D01*
X725790*
X491888Y490631D02*
X491070Y490256D01*
X490525Y489131*
X490252Y487256*
Y486131*
X490525Y484256*
X491070Y483131*
X491888Y482756*
X492434*
X493252Y483131*
X493797Y484256*
X494070Y486131*
Y487256*
X493797Y489131*
X493252Y490256*
X492434Y490631*
X491888*
X496797Y483506D02*
X496525Y483131D01*
X496797Y482756*
X497070Y483131*
X496797Y483506*
X499797Y488756D02*
Y489131D01*
X500070Y489881*
X500343Y490256*
X500888Y490631*
X501979*
X502525Y490256*
X502797Y489881*
X503070Y489131*
Y488381*
X502797Y487631*
X502252Y486506*
X499525Y482756*
X503343*
X509343Y490631D02*
X506616D01*
X506343Y487256*
X506616Y487631*
X507434Y488006*
X508252*
X509070Y487631*
X509616Y486881*
X509888Y485756*
X509616Y485006*
X509343Y483881*
X508797Y483131*
X507979Y482756*
X507161*
X506343Y483131*
X506070Y483506*
X505797Y484256*
X578654Y489131D02*
X579199Y489506D01*
X580017Y490631*
Y482756*
X586017Y488006D02*
X585744Y486881D01*
X585199Y486131*
X584381Y485756*
X584108*
X583290Y486131*
X582744Y486881*
X582472Y488006*
Y488381*
X582744Y489506*
X583290Y490256*
X584108Y490631*
X584381*
X585199Y490256*
X585744Y489506*
X586017Y488006*
Y486131*
X585744Y484256*
X585199Y483131*
X584381Y482756*
X583835*
X583017Y483131*
X582744Y483881*
X592017Y490631D02*
X589290D01*
X589017Y487256*
X589290Y487631*
X590108Y488006*
X590926*
X591744Y487631*
X592290Y486881*
X592563Y485756*
X592290Y485006*
X592017Y483881*
X591472Y483131*
X590654Y482756*
X589835*
X589017Y483131*
X588744Y483506*
X588472Y484256*
X616252Y482756D02*
X628252Y494756D01*
X616252D02*
X628252Y482756D01*
X649290Y490631D02*
X651472Y486881D01*
Y482756*
X653654Y490631D02*
X651472Y486881D01*
X656108Y490631D02*
Y482756D01*
Y490631D02*
X659654D01*
X656108Y486881D02*
X658290D01*
X656108Y482756D02*
X659654D01*
X665926Y489506D02*
X665381Y490256D01*
X664563Y490631*
X663472*
X662654Y490256*
X662108Y489506*
Y488756*
X662381Y488006*
X662654Y487631*
X663199Y487256*
X664835Y486506*
X665381Y486131*
X665654Y485756*
X665926Y485006*
Y483881*
X665381Y483131*
X664563Y482756*
X663472*
X662654Y483131*
X662108Y483881*
X702472Y489506D02*
Y482756D01*
X700017Y486131D02*
X704926D01*
X712290Y492131D02*
X707381Y480131D01*
X714744Y486131D02*
X719654D01*
X723744Y490631D02*
X722926Y490256D01*
X722381Y489131*
X722108Y487256*
Y486131*
X722381Y484256*
X722926Y483131*
X723744Y482756*
X724290*
X725108Y483131*
X725654Y484256*
X725926Y486131*
Y487256*
X725654Y489131*
X725108Y490256*
X724290Y490631*
X723744*
X728654Y483506D02*
X728381Y483131D01*
X728654Y482756*
X728926Y483131*
X728654Y483506*
X733017Y490631D02*
X732199Y490256D01*
X731654Y489131*
X731381Y487256*
Y486131*
X731654Y484256*
X732199Y483131*
X733017Y482756*
X733563*
X734381Y483131*
X734926Y484256*
X735199Y486131*
Y487256*
X734926Y489131*
X734381Y490256*
X733563Y490631*
X733017*
X491888Y466631D02*
X491070Y466256D01*
X490525Y465131*
X490252Y463256*
Y462131*
X490525Y460256*
X491070Y459131*
X491888Y458756*
X492434*
X493252Y459131*
X493797Y460256*
X494070Y462131*
Y463256*
X493797Y465131*
X493252Y466256*
X492434Y466631*
X491888*
X496797Y459506D02*
X496525Y459131D01*
X496797Y458756*
X497070Y459131*
X496797Y459506*
X502252Y466631D02*
X499525Y461381D01*
X503616*
X502252Y466631D02*
Y458756D01*
X583972Y466631D02*
X581244D01*
X580972Y463256*
X581244Y463631*
X582063Y464006*
X582881*
X583699Y463631*
X584244Y462881*
X584517Y461756*
X584244Y461006*
X583972Y459881*
X583426Y459131*
X582608Y458756*
X581790*
X580972Y459131*
X580699Y459506*
X580426Y460256*
X588608Y466631D02*
X587790Y466256D01*
X587244Y465131*
X586972Y463256*
Y462131*
X587244Y460256*
X587790Y459131*
X588608Y458756*
X589154*
X589972Y459131*
X590517Y460256*
X590790Y462131*
Y463256*
X590517Y465131*
X589972Y466256*
X589154Y466631*
X588608*
X616252Y464756D02*
X628252D01*
X622252Y458756D02*
Y470756D01*
X626997Y474056D02*
X625252Y467756D01*
X626997Y474056D02*
X628743Y467756D01*
X625907Y469856D02*
X628088D01*
X649290Y466631D02*
X651472Y462881D01*
Y458756*
X653654Y466631D02*
X651472Y462881D01*
X656108Y466631D02*
Y458756D01*
Y466631D02*
X659654D01*
X656108Y462881D02*
X658290D01*
X656108Y458756D02*
X659654D01*
X665926Y465506D02*
X665381Y466256D01*
X664563Y466631*
X663472*
X662654Y466256*
X662108Y465506*
Y464756*
X662381Y464006*
X662654Y463631*
X663199Y463256*
X664835Y462506*
X665381Y462131*
X665654Y461756*
X665926Y461006*
Y459881*
X665381Y459131*
X664563Y458756*
X663472*
X662654Y459131*
X662108Y459881*
X702472Y465506D02*
Y458756D01*
X700017Y462131D02*
X704926D01*
X712290Y468131D02*
X707381Y456131D01*
X714744Y462131D02*
X719654D01*
X723744Y466631D02*
X722926Y466256D01*
X722381Y465131*
X722108Y463256*
Y462131*
X722381Y460256*
X722926Y459131*
X723744Y458756*
X724290*
X725108Y459131*
X725654Y460256*
X725926Y462131*
Y463256*
X725654Y465131*
X725108Y466256*
X724290Y466631*
X723744*
X728654Y459506D02*
X728381Y459131D01*
X728654Y458756*
X728926Y459131*
X728654Y459506*
X733017Y466631D02*
X732199Y466256D01*
X731654Y465131*
X731381Y463256*
Y462131*
X731654Y460256*
X732199Y459131*
X733017Y458756*
X733563*
X734381Y459131*
X734926Y460256*
X735199Y462131*
Y463256*
X734926Y465131*
X734381Y466256*
X733563Y466631*
X733017*
G54D158*
X393701Y393701D02*
X464567D01*
Y503543*
X393701*
Y393701*
G54D405*
Y525002D02*
X411588D01*
X393701D02*
X403701Y527502D01*
Y522502*
X393701Y525002*
X464567D02*
X446679D01*
X464567D02*
X454567Y522502D01*
Y527502*
X464567Y525002*
X393701Y503622D02*
Y530002D01*
X464567Y503622D02*
Y530002D01*
X414588Y526565D02*
X415043Y526877D01*
X415725Y527815*
Y521252*
X418907Y527815D02*
X418225Y527502D01*
X417997Y526877*
Y526252*
X418225Y525627*
X418679Y525315*
X419588Y525002*
X420270Y524690*
X420725Y524065*
X420952Y523440*
Y522502*
X420725Y521877*
X420497Y521565*
X419816Y521252*
X418907*
X418225Y521565*
X417997Y521877*
X417770Y522502*
Y523440*
X417997Y524065*
X418452Y524690*
X419134Y525002*
X420043Y525315*
X420497Y525627*
X420725Y526252*
Y526877*
X420497Y527502*
X419816Y527815*
X418907*
X423225Y521877D02*
X422997Y521565D01*
X423225Y521252*
X423452Y521565*
X423225Y521877*
X426861Y527815D02*
X426179Y527502D01*
X425725Y526565*
X425497Y525002*
Y524065*
X425725Y522502*
X426179Y521565*
X426861Y521252*
X427316*
X427997Y521565*
X428452Y522502*
X428679Y524065*
Y525002*
X428452Y526565*
X427997Y527502*
X427316Y527815*
X426861*
X430725Y525627D02*
Y521252D01*
Y524377D02*
X431407Y525315D01*
X431861Y525627*
X432543*
X432997Y525315*
X433225Y524377*
Y521252*
Y524377D02*
X433907Y525315D01*
X434361Y525627*
X435043*
X435497Y525315*
X435725Y524377*
Y521252*
X437770Y525627D02*
Y521252D01*
Y524377D02*
X438452Y525315D01*
X438907Y525627*
X439588*
X440043Y525315*
X440270Y524377*
Y521252*
Y524377D02*
X440952Y525315D01*
X441407Y525627*
X442088*
X442543Y525315*
X442770Y524377*
Y521252*
X354594Y393713D02*
Y441878D01*
Y393713D02*
X352094Y403713D01*
X357094*
X354594Y393713*
Y503543D02*
Y455378D01*
Y503543D02*
X357094Y493543D01*
X352094*
X354594Y503543*
X388701Y393713D02*
X349594D01*
X388781Y503543D02*
X349594D01*
X339367Y449878D02*
Y450191D01*
X339594Y450816*
X339821Y451128*
X340276Y451441*
X341185*
X341639Y451128*
X341867Y450816*
X342094Y450191*
Y449566*
X341867Y448941*
X341412Y448003*
X339139Y444878*
X342321*
X347548Y451441D02*
X345276Y444878D01*
X344367Y451441D02*
X347548D01*
X349821Y445503D02*
X349594Y445191D01*
X349821Y444878*
X350048Y445191*
X349821Y445503*
X355048Y449253D02*
X354821Y448316D01*
X354367Y447691*
X353685Y447378*
X353457*
X352776Y447691*
X352321Y448316*
X352094Y449253*
Y449566*
X352321Y450503*
X352776Y451128*
X353457Y451441*
X353685*
X354367Y451128*
X354821Y450503*
X355048Y449253*
Y447691*
X354821Y446128*
X354367Y445191*
X353685Y444878*
X353230*
X352548Y445191*
X352321Y445816*
X357094Y449253D02*
Y444878D01*
Y448003D02*
X357776Y448941D01*
X358230Y449253*
X358912*
X359367Y448941*
X359594Y448003*
Y444878*
Y448003D02*
X360276Y448941D01*
X360730Y449253*
X361412*
X361867Y448941*
X362094Y448003*
Y444878*
X364139Y449253D02*
Y444878D01*
Y448003D02*
X364821Y448941D01*
X365276Y449253*
X365957*
X366412Y448941*
X366639Y448003*
Y444878*
Y448003D02*
X367321Y448941D01*
X367776Y449253*
X368457*
X368912Y448941*
X369139Y448003*
Y444878*
X484252Y524756D02*
X742252D01*
X484252Y500756D02*
X742252D01*
X484252Y476756D02*
X742252D01*
X484252Y452756D02*
X742252D01*
X484252Y524756D02*
Y452756D01*
X568252Y524756D02*
Y452756D01*
X604252Y524756D02*
Y452756D01*
X640252Y524756D02*
Y452756D01*
X694252Y524756D02*
Y452756D01*
X742252Y524756D02*
Y452756D01*
X0Y0D02*
M02*
