%
T1C.00984F0S0
X039591Y039595
X03979Y03967
X039572Y039842
X041181Y040083
X04076Y040087
X040043Y040091
X041591Y040102
X04079Y04035
X040988Y040543
X041024Y040778
X040122Y040839
X040047Y041295
X04102Y041416
X040965Y041709
X040886Y041913
X040067Y042024
X041281Y04251
X04174Y043173
X040338Y043358
X041156Y043466
X040338Y043718
X041843Y043761
X040787Y044008
X041736Y044484
X04115Y044728
X04011Y044738
X040994Y0449
X041732Y044953
X041185Y045028
X040996Y045201
X041173Y045335
X041736Y045339
X04099Y045453
X040984Y045676
X04176Y045677
X041201Y045723
X041084Y046062
X041437Y046228
X041488Y046441
X041709Y046488
X041665Y046705
X041033Y046731
X041874Y046772
X041465Y046819
X041713Y047004
X040067Y04735
X040051Y04763
X04053Y04789
X03963Y04789
X04011Y04789
X041024Y047894
X041528Y047898
X042799Y047894
X042224Y047894
X043992Y04789
X04339Y04789
X044084Y047635
X043612Y047625
X043391Y047485
X042548Y047353
X04353Y047258
X043669Y0471
X043099Y047029
X043527Y046976
X044212Y046947
X043535Y046661
X042226Y046639
X043075Y046539
X042755Y046538
X044346Y046535
X042388Y046494
X042586Y046403
X042918Y04639
X043219Y046359
X04399Y04629
X04419Y04601
X043413Y045724
X043709Y04572
X043059Y04572
X042343Y045709
X042709Y045709
X043059Y045213
X043417Y045213
X042693Y045209
X043713Y045197
X042362Y045185
X044335Y044902
X043713Y044756
X043409Y044748
X042709Y04474
X043047Y044728
X044374Y044602
X042382Y044504
X042709Y044272
X043409Y044268
X043713Y044264
X043071Y04424
X042721Y04382
X04238Y043816
X043079Y043812
X043406Y043812
X044043Y043386
X044343Y043386
X041965Y043189
X042638Y043185
X04302Y043075
X042161Y043063
X042803Y043039
X044237Y043003
X04233Y042544
X04261Y042529
X043143Y042527
X043756Y042504
X04387Y042307
X044094Y042228
X042717Y042024
X043602Y042004
X043248Y041996
X043831Y041886
X042382Y04178
X042732Y041594
X04413Y041528
X043831Y041429
X042378Y041283
X042732Y041276
X044138Y041035
X043823Y040929
X042913Y040929
X042366Y040787
X044181Y040539
X043709Y040098
X043354Y040087
X042102Y040079
X044224Y040079
X042508Y040071
X042921Y040055
X04626Y039575
X04609Y03969
X046264Y039894
X044642Y040063
X045083Y040071
X045665Y040177
X04553Y04031
X04539Y04047
X045264Y040598
X045772Y040843
X045736Y0415
X045909Y041929
X04572Y041929
X044728Y042236
X045748Y042323
X045358Y042555
X045197Y042701
X044535Y042886
X04498Y042937
X04575Y04299
X044921Y043169
X044591Y043189
X04573Y04343
X044697Y043657
X044579Y043862
X045453Y044154
X045197Y044193
X044626Y044232
X04459Y04463
X04459Y04495
X04483Y04501
X04575Y04515
X04517Y04521
X04493Y04547
X04471Y04551
X04441Y04553
X04549Y04553
X04575Y04563
X04529Y04565
X04476Y045976
X045307Y046035
X04567Y04605
X044925Y046114
X044587Y046331
X04565Y04641
X04523Y04641
X044748Y046465
X044486Y047161
X045323Y047276
X045066Y047375
X04573Y04759
X04507Y04761
X04451Y04765
X045388Y047838
X045148Y047838
X045958Y047838
X045658Y047838
X046258Y047838
X04445Y04789
T2C.01575F095S3
X040531Y039409
X040965Y039409
X041398Y039409
X041831Y039409
X040098Y039409
X039409Y040197
X039409Y04063
X039409Y041063
X039409Y041496
X039409Y041929
X039409Y042362
X039409Y042795
X039409Y043228
X039409Y043661
X039409Y044094
X039409Y044528
X039409Y044961
X039409Y045394
X039409Y045827
X039409Y04626
X039409Y046693
X039409Y047126
X039409Y047559
X042697Y039409
X04313Y039409
X043563Y039409
X043996Y039409
X042264Y039409
X044862Y039409
X045295Y039409
X044429Y039409
X045728Y039409
X046417Y040197
X046417Y04063
X046417Y041063
X046417Y041496
X046417Y041929
X046417Y042362
X046417Y042795
X046417Y043228
X046417Y043661
X046417Y044094
X046417Y044528
X046417Y044961
X046417Y045394
X046417Y045827
X046417Y04626
X046417Y046693
X046417Y047126
X046417Y047559
M30
