*
*
G04 PADS 9.5 Build Number: 522968 generated Gerber (RS-274-X) file*
G04 PC Version=2.1*
*
%IN "SF32LB52-DevKit-LCD_PCB"*%
*
%MOIN*%
*
%FSLAX35Y35*%
*
*
*
*
G04 PC Standard Apertures*
*
*
G04 Thermal Relief Aperture macro.*
%AMTER*
1,1,$1,0,0*
1,0,$1-$2,0,0*
21,0,$3,$4,0,0,45*
21,0,$3,$4,0,0,135*
%
*
*
G04 Annular Aperture macro.*
%AMANN*
1,1,$1,0,0*
1,0,$2,0,0*
%
*
*
G04 Odd Aperture macro.*
%AMODD*
1,1,$1,0,0*
1,0,$1-0.005,0,0*
%
*
*
G04 PC Custom Aperture Macros*
*
*
*
*
*
*
G04 PC Aperture Table*
*
%ADD010C,0.001*%
%ADD158C,0.00394*%
%ADD240C,0.00787*%
%ADD361C,0.01102*%
%ADD410C,0.004*%
%ADD422R,0.00394X0.00394*%
%ADD442C,0.01811*%
%ADD443R,0.06417X0.06417*%
%ADD444C,0.06417*%
%ADD445C,0.01339*%
%ADD446C,0.24213*%
%ADD448O,0.04331X0.08661*%
%ADD449O,0.04331X0.0748*%
%ADD453R,0.01378X0.01654*%
%ADD454C,0.07874*%
%ADD457C,0.04724*%
%ADD463C,0.06299*%
%ADD464C,0.14173*%
%ADD465C,0.05512*%
%ADD466R,0.1378X0.17323*%
%ADD467R,0.06693X0.0315*%
%ADD468R,0.05906X0.05118*%
%ADD469R,0.09055X0.05118*%
%ADD470R,0.05906X0.06693*%
*
*
*
*
G04 PC Circuitry*
G04 Layer Name SF32LB52-DevKit-LCD_PCB - circuitry*
%LPD*%
*
*
G04 PC Custom Flashes*
G04 Layer Name SF32LB52-DevKit-LCD_PCB - flashes*
%LPD*%
*
*
G04 PC Circuitry*
G04 Layer Name SF32LB52-DevKit-LCD_PCB - circuitry*
%LPD*%
*
G54D10*
G54D158*
G01X520866Y449685D02*
X522047D01*
Y447913*
X520866*
Y449685*
Y448031D02*
X522047D01*
X520866Y448425D02*
X522047D01*
X520866Y448819D02*
X522047D01*
X520866Y449213D02*
X522047D01*
X520866Y449606D02*
X522047D01*
X520866Y447913D02*
Y449685D01*
X521260Y447913D02*
Y449685D01*
X521654Y447913D02*
Y449685D01*
X522047Y447913D02*
Y449685D01*
X523425D02*
X524606D01*
Y447913*
X523425*
Y449685*
Y448031D02*
X524606D01*
X523425Y448425D02*
X524606D01*
X523425Y448819D02*
X524606D01*
X523425Y449213D02*
X524606D01*
X523425Y449606D02*
X524606D01*
X523622Y447913D02*
Y449685D01*
X524016Y447913D02*
Y449685D01*
X524409Y447913D02*
Y449685D01*
X525984D02*
X527165D01*
Y447913*
X525984*
Y449685*
Y448031D02*
X527165D01*
X525984Y448425D02*
X527165D01*
X525984Y448819D02*
X527165D01*
X525984Y449213D02*
X527165D01*
X525984Y449606D02*
X527165D01*
X525984Y447913D02*
Y449685D01*
X526378Y447913D02*
Y449685D01*
X526772Y447913D02*
Y449685D01*
X527165Y447913D02*
Y449685D01*
X525984Y442008D02*
X527165D01*
Y440236*
X525984*
Y442008*
Y440551D02*
X527165D01*
X525984Y440945D02*
X527165D01*
X525984Y441339D02*
X527165D01*
X525984Y441732D02*
X527165D01*
X525984Y440236D02*
Y442008D01*
X526378Y440236D02*
Y442008D01*
X526772Y440236D02*
Y442008D01*
X527165Y440236D02*
Y442008D01*
X523425D02*
X524606D01*
Y440236*
X523425*
Y442008*
Y440551D02*
X524606D01*
X523425Y440945D02*
X524606D01*
X523425Y441339D02*
X524606D01*
X523425Y441732D02*
X524606D01*
X523622Y440236D02*
Y442008D01*
X524016Y440236D02*
Y442008D01*
X524409Y440236D02*
Y442008D01*
X520866D02*
X522047D01*
Y440236*
X520866*
Y442008*
Y440551D02*
X522047D01*
X520866Y440945D02*
X522047D01*
X520866Y441339D02*
X522047D01*
X520866Y441732D02*
X522047D01*
X520866Y440236D02*
Y442008D01*
X521260Y440236D02*
Y442008D01*
X521654Y440236D02*
Y442008D01*
X522047Y440236D02*
Y442008D01*
X407468Y649606D02*
G75*
G03X393701Y635815I146J-13913D01*
G01X407480Y649606D02*
X419291D01*
X423228Y645231D02*
G03X419288Y649607I-4586J-168D01*
G01X423228Y645226D02*
Y629134D01*
Y629135D02*
G03X427163Y624804I4590J216D01*
G01X427165Y624803D02*
X509449D01*
X509448D02*
G03X513779Y628738I-217J4590D01*
G01X513780Y628740D02*
Y645669D01*
X518113Y649606D02*
G03X513780Y645671I250J-4628D01*
G01X518110Y649606D02*
X529528D01*
X543308Y635814D02*
G03X529540Y649606I-14476J-683D01*
G01X543307Y635827D02*
Y407480D01*
X529512Y393701D02*
G03X543307Y407471I0J13795D01*
G01X529528Y393701D02*
X407480D01*
X393701Y407480D02*
G03X407480Y393701I13779J0D01*
G01X393701Y407480D02*
Y635827D01*
G54D240*
X475197Y530118D02*
Y532087D01*
X477953*
Y530118*
X475197*
Y530709D02*
X477953D01*
X475197Y531496D02*
X477953D01*
X475591Y530118D02*
Y532087D01*
X476378Y530118D02*
Y532087D01*
X477165Y530118D02*
Y532087D01*
X477953Y530118D02*
Y532087D01*
X475197Y533858D02*
Y535827D01*
X477953*
Y533858*
X475197*
X477953*
X475197Y534646D02*
X477953D01*
X475197Y535433D02*
X477953D01*
X475591Y533858D02*
Y535827D01*
X476378Y533858D02*
Y535827D01*
X477165Y533858D02*
Y535827D01*
X477953Y533858D02*
Y535827D01*
X475197Y537598D02*
Y539567D01*
X477953*
Y537598*
X475197*
Y537795D02*
X477953D01*
X475197Y538583D02*
X477953D01*
X475197Y539370D02*
X477953D01*
X475591Y537598D02*
Y539567D01*
X476378Y537598D02*
Y539567D01*
X477165Y537598D02*
Y539567D01*
X477953Y537598D02*
Y539567D01*
X485433Y537598D02*
Y539567D01*
X488189*
Y537598*
X485433*
Y537795D02*
X488189D01*
X485433Y538583D02*
X488189D01*
X485433Y539370D02*
X488189D01*
X485827Y537598D02*
Y539567D01*
X486614Y537598D02*
Y539567D01*
X487402Y537598D02*
Y539567D01*
X488189Y537598D02*
Y539567D01*
X485433Y533858D02*
Y535827D01*
X488189*
Y533858*
X485433*
X488189*
X485433Y534646D02*
X488189D01*
X485433Y535433D02*
X488189D01*
X485827Y533858D02*
Y535827D01*
X486614Y533858D02*
Y535827D01*
X487402Y533858D02*
Y535827D01*
X488189Y533858D02*
Y535827D01*
X485433Y530118D02*
Y532087D01*
X488189*
Y530118*
X485433*
Y530709D02*
X488189D01*
X485433Y531496D02*
X488189D01*
X485827Y530118D02*
Y532087D01*
X486614Y530118D02*
Y532087D01*
X487402Y530118D02*
Y532087D01*
X488189Y530118D02*
Y532087D01*
X478740Y572657D02*
Y571083D01*
X472047*
Y572657*
X478740*
X472047Y571654D02*
X478740D01*
X472047Y572441D02*
X478740D01*
X472441Y571083D02*
Y572657D01*
X473228Y571083D02*
Y572657D01*
X474016Y571083D02*
Y572657D01*
X474803Y571083D02*
Y572657D01*
X475591Y571083D02*
Y572657D01*
X476378Y571083D02*
Y572657D01*
X477165Y571083D02*
Y572657D01*
X477953Y571083D02*
Y572657D01*
X478740Y571083D02*
Y572657D01*
Y567657D02*
Y566083D01*
X472047*
Y567657*
X478740*
X472047Y566142D02*
X478740D01*
X472047Y566929D02*
X478740D01*
X472441Y566083D02*
Y567657D01*
X473228Y566083D02*
Y567657D01*
X474016Y566083D02*
Y567657D01*
X474803Y566083D02*
Y567657D01*
X475591Y566083D02*
Y567657D01*
X476378Y566083D02*
Y567657D01*
X477165Y566083D02*
Y567657D01*
X477953Y566083D02*
Y567657D01*
X478740Y566083D02*
Y567657D01*
Y562657D02*
Y561083D01*
X472047*
Y562657*
X478740*
X472047Y561417D02*
X478740D01*
X472047Y562205D02*
X478740D01*
X472441Y561083D02*
Y562657D01*
X473228Y561083D02*
Y562657D01*
X474016Y561083D02*
Y562657D01*
X474803Y561083D02*
Y562657D01*
X475591Y561083D02*
Y562657D01*
X476378Y561083D02*
Y562657D01*
X477165Y561083D02*
Y562657D01*
X477953Y561083D02*
Y562657D01*
X478740Y561083D02*
Y562657D01*
Y557657D02*
Y556083D01*
X472047*
Y557657*
X478740*
X472047Y556693D02*
X478740D01*
X472047Y557480D02*
X478740D01*
X472441Y556083D02*
Y557657D01*
X473228Y556083D02*
Y557657D01*
X474016Y556083D02*
Y557657D01*
X474803Y556083D02*
Y557657D01*
X475591Y556083D02*
Y557657D01*
X476378Y556083D02*
Y557657D01*
X477165Y556083D02*
Y557657D01*
X477953Y556083D02*
Y557657D01*
X478740Y556083D02*
Y557657D01*
X452362D02*
Y556083D01*
X445669*
Y557657*
X452362*
X445669Y556693D02*
X452362D01*
X445669Y557480D02*
X452362D01*
X445669Y556083D02*
Y557657D01*
X446457Y556083D02*
Y557657D01*
X447244Y556083D02*
Y557657D01*
X448031Y556083D02*
Y557657D01*
X448819Y556083D02*
Y557657D01*
X449606Y556083D02*
Y557657D01*
X450394Y556083D02*
Y557657D01*
X451181Y556083D02*
Y557657D01*
X451969Y556083D02*
Y557657D01*
X452362Y562657D02*
Y561083D01*
X445669*
Y562657*
X452362*
X445669Y561417D02*
X452362D01*
X445669Y562205D02*
X452362D01*
X445669Y561083D02*
Y562657D01*
X446457Y561083D02*
Y562657D01*
X447244Y561083D02*
Y562657D01*
X448031Y561083D02*
Y562657D01*
X448819Y561083D02*
Y562657D01*
X449606Y561083D02*
Y562657D01*
X450394Y561083D02*
Y562657D01*
X451181Y561083D02*
Y562657D01*
X451969Y561083D02*
Y562657D01*
X452362Y567657D02*
Y566083D01*
X445669*
Y567657*
X452362*
X445669Y566142D02*
X452362D01*
X445669Y566929D02*
X452362D01*
X445669Y566083D02*
Y567657D01*
X446457Y566083D02*
Y567657D01*
X447244Y566083D02*
Y567657D01*
X448031Y566083D02*
Y567657D01*
X448819Y566083D02*
Y567657D01*
X449606Y566083D02*
Y567657D01*
X450394Y566083D02*
Y567657D01*
X451181Y566083D02*
Y567657D01*
X451969Y566083D02*
Y567657D01*
X452362Y572657D02*
Y571083D01*
X445669*
Y572657*
X452362*
X445669Y571654D02*
X452362D01*
X445669Y572441D02*
X452362D01*
X445669Y571083D02*
Y572657D01*
X446457Y571083D02*
Y572657D01*
X447244Y571083D02*
Y572657D01*
X448031Y571083D02*
Y572657D01*
X448819Y571083D02*
Y572657D01*
X449606Y571083D02*
Y572657D01*
X450394Y571083D02*
Y572657D01*
X451181Y571083D02*
Y572657D01*
X451969Y571083D02*
Y572657D01*
X521063Y443189D02*
Y446732D01*
X526969*
Y443189*
X521063*
Y443307D02*
X526969D01*
X521063Y444094D02*
X526969D01*
X521063Y444882D02*
X526969D01*
X521063Y445669D02*
X526969D01*
X521063Y446457D02*
X526969D01*
X521260Y443189D02*
Y446732D01*
X522047Y443189D02*
Y446732D01*
X522835Y443189D02*
Y446732D01*
X523622Y443189D02*
Y446732D01*
X524409Y443189D02*
Y446732D01*
X525197Y443189D02*
Y446732D01*
X525984Y443189D02*
Y446732D01*
X526772Y443189D02*
Y446732D01*
X535669Y428720D02*
Y425531D01*
X531260*
Y428720*
X535669*
X531260Y425984D02*
X535669D01*
X531260Y426772D02*
X535669D01*
X531260Y427559D02*
X535669D01*
X531260Y428346D02*
X535669D01*
X531496Y425531D02*
Y428720D01*
X532283Y425531D02*
Y428720D01*
X533071Y425531D02*
Y428720D01*
X533858Y425531D02*
Y428720D01*
X534646Y425531D02*
Y428720D01*
X535433Y425531D02*
Y428720D01*
X535669Y441634D02*
Y438445D01*
X531260*
Y441634*
X535669*
X531260Y438583D02*
X535669D01*
X531260Y439370D02*
X535669D01*
X531260Y440157D02*
X535669D01*
X531260Y440945D02*
X535669D01*
X531496Y438445D02*
Y441634D01*
X532283Y438445D02*
Y441634D01*
X533071Y438445D02*
Y441634D01*
X533858Y438445D02*
Y441634D01*
X534646Y438445D02*
Y441634D01*
X535433Y438445D02*
Y441634D01*
X515846Y561220D02*
X514665D01*
Y565945*
X515846*
Y561220*
X514665Y561417D02*
X515846D01*
X514665Y562205D02*
X515846D01*
X514665Y562992D02*
X515846D01*
X514665Y563780D02*
X515846D01*
X514665Y564567D02*
X515846D01*
X514665Y565354D02*
X515846D01*
X514961Y561220D02*
Y565945D01*
X515748Y561220D02*
Y565945D01*
X513287Y561220D02*
X512106D01*
Y565945*
X513287*
Y561220*
X512106Y561417D02*
X513287D01*
X512106Y562205D02*
X513287D01*
X512106Y562992D02*
X513287D01*
X512106Y563780D02*
X513287D01*
X512106Y564567D02*
X513287D01*
X512106Y565354D02*
X513287D01*
X512598Y561220D02*
Y565945D01*
X510728Y561220D02*
X509547D01*
Y565945*
X510728*
Y561220*
X509547Y561417D02*
X510728D01*
X509547Y562205D02*
X510728D01*
X509547Y562992D02*
X510728D01*
X509547Y563780D02*
X510728D01*
X509547Y564567D02*
X510728D01*
X509547Y565354D02*
X510728D01*
X510236Y561220D02*
Y565945D01*
X508169Y561220D02*
X506988D01*
Y565945*
X508169*
Y561220*
X506988Y561417D02*
X508169D01*
X506988Y562205D02*
X508169D01*
X506988Y562992D02*
X508169D01*
X506988Y563780D02*
X508169D01*
X506988Y564567D02*
X508169D01*
X506988Y565354D02*
X508169D01*
X507087Y561220D02*
Y565945D01*
X507874Y561220D02*
Y565945D01*
X508169Y577362D02*
X506988D01*
Y582087*
X508169*
Y577362*
X506988Y577953D02*
X508169D01*
X506988Y578740D02*
X508169D01*
X506988Y579528D02*
X508169D01*
X506988Y580315D02*
X508169D01*
X506988Y581102D02*
X508169D01*
X506988Y581890D02*
X508169D01*
X507087Y577362D02*
Y582087D01*
X507874Y577362D02*
Y582087D01*
X510728Y577362D02*
X509547D01*
Y582087*
X510728*
Y577362*
X509547Y577953D02*
X510728D01*
X509547Y578740D02*
X510728D01*
X509547Y579528D02*
X510728D01*
X509547Y580315D02*
X510728D01*
X509547Y581102D02*
X510728D01*
X509547Y581890D02*
X510728D01*
X510236Y577362D02*
Y582087D01*
X513287Y577362D02*
X512106D01*
Y582087*
X513287*
Y577362*
X512106Y577953D02*
X513287D01*
X512106Y578740D02*
X513287D01*
X512106Y579528D02*
X513287D01*
X512106Y580315D02*
X513287D01*
X512106Y581102D02*
X513287D01*
X512106Y581890D02*
X513287D01*
X512598Y577362D02*
Y582087D01*
X515846Y577362D02*
X514665D01*
Y582087*
X515846*
Y577362*
X514665Y577953D02*
X515846D01*
X514665Y578740D02*
X515846D01*
X514665Y579528D02*
X515846D01*
X514665Y580315D02*
X515846D01*
X514665Y581102D02*
X515846D01*
X514665Y581890D02*
X515846D01*
X514961Y577362D02*
Y582087D01*
X515748Y577362D02*
Y582087D01*
X465748Y532283D02*
X463780D01*
Y535039*
X465748*
Y532283*
X463780D02*
X465748D01*
X463780Y533071D02*
X465748D01*
X463780Y533858D02*
X465748D01*
X463780Y534646D02*
X465748D01*
X463780Y532283D02*
Y535039D01*
X464567Y532283D02*
Y535039D01*
X465354Y532283D02*
Y535039D01*
X462008Y532283D02*
X460039D01*
Y535039*
X462008*
Y532283*
X460039D02*
X462008D01*
X460039Y533071D02*
X462008D01*
X460039Y533858D02*
X462008D01*
X460039Y534646D02*
X462008D01*
X460630Y532283D02*
Y535039D01*
X461417Y532283D02*
Y535039D01*
X458268Y532283D02*
X456299D01*
Y535039*
X458268*
Y532283*
X456299D02*
X458268D01*
X456299Y533071D02*
X458268D01*
X456299Y533858D02*
X458268D01*
X456299Y534646D02*
X458268D01*
X456693Y532283D02*
Y535039D01*
X457480Y532283D02*
Y535039D01*
X458268Y532283D02*
Y535039D01*
Y542520D02*
X456299D01*
Y545276*
X458268*
Y542520*
X456299D02*
X458268D01*
X456299Y543307D02*
X458268D01*
X456299Y544094D02*
X458268D01*
X456299Y544882D02*
X458268D01*
X456693Y542520D02*
Y545276D01*
X457480Y542520D02*
Y545276D01*
X458268Y542520D02*
Y545276D01*
X462008Y542520D02*
X460039D01*
Y545276*
X462008*
Y542520*
X460039D02*
X462008D01*
X460039Y543307D02*
X462008D01*
X460039Y544094D02*
X462008D01*
X460039Y544882D02*
X462008D01*
X460630Y542520D02*
Y545276D01*
X461417Y542520D02*
Y545276D01*
X465748Y542520D02*
X463780D01*
Y545276*
X465748*
Y542520*
X463780D02*
X465748D01*
X463780Y543307D02*
X465748D01*
X463780Y544094D02*
X465748D01*
X463780Y544882D02*
X465748D01*
X463780Y542520D02*
Y545276D01*
X464567Y542520D02*
Y545276D01*
X465354Y542520D02*
Y545276D01*
G54D361*
X480846Y525551D02*
X479783D01*
Y526811*
X480846*
Y525551*
X479783Y525984D02*
X480846D01*
X480787Y525551D02*
Y526811D01*
X477697Y525551D02*
X476634D01*
Y526811*
X477697*
Y525551*
X476634Y525984D02*
X477697D01*
X477480Y525551D02*
Y526811D01*
X466807Y579445D02*
X467870D01*
Y578185*
X466807*
Y579445*
Y578898D02*
X467870D01*
X467559Y578185D02*
Y579445D01*
X469957D02*
X471020D01*
Y578185*
X469957*
Y579445*
Y578898D02*
X471020D01*
X470866Y578185D02*
Y579445D01*
X470512Y548957D02*
Y547894D01*
X469252*
Y548957*
X470512*
X469252Y548031D02*
X470512D01*
X469764Y547894D02*
Y548957D01*
X470512Y545807D02*
Y544744D01*
X469252*
Y545807*
X470512*
X469764Y544744D02*
Y545807D01*
X472992Y544744D02*
Y545807D01*
X474252*
Y544744*
X472992*
X473071D02*
Y545807D01*
X474173Y544744D02*
Y545807D01*
X472992Y547894D02*
Y548957D01*
X474252*
Y547894*
X472992*
Y548031D02*
X474252D01*
X473071Y547894D02*
Y548957D01*
X474173Y547894D02*
Y548957D01*
X475453Y519665D02*
X476516D01*
Y518406*
X475453*
Y519665*
Y519370D02*
X476516D01*
X476378Y518406D02*
Y519665D01*
X478602D02*
X479665D01*
Y518406*
X478602*
Y519665*
Y519370D02*
X479665D01*
X475453Y512047D02*
X476516D01*
Y510787*
X475453*
Y512047*
Y511654D02*
X476516D01*
X476378Y510787D02*
Y512047D01*
X478602D02*
X479665D01*
Y510787*
X478602*
Y512047*
Y511654D02*
X479665D01*
X475453Y504961D02*
X476516D01*
Y503701*
X475453*
Y504961*
Y503937D02*
X476516D01*
X476378Y503701D02*
Y504961D01*
X478602D02*
X479665D01*
Y503701*
X478602*
Y504961*
Y503937D02*
X479665D01*
X492362Y531831D02*
Y530768D01*
X491102*
Y531831*
X492362*
X491102Y531496D02*
X492362D01*
X491811Y530768D02*
Y531831D01*
X492362Y528681D02*
Y527618D01*
X491102*
Y528681*
X492362*
X491102Y528189D02*
X492362D01*
X491811Y527618D02*
Y528681D01*
X455217Y548740D02*
X454154D01*
Y550000*
X455217*
Y548740*
X454154Y549134D02*
X455217D01*
X454331Y548740D02*
Y550000D01*
X452067Y548740D02*
X451004D01*
Y550000*
X452067*
Y548740*
X451004Y549134D02*
X452067D01*
X451024Y548740D02*
Y550000D01*
X475453Y495512D02*
X476516D01*
Y494252*
X475453*
Y495512*
Y495118D02*
X476516D01*
X476378Y494252D02*
Y495512D01*
X478602D02*
X479665D01*
Y494252*
X478602*
Y495512*
Y495118D02*
X479665D01*
X481339Y548957D02*
Y547894D01*
X480079*
Y548957*
X481339*
X480079Y548031D02*
X481339D01*
X480787Y547894D02*
Y548957D01*
X481339Y545807D02*
Y544744D01*
X480079*
Y545807*
X481339*
X480787Y544744D02*
Y545807D01*
X452657Y546102D02*
Y545039D01*
X451398*
Y546102*
X452657*
X451398Y545827D02*
X452657D01*
X452126Y545039D02*
Y546102D01*
X452657Y542953D02*
Y541890D01*
X451398*
Y542953*
X452657*
X451398Y542520D02*
X452657D01*
X452126Y541890D02*
Y542953D01*
X447638Y541866D02*
Y542929D01*
X448898*
Y541866*
X447638*
Y542520D02*
X448898D01*
X447717Y541866D02*
Y542929D01*
X448819Y541866D02*
Y542929D01*
X447638Y545016D02*
Y546079D01*
X448898*
Y545016*
X447638*
Y545827D02*
X448898D01*
X447717Y545016D02*
Y546079D01*
X448819Y545016D02*
Y546079D01*
X429193Y558504D02*
X430256D01*
Y557244*
X429193*
Y558504*
Y557953D02*
X430256D01*
X430079Y557244D02*
Y558504D01*
X432343D02*
X433406D01*
Y557244*
X432343*
Y558504*
Y557953D02*
X433406D01*
X433386Y557244D02*
Y558504D01*
X437303Y546417D02*
X438366D01*
Y545157*
X437303*
Y546417*
Y545827D02*
X438366D01*
X437795Y545157D02*
Y546417D01*
X440453D02*
X441516D01*
Y545157*
X440453*
Y546417*
Y545827D02*
X441516D01*
X441102Y545157D02*
Y546417D01*
X458524Y549961D02*
X459587D01*
Y548701*
X458524*
Y549961*
Y549134D02*
X459587D01*
X458740Y548701D02*
Y549961D01*
X461673D02*
X462736D01*
Y548701*
X461673*
Y549961*
Y549134D02*
X462736D01*
X462047Y548701D02*
Y549961D01*
X471059Y585181D02*
X469996D01*
Y586441*
X471059*
Y585181*
X469996Y585512D02*
X471059D01*
X470866Y585181D02*
Y586441D01*
X467909Y585181D02*
X466846D01*
Y586441*
X467909*
Y585181*
X466846Y585512D02*
X467909D01*
X467559Y585181D02*
Y586441D01*
X466846Y583094D02*
X467909D01*
Y581835*
X466846*
Y583094*
Y582205D02*
X467909D01*
X467559Y581835D02*
Y583094D01*
X469996D02*
X471059D01*
Y581835*
X469996*
Y583094*
Y582205D02*
X471059D01*
X470866Y581835D02*
Y583094D01*
X474898Y586343D02*
Y585280D01*
X473638*
Y586343*
X474898*
X473638Y585512D02*
X474898D01*
X474173Y585280D02*
Y586343D01*
X474898Y583193D02*
Y582130D01*
X473638*
Y583193*
X474898*
X473638Y582205D02*
X474898D01*
X474173Y582130D02*
Y583193D01*
X441476Y570827D02*
X440413D01*
Y572087*
X441476*
Y570827*
X440413Y571181D02*
X441476D01*
X441102Y570827D02*
Y572087D01*
X438327Y570827D02*
X437264D01*
Y572087*
X438327*
Y570827*
X437264Y571181D02*
X438327D01*
X437795Y570827D02*
Y572087D01*
X441476Y561378D02*
X440413D01*
Y562638*
X441476*
Y561378*
X440413Y562362D02*
X441476D01*
X441102Y561378D02*
Y562638D01*
X438327Y561378D02*
X437264D01*
Y562638*
X438327*
Y561378*
X437264Y562362D02*
X438327D01*
X437795Y561378D02*
Y562638D01*
X441476Y591102D02*
X440413D01*
Y592362*
X441476*
Y591102*
X440413Y592126D02*
X441476D01*
X441102Y591102D02*
Y592362D01*
X438327Y591102D02*
X437264D01*
Y592362*
X438327*
Y591102*
X437264Y592126D02*
X438327D01*
X437795Y591102D02*
Y592362D01*
X437264Y550236D02*
X438327D01*
Y548976*
X437264*
Y550236*
Y549134D02*
X438327D01*
X437264Y550236D02*
X438327D01*
X437795Y548976D02*
Y550236D01*
X440413D02*
X441476D01*
Y548976*
X440413*
Y550236*
Y549134D02*
X441476D01*
X440413Y550236D02*
X441476D01*
X441102Y548976D02*
Y550236D01*
X441476Y557244D02*
X440413D01*
Y558504*
X441476*
Y557244*
X440413Y557953D02*
X441476D01*
X441102Y557244D02*
Y558504D01*
X438327Y557244D02*
X437264D01*
Y558504*
X438327*
Y557244*
X437264Y557953D02*
X438327D01*
X437795Y557244D02*
Y558504D01*
X429193Y562638D02*
X430256D01*
Y561378*
X429193*
Y562638*
Y562362D02*
X430256D01*
X430079Y561378D02*
Y562638D01*
X432343D02*
X433406D01*
Y561378*
X432343*
Y562638*
Y562362D02*
X433406D01*
X433386Y561378D02*
Y562638D01*
X437264Y566969D02*
X438327D01*
Y565709*
X437264*
Y566969*
Y566772D02*
X438327D01*
X437795Y565709D02*
Y566969D01*
X440413D02*
X441476D01*
Y565709*
X440413*
Y566969*
Y566772D02*
X441476D01*
X441102Y565709D02*
Y566969D01*
X484882Y548957D02*
Y547894D01*
X483622*
Y548957*
X484882*
X483622Y548031D02*
X484882D01*
X484094Y547894D02*
Y548957D01*
X484882Y545807D02*
Y544744D01*
X483622*
Y545807*
X484882*
X484094Y544744D02*
Y545807D01*
X488425Y548957D02*
Y547894D01*
X487165*
Y548957*
X488425*
X487165Y548031D02*
X488425D01*
X487402Y547894D02*
Y548957D01*
X488425Y545807D02*
Y544744D01*
X487165*
Y545807*
X488425*
X487402Y544744D02*
Y545807D01*
X491969Y548957D02*
Y547894D01*
X490709*
Y548957*
X491969*
X490709Y548031D02*
X491969D01*
X490709Y547894D02*
Y548957D01*
X491811Y547894D02*
Y548957D01*
X491969Y545807D02*
Y544744D01*
X490709*
Y545807*
X491969*
X490709Y544744D02*
Y545807D01*
X491811Y544744D02*
Y545807D01*
X477795Y548957D02*
Y547894D01*
X476535*
Y548957*
X477795*
X476535Y548031D02*
X477795D01*
X477480Y547894D02*
Y548957D01*
X477795Y545807D02*
Y544744D01*
X476535*
Y545807*
X477795*
X477480Y544744D02*
Y545807D01*
X441476Y576929D02*
X440413D01*
Y578189*
X441476*
Y576929*
X440413Y577795D02*
X441476D01*
X441102Y576929D02*
Y578189D01*
X438327Y576929D02*
X437264D01*
Y578189*
X438327*
Y576929*
X437264Y577795D02*
X438327D01*
X437795Y576929D02*
Y578189D01*
X515591Y440807D02*
Y441870D01*
X516850*
Y440807*
X515591*
Y441102D02*
X516850D01*
X516063Y440807D02*
Y441870D01*
X515591Y443957D02*
Y445020D01*
X516850*
Y443957*
X515591*
Y444409D02*
X516850D01*
X516063Y443957D02*
Y445020D01*
X441476Y599370D02*
X440413D01*
Y600630*
X441476*
Y599370*
X440413Y599843D02*
X441476D01*
X441102Y599370D02*
Y600630D01*
X438327Y599370D02*
X437264D01*
Y600630*
X438327*
Y599370*
X437264Y599843D02*
X438327D01*
X437795Y599370D02*
Y600630D01*
X437264Y585276D02*
X438327D01*
Y584016*
X437264*
Y585276*
Y584409D02*
X438327D01*
X437795Y584016D02*
Y585276D01*
X440413D02*
X441476D01*
Y584016*
X440413*
Y585276*
Y584409D02*
X441476D01*
X441102Y584016D02*
Y585276D01*
X437264Y581732D02*
X438327D01*
Y580472*
X437264*
Y581732*
Y581102D02*
X438327D01*
X437795Y580472D02*
Y581732D01*
X440413D02*
X441476D01*
Y580472*
X440413*
Y581732*
Y581102D02*
X441476D01*
X441102Y580472D02*
Y581732D01*
X441476Y602913D02*
X440413D01*
Y604173*
X441476*
Y602913*
X440413Y603150D02*
X441476D01*
X441102Y602913D02*
Y604173D01*
X438327Y602913D02*
X437264D01*
Y604173*
X438327*
Y602913*
X437264Y603150D02*
X438327D01*
X437795Y602913D02*
Y604173D01*
X536594Y444724D02*
X535531D01*
Y445984*
X536594*
Y444724*
X535531Y445512D02*
X536594D01*
X535906Y444724D02*
Y445984D01*
X533445Y444724D02*
X532382D01*
Y445984*
X533445*
Y444724*
X532382Y445512D02*
X533445D01*
X532598Y444724D02*
Y445984D01*
X441476Y606457D02*
X440413D01*
Y607717*
X441476*
Y606457*
X440413D02*
X441476D01*
X440413Y607559D02*
X441476D01*
X441102Y606457D02*
Y607717D01*
X438327Y606457D02*
X437264D01*
Y607717*
X438327*
Y606457*
X437264D02*
X438327D01*
X437264Y607559D02*
X438327D01*
X437795Y606457D02*
Y607717D01*
X441476Y610000D02*
X440413D01*
Y611260*
X441476*
Y610000*
X440413Y610866D02*
X441476D01*
X441102Y610000D02*
Y611260D01*
X438327Y610000D02*
X437264D01*
Y611260*
X438327*
Y610000*
X437264Y610866D02*
X438327D01*
X437795Y610000D02*
Y611260D01*
X493169Y612047D02*
X494232D01*
Y610787*
X493169*
Y612047*
Y610866D02*
X494232D01*
X493169Y611969D02*
X494232D01*
X494016Y610787D02*
Y612047D01*
X496319D02*
X497382D01*
Y610787*
X496319*
Y612047*
Y610866D02*
X497382D01*
X496319Y611969D02*
X497382D01*
X497323Y610787D02*
Y612047D01*
X488720Y593071D02*
X487657D01*
Y594331*
X488720*
Y593071*
X487657Y593228D02*
X488720D01*
X487657Y594331D02*
X488720D01*
X488504Y593071D02*
Y594331D01*
X485571Y593071D02*
X484508D01*
Y594331*
X485571*
Y593071*
X484508Y593228D02*
X485571D01*
X484508Y594331D02*
X485571D01*
X485197Y593071D02*
Y594331D01*
X441476Y595827D02*
X440413D01*
Y597087*
X441476*
Y595827*
X440413Y596535D02*
X441476D01*
X441102Y595827D02*
Y597087D01*
X438327Y595827D02*
X437264D01*
Y597087*
X438327*
Y595827*
X437264Y596535D02*
X438327D01*
X437795Y595827D02*
Y597087D01*
X488720Y589528D02*
X487657D01*
Y590787*
X488720*
Y589528*
X487657Y589921D02*
X488720D01*
X488504Y589528D02*
Y590787D01*
X485571Y589528D02*
X484508D01*
Y590787*
X485571*
Y589528*
X484508Y589921D02*
X485571D01*
X485197Y589528D02*
Y590787D01*
X484508Y601417D02*
X485571D01*
Y600157*
X484508*
Y601417*
Y600945D02*
X485571D01*
X485197Y600157D02*
Y601417D01*
X487657D02*
X488720D01*
Y600157*
X487657*
Y601417*
Y600945D02*
X488720D01*
X488504Y600157D02*
Y601417D01*
X522677Y594626D02*
Y593563D01*
X521417*
Y594626*
X522677*
X521417Y594331D02*
X522677D01*
X521575Y593563D02*
Y594626D01*
X522677Y593563D02*
Y594626D01*
Y591476D02*
Y590413D01*
X521417*
Y591476*
X522677*
X521417Y591024D02*
X522677D01*
X521575Y590413D02*
Y591476D01*
X522677Y590413D02*
Y591476D01*
X530374Y589646D02*
X529311D01*
Y590906*
X530374*
Y589646*
X529311Y589921D02*
X530374D01*
X527224Y589646D02*
X526161D01*
Y590906*
X527224*
Y589646*
X526161Y589921D02*
X527224D01*
X527087Y589646D02*
Y590906D01*
X526043Y594803D02*
X527106D01*
Y593543*
X526043*
Y594803*
Y594331D02*
X527106D01*
X527087Y593543D02*
Y594803D01*
X529193D02*
X530256D01*
Y593543*
X529193*
Y594803*
Y594331D02*
X530256D01*
X529291Y593543D02*
Y594803D01*
X526161Y586890D02*
X527224D01*
Y585630*
X526161*
Y586890*
Y586614D02*
X527224D01*
X527087Y585630D02*
Y586890D01*
X529311D02*
X530374D01*
Y585630*
X529311*
Y586890*
Y586614D02*
X530374D01*
X488720Y585984D02*
X487657D01*
Y587244*
X488720*
Y585984*
X487657Y586614D02*
X488720D01*
X488504Y585984D02*
Y587244D01*
X485571Y585984D02*
X484508D01*
Y587244*
X485571*
Y585984*
X484508Y586614D02*
X485571D01*
X485197Y585984D02*
Y587244D01*
X475453Y488425D02*
X476516D01*
Y487165*
X475453*
Y488425*
Y487402D02*
X476516D01*
X476378Y487165D02*
Y488425D01*
X478602D02*
X479665D01*
Y487165*
X478602*
Y488425*
Y487402D02*
X479665D01*
X488720Y596614D02*
X487657D01*
Y597874*
X488720*
Y596614*
X487657Y597638D02*
X488720D01*
X488504Y596614D02*
Y597874D01*
X485571Y596614D02*
X484508D01*
Y597874*
X485571*
Y596614*
X484508Y597638D02*
X485571D01*
X485197Y596614D02*
Y597874D01*
X488720Y582441D02*
X487657D01*
Y583701*
X488720*
Y582441*
X487657Y583307D02*
X488720D01*
X488504Y582441D02*
Y583701D01*
X485571Y582441D02*
X484508D01*
Y583701*
X485571*
Y582441*
X484508Y583307D02*
X485571D01*
X485197Y582441D02*
Y583701D01*
X441476Y587559D02*
X440413D01*
Y588819*
X441476*
Y587559*
X440413Y587717D02*
X441476D01*
X440413Y588819D02*
X441476D01*
X441102Y587559D02*
Y588819D01*
X438327Y587559D02*
X437264D01*
Y588819*
X438327*
Y587559*
X437264Y587717D02*
X438327D01*
X437264Y588819D02*
X438327D01*
X437795Y587559D02*
Y588819D01*
X521122Y454173D02*
X522185D01*
Y452913*
X521122*
Y454173*
Y453228D02*
X522185D01*
X521575Y452913D02*
Y454173D01*
X524272D02*
X525335D01*
Y452913*
X524272*
Y454173*
Y453228D02*
X525335D01*
X524882Y452913D02*
Y454173D01*
X518248Y593465D02*
X517185D01*
Y594724*
X518248*
Y593465*
X517185Y594331D02*
X518248D01*
X515098Y593465D02*
X514035D01*
Y594724*
X515098*
Y593465*
X514035Y594331D02*
X515098D01*
X514961Y593465D02*
Y594724D01*
X518248Y589528D02*
X517185D01*
Y590787*
X518248*
Y589528*
X517185Y589921D02*
X518248D01*
X515098Y589528D02*
X514035D01*
Y590787*
X515098*
Y589528*
X514035Y589921D02*
X515098D01*
X514961Y589528D02*
Y590787D01*
X508268Y553563D02*
Y554626D01*
X509528*
Y553563*
X508268*
X508346D02*
Y554626D01*
X509449Y553563D02*
Y554626D01*
X508268Y556713D02*
Y557776D01*
X509528*
Y556713*
X508268*
Y556850D02*
X509528D01*
X508346Y556713D02*
Y557776D01*
X509449Y556713D02*
Y557776D01*
X504488Y553563D02*
Y554626D01*
X505748*
Y553563*
X504488*
X505039D02*
Y554626D01*
X504488Y556713D02*
Y557776D01*
X505748*
Y556713*
X504488*
Y556850D02*
X505748D01*
X505039Y556713D02*
Y557776D01*
G54D410*
X478153Y491965D02*
X478724D01*
X479131Y491559*
Y490712*
X478153*
Y491965*
X478159Y490712D02*
Y491965D01*
X478359Y490712D02*
Y491965D01*
X478559Y490712D02*
Y491965D01*
X478759Y490712D02*
Y491931D01*
X478959Y490712D02*
Y491731D01*
X478350Y491769D02*
X478760D01*
X478934Y491594*
Y490909*
X478350*
Y491769*
X478359Y490909D02*
Y491769D01*
X478559Y490909D02*
Y491769D01*
X478759Y490909D02*
Y491769D01*
X478153Y484879D02*
X478724D01*
X479131Y484472*
Y483625*
X478153*
Y484879*
X478159Y483625D02*
Y484879D01*
X478359Y483625D02*
Y484879D01*
X478559Y483625D02*
Y484879D01*
X478759Y483625D02*
Y484844D01*
X478959Y483625D02*
Y484644D01*
X478350Y484682D02*
X478760D01*
X478934Y484508*
Y483822*
X478350*
Y484682*
X478359Y483822D02*
Y484682D01*
X478559Y483822D02*
Y484682D01*
X478759Y483822D02*
Y484682D01*
X478153Y501414D02*
X478724D01*
X479131Y501008*
Y500161*
X478153*
Y501414*
X478159Y500161D02*
Y501414D01*
X478359Y500161D02*
Y501414D01*
X478559Y500161D02*
Y501414D01*
X478759Y500161D02*
Y501379D01*
X478959Y500161D02*
Y501179D01*
X478350Y501217D02*
X478760D01*
X478934Y501043*
Y500357*
X478350*
Y501217*
X478359Y500357D02*
Y501217D01*
X478559Y500357D02*
Y501217D01*
X478759Y500357D02*
Y501217D01*
X478153Y508894D02*
X478724D01*
X479131Y508488*
Y507641*
X478153*
Y508894*
X478159Y507641D02*
Y508894D01*
X478359Y507641D02*
Y508894D01*
X478559Y507641D02*
Y508894D01*
X478759Y507641D02*
Y508860D01*
X478959Y507641D02*
Y508660D01*
X478350Y508698D02*
X478760D01*
X478934Y508523*
Y507838*
X478350*
Y508698*
X478359Y507838D02*
Y508698D01*
X478559Y507838D02*
Y508698D01*
X478759Y507838D02*
Y508698D01*
G54D422*
X478642Y491339D03*
Y484252D03*
Y500787D03*
Y508268D03*
G54D442*
X516969Y436220D02*
X518701D01*
Y427008*
X516969*
Y436220*
Y428110D02*
X518701D01*
X516969Y429921D02*
X518701D01*
X516969Y431732D02*
X518701D01*
X516969Y433543D02*
X518701D01*
X516969Y435354D02*
X518701D01*
X518661Y427008D02*
Y436220D01*
X525630D02*
X527362D01*
Y427008*
X525630*
Y436220*
Y428110D02*
X527362D01*
X525630Y429921D02*
X527362D01*
X525630Y431732D02*
X527362D01*
X525630Y433543D02*
X527362D01*
X525630Y435354D02*
X527362D01*
X525906Y427008D02*
Y436220D01*
G54D443*
X412480Y426654D03*
G54D444*
X402480D03*
X412480Y436654D03*
X402480D03*
X412480Y446654D03*
X402480D03*
X412480Y456654D03*
X402480D03*
X412480Y466654D03*
X402480D03*
X412480Y476654D03*
X402480D03*
X412480Y486654D03*
X402480D03*
X412480Y496654D03*
X402480D03*
X412480Y506654D03*
X402480D03*
X412480Y516654D03*
X402480D03*
X412480Y526654D03*
X402480D03*
X412480Y536654D03*
X402480D03*
X412480Y546654D03*
X402480D03*
X412480Y556654D03*
X402480D03*
X412480Y566654D03*
X402480D03*
X412480Y576654D03*
X402480D03*
X412480Y586654D03*
X402480D03*
X412480Y596654D03*
X402480D03*
X412480Y606654D03*
X402480D03*
X412480Y616654D03*
X402480D03*
G54D445*
X510118Y439331D02*
Y440551D01*
X512717*
Y439331*
X510118*
Y440551D02*
X512717D01*
X510157Y439331D02*
Y440551D01*
X511496Y439331D02*
Y440551D01*
X510118Y444646D02*
Y445866D01*
X512717*
Y444646*
X510118*
X510157D02*
Y445866D01*
X511496Y444646D02*
Y445866D01*
X537559Y448780D02*
X536339D01*
Y451378*
X537559*
Y448780*
X536339Y449921D02*
X537559D01*
X536339Y451260D02*
X537559D01*
X536929Y448780D02*
Y451378D01*
X532244Y448780D02*
X531024D01*
Y451378*
X532244*
Y448780*
X531024Y449921D02*
X532244D01*
X531024Y451260D02*
X532244D01*
X531575Y448780D02*
Y451378D01*
X510315Y428425D02*
Y429646D01*
X512913*
Y428425*
X510315*
Y428504D02*
X512913D01*
X511496Y428425D02*
Y429646D01*
X512835Y428425D02*
Y429646D01*
X510315Y433740D02*
Y434961D01*
X512913*
Y433740*
X510315*
Y433858D02*
X512913D01*
X511496Y433740D02*
Y434961D01*
X512835Y433740D02*
Y434961D01*
G54D446*
X529528Y407480D03*
X407480D03*
G54D448*
X477087Y419469D03*
X511102D03*
X425906D03*
X459921D03*
G54D449*
X477087Y403130D03*
X511102D03*
X425906D03*
X459921D03*
G54D453*
X476476Y491339D03*
Y484252D03*
Y500787D03*
Y508268D03*
G54D454*
X424606Y430866D03*
X509055Y620079D03*
G54D457*
X527559Y510354D03*
Y478937D03*
G54D463*
X437992Y456496D03*
X427953D03*
X457874D03*
X447953D03*
G54D464*
X407480Y635827D03*
X529528D03*
G54D465*
Y555906D03*
Y567717D03*
X536811Y561811D03*
X529528Y534252D03*
Y546063D03*
X536811Y540157D03*
G54D466*
X462205Y564390D03*
G54D467*
X486220Y482087D03*
Y486417D03*
Y490748D03*
Y495079D03*
Y499409D03*
Y503740D03*
Y508071D03*
Y512402D03*
Y516732D03*
G54D468*
X488189Y521457D03*
G54D469*
X525984D03*
Y460433D03*
G54D470*
X488189Y463976D03*
G74*
X0Y0D02*
M02*
