*
*
G04 PADS 9.5 Build Number: 522968 generated Gerber (RS-274-X) file*
G04 PC Version=2.1*
*
%IN "SF32LB52-DevKit-LCD_PCB"*%
*
%MOIN*%
*
%FSLAX35Y35*%
*
*
*
*
G04 PC Standard Apertures*
*
*
G04 Thermal Relief Aperture macro.*
%AMTER*
1,1,$1,0,0*
1,0,$1-$2,0,0*
21,0,$3,$4,0,0,45*
21,0,$3,$4,0,0,135*
%
*
*
G04 Annular Aperture macro.*
%AMANN*
1,1,$1,0,0*
1,0,$2,0,0*
%
*
*
G04 Odd Aperture macro.*
%AMODD*
1,1,$1,0,0*
1,0,$1-0.005,0,0*
%
*
*
G04 PC Custom Aperture Macros*
*
*
*
*
*
*
G04 PC Aperture Table*
*
%ADD010C,0.001*%
%ADD094C,0.00039*%
%ADD158C,0.00394*%
%ADD240C,0.00787*%
%ADD351C,0.03937*%
%ADD361C,0.01102*%
%ADD410C,0.004*%
%ADD419C,0.00866*%
%ADD420C,0.01575*%
%ADD422R,0.00394X0.00394*%
%ADD424R,0.00984X0.0126*%
%ADD433R,0.13386X0.16929*%
%ADD434R,0.06299X0.02756*%
%ADD435R,0.05512X0.04724*%
%ADD436R,0.08661X0.04724*%
%ADD437R,0.05512X0.06299*%
*
*
*
*
G04 PC Circuitry*
G04 Layer Name SF32LB52-DevKit-LCD_PCB - circuitry*
%LPD*%
*
*
G04 PC Custom Flashes*
G04 Layer Name SF32LB52-DevKit-LCD_PCB - flashes*
%LPD*%
*
*
G04 PC Circuitry*
G04 Layer Name SF32LB52-DevKit-LCD_PCB - circuitry*
%LPD*%
*
G54D10*
G54D94*
G01X456713Y565177D02*
Y571437D01*
X461398*
Y565177*
X456713*
Y571437*
X456732Y565177D02*
Y571437D01*
X456752Y565177D02*
Y571437D01*
X456772Y565177D02*
Y571437D01*
X456791Y565177D02*
Y571437D01*
X456811Y565177D02*
Y571437D01*
X456831Y565177D02*
Y571437D01*
X456850Y565177D02*
Y571437D01*
X456870Y565177D02*
Y571437D01*
X456890Y565177D02*
Y571437D01*
X456909Y565177D02*
Y571437D01*
X456929Y565177D02*
Y571437D01*
X456949Y565177D02*
Y571437D01*
X456969Y565177D02*
Y571437D01*
X456988Y565177D02*
Y571437D01*
X457008Y565177D02*
Y571437D01*
X457028Y565177D02*
Y571437D01*
X457047Y565177D02*
Y571437D01*
X457067Y565177D02*
Y571437D01*
X457087Y565177D02*
Y571437D01*
X457106Y565177D02*
Y571437D01*
X457126Y565177D02*
Y571437D01*
X457146Y565177D02*
Y571437D01*
X457165Y565177D02*
Y571437D01*
X457185Y565177D02*
Y571437D01*
X457205Y565177D02*
Y571437D01*
X457224Y565177D02*
Y571437D01*
X457244Y565177D02*
Y571437D01*
X457264Y565177D02*
Y571437D01*
X457283Y565177D02*
Y571437D01*
X457303Y565177D02*
Y571437D01*
X457323Y565177D02*
Y571437D01*
X457343Y565177D02*
Y571437D01*
X457362Y565177D02*
Y571437D01*
X457382Y565177D02*
Y571437D01*
X457402Y565177D02*
Y571437D01*
X457421Y565177D02*
Y571437D01*
X457441Y565177D02*
Y571437D01*
X457461Y565177D02*
Y571437D01*
X457480Y565177D02*
Y571437D01*
X457500Y565177D02*
Y571437D01*
X457520Y565177D02*
Y571437D01*
X457539Y565177D02*
Y571437D01*
X457559Y565177D02*
Y571437D01*
X457579Y565177D02*
Y571437D01*
X457598Y565177D02*
Y571437D01*
X457618Y565177D02*
Y571437D01*
X457638Y565177D02*
Y571437D01*
X457657Y565177D02*
Y571437D01*
X457677Y565177D02*
Y571437D01*
X457697Y565177D02*
Y571437D01*
X457717Y565177D02*
Y571437D01*
X457736Y565177D02*
Y571437D01*
X457756Y565177D02*
Y571437D01*
X457776Y565177D02*
Y571437D01*
X457795Y565177D02*
Y571437D01*
X457815Y565177D02*
Y571437D01*
X457835Y565177D02*
Y571437D01*
X457854Y565177D02*
Y571437D01*
X457874Y565177D02*
Y571437D01*
X457894Y565177D02*
Y571437D01*
X457913Y565177D02*
Y571437D01*
X457933Y565177D02*
Y571437D01*
X457953Y565177D02*
Y571437D01*
X457972Y565177D02*
Y571437D01*
X457992Y565177D02*
Y571437D01*
X458012Y565177D02*
Y571437D01*
X458031Y565177D02*
Y571437D01*
X458051Y565177D02*
Y571437D01*
X458071Y565177D02*
Y571437D01*
X458091Y565177D02*
Y571437D01*
X458110Y565177D02*
Y571437D01*
X458130Y565177D02*
Y571437D01*
X458150Y565177D02*
Y571437D01*
X458169Y565177D02*
Y571437D01*
X458189Y565177D02*
Y571437D01*
X458209Y565177D02*
Y571437D01*
X458228Y565177D02*
Y571437D01*
X458248Y565177D02*
Y571437D01*
X458268Y565177D02*
Y571437D01*
X458287Y565177D02*
Y571437D01*
X458307Y565177D02*
Y571437D01*
X458327Y565177D02*
Y571437D01*
X458346Y565177D02*
Y571437D01*
X458366Y565177D02*
Y571437D01*
X458386Y565177D02*
Y571437D01*
X458406Y565177D02*
Y571437D01*
X458425Y565177D02*
Y571437D01*
X458445Y565177D02*
Y571437D01*
X458465Y565177D02*
Y571437D01*
X458484Y565177D02*
Y571437D01*
X458504Y565177D02*
Y571437D01*
X458524Y565177D02*
Y571437D01*
X458543Y565177D02*
Y571437D01*
X458563Y565177D02*
Y571437D01*
X458583Y565177D02*
Y571437D01*
X458602Y565177D02*
Y571437D01*
X458622Y565177D02*
Y571437D01*
X458642Y565177D02*
Y571437D01*
X458661Y565177D02*
Y571437D01*
X458681Y565177D02*
Y571437D01*
X458701Y565177D02*
Y571437D01*
X458720Y565177D02*
Y571437D01*
X458740Y565177D02*
Y571437D01*
X458760Y565177D02*
Y571437D01*
X458780Y565177D02*
Y571437D01*
X458799Y565177D02*
Y571437D01*
X458819Y565177D02*
Y571437D01*
X458839Y565177D02*
Y571437D01*
X458858Y565177D02*
Y571437D01*
X458878Y565177D02*
Y571437D01*
X458898Y565177D02*
Y571437D01*
X458917Y565177D02*
Y571437D01*
X458937Y565177D02*
Y571437D01*
X458957Y565177D02*
Y571437D01*
X458976Y565177D02*
Y571437D01*
X458996Y565177D02*
Y571437D01*
X459016Y565177D02*
Y571437D01*
X459035Y565177D02*
Y571437D01*
X459055Y565177D02*
Y571437D01*
X459075Y565177D02*
Y571437D01*
X459094Y565177D02*
Y571437D01*
X459114Y565177D02*
Y571437D01*
X459134Y565177D02*
Y571437D01*
X459154Y565177D02*
Y571437D01*
X459173Y565177D02*
Y571437D01*
X459193Y565177D02*
Y571437D01*
X459213Y565177D02*
Y571437D01*
X459232Y565177D02*
Y571437D01*
X459252Y565177D02*
Y571437D01*
X459272Y565177D02*
Y571437D01*
X459291Y565177D02*
Y571437D01*
X459311Y565177D02*
Y571437D01*
X459331Y565177D02*
Y571437D01*
X459350Y565177D02*
Y571437D01*
X459370Y565177D02*
Y571437D01*
X459390Y565177D02*
Y571437D01*
X459409Y565177D02*
Y571437D01*
X459429Y565177D02*
Y571437D01*
X459449Y565177D02*
Y571437D01*
X459469Y565177D02*
Y571437D01*
X459488Y565177D02*
Y571437D01*
X459508Y565177D02*
Y571437D01*
X459528Y565177D02*
Y571437D01*
X459547Y565177D02*
Y571437D01*
X459567Y565177D02*
Y571437D01*
X459587Y565177D02*
Y571437D01*
X459606Y565177D02*
Y571437D01*
X459626Y565177D02*
Y571437D01*
X459646Y565177D02*
Y571437D01*
X459665Y565177D02*
Y571437D01*
X459685Y565177D02*
Y571437D01*
X459705Y565177D02*
Y571437D01*
X459724Y565177D02*
Y571437D01*
X459744Y565177D02*
Y571437D01*
X459764Y565177D02*
Y571437D01*
X459783Y565177D02*
Y571437D01*
X459803Y565177D02*
Y571437D01*
X459823Y565177D02*
Y571437D01*
X459843Y565177D02*
Y571437D01*
X459862Y565177D02*
Y571437D01*
X459882Y565177D02*
Y571437D01*
X459902Y565177D02*
Y571437D01*
X459921Y565177D02*
Y571437D01*
X459941Y565177D02*
Y571437D01*
X459961Y565177D02*
Y571437D01*
X459980Y565177D02*
Y571437D01*
X460000Y565177D02*
Y571437D01*
X460020Y565177D02*
Y571437D01*
X460039Y565177D02*
Y571437D01*
X460059Y565177D02*
Y571437D01*
X460079Y565177D02*
Y571437D01*
X460098Y565177D02*
Y571437D01*
X460118Y565177D02*
Y571437D01*
X460138Y565177D02*
Y571437D01*
X460157Y565177D02*
Y571437D01*
X460177Y565177D02*
Y571437D01*
X460197Y565177D02*
Y571437D01*
X460217Y565177D02*
Y571437D01*
X460236Y565177D02*
Y571437D01*
X460256Y565177D02*
Y571437D01*
X460276Y565177D02*
Y571437D01*
X460295Y565177D02*
Y571437D01*
X460315Y565177D02*
Y571437D01*
X460335Y565177D02*
Y571437D01*
X460354Y565177D02*
Y571437D01*
X460374Y565177D02*
Y571437D01*
X460394Y565177D02*
Y571437D01*
X460413Y565177D02*
Y571437D01*
X460433Y565177D02*
Y571437D01*
X460453Y565177D02*
Y571437D01*
X460472Y565177D02*
Y571437D01*
X460492Y565177D02*
Y571437D01*
X460512Y565177D02*
Y571437D01*
X460531Y565177D02*
Y571437D01*
X460551Y565177D02*
Y571437D01*
X460571Y565177D02*
Y571437D01*
X460591Y565177D02*
Y571437D01*
X460610Y565177D02*
Y571437D01*
X460630Y565177D02*
Y571437D01*
X460650Y565177D02*
Y571437D01*
X460669Y565177D02*
Y571437D01*
X460689Y565177D02*
Y571437D01*
X460709Y565177D02*
Y571437D01*
X460728Y565177D02*
Y571437D01*
X460748Y565177D02*
Y571437D01*
X460768Y565177D02*
Y571437D01*
X460787Y565177D02*
Y571437D01*
X460807Y565177D02*
Y571437D01*
X460827Y565177D02*
Y571437D01*
X460846Y565177D02*
Y571437D01*
X460866Y565177D02*
Y571437D01*
X460886Y565177D02*
Y571437D01*
X460906Y565177D02*
Y571437D01*
X460925Y565177D02*
Y571437D01*
X460945Y565177D02*
Y571437D01*
X460965Y565177D02*
Y571437D01*
X460984Y565177D02*
Y571437D01*
X461004Y565177D02*
Y571437D01*
X461024Y565177D02*
Y571437D01*
X461043Y565177D02*
Y571437D01*
X461063Y565177D02*
Y571437D01*
X461083Y565177D02*
Y571437D01*
X461102Y565177D02*
Y571437D01*
X461122Y565177D02*
Y571437D01*
X461142Y565177D02*
Y571437D01*
X461161Y565177D02*
Y571437D01*
X461181Y565177D02*
Y571437D01*
X461201Y565177D02*
Y571437D01*
X461220Y565177D02*
Y571437D01*
X461240Y565177D02*
Y571437D01*
X461260Y565177D02*
Y571437D01*
X461280Y565177D02*
Y571437D01*
X461299Y565177D02*
Y571437D01*
X461319Y565177D02*
Y571437D01*
X461339Y565177D02*
Y571437D01*
X461358Y565177D02*
Y571437D01*
X461378Y565177D02*
Y571437D01*
X456713Y557303D02*
Y563563D01*
X461398*
Y557303*
X456713*
Y563563*
X456732Y557303D02*
Y563563D01*
X456752Y557303D02*
Y563563D01*
X456772Y557303D02*
Y563563D01*
X456791Y557303D02*
Y563563D01*
X456811Y557303D02*
Y563563D01*
X456831Y557303D02*
Y563563D01*
X456850Y557303D02*
Y563563D01*
X456870Y557303D02*
Y563563D01*
X456890Y557303D02*
Y563563D01*
X456909Y557303D02*
Y563563D01*
X456929Y557303D02*
Y563563D01*
X456949Y557303D02*
Y563563D01*
X456969Y557303D02*
Y563563D01*
X456988Y557303D02*
Y563563D01*
X457008Y557303D02*
Y563563D01*
X457028Y557303D02*
Y563563D01*
X457047Y557303D02*
Y563563D01*
X457067Y557303D02*
Y563563D01*
X457087Y557303D02*
Y563563D01*
X457106Y557303D02*
Y563563D01*
X457126Y557303D02*
Y563563D01*
X457146Y557303D02*
Y563563D01*
X457165Y557303D02*
Y563563D01*
X457185Y557303D02*
Y563563D01*
X457205Y557303D02*
Y563563D01*
X457224Y557303D02*
Y563563D01*
X457244Y557303D02*
Y563563D01*
X457264Y557303D02*
Y563563D01*
X457283Y557303D02*
Y563563D01*
X457303Y557303D02*
Y563563D01*
X457323Y557303D02*
Y563563D01*
X457343Y557303D02*
Y563563D01*
X457362Y557303D02*
Y563563D01*
X457382Y557303D02*
Y563563D01*
X457402Y557303D02*
Y563563D01*
X457421Y557303D02*
Y563563D01*
X457441Y557303D02*
Y563563D01*
X457461Y557303D02*
Y563563D01*
X457480Y557303D02*
Y563563D01*
X457500Y557303D02*
Y563563D01*
X457520Y557303D02*
Y563563D01*
X457539Y557303D02*
Y563563D01*
X457559Y557303D02*
Y563563D01*
X457579Y557303D02*
Y563563D01*
X457598Y557303D02*
Y563563D01*
X457618Y557303D02*
Y563563D01*
X457638Y557303D02*
Y563563D01*
X457657Y557303D02*
Y563563D01*
X457677Y557303D02*
Y563563D01*
X457697Y557303D02*
Y563563D01*
X457717Y557303D02*
Y563563D01*
X457736Y557303D02*
Y563563D01*
X457756Y557303D02*
Y563563D01*
X457776Y557303D02*
Y563563D01*
X457795Y557303D02*
Y563563D01*
X457815Y557303D02*
Y563563D01*
X457835Y557303D02*
Y563563D01*
X457854Y557303D02*
Y563563D01*
X457874Y557303D02*
Y563563D01*
X457894Y557303D02*
Y563563D01*
X457913Y557303D02*
Y563563D01*
X457933Y557303D02*
Y563563D01*
X457953Y557303D02*
Y563563D01*
X457972Y557303D02*
Y563563D01*
X457992Y557303D02*
Y563563D01*
X458012Y557303D02*
Y563563D01*
X458031Y557303D02*
Y563563D01*
X458051Y557303D02*
Y563563D01*
X458071Y557303D02*
Y563563D01*
X458091Y557303D02*
Y563563D01*
X458110Y557303D02*
Y563563D01*
X458130Y557303D02*
Y563563D01*
X458150Y557303D02*
Y563563D01*
X458169Y557303D02*
Y563563D01*
X458189Y557303D02*
Y563563D01*
X458209Y557303D02*
Y563563D01*
X458228Y557303D02*
Y563563D01*
X458248Y557303D02*
Y563563D01*
X458268Y557303D02*
Y563563D01*
X458287Y557303D02*
Y563563D01*
X458307Y557303D02*
Y563563D01*
X458327Y557303D02*
Y563563D01*
X458346Y557303D02*
Y563563D01*
X458366Y557303D02*
Y563563D01*
X458386Y557303D02*
Y563563D01*
X458406Y557303D02*
Y563563D01*
X458425Y557303D02*
Y563563D01*
X458445Y557303D02*
Y563563D01*
X458465Y557303D02*
Y563563D01*
X458484Y557303D02*
Y563563D01*
X458504Y557303D02*
Y563563D01*
X458524Y557303D02*
Y563563D01*
X458543Y557303D02*
Y563563D01*
X458563Y557303D02*
Y563563D01*
X458583Y557303D02*
Y563563D01*
X458602Y557303D02*
Y563563D01*
X458622Y557303D02*
Y563563D01*
X458642Y557303D02*
Y563563D01*
X458661Y557303D02*
Y563563D01*
X458681Y557303D02*
Y563563D01*
X458701Y557303D02*
Y563563D01*
X458720Y557303D02*
Y563563D01*
X458740Y557303D02*
Y563563D01*
X458760Y557303D02*
Y563563D01*
X458780Y557303D02*
Y563563D01*
X458799Y557303D02*
Y563563D01*
X458819Y557303D02*
Y563563D01*
X458839Y557303D02*
Y563563D01*
X458858Y557303D02*
Y563563D01*
X458878Y557303D02*
Y563563D01*
X458898Y557303D02*
Y563563D01*
X458917Y557303D02*
Y563563D01*
X458937Y557303D02*
Y563563D01*
X458957Y557303D02*
Y563563D01*
X458976Y557303D02*
Y563563D01*
X458996Y557303D02*
Y563563D01*
X459016Y557303D02*
Y563563D01*
X459035Y557303D02*
Y563563D01*
X459055Y557303D02*
Y563563D01*
X459075Y557303D02*
Y563563D01*
X459094Y557303D02*
Y563563D01*
X459114Y557303D02*
Y563563D01*
X459134Y557303D02*
Y563563D01*
X459154Y557303D02*
Y563563D01*
X459173Y557303D02*
Y563563D01*
X459193Y557303D02*
Y563563D01*
X459213Y557303D02*
Y563563D01*
X459232Y557303D02*
Y563563D01*
X459252Y557303D02*
Y563563D01*
X459272Y557303D02*
Y563563D01*
X459291Y557303D02*
Y563563D01*
X459311Y557303D02*
Y563563D01*
X459331Y557303D02*
Y563563D01*
X459350Y557303D02*
Y563563D01*
X459370Y557303D02*
Y563563D01*
X459390Y557303D02*
Y563563D01*
X459409Y557303D02*
Y563563D01*
X459429Y557303D02*
Y563563D01*
X459449Y557303D02*
Y563563D01*
X459469Y557303D02*
Y563563D01*
X459488Y557303D02*
Y563563D01*
X459508Y557303D02*
Y563563D01*
X459528Y557303D02*
Y563563D01*
X459547Y557303D02*
Y563563D01*
X459567Y557303D02*
Y563563D01*
X459587Y557303D02*
Y563563D01*
X459606Y557303D02*
Y563563D01*
X459626Y557303D02*
Y563563D01*
X459646Y557303D02*
Y563563D01*
X459665Y557303D02*
Y563563D01*
X459685Y557303D02*
Y563563D01*
X459705Y557303D02*
Y563563D01*
X459724Y557303D02*
Y563563D01*
X459744Y557303D02*
Y563563D01*
X459764Y557303D02*
Y563563D01*
X459783Y557303D02*
Y563563D01*
X459803Y557303D02*
Y563563D01*
X459823Y557303D02*
Y563563D01*
X459843Y557303D02*
Y563563D01*
X459862Y557303D02*
Y563563D01*
X459882Y557303D02*
Y563563D01*
X459902Y557303D02*
Y563563D01*
X459921Y557303D02*
Y563563D01*
X459941Y557303D02*
Y563563D01*
X459961Y557303D02*
Y563563D01*
X459980Y557303D02*
Y563563D01*
X460000Y557303D02*
Y563563D01*
X460020Y557303D02*
Y563563D01*
X460039Y557303D02*
Y563563D01*
X460059Y557303D02*
Y563563D01*
X460079Y557303D02*
Y563563D01*
X460098Y557303D02*
Y563563D01*
X460118Y557303D02*
Y563563D01*
X460138Y557303D02*
Y563563D01*
X460157Y557303D02*
Y563563D01*
X460177Y557303D02*
Y563563D01*
X460197Y557303D02*
Y563563D01*
X460217Y557303D02*
Y563563D01*
X460236Y557303D02*
Y563563D01*
X460256Y557303D02*
Y563563D01*
X460276Y557303D02*
Y563563D01*
X460295Y557303D02*
Y563563D01*
X460315Y557303D02*
Y563563D01*
X460335Y557303D02*
Y563563D01*
X460354Y557303D02*
Y563563D01*
X460374Y557303D02*
Y563563D01*
X460394Y557303D02*
Y563563D01*
X460413Y557303D02*
Y563563D01*
X460433Y557303D02*
Y563563D01*
X460453Y557303D02*
Y563563D01*
X460472Y557303D02*
Y563563D01*
X460492Y557303D02*
Y563563D01*
X460512Y557303D02*
Y563563D01*
X460531Y557303D02*
Y563563D01*
X460551Y557303D02*
Y563563D01*
X460571Y557303D02*
Y563563D01*
X460591Y557303D02*
Y563563D01*
X460610Y557303D02*
Y563563D01*
X460630Y557303D02*
Y563563D01*
X460650Y557303D02*
Y563563D01*
X460669Y557303D02*
Y563563D01*
X460689Y557303D02*
Y563563D01*
X460709Y557303D02*
Y563563D01*
X460728Y557303D02*
Y563563D01*
X460748Y557303D02*
Y563563D01*
X460768Y557303D02*
Y563563D01*
X460787Y557303D02*
Y563563D01*
X460807Y557303D02*
Y563563D01*
X460827Y557303D02*
Y563563D01*
X460846Y557303D02*
Y563563D01*
X460866Y557303D02*
Y563563D01*
X460886Y557303D02*
Y563563D01*
X460906Y557303D02*
Y563563D01*
X460925Y557303D02*
Y563563D01*
X460945Y557303D02*
Y563563D01*
X460965Y557303D02*
Y563563D01*
X460984Y557303D02*
Y563563D01*
X461004Y557303D02*
Y563563D01*
X461024Y557303D02*
Y563563D01*
X461043Y557303D02*
Y563563D01*
X461063Y557303D02*
Y563563D01*
X461083Y557303D02*
Y563563D01*
X461102Y557303D02*
Y563563D01*
X461122Y557303D02*
Y563563D01*
X461142Y557303D02*
Y563563D01*
X461161Y557303D02*
Y563563D01*
X461181Y557303D02*
Y563563D01*
X461201Y557303D02*
Y563563D01*
X461220Y557303D02*
Y563563D01*
X461240Y557303D02*
Y563563D01*
X461260Y557303D02*
Y563563D01*
X461280Y557303D02*
Y563563D01*
X461299Y557303D02*
Y563563D01*
X461319Y557303D02*
Y563563D01*
X461339Y557303D02*
Y563563D01*
X461358Y557303D02*
Y563563D01*
X461378Y557303D02*
Y563563D01*
X462815Y557303D02*
Y563563D01*
X467500*
Y557303*
X462815*
Y563563*
X462835Y557303D02*
Y563563D01*
X462854Y557303D02*
Y563563D01*
X462874Y557303D02*
Y563563D01*
X462894Y557303D02*
Y563563D01*
X462913Y557303D02*
Y563563D01*
X462933Y557303D02*
Y563563D01*
X462953Y557303D02*
Y563563D01*
X462972Y557303D02*
Y563563D01*
X462992Y557303D02*
Y563563D01*
X463012Y557303D02*
Y563563D01*
X463031Y557303D02*
Y563563D01*
X463051Y557303D02*
Y563563D01*
X463071Y557303D02*
Y563563D01*
X463091Y557303D02*
Y563563D01*
X463110Y557303D02*
Y563563D01*
X463130Y557303D02*
Y563563D01*
X463150Y557303D02*
Y563563D01*
X463169Y557303D02*
Y563563D01*
X463189Y557303D02*
Y563563D01*
X463209Y557303D02*
Y563563D01*
X463228Y557303D02*
Y563563D01*
X463248Y557303D02*
Y563563D01*
X463268Y557303D02*
Y563563D01*
X463287Y557303D02*
Y563563D01*
X463307Y557303D02*
Y563563D01*
X463327Y557303D02*
Y563563D01*
X463346Y557303D02*
Y563563D01*
X463366Y557303D02*
Y563563D01*
X463386Y557303D02*
Y563563D01*
X463406Y557303D02*
Y563563D01*
X463425Y557303D02*
Y563563D01*
X463445Y557303D02*
Y563563D01*
X463465Y557303D02*
Y563563D01*
X463484Y557303D02*
Y563563D01*
X463504Y557303D02*
Y563563D01*
X463524Y557303D02*
Y563563D01*
X463543Y557303D02*
Y563563D01*
X463563Y557303D02*
Y563563D01*
X463583Y557303D02*
Y563563D01*
X463602Y557303D02*
Y563563D01*
X463622Y557303D02*
Y563563D01*
X463642Y557303D02*
Y563563D01*
X463661Y557303D02*
Y563563D01*
X463681Y557303D02*
Y563563D01*
X463701Y557303D02*
Y563563D01*
X463720Y557303D02*
Y563563D01*
X463740Y557303D02*
Y563563D01*
X463760Y557303D02*
Y563563D01*
X463780Y557303D02*
Y563563D01*
X463799Y557303D02*
Y563563D01*
X463819Y557303D02*
Y563563D01*
X463839Y557303D02*
Y563563D01*
X463858Y557303D02*
Y563563D01*
X463878Y557303D02*
Y563563D01*
X463898Y557303D02*
Y563563D01*
X463917Y557303D02*
Y563563D01*
X463937Y557303D02*
Y563563D01*
X463957Y557303D02*
Y563563D01*
X463976Y557303D02*
Y563563D01*
X463996Y557303D02*
Y563563D01*
X464016Y557303D02*
Y563563D01*
X464035Y557303D02*
Y563563D01*
X464055Y557303D02*
Y563563D01*
X464075Y557303D02*
Y563563D01*
X464094Y557303D02*
Y563563D01*
X464114Y557303D02*
Y563563D01*
X464134Y557303D02*
Y563563D01*
X464154Y557303D02*
Y563563D01*
X464173Y557303D02*
Y563563D01*
X464193Y557303D02*
Y563563D01*
X464213Y557303D02*
Y563563D01*
X464232Y557303D02*
Y563563D01*
X464252Y557303D02*
Y563563D01*
X464272Y557303D02*
Y563563D01*
X464291Y557303D02*
Y563563D01*
X464311Y557303D02*
Y563563D01*
X464331Y557303D02*
Y563563D01*
X464350Y557303D02*
Y563563D01*
X464370Y557303D02*
Y563563D01*
X464390Y557303D02*
Y563563D01*
X464409Y557303D02*
Y563563D01*
X464429Y557303D02*
Y563563D01*
X464449Y557303D02*
Y563563D01*
X464469Y557303D02*
Y563563D01*
X464488Y557303D02*
Y563563D01*
X464508Y557303D02*
Y563563D01*
X464528Y557303D02*
Y563563D01*
X464547Y557303D02*
Y563563D01*
X464567Y557303D02*
Y563563D01*
X464587Y557303D02*
Y563563D01*
X464606Y557303D02*
Y563563D01*
X464626Y557303D02*
Y563563D01*
X464646Y557303D02*
Y563563D01*
X464665Y557303D02*
Y563563D01*
X464685Y557303D02*
Y563563D01*
X464705Y557303D02*
Y563563D01*
X464724Y557303D02*
Y563563D01*
X464744Y557303D02*
Y563563D01*
X464764Y557303D02*
Y563563D01*
X464783Y557303D02*
Y563563D01*
X464803Y557303D02*
Y563563D01*
X464823Y557303D02*
Y563563D01*
X464843Y557303D02*
Y563563D01*
X464862Y557303D02*
Y563563D01*
X464882Y557303D02*
Y563563D01*
X464902Y557303D02*
Y563563D01*
X464921Y557303D02*
Y563563D01*
X464941Y557303D02*
Y563563D01*
X464961Y557303D02*
Y563563D01*
X464980Y557303D02*
Y563563D01*
X465000Y557303D02*
Y563563D01*
X465020Y557303D02*
Y563563D01*
X465039Y557303D02*
Y563563D01*
X465059Y557303D02*
Y563563D01*
X465079Y557303D02*
Y563563D01*
X465098Y557303D02*
Y563563D01*
X465118Y557303D02*
Y563563D01*
X465138Y557303D02*
Y563563D01*
X465157Y557303D02*
Y563563D01*
X465177Y557303D02*
Y563563D01*
X465197Y557303D02*
Y563563D01*
X465217Y557303D02*
Y563563D01*
X465236Y557303D02*
Y563563D01*
X465256Y557303D02*
Y563563D01*
X465276Y557303D02*
Y563563D01*
X465295Y557303D02*
Y563563D01*
X465315Y557303D02*
Y563563D01*
X465335Y557303D02*
Y563563D01*
X465354Y557303D02*
Y563563D01*
X465374Y557303D02*
Y563563D01*
X465394Y557303D02*
Y563563D01*
X465413Y557303D02*
Y563563D01*
X465433Y557303D02*
Y563563D01*
X465453Y557303D02*
Y563563D01*
X465472Y557303D02*
Y563563D01*
X465492Y557303D02*
Y563563D01*
X465512Y557303D02*
Y563563D01*
X465531Y557303D02*
Y563563D01*
X465551Y557303D02*
Y563563D01*
X465571Y557303D02*
Y563563D01*
X465591Y557303D02*
Y563563D01*
X465610Y557303D02*
Y563563D01*
X465630Y557303D02*
Y563563D01*
X465650Y557303D02*
Y563563D01*
X465669Y557303D02*
Y563563D01*
X465689Y557303D02*
Y563563D01*
X465709Y557303D02*
Y563563D01*
X465728Y557303D02*
Y563563D01*
X465748Y557303D02*
Y563563D01*
X465768Y557303D02*
Y563563D01*
X465787Y557303D02*
Y563563D01*
X465807Y557303D02*
Y563563D01*
X465827Y557303D02*
Y563563D01*
X465846Y557303D02*
Y563563D01*
X465866Y557303D02*
Y563563D01*
X465886Y557303D02*
Y563563D01*
X465906Y557303D02*
Y563563D01*
X465925Y557303D02*
Y563563D01*
X465945Y557303D02*
Y563563D01*
X465965Y557303D02*
Y563563D01*
X465984Y557303D02*
Y563563D01*
X466004Y557303D02*
Y563563D01*
X466024Y557303D02*
Y563563D01*
X466043Y557303D02*
Y563563D01*
X466063Y557303D02*
Y563563D01*
X466083Y557303D02*
Y563563D01*
X466102Y557303D02*
Y563563D01*
X466122Y557303D02*
Y563563D01*
X466142Y557303D02*
Y563563D01*
X466161Y557303D02*
Y563563D01*
X466181Y557303D02*
Y563563D01*
X466201Y557303D02*
Y563563D01*
X466220Y557303D02*
Y563563D01*
X466240Y557303D02*
Y563563D01*
X466260Y557303D02*
Y563563D01*
X466280Y557303D02*
Y563563D01*
X466299Y557303D02*
Y563563D01*
X466319Y557303D02*
Y563563D01*
X466339Y557303D02*
Y563563D01*
X466358Y557303D02*
Y563563D01*
X466378Y557303D02*
Y563563D01*
X466398Y557303D02*
Y563563D01*
X466417Y557303D02*
Y563563D01*
X466437Y557303D02*
Y563563D01*
X466457Y557303D02*
Y563563D01*
X466476Y557303D02*
Y563563D01*
X466496Y557303D02*
Y563563D01*
X466516Y557303D02*
Y563563D01*
X466535Y557303D02*
Y563563D01*
X466555Y557303D02*
Y563563D01*
X466575Y557303D02*
Y563563D01*
X466594Y557303D02*
Y563563D01*
X466614Y557303D02*
Y563563D01*
X466634Y557303D02*
Y563563D01*
X466654Y557303D02*
Y563563D01*
X466673Y557303D02*
Y563563D01*
X466693Y557303D02*
Y563563D01*
X466713Y557303D02*
Y563563D01*
X466732Y557303D02*
Y563563D01*
X466752Y557303D02*
Y563563D01*
X466772Y557303D02*
Y563563D01*
X466791Y557303D02*
Y563563D01*
X466811Y557303D02*
Y563563D01*
X466831Y557303D02*
Y563563D01*
X466850Y557303D02*
Y563563D01*
X466870Y557303D02*
Y563563D01*
X466890Y557303D02*
Y563563D01*
X466909Y557303D02*
Y563563D01*
X466929Y557303D02*
Y563563D01*
X466949Y557303D02*
Y563563D01*
X466969Y557303D02*
Y563563D01*
X466988Y557303D02*
Y563563D01*
X467008Y557303D02*
Y563563D01*
X467028Y557303D02*
Y563563D01*
X467047Y557303D02*
Y563563D01*
X467067Y557303D02*
Y563563D01*
X467087Y557303D02*
Y563563D01*
X467106Y557303D02*
Y563563D01*
X467126Y557303D02*
Y563563D01*
X467146Y557303D02*
Y563563D01*
X467165Y557303D02*
Y563563D01*
X467185Y557303D02*
Y563563D01*
X467205Y557303D02*
Y563563D01*
X467224Y557303D02*
Y563563D01*
X467244Y557303D02*
Y563563D01*
X467264Y557303D02*
Y563563D01*
X467283Y557303D02*
Y563563D01*
X467303Y557303D02*
Y563563D01*
X467323Y557303D02*
Y563563D01*
X467343Y557303D02*
Y563563D01*
X467362Y557303D02*
Y563563D01*
X467382Y557303D02*
Y563563D01*
X467402Y557303D02*
Y563563D01*
X467421Y557303D02*
Y563563D01*
X467441Y557303D02*
Y563563D01*
X467461Y557303D02*
Y563563D01*
X467480Y557303D02*
Y563563D01*
X462815Y565177D02*
Y571437D01*
X467500*
Y565177*
X462815*
Y571437*
X462835Y565177D02*
Y571437D01*
X462854Y565177D02*
Y571437D01*
X462874Y565177D02*
Y571437D01*
X462894Y565177D02*
Y571437D01*
X462913Y565177D02*
Y571437D01*
X462933Y565177D02*
Y571437D01*
X462953Y565177D02*
Y571437D01*
X462972Y565177D02*
Y571437D01*
X462992Y565177D02*
Y571437D01*
X463012Y565177D02*
Y571437D01*
X463031Y565177D02*
Y571437D01*
X463051Y565177D02*
Y571437D01*
X463071Y565177D02*
Y571437D01*
X463091Y565177D02*
Y571437D01*
X463110Y565177D02*
Y571437D01*
X463130Y565177D02*
Y571437D01*
X463150Y565177D02*
Y571437D01*
X463169Y565177D02*
Y571437D01*
X463189Y565177D02*
Y571437D01*
X463209Y565177D02*
Y571437D01*
X463228Y565177D02*
Y571437D01*
X463248Y565177D02*
Y571437D01*
X463268Y565177D02*
Y571437D01*
X463287Y565177D02*
Y571437D01*
X463307Y565177D02*
Y571437D01*
X463327Y565177D02*
Y571437D01*
X463346Y565177D02*
Y571437D01*
X463366Y565177D02*
Y571437D01*
X463386Y565177D02*
Y571437D01*
X463406Y565177D02*
Y571437D01*
X463425Y565177D02*
Y571437D01*
X463445Y565177D02*
Y571437D01*
X463465Y565177D02*
Y571437D01*
X463484Y565177D02*
Y571437D01*
X463504Y565177D02*
Y571437D01*
X463524Y565177D02*
Y571437D01*
X463543Y565177D02*
Y571437D01*
X463563Y565177D02*
Y571437D01*
X463583Y565177D02*
Y571437D01*
X463602Y565177D02*
Y571437D01*
X463622Y565177D02*
Y571437D01*
X463642Y565177D02*
Y571437D01*
X463661Y565177D02*
Y571437D01*
X463681Y565177D02*
Y571437D01*
X463701Y565177D02*
Y571437D01*
X463720Y565177D02*
Y571437D01*
X463740Y565177D02*
Y571437D01*
X463760Y565177D02*
Y571437D01*
X463780Y565177D02*
Y571437D01*
X463799Y565177D02*
Y571437D01*
X463819Y565177D02*
Y571437D01*
X463839Y565177D02*
Y571437D01*
X463858Y565177D02*
Y571437D01*
X463878Y565177D02*
Y571437D01*
X463898Y565177D02*
Y571437D01*
X463917Y565177D02*
Y571437D01*
X463937Y565177D02*
Y571437D01*
X463957Y565177D02*
Y571437D01*
X463976Y565177D02*
Y571437D01*
X463996Y565177D02*
Y571437D01*
X464016Y565177D02*
Y571437D01*
X464035Y565177D02*
Y571437D01*
X464055Y565177D02*
Y571437D01*
X464075Y565177D02*
Y571437D01*
X464094Y565177D02*
Y571437D01*
X464114Y565177D02*
Y571437D01*
X464134Y565177D02*
Y571437D01*
X464154Y565177D02*
Y571437D01*
X464173Y565177D02*
Y571437D01*
X464193Y565177D02*
Y571437D01*
X464213Y565177D02*
Y571437D01*
X464232Y565177D02*
Y571437D01*
X464252Y565177D02*
Y571437D01*
X464272Y565177D02*
Y571437D01*
X464291Y565177D02*
Y571437D01*
X464311Y565177D02*
Y571437D01*
X464331Y565177D02*
Y571437D01*
X464350Y565177D02*
Y571437D01*
X464370Y565177D02*
Y571437D01*
X464390Y565177D02*
Y571437D01*
X464409Y565177D02*
Y571437D01*
X464429Y565177D02*
Y571437D01*
X464449Y565177D02*
Y571437D01*
X464469Y565177D02*
Y571437D01*
X464488Y565177D02*
Y571437D01*
X464508Y565177D02*
Y571437D01*
X464528Y565177D02*
Y571437D01*
X464547Y565177D02*
Y571437D01*
X464567Y565177D02*
Y571437D01*
X464587Y565177D02*
Y571437D01*
X464606Y565177D02*
Y571437D01*
X464626Y565177D02*
Y571437D01*
X464646Y565177D02*
Y571437D01*
X464665Y565177D02*
Y571437D01*
X464685Y565177D02*
Y571437D01*
X464705Y565177D02*
Y571437D01*
X464724Y565177D02*
Y571437D01*
X464744Y565177D02*
Y571437D01*
X464764Y565177D02*
Y571437D01*
X464783Y565177D02*
Y571437D01*
X464803Y565177D02*
Y571437D01*
X464823Y565177D02*
Y571437D01*
X464843Y565177D02*
Y571437D01*
X464862Y565177D02*
Y571437D01*
X464882Y565177D02*
Y571437D01*
X464902Y565177D02*
Y571437D01*
X464921Y565177D02*
Y571437D01*
X464941Y565177D02*
Y571437D01*
X464961Y565177D02*
Y571437D01*
X464980Y565177D02*
Y571437D01*
X465000Y565177D02*
Y571437D01*
X465020Y565177D02*
Y571437D01*
X465039Y565177D02*
Y571437D01*
X465059Y565177D02*
Y571437D01*
X465079Y565177D02*
Y571437D01*
X465098Y565177D02*
Y571437D01*
X465118Y565177D02*
Y571437D01*
X465138Y565177D02*
Y571437D01*
X465157Y565177D02*
Y571437D01*
X465177Y565177D02*
Y571437D01*
X465197Y565177D02*
Y571437D01*
X465217Y565177D02*
Y571437D01*
X465236Y565177D02*
Y571437D01*
X465256Y565177D02*
Y571437D01*
X465276Y565177D02*
Y571437D01*
X465295Y565177D02*
Y571437D01*
X465315Y565177D02*
Y571437D01*
X465335Y565177D02*
Y571437D01*
X465354Y565177D02*
Y571437D01*
X465374Y565177D02*
Y571437D01*
X465394Y565177D02*
Y571437D01*
X465413Y565177D02*
Y571437D01*
X465433Y565177D02*
Y571437D01*
X465453Y565177D02*
Y571437D01*
X465472Y565177D02*
Y571437D01*
X465492Y565177D02*
Y571437D01*
X465512Y565177D02*
Y571437D01*
X465531Y565177D02*
Y571437D01*
X465551Y565177D02*
Y571437D01*
X465571Y565177D02*
Y571437D01*
X465591Y565177D02*
Y571437D01*
X465610Y565177D02*
Y571437D01*
X465630Y565177D02*
Y571437D01*
X465650Y565177D02*
Y571437D01*
X465669Y565177D02*
Y571437D01*
X465689Y565177D02*
Y571437D01*
X465709Y565177D02*
Y571437D01*
X465728Y565177D02*
Y571437D01*
X465748Y565177D02*
Y571437D01*
X465768Y565177D02*
Y571437D01*
X465787Y565177D02*
Y571437D01*
X465807Y565177D02*
Y571437D01*
X465827Y565177D02*
Y571437D01*
X465846Y565177D02*
Y571437D01*
X465866Y565177D02*
Y571437D01*
X465886Y565177D02*
Y571437D01*
X465906Y565177D02*
Y571437D01*
X465925Y565177D02*
Y571437D01*
X465945Y565177D02*
Y571437D01*
X465965Y565177D02*
Y571437D01*
X465984Y565177D02*
Y571437D01*
X466004Y565177D02*
Y571437D01*
X466024Y565177D02*
Y571437D01*
X466043Y565177D02*
Y571437D01*
X466063Y565177D02*
Y571437D01*
X466083Y565177D02*
Y571437D01*
X466102Y565177D02*
Y571437D01*
X466122Y565177D02*
Y571437D01*
X466142Y565177D02*
Y571437D01*
X466161Y565177D02*
Y571437D01*
X466181Y565177D02*
Y571437D01*
X466201Y565177D02*
Y571437D01*
X466220Y565177D02*
Y571437D01*
X466240Y565177D02*
Y571437D01*
X466260Y565177D02*
Y571437D01*
X466280Y565177D02*
Y571437D01*
X466299Y565177D02*
Y571437D01*
X466319Y565177D02*
Y571437D01*
X466339Y565177D02*
Y571437D01*
X466358Y565177D02*
Y571437D01*
X466378Y565177D02*
Y571437D01*
X466398Y565177D02*
Y571437D01*
X466417Y565177D02*
Y571437D01*
X466437Y565177D02*
Y571437D01*
X466457Y565177D02*
Y571437D01*
X466476Y565177D02*
Y571437D01*
X466496Y565177D02*
Y571437D01*
X466516Y565177D02*
Y571437D01*
X466535Y565177D02*
Y571437D01*
X466555Y565177D02*
Y571437D01*
X466575Y565177D02*
Y571437D01*
X466594Y565177D02*
Y571437D01*
X466614Y565177D02*
Y571437D01*
X466634Y565177D02*
Y571437D01*
X466654Y565177D02*
Y571437D01*
X466673Y565177D02*
Y571437D01*
X466693Y565177D02*
Y571437D01*
X466713Y565177D02*
Y571437D01*
X466732Y565177D02*
Y571437D01*
X466752Y565177D02*
Y571437D01*
X466772Y565177D02*
Y571437D01*
X466791Y565177D02*
Y571437D01*
X466811Y565177D02*
Y571437D01*
X466831Y565177D02*
Y571437D01*
X466850Y565177D02*
Y571437D01*
X466870Y565177D02*
Y571437D01*
X466890Y565177D02*
Y571437D01*
X466909Y565177D02*
Y571437D01*
X466929Y565177D02*
Y571437D01*
X466949Y565177D02*
Y571437D01*
X466969Y565177D02*
Y571437D01*
X466988Y565177D02*
Y571437D01*
X467008Y565177D02*
Y571437D01*
X467028Y565177D02*
Y571437D01*
X467047Y565177D02*
Y571437D01*
X467067Y565177D02*
Y571437D01*
X467087Y565177D02*
Y571437D01*
X467106Y565177D02*
Y571437D01*
X467126Y565177D02*
Y571437D01*
X467146Y565177D02*
Y571437D01*
X467165Y565177D02*
Y571437D01*
X467185Y565177D02*
Y571437D01*
X467205Y565177D02*
Y571437D01*
X467224Y565177D02*
Y571437D01*
X467244Y565177D02*
Y571437D01*
X467264Y565177D02*
Y571437D01*
X467283Y565177D02*
Y571437D01*
X467303Y565177D02*
Y571437D01*
X467323Y565177D02*
Y571437D01*
X467343Y565177D02*
Y571437D01*
X467362Y565177D02*
Y571437D01*
X467382Y565177D02*
Y571437D01*
X467402Y565177D02*
Y571437D01*
X467421Y565177D02*
Y571437D01*
X467441Y565177D02*
Y571437D01*
X467461Y565177D02*
Y571437D01*
X467480Y565177D02*
Y571437D01*
G54D158*
X475197Y530118D02*
Y532087D01*
X477953*
Y530118*
X475197*
Y530315D02*
X477953D01*
X475197Y530709D02*
X477953D01*
X475197Y531102D02*
X477953D01*
X475197Y531496D02*
X477953D01*
X475197Y531890D02*
X477953D01*
X475197Y530118D02*
Y532087D01*
X475591Y530118D02*
Y532087D01*
X475984Y530118D02*
Y532087D01*
X476378Y530118D02*
Y532087D01*
X476772Y530118D02*
Y532087D01*
X477165Y530118D02*
Y532087D01*
X477559Y530118D02*
Y532087D01*
X477953Y530118D02*
Y532087D01*
X475197Y533858D02*
Y535827D01*
X477953*
Y533858*
X475197*
X477953*
X475197Y534252D02*
X477953D01*
X475197Y534646D02*
X477953D01*
X475197Y535039D02*
X477953D01*
X475197Y535433D02*
X477953D01*
X475197Y535827D02*
X477953D01*
X475197Y533858D02*
Y535827D01*
X475591Y533858D02*
Y535827D01*
X475984Y533858D02*
Y535827D01*
X476378Y533858D02*
Y535827D01*
X476772Y533858D02*
Y535827D01*
X477165Y533858D02*
Y535827D01*
X477559Y533858D02*
Y535827D01*
X477953Y533858D02*
Y535827D01*
X475197Y537598D02*
Y539567D01*
X477953*
Y537598*
X475197*
Y537795D02*
X477953D01*
X475197Y538189D02*
X477953D01*
X475197Y538583D02*
X477953D01*
X475197Y538976D02*
X477953D01*
X475197Y539370D02*
X477953D01*
X475197Y537598D02*
Y539567D01*
X475591Y537598D02*
Y539567D01*
X475984Y537598D02*
Y539567D01*
X476378Y537598D02*
Y539567D01*
X476772Y537598D02*
Y539567D01*
X477165Y537598D02*
Y539567D01*
X477559Y537598D02*
Y539567D01*
X477953Y537598D02*
Y539567D01*
X485433Y537598D02*
Y539567D01*
X488189*
Y537598*
X485433*
Y537795D02*
X488189D01*
X485433Y538189D02*
X488189D01*
X485433Y538583D02*
X488189D01*
X485433Y538976D02*
X488189D01*
X485433Y539370D02*
X488189D01*
X485433Y537598D02*
Y539567D01*
X485827Y537598D02*
Y539567D01*
X486220Y537598D02*
Y539567D01*
X486614Y537598D02*
Y539567D01*
X487008Y537598D02*
Y539567D01*
X487402Y537598D02*
Y539567D01*
X487795Y537598D02*
Y539567D01*
X488189Y537598D02*
Y539567D01*
X485433Y533858D02*
Y535827D01*
X488189*
Y533858*
X485433*
X488189*
X485433Y534252D02*
X488189D01*
X485433Y534646D02*
X488189D01*
X485433Y535039D02*
X488189D01*
X485433Y535433D02*
X488189D01*
X485433Y535827D02*
X488189D01*
X485433Y533858D02*
Y535827D01*
X485827Y533858D02*
Y535827D01*
X486220Y533858D02*
Y535827D01*
X486614Y533858D02*
Y535827D01*
X487008Y533858D02*
Y535827D01*
X487402Y533858D02*
Y535827D01*
X487795Y533858D02*
Y535827D01*
X488189Y533858D02*
Y535827D01*
X485433Y530118D02*
Y532087D01*
X488189*
Y530118*
X485433*
Y530315D02*
X488189D01*
X485433Y530709D02*
X488189D01*
X485433Y531102D02*
X488189D01*
X485433Y531496D02*
X488189D01*
X485433Y531890D02*
X488189D01*
X485433Y530118D02*
Y532087D01*
X485827Y530118D02*
Y532087D01*
X486220Y530118D02*
Y532087D01*
X486614Y530118D02*
Y532087D01*
X487008Y530118D02*
Y532087D01*
X487402Y530118D02*
Y532087D01*
X487795Y530118D02*
Y532087D01*
X488189Y530118D02*
Y532087D01*
X478740Y572657D02*
Y571083D01*
X472047*
Y572657*
X478740*
X472047Y571260D02*
X478740D01*
X472047Y571654D02*
X478740D01*
X472047Y572047D02*
X478740D01*
X472047Y572441D02*
X478740D01*
X472047Y571083D02*
Y572657D01*
X472441Y571083D02*
Y572657D01*
X472835Y571083D02*
Y572657D01*
X473228Y571083D02*
Y572657D01*
X473622Y571083D02*
Y572657D01*
X474016Y571083D02*
Y572657D01*
X474409Y571083D02*
Y572657D01*
X474803Y571083D02*
Y572657D01*
X475197Y571083D02*
Y572657D01*
X475591Y571083D02*
Y572657D01*
X475984Y571083D02*
Y572657D01*
X476378Y571083D02*
Y572657D01*
X476772Y571083D02*
Y572657D01*
X477165Y571083D02*
Y572657D01*
X477559Y571083D02*
Y572657D01*
X477953Y571083D02*
Y572657D01*
X478346Y571083D02*
Y572657D01*
X478740Y571083D02*
Y572657D01*
Y567657D02*
Y566083D01*
X472047*
Y567657*
X478740*
X472047Y566142D02*
X478740D01*
X472047Y566535D02*
X478740D01*
X472047Y566929D02*
X478740D01*
X472047Y567323D02*
X478740D01*
X472047Y566083D02*
Y567657D01*
X472441Y566083D02*
Y567657D01*
X472835Y566083D02*
Y567657D01*
X473228Y566083D02*
Y567657D01*
X473622Y566083D02*
Y567657D01*
X474016Y566083D02*
Y567657D01*
X474409Y566083D02*
Y567657D01*
X474803Y566083D02*
Y567657D01*
X475197Y566083D02*
Y567657D01*
X475591Y566083D02*
Y567657D01*
X475984Y566083D02*
Y567657D01*
X476378Y566083D02*
Y567657D01*
X476772Y566083D02*
Y567657D01*
X477165Y566083D02*
Y567657D01*
X477559Y566083D02*
Y567657D01*
X477953Y566083D02*
Y567657D01*
X478346Y566083D02*
Y567657D01*
X478740Y566083D02*
Y567657D01*
Y562657D02*
Y561083D01*
X472047*
Y562657*
X478740*
X472047Y561417D02*
X478740D01*
X472047Y561811D02*
X478740D01*
X472047Y562205D02*
X478740D01*
X472047Y562598D02*
X478740D01*
X472047Y561083D02*
Y562657D01*
X472441Y561083D02*
Y562657D01*
X472835Y561083D02*
Y562657D01*
X473228Y561083D02*
Y562657D01*
X473622Y561083D02*
Y562657D01*
X474016Y561083D02*
Y562657D01*
X474409Y561083D02*
Y562657D01*
X474803Y561083D02*
Y562657D01*
X475197Y561083D02*
Y562657D01*
X475591Y561083D02*
Y562657D01*
X475984Y561083D02*
Y562657D01*
X476378Y561083D02*
Y562657D01*
X476772Y561083D02*
Y562657D01*
X477165Y561083D02*
Y562657D01*
X477559Y561083D02*
Y562657D01*
X477953Y561083D02*
Y562657D01*
X478346Y561083D02*
Y562657D01*
X478740Y561083D02*
Y562657D01*
Y557657D02*
Y556083D01*
X472047*
Y557657*
X478740*
X472047Y556299D02*
X478740D01*
X472047Y556693D02*
X478740D01*
X472047Y557087D02*
X478740D01*
X472047Y557480D02*
X478740D01*
X472047Y556083D02*
Y557657D01*
X472441Y556083D02*
Y557657D01*
X472835Y556083D02*
Y557657D01*
X473228Y556083D02*
Y557657D01*
X473622Y556083D02*
Y557657D01*
X474016Y556083D02*
Y557657D01*
X474409Y556083D02*
Y557657D01*
X474803Y556083D02*
Y557657D01*
X475197Y556083D02*
Y557657D01*
X475591Y556083D02*
Y557657D01*
X475984Y556083D02*
Y557657D01*
X476378Y556083D02*
Y557657D01*
X476772Y556083D02*
Y557657D01*
X477165Y556083D02*
Y557657D01*
X477559Y556083D02*
Y557657D01*
X477953Y556083D02*
Y557657D01*
X478346Y556083D02*
Y557657D01*
X478740Y556083D02*
Y557657D01*
X452362D02*
Y556083D01*
X445669*
Y557657*
X452362*
X445669Y556299D02*
X452362D01*
X445669Y556693D02*
X452362D01*
X445669Y557087D02*
X452362D01*
X445669Y557480D02*
X452362D01*
X445669Y556083D02*
Y557657D01*
X446063Y556083D02*
Y557657D01*
X446457Y556083D02*
Y557657D01*
X446850Y556083D02*
Y557657D01*
X447244Y556083D02*
Y557657D01*
X447638Y556083D02*
Y557657D01*
X448031Y556083D02*
Y557657D01*
X448425Y556083D02*
Y557657D01*
X448819Y556083D02*
Y557657D01*
X449213Y556083D02*
Y557657D01*
X449606Y556083D02*
Y557657D01*
X450000Y556083D02*
Y557657D01*
X450394Y556083D02*
Y557657D01*
X450787Y556083D02*
Y557657D01*
X451181Y556083D02*
Y557657D01*
X451575Y556083D02*
Y557657D01*
X451969Y556083D02*
Y557657D01*
X452362Y556083D02*
Y557657D01*
Y562657D02*
Y561083D01*
X445669*
Y562657*
X452362*
X445669Y561417D02*
X452362D01*
X445669Y561811D02*
X452362D01*
X445669Y562205D02*
X452362D01*
X445669Y562598D02*
X452362D01*
X445669Y561083D02*
Y562657D01*
X446063Y561083D02*
Y562657D01*
X446457Y561083D02*
Y562657D01*
X446850Y561083D02*
Y562657D01*
X447244Y561083D02*
Y562657D01*
X447638Y561083D02*
Y562657D01*
X448031Y561083D02*
Y562657D01*
X448425Y561083D02*
Y562657D01*
X448819Y561083D02*
Y562657D01*
X449213Y561083D02*
Y562657D01*
X449606Y561083D02*
Y562657D01*
X450000Y561083D02*
Y562657D01*
X450394Y561083D02*
Y562657D01*
X450787Y561083D02*
Y562657D01*
X451181Y561083D02*
Y562657D01*
X451575Y561083D02*
Y562657D01*
X451969Y561083D02*
Y562657D01*
X452362Y561083D02*
Y562657D01*
Y567657D02*
Y566083D01*
X445669*
Y567657*
X452362*
X445669Y566142D02*
X452362D01*
X445669Y566535D02*
X452362D01*
X445669Y566929D02*
X452362D01*
X445669Y567323D02*
X452362D01*
X445669Y566083D02*
Y567657D01*
X446063Y566083D02*
Y567657D01*
X446457Y566083D02*
Y567657D01*
X446850Y566083D02*
Y567657D01*
X447244Y566083D02*
Y567657D01*
X447638Y566083D02*
Y567657D01*
X448031Y566083D02*
Y567657D01*
X448425Y566083D02*
Y567657D01*
X448819Y566083D02*
Y567657D01*
X449213Y566083D02*
Y567657D01*
X449606Y566083D02*
Y567657D01*
X450000Y566083D02*
Y567657D01*
X450394Y566083D02*
Y567657D01*
X450787Y566083D02*
Y567657D01*
X451181Y566083D02*
Y567657D01*
X451575Y566083D02*
Y567657D01*
X451969Y566083D02*
Y567657D01*
X452362Y566083D02*
Y567657D01*
Y572657D02*
Y571083D01*
X445669*
Y572657*
X452362*
X445669Y571260D02*
X452362D01*
X445669Y571654D02*
X452362D01*
X445669Y572047D02*
X452362D01*
X445669Y572441D02*
X452362D01*
X445669Y571083D02*
Y572657D01*
X446063Y571083D02*
Y572657D01*
X446457Y571083D02*
Y572657D01*
X446850Y571083D02*
Y572657D01*
X447244Y571083D02*
Y572657D01*
X447638Y571083D02*
Y572657D01*
X448031Y571083D02*
Y572657D01*
X448425Y571083D02*
Y572657D01*
X448819Y571083D02*
Y572657D01*
X449213Y571083D02*
Y572657D01*
X449606Y571083D02*
Y572657D01*
X450000Y571083D02*
Y572657D01*
X450394Y571083D02*
Y572657D01*
X450787Y571083D02*
Y572657D01*
X451181Y571083D02*
Y572657D01*
X451575Y571083D02*
Y572657D01*
X451969Y571083D02*
Y572657D01*
X452362Y571083D02*
Y572657D01*
X521063Y449488D02*
X521850D01*
Y448110*
X521063*
Y449488*
Y448425D02*
X521850D01*
X521063Y448819D02*
X521850D01*
X521063Y449213D02*
X521850D01*
X521260Y448110D02*
Y449488D01*
X521654Y448110D02*
Y449488D01*
X523622D02*
X524409D01*
Y448110*
X523622*
Y449488*
Y448425D02*
X524409D01*
X523622Y448819D02*
X524409D01*
X523622Y449213D02*
X524409D01*
X523622Y448110D02*
Y449488D01*
X524016Y448110D02*
Y449488D01*
X524409Y448110D02*
Y449488D01*
X526181D02*
X526969D01*
Y448110*
X526181*
Y449488*
Y448425D02*
X526969D01*
X526181Y448819D02*
X526969D01*
X526181Y449213D02*
X526969D01*
X526378Y448110D02*
Y449488D01*
X526772Y448110D02*
Y449488D01*
X526181Y441811D02*
X526969D01*
Y440433*
X526181*
Y441811*
Y440551D02*
X526969D01*
X526181Y440945D02*
X526969D01*
X526181Y441339D02*
X526969D01*
X526181Y441732D02*
X526969D01*
X526378Y440433D02*
Y441811D01*
X526772Y440433D02*
Y441811D01*
X523622D02*
X524409D01*
Y440433*
X523622*
Y441811*
Y440551D02*
X524409D01*
X523622Y440945D02*
X524409D01*
X523622Y441339D02*
X524409D01*
X523622Y441732D02*
X524409D01*
X523622Y440433D02*
Y441811D01*
X524016Y440433D02*
Y441811D01*
X524409Y440433D02*
Y441811D01*
X521063D02*
X521850D01*
Y440433*
X521063*
Y441811*
Y440551D02*
X521850D01*
X521063Y440945D02*
X521850D01*
X521063Y441339D02*
X521850D01*
X521063Y441732D02*
X521850D01*
X521260Y440433D02*
Y441811D01*
X521654Y440433D02*
Y441811D01*
X515846Y561220D02*
X514665D01*
Y565945*
X515846*
Y561220*
X514665Y561417D02*
X515846D01*
X514665Y561811D02*
X515846D01*
X514665Y562205D02*
X515846D01*
X514665Y562598D02*
X515846D01*
X514665Y562992D02*
X515846D01*
X514665Y563386D02*
X515846D01*
X514665Y563780D02*
X515846D01*
X514665Y564173D02*
X515846D01*
X514665Y564567D02*
X515846D01*
X514665Y564961D02*
X515846D01*
X514665Y565354D02*
X515846D01*
X514665Y565748D02*
X515846D01*
X514961Y561220D02*
Y565945D01*
X515354Y561220D02*
Y565945D01*
X515748Y561220D02*
Y565945D01*
X513287Y561220D02*
X512106D01*
Y565945*
X513287*
Y561220*
X512106Y561417D02*
X513287D01*
X512106Y561811D02*
X513287D01*
X512106Y562205D02*
X513287D01*
X512106Y562598D02*
X513287D01*
X512106Y562992D02*
X513287D01*
X512106Y563386D02*
X513287D01*
X512106Y563780D02*
X513287D01*
X512106Y564173D02*
X513287D01*
X512106Y564567D02*
X513287D01*
X512106Y564961D02*
X513287D01*
X512106Y565354D02*
X513287D01*
X512106Y565748D02*
X513287D01*
X512205Y561220D02*
Y565945D01*
X512598Y561220D02*
Y565945D01*
X512992Y561220D02*
Y565945D01*
X510728Y561220D02*
X509547D01*
Y565945*
X510728*
Y561220*
X509547Y561417D02*
X510728D01*
X509547Y561811D02*
X510728D01*
X509547Y562205D02*
X510728D01*
X509547Y562598D02*
X510728D01*
X509547Y562992D02*
X510728D01*
X509547Y563386D02*
X510728D01*
X509547Y563780D02*
X510728D01*
X509547Y564173D02*
X510728D01*
X509547Y564567D02*
X510728D01*
X509547Y564961D02*
X510728D01*
X509547Y565354D02*
X510728D01*
X509547Y565748D02*
X510728D01*
X509843Y561220D02*
Y565945D01*
X510236Y561220D02*
Y565945D01*
X510630Y561220D02*
Y565945D01*
X508169Y561220D02*
X506988D01*
Y565945*
X508169*
Y561220*
X506988Y561417D02*
X508169D01*
X506988Y561811D02*
X508169D01*
X506988Y562205D02*
X508169D01*
X506988Y562598D02*
X508169D01*
X506988Y562992D02*
X508169D01*
X506988Y563386D02*
X508169D01*
X506988Y563780D02*
X508169D01*
X506988Y564173D02*
X508169D01*
X506988Y564567D02*
X508169D01*
X506988Y564961D02*
X508169D01*
X506988Y565354D02*
X508169D01*
X506988Y565748D02*
X508169D01*
X507087Y561220D02*
Y565945D01*
X507480Y561220D02*
Y565945D01*
X507874Y561220D02*
Y565945D01*
X508169Y577362D02*
X506988D01*
Y582087*
X508169*
Y577362*
X506988Y577559D02*
X508169D01*
X506988Y577953D02*
X508169D01*
X506988Y578346D02*
X508169D01*
X506988Y578740D02*
X508169D01*
X506988Y579134D02*
X508169D01*
X506988Y579528D02*
X508169D01*
X506988Y579921D02*
X508169D01*
X506988Y580315D02*
X508169D01*
X506988Y580709D02*
X508169D01*
X506988Y581102D02*
X508169D01*
X506988Y581496D02*
X508169D01*
X506988Y581890D02*
X508169D01*
X507087Y577362D02*
Y582087D01*
X507480Y577362D02*
Y582087D01*
X507874Y577362D02*
Y582087D01*
X510728Y577362D02*
X509547D01*
Y582087*
X510728*
Y577362*
X509547Y577559D02*
X510728D01*
X509547Y577953D02*
X510728D01*
X509547Y578346D02*
X510728D01*
X509547Y578740D02*
X510728D01*
X509547Y579134D02*
X510728D01*
X509547Y579528D02*
X510728D01*
X509547Y579921D02*
X510728D01*
X509547Y580315D02*
X510728D01*
X509547Y580709D02*
X510728D01*
X509547Y581102D02*
X510728D01*
X509547Y581496D02*
X510728D01*
X509547Y581890D02*
X510728D01*
X509843Y577362D02*
Y582087D01*
X510236Y577362D02*
Y582087D01*
X510630Y577362D02*
Y582087D01*
X513287Y577362D02*
X512106D01*
Y582087*
X513287*
Y577362*
X512106Y577559D02*
X513287D01*
X512106Y577953D02*
X513287D01*
X512106Y578346D02*
X513287D01*
X512106Y578740D02*
X513287D01*
X512106Y579134D02*
X513287D01*
X512106Y579528D02*
X513287D01*
X512106Y579921D02*
X513287D01*
X512106Y580315D02*
X513287D01*
X512106Y580709D02*
X513287D01*
X512106Y581102D02*
X513287D01*
X512106Y581496D02*
X513287D01*
X512106Y581890D02*
X513287D01*
X512205Y577362D02*
Y582087D01*
X512598Y577362D02*
Y582087D01*
X512992Y577362D02*
Y582087D01*
X515846Y577362D02*
X514665D01*
Y582087*
X515846*
Y577362*
X514665Y577559D02*
X515846D01*
X514665Y577953D02*
X515846D01*
X514665Y578346D02*
X515846D01*
X514665Y578740D02*
X515846D01*
X514665Y579134D02*
X515846D01*
X514665Y579528D02*
X515846D01*
X514665Y579921D02*
X515846D01*
X514665Y580315D02*
X515846D01*
X514665Y580709D02*
X515846D01*
X514665Y581102D02*
X515846D01*
X514665Y581496D02*
X515846D01*
X514665Y581890D02*
X515846D01*
X514961Y577362D02*
Y582087D01*
X515354Y577362D02*
Y582087D01*
X515748Y577362D02*
Y582087D01*
X465748Y532283D02*
X463780D01*
Y535039*
X465748*
Y532283*
X463780D02*
X465748D01*
X463780Y532677D02*
X465748D01*
X463780Y533071D02*
X465748D01*
X463780Y533465D02*
X465748D01*
X463780Y533858D02*
X465748D01*
X463780Y534252D02*
X465748D01*
X463780Y534646D02*
X465748D01*
X463780Y535039D02*
X465748D01*
X463780Y532283D02*
Y535039D01*
X464173Y532283D02*
Y535039D01*
X464567Y532283D02*
Y535039D01*
X464961Y532283D02*
Y535039D01*
X465354Y532283D02*
Y535039D01*
X465748Y532283D02*
Y535039D01*
X462008Y532283D02*
X460039D01*
Y535039*
X462008*
Y532283*
X460039D02*
X462008D01*
X460039Y532677D02*
X462008D01*
X460039Y533071D02*
X462008D01*
X460039Y533465D02*
X462008D01*
X460039Y533858D02*
X462008D01*
X460039Y534252D02*
X462008D01*
X460039Y534646D02*
X462008D01*
X460039Y535039D02*
X462008D01*
X460236Y532283D02*
Y535039D01*
X460630Y532283D02*
Y535039D01*
X461024Y532283D02*
Y535039D01*
X461417Y532283D02*
Y535039D01*
X461811Y532283D02*
Y535039D01*
X458268Y532283D02*
X456299D01*
Y535039*
X458268*
Y532283*
X456299D02*
X458268D01*
X456299Y532677D02*
X458268D01*
X456299Y533071D02*
X458268D01*
X456299Y533465D02*
X458268D01*
X456299Y533858D02*
X458268D01*
X456299Y534252D02*
X458268D01*
X456299Y534646D02*
X458268D01*
X456299Y535039D02*
X458268D01*
X456299Y532283D02*
Y535039D01*
X456693Y532283D02*
Y535039D01*
X457087Y532283D02*
Y535039D01*
X457480Y532283D02*
Y535039D01*
X457874Y532283D02*
Y535039D01*
X458268Y532283D02*
Y535039D01*
Y542520D02*
X456299D01*
Y545276*
X458268*
Y542520*
X456299D02*
X458268D01*
X456299Y542913D02*
X458268D01*
X456299Y543307D02*
X458268D01*
X456299Y543701D02*
X458268D01*
X456299Y544094D02*
X458268D01*
X456299Y544488D02*
X458268D01*
X456299Y544882D02*
X458268D01*
X456299Y545276D02*
X458268D01*
X456299Y542520D02*
Y545276D01*
X456693Y542520D02*
Y545276D01*
X457087Y542520D02*
Y545276D01*
X457480Y542520D02*
Y545276D01*
X457874Y542520D02*
Y545276D01*
X458268Y542520D02*
Y545276D01*
X462008Y542520D02*
X460039D01*
Y545276*
X462008*
Y542520*
X460039D02*
X462008D01*
X460039Y542913D02*
X462008D01*
X460039Y543307D02*
X462008D01*
X460039Y543701D02*
X462008D01*
X460039Y544094D02*
X462008D01*
X460039Y544488D02*
X462008D01*
X460039Y544882D02*
X462008D01*
X460039Y545276D02*
X462008D01*
X460236Y542520D02*
Y545276D01*
X460630Y542520D02*
Y545276D01*
X461024Y542520D02*
Y545276D01*
X461417Y542520D02*
Y545276D01*
X461811Y542520D02*
Y545276D01*
X465748Y542520D02*
X463780D01*
Y545276*
X465748*
Y542520*
X463780D02*
X465748D01*
X463780Y542913D02*
X465748D01*
X463780Y543307D02*
X465748D01*
X463780Y543701D02*
X465748D01*
X463780Y544094D02*
X465748D01*
X463780Y544488D02*
X465748D01*
X463780Y544882D02*
X465748D01*
X463780Y545276D02*
X465748D01*
X463780Y542520D02*
Y545276D01*
X464173Y542520D02*
Y545276D01*
X464567Y542520D02*
Y545276D01*
X464961Y542520D02*
Y545276D01*
X465354Y542520D02*
Y545276D01*
X465748Y542520D02*
Y545276D01*
X407468Y649606D02*
G75*
G03X393701Y635815I146J-13913D01*
G01X407480Y649606D02*
X419291D01*
X423228Y645231D02*
G03X419288Y649607I-4586J-168D01*
G01X423228Y645226D02*
Y629134D01*
Y629135D02*
G03X427163Y624804I4590J216D01*
G01X427165Y624803D02*
X509449D01*
X509448D02*
G03X513779Y628738I-217J4590D01*
G01X513780Y628740D02*
Y645669D01*
X518113Y649606D02*
G03X513780Y645671I250J-4628D01*
G01X518110Y649606D02*
X529528D01*
X543308Y635814D02*
G03X529540Y649606I-14476J-683D01*
G01X543307Y635827D02*
Y407480D01*
X529512Y393701D02*
G03X543307Y407471I0J13795D01*
G01X529528Y393701D02*
X407480D01*
X393701Y407480D02*
G03X407480Y393701I13779J0D01*
G01X393701Y407480D02*
Y635827D01*
G54D240*
X521260Y443386D02*
Y446535D01*
X526772*
Y443386*
X521260*
Y444094D02*
X526772D01*
X521260Y444882D02*
X526772D01*
X521260Y445669D02*
X526772D01*
X521260Y446457D02*
X526772D01*
X521260Y443386D02*
Y446535D01*
X522047Y443386D02*
Y446535D01*
X522835Y443386D02*
Y446535D01*
X523622Y443386D02*
Y446535D01*
X524409Y443386D02*
Y446535D01*
X525197Y443386D02*
Y446535D01*
X525984Y443386D02*
Y446535D01*
X526772Y443386D02*
Y446535D01*
X535472Y428524D02*
Y425728D01*
X531457*
Y428524*
X535472*
X531457Y425984D02*
X535472D01*
X531457Y426772D02*
X535472D01*
X531457Y427559D02*
X535472D01*
X531457Y428346D02*
X535472D01*
X531496Y425728D02*
Y428524D01*
X532283Y425728D02*
Y428524D01*
X533071Y425728D02*
Y428524D01*
X533858Y425728D02*
Y428524D01*
X534646Y425728D02*
Y428524D01*
X535433Y425728D02*
Y428524D01*
X535472Y441437D02*
Y438642D01*
X531457*
Y441437*
X535472*
X531457Y439370D02*
X535472D01*
X531457Y440157D02*
X535472D01*
X531457Y440945D02*
X535472D01*
X531496Y438642D02*
Y441437D01*
X532283Y438642D02*
Y441437D01*
X533071Y438642D02*
Y441437D01*
X533858Y438642D02*
Y441437D01*
X534646Y438642D02*
Y441437D01*
X535433Y438642D02*
Y441437D01*
G54D351*
X424606Y430866D03*
X509055Y620079D03*
G54D361*
X510197Y439409D02*
Y440472D01*
X512638*
Y439409*
X510197*
Y440000D02*
X512638D01*
X510551Y439409D02*
Y440472D01*
X511654Y439409D02*
Y440472D01*
X510197Y444724D02*
Y445787D01*
X512638*
Y444724*
X510197*
Y445512D02*
X512638D01*
X510551Y444724D02*
Y445787D01*
X511654Y444724D02*
Y445787D01*
X537480Y448858D02*
X536417D01*
Y451299*
X537480*
Y448858*
X536417Y449921D02*
X537480D01*
X536417Y451024D02*
X537480D01*
X537008Y448858D02*
Y451299D01*
X532165Y448858D02*
X531102D01*
Y451299*
X532165*
Y448858*
X531102Y449921D02*
X532165D01*
X531102Y451024D02*
X532165D01*
X531496Y448858D02*
Y451299D01*
X510394Y428504D02*
Y429567D01*
X512835*
Y428504*
X510394*
Y428976D02*
X512835D01*
X510551Y428504D02*
Y429567D01*
X511654Y428504D02*
Y429567D01*
X512756Y428504D02*
Y429567D01*
X510394Y433819D02*
Y434882D01*
X512835*
Y433819*
X510394*
Y434488D02*
X512835D01*
X510551Y433819D02*
Y434882D01*
X511654Y433819D02*
Y434882D01*
X512756Y433819D02*
Y434882D01*
G54D410*
X478350Y491769D02*
X478756D01*
X478938Y491586*
Y490909*
X478350*
Y491769*
X478359Y490909D02*
Y491769D01*
X478559Y490909D02*
Y491769D01*
X478759Y490909D02*
Y491765D01*
X478350Y484682D02*
X478756D01*
X478938Y484500*
Y483822*
X478350*
Y484682*
X478359Y483822D02*
Y484682D01*
X478559Y483822D02*
Y484682D01*
X478759Y483822D02*
Y484679D01*
X478350Y501217D02*
X478756D01*
X478938Y501035*
Y500357*
X478350*
Y501217*
X478359Y500357D02*
Y501217D01*
X478559Y500357D02*
Y501217D01*
X478759Y500357D02*
Y501214D01*
X478350Y508698D02*
X478756D01*
X478938Y508516*
Y507838*
X478350*
Y508698*
X478359Y507838D02*
Y508698D01*
X478559Y507838D02*
Y508698D01*
X478759Y507838D02*
Y508694D01*
G54D419*
X480768Y525630D02*
X479862D01*
Y526732*
X480768*
Y525630*
X479862Y526220D02*
X480768D01*
X480315Y525630D02*
Y526732D01*
X477618Y525630D02*
X476713D01*
Y526732*
X477618*
Y525630*
X476713Y526220D02*
X477618D01*
X476850Y525630D02*
Y526732D01*
X466886Y579366D02*
X467791D01*
Y578264*
X466886*
Y579366*
Y579055D02*
X467791D01*
X467323Y578264D02*
Y579366D01*
X470035D02*
X470941D01*
Y578264*
X470035*
Y579366*
Y579055D02*
X470941D01*
X470787Y578264D02*
Y579366D01*
X470433Y548878D02*
Y547972D01*
X469331*
Y548878*
X470433*
X469331Y548740D02*
X470433D01*
X469921Y547972D02*
Y548878D01*
X470433Y545728D02*
Y544823D01*
X469331*
Y545728*
X470433*
X469331Y545276D02*
X470433D01*
X469921Y544823D02*
Y545728D01*
X473071Y544823D02*
Y545728D01*
X474173*
Y544823*
X473071*
Y545276D02*
X474173D01*
X473386Y544823D02*
Y545728D01*
X473071Y547972D02*
Y548878D01*
X474173*
Y547972*
X473071*
Y548740D02*
X474173D01*
X473386Y547972D02*
Y548878D01*
X475531Y519587D02*
X476437D01*
Y518484*
X475531*
Y519587*
Y519291D02*
X476437D01*
X475984Y518484D02*
Y519587D01*
X478681D02*
X479587D01*
Y518484*
X478681*
Y519587*
Y519291D02*
X479587D01*
X479449Y518484D02*
Y519587D01*
X475531Y511969D02*
X476437D01*
Y510866*
X475531*
Y511969*
Y511496D02*
X476437D01*
X475984Y510866D02*
Y511969D01*
X478681D02*
X479587D01*
Y510866*
X478681*
Y511969*
Y511496D02*
X479587D01*
X479449Y510866D02*
Y511969D01*
X475531Y504882D02*
X476437D01*
Y503780*
X475531*
Y504882*
Y504567D02*
X476437D01*
X475984Y503780D02*
Y504882D01*
X478681D02*
X479587D01*
Y503780*
X478681*
Y504882*
Y504567D02*
X479587D01*
X479449Y503780D02*
Y504882D01*
X492283Y531752D02*
Y530846D01*
X491181*
Y531752*
X492283*
X491181Y531417D02*
X492283D01*
X491575Y530846D02*
Y531752D01*
X492283Y528602D02*
Y527697D01*
X491181*
Y528602*
X492283*
X491181Y527953D02*
X492283D01*
X491575Y527697D02*
Y528602D01*
X455138Y548819D02*
X454232D01*
Y549921*
X455138*
Y548819*
X454232Y549606D02*
X455138D01*
X454331Y548819D02*
Y549921D01*
X451988Y548819D02*
X451083D01*
Y549921*
X451988*
Y548819*
X451083Y549606D02*
X451988D01*
X451732Y548819D02*
Y549921D01*
X475531Y495433D02*
X476437D01*
Y494331*
X475531*
Y495433*
Y495039D02*
X476437D01*
X475984Y494331D02*
Y495433D01*
X478681D02*
X479587D01*
Y494331*
X478681*
Y495433*
Y495039D02*
X479587D01*
X479449Y494331D02*
Y495433D01*
X481260Y548878D02*
Y547972D01*
X480157*
Y548878*
X481260*
X480157Y548740D02*
X481260D01*
X480315Y547972D02*
Y548878D01*
X481181Y547972D02*
Y548878D01*
X481260Y545728D02*
Y544823D01*
X480157*
Y545728*
X481260*
X480157Y545276D02*
X481260D01*
X480315Y544823D02*
Y545728D01*
X481181Y544823D02*
Y545728D01*
X452579Y546024D02*
Y545118D01*
X451476*
Y546024*
X452579*
X451476Y545276D02*
X452579D01*
X451732Y545118D02*
Y546024D01*
X452579Y542874D02*
Y541969D01*
X451476*
Y542874*
X452579*
X451476Y542677D02*
X452579D01*
X451732Y541969D02*
Y542874D01*
X447717Y541945D02*
Y542850D01*
X448819*
Y541945*
X447717*
Y542677D02*
X448819D01*
X448268Y541945D02*
Y542850D01*
X447717Y545094D02*
Y546000D01*
X448819*
Y545094*
X447717*
Y545276D02*
X448819D01*
X448268Y545094D02*
Y546000D01*
X429272Y558425D02*
X430177D01*
Y557323*
X429272*
Y558425*
Y557402D02*
X430177D01*
X429272Y558268D02*
X430177D01*
X430079Y557323D02*
Y558425D01*
X432421D02*
X433327D01*
Y557323*
X432421*
Y558425*
Y557402D02*
X433327D01*
X432421Y558268D02*
X433327D01*
X432677Y557323D02*
Y558425D01*
X437382Y546339D02*
X438287D01*
Y545236*
X437382*
Y546339*
Y545276D02*
X438287D01*
X437382Y546142D02*
X438287D01*
X437874Y545236D02*
Y546339D01*
X440531D02*
X441437D01*
Y545236*
X440531*
Y546339*
Y545276D02*
X441437D01*
X440531Y546142D02*
X441437D01*
X441339Y545236D02*
Y546339D01*
X458602Y549882D02*
X459508D01*
Y548780*
X458602*
Y549882*
Y549606D02*
X459508D01*
X458661Y548780D02*
Y549882D01*
X461752D02*
X462657D01*
Y548780*
X461752*
Y549882*
Y549606D02*
X462657D01*
X462126Y548780D02*
Y549882D01*
X470980Y585260D02*
X470075D01*
Y586362*
X470980*
Y585260*
X470075Y585984D02*
X470980D01*
X470787Y585260D02*
Y586362D01*
X467831Y585260D02*
X466925D01*
Y586362*
X467831*
Y585260*
X466925Y585984D02*
X467831D01*
X467323Y585260D02*
Y586362D01*
X466925Y583016D02*
X467831D01*
Y581913*
X466925*
Y583016*
Y582520D02*
X467831D01*
X467323Y581913D02*
Y583016D01*
X470075D02*
X470980D01*
Y581913*
X470075*
Y583016*
Y582520D02*
X470980D01*
X470787Y581913D02*
Y583016D01*
X474819Y586264D02*
Y585358D01*
X473717*
Y586264*
X474819*
X473717Y585984D02*
X474819D01*
X474252Y585358D02*
Y586264D01*
X474819Y583114D02*
Y582209D01*
X473717*
Y583114*
X474819*
X473717Y582520D02*
X474819D01*
X474252Y582209D02*
Y583114D01*
X441398Y570906D02*
X440492D01*
Y572008*
X441398*
Y570906*
X440492Y571260D02*
X441398D01*
X441339Y570906D02*
Y572008D01*
X438248Y570906D02*
X437343D01*
Y572008*
X438248*
Y570906*
X437343Y571260D02*
X438248D01*
X437874Y570906D02*
Y572008D01*
X441398Y561457D02*
X440492D01*
Y562559*
X441398*
Y561457*
X440492Y561732D02*
X441398D01*
X441339Y561457D02*
Y562559D01*
X438248Y561457D02*
X437343D01*
Y562559*
X438248*
Y561457*
X437343Y561732D02*
X438248D01*
X437874Y561457D02*
Y562559D01*
X441398Y591181D02*
X440492D01*
Y592283*
X441398*
Y591181*
X440492D02*
X441398D01*
X440492Y592047D02*
X441398D01*
X441339Y591181D02*
Y592283D01*
X438248Y591181D02*
X437343D01*
Y592283*
X438248*
Y591181*
X437343D02*
X438248D01*
X437343Y592047D02*
X438248D01*
X437874Y591181D02*
Y592283D01*
X437343Y550157D02*
X438248D01*
Y549055*
X437343*
Y550157*
Y549606D02*
X438248D01*
X437874Y549055D02*
Y550157D01*
X440492D02*
X441398D01*
Y549055*
X440492*
Y550157*
Y549606D02*
X441398D01*
X441339Y549055D02*
Y550157D01*
X441398Y557323D02*
X440492D01*
Y558425*
X441398*
Y557323*
X440492Y557402D02*
X441398D01*
X440492Y558268D02*
X441398D01*
X441339Y557323D02*
Y558425D01*
X438248Y557323D02*
X437343D01*
Y558425*
X438248*
Y557323*
X437343Y557402D02*
X438248D01*
X437343Y558268D02*
X438248D01*
X437874Y557323D02*
Y558425D01*
X429272Y562559D02*
X430177D01*
Y561457*
X429272*
Y562559*
Y561732D02*
X430177D01*
X430079Y561457D02*
Y562559D01*
X432421D02*
X433327D01*
Y561457*
X432421*
Y562559*
Y561732D02*
X433327D01*
X432677Y561457D02*
Y562559D01*
X437343Y566890D02*
X438248D01*
Y565787*
X437343*
Y566890*
Y566063D02*
X438248D01*
X437874Y565787D02*
Y566890D01*
X440492D02*
X441398D01*
Y565787*
X440492*
Y566890*
Y566063D02*
X441398D01*
X441339Y565787D02*
Y566890D01*
X484803Y548878D02*
Y547972D01*
X483701*
Y548878*
X484803*
X483701Y548740D02*
X484803D01*
X483780Y547972D02*
Y548878D01*
X484646Y547972D02*
Y548878D01*
X484803Y545728D02*
Y544823D01*
X483701*
Y545728*
X484803*
X483701Y545276D02*
X484803D01*
X483780Y544823D02*
Y545728D01*
X484646Y544823D02*
Y545728D01*
X488346Y548878D02*
Y547972D01*
X487244*
Y548878*
X488346*
X487244Y548740D02*
X488346D01*
X487244Y547972D02*
Y548878D01*
X488110Y547972D02*
Y548878D01*
X488346Y545728D02*
Y544823D01*
X487244*
Y545728*
X488346*
X487244Y545276D02*
X488346D01*
X487244Y544823D02*
Y545728D01*
X488110Y544823D02*
Y545728D01*
X491890Y548878D02*
Y547972D01*
X490787*
Y548878*
X491890*
X490787Y548740D02*
X491890D01*
X491575Y547972D02*
Y548878D01*
X491890Y545728D02*
Y544823D01*
X490787*
Y545728*
X491890*
X490787Y545276D02*
X491890D01*
X491575Y544823D02*
Y545728D01*
X477717Y548878D02*
Y547972D01*
X476614*
Y548878*
X477717*
X476614Y548740D02*
X477717D01*
X476850Y547972D02*
Y548878D01*
X477717Y547972D02*
Y548878D01*
Y545728D02*
Y544823D01*
X476614*
Y545728*
X477717*
X476614Y545276D02*
X477717D01*
X476850Y544823D02*
Y545728D01*
X477717Y544823D02*
Y545728D01*
X441398Y577008D02*
X440492D01*
Y578110*
X441398*
Y577008*
X440492Y577323D02*
X441398D01*
X441339Y577008D02*
Y578110D01*
X438248Y577008D02*
X437343D01*
Y578110*
X438248*
Y577008*
X437343Y577323D02*
X438248D01*
X437874Y577008D02*
Y578110D01*
X515669Y440886D02*
Y441791D01*
X516772*
Y440886*
X515669*
Y441339D02*
X516772D01*
X515827Y440886D02*
Y441791D01*
X516693Y440886D02*
Y441791D01*
X515669Y444035D02*
Y444941D01*
X516772*
Y444035*
X515669*
Y444803D02*
X516772D01*
X515827Y444035D02*
Y444941D01*
X516693Y444035D02*
Y444941D01*
X441398Y599449D02*
X440492D01*
Y600551*
X441398*
Y599449*
X440492Y599843D02*
X441398D01*
X441339Y599449D02*
Y600551D01*
X438248Y599449D02*
X437343D01*
Y600551*
X438248*
Y599449*
X437343Y599843D02*
X438248D01*
X437874Y599449D02*
Y600551D01*
X437343Y585197D02*
X438248D01*
Y584094*
X437343*
Y585197*
Y584252D02*
X438248D01*
X437343Y585118D02*
X438248D01*
X437874Y584094D02*
Y585197D01*
X440492D02*
X441398D01*
Y584094*
X440492*
Y585197*
Y584252D02*
X441398D01*
X440492Y585118D02*
X441398D01*
X441339Y584094D02*
Y585197D01*
X437343Y581654D02*
X438248D01*
Y580551*
X437343*
Y581654*
Y580787D02*
X438248D01*
X437343Y581654D02*
X438248D01*
X437874Y580551D02*
Y581654D01*
X440492D02*
X441398D01*
Y580551*
X440492*
Y581654*
Y580787D02*
X441398D01*
X440492Y581654D02*
X441398D01*
X441339Y580551D02*
Y581654D01*
X441398Y602992D02*
X440492D01*
Y604094*
X441398*
Y602992*
X440492Y603307D02*
X441398D01*
X441339Y602992D02*
Y604094D01*
X438248Y602992D02*
X437343D01*
Y604094*
X438248*
Y602992*
X437343Y603307D02*
X438248D01*
X437874Y602992D02*
Y604094D01*
X536516Y444803D02*
X535610D01*
Y445906*
X536516*
Y444803*
X535610D02*
X536516D01*
X535610Y445669D02*
X536516D01*
X535748Y444803D02*
Y445906D01*
X533366Y444803D02*
X532461D01*
Y445906*
X533366*
Y444803*
X532461D02*
X533366D01*
X532461Y445669D02*
X533366D01*
X533150Y444803D02*
Y445906D01*
X441398Y606535D02*
X440492D01*
Y607638*
X441398*
Y606535*
X440492Y606772D02*
X441398D01*
X440492Y607638D02*
X441398D01*
X441339Y606535D02*
Y607638D01*
X438248Y606535D02*
X437343D01*
Y607638*
X438248*
Y606535*
X437343Y606772D02*
X438248D01*
X437343Y607638D02*
X438248D01*
X437874Y606535D02*
Y607638D01*
X441398Y610079D02*
X440492D01*
Y611181*
X441398*
Y610079*
X440492Y610236D02*
X441398D01*
X440492Y611102D02*
X441398D01*
X441339Y610079D02*
Y611181D01*
X438248Y610079D02*
X437343D01*
Y611181*
X438248*
Y610079*
X437343Y610236D02*
X438248D01*
X437343Y611102D02*
X438248D01*
X437874Y610079D02*
Y611181D01*
X493248Y611969D02*
X494154D01*
Y610866*
X493248*
Y611969*
Y611102D02*
X494154D01*
X493248Y611969D02*
X494154D01*
X493307Y610866D02*
Y611969D01*
X496398D02*
X497303D01*
Y610866*
X496398*
Y611969*
Y611102D02*
X497303D01*
X496398Y611969D02*
X497303D01*
X496772Y610866D02*
Y611969D01*
X488642Y593150D02*
X487736D01*
Y594252*
X488642*
Y593150*
X487736Y593780D02*
X488642D01*
X488110Y593150D02*
Y594252D01*
X485492Y593150D02*
X484587D01*
Y594252*
X485492*
Y593150*
X484587Y593780D02*
X485492D01*
X484646Y593150D02*
Y594252D01*
X441398Y595906D02*
X440492D01*
Y597008*
X441398*
Y595906*
X440492Y596378D02*
X441398D01*
X441339Y595906D02*
Y597008D01*
X438248Y595906D02*
X437343D01*
Y597008*
X438248*
Y595906*
X437343Y596378D02*
X438248D01*
X437874Y595906D02*
Y597008D01*
X488642Y589606D02*
X487736D01*
Y590709*
X488642*
Y589606*
X487736Y590315D02*
X488642D01*
X488110Y589606D02*
Y590709D01*
X485492Y589606D02*
X484587D01*
Y590709*
X485492*
Y589606*
X484587Y590315D02*
X485492D01*
X484646Y589606D02*
Y590709D01*
X484587Y601339D02*
X485492D01*
Y600236*
X484587*
Y601339*
Y600709D02*
X485492D01*
X484646Y600236D02*
Y601339D01*
X487736D02*
X488642D01*
Y600236*
X487736*
Y601339*
Y600709D02*
X488642D01*
X488110Y600236D02*
Y601339D01*
X522598Y594547D02*
Y593642D01*
X521496*
Y594547*
X522598*
X521496Y593780D02*
X522598D01*
X521890Y593642D02*
Y594547D01*
X522598Y591398D02*
Y590492D01*
X521496*
Y591398*
X522598*
X521496Y591181D02*
X522598D01*
X521890Y590492D02*
Y591398D01*
X530295Y589724D02*
X529390D01*
Y590827*
X530295*
Y589724*
X529390Y590315D02*
X530295D01*
X529685Y589724D02*
Y590827D01*
X527146Y589724D02*
X526240D01*
Y590827*
X527146*
Y589724*
X526240Y590315D02*
X527146D01*
X527087Y589724D02*
Y590827D01*
X526122Y594724D02*
X527028D01*
Y593622*
X526122*
Y594724*
Y593780D02*
X527028D01*
X526122Y594646D02*
X527028D01*
X526220Y593622D02*
Y594724D01*
X529272D02*
X530177D01*
Y593622*
X529272*
Y594724*
Y593780D02*
X530177D01*
X529272Y594646D02*
X530177D01*
X529685Y593622D02*
Y594724D01*
X526240Y586811D02*
X527146D01*
Y585709*
X526240*
Y586811*
Y585984D02*
X527146D01*
X527087Y585709D02*
Y586811D01*
X529390D02*
X530295D01*
Y585709*
X529390*
Y586811*
Y585984D02*
X530295D01*
X529685Y585709D02*
Y586811D01*
X488642Y586063D02*
X487736D01*
Y587165*
X488642*
Y586063*
X487736Y586850D02*
X488642D01*
X488110Y586063D02*
Y587165D01*
X485492Y586063D02*
X484587D01*
Y587165*
X485492*
Y586063*
X484587Y586850D02*
X485492D01*
X484646Y586063D02*
Y587165D01*
X475531Y488346D02*
X476437D01*
Y487244*
X475531*
Y488346*
Y487244D02*
X476437D01*
X475531Y488110D02*
X476437D01*
X475984Y487244D02*
Y488346D01*
X478681D02*
X479587D01*
Y487244*
X478681*
Y488346*
Y487244D02*
X479587D01*
X478681Y488110D02*
X479587D01*
X479449Y487244D02*
Y488346D01*
X488642Y596693D02*
X487736D01*
Y597795*
X488642*
Y596693*
X487736Y597244D02*
X488642D01*
X488110Y596693D02*
Y597795D01*
X485492Y596693D02*
X484587D01*
Y597795*
X485492*
Y596693*
X484587Y597244D02*
X485492D01*
X484646Y596693D02*
Y597795D01*
X488642Y582520D02*
X487736D01*
Y583622*
X488642*
Y582520*
X487736D02*
X488642D01*
X487736Y583386D02*
X488642D01*
X488110Y582520D02*
Y583622D01*
X485492Y582520D02*
X484587D01*
Y583622*
X485492*
Y582520*
X484587D02*
X485492D01*
X484587Y583386D02*
X485492D01*
X484646Y582520D02*
Y583622D01*
X441398Y587638D02*
X440492D01*
Y588740*
X441398*
Y587638*
X440492Y587717D02*
X441398D01*
X440492Y588583D02*
X441398D01*
X441339Y587638D02*
Y588740D01*
X438248Y587638D02*
X437343D01*
Y588740*
X438248*
Y587638*
X437343Y587717D02*
X438248D01*
X437343Y588583D02*
X438248D01*
X437874Y587638D02*
Y588740D01*
X521201Y454094D02*
X522106D01*
Y452992*
X521201*
Y454094*
Y453465D02*
X522106D01*
X521890Y452992D02*
Y454094D01*
X524350D02*
X525256D01*
Y452992*
X524350*
Y454094*
Y453465D02*
X525256D01*
X524488Y452992D02*
Y454094D01*
X518169Y593543D02*
X517264D01*
Y594646*
X518169*
Y593543*
X517264Y593780D02*
X518169D01*
X517264Y594646D02*
X518169D01*
X517559Y593543D02*
Y594646D01*
X515020Y593543D02*
X514114D01*
Y594646*
X515020*
Y593543*
X514114Y593780D02*
X515020D01*
X514114Y594646D02*
X515020D01*
X514961Y593543D02*
Y594646D01*
X518169Y589606D02*
X517264D01*
Y590709*
X518169*
Y589606*
X517264Y590315D02*
X518169D01*
X517559Y589606D02*
Y590709D01*
X515020Y589606D02*
X514114D01*
Y590709*
X515020*
Y589606*
X514114Y590315D02*
X515020D01*
X514961Y589606D02*
Y590709D01*
X508346Y553642D02*
Y554547D01*
X509449*
Y553642*
X508346*
Y553937D02*
X509449D01*
X508898Y553642D02*
Y554547D01*
X508346Y556791D02*
Y557697D01*
X509449*
Y556791*
X508346*
Y557402D02*
X509449D01*
X508898Y556791D02*
Y557697D01*
X504567Y553642D02*
Y554547D01*
X505669*
Y553642*
X504567*
Y553937D02*
X505669D01*
X504567Y553642D02*
Y554547D01*
X505433Y553642D02*
Y554547D01*
X504567Y556791D02*
Y557697D01*
X505669*
Y556791*
X504567*
Y557402D02*
X505669D01*
X504567Y556791D02*
Y557697D01*
X505433Y556791D02*
Y557697D01*
G54D420*
X517047Y436142D02*
X518622D01*
Y427087*
X517047*
Y436142*
Y428346D02*
X518622D01*
X517047Y429921D02*
X518622D01*
X517047Y431496D02*
X518622D01*
X517047Y433071D02*
X518622D01*
X517047Y434646D02*
X518622D01*
X518110Y427087D02*
Y436142D01*
X525709D02*
X527283D01*
Y427087*
X525709*
Y436142*
Y428346D02*
X527283D01*
X525709Y429921D02*
X527283D01*
X525709Y431496D02*
X527283D01*
X525709Y433071D02*
X527283D01*
X525709Y434646D02*
X527283D01*
X525984Y427087D02*
Y436142D01*
G54D422*
X478642Y491339D03*
Y484252D03*
Y500787D03*
Y508268D03*
Y491339D03*
Y484252D03*
Y500787D03*
Y508268D03*
G54D424*
X476476Y491339D03*
Y484252D03*
Y500787D03*
Y508268D03*
G54D433*
X462205Y564390D03*
X462205D03*
G54D434*
X486220Y482087D03*
Y486417D03*
Y490748D03*
Y495079D03*
Y499409D03*
Y503740D03*
Y508071D03*
Y512402D03*
Y516732D03*
G54D435*
X488189Y521457D03*
G54D436*
X525984D03*
Y460433D03*
G54D437*
X488189Y463976D03*
G74*
X0Y0D02*
M02*
