*
*
G04 PADS 9.5 Build Number: 522968 generated Gerber (RS-274-X) file*
G04 PC Version=2.1*
*
%IN "SF32LB52-MOD-1_PCB_V1.0"*%
*
%MOIN*%
*
%FSLAX35Y35*%
*
*
*
*
G04 PC Standard Apertures*
*
*
G04 Thermal Relief Aperture macro.*
%AMTER*
1,1,$1,0,0*
1,0,$1-$2,0,0*
21,0,$3,$4,0,0,45*
21,0,$3,$4,0,0,135*
%
*
*
G04 Annular Aperture macro.*
%AMANN*
1,1,$1,0,0*
1,0,$2,0,0*
%
*
*
G04 Odd Aperture macro.*
%AMODD*
1,1,$1,0,0*
1,0,$1-0.005,0,0*
%
*
*
G04 PC Custom Aperture Macros*
*
*
*
*
*
*
G04 PC Aperture Table*
*
%ADD010C,0.001*%
%ADD158C,0.00394*%
%ADD240C,0.00787*%
%ADD317C,0.01181*%
%ADD326R,0.03543X0.02362*%
%ADD329R,0.02362X0.03543*%
%ADD416C,0.00984*%
%ADD418C,0.00591*%
%ADD421C,0.01772*%
*
*
*
*
G04 PC Circuitry*
G04 Layer Name SF32LB52-MOD-1_PCB_V1.0 - circuitry*
%LPD*%
*
*
G04 PC Custom Flashes*
G04 Layer Name SF32LB52-MOD-1_PCB_V1.0 - flashes*
%LPD*%
*
*
G04 PC Circuitry*
G04 Layer Name SF32LB52-MOD-1_PCB_V1.0 - circuitry*
%LPD*%
*
G54D10*
G54D158*
G01X426969Y394094D02*
Y395551D01*
X427165*
X409646Y394094D02*
Y401929D01*
X411713Y403996*
Y420424*
X401378Y421417D02*
X403384Y423424D01*
X461871Y440947D02*
X461872Y440945D01*
X464173*
X461871Y440947D02*
X463398D01*
X446260Y442126D02*
Y442323D01*
X426929Y399134D02*
X426969Y399094D01*
Y394094*
X426929Y399134D02*
Y395787D01*
X427165Y395551*
X447901Y434677D02*
X449213Y435988D01*
Y438976*
X446143Y440354D02*
X447264Y439234D01*
Y437972*
X446143Y440354D02*
X447835D01*
X449213Y438976*
X441496Y450696D02*
X443101Y452301D01*
X448501*
X450301Y450501*
X451095*
X441496Y450696D02*
Y445818D01*
X444379Y442934*
X444783*
X451095Y450501D02*
X456501D01*
X457501Y451501*
X453150Y443110D02*
X455041D01*
X457101Y441050*
Y434501*
X457301Y434301*
X444783Y442934D02*
X445747Y443898D01*
X447709*
X448497Y443110*
X453150*
X444783Y442934D02*
Y441711D01*
X446140Y440354*
X446143*
X403384Y423424D02*
X403858Y423898D01*
X404488*
Y438858*
X407598Y441969*
X408505*
X409409Y441064*
X445494Y431926D02*
X445527Y432303D01*
X447901Y434677*
X445494Y431926D02*
X445906Y431890D01*
X405202Y408622D02*
Y394882D01*
X405315Y394094*
X405202Y408622D02*
X405945Y409364D01*
Y419016*
X408724Y421795*
Y431620*
X399137Y407191D02*
Y405115D01*
X399843Y404409*
X400512*
Y406535*
X401063Y408228*
X401220Y408386*
X399137Y407191D02*
X403976Y412030D01*
Y419882*
X406850Y422756*
Y436965*
X409409Y439524*
Y441064*
X443701Y445701D02*
X444701Y444701D01*
X454564*
X458701Y440564*
Y435501*
X461918Y432283*
X464173*
X443701Y445701D02*
X443740Y445945D01*
Y446024*
X450101Y452701D02*
Y451495D01*
X451095Y450501*
X450101Y452701D02*
X452701Y455301D01*
X456501*
X457501Y456301*
X440301Y461199D02*
Y451891D01*
X441496Y450696*
X440301Y461199D02*
X441766Y462665D01*
X443465Y465354*
X396585Y438295D02*
X396586Y438294D01*
Y437054*
X396585Y438295D02*
Y442208D01*
X399536Y445159*
Y447995*
X401616Y450076*
Y462545*
X409544Y470472*
X416763*
X417126Y470110*
Y470039*
X410083Y433464D02*
X411002Y432545D01*
Y423532*
X413976Y420557*
Y394094*
X410083Y433464D02*
Y435298D01*
X413001Y438216*
Y440975*
X414567Y442541*
X413543Y428795D02*
Y433450D01*
X415075Y434982*
Y440046*
X418839Y443809*
X413543Y428795D02*
X416457Y425882D01*
Y404921*
X419331Y402047*
Y400000*
X422638Y396693*
Y394094*
X412756Y427962D02*
Y433782D01*
X414067Y435093*
Y440535*
X415529Y441997*
X412756Y427962D02*
X415276Y425443D01*
Y404350*
X418307Y401318*
Y394094*
X409296Y435651D02*
Y432552D01*
X409883Y431964*
Y422253*
X411713Y420424*
X409296Y435651D02*
X412195Y438550D01*
Y441674*
X413780Y443259*
Y448346*
X414331Y429548D02*
X417795Y426083D01*
Y405354*
X419331Y403819*
X424056*
X426929Y400946*
Y399134*
X414331Y429548D02*
Y433120D01*
X415953Y434742*
Y439387*
X420182Y443617*
X415118Y430301D02*
Y432791D01*
X416830Y434503*
Y438728*
X421426Y443325*
X415118Y430301D02*
X425709Y419711D01*
X425709D02*
Y410178D01*
X431299Y404588*
Y394094*
X401784Y438780D02*
Y432738D01*
X402400Y432122*
Y424134*
X401784Y438780D02*
X407362Y444357D01*
Y457874*
X410039Y460551*
X411102*
X415925Y430986D02*
Y432344D01*
X421737Y438156*
X423804*
X415925Y430986D02*
X424411Y422500D01*
X424901*
X427165Y420236*
X400984Y439480D02*
Y431920D01*
X401457Y431448*
Y424882*
X400984Y439480D02*
X406416Y444912D01*
Y458465*
X410235Y462283*
X414370*
X408724Y431620D02*
X408425Y431919D01*
Y435940*
X411332Y438847*
Y442334*
X412993Y443995*
Y447875*
X400184Y431284D02*
X400457Y431012D01*
Y425709*
X400184Y431284D02*
Y440180D01*
X405428Y445423*
Y459097*
X409677Y463346*
X413258*
X414321Y464409*
X414882*
X454528Y441535D02*
X455101Y440962D01*
Y433901*
X456901Y432101*
X458153*
X462301Y427953*
X464173*
X409904Y454528D02*
Y454689D01*
X410038Y454823*
X413091*
X416431Y451482*
X417456*
X418839Y450100*
Y443809*
X411732Y453346D02*
X412638D01*
X415529Y450456*
Y441997*
X409961Y452008D02*
X410157Y451811D01*
X412403*
X414567Y449646*
Y442541*
X442366Y430030D02*
Y428530D01*
X444085Y426811*
X445669*
X450394Y422087*
Y411249*
X457387Y404255*
X458008*
X460295Y401969*
X464173*
X445901Y446301D02*
X446101Y446501D01*
X446302Y446299*
X454701*
X459993Y441007*
Y440012*
X460005Y440000*
Y438008*
X461399Y436614*
X464173*
X443346Y449016D02*
X443465Y448937D01*
X444488Y447913*
X446750*
X447183Y447480*
X455337*
X461871Y440947*
X445901Y449501D02*
X446501D01*
X447576Y448425*
X457776*
X460926Y445276*
X464173*
X448301Y450101D02*
X448795Y449606D01*
X464173*
X451701Y452101D02*
X455575D01*
X457411Y453937*
X464173*
X451969Y427008D02*
Y427047D01*
X454175*
X455709Y425513*
Y413858*
X456654Y412913*
X460126*
X462173Y414961*
X464173*
X453583Y425551D02*
X454882Y424252D01*
Y413543*
X456299Y412126*
X460543*
X462039Y410630*
X464173*
X410843Y460618D02*
X411102Y460551D01*
X409943Y449004D02*
X410167Y448780D01*
X412088*
X412993Y447875*
X445354Y428858D02*
Y428825D01*
X445663*
X451850Y422638*
Y411811*
X457362Y406300*
X457362D02*
X463361D01*
X463361D02*
X464173Y406299D01*
X447101Y455101D02*
X450984Y458984D01*
Y460787*
X452795Y462598*
X464173*
X449301Y454701D02*
X449432Y454886D01*
Y455398*
X452301Y458268*
X464173*
X430197Y430748D02*
X436390D01*
X447087Y420052*
Y407539*
X452953Y401673*
Y394094*
X428031Y430394D02*
X429173Y429252D01*
X436102*
X445945Y419409*
Y407539*
X448622Y404862*
Y394094*
X412014Y457228D02*
Y457362D01*
X412900Y458248*
X418210*
X421426Y455032*
Y443325*
X411850Y450276D02*
X413780Y448346D01*
X432193Y463592D02*
X432227Y463626D01*
Y466207*
X427554Y465383D02*
X427709Y465238D01*
X427716Y465245*
X429176Y463901D02*
X429213Y463583D01*
X426378Y431850D02*
Y429959D01*
X428857Y427480*
X431773*
X444291Y414962*
Y394094*
X409838Y456763D02*
X410920Y455681D01*
X416226*
X416829Y455079*
X417757*
X420182Y452654*
Y443617*
X403384Y437180D02*
X404221Y438016D01*
Y439625*
X408271Y443675*
Y457506*
X409800Y459035*
X421476*
X423425Y457087*
X446969Y436575D02*
X447901Y435643D01*
Y434677*
X446969Y436575D02*
Y437677D01*
X447264Y437972*
X451969Y441929D02*
X453150Y443110D01*
X394094Y401969D02*
X399184D01*
X401969Y404753*
Y406929*
X404882Y409843*
Y419488*
X407638Y422244*
Y436425*
X410354Y439142*
Y443139*
X411496Y444280*
Y447283*
X394094Y410630D02*
X396575D01*
X397992Y412047*
Y414058*
X399134Y415199*
Y420868*
X402400Y424134*
X394094Y414961D02*
X396227D01*
X396227D02*
X396228Y414963D01*
X396620*
X397953Y416295*
Y421378*
X401457Y424882*
X394094Y419291D02*
X396248D01*
X396890Y419933*
Y422142*
X400457Y425709*
X394094Y423622D02*
X396599D01*
X399384Y426407*
Y440780*
X404411Y445806*
X404411D02*
Y459645D01*
X409174Y464408*
X412009*
X413507Y465906*
X415591*
X416710Y464786*
X416990*
X417087Y464882*
X394094Y427953D02*
X396457D01*
X397165Y428661*
Y431142*
X398584Y432561*
Y441380*
X403484Y446279*
Y460365*
X408662Y465543*
X411523*
X412673Y466693*
X415262*
X415617Y467047*
X416654*
X394094Y432283D02*
X396834D01*
X397584Y433034*
Y441780*
X402592Y446788*
X402592D02*
Y461829D01*
X410448Y469685*
X415354*
X416496Y468543*
X417913*
X418740Y467717*
X394094Y436614D02*
X396147D01*
X396586Y437054*
X394094Y440945D02*
X394870D01*
X395665Y441739*
Y442880*
X398220Y445435*
Y448109*
X400580Y450468*
Y463199*
X408960Y471580*
X417674*
X420384Y468869*
Y465900*
X421384Y464900*
X423878*
Y464944*
X394094Y445276D02*
X396371D01*
X397377Y446282*
Y448973*
X399098Y450694*
Y463487*
X408139Y472528*
X418255*
X424369Y466414*
X425477*
X425855Y466035*
Y464029*
X394094Y449606D02*
X396378D01*
X397898Y451126*
Y463741*
X407575Y473419*
X418696*
X424878Y467237*
X426774*
X427716Y466295*
Y465245*
X394094Y462598D02*
X396610D01*
X396910Y462899*
Y464335*
X406909Y474333*
X418986*
X425259Y468060*
X427556*
X429213Y466403*
Y463583*
X394094Y466929D02*
X397963D01*
X406226Y475191*
X419450*
X425493Y469149*
X428023*
X430712Y466460*
Y465389*
X430751*
X394094Y471260D02*
X400847D01*
X405664Y476077*
X420001*
X425933Y470145*
X428290*
X432227Y466207*
X443377Y460101D02*
G75*
G03X443377I-1476J0D01*
G01X425138Y407874D02*
G03X425138I-1477J0D01*
G01X442854Y410354D02*
G03X442854I-1476J0D01*
G01X462008Y425324D02*
Y426251D01*
G03X461959Y426381I-197J-0*
G01X461811Y426772D02*
G03X461959Y426381I591J-0D01*
G01X461811Y426772D02*
Y427248D01*
G03X461751Y427389I-197J-0*
G01X461744Y427396D02*
G03X461751Y427389I557J557D01*
G01X461744Y427396D02*
X457884Y431256D01*
G03X457745Y431313I-139J-139*
G01X456901*
X456344Y431544D02*
G03X456901Y431313I557J557D01*
G01X456344Y431544D02*
X454544Y433344D01*
X454313Y433901D02*
G03X454544Y433344I788J-0D01*
G01X454313Y433901D02*
Y439913D01*
G03X454165Y440104I-196J0*
G01X454653Y443006D02*
G03X454165Y440104I-125J-1471D01*
G01X454653Y443006D02*
G03X454809Y443342I17J197D01*
G01X454295Y443856*
G03X454156Y443913I-139J-139*
G01X447186*
G03X447077Y443553I-0J-196*
G01X447385Y443278D02*
G03X447077Y443553I-1125J-955D01*
G01X447386Y443278D02*
G03X447536Y443209I150J128D01*
G01X447679*
X448305Y442949D02*
G03X447679Y443209I-626J-626D01*
G01X448305Y442949D02*
X451127Y440127D01*
X451387Y439501D02*
G03X451127Y440127I-886J-0D01*
G01X451387Y439501D02*
Y434318D01*
G03X451444Y434179I196J-0*
G01X461057Y424566*
G03X461196Y424508I139J139*
G01X461196D02*
X461614D01*
G03X461811Y424705I0J197*
G01Y424803*
X461959Y425194D02*
G03X461811Y424803I443J-391D01*
G01X461959Y425194D02*
G03X462008Y425324I-148J130D01*
G01Y429835D02*
Y430582D01*
G03X461959Y430712I-197J-0*
G01X461811Y431102D02*
G03X461959Y430712I591J0D01*
G01X461811Y431102D02*
Y431347D01*
G03X461675Y431535I-197J0*
G01X461361Y431727D02*
G03X461675Y431535I557J556D01*
G01X461361Y431727D02*
X458144Y434944D01*
X457913Y435501D02*
G03X458144Y434944I788J-0D01*
G01X457913Y435501D02*
Y440156D01*
G03X457856Y440295I-196J-0*
G01X456334Y441817*
G03X455999Y441661I-139J-139*
G01X455902Y440996D02*
G03X455999Y441661I-1374J539D01*
G01X455902Y440996D02*
G03X455888Y440924I183J-72D01*
G01Y434308*
G03X455946Y434169I197J0*
G01X457169Y432946*
G03X457308Y432888I139J139*
G01X458153*
X458710Y432658D02*
G03X458153Y432888I-557J-557D01*
G01X458710Y432658D02*
X461672Y429695D01*
G03X462008Y429835I139J140*
G01Y451308D02*
Y452235D01*
G03X461959Y452365I-197J0*
G01X461811Y452756D02*
G03X461959Y452365I591J-0D01*
G01X461811Y452756D02*
Y452953D01*
G03X461614Y453150I-197J-0*
G01X457819*
G03X457680Y453092I-0J-197*
G01X456132Y451544*
X455575Y451313D02*
G03X456132Y451544I-0J788D01*
G01X455575Y451313D02*
X453054D01*
G03X452895Y451232I-0J-196*
G01X452336Y450768D02*
G03X452895Y451232I-635J1333D01*
G01X452336Y450768D02*
G03X452421Y450394I85J-177D01*
G01X461614*
G03X461811Y450591I0J197*
G01Y450787*
X461959Y451178D02*
G03X461811Y450787I443J-391D01*
G01X461959Y451178D02*
G03X462008Y451308I-148J130D01*
G01Y459970D02*
Y460896D01*
X462008D02*
G03X461959Y461027I-197J0D01*
G01X461811Y461417D02*
G03X461959Y461027I591J0D01*
G01X461811Y461417D02*
Y461614D01*
G03X461614Y461811I-197J0*
G01X453203*
G03X453064Y461753I-0J-197*
G01X451829Y460519*
G03X451772Y460380I140J-139*
G01Y459194*
G03X452035Y459009I197J0*
G01X452301Y459055D02*
G03X452035Y459009I-0J-787D01*
G01X452301Y459055D02*
X461614D01*
G03X461811Y459252I0J197*
G01Y459449*
X461959Y459839D02*
G03X461811Y459449I443J-390D01*
G01X461959Y459839D02*
G03X462008Y459970I-148J131D01*
G01X463386Y473228D02*
Y479449D01*
G03X463189Y479646I-197J-0*
G01X395551*
X395079*
G03X394882Y479449I-0J-197*
G01Y473228*
G03X395079Y473032I197J0*
G01X395866*
X396457Y472441D02*
G03X395866Y473032I-591J-0D01*
G01X396457Y472441D02*
Y472244D01*
G03X396654Y472047I197J0*
G01X400439*
G03X400578Y472105I0J197*
G01X405107Y476634*
X405664Y476864D02*
G03X405107Y476634I-0J-787D01*
G01X405664Y476864D02*
X420001D01*
X420558Y476634D02*
G03X420001Y476864I-557J-557D01*
G01X420558Y476634D02*
X426202Y470990D01*
G03X426341Y470932I139J139*
G01X428290*
X428847Y470701D02*
G03X428290Y470932I-557J-556D01*
G01X428847Y470701D02*
X432784Y466764D01*
X433015Y466207D02*
G03X432784Y466764I-788J0D01*
G01X433015Y466207D02*
Y464919D01*
G03X433092Y464763I196J0*
G01X430798Y463107D02*
G03X433092Y464763I1395J485D01*
G01X430798Y463107D02*
G03X430443Y463144I-186J-64D01*
G01X427709Y463733D02*
G03X430443Y463144I1467J168D01*
G01X427709Y463733D02*
G03X427518Y463907I-196J-23D01*
G01X427505Y463908D02*
G03X427518Y463907I49J1475D01*
G01X427505Y463908D02*
G03X427305Y463748I-7J-197D01*
G01X424513Y463415D02*
G03X427305Y463748I1342J614D01*
G01X424513Y463415D02*
G03X424280Y463523I-180J-82D01*
G01X422713Y464037D02*
G03X424280Y463523I1165J907D01*
G01X422713Y464037D02*
G03X422558Y464113I-155J-121D01*
G01X421384*
X420828Y464343D02*
G03X421384Y464113I556J557D01*
G01X420828Y464343D02*
X419827Y465343D01*
X419597Y465900D02*
G03X419827Y465343I787J0D01*
G01X419597Y465900D02*
Y466179D01*
G03X419322Y466360I-197J-0*
G01X418260Y466320D02*
G03X419322Y466360I480J1397D01*
G01X418260Y466320D02*
G03X418066Y465987I-64J-186D01*
G01X416343Y463607D02*
G03X418066Y465987I744J1275D01*
G01X416343Y463607D02*
G03X416083Y463551I-100J-170D01*
G01X415743Y463210D02*
G03X416083Y463551I-861J1199D01*
G01X415743Y463210D02*
G03X415682Y462960I114J-160D01*
G01X413176Y461415D02*
G03X415682Y462960I1194J868D01*
G01X413176Y461415D02*
G03X413017Y461496I-159J-116D01*
G01X412371*
G03X412192Y461219I0J-197*
G01X410129Y459326D02*
G03X412192Y461219I714J1292D01*
G01X410129Y459326D02*
G03X409894Y459293I-95J-172D01*
G01X409045Y458443*
G03X409261Y458122I139J-139*
G01X410568Y458047D02*
G03X409261Y458122I-730J-1284D01*
G01X410568Y458047D02*
G03X410824Y458102I97J171D01*
G01X412139Y458699D02*
G03X410824Y458102I-125J-1471D01*
G01X412139Y458699D02*
G03X412295Y458756I16J197D01*
G01X412343Y458805*
X412900Y459035D02*
G03X412343Y458805I-0J-787D01*
G01X412900Y459035D02*
X418210D01*
X418767Y458805D02*
G03X418210Y459035I-557J-557D01*
G01X418767Y458805D02*
X421983Y455588D01*
X422214Y455032D02*
G03X421983Y455588I-788J-0D01*
G01X422214Y455032D02*
Y443325D01*
X421983Y442768D02*
G03X422214Y443325I-557J557D01*
G01X421983Y442768D02*
X417675Y438460D01*
G03X417617Y438320I139J-140*
G01Y434503*
Y434469D02*
G03Y434503I-787J34D01*
G01Y434469D02*
G03X417953Y434322I196J-8D01*
G01X420641Y437010*
X421407Y437327D02*
G03X420641Y437010I-0J-1082D01*
G01X421407Y437327D02*
X434362D01*
G03X434501Y437385I-0J197*
G01X437760Y440644*
G03X437818Y440784I-139J140*
G01Y461901*
X438135Y462666D02*
G03X437818Y461901I766J-765D01*
G01X438135Y462666D02*
X438373Y462904D01*
G03X438430Y463026I-139J139*
G01X440147Y461445D02*
G03X438430Y463026I-246J1456D01*
G01X440147Y461445D02*
G03X439983Y461251I33J-194D01*
G01Y440254*
X439666Y439488D02*
G03X439983Y440254I-765J766D01*
G01X439666Y439488D02*
X435657Y435479D01*
X435655Y435477D02*
G03X435657Y435479I-763J768D01*
G01X435655Y435477D02*
G03X435794Y435140I139J-140D01*
G01X435860*
G03X435999Y435198I-0J197*
G01X440189Y439388*
X440955Y439705D02*
G03X440189Y439388I-0J-1083D01*
G01X440955Y439705D02*
X444709D01*
G03X444836Y439751I0J197*
G01Y437493D02*
G03Y439751I951J1129D01*
G01Y437493D02*
G03X444709Y437539I-127J-151D01*
G01X441485*
G03X441345Y437482I-0J-197*
G01X437156Y433292*
X436390Y432975D02*
G03X437156Y433292I-0J1082D01*
G01X436390Y432975D02*
X427771D01*
G03X427607Y432669I-0J-197*
G01X427842Y432041D02*
G03X427607Y432669I-1464J-191D01*
G01X427842Y432041D02*
G03X428036Y431870I195J26D01*
G01X428807Y431650D02*
G03X428036Y431870I-776J-1256D01*
G01X428807Y431650D02*
G03X429062Y431692I103J168D01*
G01X431391Y431617D02*
G03X429062Y431692I-1194J-869D01*
G01X431391Y431617D02*
G03X431550Y431535I159J115D01*
G01X436390*
X436947Y431305D02*
G03X436390Y431535I-557J-557D01*
G01X436947Y431305D02*
X447643Y420609D01*
X447874Y420052D02*
G03X447643Y420609I-787J-0D01*
G01X447874Y420052D02*
Y407947D01*
G03X447932Y407808I197J0*
G01X453510Y402230*
X453740Y401673D02*
G03X453510Y402230I-787J0D01*
G01X453740Y401673D02*
Y396654D01*
G03X453937Y396457I197J-0*
G01X454134*
X454524Y396309D02*
G03X454134Y396457I-390J-443D01*
G01X454524Y396309D02*
G03X454655Y396260I131J148D01*
G01X455582*
G03X455712Y396309I-0J197*
G01X456102Y396457D02*
G03X455712Y396309I0J-591D01*
G01X456102Y396457D02*
X458465D01*
X459055Y395866D02*
G03X458465Y396457I-590J0D01*
G01X459055Y395866D02*
Y395079D01*
G03X459252Y394882I197J-0*
G01X463189*
G03X463386Y395079I-0J197*
G01Y400000*
G03X463189Y400197I-197J-0*
G01X462402*
X461811Y400787D02*
G03X462402Y400197I591J0D01*
G01X461811Y400787D02*
Y400984D01*
G03X461614Y401181I-197J0*
G01X460295*
X459738Y401412D02*
G03X460295Y401181I557J557D01*
G01X459738Y401412D02*
X457739Y403410D01*
G03X457600Y403468I-139J-139*
G01X457387*
X456830Y403699D02*
G03X457387Y403468I557J556D01*
G01X456830Y403699D02*
X449837Y410692D01*
X449606Y411249D02*
G03X449837Y410692I788J-0D01*
G01X449606Y411249D02*
Y421679D01*
G03X449549Y421818I-197J-0*
G01X445401Y425966*
G03X445262Y426024I-139J-139*
G01X444085*
X443528Y426254D02*
G03X444085Y426024I557J557D01*
G01X443528Y426254D02*
X441809Y427974D01*
X441578Y428530D02*
G03X441809Y427974I788J0D01*
G01X441578Y428530D02*
Y428676D01*
G03X441497Y428836I-197J0*
G01X443836Y429901D02*
G03X441497Y428836I-1470J129D01*
G01X443836Y429901D02*
G03X444188Y429764I197J-17D01*
G01X446831Y428858D02*
G03X444188Y429764I-1477J0D01*
G01X446831Y428858D02*
Y428853D01*
X446831*
G03X446888Y428713I197J-0*
G01X452407Y423195*
X452638Y422638D02*
G03X452407Y423195I-788J-0D01*
G01X452638Y422638D02*
Y412219D01*
G03X452695Y412080I197J-0*
G01X457630Y407145*
G03X457770Y407087I140J139*
G01X461614*
G03X461811Y407284I0J197*
G01Y407480*
X461959Y407871D02*
G03X461811Y407480I443J-391D01*
G01X461959Y407871D02*
G03X462008Y408001I-148J130D01*
G01Y408928*
G03X461959Y409058I-197J-0*
G01X461811Y409449D02*
G03X461959Y409058I591J-0D01*
G01X461811Y409449D02*
Y409742D01*
G03X461699Y409920I-197J0*
G01X461483Y410073D02*
G03X461699Y409920I556J557D01*
G01X461483Y410073D02*
X460275Y411281D01*
G03X460136Y411339I-139J-139*
G01X456299*
X455742Y411569D02*
G03X456299Y411339I557J557D01*
G01X455742Y411569D02*
X454325Y412987D01*
X454094Y413543D02*
G03X454325Y412987I788J0D01*
G01X454094Y413543D02*
Y423844D01*
G03X454037Y423983I-196J0*
G01X453983Y424038*
G03X453813Y424093I-140J-140*
G01X452119Y425361D02*
G03X453813Y424093I1464J190D01*
G01X452119Y425361D02*
G03X451929Y425532I-196J-26D01*
G01X453136Y427911D02*
G03X451929Y425532I-1167J-903D01*
G01X453136Y427911D02*
G03X453292Y427835I156J121D01*
G01X454175*
X454731Y427604D02*
G03X454175Y427835I-556J-557D01*
G01X454731Y427604D02*
X456265Y426070D01*
X456496Y425513D02*
G03X456265Y426070I-787J0D01*
G01X456496Y425513D02*
Y414266D01*
G03X456554Y414127I197J-0*
G01X456922Y413758*
G03X457061Y413701I139J140*
G01X459718*
G03X459857Y413758I0J197*
G01X461616Y415517*
X461726Y415609D02*
G03X461616Y415517I447J-648D01*
G01X461726Y415609D02*
G03X461811Y415771I-112J162D01*
G01Y416142*
X462402Y416732D02*
G03X461811Y416142I-0J-590D01*
G01X462402Y416732D02*
X463189D01*
G03X463386Y416929I-0J197*
G01Y421654*
G03X463189Y421850I-197J-0*
G01X462402*
X461811Y422441D02*
G03X462402Y421850I591J-0D01*
G01X461811Y422441D02*
Y422539D01*
G03X461614Y422736I-197J0*
G01X460748*
X460122Y422996D02*
G03X460748Y422736I626J626D01*
G01X460122Y422996D02*
X449874Y433243D01*
X449615Y433869D02*
G03X449874Y433243I886J0D01*
G01X449615Y433869D02*
Y439052D01*
G03X449557Y439192I-197J0*
G01X447525Y441224*
G03X447253Y441231I-139J-139*
G01X445443Y443553D02*
G03X447253Y441231I817J-1230D01*
G01X445443Y443553D02*
G03X445334Y443913I-109J164D01*
G01X444701*
X444144Y444144D02*
G03X444701Y443913I557J557D01*
G01X444144Y444144D02*
X443796Y444492D01*
G03X443667Y444549I-139J-140*
G01X442934Y447260D02*
G03X443667Y444549I806J-1236D01*
G01X442934Y447260D02*
G03X442888Y447612I-108J165D01*
G01X444300Y450143D02*
G03X442888Y447612I-954J-1127D01*
G01X444300Y450143D02*
G03X444600Y450200I127J150D01*
G01X446718Y450730D02*
G03X444600Y450200I-817J-1229D01*
G01X446718Y450730D02*
G03X447001Y450801I109J164D01*
G01X449713Y450533D02*
G03X447001Y450801I-1412J-432D01*
G01X449713Y450533D02*
G03X449901Y450394I188J58D01*
G01X450980*
G03X451065Y450768I0J197*
G01X452895Y452969D02*
G03X451065Y450768I-1194J-868D01*
G01X452895Y452969D02*
G03X453054Y452888I159J116D01*
G01X455167*
G03X455306Y452946I0J197*
G01X456854Y454494*
X457411Y454724D02*
G03X456854Y454494I0J-787D01*
G01X457411Y454724D02*
X461614D01*
G03X461811Y454921I0J197*
G01Y455118*
X461959Y455509D02*
G03X461811Y455118I443J-391D01*
G01X461959Y455509D02*
G03X462008Y455639I-148J130D01*
G01Y456566*
G03X461959Y456696I-197J-0*
G01X461811Y457087D02*
G03X461959Y456696I591J-0D01*
G01X461811Y457087D02*
Y457283D01*
G03X461614Y457480I-197J0*
G01X452708*
G03X452569Y457423I0J-197*
G01X450683Y455536*
G03X450643Y455315I139J-139*
G01X448134Y453797D02*
G03X450643Y455315I1167J904D01*
G01X448134Y453797D02*
G03X447875Y453844I-156J-121D01*
G01X445734Y454542D02*
G03X447875Y453844I1367J559D01*
G01X445734Y454542D02*
G03X445381Y454566I-182J-74D01*
G01X445467Y455859D02*
G03X445381Y454566I-1366J-558D01*
G01X445467Y455859D02*
G03X445820Y455836I183J75D01*
G01X447331Y456559D02*
G03X445820Y455836I-230J-1458D01*
G01X447331Y456559D02*
G03X447501Y456614I31J195D01*
G01X450139Y459253*
G03X450197Y459392I-139J139*
G01Y460787*
X450427Y461344D02*
G03X450197Y460787I557J-557D01*
G01X450427Y461344D02*
X452238Y463155D01*
X452795Y463386D02*
G03X452238Y463155I0J-788D01*
G01X452795Y463386D02*
X461614D01*
G03X461811Y463583I0J197*
G01Y463780*
X461959Y464170D02*
G03X461811Y463780I443J-390D01*
G01X461959Y464170D02*
G03X462008Y464300I-148J130D01*
G01Y465227*
G03X461959Y465357I-197J0*
G01X461811Y465748D02*
G03X461959Y465357I591J0D01*
G01X461811Y465748D02*
Y468110D01*
X461959Y468501D02*
G03X461811Y468110I443J-391D01*
G01X461959Y468501D02*
G03X462008Y468631I-148J130D01*
G01Y469558*
G03X461959Y469688I-197J-0*
G01X461811Y470079D02*
G03X461959Y469688I591J-0D01*
G01X461811Y470079D02*
Y472441D01*
X462402Y473032D02*
G03X461811Y472441I-0J-591D01*
G01X462402Y473032D02*
X463189D01*
G03X463386Y473228I-0J196*
G01X418051Y444217D02*
Y449692D01*
G03X417994Y449831I-197J0*
G01X417188Y450637*
G03X417048Y450695I-140J-139*
G01X416512*
G03X416316Y450490I0J-197*
G01Y450456D02*
G03Y450490I-787J0D01*
G01Y450456D02*
Y442876D01*
G03X416652Y442736I197J-0*
G01X417994Y444078*
X417994D02*
G03X418051Y444217I-140J139D01*
G01X413189Y396654D02*
Y420149D01*
G03X413131Y420289I-197J0*
G01X412836Y420584*
G03X412500Y420440I-139J-139*
G01Y420424D02*
G03Y420440I-787J-0D01*
G01Y420424D02*
Y403996D01*
X412270Y403440D02*
G03X412500Y403996I-557J556D01*
G01X412270Y403440D02*
X410491Y401661D01*
G03X410433Y401521I139J-140*
G01Y396654*
G03X410630Y396457I197J-0*
G01X410827*
X411217Y396309D02*
G03X410827Y396457I-390J-443D01*
G01X411217Y396309D02*
G03X411348Y396260I131J148D01*
G01X412274*
G03X412405Y396309I0J197*
G01X412795Y396457D02*
G03X412405Y396309I0J-591D01*
G01X412795Y396457D02*
X412992D01*
G03X413189Y396654I0J197*
G01X414488Y421634D02*
Y425035D01*
G03X414431Y425174I-197J-0*
G01X412199Y427406*
X412140Y427472D02*
G03X412199Y427406I616J490D01*
G01X412140Y427472D02*
G03X411789Y427349I-154J-123D01*
G01Y423939*
G03X411847Y423800I197J0*
G01X414152Y421495*
G03X414488Y421634I139J139*
G01X419395Y451132D02*
Y452246D01*
G03X419337Y452385I-197J0*
G01X417489Y454234*
G03X417350Y454291I-139J-140*
G01X416829*
X416272Y454522D02*
G03X416829Y454291I557J557D01*
G01X416272Y454522D02*
X415958Y454836D01*
G03X415819Y454894I-139J-139*
G01X414609*
G03X414469Y454558I-0J-197*
G01X416700Y452327*
G03X416839Y452270I139J139*
G01X417456*
X418013Y452039D02*
G03X417456Y452270I-557J-557D01*
G01X418013Y452039D02*
X419059Y450993D01*
G03X419395Y451132I139J139*
G01X420639Y453786D02*
Y454624D01*
G03X420581Y454763I-197J-0*
G01X417941Y457403*
G03X417802Y457461I-139J-139*
G01X413687*
G03X413490Y457260I-0J-197*
G01X413404Y456732D02*
G03X413490Y457260I-1390J496D01*
G01X413404Y456732D02*
G03X413590Y456468I186J-67D01*
G01X416226*
X416783Y456238D02*
G03X416226Y456468I-557J-557D01*
G01X416783Y456238D02*
X417097Y455924D01*
G03X417237Y455866I140J139*
G01X417757*
X418314Y455636D02*
G03X417757Y455866I-557J-557D01*
G01X418314Y455636D02*
X420303Y453647D01*
G03X420639Y453786I139J139*
G01X410925Y404404D02*
Y420016D01*
G03X410868Y420155I-196J-0*
G01X409663Y421360*
G03X409364Y421336I-139J-139*
G01X409280Y421238D02*
G03X409364Y421336I-556J557D01*
G01X409281Y421238D02*
X408970Y420927D01*
G03X409080Y420594I139J-139*
G01X407399Y418912D02*
G03X409080Y420594I1459J222D01*
G01X407399Y418912D02*
G03X407065Y419022I-195J-29D01*
G01X406790Y418747*
G03X406732Y418608I139J-139*
G01Y409364*
X406502Y408808D02*
G03X406732Y409364I-557J556D01*
G01X406502Y408808D02*
X406048Y408354D01*
G03X405990Y408214I139J-140*
G01Y396654*
G03X406187Y396457I197J-0*
G01X406496*
X406887Y396309D02*
G03X406496Y396457I-391J-443D01*
G01X406887Y396309D02*
G03X407017Y396260I130J148D01*
G01X407944*
G03X408074Y396309I-0J197*
G01X408465Y396457D02*
G03X408074Y396309I-0J-591D01*
G01X408465Y396457D02*
X408661D01*
G03X408858Y396654I0J197*
G01Y401929*
X409089Y402486D02*
G03X408858Y401929I557J-557D01*
G01X409089Y402486D02*
X410868Y404265D01*
G03X410925Y404404I-139J139*
G01X413279Y435501D02*
Y436906D01*
G03X412943Y437045I-197J-0*
G01X410928Y435030*
G03X410871Y434891I140J-139*
G01Y433871*
G03X410928Y433732I197J0*
G01X411559Y433102*
X411618Y433036D02*
G03X411559Y433102I-616J-491D01*
G01X411618Y433036D02*
G03X411968Y433158I154J122D01*
G01Y433782*
X412199Y434339D02*
G03X411968Y433782I557J-557D01*
G01X412199Y434339D02*
X413222Y435362D01*
G03X413279Y435501I-140J139*
G01X408414Y438315D02*
G03X408228Y438645I-139J139D01*
G01X408142Y438627D02*
G03X408228Y438645I-268J1452D01*
G01X408142Y438627D02*
G03X408038Y438572I35J-194D01*
G01X406908Y437442*
G03X406850Y437303I139J-139*
G01Y437227*
G03X407186Y437088I197J-0*
G01X408414Y438315*
X404415Y396654D02*
Y407787D01*
G03X404079Y407926I-197J-0*
G01X402814Y406661*
G03X402756Y406521I139J-140*
G01Y404753*
X402525Y404196D02*
G03X402756Y404753I-556J557D01*
G01X402525Y404196D02*
X399741Y401412D01*
X399184Y401181D02*
G03X399741Y401412I0J788D01*
G01X399184Y401181D02*
X396654D01*
G03X396457Y400984I-0J-197*
G01Y400787*
X395866Y400197D02*
G03X396457Y400787I0J590D01*
G01X395866Y400197D02*
X395079D01*
G03X394882Y400000I-0J-197*
G01Y395079*
G03X395079Y394882I197J-0*
G01X399016*
G03X399213Y395079I-0J197*
G01Y395866*
X399803Y396457D02*
G03X399213Y395866I0J-591D01*
G01X399803Y396457D02*
X402165D01*
X402556Y396309D02*
G03X402165Y396457I-391J-443D01*
G01X402556Y396309D02*
G03X402686Y396260I130J148D01*
G01X403613*
G03X403743Y396309I0J197*
G01X404134Y396457D02*
G03X403743Y396309I-0J-591D01*
G01X404134Y396457D02*
X404218D01*
G03X404415Y396654I0J197*
G01X404094Y410250D02*
Y411873D01*
G03X403723Y411964I-196J0*
G01X403512Y411678D02*
G03X403723Y411964I-835J835D01*
G01X403512Y411678D02*
X397299Y405464D01*
X396607Y405127D02*
G03X397299Y405464I-143J1172D01*
G01X396607Y405127D02*
G03X396440Y404978I24J-196D01*
G01X396309Y404727D02*
G03X396440Y404978I-443J391D01*
G01X396309Y404727D02*
G03X396260Y404597I148J-130D01*
G01Y403670*
G03X396309Y403540I197J0*
G01X396457Y403150D02*
G03X396309Y403540I-591J-0D01*
G01X396457Y403150D02*
Y402953D01*
G03X396654Y402756I197J-0*
G01X398777*
G03X398916Y402814I-0J197*
G01X401123Y405021*
G03X401181Y405160I-139J139*
G01Y406929*
X401412Y407486D02*
G03X401181Y406929I557J-557D01*
G01X401412Y407486D02*
X404037Y410111D01*
G03X404094Y410250I-139J139*
G01X410709Y444688D02*
Y445930D01*
G03X410628Y446090I-197J0*
G01X410020Y447329D02*
G03X410628Y446090I1476J-46D01*
G01X410020Y447329D02*
G03X409838Y447532I-196J6D01*
G01X408534Y448562D02*
G03X409838Y447532I1409J442D01*
G01X408534Y448562D02*
G03X408149Y448503I-188J-59D01*
G01Y444357*
X407919Y443800D02*
G03X408149Y444357I-557J557D01*
G01X407919Y443800D02*
X402629Y438511D01*
G03X402572Y438372I140J-139*
G01Y433145*
G03X402629Y433006I197J0*
G01X402957Y432679*
X403187Y432122D02*
G03X402957Y432679I-787J-0D01*
G01X403187Y432122D02*
Y424134D01*
X402957Y423577D02*
G03X403187Y424134I-557J557D01*
G01X402957Y423577D02*
X399979Y420599D01*
G03X399921Y420460I139J-139*
G01Y415199*
X399691Y414642D02*
G03X399921Y415199I-557J557D01*
G01X399691Y414642D02*
X398837Y413789D01*
G03X398780Y413650I139J-139*
G01Y412047*
X398549Y411490D02*
G03X398780Y412047I-557J557D01*
G01X398549Y411490D02*
X397132Y410073D01*
X396638Y409845D02*
G03X397132Y410073I-63J785D01*
G01X396638Y409845D02*
G03X396457Y409649I16J-196D01*
G01Y409449*
X396309Y409058D02*
G03X396457Y409449I-443J391D01*
G01X396309Y409058D02*
G03X396260Y408928I148J-130D01*
G01Y408241*
G03X396596Y408102I197J0*
G01X401438Y412944*
G03X401496Y413084I-139J140*
G01Y420394*
X401842Y421229D02*
G03X401496Y420394I835J-835D01*
G01X401842Y421229D02*
X404431Y423817D01*
G03X404488Y423957I-140J140*
G01Y437874*
X404834Y438709D02*
G03X404488Y437874I835J-835D01*
G01X404834Y438709D02*
X406368Y440243D01*
G03X406422Y440346I-140J139*
G01X409194Y440740D02*
G03X406422Y440346I-1320J-661D01*
G01X409194Y440740D02*
G03X409567Y440828I176J88D01*
G01Y443139*
X409798Y443695D02*
G03X409567Y443139I556J-556D01*
G01X409798Y443695D02*
X410651Y444549D01*
G03X410709Y444688I-139J139*
G01X409299Y450333D02*
G03X409302Y450687I-85J178D01*
G01X408536Y451620D02*
G03X409302Y450687I1425J388D01*
G01X408536Y451620D02*
G03X408149Y451568I-190J-52D01*
G01Y449506*
G03X408534Y449447I197J-0*
G01X409299Y450333D02*
G03X408534Y449447I644J-1329D01*
G01X408965Y453098D02*
G03X408958Y453395I-133J145D01*
G01X408529Y453990D02*
G03X408958Y453395I1375J538D01*
G01X408529Y453990D02*
G03X408149Y453918I-183J-72D01*
G01Y452447*
G03X408536Y452396I197J0*
G01X408965Y453098D02*
G03X408536Y452396I996J-1090D01*
G01X417520Y396654D02*
Y400911D01*
G03X417462Y401050I-197J-0*
G01X415100Y403412*
G03X414764Y403273I-139J-139*
G01Y396654*
G03X414961Y396457I197J-0*
G01X415157*
X415548Y396309D02*
G03X415157Y396457I-391J-443D01*
G01X415548Y396309D02*
G03X415678Y396260I130J148D01*
G01X416605*
G03X416735Y396309I0J197*
G01X417126Y396457D02*
G03X416735Y396309I-0J-591D01*
G01X417126Y396457D02*
X417323D01*
G03X417520Y396654I-0J197*
G01X426142Y399134D02*
Y400538D01*
G03X426084Y400678I-197J0*
G01X423788Y402974*
G03X423649Y403031I-139J-139*
G01X419935*
G03X419796Y402695I0J-196*
G01X419888Y402604*
X420118Y402047D02*
G03X419887Y402604I-787J0D01*
G01X420118Y402047D02*
Y400408D01*
G03X420176Y400269I197J-0*
G01X423195Y397250*
X423425Y396693D02*
G03X423195Y397250I-787J-0D01*
G01X423425Y396693D02*
Y396654D01*
G03X423622Y396457I197J-0*
G01X423819*
X424210Y396309D02*
G03X423819Y396457I-391J-443D01*
G01X424210Y396309D02*
G03X424340Y396260I130J148D01*
G01X425267*
G03X425397Y396309I-0J197*
G01X425787Y396457D02*
G03X425397Y396309I0J-591D01*
G01X425787Y396457D02*
X425945D01*
G03X426142Y396654I-0J197*
G01Y399134*
X430512Y396654D02*
Y404180D01*
G03X430454Y404319I-197J0*
G01X425152Y409621*
X424921Y410178D02*
G03X425152Y409621I788J0D01*
G01X424921Y410178D02*
Y411454D01*
G03X424613Y411616I-197J-0*
G01Y414053D02*
G03Y411616I-833J-1218D01*
G01Y414053D02*
G03X424921Y414216I111J163D01*
G01Y416388*
G03X424618Y416554I-197J0*
G01Y419037D02*
G03Y416554I-799J-1242D01*
G01Y419037D02*
G03X424921Y419202I106J165D01*
G01Y419303*
G03X424864Y419442I-197J-0*
G01X418919Y425387*
G03X418583Y425248I-139J-139*
G01Y405762*
G03X418640Y405623I197J0*
G01X419599Y404664*
G03X419738Y404606I139J139*
G01X424056*
X424613Y404376D02*
G03X424056Y404606I-557J-557D01*
G01X424613Y404376D02*
X427486Y401503D01*
X427717Y400946D02*
G03X427486Y401503I-788J0D01*
G01X427717Y400946D02*
Y399370D01*
G03X427724Y399315I196J0*
G01X427756Y399094D02*
G03X427724Y399315I-787J0D01*
G01X427756Y399094D02*
Y396654D01*
G03X427953Y396457I197J-0*
G01X428150*
X428540Y396309D02*
G03X428150Y396457I-390J-443D01*
G01X428540Y396309D02*
G03X428670Y396260I130J148D01*
G01X429597*
G03X429727Y396309I0J197*
G01X430118Y396457D02*
G03X429727Y396309I0J-591D01*
G01X430118Y396457D02*
X430315D01*
G03X430512Y396654I-0J197*
G01X423116Y466208D02*
G03X423153Y466516I-102J169D01*
G01X421508Y468161*
G03X421172Y468022I-139J-139*
G01Y466308*
G03X421229Y466169I197J-0*
G01X421653Y465745*
G03X421792Y465687I139J139*
G01X422494*
G03X422657Y465774I0J197*
G01X423116Y466208D02*
G03X422657Y465774I762J-1264D01*
G01X408777Y455482D02*
G03X408769Y455745I-150J127D01*
G01X408522Y456094D02*
G03X408769Y455745I1316J669D01*
G01X408522Y456094D02*
G03X408149Y456005I-176J-89D01*
G01Y455138*
G03X408529Y455067I197J0*
G01X408777Y455482D02*
G03X408529Y455067I1127J-954D01*
G01X415586Y468067D02*
G03X415583Y468343I-142J136D01*
G01X415086Y468840*
G03X414947Y468898I-139J-139*
G01X410855*
G03X410716Y468840I0J-197*
G01X408543Y466666*
G03X408682Y466330I139J-139*
G01X411115*
G03X411254Y466388I-0J197*
G01X412116Y467250*
X412673Y467480D02*
G03X412116Y467250I-0J-787D01*
G01X412673Y467480D02*
X414854D01*
G03X414994Y467538I0J197*
G01X415060Y467604*
X415325Y467779D02*
G03X415060Y467604I292J-732D01*
G01X415325Y467779D02*
G03X415417Y467854I-73J183D01*
G01X415586Y468067D02*
G03X415417Y467854I1068J-1020D01*
G01X401805Y447195D02*
Y448675D01*
G03X401469Y448815I-197J0*
G01X400381Y447726*
G03X400323Y447587I139J-139*
G01Y446107*
G03X400659Y445968I197J0*
G01X401747Y447056*
G03X401805Y447195I-139J139*
G01X447835Y396654D02*
Y404455D01*
G03X447777Y404594I-197J-0*
G01X445415Y406956*
G03X445079Y406817I-139J-139*
G01Y396654*
G03X445276Y396457I197J-0*
G01X445472*
X445863Y396309D02*
G03X445472Y396457I-391J-443D01*
G01X445863Y396309D02*
G03X445993Y396260I130J148D01*
G01X446920*
G03X447050Y396309I0J197*
G01X447441Y396457D02*
G03X447050Y396309I-0J-591D01*
G01X447441Y396457D02*
X447638D01*
G03X447835Y396654I-0J197*
G01X443504Y406143D02*
Y414554D01*
G03X443446Y414693I-197J0*
G01X443075Y415065*
G03X442743Y414967I-140J-139*
G01X440991Y416719D02*
G03X442743Y414967I308J-1443D01*
G01X440991Y416719D02*
G03X441089Y417051I-42J193D01*
G01X431504Y426635*
G03X431365Y426693I-139J-139*
G01X428857*
X428300Y426924D02*
G03X428857Y426693I557J556D01*
G01X428300Y426924D02*
X425821Y429403D01*
X425591Y429959D02*
G03X425821Y429403I787J0D01*
G01X425591Y429959D02*
Y430497D01*
G03X425509Y430656I-197J0*
G01X424935Y432161D02*
G03X425509Y430656I1443J-311D01*
G01X424935Y432161D02*
G03X424603Y432342I-193J42D01*
G01X423144Y430883*
G03X423087Y430731I140J-139*
G01X420176Y430296D02*
G03X423087Y430731I1438J334D01*
G01X420176Y430296D02*
G03X419945Y430444I-192J-45D01*
G01X418732Y430730D02*
G03X419945Y430444I914J1160D01*
G01X418732Y430730D02*
G03X418468Y430711I-122J-155D01*
G01X416576Y430508D02*
G03X418468Y430711I826J1224D01*
G01X416576Y430508D02*
G03X416327Y430206I-110J-163D01*
G01X426265Y420267*
X426496Y419711D02*
G03X426265Y420267I-787J-0D01*
G01X426496Y419711D02*
Y410586D01*
G03X426554Y410447I197J-0*
G01X431856Y405145*
X432087Y404588D02*
G03X431856Y405145I-788J-0D01*
G01X432087Y404588D02*
Y396654D01*
G03X432283Y396457I196J-0*
G01X432480*
X433071Y395866D02*
G03X432480Y396457I-591J0D01*
G01X433071Y395866D02*
Y395079D01*
G03X433268Y394882I197J-0*
G01X437992*
G03X438189Y395079I0J197*
G01Y395866*
X438632Y396438D02*
G03X438189Y395866I148J-572D01*
G01X438632Y396438D02*
G03X438780Y396629I-49J191D01*
G01Y400787*
G03X438722Y400927I-197J0*
G01X429070Y410578*
X428724Y411413D02*
G03X429070Y410578I1181J0D01*
G01X428724Y411413D02*
Y419932D01*
G03X428667Y420071I-197J0*
G01X425264Y423474*
X424918Y424309D02*
G03X425264Y423474I1182J-0D01*
G01X424918Y424309D02*
Y424346D01*
G03X424884Y424457I-196J-0*
G01X427478Y424766D02*
G03X424884Y424457I-1378J529D01*
G01X427478Y424766D02*
G03X427523Y424556I184J-71D01*
G01X430741Y421338*
X431087Y420503D02*
G03X430741Y421338I-1182J-0D01*
G01X431087Y420503D02*
Y411984D01*
G03X431144Y411845I196J0*
G01X440796Y402193*
X441142Y401358D02*
G03X440796Y402193I-1181J0D01*
G01X441142Y401358D02*
Y396629D01*
G03X441289Y396438I197J-0*
G01X441532Y396309D02*
G03X441289Y396438I-390J-443D01*
G01X441532Y396309D02*
G03X441663Y396260I131J148D01*
G01X442589*
G03X442720Y396309I0J197*
G01X443110Y396457D02*
G03X442720Y396309I0J-591D01*
G01X443110Y396457D02*
X443307D01*
G03X443504Y396654I0J197*
G01Y404644*
G03X443131Y404732I-197J0*
G01Y406055D02*
G03Y404732I-1320J-661D01*
G01Y406055D02*
G03X443504Y406143I176J88D01*
G01X445157Y415685D02*
Y419002D01*
G03X445100Y419141I-196J-0*
G01X435834Y428407*
G03X435695Y428465I-139J-139*
G01X432364*
G03X432245Y428110I-0J-197*
G01X432330Y428037D02*
G03X432245Y428110I-557J-557D01*
G01X432330Y428037D02*
X444821Y415545D01*
G03X445157Y415685I140J140*
G01X452165Y396654D02*
Y401266D01*
G03X452108Y401405I-197J-0*
G01X449746Y403767*
G03X449409Y403628I-140J-139*
G01Y396654*
G03X449606Y396457I197J-0*
G01X449803*
X450194Y396309D02*
G03X449803Y396457I-391J-443D01*
G01X450194Y396309D02*
G03X450324Y396260I130J148D01*
G01X451251*
G03X451381Y396309I-0J197*
G01X451772Y396457D02*
G03X451381Y396309I-0J-591D01*
G01X451772Y396457D02*
X451968D01*
G03X452165Y396654I0J197*
G01X443377Y460101D02*
G03X443377I-1476J0D01*
G01X425138Y407874D02*
G03X425138I-1477J0D01*
G01X442854Y410354D02*
G03X442854I-1476J0D01*
G01X449409Y401259D02*
X452165D01*
X449409Y400904D02*
X452165D01*
X449409Y400550D02*
X452165D01*
X449409Y400196D02*
X452165D01*
X449409Y399841D02*
X452165D01*
X449409Y399487D02*
X452165D01*
X449409Y399133D02*
X452165D01*
X449409Y398778D02*
X452165D01*
X449409Y398424D02*
X452165D01*
X449409Y398070D02*
X452165D01*
X449409Y397715D02*
X452165D01*
X449409Y397361D02*
X452165D01*
X449409Y397007D02*
X452165D01*
X449409Y396652D02*
X452165D01*
X449409Y401613D02*
X451900D01*
X449409Y401967D02*
X451545D01*
X450208Y396298D02*
X451367D01*
X449409Y402322D02*
X451191D01*
X449409Y402676D02*
X450837D01*
X449409Y403030D02*
X450482D01*
X449409Y403385D02*
X450128D01*
X449444Y403739D02*
X449774D01*
X441392Y418975D02*
X445157D01*
X441746Y418621D02*
X445157D01*
X442100Y418266D02*
X445157D01*
X442455Y417912D02*
X445157D01*
X442809Y417558D02*
X445157D01*
X443163Y417203D02*
X445157D01*
X443518Y416849D02*
X445157D01*
X443872Y416495D02*
X445157D01*
X444226Y416140D02*
X445157D01*
X444581Y415786D02*
X445157D01*
X441037Y419329D02*
X444911D01*
X440683Y419684D02*
X444557D01*
X440329Y420038D02*
X444203D01*
X439974Y420392D02*
X443848D01*
X439620Y420747D02*
X443494D01*
X439266Y421101D02*
X443140D01*
X438911Y421455D02*
X442785D01*
X438557Y421810D02*
X442431D01*
X438203Y422164D02*
X442077D01*
X437848Y422518D02*
X441722D01*
X437494Y422873D02*
X441368D01*
X437140Y423227D02*
X441014D01*
X436785Y423581D02*
X440659D01*
X436431Y423936D02*
X440305D01*
X436077Y424290D02*
X439951D01*
X435722Y424644D02*
X439596D01*
X435368Y424999D02*
X439242D01*
X435014Y425353D02*
X438888D01*
X434660Y425707D02*
X438533D01*
X434305Y426062D02*
X438179D01*
X433951Y426416D02*
X437825D01*
X433597Y426770D02*
X437470D01*
X433242Y427125D02*
X437116D01*
X432888Y427479D02*
X436762D01*
X432534Y427833D02*
X436407D01*
X432184Y428188D02*
X436053D01*
X442464Y414369D02*
X443504D01*
X442067Y414014D02*
X443504D01*
X431087Y413660D02*
X443504D01*
X431087Y413306D02*
X443504D01*
X431087Y412951D02*
X443504D01*
X431087Y412597D02*
X443504D01*
X431087Y412243D02*
X443504D01*
X431111Y411888D02*
X443504D01*
X442266Y411534D02*
X443504D01*
X442602Y411180D02*
X443504D01*
X442777Y410825D02*
X443504D01*
X442850Y410471D02*
X443504D01*
X442835Y410117D02*
X443504D01*
X442731Y409762D02*
X443504D01*
X442511Y409408D02*
X443504D01*
X442077Y409054D02*
X443504D01*
X434290Y408699D02*
X443504D01*
X434644Y408345D02*
X443504D01*
X434998Y407991D02*
X443504D01*
X435353Y407636D02*
X443504D01*
X435707Y407282D02*
X443504D01*
X436061Y406928D02*
X443504D01*
X442699Y406573D02*
X443504D01*
X443035Y406219D02*
X443504D01*
X442944Y404448D02*
X443504D01*
X442510Y404093D02*
X443504D01*
X439250Y403739D02*
X443504D01*
X439605Y403385D02*
X443504D01*
X439959Y403030D02*
X443504D01*
X440313Y402676D02*
X443504D01*
X440668Y402322D02*
X443504D01*
X440973Y401967D02*
X443504D01*
X441114Y401613D02*
X443504D01*
X441142Y401259D02*
X443504D01*
X441142Y400904D02*
X443504D01*
X441142Y400550D02*
X443504D01*
X441142Y400196D02*
X443504D01*
X441142Y399841D02*
X443504D01*
X441142Y399487D02*
X443504D01*
X441142Y399133D02*
X443504D01*
X441142Y398778D02*
X443504D01*
X441142Y398424D02*
X443504D01*
X441142Y398070D02*
X443504D01*
X441142Y397715D02*
X443504D01*
X441142Y397361D02*
X443504D01*
X441142Y397007D02*
X443504D01*
X441142Y396652D02*
X443504D01*
X443189Y404802D02*
X443425D01*
X442668Y414723D02*
X443417D01*
X442810Y415077D02*
X443061D01*
X441546Y396298D02*
X442706D01*
X431087Y416849D02*
X441136D01*
X438896Y404093D02*
X441112D01*
X431087Y417203D02*
X440936D01*
X436416Y406573D02*
X440923D01*
X433935Y409054D02*
X440679D01*
X438542Y404448D02*
X440678D01*
X436770Y406219D02*
X440587D01*
X431087Y417558D02*
X440582D01*
X431087Y414014D02*
X440532D01*
X431455Y411534D02*
X440490D01*
X431087Y416495D02*
X440467D01*
X438187Y404802D02*
X440458D01*
X437124Y405865D02*
X440412D01*
X437833Y405156D02*
X440354D01*
X437479Y405510D02*
X440339D01*
X433581Y409408D02*
X440245D01*
X431087Y417912D02*
X440228D01*
X431809Y411180D02*
X440154D01*
X431087Y414369D02*
X440134D01*
X431087Y416140D02*
X440103D01*
X433227Y409762D02*
X440025D01*
X432164Y410825D02*
X439979D01*
X431087Y414723D02*
X439930D01*
X432872Y410117D02*
X439921D01*
X431087Y415786D02*
X439914D01*
X432518Y410471D02*
X439906D01*
X431087Y418266D02*
X439873D01*
X431087Y415077D02*
X439836D01*
X431087Y415432D02*
X439831D01*
X431087Y418621D02*
X439519D01*
X431087Y418975D02*
X439165D01*
X431087Y419329D02*
X438810D01*
X432087Y400550D02*
X438780D01*
X432087Y400196D02*
X438780D01*
X432087Y399841D02*
X438780D01*
X432087Y399487D02*
X438780D01*
X432087Y399133D02*
X438780D01*
X432087Y398778D02*
X438780D01*
X432087Y398424D02*
X438780D01*
X432087Y398070D02*
X438780D01*
X432087Y397715D02*
X438780D01*
X432087Y397361D02*
X438780D01*
X432087Y397007D02*
X438780D01*
X432087Y396652D02*
X438780D01*
X432087Y400904D02*
X438741D01*
X431087Y419684D02*
X438456D01*
X432087Y401259D02*
X438390D01*
X432883Y396298D02*
X438377D01*
X433066Y395944D02*
X438194D01*
X433071Y395589D02*
X438189D01*
X433071Y395235D02*
X438189D01*
X431087Y420038D02*
X438102D01*
X432087Y401613D02*
X438036D01*
X431087Y420392D02*
X437747D01*
X432087Y401967D02*
X437681D01*
X431061Y420747D02*
X437393D01*
X432087Y402322D02*
X437327D01*
X430924Y421101D02*
X437039D01*
X432087Y402676D02*
X436973D01*
X430623Y421455D02*
X436684D01*
X432087Y403030D02*
X436618D01*
X430269Y421810D02*
X436330D01*
X432087Y403385D02*
X436264D01*
X429915Y422164D02*
X435976D01*
X432087Y403739D02*
X435910D01*
X429560Y422518D02*
X435621D01*
X432087Y404093D02*
X435555D01*
X429206Y422873D02*
X435267D01*
X432087Y404448D02*
X435201D01*
X428852Y423227D02*
X434913D01*
X432057Y404802D02*
X434847D01*
X428497Y423581D02*
X434558D01*
X431844Y405156D02*
X434492D01*
X428143Y423936D02*
X434204D01*
X431490Y405510D02*
X434138D01*
X427789Y424290D02*
X433850D01*
X431136Y405865D02*
X433784D01*
X427472Y424644D02*
X433495D01*
X430781Y406219D02*
X433429D01*
X427546Y424999D02*
X433141D01*
X430427Y406573D02*
X433075D01*
X427575Y425353D02*
X432787D01*
X430073Y406928D02*
X432721D01*
X427517Y425707D02*
X432432D01*
X429718Y407282D02*
X432366D01*
X427361Y426062D02*
X432078D01*
X429364Y407636D02*
X432012D01*
X427060Y426416D02*
X431724D01*
X429010Y407991D02*
X431658D01*
X428655Y408345D02*
X431303D01*
X428301Y408699D02*
X430949D01*
X427947Y409054D02*
X430595D01*
X427592Y409408D02*
X430240D01*
X427238Y409762D02*
X429886D01*
X426884Y410117D02*
X429532D01*
X426533Y410471D02*
X429177D01*
X426496Y410825D02*
X428881D01*
X426496Y411180D02*
X428748D01*
X426496Y419684D02*
X428724D01*
X426496Y419329D02*
X428724D01*
X426496Y418975D02*
X428724D01*
X426496Y418621D02*
X428724D01*
X426496Y418266D02*
X428724D01*
X426496Y417912D02*
X428724D01*
X426496Y417558D02*
X428724D01*
X426496Y417203D02*
X428724D01*
X426496Y416849D02*
X428724D01*
X426496Y416495D02*
X428724D01*
X426496Y416140D02*
X428724D01*
X426496Y415786D02*
X428724D01*
X426496Y415432D02*
X428724D01*
X426496Y415077D02*
X428724D01*
X426496Y414723D02*
X428724D01*
X426496Y414369D02*
X428724D01*
X426496Y414014D02*
X428724D01*
X426496Y413660D02*
X428724D01*
X426496Y413306D02*
X428724D01*
X426496Y412951D02*
X428724D01*
X426496Y412597D02*
X428724D01*
X426496Y412243D02*
X428724D01*
X426496Y411888D02*
X428724D01*
X426496Y411534D02*
X428724D01*
X426425Y420038D02*
X428693D01*
X426149Y426770D02*
X428516D01*
X426140Y420392D02*
X428346D01*
X419408Y427125D02*
X428099D01*
X425786Y420747D02*
X427991D01*
X419054Y427479D02*
X427745D01*
X425432Y421101D02*
X427637D01*
X418699Y427833D02*
X427390D01*
X425077Y421455D02*
X427283D01*
X418345Y428188D02*
X427036D01*
X424723Y421810D02*
X426928D01*
X417991Y428542D02*
X426682D01*
X424369Y422164D02*
X426574D01*
X417636Y428896D02*
X426327D01*
X424014Y422518D02*
X426220D01*
X419762Y426770D02*
X426050D01*
X422141Y429251D02*
X425973D01*
X423660Y422873D02*
X425865D01*
X422677Y429605D02*
X425675D01*
X423056Y430314D02*
X425591D01*
X422929Y429959D02*
X425591D01*
X423306Y423227D02*
X425511D01*
X423090Y430668D02*
X425494D01*
X422951Y423581D02*
X425169D01*
X423283Y431022D02*
X425156D01*
X420117Y426416D02*
X425139D01*
X423638Y431377D02*
X424980D01*
X422597Y423936D02*
X424979D01*
X424346Y432085D02*
X424920D01*
X422243Y424290D02*
X424919D01*
X423992Y431731D02*
X424906D01*
X420471Y426062D02*
X424838D01*
X421888Y424644D02*
X424774D01*
X420825Y425707D02*
X424682D01*
X421534Y424999D02*
X424653D01*
X421180Y425353D02*
X424624D01*
X417282Y429251D02*
X421088D01*
X416928Y429605D02*
X420552D01*
X416573Y429959D02*
X420299D01*
X417811Y430314D02*
X420171D01*
X418425Y430668D02*
X418817D01*
X416272Y430314D02*
X416993D01*
X445079Y404448D02*
X447835D01*
X445079Y404093D02*
X447835D01*
X445079Y403739D02*
X447835D01*
X445079Y403385D02*
X447835D01*
X445079Y403030D02*
X447835D01*
X445079Y402676D02*
X447835D01*
X445079Y402322D02*
X447835D01*
X445079Y401967D02*
X447835D01*
X445079Y401613D02*
X447835D01*
X445079Y401259D02*
X447835D01*
X445079Y400904D02*
X447835D01*
X445079Y400550D02*
X447835D01*
X445079Y400196D02*
X447835D01*
X445079Y399841D02*
X447835D01*
X445079Y399487D02*
X447835D01*
X445079Y399133D02*
X447835D01*
X445079Y398778D02*
X447835D01*
X445079Y398424D02*
X447835D01*
X445079Y398070D02*
X447835D01*
X445079Y397715D02*
X447835D01*
X445079Y397361D02*
X447835D01*
X445079Y397007D02*
X447835D01*
X445079Y396652D02*
X447835D01*
X445079Y404802D02*
X447569D01*
X445079Y405156D02*
X447214D01*
X445877Y396298D02*
X447036D01*
X445079Y405510D02*
X446860D01*
X445079Y405865D02*
X446506D01*
X445079Y406219D02*
X446152D01*
X445079Y406573D02*
X445797D01*
X445113Y406928D02*
X445443D01*
X401039Y448385D02*
X401805D01*
X400684Y448030D02*
X401805D01*
X400344Y447676D02*
X401805D01*
X400323Y447322D02*
X401805D01*
X401393Y448739D02*
X401794D01*
X400323Y446967D02*
X401658D01*
X400323Y446613D02*
X401304D01*
X400323Y446259D02*
X400950D01*
X410103Y468227D02*
X415639D01*
X409749Y467873D02*
X415429D01*
X410458Y468581D02*
X415344D01*
X409395Y467518D02*
X414971D01*
X409040Y467164D02*
X412030D01*
X408686Y466810D02*
X411676D01*
X408499Y466455D02*
X411321D01*
X408149Y455471D02*
X408768D01*
X408149Y455825D02*
X408698D01*
X408150Y455117D02*
X408550D01*
X408255Y456180D02*
X408437D01*
X421172Y466455D02*
X423195D01*
X421297Y466101D02*
X422962D01*
X421172Y466810D02*
X422859D01*
X421651Y465747D02*
X422635D01*
X421172Y467164D02*
X422505D01*
X421172Y467518D02*
X422151D01*
X421172Y467873D02*
X421796D01*
X424896Y404093D02*
X430512D01*
X425250Y403739D02*
X430512D01*
X425604Y403385D02*
X430512D01*
X425959Y403030D02*
X430512D01*
X426313Y402676D02*
X430512D01*
X426667Y402322D02*
X430512D01*
X427022Y401967D02*
X430512D01*
X427376Y401613D02*
X430512D01*
X427652Y401259D02*
X430512D01*
X427717Y400904D02*
X430512D01*
X427717Y400550D02*
X430512D01*
X427717Y400196D02*
X430512D01*
X427717Y399841D02*
X430512D01*
X427717Y399487D02*
X430512D01*
X427755Y399133D02*
X430512D01*
X427756Y398778D02*
X430512D01*
X427756Y398424D02*
X430512D01*
X427756Y398070D02*
X430512D01*
X427756Y397715D02*
X430512D01*
X427756Y397361D02*
X430512D01*
X427756Y397007D02*
X430512D01*
X427756Y396652D02*
X430512D01*
X424531Y404448D02*
X430326D01*
X419461Y404802D02*
X429972D01*
X428554Y396298D02*
X429714D01*
X419107Y405156D02*
X429617D01*
X418753Y405510D02*
X429263D01*
X418583Y405865D02*
X428909D01*
X418583Y406219D02*
X428554D01*
X424360Y406573D02*
X428200D01*
X424795Y406928D02*
X427846D01*
X425014Y407282D02*
X427491D01*
X425119Y407636D02*
X427137D01*
X425133Y407991D02*
X426783D01*
X425061Y408345D02*
X426428D01*
X424885Y408699D02*
X426074D01*
X424549Y409054D02*
X425720D01*
X418583Y409408D02*
X425365D01*
X418583Y409762D02*
X425040D01*
X418583Y410117D02*
X424924D01*
X418583Y416140D02*
X424921D01*
X418583Y415786D02*
X424921D01*
X418583Y415432D02*
X424921D01*
X418583Y415077D02*
X424921D01*
X418583Y414723D02*
X424921D01*
X418583Y414369D02*
X424921D01*
X418583Y411180D02*
X424921D01*
X418583Y410825D02*
X424921D01*
X418583Y410471D02*
X424921D01*
X418583Y419329D02*
X424919D01*
X424478Y411534D02*
X424904D01*
X424518Y416495D02*
X424890D01*
X418583Y419684D02*
X424622D01*
X418583Y420038D02*
X424268D01*
X418583Y420392D02*
X423913D01*
X418583Y420747D02*
X423559D01*
X418583Y421101D02*
X423205D01*
X418583Y416495D02*
X423120D01*
X418583Y411534D02*
X423081D01*
X418583Y406573D02*
X422963D01*
X418583Y418975D02*
X422931D01*
X418583Y414014D02*
X422892D01*
X418583Y421455D02*
X422850D01*
X418583Y409054D02*
X422774D01*
X418583Y416849D02*
X422686D01*
X418583Y411888D02*
X422646D01*
X418583Y418621D02*
X422595D01*
X418583Y413660D02*
X422555D01*
X418583Y406928D02*
X422528D01*
X418583Y421810D02*
X422496D01*
X418583Y417203D02*
X422466D01*
X418583Y408699D02*
X422437D01*
X418583Y412243D02*
X422427D01*
X418583Y418266D02*
X422420D01*
X418583Y413306D02*
X422380D01*
X418583Y417558D02*
X422362D01*
X418583Y417912D02*
X422347D01*
X418583Y412597D02*
X422322D01*
X418583Y407282D02*
X422309D01*
X418583Y412951D02*
X422308D01*
X418583Y408345D02*
X422262D01*
X418583Y407636D02*
X422204D01*
X418583Y407991D02*
X422190D01*
X418583Y422164D02*
X422142D01*
X418583Y422518D02*
X421787D01*
X418583Y422873D02*
X421433D01*
X418583Y423227D02*
X421079D01*
X418583Y423581D02*
X420724D01*
X418583Y423936D02*
X420370D01*
X418583Y424290D02*
X420016D01*
X418583Y424644D02*
X419661D01*
X418583Y424999D02*
X419307D01*
X418613Y425353D02*
X418953D01*
X420249Y400196D02*
X426142D01*
X420603Y399841D02*
X426142D01*
X420957Y399487D02*
X426142D01*
X421312Y399133D02*
X426142D01*
X421666Y398778D02*
X426142D01*
X422020Y398424D02*
X426142D01*
X422375Y398070D02*
X426142D01*
X422729Y397715D02*
X426142D01*
X423083Y397361D02*
X426142D01*
X423360Y397007D02*
X426142D01*
X423425Y396652D02*
X426142D01*
X420118Y400550D02*
X426141D01*
X420118Y400904D02*
X425858D01*
X420118Y401259D02*
X425503D01*
X424223Y396298D02*
X425383D01*
X420118Y401613D02*
X425149D01*
X420118Y401967D02*
X424795D01*
X420069Y402322D02*
X424440D01*
X419816Y402676D02*
X424086D01*
X419913Y403030D02*
X423671D01*
X414764Y400904D02*
X417520D01*
X414764Y400550D02*
X417520D01*
X414764Y400196D02*
X417520D01*
X414764Y399841D02*
X417520D01*
X414764Y399487D02*
X417520D01*
X414764Y399133D02*
X417520D01*
X414764Y398778D02*
X417520D01*
X414764Y398424D02*
X417520D01*
X414764Y398070D02*
X417520D01*
X414764Y397715D02*
X417520D01*
X414764Y397361D02*
X417520D01*
X414764Y397007D02*
X417520D01*
X414764Y396652D02*
X417520D01*
X414764Y401259D02*
X417253D01*
X414764Y401613D02*
X416899D01*
X415562Y396298D02*
X416721D01*
X414764Y401967D02*
X416545D01*
X414764Y402322D02*
X416190D01*
X414764Y402676D02*
X415836D01*
X414764Y403030D02*
X415482D01*
X414799Y403385D02*
X415127D01*
X408149Y453345D02*
X409001D01*
X408149Y452991D02*
X408859D01*
X408149Y453699D02*
X408682D01*
X408149Y452636D02*
X408625D01*
X408204Y454054D02*
X408489D01*
X408239Y452282D02*
X408453D01*
X408149Y450510D02*
X409411D01*
X408149Y450865D02*
X409026D01*
X408149Y450156D02*
X409019D01*
X408149Y451219D02*
X408713D01*
X408149Y449802D02*
X408700D01*
X408149Y451573D02*
X408550D01*
X408158Y449448D02*
X408534D01*
X408149Y445904D02*
X410709D01*
X408149Y445550D02*
X410709D01*
X408149Y445196D02*
X410709D01*
X408149Y444841D02*
X410709D01*
X408149Y444487D02*
X410589D01*
X408149Y446259D02*
X410433D01*
X408117Y444133D02*
X410235D01*
X408149Y446613D02*
X410181D01*
X408149Y446967D02*
X410054D01*
X408149Y447322D02*
X410020D01*
X407897Y443778D02*
X409880D01*
X407542Y443424D02*
X409620D01*
X407188Y443070D02*
X409567D01*
X406834Y442715D02*
X409567D01*
X406479Y442361D02*
X409567D01*
X406125Y442007D02*
X409567D01*
X405771Y441652D02*
X409567D01*
X408707Y441298D02*
X409567D01*
X409071Y440944D02*
X409567D01*
X408149Y447676D02*
X409298D01*
X408149Y448030D02*
X408833D01*
X408149Y448385D02*
X408603D01*
X405416Y441298D02*
X407041D01*
X405062Y440944D02*
X406677D01*
X404708Y440589D02*
X406489D01*
X404353Y440235D02*
X406360D01*
X403999Y439881D02*
X406005D01*
X403645Y439526D02*
X405651D01*
X403290Y439172D02*
X405297D01*
X402936Y438818D02*
X404942D01*
X402594Y438463D02*
X404646D01*
X402572Y438109D02*
X404512D01*
X402572Y437755D02*
X404488D01*
X402572Y437400D02*
X404488D01*
X402572Y437046D02*
X404488D01*
X402572Y436692D02*
X404488D01*
X402572Y436337D02*
X404488D01*
X402572Y435983D02*
X404488D01*
X402572Y435629D02*
X404488D01*
X402572Y435274D02*
X404488D01*
X402572Y434920D02*
X404488D01*
X402572Y434566D02*
X404488D01*
X402572Y434211D02*
X404488D01*
X402572Y433857D02*
X404488D01*
X402572Y433503D02*
X404488D01*
X402572Y433148D02*
X404488D01*
X402841Y432794D02*
X404488D01*
X403120Y432440D02*
X404488D01*
X403187Y432085D02*
X404488D01*
X403187Y431731D02*
X404488D01*
X403187Y431377D02*
X404488D01*
X403187Y431022D02*
X404488D01*
X403187Y430668D02*
X404488D01*
X403187Y430314D02*
X404488D01*
X403187Y429959D02*
X404488D01*
X403187Y429605D02*
X404488D01*
X403187Y429251D02*
X404488D01*
X403187Y428896D02*
X404488D01*
X403187Y428542D02*
X404488D01*
X403187Y428188D02*
X404488D01*
X403187Y427833D02*
X404488D01*
X403187Y427479D02*
X404488D01*
X403187Y427125D02*
X404488D01*
X403187Y426770D02*
X404488D01*
X403187Y426416D02*
X404488D01*
X403187Y426062D02*
X404488D01*
X403187Y425707D02*
X404488D01*
X403187Y425353D02*
X404488D01*
X403187Y424999D02*
X404488D01*
X403187Y424644D02*
X404488D01*
X403187Y424290D02*
X404488D01*
X403162Y423936D02*
X404487D01*
X402961Y423581D02*
X404194D01*
X402607Y423227D02*
X403840D01*
X402252Y422873D02*
X403486D01*
X401898Y422518D02*
X403131D01*
X401544Y422164D02*
X402777D01*
X401189Y421810D02*
X402423D01*
X400835Y421455D02*
X402068D01*
X400481Y421101D02*
X401731D01*
X400126Y420747D02*
X401550D01*
X399921Y420392D02*
X401496D01*
X399921Y420038D02*
X401496D01*
X399921Y419684D02*
X401496D01*
X399921Y419329D02*
X401496D01*
X399921Y418975D02*
X401496D01*
X399921Y418621D02*
X401496D01*
X399921Y418266D02*
X401496D01*
X399921Y417912D02*
X401496D01*
X399921Y417558D02*
X401496D01*
X399921Y417203D02*
X401496D01*
X399921Y416849D02*
X401496D01*
X399921Y416495D02*
X401496D01*
X399921Y416140D02*
X401496D01*
X399921Y415786D02*
X401496D01*
X399921Y415432D02*
X401496D01*
X399912Y415077D02*
X401496D01*
X399761Y414723D02*
X401496D01*
X399417Y414369D02*
X401496D01*
X399063Y414014D02*
X401496D01*
X398780Y413660D02*
X401496D01*
X398780Y413306D02*
X401496D01*
X398780Y412951D02*
X401445D01*
X398780Y412597D02*
X401091D01*
X398780Y412243D02*
X400737D01*
X398763Y411888D02*
X400382D01*
X398589Y411534D02*
X400028D01*
X398238Y411180D02*
X399674D01*
X397884Y410825D02*
X399319D01*
X397530Y410471D02*
X398965D01*
X397175Y410117D02*
X398611D01*
X396493Y409762D02*
X398256D01*
X396455Y409408D02*
X397902D01*
X396305Y409054D02*
X397548D01*
X396260Y408699D02*
X397193D01*
X396260Y408345D02*
X396839D01*
X403369Y411534D02*
X404094D01*
X403015Y411180D02*
X404094D01*
X402660Y410825D02*
X404094D01*
X402306Y410471D02*
X404094D01*
X403680Y411888D02*
X404094D01*
X401952Y410117D02*
X404042D01*
X401597Y409762D02*
X403688D01*
X401243Y409408D02*
X403334D01*
X400889Y409054D02*
X402980D01*
X400534Y408699D02*
X402625D01*
X400180Y408345D02*
X402271D01*
X399826Y407991D02*
X401917D01*
X399471Y407636D02*
X401562D01*
X399117Y407282D02*
X401265D01*
X398763Y406928D02*
X401181D01*
X398408Y406573D02*
X401181D01*
X398054Y406219D02*
X401181D01*
X397700Y405865D02*
X401181D01*
X397345Y405510D02*
X401181D01*
X396761Y405156D02*
X401181D01*
X396365Y404802D02*
X400904D01*
X396260Y404448D02*
X400550D01*
X396260Y404093D02*
X400196D01*
X396260Y403739D02*
X399841D01*
X396408Y403385D02*
X399487D01*
X396457Y403030D02*
X399133D01*
X403789Y407636D02*
X404415D01*
X403435Y407282D02*
X404415D01*
X403081Y406928D02*
X404415D01*
X402763Y406573D02*
X404415D01*
X402756Y406219D02*
X404415D01*
X402756Y405865D02*
X404415D01*
X402756Y405510D02*
X404415D01*
X402756Y405156D02*
X404415D01*
X402756Y404802D02*
X404415D01*
X402694Y404448D02*
X404415D01*
X402423Y404093D02*
X404415D01*
X402068Y403739D02*
X404415D01*
X401714Y403385D02*
X404415D01*
X401360Y403030D02*
X404415D01*
X401005Y402676D02*
X404415D01*
X400651Y402322D02*
X404415D01*
X400297Y401967D02*
X404415D01*
X399942Y401613D02*
X404415D01*
X399525Y401259D02*
X404415D01*
X396457Y400904D02*
X404415D01*
X396407Y400550D02*
X404415D01*
X395056Y400196D02*
X404415D01*
X394882Y399841D02*
X404415D01*
X394882Y399487D02*
X404415D01*
X394882Y399133D02*
X404415D01*
X394882Y398778D02*
X404415D01*
X394882Y398424D02*
X404415D01*
X394882Y398070D02*
X404415D01*
X394882Y397715D02*
X404415D01*
X394882Y397361D02*
X404415D01*
X394882Y397007D02*
X404415D01*
X394882Y396652D02*
X404415D01*
X402570Y396298D02*
X403729D01*
X394882D02*
X399400D01*
X394882Y395944D02*
X399218D01*
X394882Y395589D02*
X399213D01*
X394882Y395235D02*
X399213D01*
X407929Y438463D02*
X408471D01*
X407575Y438109D02*
X408208D01*
X407220Y437755D02*
X407853D01*
X406876Y437400D02*
X407499D01*
X406969Y437046D02*
X407125D01*
X412590Y436692D02*
X413279D01*
X412236Y436337D02*
X413279D01*
X411881Y435983D02*
X413279D01*
X411527Y435629D02*
X413279D01*
X412944Y437046D02*
X413221D01*
X411173Y435274D02*
X413134D01*
X410873Y434920D02*
X412780D01*
X410871Y434566D02*
X412426D01*
X410871Y434211D02*
X412096D01*
X410871Y433857D02*
X411972D01*
X411158Y433503D02*
X411968D01*
X411512Y433148D02*
X411968D01*
X410228Y419684D02*
X410925D01*
X410322Y419329D02*
X410925D01*
X410326Y418975D02*
X410925D01*
X410243Y418621D02*
X410925D01*
X410053Y418266D02*
X410925D01*
X409687Y417912D02*
X410925D01*
X406732Y417558D02*
X410925D01*
X406732Y417203D02*
X410925D01*
X406732Y416849D02*
X410925D01*
X406732Y416495D02*
X410925D01*
X406732Y416140D02*
X410925D01*
X406732Y415786D02*
X410925D01*
X406732Y415432D02*
X410925D01*
X406732Y415077D02*
X410925D01*
X406732Y414723D02*
X410925D01*
X406732Y414369D02*
X410925D01*
X406732Y414014D02*
X410925D01*
X406732Y413660D02*
X410925D01*
X406732Y413306D02*
X410925D01*
X406732Y412951D02*
X410925D01*
X406732Y412597D02*
X410925D01*
X406732Y412243D02*
X410925D01*
X406732Y411888D02*
X410925D01*
X406732Y411534D02*
X410925D01*
X406732Y411180D02*
X410925D01*
X406732Y410825D02*
X410925D01*
X406732Y410471D02*
X410925D01*
X406732Y410117D02*
X410925D01*
X406732Y409762D02*
X410925D01*
X406732Y409408D02*
X410925D01*
X406668Y409054D02*
X410925D01*
X406393Y408699D02*
X410925D01*
X406040Y408345D02*
X410925D01*
X405990Y407991D02*
X410925D01*
X405990Y407636D02*
X410925D01*
X405990Y407282D02*
X410925D01*
X405990Y406928D02*
X410925D01*
X405990Y406573D02*
X410925D01*
X405990Y406219D02*
X410925D01*
X405990Y405865D02*
X410925D01*
X405990Y405510D02*
X410925D01*
X405990Y405156D02*
X410925D01*
X405990Y404802D02*
X410925D01*
X405990Y404448D02*
X410925D01*
X410025Y420038D02*
X410924D01*
X405990Y404093D02*
X410696D01*
X409630Y420392D02*
X410630D01*
X405990Y403739D02*
X410342D01*
X408917Y420747D02*
X410276D01*
X405990Y403385D02*
X409987D01*
X409144Y421101D02*
X409922D01*
X405990Y403030D02*
X409633D01*
X405990Y402676D02*
X409279D01*
X405990Y402322D02*
X408963D01*
X405990Y401967D02*
X408859D01*
X405990Y401613D02*
X408858D01*
X405990Y401259D02*
X408858D01*
X405990Y400904D02*
X408858D01*
X405990Y400550D02*
X408858D01*
X405990Y400196D02*
X408858D01*
X405990Y399841D02*
X408858D01*
X405990Y399487D02*
X408858D01*
X405990Y399133D02*
X408858D01*
X405990Y398778D02*
X408858D01*
X405990Y398424D02*
X408858D01*
X405990Y398070D02*
X408858D01*
X405990Y397715D02*
X408858D01*
X405990Y397361D02*
X408858D01*
X405990Y397007D02*
X408858D01*
X405990Y396652D02*
X408858D01*
X406901Y396298D02*
X408060D01*
X406732Y417912D02*
X408029D01*
X406732Y418266D02*
X407664D01*
X406733Y418621D02*
X407474D01*
X407018Y418975D02*
X407378D01*
X419541Y454408D02*
X420639D01*
X419896Y454054D02*
X420639D01*
X420250Y453699D02*
X420619D01*
X419187Y454762D02*
X420582D01*
X418833Y455117D02*
X420228D01*
X418478Y455471D02*
X419873D01*
X418007Y455825D02*
X419519D01*
X416841Y456180D02*
X419165D01*
X413443Y456534D02*
X418810D01*
X413451Y456888D02*
X418456D01*
X413490Y457243D02*
X418102D01*
X418124Y451928D02*
X419395D01*
X418478Y451573D02*
X419395D01*
X418833Y451219D02*
X419395D01*
X416770Y452282D02*
X419391D01*
X416390Y452636D02*
X419086D01*
X416036Y452991D02*
X418732D01*
X415682Y453345D02*
X418377D01*
X415327Y453699D02*
X418023D01*
X414973Y454054D02*
X417669D01*
X414619Y454408D02*
X416416D01*
X414423Y454762D02*
X416032D01*
X411789Y424999D02*
X414488D01*
X411789Y424644D02*
X414488D01*
X411789Y424290D02*
X414488D01*
X411789Y423936D02*
X414488D01*
X412066Y423581D02*
X414488D01*
X412420Y423227D02*
X414488D01*
X412774Y422873D02*
X414488D01*
X413129Y422518D02*
X414488D01*
X413483Y422164D02*
X414488D01*
X413837Y421810D02*
X414488D01*
X414209Y421455D02*
X414374D01*
X411789Y425353D02*
X414252D01*
X411789Y425707D02*
X413897D01*
X411789Y426062D02*
X413543D01*
X411789Y426416D02*
X413189D01*
X411789Y426770D02*
X412834D01*
X411789Y427125D02*
X412480D01*
X411838Y427479D02*
X412134D01*
X412500Y420038D02*
X413189D01*
X412500Y419684D02*
X413189D01*
X412500Y419329D02*
X413189D01*
X412500Y418975D02*
X413189D01*
X412500Y418621D02*
X413189D01*
X412500Y418266D02*
X413189D01*
X412500Y417912D02*
X413189D01*
X412500Y417558D02*
X413189D01*
X412500Y417203D02*
X413189D01*
X412500Y416849D02*
X413189D01*
X412500Y416495D02*
X413189D01*
X412500Y416140D02*
X413189D01*
X412500Y415786D02*
X413189D01*
X412500Y415432D02*
X413189D01*
X412500Y415077D02*
X413189D01*
X412500Y414723D02*
X413189D01*
X412500Y414369D02*
X413189D01*
X412500Y414014D02*
X413189D01*
X412500Y413660D02*
X413189D01*
X412500Y413306D02*
X413189D01*
X412500Y412951D02*
X413189D01*
X412500Y412597D02*
X413189D01*
X412500Y412243D02*
X413189D01*
X412500Y411888D02*
X413189D01*
X412500Y411534D02*
X413189D01*
X412500Y411180D02*
X413189D01*
X412500Y410825D02*
X413189D01*
X412500Y410471D02*
X413189D01*
X412500Y410117D02*
X413189D01*
X412500Y409762D02*
X413189D01*
X412500Y409408D02*
X413189D01*
X412500Y409054D02*
X413189D01*
X412500Y408699D02*
X413189D01*
X412500Y408345D02*
X413189D01*
X412500Y407991D02*
X413189D01*
X412500Y407636D02*
X413189D01*
X412500Y407282D02*
X413189D01*
X412500Y406928D02*
X413189D01*
X412500Y406573D02*
X413189D01*
X412500Y406219D02*
X413189D01*
X412500Y405865D02*
X413189D01*
X412500Y405510D02*
X413189D01*
X412500Y405156D02*
X413189D01*
X412500Y404802D02*
X413189D01*
X412500Y404448D02*
X413189D01*
X412500Y404093D02*
X413189D01*
X412457Y403739D02*
X413189D01*
X412215Y403385D02*
X413189D01*
X411860Y403030D02*
X413189D01*
X411506Y402676D02*
X413189D01*
X411152Y402322D02*
X413189D01*
X410797Y401967D02*
X413189D01*
X410456Y401613D02*
X413189D01*
X410433Y401259D02*
X413189D01*
X410433Y400904D02*
X413189D01*
X410433Y400550D02*
X413189D01*
X410433Y400196D02*
X413189D01*
X410433Y399841D02*
X413189D01*
X410433Y399487D02*
X413189D01*
X410433Y399133D02*
X413189D01*
X410433Y398778D02*
X413189D01*
X410433Y398424D02*
X413189D01*
X410433Y398070D02*
X413189D01*
X410433Y397715D02*
X413189D01*
X410433Y397361D02*
X413189D01*
X410433Y397007D02*
X413189D01*
X410433Y396652D02*
X413189D01*
X412500Y420392D02*
X413028D01*
X411231Y396298D02*
X412391D01*
X416316Y449448D02*
X418051D01*
X416316Y449093D02*
X418051D01*
X416316Y448739D02*
X418051D01*
X416316Y448385D02*
X418051D01*
X416316Y448030D02*
X418051D01*
X416316Y447676D02*
X418051D01*
X416316Y447322D02*
X418051D01*
X416316Y446967D02*
X418051D01*
X416316Y446613D02*
X418051D01*
X416316Y446259D02*
X418051D01*
X416316Y445904D02*
X418051D01*
X416316Y445550D02*
X418051D01*
X416316Y445196D02*
X418051D01*
X416316Y444841D02*
X418051D01*
X416316Y444487D02*
X418051D01*
X416316Y444133D02*
X418032D01*
X416316Y449802D02*
X418018D01*
X416316Y443778D02*
X417694D01*
X416316Y450156D02*
X417669D01*
X416316Y443424D02*
X417340D01*
X416316Y450510D02*
X417314D01*
X416316Y443070D02*
X416985D01*
X416399Y442715D02*
X416627D01*
X394882Y479211D02*
X463386D01*
X394882Y478857D02*
X463386D01*
X394882Y478503D02*
X463386D01*
X394882Y478148D02*
X463386D01*
X394882Y477794D02*
X463386D01*
X394882Y477440D02*
X463386D01*
X394882Y477085D02*
X463386D01*
X420439Y476731D02*
X463386D01*
X420815Y476377D02*
X463386D01*
X421169Y476022D02*
X463386D01*
X421523Y475668D02*
X463386D01*
X421878Y475314D02*
X463386D01*
X422232Y474959D02*
X463386D01*
X422586Y474605D02*
X463386D01*
X422941Y474251D02*
X463386D01*
X423295Y473896D02*
X463386D01*
X423649Y473542D02*
X463386D01*
X456496Y421455D02*
X463386D01*
X456496Y421101D02*
X463386D01*
X456496Y420747D02*
X463386D01*
X456496Y420392D02*
X463386D01*
X456496Y420038D02*
X463386D01*
X456496Y419684D02*
X463386D01*
X456496Y419329D02*
X463386D01*
X456496Y418975D02*
X463386D01*
X456496Y418621D02*
X463386D01*
X456496Y418266D02*
X463386D01*
X456496Y417912D02*
X463386D01*
X456496Y417558D02*
X463386D01*
X456496Y417203D02*
X463386D01*
X453740Y399841D02*
X463386D01*
X453740Y399487D02*
X463386D01*
X453740Y399133D02*
X463386D01*
X453740Y398778D02*
X463386D01*
X453740Y398424D02*
X463386D01*
X453740Y398070D02*
X463386D01*
X453740Y397715D02*
X463386D01*
X453740Y397361D02*
X463386D01*
X453740Y397007D02*
X463386D01*
X453740Y396652D02*
X463386D01*
X458868Y396298D02*
X463386D01*
X459050Y395944D02*
X463386D01*
X459055Y395589D02*
X463386D01*
X459055Y395235D02*
X463386D01*
X424004Y473188D02*
X463382D01*
X456496Y416849D02*
X463369D01*
X394920Y479566D02*
X463347D01*
X456496Y421810D02*
X463309D01*
X453740Y400196D02*
X463211D01*
X430258Y469290D02*
X462008D01*
X430612Y468936D02*
X462008D01*
X433015Y465038D02*
X462008D01*
X433186Y464684D02*
X462008D01*
X440273Y464329D02*
X462008D01*
X451681Y456534D02*
X462008D01*
X451326Y456180D02*
X462008D01*
X450972Y455825D02*
X462008D01*
X456076Y408699D02*
X462008D01*
X456430Y408345D02*
X462008D01*
X456784Y407991D02*
X462008D01*
X430967Y468581D02*
X462001D01*
X429904Y469644D02*
X461988D01*
X455721Y409054D02*
X461962D01*
X424358Y472833D02*
X461960D01*
X433015Y465392D02*
X461930D01*
X450640Y455471D02*
X461928D01*
X456496Y416495D02*
X461928D01*
X456496Y422164D02*
X461880D01*
X453740Y400550D02*
X461861D01*
X452035Y456888D02*
X461845D01*
X440914Y463975D02*
X461844D01*
X457139Y407636D02*
X461832D01*
X431321Y468227D02*
X461823D01*
X429549Y469999D02*
X461816D01*
X455367Y409408D02*
X461812D01*
X424712Y472479D02*
X461812D01*
X433015Y465747D02*
X461811D01*
X425067Y472125D02*
X461811D01*
X425421Y471770D02*
X461811D01*
X425775Y471416D02*
X461811D01*
X426130Y471062D02*
X461811D01*
X428841Y470707D02*
X461811D01*
X429195Y470353D02*
X461811D01*
X431675Y467873D02*
X461811D01*
X432030Y467518D02*
X461811D01*
X432384Y467164D02*
X461811D01*
X432738Y466810D02*
X461811D01*
X432974Y466455D02*
X461811D01*
X433015Y466101D02*
X461811D01*
X441190Y463621D02*
X461811D01*
X452389Y457243D02*
X461811D01*
X450717Y455117D02*
X461811D01*
X456496Y422518D02*
X461811D01*
X456496Y416140D02*
X461811D01*
X456496Y415786D02*
X461811D01*
X453740Y400904D02*
X461811D01*
X457493Y407282D02*
X461811D01*
X455013Y409762D02*
X461810D01*
X450776Y454762D02*
X461730D01*
X456496Y415432D02*
X461531D01*
X454658Y410117D02*
X461439D01*
X456496Y415077D02*
X461176D01*
X454304Y410471D02*
X461085D01*
X456496Y414723D02*
X460822D01*
X453950Y410825D02*
X460730D01*
X456496Y414369D02*
X460468D01*
X453595Y411180D02*
X460376D01*
X456496Y422873D02*
X460276D01*
X456666Y414014D02*
X460113D01*
X453740Y401259D02*
X459954D01*
X456496Y423227D02*
X459890D01*
X453740Y401613D02*
X459537D01*
X456496Y423581D02*
X459536D01*
X453683Y401967D02*
X459182D01*
X456496Y423936D02*
X459182D01*
X453418Y402322D02*
X458828D01*
X456496Y424290D02*
X458827D01*
X453064Y402676D02*
X458474D01*
X456496Y424644D02*
X458473D01*
X452709Y403030D02*
X458119D01*
X456496Y424999D02*
X458119D01*
X452355Y403385D02*
X457765D01*
X456496Y425353D02*
X457764D01*
X456472Y425707D02*
X457410D01*
X456274Y426062D02*
X457056D01*
X452001Y403739D02*
X456790D01*
X450748Y454408D02*
X456769D01*
X455919Y426416D02*
X456701D01*
X451646Y404093D02*
X456436D01*
X450628Y454054D02*
X456414D01*
X455565Y426770D02*
X456347D01*
X451292Y404448D02*
X456081D01*
X450386Y453699D02*
X456060D01*
X455211Y427125D02*
X455993D01*
X453241Y411534D02*
X455780D01*
X450938Y404802D02*
X455727D01*
X452495Y453345D02*
X455706D01*
X454538Y396298D02*
X455698D01*
X454856Y427479D02*
X455638D01*
X452887Y411888D02*
X455423D01*
X450583Y405156D02*
X455373D01*
X452879Y452991D02*
X455351D01*
X454220Y427833D02*
X455284D01*
X452638Y412243D02*
X455069D01*
X450229Y405510D02*
X455018D01*
X452856Y428188D02*
X454930D01*
X452638Y412597D02*
X454714D01*
X449875Y405865D02*
X454664D01*
X447060Y428542D02*
X454575D01*
X452638Y412951D02*
X454360D01*
X449520Y406219D02*
X454310D01*
X446830Y428896D02*
X454221D01*
X452638Y413306D02*
X454131D01*
X452020Y423581D02*
X454094D01*
X452375Y423227D02*
X454094D01*
X452602Y422873D02*
X454094D01*
X452638Y422518D02*
X454094D01*
X452638Y422164D02*
X454094D01*
X452638Y421810D02*
X454094D01*
X452638Y421455D02*
X454094D01*
X452638Y421101D02*
X454094D01*
X452638Y420747D02*
X454094D01*
X452638Y420392D02*
X454094D01*
X452638Y420038D02*
X454094D01*
X452638Y419684D02*
X454094D01*
X452638Y419329D02*
X454094D01*
X452638Y418975D02*
X454094D01*
X452638Y418621D02*
X454094D01*
X452638Y418266D02*
X454094D01*
X452638Y417912D02*
X454094D01*
X452638Y417558D02*
X454094D01*
X452638Y417203D02*
X454094D01*
X452638Y416849D02*
X454094D01*
X452638Y416495D02*
X454094D01*
X452638Y416140D02*
X454094D01*
X452638Y415786D02*
X454094D01*
X452638Y415432D02*
X454094D01*
X452638Y415077D02*
X454094D01*
X452638Y414723D02*
X454094D01*
X452638Y414369D02*
X454094D01*
X452638Y414014D02*
X454094D01*
X452638Y413660D02*
X454094D01*
X451666Y423936D02*
X454072D01*
X449166Y406573D02*
X453955D01*
X446778Y429251D02*
X453867D01*
X448812Y406928D02*
X453601D01*
X446628Y429605D02*
X453512D01*
X448457Y407282D02*
X453247D01*
X446338Y429959D02*
X453158D01*
X448103Y407636D02*
X452892D01*
X451312Y424290D02*
X452815D01*
X445603Y430314D02*
X452804D01*
X447874Y407991D02*
X452538D01*
X443697Y430668D02*
X452449D01*
X450957Y424644D02*
X452418D01*
X441331Y463266D02*
X452378D01*
X450603Y424999D02*
X452214D01*
X447874Y408345D02*
X452184D01*
X450249Y425353D02*
X452120D01*
X443458Y431022D02*
X452095D01*
X441377Y462912D02*
X451995D01*
X447874Y408699D02*
X451829D01*
X442970Y431377D02*
X451741D01*
X441337Y462558D02*
X451641D01*
X447874Y409054D02*
X451475D01*
X431298Y431731D02*
X451386D01*
X441202Y462203D02*
X451287D01*
X449894Y425707D02*
X451270D01*
X449721Y450510D02*
X451160D01*
X447874Y409408D02*
X451121D01*
X447414Y428188D02*
X451081D01*
X430823Y432085D02*
X451032D01*
X440937Y461849D02*
X450932D01*
X449886Y453345D02*
X450906D01*
X449564Y450865D02*
X450893D01*
X449540Y426062D02*
X450835D01*
X447874Y409762D02*
X450766D01*
X447768Y427833D02*
X450744D01*
X427732Y432440D02*
X450678D01*
X449186Y426416D02*
X450616D01*
X442387Y461495D02*
X450578D01*
X448123Y427479D02*
X450569D01*
X439983Y452991D02*
X450523D01*
X449265Y451219D02*
X450517D01*
X448831Y426770D02*
X450511D01*
X448477Y427125D02*
X450497D01*
X447874Y410117D02*
X450412D01*
X439983Y452636D02*
X450325D01*
X427574Y432794D02*
X450323D01*
X448405Y451573D02*
X450322D01*
X442949Y461140D02*
X450280D01*
X439983Y452282D02*
X450236D01*
X439983Y451928D02*
X450235D01*
X443209Y460786D02*
X450197D01*
X443340Y460432D02*
X450197D01*
X443377Y460077D02*
X450197D01*
X443328Y459723D02*
X450197D01*
X443183Y459369D02*
X450195D01*
X447874Y410471D02*
X450058D01*
X436978Y433148D02*
X449969D01*
X442901Y459014D02*
X449901D01*
X447874Y410825D02*
X449730D01*
X437366Y433503D02*
X449694D01*
X437721Y433857D02*
X449615D01*
X447251Y438818D02*
X449615D01*
X447255Y438463D02*
X449615D01*
X447172Y438109D02*
X449615D01*
X446982Y437755D02*
X449615D01*
X446616Y437400D02*
X449615D01*
X440910Y437046D02*
X449615D01*
X440555Y436692D02*
X449615D01*
X440201Y436337D02*
X449615D01*
X439847Y435983D02*
X449615D01*
X439492Y435629D02*
X449615D01*
X439138Y435274D02*
X449615D01*
X438784Y434920D02*
X449615D01*
X438429Y434566D02*
X449615D01*
X438075Y434211D02*
X449615D01*
X447874Y411180D02*
X449609D01*
X446797Y421455D02*
X449606D01*
X447151Y421101D02*
X449606D01*
X447505Y420747D02*
X449606D01*
X447797Y420392D02*
X449606D01*
X447874Y420038D02*
X449606D01*
X447874Y419684D02*
X449606D01*
X447874Y419329D02*
X449606D01*
X447874Y418975D02*
X449606D01*
X447874Y418621D02*
X449606D01*
X447874Y418266D02*
X449606D01*
X447874Y417912D02*
X449606D01*
X447874Y417558D02*
X449606D01*
X447874Y417203D02*
X449606D01*
X447874Y416849D02*
X449606D01*
X447874Y416495D02*
X449606D01*
X447874Y416140D02*
X449606D01*
X447874Y415786D02*
X449606D01*
X447874Y415432D02*
X449606D01*
X447874Y415077D02*
X449606D01*
X447874Y414723D02*
X449606D01*
X447874Y414369D02*
X449606D01*
X447874Y414014D02*
X449606D01*
X447874Y413660D02*
X449606D01*
X447874Y413306D02*
X449606D01*
X447874Y412951D02*
X449606D01*
X447874Y412597D02*
X449606D01*
X447874Y412243D02*
X449606D01*
X447874Y411888D02*
X449606D01*
X447874Y411534D02*
X449606D01*
X447158Y439172D02*
X449574D01*
X446442Y421810D02*
X449557D01*
X442224Y458660D02*
X449547D01*
X446955Y439526D02*
X449223D01*
X446088Y422164D02*
X449203D01*
X439983Y458306D02*
X449192D01*
X446559Y439881D02*
X448868D01*
X445734Y422518D02*
X448848D01*
X439983Y457951D02*
X448838D01*
X439983Y453345D02*
X448716D01*
X439983Y440235D02*
X448514D01*
X445379Y422873D02*
X448494D01*
X439983Y457597D02*
X448484D01*
X447566Y453699D02*
X448216D01*
X439983Y451573D02*
X448196D01*
X439983Y440589D02*
X448160D01*
X445025Y423227D02*
X448140D01*
X439983Y457243D02*
X448129D01*
X446787Y440944D02*
X447805D01*
X444671Y423581D02*
X447785D01*
X439983Y456888D02*
X447775D01*
X444316Y423936D02*
X447431D01*
X439983Y451219D02*
X447337D01*
X443962Y424290D02*
X447077D01*
X446466Y450865D02*
X447037D01*
X444912Y456534D02*
X446747D01*
X443608Y424644D02*
X446722D01*
X439983Y453699D02*
X446636D01*
X443253Y424999D02*
X446368D01*
X445287Y456180D02*
X446093D01*
X444891Y454054D02*
X446060D01*
X442899Y425353D02*
X446014D01*
X445485Y455825D02*
X445814D01*
X445277Y454408D02*
X445797D01*
X439983Y440944D02*
X445733D01*
X442545Y425707D02*
X445659D01*
X439983Y443778D02*
X445521D01*
X439983Y450865D02*
X445336D01*
X439983Y443424D02*
X445276D01*
X439983Y441298D02*
X445197D01*
X443814Y430314D02*
X445106D01*
X439917Y439881D02*
X445015D01*
X439983Y443070D02*
X444986D01*
X441264Y437400D02*
X444959D01*
X439983Y441652D02*
X444945D01*
X439983Y442715D02*
X444837D01*
X439983Y450510D02*
X444824D01*
X439983Y442007D02*
X444818D01*
X439983Y442361D02*
X444784D01*
X444284Y450156D02*
X444568D01*
X443840Y429959D02*
X444371D01*
X439983Y444133D02*
X444156D01*
X442190Y426062D02*
X443843D01*
X439983Y444487D02*
X443801D01*
X441836Y426416D02*
X443366D01*
X439983Y454054D02*
X443310D01*
X439983Y456534D02*
X443289D01*
X441482Y426770D02*
X443012D01*
X439983Y447322D02*
X442994D01*
X439983Y454408D02*
X442925D01*
X439983Y456180D02*
X442915D01*
X439983Y444841D02*
X442856D01*
X439983Y447676D02*
X442726D01*
X439983Y454762D02*
X442726D01*
X439983Y455825D02*
X442721D01*
X441127Y427125D02*
X442658D01*
X439983Y455117D02*
X442636D01*
X439983Y455471D02*
X442634D01*
X439983Y446967D02*
X442605D01*
X439983Y445196D02*
X442518D01*
X439983Y450156D02*
X442409D01*
X439983Y446613D02*
X442386D01*
X439983Y445550D02*
X442342D01*
X440773Y427479D02*
X442303D01*
X439983Y446259D02*
X442283D01*
X439983Y445904D02*
X442269D01*
X439983Y448030D02*
X442247D01*
X439983Y449802D02*
X442097D01*
X439983Y448385D02*
X442012D01*
X440419Y427833D02*
X441949D01*
X439983Y449448D02*
X441935D01*
X439983Y448739D02*
X441896D01*
X439983Y449093D02*
X441872D01*
X436865Y431377D02*
X441761D01*
X440064Y428188D02*
X441657D01*
X439710Y428542D02*
X441578D01*
X439983Y458660D02*
X441578D01*
X439356Y428896D02*
X441419D01*
X440351Y461495D02*
X441414D01*
X437230Y431022D02*
X441273D01*
X439001Y429251D02*
X441111D01*
X437584Y430668D02*
X441034D01*
X438647Y429605D02*
X440952D01*
X437938Y430314D02*
X440917D01*
X439983Y459014D02*
X440901D01*
X438293Y429959D02*
X440891D01*
X439983Y461140D02*
X440852D01*
X439983Y459369D02*
X440619D01*
X439983Y460786D02*
X440593D01*
X439983Y459723D02*
X440474D01*
X439983Y460432D02*
X440462D01*
X439983Y460077D02*
X440425D01*
X439703Y439526D02*
X440359D01*
X439350Y439172D02*
X439973D01*
X438996Y438818D02*
X439619D01*
X433472Y464329D02*
X439528D01*
X438642Y438463D02*
X439265D01*
X438287Y438109D02*
X438910D01*
X433619Y463975D02*
X438888D01*
X433669Y463621D02*
X438612D01*
X437933Y437755D02*
X438556D01*
X433633Y463266D02*
X438470D01*
X433503Y462912D02*
X438380D01*
X437579Y437400D02*
X438202D01*
X433247Y462558D02*
X438040D01*
X432695Y462203D02*
X437861D01*
X437224Y437046D02*
X437847D01*
X415781Y461849D02*
X437818D01*
X415618Y461495D02*
X437818D01*
X415305Y461140D02*
X437818D01*
X412310Y460786D02*
X437818D01*
X412308Y460432D02*
X437818D01*
X412217Y460077D02*
X437818D01*
X412018Y459723D02*
X437818D01*
X411630Y459369D02*
X437818D01*
X418391Y459014D02*
X437818D01*
X418911Y458660D02*
X437818D01*
X419266Y458306D02*
X437818D01*
X419620Y457951D02*
X437818D01*
X419974Y457597D02*
X437818D01*
X420329Y457243D02*
X437818D01*
X420683Y456888D02*
X437818D01*
X421037Y456534D02*
X437818D01*
X421392Y456180D02*
X437818D01*
X421746Y455825D02*
X437818D01*
X422080Y455471D02*
X437818D01*
X422209Y455117D02*
X437818D01*
X422214Y454762D02*
X437818D01*
X422214Y454408D02*
X437818D01*
X422214Y454054D02*
X437818D01*
X422214Y453699D02*
X437818D01*
X422214Y453345D02*
X437818D01*
X422214Y452991D02*
X437818D01*
X422214Y452636D02*
X437818D01*
X422214Y452282D02*
X437818D01*
X422214Y451928D02*
X437818D01*
X422214Y451573D02*
X437818D01*
X422214Y451219D02*
X437818D01*
X422214Y450865D02*
X437818D01*
X422214Y450510D02*
X437818D01*
X422214Y450156D02*
X437818D01*
X422214Y449802D02*
X437818D01*
X422214Y449448D02*
X437818D01*
X422214Y449093D02*
X437818D01*
X422214Y448739D02*
X437818D01*
X422214Y448385D02*
X437818D01*
X422214Y448030D02*
X437818D01*
X422214Y447676D02*
X437818D01*
X422214Y447322D02*
X437818D01*
X422214Y446967D02*
X437818D01*
X422214Y446613D02*
X437818D01*
X422214Y446259D02*
X437818D01*
X422214Y445904D02*
X437818D01*
X422214Y445550D02*
X437818D01*
X422214Y445196D02*
X437818D01*
X422214Y444841D02*
X437818D01*
X422214Y444487D02*
X437818D01*
X422214Y444133D02*
X437818D01*
X422214Y443778D02*
X437818D01*
X422214Y443424D02*
X437818D01*
X422171Y443070D02*
X437818D01*
X421931Y442715D02*
X437818D01*
X421576Y442361D02*
X437818D01*
X421222Y442007D02*
X437818D01*
X420868Y441652D02*
X437818D01*
X420513Y441298D02*
X437818D01*
X420159Y440944D02*
X437818D01*
X419805Y440589D02*
X437705D01*
X436870Y436692D02*
X437493D01*
X419450Y440235D02*
X437351D01*
X436516Y436337D02*
X437139D01*
X419096Y439881D02*
X436997D01*
X436161Y435983D02*
X436784D01*
X418742Y439526D02*
X436642D01*
X435807Y435629D02*
X436430D01*
X418387Y439172D02*
X436288D01*
X435607Y435274D02*
X436076D01*
X418033Y438818D02*
X435934D01*
X417679Y438463D02*
X435579D01*
X417617Y438109D02*
X435225D01*
X417617Y437755D02*
X434871D01*
X417617Y437400D02*
X434516D01*
X415844Y462203D02*
X431691D01*
X429789Y462558D02*
X431139D01*
X430272Y462912D02*
X430882D01*
X427836Y432085D02*
X429571D01*
X428657Y431731D02*
X429095D01*
X425981Y462558D02*
X428562D01*
X426821Y462912D02*
X428079D01*
X427120Y463266D02*
X427842D01*
X427274Y463621D02*
X427726D01*
X415821Y462558D02*
X425730D01*
X415706Y462912D02*
X424890D01*
X415816Y463266D02*
X424591D01*
X417854Y463621D02*
X423223D01*
X418252Y463975D02*
X422764D01*
X418456Y464329D02*
X420842D01*
X417617Y437046D02*
X420679D01*
X418550Y464684D02*
X420487D01*
X417617Y436692D02*
X420323D01*
X418555Y465038D02*
X420133D01*
X417617Y436337D02*
X419968D01*
X418472Y465392D02*
X419782D01*
X417617Y435983D02*
X419614D01*
X418283Y465747D02*
X419612D01*
X418002Y466101D02*
X419597D01*
X417617Y435629D02*
X419260D01*
X417617Y435274D02*
X418905D01*
X417617Y434920D02*
X418551D01*
X417617Y434566D02*
X418197D01*
X416173Y463621D02*
X416313D01*
X412224Y461140D02*
X413436D01*
X412349Y461495D02*
X413039D01*
X409616Y459014D02*
X412719D01*
X409262Y458660D02*
X411654D01*
X408987Y458306D02*
X411005D01*
X394882Y476731D02*
X405225D01*
X394882Y476377D02*
X404850D01*
X394882Y476022D02*
X404496D01*
X394882Y475668D02*
X404141D01*
X394882Y475314D02*
X403787D01*
X394882Y474959D02*
X403433D01*
X394882Y474605D02*
X403078D01*
X394882Y474251D02*
X402724D01*
X394882Y473896D02*
X402370D01*
X394882Y473542D02*
X402015D01*
X394886Y473188D02*
X401661D01*
X396308Y472833D02*
X401307D01*
X396455Y472479D02*
X400952D01*
X396497Y472125D02*
X400598D01*
X452097Y460786D02*
X462008D01*
X451779Y460432D02*
X462008D01*
X451772Y460077D02*
X462008D01*
X452451Y461140D02*
X461880D01*
X451772Y459723D02*
X461879D01*
X452805Y461495D02*
X461811D01*
X451772Y459369D02*
X461811D01*
X451888Y459014D02*
X452051D01*
X456515Y451928D02*
X462008D01*
X456161Y451573D02*
X462008D01*
X456870Y452282D02*
X462002D01*
X452885Y451219D02*
X461987D01*
X457224Y452636D02*
X461823D01*
X452508Y450865D02*
X461816D01*
X457578Y452991D02*
X461807D01*
X452241Y450510D02*
X461794D01*
X461053Y430314D02*
X462008D01*
X461408Y429959D02*
X462008D01*
X460699Y430668D02*
X461988D01*
X460345Y431022D02*
X461816D01*
X459990Y431377D02*
X461809D01*
X459636Y431731D02*
X461357D01*
X459282Y432085D02*
X461003D01*
X458927Y432440D02*
X460648D01*
X458526Y432794D02*
X460294D01*
X456967Y433148D02*
X459940D01*
X456613Y433503D02*
X459585D01*
X456258Y433857D02*
X459231D01*
X455914Y434211D02*
X458877D01*
X455888Y434566D02*
X458522D01*
X455888Y434920D02*
X458168D01*
X455888Y435274D02*
X457947D01*
X455888Y439881D02*
X457913D01*
X455888Y439526D02*
X457913D01*
X455888Y439172D02*
X457913D01*
X455888Y438818D02*
X457913D01*
X455888Y438463D02*
X457913D01*
X455888Y438109D02*
X457913D01*
X455888Y437755D02*
X457913D01*
X455888Y437400D02*
X457913D01*
X455888Y437046D02*
X457913D01*
X455888Y436692D02*
X457913D01*
X455888Y436337D02*
X457913D01*
X455888Y435983D02*
X457913D01*
X455888Y435629D02*
X457913D01*
X455888Y440235D02*
X457897D01*
X455888Y440589D02*
X457562D01*
X455889Y440944D02*
X457207D01*
X455985Y441298D02*
X456853D01*
X455999Y441652D02*
X456499D01*
X459561Y426062D02*
X462008D01*
X459916Y425707D02*
X462008D01*
X460270Y425353D02*
X462008D01*
X459207Y426416D02*
X461930D01*
X460624Y424999D02*
X461844D01*
X458853Y426770D02*
X461811D01*
X458498Y427125D02*
X461811D01*
X460978Y424644D02*
X461802D01*
X458144Y427479D02*
X461661D01*
X457790Y427833D02*
X461307D01*
X457435Y428188D02*
X460952D01*
X457081Y428542D02*
X460598D01*
X456727Y428896D02*
X460244D01*
X456372Y429251D02*
X459889D01*
X456018Y429605D02*
X459535D01*
X455664Y429959D02*
X459181D01*
X455309Y430314D02*
X458826D01*
X454955Y430668D02*
X458472D01*
X454601Y431022D02*
X458118D01*
X454246Y431377D02*
X456592D01*
X453892Y431731D02*
X456157D01*
X453538Y432085D02*
X455803D01*
X453183Y432440D02*
X455448D01*
X452829Y432794D02*
X455094D01*
X448155Y443070D02*
X454815D01*
X452475Y433148D02*
X454740D01*
X447243Y443424D02*
X454727D01*
X452120Y433503D02*
X454421D01*
X446999Y443778D02*
X454373D01*
X451766Y433857D02*
X454315D01*
X451301Y439881D02*
X454313D01*
X451386Y439526D02*
X454313D01*
X451387Y439172D02*
X454313D01*
X451387Y438818D02*
X454313D01*
X451387Y438463D02*
X454313D01*
X451387Y438109D02*
X454313D01*
X451387Y437755D02*
X454313D01*
X451387Y437400D02*
X454313D01*
X451387Y437046D02*
X454313D01*
X451387Y436692D02*
X454313D01*
X451387Y436337D02*
X454313D01*
X451387Y435983D02*
X454313D01*
X451387Y435629D02*
X454313D01*
X451387Y435274D02*
X454313D01*
X451387Y434920D02*
X454313D01*
X451387Y434566D02*
X454313D01*
X451418Y434211D02*
X454313D01*
X451019Y440235D02*
X453829D01*
X448539Y442715D02*
X453640D01*
X450665Y440589D02*
X453394D01*
X448893Y442361D02*
X453303D01*
X450311Y440944D02*
X453175D01*
X449248Y442007D02*
X453128D01*
X449956Y441298D02*
X453070D01*
X449602Y441652D02*
X453056D01*
X393701Y393701D02*
X464567D01*
Y503543*
X393701*
Y393701*
G54D240*
X449134Y426772D02*
X451063Y428701D01*
X453189*
X453386Y428504*
X454110*
X457480Y425133*
Y423228*
X449134Y426772D02*
X453031Y422874D01*
Y413110*
X457717Y408425*
X403384Y423424D02*
Y433580D01*
X443425Y433858D02*
X440692Y431125D01*
Y428812*
X443819Y425685*
X445403*
X447283Y423805*
Y422362*
X440433Y433858D02*
X440197Y434094D01*
X442677Y436575*
X446969*
X400669Y420236D02*
Y420709D01*
X401378Y421417*
X400472Y412953D02*
Y416496D01*
X400669Y416693*
Y420236*
X457205Y419291D02*
Y421122D01*
X457480Y421398*
Y423228*
X457205Y419291D02*
Y417224D01*
X457362Y417067*
Y415000*
X447283Y422362D02*
X449409Y420236D01*
Y408819*
X452638Y405984*
X403384Y433580D02*
Y437180D01*
X451969Y441929D02*
Y435433D01*
X457501Y429901*
X445906Y431890D02*
Y431220D01*
X446142*
Y431181*
X449134Y428189*
Y426772*
G54D317*
X426100Y425295D02*
Y424309D01*
X426100D02*
X429905Y420503D01*
Y411413*
X439961Y401358*
Y394094*
X394094Y406299D02*
X396464D01*
X402677Y412513*
Y420394*
X405669Y423386*
Y437874*
X407874Y440079*
G54D326*
X394094Y475591D03*
Y471260D03*
Y466929D03*
Y462598D03*
Y458268D03*
Y453937D03*
Y449606D03*
Y445276D03*
Y440945D03*
Y436614D03*
Y432283D03*
Y427953D03*
Y423622D03*
Y419291D03*
Y414961D03*
Y410630D03*
Y406299D03*
Y401969D03*
X464173D03*
Y406299D03*
Y410630D03*
Y414961D03*
Y419291D03*
Y423622D03*
Y427953D03*
Y432283D03*
Y436614D03*
Y440945D03*
Y445276D03*
Y449606D03*
Y453937D03*
Y458268D03*
Y462598D03*
Y466929D03*
Y471260D03*
Y475591D03*
X394094D03*
Y471260D03*
Y466929D03*
Y462598D03*
Y458268D03*
Y453937D03*
Y449606D03*
Y445276D03*
Y440945D03*
Y436614D03*
Y432283D03*
Y427953D03*
Y423622D03*
Y419291D03*
Y414961D03*
Y410630D03*
Y406299D03*
Y401969D03*
X464173D03*
Y406299D03*
Y410630D03*
Y414961D03*
Y419291D03*
Y423622D03*
Y427953D03*
Y432283D03*
Y436614D03*
Y440945D03*
Y445276D03*
Y449606D03*
Y453937D03*
Y458268D03*
Y462598D03*
Y466929D03*
Y471260D03*
Y475591D03*
G54D329*
X405315Y394094D03*
X409646D03*
X413976D03*
X418307D03*
X422638D03*
X426969D03*
X431299D03*
X435630D03*
X439961D03*
X444291D03*
X448622D03*
X452953D03*
X400984D03*
X457283D03*
X405315D03*
X409646D03*
X413976D03*
X418307D03*
X422638D03*
X426969D03*
X431299D03*
X435630D03*
X439961D03*
X444291D03*
X448622D03*
X452953D03*
X400984D03*
X457283D03*
G54D416*
X421614Y430630D02*
X421487Y430757D01*
X424787Y434057*
X436390*
X440955Y438622*
X445787*
X417402Y431732D02*
X417148Y431986D01*
X421407Y436245*
X434892*
X438901Y440254*
Y461901*
X439901Y462901*
G54D418*
X446260Y442323D02*
X447679D01*
X450501Y439501*
Y433869*
X460748Y423622*
X464173*
G54D421*
X395909Y395949D03*
X397901Y396701D03*
X395717Y398425D03*
X460901Y396901D03*
X462598Y395748D03*
X454528Y441535D03*
X409904Y454528D03*
X411732Y453346D03*
X409961Y452008D03*
X417126Y470039D03*
X414882Y464409D03*
X423780Y412835D03*
X441299Y415276D03*
X441378Y410354D03*
X442366Y430030D03*
X443740Y446024D03*
X445901Y446301D03*
X443346Y449016D03*
X445901Y449501D03*
X448301Y450101D03*
X451701Y452101D03*
X441901Y460101D03*
X451969Y427008D03*
X453583Y425551D03*
X410843Y460618D03*
X409943Y449004D03*
X411496Y447283D03*
X445354Y428858D03*
X444101Y455301D03*
X447101Y455101D03*
X449301Y454701D03*
X441811Y405394D03*
X446260Y442323D03*
X430197Y430748D03*
X428031Y430394D03*
X412014Y457228D03*
X411850Y450276D03*
X407874Y440079D03*
X418740Y467717D03*
X414370Y462283D03*
X417087Y464882D03*
X416654Y467047D03*
X430751Y465389D03*
X432193Y463592D03*
X423878Y464944D03*
X425855Y464029D03*
X427554Y465383D03*
X429176Y463901D03*
X417402Y431732D03*
X439901Y462901D03*
X421614Y430630D03*
X445787Y438622D03*
X426100Y425295D03*
X423819Y417795D03*
X426378Y431850D03*
X409838Y456763D03*
X423661Y407874D03*
X437559Y425039D03*
X421024Y400787D03*
X438307Y418858D03*
X438228Y409291D03*
X438307Y414291D03*
X456501Y464101D03*
X457301Y475901D03*
X436691Y471005D03*
X423299Y425440D03*
X410328Y467312D03*
X435272Y469764D03*
X435301Y472581D03*
X436123Y476250D03*
X433913Y474851D03*
X453884Y478380D03*
X449213Y431693D03*
X449803Y429370D03*
X430989Y470295D03*
X444865Y471608D03*
X440844Y476348D03*
X422258Y466390D03*
X414646Y468189D03*
X400512Y476299D03*
X400669Y473504D03*
Y420236D03*
X403384Y437180D03*
X400472Y412953D03*
X401220Y408386D03*
X410236Y407778D03*
X410200Y414161D03*
X409646Y417087D03*
X407901Y403501D03*
X407598Y400866D03*
X411811Y400827D03*
X415906Y401024D03*
X425079Y400709D03*
X429213Y400551D03*
X418425Y437613D03*
X429134Y409291D03*
X427323Y412756D03*
Y415945D03*
X427165Y420236D03*
X432480Y419961D03*
X433543Y400866D03*
X437087Y400984D03*
X431435Y425270D03*
X436024Y420039D03*
X442244Y400787D03*
X446417Y400630D03*
X450827Y400709D03*
X455301Y403101D03*
X462638Y398937D03*
X400433Y400906D03*
X456654Y401772D03*
X453901Y404701D03*
X457501Y429901D03*
X459094Y419291D03*
X457480Y423228D03*
X457205Y419291D03*
X457362Y415000D03*
X446969Y436575D03*
X452638Y405984D03*
X440433Y433858D03*
X457501Y451501D03*
X449252Y461142D03*
X447598Y459764D03*
X437126Y442638D03*
Y447559D03*
Y451969D03*
X457501Y456301D03*
X454901Y455301D03*
X456701Y460501D03*
X452901Y456501D03*
X445866Y463307D03*
X453071Y460354D03*
X452301Y464101D03*
X445101Y476501D03*
X450658Y473747D03*
X450701Y476098D03*
X451484Y478380D03*
X459584D03*
X462584D03*
X453228Y472756D03*
X447480Y464646D03*
X443465Y465354D03*
X457301Y434301D03*
X457717Y408425D03*
X440945Y422283D03*
X438701Y423071D03*
X447283Y422362D03*
X401098Y447381D03*
X403384Y433580D03*
X411560Y434661D03*
X409882Y405433D03*
X451969Y441929D03*
X425481Y473529D03*
X435354Y466614D03*
X445906Y431890D03*
X443425Y433858D03*
X456584Y478380D03*
X412809Y425096D03*
X417362Y444843D03*
Y453386D03*
X437087Y457205D03*
X423804Y438156D03*
X423819Y445039D03*
X423622Y451850D03*
X423425Y457087D03*
X430591Y457205D03*
Y452126D03*
X430788Y438125D03*
X430472Y447283D03*
X434173Y452126D03*
X434134Y457244D03*
X442122Y469471D03*
X430709Y442402D03*
X434094Y447480D03*
Y442677D03*
X434061Y438125D03*
X427087Y457087D03*
X426929Y452087D03*
X427087Y447402D03*
Y442717D03*
X427206Y438197D03*
X417323Y449528D03*
X417598Y456772D03*
X408858Y419134D03*
X419646Y431890D03*
X427992Y478937D03*
X405301Y478901D03*
X396301D03*
X444501D03*
X439921Y478898D03*
X433898D03*
X422244Y478937D03*
X415276Y478976D03*
X410236Y478937D03*
X401101Y478901D03*
G74*
X0Y0D02*
M02*
