*
*
G04 PADS 9.5 Build Number: 522968 generated Gerber (RS-274-X) file*
G04 PC Version=2.1*
*
%IN "SF32LB52-MOD-1_PCB_V1.0"*%
*
%MOIN*%
*
%FSLAX35Y35*%
*
*
*
*
G04 PC Standard Apertures*
*
*
G04 Thermal Relief Aperture macro.*
%AMTER*
1,1,$1,0,0*
1,0,$1-$2,0,0*
21,0,$3,$4,0,0,45*
21,0,$3,$4,0,0,135*
%
*
*
G04 Annular Aperture macro.*
%AMANN*
1,1,$1,0,0*
1,0,$2,0,0*
%
*
*
G04 Odd Aperture macro.*
%AMODD*
1,1,$1,0,0*
1,0,$1-0.005,0,0*
%
*
*
G04 PC Custom Aperture Macros*
*
*
*
*
*
*
G04 PC Aperture Table*
*
%ADD010C,0.001*%
%ADD158C,0.00394*%
%ADD326R,0.03543X0.02362*%
%ADD329R,0.02362X0.03543*%
%ADD418C,0.00591*%
%ADD421C,0.01772*%
%ADD422R,0.03937X0.02756*%
*
*
*
*
G04 PC Circuitry*
G04 Layer Name SF32LB52-MOD-1_PCB_V1.0 - circuitry*
%LPD*%
*
*
G04 PC Custom Flashes*
G04 Layer Name SF32LB52-MOD-1_PCB_V1.0 - flashes*
%LPD*%
*
*
G04 PC Circuitry*
G04 Layer Name SF32LB52-MOD-1_PCB_V1.0 - circuitry*
%LPD*%
*
G54D10*
G54D158*
G01X399016Y476575D02*
X392520D01*
Y474606*
X399016*
Y476575*
X392520Y474606D02*
Y476575D01*
X392717Y474606D02*
Y476575D01*
X392913Y474606D02*
Y476575D01*
X393110Y474606D02*
Y476575D01*
X393307Y474606D02*
Y476575D01*
X393504Y474606D02*
Y476575D01*
X393701Y474606D02*
Y476575D01*
X393898Y474606D02*
Y476575D01*
X394094Y474606D02*
Y476575D01*
X394291Y474606D02*
Y476575D01*
X394488Y474606D02*
Y476575D01*
X394685Y474606D02*
Y476575D01*
X394882Y474606D02*
Y476575D01*
X395079Y474606D02*
Y476575D01*
X395276Y474606D02*
Y476575D01*
X395472Y474606D02*
Y476575D01*
X395669Y474606D02*
Y476575D01*
X395866Y474606D02*
Y476575D01*
X396063Y474606D02*
Y476575D01*
X396260Y474606D02*
Y476575D01*
X396457Y474606D02*
Y476575D01*
X396654Y474606D02*
Y476575D01*
X396850Y474606D02*
Y476575D01*
X397047Y474606D02*
Y476575D01*
X397244Y474606D02*
Y476575D01*
X397441Y474606D02*
Y476575D01*
X397638Y474606D02*
Y476575D01*
X397835Y474606D02*
Y476575D01*
X398031Y474606D02*
Y476575D01*
X398228Y474606D02*
Y476575D01*
X398425Y474606D02*
Y476575D01*
X398622Y474606D02*
Y476575D01*
X398819Y474606D02*
Y476575D01*
X399016Y472244D02*
X392520D01*
Y470276*
X399016*
Y472244*
X392520Y470276D02*
Y472244D01*
X392717Y470276D02*
Y472244D01*
X392913Y470276D02*
Y472244D01*
X393110Y470276D02*
Y472244D01*
X393307Y470276D02*
Y472244D01*
X393504Y470276D02*
Y472244D01*
X393701Y470276D02*
Y472244D01*
X393898Y470276D02*
Y472244D01*
X394094Y470276D02*
Y472244D01*
X394291Y470276D02*
Y472244D01*
X394488Y470276D02*
Y472244D01*
X394685Y470276D02*
Y472244D01*
X394882Y470276D02*
Y472244D01*
X395079Y470276D02*
Y472244D01*
X395276Y470276D02*
Y472244D01*
X395472Y470276D02*
Y472244D01*
X395669Y470276D02*
Y472244D01*
X395866Y470276D02*
Y472244D01*
X396063Y470276D02*
Y472244D01*
X396260Y470276D02*
Y472244D01*
X396457Y470276D02*
Y472244D01*
X396654Y470276D02*
Y472244D01*
X396850Y470276D02*
Y472244D01*
X397047Y470276D02*
Y472244D01*
X397244Y470276D02*
Y472244D01*
X397441Y470276D02*
Y472244D01*
X397638Y470276D02*
Y472244D01*
X397835Y470276D02*
Y472244D01*
X398031Y470276D02*
Y472244D01*
X398228Y470276D02*
Y472244D01*
X398425Y470276D02*
Y472244D01*
X398622Y470276D02*
Y472244D01*
X398819Y470276D02*
Y472244D01*
X399016Y467913D02*
X392520D01*
Y465945*
X399016*
Y467913*
X392520Y465945D02*
Y467913D01*
X392717Y465945D02*
Y467913D01*
X392913Y465945D02*
Y467913D01*
X393110Y465945D02*
Y467913D01*
X393307Y465945D02*
Y467913D01*
X393504Y465945D02*
Y467913D01*
X393701Y465945D02*
Y467913D01*
X393898Y465945D02*
Y467913D01*
X394094Y465945D02*
Y467913D01*
X394291Y465945D02*
Y467913D01*
X394488Y465945D02*
Y467913D01*
X394685Y465945D02*
Y467913D01*
X394882Y465945D02*
Y467913D01*
X395079Y465945D02*
Y467913D01*
X395276Y465945D02*
Y467913D01*
X395472Y465945D02*
Y467913D01*
X395669Y465945D02*
Y467913D01*
X395866Y465945D02*
Y467913D01*
X396063Y465945D02*
Y467913D01*
X396260Y465945D02*
Y467913D01*
X396457Y465945D02*
Y467913D01*
X396654Y465945D02*
Y467913D01*
X396850Y465945D02*
Y467913D01*
X397047Y465945D02*
Y467913D01*
X397244Y465945D02*
Y467913D01*
X397441Y465945D02*
Y467913D01*
X397638Y465945D02*
Y467913D01*
X397835Y465945D02*
Y467913D01*
X398031Y465945D02*
Y467913D01*
X398228Y465945D02*
Y467913D01*
X398425Y465945D02*
Y467913D01*
X398622Y465945D02*
Y467913D01*
X398819Y465945D02*
Y467913D01*
X399016Y463583D02*
X392520D01*
Y461614*
X399016*
Y463583*
X392520Y461614D02*
Y463583D01*
X392717Y461614D02*
Y463583D01*
X392913Y461614D02*
Y463583D01*
X393110Y461614D02*
Y463583D01*
X393307Y461614D02*
Y463583D01*
X393504Y461614D02*
Y463583D01*
X393701Y461614D02*
Y463583D01*
X393898Y461614D02*
Y463583D01*
X394094Y461614D02*
Y463583D01*
X394291Y461614D02*
Y463583D01*
X394488Y461614D02*
Y463583D01*
X394685Y461614D02*
Y463583D01*
X394882Y461614D02*
Y463583D01*
X395079Y461614D02*
Y463583D01*
X395276Y461614D02*
Y463583D01*
X395472Y461614D02*
Y463583D01*
X395669Y461614D02*
Y463583D01*
X395866Y461614D02*
Y463583D01*
X396063Y461614D02*
Y463583D01*
X396260Y461614D02*
Y463583D01*
X396457Y461614D02*
Y463583D01*
X396654Y461614D02*
Y463583D01*
X396850Y461614D02*
Y463583D01*
X397047Y461614D02*
Y463583D01*
X397244Y461614D02*
Y463583D01*
X397441Y461614D02*
Y463583D01*
X397638Y461614D02*
Y463583D01*
X397835Y461614D02*
Y463583D01*
X398031Y461614D02*
Y463583D01*
X398228Y461614D02*
Y463583D01*
X398425Y461614D02*
Y463583D01*
X398622Y461614D02*
Y463583D01*
X398819Y461614D02*
Y463583D01*
X399016Y459252D02*
X392520D01*
Y457283*
X399016*
Y459252*
X392520Y457283D02*
Y459252D01*
X392717Y457283D02*
Y459252D01*
X392913Y457283D02*
Y459252D01*
X393110Y457283D02*
Y459252D01*
X393307Y457283D02*
Y459252D01*
X393504Y457283D02*
Y459252D01*
X393701Y457283D02*
Y459252D01*
X393898Y457283D02*
Y459252D01*
X394094Y457283D02*
Y459252D01*
X394291Y457283D02*
Y459252D01*
X394488Y457283D02*
Y459252D01*
X394685Y457283D02*
Y459252D01*
X394882Y457283D02*
Y459252D01*
X395079Y457283D02*
Y459252D01*
X395276Y457283D02*
Y459252D01*
X395472Y457283D02*
Y459252D01*
X395669Y457283D02*
Y459252D01*
X395866Y457283D02*
Y459252D01*
X396063Y457283D02*
Y459252D01*
X396260Y457283D02*
Y459252D01*
X396457Y457283D02*
Y459252D01*
X396654Y457283D02*
Y459252D01*
X396850Y457283D02*
Y459252D01*
X397047Y457283D02*
Y459252D01*
X397244Y457283D02*
Y459252D01*
X397441Y457283D02*
Y459252D01*
X397638Y457283D02*
Y459252D01*
X397835Y457283D02*
Y459252D01*
X398031Y457283D02*
Y459252D01*
X398228Y457283D02*
Y459252D01*
X398425Y457283D02*
Y459252D01*
X398622Y457283D02*
Y459252D01*
X398819Y457283D02*
Y459252D01*
X399016Y454921D02*
X392520D01*
Y452953*
X399016*
Y454921*
X392520Y452953D02*
Y454921D01*
X392717Y452953D02*
Y454921D01*
X392913Y452953D02*
Y454921D01*
X393110Y452953D02*
Y454921D01*
X393307Y452953D02*
Y454921D01*
X393504Y452953D02*
Y454921D01*
X393701Y452953D02*
Y454921D01*
X393898Y452953D02*
Y454921D01*
X394094Y452953D02*
Y454921D01*
X394291Y452953D02*
Y454921D01*
X394488Y452953D02*
Y454921D01*
X394685Y452953D02*
Y454921D01*
X394882Y452953D02*
Y454921D01*
X395079Y452953D02*
Y454921D01*
X395276Y452953D02*
Y454921D01*
X395472Y452953D02*
Y454921D01*
X395669Y452953D02*
Y454921D01*
X395866Y452953D02*
Y454921D01*
X396063Y452953D02*
Y454921D01*
X396260Y452953D02*
Y454921D01*
X396457Y452953D02*
Y454921D01*
X396654Y452953D02*
Y454921D01*
X396850Y452953D02*
Y454921D01*
X397047Y452953D02*
Y454921D01*
X397244Y452953D02*
Y454921D01*
X397441Y452953D02*
Y454921D01*
X397638Y452953D02*
Y454921D01*
X397835Y452953D02*
Y454921D01*
X398031Y452953D02*
Y454921D01*
X398228Y452953D02*
Y454921D01*
X398425Y452953D02*
Y454921D01*
X398622Y452953D02*
Y454921D01*
X398819Y452953D02*
Y454921D01*
X399016Y450591D02*
X392520D01*
Y448622*
X399016*
Y450591*
X392520Y448622D02*
Y450591D01*
X392717Y448622D02*
Y450591D01*
X392913Y448622D02*
Y450591D01*
X393110Y448622D02*
Y450591D01*
X393307Y448622D02*
Y450591D01*
X393504Y448622D02*
Y450591D01*
X393701Y448622D02*
Y450591D01*
X393898Y448622D02*
Y450591D01*
X394094Y448622D02*
Y450591D01*
X394291Y448622D02*
Y450591D01*
X394488Y448622D02*
Y450591D01*
X394685Y448622D02*
Y450591D01*
X394882Y448622D02*
Y450591D01*
X395079Y448622D02*
Y450591D01*
X395276Y448622D02*
Y450591D01*
X395472Y448622D02*
Y450591D01*
X395669Y448622D02*
Y450591D01*
X395866Y448622D02*
Y450591D01*
X396063Y448622D02*
Y450591D01*
X396260Y448622D02*
Y450591D01*
X396457Y448622D02*
Y450591D01*
X396654Y448622D02*
Y450591D01*
X396850Y448622D02*
Y450591D01*
X397047Y448622D02*
Y450591D01*
X397244Y448622D02*
Y450591D01*
X397441Y448622D02*
Y450591D01*
X397638Y448622D02*
Y450591D01*
X397835Y448622D02*
Y450591D01*
X398031Y448622D02*
Y450591D01*
X398228Y448622D02*
Y450591D01*
X398425Y448622D02*
Y450591D01*
X398622Y448622D02*
Y450591D01*
X398819Y448622D02*
Y450591D01*
X399016Y446260D02*
X392520D01*
Y444291*
X399016*
Y446260*
X392520Y444291D02*
Y446260D01*
X392717Y444291D02*
Y446260D01*
X392913Y444291D02*
Y446260D01*
X393110Y444291D02*
Y446260D01*
X393307Y444291D02*
Y446260D01*
X393504Y444291D02*
Y446260D01*
X393701Y444291D02*
Y446260D01*
X393898Y444291D02*
Y446260D01*
X394094Y444291D02*
Y446260D01*
X394291Y444291D02*
Y446260D01*
X394488Y444291D02*
Y446260D01*
X394685Y444291D02*
Y446260D01*
X394882Y444291D02*
Y446260D01*
X395079Y444291D02*
Y446260D01*
X395276Y444291D02*
Y446260D01*
X395472Y444291D02*
Y446260D01*
X395669Y444291D02*
Y446260D01*
X395866Y444291D02*
Y446260D01*
X396063Y444291D02*
Y446260D01*
X396260Y444291D02*
Y446260D01*
X396457Y444291D02*
Y446260D01*
X396654Y444291D02*
Y446260D01*
X396850Y444291D02*
Y446260D01*
X397047Y444291D02*
Y446260D01*
X397244Y444291D02*
Y446260D01*
X397441Y444291D02*
Y446260D01*
X397638Y444291D02*
Y446260D01*
X397835Y444291D02*
Y446260D01*
X398031Y444291D02*
Y446260D01*
X398228Y444291D02*
Y446260D01*
X398425Y444291D02*
Y446260D01*
X398622Y444291D02*
Y446260D01*
X398819Y444291D02*
Y446260D01*
X399016Y441929D02*
X392520D01*
Y439961*
X399016*
Y441929*
X392520Y439961D02*
Y441929D01*
X392717Y439961D02*
Y441929D01*
X392913Y439961D02*
Y441929D01*
X393110Y439961D02*
Y441929D01*
X393307Y439961D02*
Y441929D01*
X393504Y439961D02*
Y441929D01*
X393701Y439961D02*
Y441929D01*
X393898Y439961D02*
Y441929D01*
X394094Y439961D02*
Y441929D01*
X394291Y439961D02*
Y441929D01*
X394488Y439961D02*
Y441929D01*
X394685Y439961D02*
Y441929D01*
X394882Y439961D02*
Y441929D01*
X395079Y439961D02*
Y441929D01*
X395276Y439961D02*
Y441929D01*
X395472Y439961D02*
Y441929D01*
X395669Y439961D02*
Y441929D01*
X395866Y439961D02*
Y441929D01*
X396063Y439961D02*
Y441929D01*
X396260Y439961D02*
Y441929D01*
X396457Y439961D02*
Y441929D01*
X396654Y439961D02*
Y441929D01*
X396850Y439961D02*
Y441929D01*
X397047Y439961D02*
Y441929D01*
X397244Y439961D02*
Y441929D01*
X397441Y439961D02*
Y441929D01*
X397638Y439961D02*
Y441929D01*
X397835Y439961D02*
Y441929D01*
X398031Y439961D02*
Y441929D01*
X398228Y439961D02*
Y441929D01*
X398425Y439961D02*
Y441929D01*
X398622Y439961D02*
Y441929D01*
X398819Y439961D02*
Y441929D01*
X399016Y437598D02*
X392520D01*
Y435630*
X399016*
Y437598*
X392520Y435630D02*
Y437598D01*
X392717Y435630D02*
Y437598D01*
X392913Y435630D02*
Y437598D01*
X393110Y435630D02*
Y437598D01*
X393307Y435630D02*
Y437598D01*
X393504Y435630D02*
Y437598D01*
X393701Y435630D02*
Y437598D01*
X393898Y435630D02*
Y437598D01*
X394094Y435630D02*
Y437598D01*
X394291Y435630D02*
Y437598D01*
X394488Y435630D02*
Y437598D01*
X394685Y435630D02*
Y437598D01*
X394882Y435630D02*
Y437598D01*
X395079Y435630D02*
Y437598D01*
X395276Y435630D02*
Y437598D01*
X395472Y435630D02*
Y437598D01*
X395669Y435630D02*
Y437598D01*
X395866Y435630D02*
Y437598D01*
X396063Y435630D02*
Y437598D01*
X396260Y435630D02*
Y437598D01*
X396457Y435630D02*
Y437598D01*
X396654Y435630D02*
Y437598D01*
X396850Y435630D02*
Y437598D01*
X397047Y435630D02*
Y437598D01*
X397244Y435630D02*
Y437598D01*
X397441Y435630D02*
Y437598D01*
X397638Y435630D02*
Y437598D01*
X397835Y435630D02*
Y437598D01*
X398031Y435630D02*
Y437598D01*
X398228Y435630D02*
Y437598D01*
X398425Y435630D02*
Y437598D01*
X398622Y435630D02*
Y437598D01*
X398819Y435630D02*
Y437598D01*
X399016Y433268D02*
X392520D01*
Y431299*
X399016*
Y433268*
X392520Y431299D02*
Y433268D01*
X392717Y431299D02*
Y433268D01*
X392913Y431299D02*
Y433268D01*
X393110Y431299D02*
Y433268D01*
X393307Y431299D02*
Y433268D01*
X393504Y431299D02*
Y433268D01*
X393701Y431299D02*
Y433268D01*
X393898Y431299D02*
Y433268D01*
X394094Y431299D02*
Y433268D01*
X394291Y431299D02*
Y433268D01*
X394488Y431299D02*
Y433268D01*
X394685Y431299D02*
Y433268D01*
X394882Y431299D02*
Y433268D01*
X395079Y431299D02*
Y433268D01*
X395276Y431299D02*
Y433268D01*
X395472Y431299D02*
Y433268D01*
X395669Y431299D02*
Y433268D01*
X395866Y431299D02*
Y433268D01*
X396063Y431299D02*
Y433268D01*
X396260Y431299D02*
Y433268D01*
X396457Y431299D02*
Y433268D01*
X396654Y431299D02*
Y433268D01*
X396850Y431299D02*
Y433268D01*
X397047Y431299D02*
Y433268D01*
X397244Y431299D02*
Y433268D01*
X397441Y431299D02*
Y433268D01*
X397638Y431299D02*
Y433268D01*
X397835Y431299D02*
Y433268D01*
X398031Y431299D02*
Y433268D01*
X398228Y431299D02*
Y433268D01*
X398425Y431299D02*
Y433268D01*
X398622Y431299D02*
Y433268D01*
X398819Y431299D02*
Y433268D01*
X399016Y428937D02*
X392520D01*
Y426969*
X399016*
Y428937*
X392520Y426969D02*
Y428937D01*
X392717Y426969D02*
Y428937D01*
X392913Y426969D02*
Y428937D01*
X393110Y426969D02*
Y428937D01*
X393307Y426969D02*
Y428937D01*
X393504Y426969D02*
Y428937D01*
X393701Y426969D02*
Y428937D01*
X393898Y426969D02*
Y428937D01*
X394094Y426969D02*
Y428937D01*
X394291Y426969D02*
Y428937D01*
X394488Y426969D02*
Y428937D01*
X394685Y426969D02*
Y428937D01*
X394882Y426969D02*
Y428937D01*
X395079Y426969D02*
Y428937D01*
X395276Y426969D02*
Y428937D01*
X395472Y426969D02*
Y428937D01*
X395669Y426969D02*
Y428937D01*
X395866Y426969D02*
Y428937D01*
X396063Y426969D02*
Y428937D01*
X396260Y426969D02*
Y428937D01*
X396457Y426969D02*
Y428937D01*
X396654Y426969D02*
Y428937D01*
X396850Y426969D02*
Y428937D01*
X397047Y426969D02*
Y428937D01*
X397244Y426969D02*
Y428937D01*
X397441Y426969D02*
Y428937D01*
X397638Y426969D02*
Y428937D01*
X397835Y426969D02*
Y428937D01*
X398031Y426969D02*
Y428937D01*
X398228Y426969D02*
Y428937D01*
X398425Y426969D02*
Y428937D01*
X398622Y426969D02*
Y428937D01*
X398819Y426969D02*
Y428937D01*
X399016Y424606D02*
X392520D01*
Y422638*
X399016*
Y424606*
X392520Y422638D02*
Y424606D01*
X392717Y422638D02*
Y424606D01*
X392913Y422638D02*
Y424606D01*
X393110Y422638D02*
Y424606D01*
X393307Y422638D02*
Y424606D01*
X393504Y422638D02*
Y424606D01*
X393701Y422638D02*
Y424606D01*
X393898Y422638D02*
Y424606D01*
X394094Y422638D02*
Y424606D01*
X394291Y422638D02*
Y424606D01*
X394488Y422638D02*
Y424606D01*
X394685Y422638D02*
Y424606D01*
X394882Y422638D02*
Y424606D01*
X395079Y422638D02*
Y424606D01*
X395276Y422638D02*
Y424606D01*
X395472Y422638D02*
Y424606D01*
X395669Y422638D02*
Y424606D01*
X395866Y422638D02*
Y424606D01*
X396063Y422638D02*
Y424606D01*
X396260Y422638D02*
Y424606D01*
X396457Y422638D02*
Y424606D01*
X396654Y422638D02*
Y424606D01*
X396850Y422638D02*
Y424606D01*
X397047Y422638D02*
Y424606D01*
X397244Y422638D02*
Y424606D01*
X397441Y422638D02*
Y424606D01*
X397638Y422638D02*
Y424606D01*
X397835Y422638D02*
Y424606D01*
X398031Y422638D02*
Y424606D01*
X398228Y422638D02*
Y424606D01*
X398425Y422638D02*
Y424606D01*
X398622Y422638D02*
Y424606D01*
X398819Y422638D02*
Y424606D01*
X399016Y420276D02*
X392520D01*
Y418307*
X399016*
Y420276*
X392520Y418307D02*
Y420276D01*
X392717Y418307D02*
Y420276D01*
X392913Y418307D02*
Y420276D01*
X393110Y418307D02*
Y420276D01*
X393307Y418307D02*
Y420276D01*
X393504Y418307D02*
Y420276D01*
X393701Y418307D02*
Y420276D01*
X393898Y418307D02*
Y420276D01*
X394094Y418307D02*
Y420276D01*
X394291Y418307D02*
Y420276D01*
X394488Y418307D02*
Y420276D01*
X394685Y418307D02*
Y420276D01*
X394882Y418307D02*
Y420276D01*
X395079Y418307D02*
Y420276D01*
X395276Y418307D02*
Y420276D01*
X395472Y418307D02*
Y420276D01*
X395669Y418307D02*
Y420276D01*
X395866Y418307D02*
Y420276D01*
X396063Y418307D02*
Y420276D01*
X396260Y418307D02*
Y420276D01*
X396457Y418307D02*
Y420276D01*
X396654Y418307D02*
Y420276D01*
X396850Y418307D02*
Y420276D01*
X397047Y418307D02*
Y420276D01*
X397244Y418307D02*
Y420276D01*
X397441Y418307D02*
Y420276D01*
X397638Y418307D02*
Y420276D01*
X397835Y418307D02*
Y420276D01*
X398031Y418307D02*
Y420276D01*
X398228Y418307D02*
Y420276D01*
X398425Y418307D02*
Y420276D01*
X398622Y418307D02*
Y420276D01*
X398819Y418307D02*
Y420276D01*
X399016Y415945D02*
X392520D01*
Y413976*
X399016*
Y415945*
X392520Y413976D02*
Y415945D01*
X392717Y413976D02*
Y415945D01*
X392913Y413976D02*
Y415945D01*
X393110Y413976D02*
Y415945D01*
X393307Y413976D02*
Y415945D01*
X393504Y413976D02*
Y415945D01*
X393701Y413976D02*
Y415945D01*
X393898Y413976D02*
Y415945D01*
X394094Y413976D02*
Y415945D01*
X394291Y413976D02*
Y415945D01*
X394488Y413976D02*
Y415945D01*
X394685Y413976D02*
Y415945D01*
X394882Y413976D02*
Y415945D01*
X395079Y413976D02*
Y415945D01*
X395276Y413976D02*
Y415945D01*
X395472Y413976D02*
Y415945D01*
X395669Y413976D02*
Y415945D01*
X395866Y413976D02*
Y415945D01*
X396063Y413976D02*
Y415945D01*
X396260Y413976D02*
Y415945D01*
X396457Y413976D02*
Y415945D01*
X396654Y413976D02*
Y415945D01*
X396850Y413976D02*
Y415945D01*
X397047Y413976D02*
Y415945D01*
X397244Y413976D02*
Y415945D01*
X397441Y413976D02*
Y415945D01*
X397638Y413976D02*
Y415945D01*
X397835Y413976D02*
Y415945D01*
X398031Y413976D02*
Y415945D01*
X398228Y413976D02*
Y415945D01*
X398425Y413976D02*
Y415945D01*
X398622Y413976D02*
Y415945D01*
X398819Y413976D02*
Y415945D01*
X399016Y411614D02*
X392520D01*
Y409646*
X399016*
Y411614*
X392520Y409646D02*
Y411614D01*
X392717Y409646D02*
Y411614D01*
X392913Y409646D02*
Y411614D01*
X393110Y409646D02*
Y411614D01*
X393307Y409646D02*
Y411614D01*
X393504Y409646D02*
Y411614D01*
X393701Y409646D02*
Y411614D01*
X393898Y409646D02*
Y411614D01*
X394094Y409646D02*
Y411614D01*
X394291Y409646D02*
Y411614D01*
X394488Y409646D02*
Y411614D01*
X394685Y409646D02*
Y411614D01*
X394882Y409646D02*
Y411614D01*
X395079Y409646D02*
Y411614D01*
X395276Y409646D02*
Y411614D01*
X395472Y409646D02*
Y411614D01*
X395669Y409646D02*
Y411614D01*
X395866Y409646D02*
Y411614D01*
X396063Y409646D02*
Y411614D01*
X396260Y409646D02*
Y411614D01*
X396457Y409646D02*
Y411614D01*
X396654Y409646D02*
Y411614D01*
X396850Y409646D02*
Y411614D01*
X397047Y409646D02*
Y411614D01*
X397244Y409646D02*
Y411614D01*
X397441Y409646D02*
Y411614D01*
X397638Y409646D02*
Y411614D01*
X397835Y409646D02*
Y411614D01*
X398031Y409646D02*
Y411614D01*
X398228Y409646D02*
Y411614D01*
X398425Y409646D02*
Y411614D01*
X398622Y409646D02*
Y411614D01*
X398819Y409646D02*
Y411614D01*
X399016Y407283D02*
X392520D01*
Y405315*
X399016*
Y407283*
X392520Y405315D02*
Y407283D01*
X392717Y405315D02*
Y407283D01*
X392913Y405315D02*
Y407283D01*
X393110Y405315D02*
Y407283D01*
X393307Y405315D02*
Y407283D01*
X393504Y405315D02*
Y407283D01*
X393701Y405315D02*
Y407283D01*
X393898Y405315D02*
Y407283D01*
X394094Y405315D02*
Y407283D01*
X394291Y405315D02*
Y407283D01*
X394488Y405315D02*
Y407283D01*
X394685Y405315D02*
Y407283D01*
X394882Y405315D02*
Y407283D01*
X395079Y405315D02*
Y407283D01*
X395276Y405315D02*
Y407283D01*
X395472Y405315D02*
Y407283D01*
X395669Y405315D02*
Y407283D01*
X395866Y405315D02*
Y407283D01*
X396063Y405315D02*
Y407283D01*
X396260Y405315D02*
Y407283D01*
X396457Y405315D02*
Y407283D01*
X396654Y405315D02*
Y407283D01*
X396850Y405315D02*
Y407283D01*
X397047Y405315D02*
Y407283D01*
X397244Y405315D02*
Y407283D01*
X397441Y405315D02*
Y407283D01*
X397638Y405315D02*
Y407283D01*
X397835Y405315D02*
Y407283D01*
X398031Y405315D02*
Y407283D01*
X398228Y405315D02*
Y407283D01*
X398425Y405315D02*
Y407283D01*
X398622Y405315D02*
Y407283D01*
X398819Y405315D02*
Y407283D01*
X399213Y402444D02*
Y402953D01*
X392717*
Y400984*
X397753*
X399213Y402444*
X392717Y400984D02*
Y402953D01*
X392913Y400984D02*
Y402953D01*
X393110Y400984D02*
Y402953D01*
X393307Y400984D02*
Y402953D01*
X393504Y400984D02*
Y402953D01*
X393701Y400984D02*
Y402953D01*
X393898Y400984D02*
Y402953D01*
X394094Y400984D02*
Y402953D01*
X394291Y400984D02*
Y402953D01*
X394488Y400984D02*
Y402953D01*
X394685Y400984D02*
Y402953D01*
X394882Y400984D02*
Y402953D01*
X395079Y400984D02*
Y402953D01*
X395276Y400984D02*
Y402953D01*
X395472Y400984D02*
Y402953D01*
X395669Y400984D02*
Y402953D01*
X395866Y400984D02*
Y402953D01*
X396063Y400984D02*
Y402953D01*
X396260Y400984D02*
Y402953D01*
X396457Y400984D02*
Y402953D01*
X396654Y400984D02*
Y402953D01*
X396850Y400984D02*
Y402953D01*
X397047Y400984D02*
Y402953D01*
X397244Y400984D02*
Y402953D01*
X397441Y400984D02*
Y402953D01*
X397638Y400984D02*
Y402953D01*
X397835Y401066D02*
Y402953D01*
X398031Y401263D02*
Y402953D01*
X398228Y401459D02*
Y402953D01*
X398425Y401656D02*
Y402953D01*
X398622Y401853D02*
Y402953D01*
X398819Y402050D02*
Y402953D01*
X399016Y402247D02*
Y402953D01*
X406299Y399016D02*
X404331D01*
Y392520*
X406299*
Y399016*
X404331Y392520D02*
Y399016D01*
X404528Y392520D02*
Y399016D01*
X404724Y392520D02*
Y399016D01*
X404921Y392520D02*
Y399016D01*
X405118Y392520D02*
Y399016D01*
X405315Y392520D02*
Y399016D01*
X405512Y392520D02*
Y399016D01*
X405709Y392520D02*
Y399016D01*
X405906Y392520D02*
Y399016D01*
X406102Y392520D02*
Y399016D01*
X410630D02*
X408661D01*
Y392520*
X410630*
Y399016*
X408661Y392520D02*
Y399016D01*
X408858Y392520D02*
Y399016D01*
X409055Y392520D02*
Y399016D01*
X409252Y392520D02*
Y399016D01*
X409449Y392520D02*
Y399016D01*
X409646Y392520D02*
Y399016D01*
X409843Y392520D02*
Y399016D01*
X410039Y392520D02*
Y399016D01*
X410236Y392520D02*
Y399016D01*
X410433Y392520D02*
Y399016D01*
X414961D02*
X412992D01*
Y392520*
X414961*
Y399016*
X412992Y392520D02*
Y399016D01*
X413189Y392520D02*
Y399016D01*
X413386Y392520D02*
Y399016D01*
X413583Y392520D02*
Y399016D01*
X413780Y392520D02*
Y399016D01*
X413976Y392520D02*
Y399016D01*
X414173Y392520D02*
Y399016D01*
X414370Y392520D02*
Y399016D01*
X414567Y392520D02*
Y399016D01*
X414764Y392520D02*
Y399016D01*
X419291D02*
X417323D01*
Y392520*
X419291*
Y399016*
X417323Y392520D02*
Y399016D01*
X417520Y392520D02*
Y399016D01*
X417717Y392520D02*
Y399016D01*
X417913Y392520D02*
Y399016D01*
X418110Y392520D02*
Y399016D01*
X418307Y392520D02*
Y399016D01*
X418504Y392520D02*
Y399016D01*
X418701Y392520D02*
Y399016D01*
X418898Y392520D02*
Y399016D01*
X419094Y392520D02*
Y399016D01*
X423622D02*
X421654D01*
Y392520*
X423622*
Y399016*
X421654Y392520D02*
Y399016D01*
X421850Y392520D02*
Y399016D01*
X422047Y392520D02*
Y399016D01*
X422244Y392520D02*
Y399016D01*
X422441Y392520D02*
Y399016D01*
X422638Y392520D02*
Y399016D01*
X422835Y392520D02*
Y399016D01*
X423031Y392520D02*
Y399016D01*
X423228Y392520D02*
Y399016D01*
X423425Y392520D02*
Y399016D01*
X427953D02*
X425984D01*
Y392520*
X427953*
Y399016*
X425984Y392520D02*
Y399016D01*
X426181Y392520D02*
Y399016D01*
X426378Y392520D02*
Y399016D01*
X426575Y392520D02*
Y399016D01*
X426772Y392520D02*
Y399016D01*
X426969Y392520D02*
Y399016D01*
X427165Y392520D02*
Y399016D01*
X427362Y392520D02*
Y399016D01*
X427559Y392520D02*
Y399016D01*
X427756Y392520D02*
Y399016D01*
X432283D02*
X430315D01*
Y392520*
X432283*
Y399016*
X430315Y392520D02*
Y399016D01*
X430512Y392520D02*
Y399016D01*
X430709Y392520D02*
Y399016D01*
X430906Y392520D02*
Y399016D01*
X431102Y392520D02*
Y399016D01*
X431299Y392520D02*
Y399016D01*
X431496Y392520D02*
Y399016D01*
X431693Y392520D02*
Y399016D01*
X431890Y392520D02*
Y399016D01*
X432087Y392520D02*
Y399016D01*
X436614D02*
X434646D01*
Y392520*
X436614*
Y399016*
X434646Y392520D02*
Y399016D01*
X434843Y392520D02*
Y399016D01*
X435039Y392520D02*
Y399016D01*
X435236Y392520D02*
Y399016D01*
X435433Y392520D02*
Y399016D01*
X435630Y392520D02*
Y399016D01*
X435827Y392520D02*
Y399016D01*
X436024Y392520D02*
Y399016D01*
X436220Y392520D02*
Y399016D01*
X436417Y392520D02*
Y399016D01*
X440945D02*
X438976D01*
Y392520*
X440945*
Y399016*
X438976Y392520D02*
Y399016D01*
X439173Y392520D02*
Y399016D01*
X439370Y392520D02*
Y399016D01*
X439567Y392520D02*
Y399016D01*
X439764Y392520D02*
Y399016D01*
X439961Y392520D02*
Y399016D01*
X440157Y392520D02*
Y399016D01*
X440354Y392520D02*
Y399016D01*
X440551Y392520D02*
Y399016D01*
X440748Y392520D02*
Y399016D01*
X445276D02*
X443307D01*
Y392520*
X445276*
Y399016*
X443307Y392520D02*
Y399016D01*
X443504Y392520D02*
Y399016D01*
X443701Y392520D02*
Y399016D01*
X443898Y392520D02*
Y399016D01*
X444094Y392520D02*
Y399016D01*
X444291Y392520D02*
Y399016D01*
X444488Y392520D02*
Y399016D01*
X444685Y392520D02*
Y399016D01*
X444882Y392520D02*
Y399016D01*
X445079Y392520D02*
Y399016D01*
X449606D02*
X447638D01*
Y392520*
X449606*
Y399016*
X447638Y392520D02*
Y399016D01*
X447835Y392520D02*
Y399016D01*
X448031Y392520D02*
Y399016D01*
X448228Y392520D02*
Y399016D01*
X448425Y392520D02*
Y399016D01*
X448622Y392520D02*
Y399016D01*
X448819Y392520D02*
Y399016D01*
X449016Y392520D02*
Y399016D01*
X449213Y392520D02*
Y399016D01*
X449409Y392520D02*
Y399016D01*
X453937D02*
X451969D01*
Y392520*
X453937*
Y399016*
X451969Y392520D02*
Y399016D01*
X452165Y392520D02*
Y399016D01*
X452362Y392520D02*
Y399016D01*
X452559Y392520D02*
Y399016D01*
X452756Y392520D02*
Y399016D01*
X452953Y392520D02*
Y399016D01*
X453150Y392520D02*
Y399016D01*
X453346Y392520D02*
Y399016D01*
X453543Y392520D02*
Y399016D01*
X453740Y392520D02*
Y399016D01*
X465551Y402953D02*
X459055D01*
Y402428*
X460138Y400984*
X465551*
Y402953*
X459252Y402165D02*
Y402953D01*
X459449Y401903D02*
Y402953D01*
X459646Y401640D02*
Y402953D01*
X459843Y401378D02*
Y402953D01*
X460039Y401115D02*
Y402953D01*
X460236Y400984D02*
Y402953D01*
X460433Y400984D02*
Y402953D01*
X460630Y400984D02*
Y402953D01*
X460827Y400984D02*
Y402953D01*
X461024Y400984D02*
Y402953D01*
X461220Y400984D02*
Y402953D01*
X461417Y400984D02*
Y402953D01*
X461614Y400984D02*
Y402953D01*
X461811Y400984D02*
Y402953D01*
X462008Y400984D02*
Y402953D01*
X462205Y400984D02*
Y402953D01*
X462402Y400984D02*
Y402953D01*
X462598Y400984D02*
Y402953D01*
X462795Y400984D02*
Y402953D01*
X462992Y400984D02*
Y402953D01*
X463189Y400984D02*
Y402953D01*
X463386Y400984D02*
Y402953D01*
X463583Y400984D02*
Y402953D01*
X463780Y400984D02*
Y402953D01*
X463976Y400984D02*
Y402953D01*
X464173Y400984D02*
Y402953D01*
X464370Y400984D02*
Y402953D01*
X464567Y400984D02*
Y402953D01*
X464764Y400984D02*
Y402953D01*
X464961Y400984D02*
Y402953D01*
X465157Y400984D02*
Y402953D01*
X465354Y400984D02*
Y402953D01*
X465748Y407283D02*
X459252D01*
Y405315*
X465748*
Y407283*
X459252Y405315D02*
Y407283D01*
X459449Y405315D02*
Y407283D01*
X459646Y405315D02*
Y407283D01*
X459843Y405315D02*
Y407283D01*
X460039Y405315D02*
Y407283D01*
X460236Y405315D02*
Y407283D01*
X460433Y405315D02*
Y407283D01*
X460630Y405315D02*
Y407283D01*
X460827Y405315D02*
Y407283D01*
X461024Y405315D02*
Y407283D01*
X461220Y405315D02*
Y407283D01*
X461417Y405315D02*
Y407283D01*
X461614Y405315D02*
Y407283D01*
X461811Y405315D02*
Y407283D01*
X462008Y405315D02*
Y407283D01*
X462205Y405315D02*
Y407283D01*
X462402Y405315D02*
Y407283D01*
X462598Y405315D02*
Y407283D01*
X462795Y405315D02*
Y407283D01*
X462992Y405315D02*
Y407283D01*
X463189Y405315D02*
Y407283D01*
X463386Y405315D02*
Y407283D01*
X463583Y405315D02*
Y407283D01*
X463780Y405315D02*
Y407283D01*
X463976Y405315D02*
Y407283D01*
X464173Y405315D02*
Y407283D01*
X464370Y405315D02*
Y407283D01*
X464567Y405315D02*
Y407283D01*
X464764Y405315D02*
Y407283D01*
X464961Y405315D02*
Y407283D01*
X465157Y405315D02*
Y407283D01*
X465354Y405315D02*
Y407283D01*
X465551Y405315D02*
Y407283D01*
X465748Y411614D02*
X459252D01*
Y409646*
X465748*
Y411614*
X459252Y409646D02*
Y411614D01*
X459449Y409646D02*
Y411614D01*
X459646Y409646D02*
Y411614D01*
X459843Y409646D02*
Y411614D01*
X460039Y409646D02*
Y411614D01*
X460236Y409646D02*
Y411614D01*
X460433Y409646D02*
Y411614D01*
X460630Y409646D02*
Y411614D01*
X460827Y409646D02*
Y411614D01*
X461024Y409646D02*
Y411614D01*
X461220Y409646D02*
Y411614D01*
X461417Y409646D02*
Y411614D01*
X461614Y409646D02*
Y411614D01*
X461811Y409646D02*
Y411614D01*
X462008Y409646D02*
Y411614D01*
X462205Y409646D02*
Y411614D01*
X462402Y409646D02*
Y411614D01*
X462598Y409646D02*
Y411614D01*
X462795Y409646D02*
Y411614D01*
X462992Y409646D02*
Y411614D01*
X463189Y409646D02*
Y411614D01*
X463386Y409646D02*
Y411614D01*
X463583Y409646D02*
Y411614D01*
X463780Y409646D02*
Y411614D01*
X463976Y409646D02*
Y411614D01*
X464173Y409646D02*
Y411614D01*
X464370Y409646D02*
Y411614D01*
X464567Y409646D02*
Y411614D01*
X464764Y409646D02*
Y411614D01*
X464961Y409646D02*
Y411614D01*
X465157Y409646D02*
Y411614D01*
X465354Y409646D02*
Y411614D01*
X465551Y409646D02*
Y411614D01*
X465748Y415945D02*
X459252D01*
Y413976*
X465748*
Y415945*
X459252Y413976D02*
Y415945D01*
X459449Y413976D02*
Y415945D01*
X459646Y413976D02*
Y415945D01*
X459843Y413976D02*
Y415945D01*
X460039Y413976D02*
Y415945D01*
X460236Y413976D02*
Y415945D01*
X460433Y413976D02*
Y415945D01*
X460630Y413976D02*
Y415945D01*
X460827Y413976D02*
Y415945D01*
X461024Y413976D02*
Y415945D01*
X461220Y413976D02*
Y415945D01*
X461417Y413976D02*
Y415945D01*
X461614Y413976D02*
Y415945D01*
X461811Y413976D02*
Y415945D01*
X462008Y413976D02*
Y415945D01*
X462205Y413976D02*
Y415945D01*
X462402Y413976D02*
Y415945D01*
X462598Y413976D02*
Y415945D01*
X462795Y413976D02*
Y415945D01*
X462992Y413976D02*
Y415945D01*
X463189Y413976D02*
Y415945D01*
X463386Y413976D02*
Y415945D01*
X463583Y413976D02*
Y415945D01*
X463780Y413976D02*
Y415945D01*
X463976Y413976D02*
Y415945D01*
X464173Y413976D02*
Y415945D01*
X464370Y413976D02*
Y415945D01*
X464567Y413976D02*
Y415945D01*
X464764Y413976D02*
Y415945D01*
X464961Y413976D02*
Y415945D01*
X465157Y413976D02*
Y415945D01*
X465354Y413976D02*
Y415945D01*
X465551Y413976D02*
Y415945D01*
X465748Y420276D02*
X459252D01*
Y418307*
X465748*
Y420276*
X459252Y418307D02*
Y420276D01*
X459449Y418307D02*
Y420276D01*
X459646Y418307D02*
Y420276D01*
X459843Y418307D02*
Y420276D01*
X460039Y418307D02*
Y420276D01*
X460236Y418307D02*
Y420276D01*
X460433Y418307D02*
Y420276D01*
X460630Y418307D02*
Y420276D01*
X460827Y418307D02*
Y420276D01*
X461024Y418307D02*
Y420276D01*
X461220Y418307D02*
Y420276D01*
X461417Y418307D02*
Y420276D01*
X461614Y418307D02*
Y420276D01*
X461811Y418307D02*
Y420276D01*
X462008Y418307D02*
Y420276D01*
X462205Y418307D02*
Y420276D01*
X462402Y418307D02*
Y420276D01*
X462598Y418307D02*
Y420276D01*
X462795Y418307D02*
Y420276D01*
X462992Y418307D02*
Y420276D01*
X463189Y418307D02*
Y420276D01*
X463386Y418307D02*
Y420276D01*
X463583Y418307D02*
Y420276D01*
X463780Y418307D02*
Y420276D01*
X463976Y418307D02*
Y420276D01*
X464173Y418307D02*
Y420276D01*
X464370Y418307D02*
Y420276D01*
X464567Y418307D02*
Y420276D01*
X464764Y418307D02*
Y420276D01*
X464961Y418307D02*
Y420276D01*
X465157Y418307D02*
Y420276D01*
X465354Y418307D02*
Y420276D01*
X465551Y418307D02*
Y420276D01*
X465748Y424606D02*
X459252D01*
Y422638*
X465748*
Y424606*
X459252Y422638D02*
Y424606D01*
X459449Y422638D02*
Y424606D01*
X459646Y422638D02*
Y424606D01*
X459843Y422638D02*
Y424606D01*
X460039Y422638D02*
Y424606D01*
X460236Y422638D02*
Y424606D01*
X460433Y422638D02*
Y424606D01*
X460630Y422638D02*
Y424606D01*
X460827Y422638D02*
Y424606D01*
X461024Y422638D02*
Y424606D01*
X461220Y422638D02*
Y424606D01*
X461417Y422638D02*
Y424606D01*
X461614Y422638D02*
Y424606D01*
X461811Y422638D02*
Y424606D01*
X462008Y422638D02*
Y424606D01*
X462205Y422638D02*
Y424606D01*
X462402Y422638D02*
Y424606D01*
X462598Y422638D02*
Y424606D01*
X462795Y422638D02*
Y424606D01*
X462992Y422638D02*
Y424606D01*
X463189Y422638D02*
Y424606D01*
X463386Y422638D02*
Y424606D01*
X463583Y422638D02*
Y424606D01*
X463780Y422638D02*
Y424606D01*
X463976Y422638D02*
Y424606D01*
X464173Y422638D02*
Y424606D01*
X464370Y422638D02*
Y424606D01*
X464567Y422638D02*
Y424606D01*
X464764Y422638D02*
Y424606D01*
X464961Y422638D02*
Y424606D01*
X465157Y422638D02*
Y424606D01*
X465354Y422638D02*
Y424606D01*
X465551Y422638D02*
Y424606D01*
X465748Y428937D02*
X459252D01*
Y426969*
X465748*
Y428937*
X459252Y426969D02*
Y428937D01*
X459449Y426969D02*
Y428937D01*
X459646Y426969D02*
Y428937D01*
X459843Y426969D02*
Y428937D01*
X460039Y426969D02*
Y428937D01*
X460236Y426969D02*
Y428937D01*
X460433Y426969D02*
Y428937D01*
X460630Y426969D02*
Y428937D01*
X460827Y426969D02*
Y428937D01*
X461024Y426969D02*
Y428937D01*
X461220Y426969D02*
Y428937D01*
X461417Y426969D02*
Y428937D01*
X461614Y426969D02*
Y428937D01*
X461811Y426969D02*
Y428937D01*
X462008Y426969D02*
Y428937D01*
X462205Y426969D02*
Y428937D01*
X462402Y426969D02*
Y428937D01*
X462598Y426969D02*
Y428937D01*
X462795Y426969D02*
Y428937D01*
X462992Y426969D02*
Y428937D01*
X463189Y426969D02*
Y428937D01*
X463386Y426969D02*
Y428937D01*
X463583Y426969D02*
Y428937D01*
X463780Y426969D02*
Y428937D01*
X463976Y426969D02*
Y428937D01*
X464173Y426969D02*
Y428937D01*
X464370Y426969D02*
Y428937D01*
X464567Y426969D02*
Y428937D01*
X464764Y426969D02*
Y428937D01*
X464961Y426969D02*
Y428937D01*
X465157Y426969D02*
Y428937D01*
X465354Y426969D02*
Y428937D01*
X465551Y426969D02*
Y428937D01*
X465748Y433268D02*
X459252D01*
Y431299*
X465748*
Y433268*
X459252Y431299D02*
Y433268D01*
X459449Y431299D02*
Y433268D01*
X459646Y431299D02*
Y433268D01*
X459843Y431299D02*
Y433268D01*
X460039Y431299D02*
Y433268D01*
X460236Y431299D02*
Y433268D01*
X460433Y431299D02*
Y433268D01*
X460630Y431299D02*
Y433268D01*
X460827Y431299D02*
Y433268D01*
X461024Y431299D02*
Y433268D01*
X461220Y431299D02*
Y433268D01*
X461417Y431299D02*
Y433268D01*
X461614Y431299D02*
Y433268D01*
X461811Y431299D02*
Y433268D01*
X462008Y431299D02*
Y433268D01*
X462205Y431299D02*
Y433268D01*
X462402Y431299D02*
Y433268D01*
X462598Y431299D02*
Y433268D01*
X462795Y431299D02*
Y433268D01*
X462992Y431299D02*
Y433268D01*
X463189Y431299D02*
Y433268D01*
X463386Y431299D02*
Y433268D01*
X463583Y431299D02*
Y433268D01*
X463780Y431299D02*
Y433268D01*
X463976Y431299D02*
Y433268D01*
X464173Y431299D02*
Y433268D01*
X464370Y431299D02*
Y433268D01*
X464567Y431299D02*
Y433268D01*
X464764Y431299D02*
Y433268D01*
X464961Y431299D02*
Y433268D01*
X465157Y431299D02*
Y433268D01*
X465354Y431299D02*
Y433268D01*
X465551Y431299D02*
Y433268D01*
X465748Y437598D02*
X459252D01*
Y435630*
X465748*
Y437598*
X459252Y435630D02*
Y437598D01*
X459449Y435630D02*
Y437598D01*
X459646Y435630D02*
Y437598D01*
X459843Y435630D02*
Y437598D01*
X460039Y435630D02*
Y437598D01*
X460236Y435630D02*
Y437598D01*
X460433Y435630D02*
Y437598D01*
X460630Y435630D02*
Y437598D01*
X460827Y435630D02*
Y437598D01*
X461024Y435630D02*
Y437598D01*
X461220Y435630D02*
Y437598D01*
X461417Y435630D02*
Y437598D01*
X461614Y435630D02*
Y437598D01*
X461811Y435630D02*
Y437598D01*
X462008Y435630D02*
Y437598D01*
X462205Y435630D02*
Y437598D01*
X462402Y435630D02*
Y437598D01*
X462598Y435630D02*
Y437598D01*
X462795Y435630D02*
Y437598D01*
X462992Y435630D02*
Y437598D01*
X463189Y435630D02*
Y437598D01*
X463386Y435630D02*
Y437598D01*
X463583Y435630D02*
Y437598D01*
X463780Y435630D02*
Y437598D01*
X463976Y435630D02*
Y437598D01*
X464173Y435630D02*
Y437598D01*
X464370Y435630D02*
Y437598D01*
X464567Y435630D02*
Y437598D01*
X464764Y435630D02*
Y437598D01*
X464961Y435630D02*
Y437598D01*
X465157Y435630D02*
Y437598D01*
X465354Y435630D02*
Y437598D01*
X465551Y435630D02*
Y437598D01*
X465748Y441929D02*
X459252D01*
Y439961*
X465748*
Y441929*
X459252Y439961D02*
Y441929D01*
X459449Y439961D02*
Y441929D01*
X459646Y439961D02*
Y441929D01*
X459843Y439961D02*
Y441929D01*
X460039Y439961D02*
Y441929D01*
X460236Y439961D02*
Y441929D01*
X460433Y439961D02*
Y441929D01*
X460630Y439961D02*
Y441929D01*
X460827Y439961D02*
Y441929D01*
X461024Y439961D02*
Y441929D01*
X461220Y439961D02*
Y441929D01*
X461417Y439961D02*
Y441929D01*
X461614Y439961D02*
Y441929D01*
X461811Y439961D02*
Y441929D01*
X462008Y439961D02*
Y441929D01*
X462205Y439961D02*
Y441929D01*
X462402Y439961D02*
Y441929D01*
X462598Y439961D02*
Y441929D01*
X462795Y439961D02*
Y441929D01*
X462992Y439961D02*
Y441929D01*
X463189Y439961D02*
Y441929D01*
X463386Y439961D02*
Y441929D01*
X463583Y439961D02*
Y441929D01*
X463780Y439961D02*
Y441929D01*
X463976Y439961D02*
Y441929D01*
X464173Y439961D02*
Y441929D01*
X464370Y439961D02*
Y441929D01*
X464567Y439961D02*
Y441929D01*
X464764Y439961D02*
Y441929D01*
X464961Y439961D02*
Y441929D01*
X465157Y439961D02*
Y441929D01*
X465354Y439961D02*
Y441929D01*
X465551Y439961D02*
Y441929D01*
X465748Y446260D02*
X459252D01*
Y444291*
X465748*
Y446260*
X459252Y444291D02*
Y446260D01*
X459449Y444291D02*
Y446260D01*
X459646Y444291D02*
Y446260D01*
X459843Y444291D02*
Y446260D01*
X460039Y444291D02*
Y446260D01*
X460236Y444291D02*
Y446260D01*
X460433Y444291D02*
Y446260D01*
X460630Y444291D02*
Y446260D01*
X460827Y444291D02*
Y446260D01*
X461024Y444291D02*
Y446260D01*
X461220Y444291D02*
Y446260D01*
X461417Y444291D02*
Y446260D01*
X461614Y444291D02*
Y446260D01*
X461811Y444291D02*
Y446260D01*
X462008Y444291D02*
Y446260D01*
X462205Y444291D02*
Y446260D01*
X462402Y444291D02*
Y446260D01*
X462598Y444291D02*
Y446260D01*
X462795Y444291D02*
Y446260D01*
X462992Y444291D02*
Y446260D01*
X463189Y444291D02*
Y446260D01*
X463386Y444291D02*
Y446260D01*
X463583Y444291D02*
Y446260D01*
X463780Y444291D02*
Y446260D01*
X463976Y444291D02*
Y446260D01*
X464173Y444291D02*
Y446260D01*
X464370Y444291D02*
Y446260D01*
X464567Y444291D02*
Y446260D01*
X464764Y444291D02*
Y446260D01*
X464961Y444291D02*
Y446260D01*
X465157Y444291D02*
Y446260D01*
X465354Y444291D02*
Y446260D01*
X465551Y444291D02*
Y446260D01*
X465748Y450591D02*
X459252D01*
Y448622*
X465748*
Y450591*
X459252Y448622D02*
Y450591D01*
X459449Y448622D02*
Y450591D01*
X459646Y448622D02*
Y450591D01*
X459843Y448622D02*
Y450591D01*
X460039Y448622D02*
Y450591D01*
X460236Y448622D02*
Y450591D01*
X460433Y448622D02*
Y450591D01*
X460630Y448622D02*
Y450591D01*
X460827Y448622D02*
Y450591D01*
X461024Y448622D02*
Y450591D01*
X461220Y448622D02*
Y450591D01*
X461417Y448622D02*
Y450591D01*
X461614Y448622D02*
Y450591D01*
X461811Y448622D02*
Y450591D01*
X462008Y448622D02*
Y450591D01*
X462205Y448622D02*
Y450591D01*
X462402Y448622D02*
Y450591D01*
X462598Y448622D02*
Y450591D01*
X462795Y448622D02*
Y450591D01*
X462992Y448622D02*
Y450591D01*
X463189Y448622D02*
Y450591D01*
X463386Y448622D02*
Y450591D01*
X463583Y448622D02*
Y450591D01*
X463780Y448622D02*
Y450591D01*
X463976Y448622D02*
Y450591D01*
X464173Y448622D02*
Y450591D01*
X464370Y448622D02*
Y450591D01*
X464567Y448622D02*
Y450591D01*
X464764Y448622D02*
Y450591D01*
X464961Y448622D02*
Y450591D01*
X465157Y448622D02*
Y450591D01*
X465354Y448622D02*
Y450591D01*
X465551Y448622D02*
Y450591D01*
X465748Y454921D02*
X459252D01*
Y452953*
X465748*
Y454921*
X459252Y452953D02*
Y454921D01*
X459449Y452953D02*
Y454921D01*
X459646Y452953D02*
Y454921D01*
X459843Y452953D02*
Y454921D01*
X460039Y452953D02*
Y454921D01*
X460236Y452953D02*
Y454921D01*
X460433Y452953D02*
Y454921D01*
X460630Y452953D02*
Y454921D01*
X460827Y452953D02*
Y454921D01*
X461024Y452953D02*
Y454921D01*
X461220Y452953D02*
Y454921D01*
X461417Y452953D02*
Y454921D01*
X461614Y452953D02*
Y454921D01*
X461811Y452953D02*
Y454921D01*
X462008Y452953D02*
Y454921D01*
X462205Y452953D02*
Y454921D01*
X462402Y452953D02*
Y454921D01*
X462598Y452953D02*
Y454921D01*
X462795Y452953D02*
Y454921D01*
X462992Y452953D02*
Y454921D01*
X463189Y452953D02*
Y454921D01*
X463386Y452953D02*
Y454921D01*
X463583Y452953D02*
Y454921D01*
X463780Y452953D02*
Y454921D01*
X463976Y452953D02*
Y454921D01*
X464173Y452953D02*
Y454921D01*
X464370Y452953D02*
Y454921D01*
X464567Y452953D02*
Y454921D01*
X464764Y452953D02*
Y454921D01*
X464961Y452953D02*
Y454921D01*
X465157Y452953D02*
Y454921D01*
X465354Y452953D02*
Y454921D01*
X465551Y452953D02*
Y454921D01*
X465748Y459252D02*
X459252D01*
Y457283*
X465748*
Y459252*
X459252Y457283D02*
Y459252D01*
X459449Y457283D02*
Y459252D01*
X459646Y457283D02*
Y459252D01*
X459843Y457283D02*
Y459252D01*
X460039Y457283D02*
Y459252D01*
X460236Y457283D02*
Y459252D01*
X460433Y457283D02*
Y459252D01*
X460630Y457283D02*
Y459252D01*
X460827Y457283D02*
Y459252D01*
X461024Y457283D02*
Y459252D01*
X461220Y457283D02*
Y459252D01*
X461417Y457283D02*
Y459252D01*
X461614Y457283D02*
Y459252D01*
X461811Y457283D02*
Y459252D01*
X462008Y457283D02*
Y459252D01*
X462205Y457283D02*
Y459252D01*
X462402Y457283D02*
Y459252D01*
X462598Y457283D02*
Y459252D01*
X462795Y457283D02*
Y459252D01*
X462992Y457283D02*
Y459252D01*
X463189Y457283D02*
Y459252D01*
X463386Y457283D02*
Y459252D01*
X463583Y457283D02*
Y459252D01*
X463780Y457283D02*
Y459252D01*
X463976Y457283D02*
Y459252D01*
X464173Y457283D02*
Y459252D01*
X464370Y457283D02*
Y459252D01*
X464567Y457283D02*
Y459252D01*
X464764Y457283D02*
Y459252D01*
X464961Y457283D02*
Y459252D01*
X465157Y457283D02*
Y459252D01*
X465354Y457283D02*
Y459252D01*
X465551Y457283D02*
Y459252D01*
X465748Y463583D02*
X459252D01*
Y461614*
X465748*
Y463583*
X459252Y461614D02*
Y463583D01*
X459449Y461614D02*
Y463583D01*
X459646Y461614D02*
Y463583D01*
X459843Y461614D02*
Y463583D01*
X460039Y461614D02*
Y463583D01*
X460236Y461614D02*
Y463583D01*
X460433Y461614D02*
Y463583D01*
X460630Y461614D02*
Y463583D01*
X460827Y461614D02*
Y463583D01*
X461024Y461614D02*
Y463583D01*
X461220Y461614D02*
Y463583D01*
X461417Y461614D02*
Y463583D01*
X461614Y461614D02*
Y463583D01*
X461811Y461614D02*
Y463583D01*
X462008Y461614D02*
Y463583D01*
X462205Y461614D02*
Y463583D01*
X462402Y461614D02*
Y463583D01*
X462598Y461614D02*
Y463583D01*
X462795Y461614D02*
Y463583D01*
X462992Y461614D02*
Y463583D01*
X463189Y461614D02*
Y463583D01*
X463386Y461614D02*
Y463583D01*
X463583Y461614D02*
Y463583D01*
X463780Y461614D02*
Y463583D01*
X463976Y461614D02*
Y463583D01*
X464173Y461614D02*
Y463583D01*
X464370Y461614D02*
Y463583D01*
X464567Y461614D02*
Y463583D01*
X464764Y461614D02*
Y463583D01*
X464961Y461614D02*
Y463583D01*
X465157Y461614D02*
Y463583D01*
X465354Y461614D02*
Y463583D01*
X465551Y461614D02*
Y463583D01*
X465748Y467913D02*
X459252D01*
Y465945*
X465748*
Y467913*
X459252Y465945D02*
Y467913D01*
X459449Y465945D02*
Y467913D01*
X459646Y465945D02*
Y467913D01*
X459843Y465945D02*
Y467913D01*
X460039Y465945D02*
Y467913D01*
X460236Y465945D02*
Y467913D01*
X460433Y465945D02*
Y467913D01*
X460630Y465945D02*
Y467913D01*
X460827Y465945D02*
Y467913D01*
X461024Y465945D02*
Y467913D01*
X461220Y465945D02*
Y467913D01*
X461417Y465945D02*
Y467913D01*
X461614Y465945D02*
Y467913D01*
X461811Y465945D02*
Y467913D01*
X462008Y465945D02*
Y467913D01*
X462205Y465945D02*
Y467913D01*
X462402Y465945D02*
Y467913D01*
X462598Y465945D02*
Y467913D01*
X462795Y465945D02*
Y467913D01*
X462992Y465945D02*
Y467913D01*
X463189Y465945D02*
Y467913D01*
X463386Y465945D02*
Y467913D01*
X463583Y465945D02*
Y467913D01*
X463780Y465945D02*
Y467913D01*
X463976Y465945D02*
Y467913D01*
X464173Y465945D02*
Y467913D01*
X464370Y465945D02*
Y467913D01*
X464567Y465945D02*
Y467913D01*
X464764Y465945D02*
Y467913D01*
X464961Y465945D02*
Y467913D01*
X465157Y465945D02*
Y467913D01*
X465354Y465945D02*
Y467913D01*
X465551Y465945D02*
Y467913D01*
X465748Y472244D02*
X459252D01*
Y470276*
X465748*
Y472244*
X459252Y470276D02*
Y472244D01*
X459449Y470276D02*
Y472244D01*
X459646Y470276D02*
Y472244D01*
X459843Y470276D02*
Y472244D01*
X460039Y470276D02*
Y472244D01*
X460236Y470276D02*
Y472244D01*
X460433Y470276D02*
Y472244D01*
X460630Y470276D02*
Y472244D01*
X460827Y470276D02*
Y472244D01*
X461024Y470276D02*
Y472244D01*
X461220Y470276D02*
Y472244D01*
X461417Y470276D02*
Y472244D01*
X461614Y470276D02*
Y472244D01*
X461811Y470276D02*
Y472244D01*
X462008Y470276D02*
Y472244D01*
X462205Y470276D02*
Y472244D01*
X462402Y470276D02*
Y472244D01*
X462598Y470276D02*
Y472244D01*
X462795Y470276D02*
Y472244D01*
X462992Y470276D02*
Y472244D01*
X463189Y470276D02*
Y472244D01*
X463386Y470276D02*
Y472244D01*
X463583Y470276D02*
Y472244D01*
X463780Y470276D02*
Y472244D01*
X463976Y470276D02*
Y472244D01*
X464173Y470276D02*
Y472244D01*
X464370Y470276D02*
Y472244D01*
X464567Y470276D02*
Y472244D01*
X464764Y470276D02*
Y472244D01*
X464961Y470276D02*
Y472244D01*
X465157Y470276D02*
Y472244D01*
X465354Y470276D02*
Y472244D01*
X465551Y470276D02*
Y472244D01*
X465748Y476575D02*
X459252D01*
Y474606*
X465748*
Y476575*
X459252Y474606D02*
Y476575D01*
X459449Y474606D02*
Y476575D01*
X459646Y474606D02*
Y476575D01*
X459843Y474606D02*
Y476575D01*
X460039Y474606D02*
Y476575D01*
X460236Y474606D02*
Y476575D01*
X460433Y474606D02*
Y476575D01*
X460630Y474606D02*
Y476575D01*
X460827Y474606D02*
Y476575D01*
X461024Y474606D02*
Y476575D01*
X461220Y474606D02*
Y476575D01*
X461417Y474606D02*
Y476575D01*
X461614Y474606D02*
Y476575D01*
X461811Y474606D02*
Y476575D01*
X462008Y474606D02*
Y476575D01*
X462205Y474606D02*
Y476575D01*
X462402Y474606D02*
Y476575D01*
X462598Y474606D02*
Y476575D01*
X462795Y474606D02*
Y476575D01*
X462992Y474606D02*
Y476575D01*
X463189Y474606D02*
Y476575D01*
X463386Y474606D02*
Y476575D01*
X463583Y474606D02*
Y476575D01*
X463780Y474606D02*
Y476575D01*
X463976Y474606D02*
Y476575D01*
X464173Y474606D02*
Y476575D01*
X464370Y474606D02*
Y476575D01*
X464567Y474606D02*
Y476575D01*
X464764Y474606D02*
Y476575D01*
X464961Y474606D02*
Y476575D01*
X465157Y474606D02*
Y476575D01*
X465354Y474606D02*
Y476575D01*
X465551Y474606D02*
Y476575D01*
X401969Y399016D02*
X401459D01*
X400000Y397556*
Y392520*
X401969*
Y399016*
X400000Y392520D02*
Y397556D01*
X400197Y392520D02*
Y397753D01*
X400394Y392520D02*
Y397950D01*
X400591Y392520D02*
Y398147D01*
X400787Y392520D02*
Y398344D01*
X400984Y392520D02*
Y398541D01*
X401181Y392520D02*
Y398737D01*
X401378Y392520D02*
Y398934D01*
X401575Y392520D02*
Y399016D01*
X401772Y392520D02*
Y399016D01*
X458268Y397556D02*
X456808Y399016D01*
X456299*
Y392520*
X458268*
Y397556*
X456299Y392520D02*
Y399016D01*
X456496Y392520D02*
Y399016D01*
X456693Y392520D02*
Y399016D01*
X456890Y392520D02*
Y398934D01*
X457087Y392520D02*
Y398737D01*
X457283Y392520D02*
Y398541D01*
X457480Y392520D02*
Y398344D01*
X457677Y392520D02*
Y398147D01*
X457874Y392520D02*
Y397950D01*
X458071Y392520D02*
Y397753D01*
X444589Y453701D02*
X445577Y454689D01*
Y457506*
X446299Y458228*
X446301Y458301*
X447598Y459764*
X444589Y453701D02*
X443613D01*
X442624Y454689*
Y458501*
X445512Y461388*
Y462953*
X445866Y463307*
X441299Y415276D02*
X439843Y416732D01*
X434331*
X441378Y410354D02*
X439724Y412008D01*
X434331*
X441901Y460101D02*
Y461501D01*
X450754Y470354*
X458071*
X458976Y471260*
X464173*
X444101Y455301D02*
Y458701D01*
X454140Y468740*
X457205*
X441811Y405394D02*
X439921Y407283D01*
X434331*
X420157D02*
X420315Y407874D01*
X423661*
X420157Y412008D02*
X420315Y412835D01*
X423780*
X420157Y416732D02*
X420315Y417795D01*
X423819*
X464173Y466929D02*
X459016D01*
X457205Y468740*
X427576Y425295D02*
G75*
G03X427576I-1476J0D01*
G01X412320Y460618D02*
G03X412320I-1477J0D01*
G01X409350Y440079D02*
G03X409350I-1476J0D01*
G01X456004Y441535D02*
G03X456004I-1476J0D01*
G01X453177Y452101D02*
G03X453177I-1476J0D01*
G01X447264Y438622D02*
G03X447264I-1477J0D01*
G01X447736Y442323D02*
G03X447736I-1476J0D01*
G01X453517Y469231D02*
G03X453378Y469567I-139J139D01*
G01X451162*
G03X451023Y469509I0J-197*
G01X442941Y461427*
G03Y461148I139J-139*
G01X443250Y459502D02*
G03X442941Y461148I-1349J599D01*
G01X443250Y459502D02*
G03X443569Y459283I180J-80D01*
G01X453517Y469231*
X463386Y473228D02*
Y479449D01*
G03X463189Y479646I-197J-0*
G01X395551*
X395079*
G03X394882Y479449I-0J-197*
G01Y473228*
G03X395079Y473032I197J0*
G01X395866*
X399213*
X399803Y472441D02*
G03X399213Y473032I-590J-0D01*
G01X399803Y472441D02*
Y470079D01*
X399656Y469688D02*
G03X399803Y470079I-443J391D01*
G01X399656Y469688D02*
G03X399606Y469558I147J-130D01*
G01Y468631*
G03X399656Y468501I197J0*
G01X399803Y468110D02*
G03X399656Y468501I-590J0D01*
G01X399803Y468110D02*
Y465748D01*
X399656Y465357D02*
G03X399803Y465748I-443J391D01*
G01X399656Y465357D02*
G03X399606Y465227I147J-130D01*
G01Y464300*
G03X399656Y464170I197J0*
G01X399803Y463780D02*
G03X399656Y464170I-590J-0D01*
G01X399803Y463780D02*
Y461417D01*
X399656Y461027D02*
G03X399803Y461417I-443J390D01*
G01X399656Y461027D02*
G03X399606Y460896I147J-131D01*
G01X399606D02*
Y459970D01*
G03X399656Y459839I197J-0*
G01X399803Y459449D02*
G03X399656Y459839I-590J-0D01*
G01X399803Y459449D02*
Y457087D01*
X399656Y456696D02*
G03X399803Y457087I-443J391D01*
G01X399656Y456696D02*
G03X399606Y456566I147J-130D01*
G01Y455639*
G03X399656Y455509I197J-0*
G01X399803Y455118D02*
G03X399656Y455509I-590J0D01*
G01X399803Y455118D02*
Y452756D01*
X399656Y452365D02*
G03X399803Y452756I-443J391D01*
G01X399656Y452365D02*
G03X399606Y452235I147J-130D01*
G01Y451308*
G03X399656Y451178I197J0*
G01X399803Y450787D02*
G03X399656Y451178I-590J0D01*
G01X399803Y450787D02*
Y448425D01*
X399656Y448035D02*
G03X399803Y448425I-443J390D01*
G01X399656Y448035D02*
G03X399606Y447904I147J-131D01*
G01Y446978*
G03X399656Y446847I197J-0*
G01X399803Y446457D02*
G03X399656Y446847I-590J-0D01*
G01X399803Y446457D02*
Y444094D01*
X399656Y443704D02*
G03X399803Y444094I-443J390D01*
G01X399656Y443704D02*
G03X399606Y443574I147J-130D01*
G01Y442647*
G03X399656Y442517I197J-0*
G01X399803Y442126D02*
G03X399656Y442517I-590J-0D01*
G01X399803Y442126D02*
Y439764D01*
X399656Y439373D02*
G03X399803Y439764I-443J391D01*
G01X399656Y439373D02*
G03X399606Y439243I147J-130D01*
G01Y438316*
G03X399656Y438186I197J0*
G01X399803Y437795D02*
G03X399656Y438186I-590J0D01*
G01X399803Y437795D02*
Y435433D01*
X399656Y435042D02*
G03X399803Y435433I-443J391D01*
G01X399656Y435042D02*
G03X399606Y434912I147J-130D01*
G01Y433985*
G03X399656Y433855I197J0*
G01X399803Y433465D02*
G03X399656Y433855I-590J-0D01*
G01X399803Y433465D02*
Y431102D01*
X399656Y430712D02*
G03X399803Y431102I-443J390D01*
G01X399656Y430712D02*
G03X399606Y430582I147J-130D01*
G01Y429655*
G03X399656Y429524I197J-0*
G01X399803Y429134D02*
G03X399656Y429524I-590J-0D01*
G01X399803Y429134D02*
Y426772D01*
X399656Y426381D02*
G03X399803Y426772I-443J391D01*
G01X399656Y426381D02*
G03X399606Y426251I147J-130D01*
G01Y425324*
G03X399656Y425194I197J-0*
G01X399803Y424803D02*
G03X399656Y425194I-590J0D01*
G01X399803Y424803D02*
Y422441D01*
X399656Y422050D02*
G03X399803Y422441I-443J391D01*
G01X399656Y422050D02*
G03X399606Y421920I147J-130D01*
G01Y420993*
G03X399656Y420863I197J0*
G01X399803Y420472D02*
G03X399656Y420863I-590J0D01*
G01X399803Y420472D02*
Y418110D01*
X399656Y417720D02*
G03X399803Y418110I-443J390D01*
G01X399656Y417720D02*
G03X399606Y417589I147J-131D01*
G01Y416663*
G03X399656Y416532I197J-0*
G01X399803Y416142D02*
G03X399656Y416532I-590J-0D01*
G01X399803Y416142D02*
Y413780D01*
X399656Y413389D02*
G03X399803Y413780I-443J391D01*
G01X399656Y413389D02*
G03X399606Y413259I147J-130D01*
G01Y412332*
G03X399656Y412202I197J-0*
G01X399803Y411811D02*
G03X399656Y412202I-590J0D01*
G01X399803Y411811D02*
Y409449D01*
X399656Y409058D02*
G03X399803Y409449I-443J391D01*
G01X399656Y409058D02*
G03X399606Y408928I147J-130D01*
G01Y408001*
G03X399656Y407871I197J0*
G01X399803Y407480D02*
G03X399656Y407871I-590J0D01*
G01X399803Y407480D02*
Y405118D01*
X399656Y404727D02*
G03X399803Y405118I-443J391D01*
G01X399656Y404727D02*
G03X399606Y404597I147J-130D01*
G01Y403832*
G03X399705Y403661I197J-0*
G01X400000Y403150D02*
G03X399705Y403661I-591J-0D01*
G01X400000Y403150D02*
Y402362D01*
X400000*
X399827Y401945D02*
G03X400000Y402362I-418J417D01*
G01X399827Y401945D02*
X398252Y400370D01*
X397835Y400197D02*
G03X398252Y400370I-0J590D01*
G01X397835Y400197D02*
X395079D01*
G03X394882Y400000I-0J-197*
G01Y395079*
G03X395079Y394882I197J-0*
G01X399016*
G03X399213Y395079I-0J197*
G01Y397638*
X399386Y398055D02*
G03X399213Y397638I417J-417D01*
G01X399386Y398055D02*
X400960Y399630D01*
X401038Y399696D02*
G03X400960Y399630I340J-483D01*
G01X401038Y399696D02*
G03X401122Y399857I-113J161D01*
G01Y401122*
X401381Y401748D02*
G03X401122Y401122I627J-626D01*
G01X401381Y401748D02*
X407049Y407415D01*
G03X407106Y407555I-140J140*
G01Y418268*
X407336Y418863D02*
G03X407106Y418268I656J-595D01*
G01X407336Y418863D02*
G03X407387Y419012I-145J133D01*
G01X408979Y420605D02*
G03X407387Y419012I-121J-1471D01*
G01X408979Y420605D02*
G03X409134Y420662I16J197D01*
G01X409177Y420705*
X409803Y420965D02*
G03X409177Y420705I0J-886D01*
G01X409803Y420965D02*
X409882D01*
X410300*
G03X410439Y421022I-0J196*
G01X418702Y429286*
G03X418760Y429425I-139J139*
G01Y430528*
G03X418426Y430669I-197J-0*
G01X418315Y432892D02*
G03X418426Y430669I-913J-1160D01*
G01X418315Y432892D02*
G03X418579Y432911I122J155D01*
G01X421084Y432224D02*
G03X418579Y432911I-1438J-334D01*
G01X421084Y432224D02*
G03X421315Y432076I191J45D01*
G01X420833Y429377D02*
G03X421315Y432076I781J1253D01*
G01X420833Y429377D02*
G03X420532Y429210I-105J-167D01*
G01Y428976*
X420272Y428350D02*
G03X420532Y428976I-626J626D01*
G01X420272Y428350D02*
X411374Y419452D01*
X410748Y419193D02*
G03X411374Y419452I0J886D01*
G01X410748Y419193D02*
X410526D01*
G03X410330Y419012I-0J-197*
G01X409049Y417670D02*
G03X410330Y419012I-191J1464D01*
G01X409049Y417670D02*
G03X408878Y417475I26J-195D01*
G01Y407106*
X408619Y406480D02*
G03X408878Y407106I-627J626D01*
G01X408619Y406480D02*
X402951Y400813D01*
G03X402894Y400673I140J-140*
G01Y399803*
G03X403091Y399606I197J0*
G01X403613*
G03X403743Y399656I0J197*
G01X404134Y399803D02*
G03X403743Y399656I-0J-590D01*
G01X404134Y399803D02*
X406496D01*
X406887Y399656D02*
G03X406496Y399803I-391J-443D01*
G01X406887Y399656D02*
G03X407017Y399606I130J147D01*
G01X407944*
G03X408074Y399656I-0J197*
G01X408465Y399803D02*
G03X408074Y399656I-0J-590D01*
G01X408465Y399803D02*
X410827D01*
X411217Y399656D02*
G03X410827Y399803I-390J-443D01*
G01X411217Y399656D02*
G03X411348Y399606I131J147D01*
G01X412274*
G03X412405Y399656I0J197*
G01X412795Y399803D02*
G03X412405Y399656I0J-590D01*
G01X412795Y399803D02*
X415157D01*
X415548Y399656D02*
G03X415157Y399803I-391J-443D01*
G01X415548Y399656D02*
G03X415678Y399606I130J147D01*
G01X416605*
G03X416735Y399656I0J197*
G01X417126Y399803D02*
G03X416735Y399656I-0J-590D01*
G01X417126Y399803D02*
X419488D01*
X419879Y399656D02*
G03X419488Y399803I-391J-443D01*
G01X419879Y399656D02*
G03X420009Y399606I130J147D01*
G01X420936*
G03X421066Y399656I-0J197*
G01X421457Y399803D02*
G03X421066Y399656I-0J-590D01*
G01X421457Y399803D02*
X423819D01*
X424210Y399656D02*
G03X423819Y399803I-391J-443D01*
G01X424210Y399656D02*
G03X424340Y399606I130J147D01*
G01X425267*
G03X425397Y399656I-0J197*
G01X425787Y399803D02*
G03X425397Y399656I0J-590D01*
G01X425787Y399803D02*
X428150D01*
X428540Y399656D02*
G03X428150Y399803I-390J-443D01*
G01X428540Y399656D02*
G03X428670Y399606I130J147D01*
G01X429597*
G03X429727Y399656I0J197*
G01X430118Y399803D02*
G03X429727Y399656I0J-590D01*
G01X430118Y399803D02*
X432480D01*
X433071Y399213D02*
G03X432480Y399803I-591J-0D01*
G01X433071Y399213D02*
Y395866D01*
Y395079*
G03X433268Y394882I197J-0*
G01X437992*
G03X438189Y395079I0J197*
G01Y399213*
X438780Y399803D02*
G03X438189Y399213I-0J-590D01*
G01X438780Y399803D02*
X441142D01*
X441532Y399656D02*
G03X441142Y399803I-390J-443D01*
G01X441532Y399656D02*
G03X441663Y399606I131J147D01*
G01X442589*
G03X442720Y399656I0J197*
G01X443110Y399803D02*
G03X442720Y399656I0J-590D01*
G01X443110Y399803D02*
X445472D01*
X445863Y399656D02*
G03X445472Y399803I-391J-443D01*
G01X445863Y399656D02*
G03X445993Y399606I130J147D01*
G01X446920*
G03X447050Y399656I0J197*
G01X447441Y399803D02*
G03X447050Y399656I-0J-590D01*
G01X447441Y399803D02*
X449803D01*
X450194Y399656D02*
G03X449803Y399803I-391J-443D01*
G01X450194Y399656D02*
G03X450324Y399606I130J147D01*
G01X451251*
G03X451381Y399656I-0J197*
G01X451772Y399803D02*
G03X451381Y399656I-0J-590D01*
G01X451772Y399803D02*
X454134D01*
X454524Y399656D02*
G03X454134Y399803I-390J-443D01*
G01X454524Y399656D02*
G03X454655Y399606I131J147D01*
G01X455582*
G03X455712Y399656I-0J197*
G01X456102Y399803D02*
G03X455712Y399656I0J-590D01*
G01X456102Y399803D02*
X456890D01*
X457307Y399630D02*
G03X456890Y399803I-417J-417D01*
G01X457307Y399630D02*
X458882Y398055D01*
X459055Y397638D02*
G03X458882Y398055I-590J-0D01*
G01X459055Y397638D02*
Y395866D01*
Y395079*
G03X459252Y394882I197J-0*
G01X463189*
G03X463386Y395079I-0J197*
G01Y400000*
G03X463189Y400197I-197J-0*
G01X460039*
X459567Y400433D02*
G03X460039Y400197I472J354D01*
G01X459567Y400433D02*
X458386Y402008D01*
X458268Y402362D02*
G03X458386Y402008I590J0D01*
G01X458268Y402362D02*
Y403150D01*
X458563Y403661D02*
G03X458268Y403150I295J-511D01*
G01X458563Y403661D02*
G03X458661Y403832I-98J171D01*
G01Y404597*
G03X458612Y404727I-196J0*
G01X458465Y405118D02*
G03X458612Y404727I590J0D01*
G01X458465Y405118D02*
Y407480D01*
X458612Y407871D02*
G03X458465Y407480I443J-391D01*
G01X458612Y407871D02*
G03X458661Y408001I-147J130D01*
G01Y408928*
G03X458612Y409058I-196J-0*
G01X458465Y409449D02*
G03X458612Y409058I590J-0D01*
G01X458465Y409449D02*
Y411811D01*
X458612Y412202D02*
G03X458465Y411811I443J-391D01*
G01X458612Y412202D02*
G03X458661Y412332I-147J130D01*
G01Y413259*
G03X458612Y413389I-196J-0*
G01X458465Y413780D02*
G03X458612Y413389I590J-0D01*
G01X458465Y413780D02*
Y416142D01*
X459055Y416732D02*
G03X458465Y416142I0J-590D01*
G01X459055Y416732D02*
X463189D01*
G03X463386Y416929I-0J197*
G01Y421654*
G03X463189Y421850I-197J-0*
G01X462402*
X459055*
X458465Y422441D02*
G03X459055Y421850I590J-0D01*
G01X458465Y422441D02*
Y424803D01*
X458612Y425194D02*
G03X458465Y424803I443J-391D01*
G01X458612Y425194D02*
G03X458661Y425324I-147J130D01*
G01Y426251*
G03X458612Y426381I-196J-0*
G01X458465Y426772D02*
G03X458612Y426381I590J-0D01*
G01X458465Y426772D02*
Y429134D01*
X458612Y429524D02*
G03X458465Y429134I443J-390D01*
G01X458612Y429524D02*
G03X458661Y429655I-147J131D01*
G01Y430582*
G03X458612Y430712I-196J-0*
G01X458465Y431102D02*
G03X458612Y430712I590J0D01*
G01X458465Y431102D02*
Y433465D01*
X458612Y433855D02*
G03X458465Y433465I443J-390D01*
G01X458612Y433855D02*
G03X458661Y433985I-147J130D01*
G01Y434912*
G03X458612Y435042I-196J0*
G01X458465Y435433D02*
G03X458612Y435042I590J0D01*
G01X458465Y435433D02*
Y437795D01*
X458612Y438186D02*
G03X458465Y437795I443J-391D01*
G01X458612Y438186D02*
G03X458661Y438316I-147J130D01*
G01Y439243*
G03X458612Y439373I-196J-0*
G01X458465Y439764D02*
G03X458612Y439373I590J-0D01*
G01X458465Y439764D02*
Y442126D01*
X458612Y442517D02*
G03X458465Y442126I443J-391D01*
G01X458612Y442517D02*
G03X458661Y442647I-147J130D01*
G01Y443574*
G03X458612Y443704I-196J-0*
G01X458465Y444094D02*
G03X458612Y443704I590J0D01*
G01X458465Y444094D02*
Y446457D01*
X458612Y446847D02*
G03X458465Y446457I443J-390D01*
G01X458612Y446847D02*
G03X458661Y446978I-147J131D01*
G01Y447904*
G03X458612Y448035I-196J0*
G01X458465Y448425D02*
G03X458612Y448035I590J0D01*
G01X458465Y448425D02*
Y450787D01*
X458612Y451178D02*
G03X458465Y450787I443J-391D01*
G01X458612Y451178D02*
G03X458661Y451308I-147J130D01*
G01Y452235*
G03X458612Y452365I-196J0*
G01X458465Y452756D02*
G03X458612Y452365I590J-0D01*
G01X458465Y452756D02*
Y455118D01*
X458612Y455509D02*
G03X458465Y455118I443J-391D01*
G01X458612Y455509D02*
G03X458661Y455639I-147J130D01*
G01Y456566*
G03X458612Y456696I-196J-0*
G01X458465Y457087D02*
G03X458612Y456696I590J-0D01*
G01X458465Y457087D02*
Y459449D01*
X458612Y459839D02*
G03X458465Y459449I443J-390D01*
G01X458612Y459839D02*
G03X458661Y459970I-147J131D01*
G01Y460896*
X458661D02*
G03X458612Y461027I-196J0D01*
G01X458465Y461417D02*
G03X458612Y461027I590J0D01*
G01X458465Y461417D02*
Y463780D01*
X458612Y464170D02*
G03X458465Y463780I443J-390D01*
G01X458612Y464170D02*
G03X458661Y464300I-147J130D01*
G01Y465227*
G03X458612Y465357I-196J0*
G01X458465Y465748D02*
G03X458612Y465357I590J0D01*
G01X458465Y465748D02*
Y466285D01*
G03X458407Y466424I-197J0*
G01X456936Y467895*
G03X456797Y467953I-139J-139*
G01X454548*
G03X454409Y467895I-0J-197*
G01X444946Y458432*
G03X444888Y458293I139J-139*
G01Y456654*
G03X444969Y456495I197J-0*
G01X445467Y455859D02*
G03X444969Y456495I-1366J-558D01*
G01X445467Y455859D02*
G03X445820Y455836I183J75D01*
G01X448268Y456005D02*
G03X445820Y455836I-1167J-904D01*
G01X448268Y456005D02*
G03X448527Y455958I155J121D01*
G01X448134Y453797D02*
G03X448527Y455958I1167J904D01*
G01X448134Y453797D02*
G03X447875Y453844I-156J-121D01*
G01X445734Y454542D02*
G03X447875Y453844I1367J559D01*
G01X445734Y454542D02*
G03X445381Y454566I-182J-74D01*
G01X443232Y456495D02*
G03X445381Y454566I869J-1194D01*
G01X443232Y456495D02*
G03X443313Y456654I-115J159D01*
G01Y458701*
X443352Y458943D02*
G03X443313Y458701I749J-242D01*
G01X443352Y458943D02*
G03X443016Y459133I-188J61D01*
G01X441032Y461295D02*
G03X443016Y459133I869J-1194D01*
G01X441032Y461295D02*
G03X441113Y461454I-115J159D01*
G01Y461501*
X441115Y461559D02*
G03X441113Y461501I786J-58D01*
G01X441115Y461559D02*
G03X440799Y461729I-196J14D01*
G01X441339Y462567D02*
G03X440799Y461729I-1438J334D01*
G01X441339Y462567D02*
G03X441670Y462384I192J-44D01*
G01X450198Y470911*
X450754Y471142D02*
G03X450198Y470911I0J-788D01*
G01X450754Y471142D02*
X457663D01*
G03X457802Y471199I0J197*
G01X458407Y471804*
G03X458465Y471943I-139J139*
G01Y472441*
X459055Y473032D02*
G03X458465Y472441I0J-591D01*
G01X459055Y473032D02*
X463189D01*
G03X463386Y473228I-0J196*
G01X423001Y406553D02*
G03X422791Y409067I660J1321D01*
G01X423001Y406553D02*
G03X422717Y406377I-88J-176D01*
G01Y405906*
X422126Y405315D02*
G03X422717Y405906I-0J591D01*
G01X422126Y405315D02*
X418189D01*
X417598Y405906D02*
G03X418189Y405315I591J-0D01*
G01X417598Y405906D02*
Y408661D01*
X418189Y409252D02*
G03X417598Y408661I-0J-591D01*
G01X418189Y409252D02*
X422126D01*
X422538Y409085D02*
G03X422126Y409252I-412J-424D01*
G01X422538Y409085D02*
G03X422791Y409067I137J141D01*
G01X423015Y411571D02*
G03X422735Y413878I765J1264D01*
G01X423015Y411571D02*
G03X422717Y411403I-102J-168D01*
G01Y410630*
X422126Y410039D02*
G03X422717Y410630I-0J591D01*
G01X422126Y410039D02*
X418189D01*
X417598Y410630D02*
G03X418189Y410039I591J-0D01*
G01X417598Y410630D02*
Y413386D01*
X418189Y413976D02*
G03X417598Y413386I-0J-590D01*
G01X418189Y413976D02*
X422126D01*
X422479Y413860D02*
G03X422126Y413976I-353J-474D01*
G01X422479Y413860D02*
G03X422735Y413878I117J158D01*
G01X423020Y416554D02*
G03X422645Y418690I799J1241D01*
G01X423020Y416554D02*
G03X422717Y416388I-107J-166D01*
G01Y415354*
X422126Y414764D02*
G03X422717Y415354I-0J590D01*
G01X422126Y414764D02*
X418189D01*
X417598Y415354D02*
G03X418189Y414764I591J0D01*
G01X417598Y415354D02*
Y418110D01*
X418189Y418701D02*
G03X417598Y418110I-0J-591D01*
G01X418189Y418701D02*
X422126D01*
X422398Y418635D02*
G03X422126Y418701I-272J-525D01*
G01X422398Y418635D02*
G03X422645Y418690I90J174D01*
G01X427576Y425295D02*
G03X427576I-1476J0D01*
G01X429422Y429492D02*
G03X429062Y431692I775J1256D01*
G01X429422Y429492D02*
G03X429167Y429450I-104J-168D01*
G01X426568Y430203D02*
G03X429167Y429450I1463J191D01*
G01X426568Y430203D02*
G03X426373Y430374I-196J-26D01*
G01X427842Y432041D02*
G03X426373Y430374I-1464J-191D01*
G01X427842Y432041D02*
G03X428036Y431870I195J26D01*
G01X428807Y431650D02*
G03X428036Y431870I-776J-1256D01*
G01X428807Y431650D02*
G03X429062Y431692I103J168D01*
G01X430798Y463107D02*
G03X432392Y465055I1395J485D01*
G01X430798Y463107D02*
G03X430443Y463144I-186J-64D01*
G01X427709Y463733D02*
G03X430443Y463144I1467J168D01*
G01X427709Y463733D02*
G03X427518Y463907I-196J-23D01*
G01X427505Y463908D02*
G03X427518Y463907I49J1475D01*
G01X427505Y463908D02*
G03X427305Y463748I-7J-197D01*
G01X424513Y463415D02*
G03X427305Y463748I1342J614D01*
G01X424513Y463415D02*
G03X424280Y463523I-180J-82D01*
G01X425221Y465557D02*
G03X424280Y463523I-1343J-613D01*
G01X425221Y465557D02*
G03X425454Y465450I179J82D01*
G01X425905Y465504D02*
G03X425454Y465450I-50J-1475D01*
G01X425905Y465504D02*
G03X426105Y465664I6J197D01*
G01X428964Y465822D02*
G03X426105Y465664I-1410J-439D01*
G01X428964Y465822D02*
G03X429340Y465823I188J59D01*
G01X432222Y465266D02*
G03X429340Y465823I-1471J123D01*
G01X432222Y465266D02*
G03X432392Y465055I196J-16D01*
G01X411284Y455945D02*
G03X410824Y458102I730J1283D01*
G01X411284Y455945D02*
G03X411028Y455890I-97J-171D01*
G01X410965Y455810D02*
G03X411028Y455890I-1127J953D01*
G01X410965Y455810D02*
G03X410973Y455547I150J-127D01*
G01X411319Y454949D02*
G03X410973Y455547I-1415J-421D01*
G01X411319Y454949D02*
G03X411534Y454810I189J56D01*
G01X412368Y452014D02*
G03X411534Y454810I-636J1332D01*
G01X412368Y452014D02*
G03X412382Y451653I85J-178D01*
G01X412332Y448880D02*
G03X412382Y451653I-482J1396D01*
G01X412332Y448880D02*
G03X412290Y448528I64J-186D01*
G01X410020Y447329D02*
G03X412290Y448528I1476J-46D01*
G01X410020Y447329D02*
G03X409838Y447532I-196J6D01*
G01X409299Y450333D02*
G03X409838Y447532I644J-1329D01*
G01X409299Y450333D02*
G03X409302Y450687I-85J178D01*
G01X408965Y453098D02*
G03X409302Y450687I996J-1090D01*
G01X408965Y453098D02*
G03X408958Y453395I-133J145D01*
G01X408777Y455482D02*
G03X408958Y453395I1127J-954D01*
G01X408777Y455482D02*
G03X408769Y455745I-150J127D01*
G01X410568Y458047D02*
G03X408769Y455745I-730J-1284D01*
G01X410568Y458047D02*
G03X410824Y458102I97J171D01*
G01X418260Y466320D02*
G03X418676Y469192I480J1397D01*
G01X418260Y466320D02*
G03X418066Y465987I-64J-186D01*
G01X416343Y463607D02*
G03X418066Y465987I744J1275D01*
G01X416343Y463607D02*
G03X416083Y463551I-100J-170D01*
G01X415743Y463210D02*
G03X416083Y463551I-861J1199D01*
G01X415743Y463210D02*
G03X415682Y462960I114J-160D01*
G01X413509Y463483D02*
G03X415682Y462960I861J-1200D01*
G01X413509Y463483D02*
G03X413570Y463733I-114J160D01*
G01X415279Y465831D02*
G03X413570Y463733I-397J-1422D01*
G01X415279Y465831D02*
G03X415487Y466142I53J190D01*
G01X416242Y468465D02*
G03X415487Y466142I412J-1418D01*
G01X416242Y468465D02*
G03X416298Y468817I-55J189D01*
G01X418486Y469465D02*
G03X416298Y468817I-1360J574D01*
G01X418486Y469465D02*
G03X418676Y469192I181J-77D01*
G01X412320Y460618D02*
G03X412320I-1477J0D01*
G01X409350Y440079D02*
G03X409350I-1476J0D01*
G01X440353Y405624D02*
G03X441581Y406852I1458J-230D01*
G01X440353Y405624D02*
G03X440297Y405794I-195J31D01*
G01X439653Y406438*
G03X439514Y406496I-139J-139*
G01X437087*
G03X436890Y406299I-0J-197*
G01Y405906*
X436299Y405315D02*
G03X436890Y405906I0J591D01*
G01X436299Y405315D02*
X432362D01*
X431772Y405906D02*
G03X432362Y405315I590J-0D01*
G01X431772Y405906D02*
Y408661D01*
X432362Y409252D02*
G03X431772Y408661I0J-591D01*
G01X432362Y409252D02*
X436299D01*
X436890Y408661D02*
G03X436299Y409252I-591J0D01*
G01X436890Y408661D02*
Y408268D01*
G03X437087Y408071I197J-0*
G01X439921*
X440478Y407840D02*
G03X439921Y408071I-557J-557D01*
G01X440478Y407840D02*
X441411Y406907D01*
G03X441581Y406852I139J139*
G01X439920Y410584D02*
G03X441148Y411813I1458J-230D01*
G01X439920Y410584D02*
G03X439864Y410754I-195J31D01*
G01X439456Y411163*
G03X439317Y411220I-139J-139*
G01X437087*
G03X436890Y411024I-0J-196*
G01Y410630*
X436299Y410039D02*
G03X436890Y410630I0J591D01*
G01X436299Y410039D02*
X432362D01*
X431772Y410630D02*
G03X432362Y410039I590J-0D01*
G01X431772Y410630D02*
Y413386D01*
X432362Y413976D02*
G03X431772Y413386I0J-590D01*
G01X432362Y413976D02*
X436299D01*
X436890Y413386D02*
G03X436299Y413976I-591J-0D01*
G01X436890Y413386D02*
Y412992D01*
G03X437087Y412795I197J0*
G01X439724*
X440281Y412565D02*
G03X439724Y412795I-557J-557D01*
G01X440281Y412565D02*
X440978Y411868D01*
G03X441148Y411813I139J139*
G01X439841Y415506D02*
G03X441069Y416734I1458J-230D01*
G01X439841Y415506D02*
G03X439786Y415676I-195J30D01*
G01X439574Y415887*
G03X439435Y415945I-139J-139*
G01X437087*
G03X436890Y415748I-0J-197*
G01Y415354*
X436299Y414764D02*
G03X436890Y415354I0J590D01*
G01X436299Y414764D02*
X432362D01*
X431772Y415354D02*
G03X432362Y414764I590J0D01*
G01X431772Y415354D02*
Y418110D01*
X432362Y418701D02*
G03X431772Y418110I0J-591D01*
G01X432362Y418701D02*
X436299D01*
X436890Y418110D02*
G03X436299Y418701I-591J0D01*
G01X436890Y418110D02*
Y417717D01*
G03X437087Y417520I197J-0*
G01X439843*
X440399Y417289D02*
G03X439843Y417520I-556J-557D01*
G01X440399Y417289D02*
X440899Y416789D01*
G03X441069Y416734I139J139*
G01X452119Y425361D02*
G03X453622Y427027I1464J190D01*
G01X452119Y425361D02*
G03X451929Y425532I-196J-26D01*
G01X453433Y427198D02*
G03X451929Y425532I-1464J-190D01*
G01X453433Y427198D02*
G03X453622Y427027I195J26D01*
G01X456004Y441535D02*
G03X456004I-1476J0D01*
G01X453177Y452101D02*
G03X453177I-1476J0D01*
G01X443884Y428986D02*
G03X444188Y429764I1470J-128D01*
G01X443884Y428986D02*
G03X443532Y429124I-197J18D01*
G01X443836Y429901D02*
G03X443532Y429124I-1470J129D01*
G01X443836Y429901D02*
G03X444188Y429764I197J-17D01*
G01X447264Y438622D02*
G03X447264I-1477J0D01*
G01X447736Y442323D02*
G03X447736I-1476J0D01*
G01X447483Y448871D02*
G03X447001Y450801I818J1230D01*
G01X447483Y448871D02*
G03X447201Y448801I-109J-163D01*
G01X446333Y448089D02*
G03X447201Y448801I-432J1412D01*
G01X446333Y448089D02*
G03Y447713I57J-188D01*
G01X445090Y445067D02*
G03X446333Y447713I811J1234D01*
G01X445090Y445067D02*
G03X444836Y445034I-108J-165D01*
G01X442934Y447260D02*
G03X444836Y445034I806J-1236D01*
G01X442934Y447260D02*
G03X442888Y447612I-108J165D01*
G01X444300Y450143D02*
G03X442888Y447612I-954J-1127D01*
G01X444300Y450143D02*
G03X444600Y450200I127J150D01*
G01X446718Y450730D02*
G03X444600Y450200I-817J-1229D01*
G01X446718Y450730D02*
G03X447001Y450801I109J164D01*
G01X394882Y479369D02*
X463386D01*
X394882Y479014D02*
X463386D01*
X394882Y478660D02*
X463386D01*
X394882Y478306D02*
X463386D01*
X394882Y477951D02*
X463386D01*
X394882Y477597D02*
X463386D01*
X394882Y477243D02*
X463386D01*
X394882Y476888D02*
X463386D01*
X394882Y476534D02*
X463386D01*
X394882Y476180D02*
X463386D01*
X394882Y475825D02*
X463386D01*
X394882Y475471D02*
X463386D01*
X394882Y475117D02*
X463386D01*
X394882Y474762D02*
X463386D01*
X394882Y474408D02*
X463386D01*
X394882Y474054D02*
X463386D01*
X394882Y473699D02*
X463386D01*
X394882Y473345D02*
X463386D01*
X413535Y421613D02*
X463386D01*
X413181Y421259D02*
X463386D01*
X412826Y420904D02*
X463386D01*
X412472Y420550D02*
X463386D01*
X412118Y420196D02*
X463386D01*
X411763Y419841D02*
X463386D01*
X411409Y419487D02*
X463386D01*
X424445Y419133D02*
X463386D01*
X424921Y418778D02*
X463386D01*
X436800Y418424D02*
X463386D01*
X436890Y418070D02*
X463386D01*
X436890Y417715D02*
X463386D01*
X440317Y417361D02*
X463386D01*
X440682Y417007D02*
X463386D01*
X402894Y399999D02*
X463386D01*
X457293Y399644D02*
X463386D01*
X457648Y399290D02*
X463386D01*
X458002Y398936D02*
X463386D01*
X458356Y398581D02*
X463386D01*
X458711Y398227D02*
X463386D01*
X459006Y397873D02*
X463386D01*
X459055Y397518D02*
X463386D01*
X459055Y397164D02*
X463386D01*
X459055Y396810D02*
X463386D01*
X459055Y396455D02*
X463386D01*
X459055Y396101D02*
X463386D01*
X459055Y395747D02*
X463386D01*
X459055Y395392D02*
X463386D01*
X459059Y395038D02*
X463382D01*
X402894Y400353D02*
X459639D01*
X402897Y400707D02*
X459361D01*
X403200Y401062D02*
X459095D01*
X399428Y472991D02*
X458840D01*
X403555Y401416D02*
X458830D01*
X441833Y416652D02*
X458758D01*
X413889Y421967D02*
X458703D01*
X451709Y465196D02*
X458661D01*
X451355Y464841D02*
X458661D01*
X451000Y464487D02*
X458661D01*
X447103Y460589D02*
X458661D01*
X446748Y460235D02*
X458661D01*
X447908Y456337D02*
X458661D01*
X450033Y455983D02*
X458661D01*
X453177Y452085D02*
X458661D01*
X453130Y451731D02*
X458661D01*
X452987Y451377D02*
X458661D01*
X446206Y447833D02*
X458661D01*
X446790Y447479D02*
X458661D01*
X447126Y447125D02*
X458661D01*
X447427Y443227D02*
X458661D01*
X455153Y442873D02*
X458661D01*
X447221Y438975D02*
X458661D01*
X447264Y438621D02*
X458661D01*
X399606Y434723D02*
X458661D01*
X399606Y434369D02*
X458661D01*
X399606Y434014D02*
X458661D01*
X443774Y430471D02*
X458661D01*
X446126Y430117D02*
X458661D01*
X446521Y429762D02*
X458661D01*
X454899Y426219D02*
X458661D01*
X455025Y425865D02*
X458661D01*
X455059Y425510D02*
X458661D01*
X436890Y413109D02*
X458661D01*
X439974Y412755D02*
X458661D01*
X440446Y412400D02*
X458661D01*
X436856Y408857D02*
X458661D01*
X436890Y408503D02*
X458661D01*
X436930Y408148D02*
X458661D01*
X442745Y404251D02*
X458661D01*
X406035Y403896D02*
X458661D01*
X447032Y443581D02*
X458661D01*
X443059Y404605D02*
X458661D01*
X450449Y455629D02*
X458661D01*
X447457Y460944D02*
X458656D01*
X447220Y438266D02*
X458655D01*
X447083Y439329D02*
X458641D01*
X446394Y459881D02*
X458640D01*
X444888Y456692D02*
X458616D01*
X455629Y442518D02*
X458614D01*
X399684Y435077D02*
X458584D01*
X450646Y464133D02*
X458582D01*
X455005Y425156D02*
X458582D01*
X403909Y401770D02*
X458564D01*
X453138Y452440D02*
X458556D01*
X436885Y413463D02*
X458556D01*
X447301Y446770D02*
X458555D01*
X440524Y407794D02*
X458555D01*
X443609Y430825D02*
X458533D01*
X446725Y429408D02*
X458532D01*
X446576Y448188D02*
X458514D01*
X442312Y409211D02*
X458514D01*
X452709Y451022D02*
X458513D01*
X440800Y412046D02*
X458513D01*
X452063Y465550D02*
X458499D01*
X454648Y426573D02*
X458499D01*
X399770Y472636D02*
X458498D01*
X399770Y433660D02*
X458498D01*
X399781Y443936D02*
X458486D01*
X443222Y404959D02*
X458486D01*
X450661Y455274D02*
X458486D01*
X442364Y416298D02*
X458486D01*
X447811Y461298D02*
X458477D01*
X414244Y422322D02*
X458477D01*
X447082Y437912D02*
X458476D01*
X446813Y439684D02*
X458470D01*
X446040Y459526D02*
X458470D01*
X444888Y457046D02*
X458466D01*
X455863Y442164D02*
X458466D01*
X399803Y435432D02*
X458465D01*
X399803Y472282D02*
X458465D01*
X452772Y466259D02*
X458465D01*
X452418Y465904D02*
X458465D01*
X450292Y463778D02*
X458465D01*
X449937Y463424D02*
X458465D01*
X449583Y463070D02*
X458465D01*
X449229Y462715D02*
X458465D01*
X448874Y462361D02*
X458465D01*
X448520Y462007D02*
X458465D01*
X448166Y461652D02*
X458465D01*
X445686Y459172D02*
X458465D01*
X445331Y458818D02*
X458465D01*
X444977Y458463D02*
X458465D01*
X444888Y458109D02*
X458465D01*
X444888Y457755D02*
X458465D01*
X444888Y457400D02*
X458465D01*
X450761Y454920D02*
X458465D01*
X450771Y454566D02*
X458465D01*
X450694Y454211D02*
X458465D01*
X450512Y453857D02*
X458465D01*
X452164Y453503D02*
X458465D01*
X452741Y453148D02*
X458465D01*
X453004Y452794D02*
X458465D01*
X452057Y450668D02*
X458465D01*
X449762Y450314D02*
X458465D01*
X449770Y449959D02*
X458465D01*
X449691Y449605D02*
X458465D01*
X449508Y449251D02*
X458465D01*
X449155Y448896D02*
X458465D01*
X447023Y448542D02*
X458465D01*
X447373Y446416D02*
X458465D01*
X447358Y446062D02*
X458465D01*
X447253Y445707D02*
X458465D01*
X447033Y445353D02*
X458465D01*
X446597Y444999D02*
X458465D01*
X444267Y444644D02*
X458465D01*
X399803Y444290D02*
X458465D01*
X455978Y441810D02*
X458465D01*
X456002Y441455D02*
X458465D01*
X455939Y441101D02*
X458465D01*
X455776Y440747D02*
X458465D01*
X455462Y440392D02*
X458465D01*
X446205Y440038D02*
X458465D01*
X446811Y437558D02*
X458465D01*
X446196Y437203D02*
X458465D01*
X399803Y436849D02*
X458465D01*
X399803Y436495D02*
X458465D01*
X399803Y436140D02*
X458465D01*
X399803Y435786D02*
X458465D01*
X426626Y433306D02*
X458465D01*
X427362Y432951D02*
X458465D01*
X427652Y432597D02*
X458465D01*
X427801Y432243D02*
X458465D01*
X431135Y431888D02*
X458465D01*
X431447Y431534D02*
X458465D01*
X443291Y431180D02*
X458465D01*
X446818Y429054D02*
X458465D01*
X446822Y428699D02*
X458465D01*
X452594Y428345D02*
X458465D01*
X453070Y427991D02*
X458465D01*
X453304Y427636D02*
X458465D01*
X453419Y427282D02*
X458465D01*
X454116Y426928D02*
X458465D01*
X454855Y424802D02*
X458465D01*
X454563Y424448D02*
X458465D01*
X453815Y424093D02*
X458465D01*
X415661Y423739D02*
X458465D01*
X415307Y423385D02*
X458465D01*
X414952Y423030D02*
X458465D01*
X414598Y422676D02*
X458465D01*
X442616Y415944D02*
X458465D01*
X442742Y415589D02*
X458465D01*
X442775Y415235D02*
X458465D01*
X442722Y414881D02*
X458465D01*
X442571Y414526D02*
X458465D01*
X442280Y414172D02*
X458465D01*
X441532Y413818D02*
X458465D01*
X442004Y411692D02*
X458465D01*
X442480Y411337D02*
X458465D01*
X442714Y410983D02*
X458465D01*
X442829Y410629D02*
X458465D01*
X442852Y410274D02*
X458465D01*
X442789Y409920D02*
X458465D01*
X442626Y409566D02*
X458465D01*
X440879Y407440D02*
X458465D01*
X441233Y407085D02*
X458465D01*
X442437Y406731D02*
X458465D01*
X442913Y406377D02*
X458465D01*
X443147Y406022D02*
X458465D01*
X443262Y405668D02*
X458465D01*
X443285Y405314D02*
X458465D01*
X399803Y471928D02*
X458464D01*
X405681Y403542D02*
X458417D01*
X404263Y402125D02*
X458318D01*
X405326Y403188D02*
X458269D01*
X404972Y402833D02*
X458268D01*
X404618Y402479D02*
X458268D01*
X453126Y466613D02*
X458218D01*
X399803Y471573D02*
X458176D01*
X453481Y466967D02*
X457864D01*
X418014Y471219D02*
X457822D01*
X453835Y467322D02*
X457510D01*
X454189Y467676D02*
X457155D01*
X454538Y399644D02*
X455698D01*
X447630Y442873D02*
X453902D01*
X409317Y440392D02*
X453593D01*
X447723Y442518D02*
X453426D01*
X426957Y424093D02*
X453350D01*
X409191Y440747D02*
X453279D01*
X447728Y442164D02*
X453192D01*
X447089Y441101D02*
X453117D01*
X447644Y441810D02*
X453077D01*
X447455Y441455D02*
X453053D01*
X427309Y424448D02*
X452602D01*
X427491Y424802D02*
X452311D01*
X427569Y425156D02*
X452160D01*
X427560Y425510D02*
X452013D01*
X450208Y399644D02*
X451367D01*
X449664Y450668D02*
X451345D01*
X446739Y428345D02*
X451343D01*
X450163Y453503D02*
X451238D01*
X427461Y425865D02*
X451034D01*
X446549Y427991D02*
X450867D01*
X427251Y426219D02*
X450720D01*
X449454Y451022D02*
X450693D01*
X413195Y453148D02*
X450660D01*
X446183Y427636D02*
X450633D01*
X426838Y426573D02*
X450557D01*
X419204Y427282D02*
X450518D01*
X418850Y426928D02*
X450494D01*
X449044Y451377D02*
X450414D01*
X413101Y452794D02*
X450397D01*
X412287Y451731D02*
X450271D01*
X412897Y452440D02*
X450264D01*
X412500Y452085D02*
X450224D01*
X418350Y470865D02*
X450151D01*
X418525Y470510D02*
X449797D01*
X418598Y470156D02*
X449443D01*
X418583Y469802D02*
X449088D01*
X418480Y469448D02*
X448734D01*
X448288Y455983D02*
X448569D01*
X413200Y453503D02*
X448438D01*
X419274Y469093D02*
X448380D01*
X447901Y453857D02*
X448056D01*
X419805Y468739D02*
X448025D01*
X420057Y468385D02*
X447671D01*
X412834Y451377D02*
X447558D01*
X447318Y448896D02*
X447430D01*
X420183Y468030D02*
X447317D01*
X413124Y451022D02*
X447147D01*
X445877Y399644D02*
X447036D01*
X420216Y467676D02*
X446962D01*
X420163Y467322D02*
X446608D01*
X444409Y453857D02*
X446305D01*
X445152Y456337D02*
X446294D01*
X420012Y466967D02*
X446254D01*
X445097Y454211D02*
X445922D01*
X445410Y455983D02*
X445917D01*
X431577Y466613D02*
X445899D01*
X445381Y454566D02*
X445723D01*
X431944Y466259D02*
X445545D01*
X399606Y443581D02*
X445488D01*
X408939Y441101D02*
X445431D01*
X399803Y437203D02*
X445378D01*
X409350Y440038D02*
X445369D01*
X444803Y444999D02*
X445205D01*
X432134Y465904D02*
X445191D01*
X399606Y443227D02*
X445093D01*
X408408Y441455D02*
X445065D01*
X413274Y450668D02*
X444997D01*
X399606Y442873D02*
X444890D01*
X399803Y441810D02*
X444875D01*
X432218Y465550D02*
X444836D01*
X399654Y442518D02*
X444796D01*
X399802Y442164D02*
X444792D01*
X399803Y437558D02*
X444764D01*
X409297Y439684D02*
X444761D01*
X444050Y450314D02*
X444668D01*
X443839Y430117D02*
X444582D01*
X419559Y427636D02*
X444525D01*
X399792Y437912D02*
X444493D01*
X409146Y439329D02*
X444491D01*
X432229Y465196D02*
X444482D01*
X399613Y438266D02*
X444354D01*
X408855Y438975D02*
X444354D01*
X408106Y438621D02*
X444311D01*
X443878Y429762D02*
X444187D01*
X419913Y427991D02*
X444160D01*
X432979Y464841D02*
X444128D01*
X420267Y428345D02*
X443970D01*
X443007Y428699D02*
X443886D01*
X443474Y429054D02*
X443878D01*
X413118Y453857D02*
X443792D01*
X433367Y464487D02*
X443773D01*
X440715Y464133D02*
X443419D01*
X442631Y458818D02*
X443322D01*
X412823Y458463D02*
X443313D01*
X413199Y458109D02*
X443313D01*
X413393Y457755D02*
X443313D01*
X413480Y457400D02*
X443313D01*
X413479Y457046D02*
X443313D01*
X413389Y456692D02*
X443313D01*
X443062Y459172D02*
X443267D01*
X399803Y444644D02*
X443213D01*
X412929Y454211D02*
X443104D01*
X441088Y463778D02*
X443065D01*
X413191Y456337D02*
X443049D01*
X412959Y447479D02*
X443016D01*
X412565Y454566D02*
X442820D01*
X412807Y455983D02*
X442791D01*
X412964Y447125D02*
X442757D01*
X441281Y463424D02*
X442710D01*
X441546Y399644D02*
X442706D01*
X399803Y444999D02*
X442677D01*
X411330Y454920D02*
X442674D01*
X410926Y455629D02*
X442661D01*
X413326Y450314D02*
X442643D01*
X411178Y455274D02*
X442625D01*
X412880Y446770D02*
X442467D01*
X412866Y447833D02*
X442462D01*
X399803Y445353D02*
X442425D01*
X441368Y463070D02*
X442356D01*
X412691Y446416D02*
X442317D01*
X399803Y445707D02*
X442298D01*
X412325Y446062D02*
X442264D01*
X413293Y449959D02*
X442211D01*
X412663Y448188D02*
X442124D01*
X441365Y462715D02*
X442002D01*
X413166Y449605D02*
X441993D01*
X412271Y448542D02*
X441948D01*
X412913Y449251D02*
X441889D01*
X412377Y448896D02*
X441875D01*
X420487Y428699D02*
X441725D01*
X441419Y462361D02*
X441643D01*
X431609Y431180D02*
X441440D01*
X428652Y429054D02*
X441258D01*
X399803Y458818D02*
X441171D01*
X431671Y430825D02*
X441122D01*
X440689Y461652D02*
X441099D01*
X436702Y413818D02*
X441067D01*
X415469Y461298D02*
X441037D01*
X430817Y429408D02*
X441026D01*
X431647Y430471D02*
X440957D01*
X431296Y429762D02*
X440914D01*
X431532Y430117D02*
X440892D01*
X406389Y404251D02*
X440877D01*
X411141Y459172D02*
X440753D01*
X414990Y460944D02*
X440689D01*
X406744Y404605D02*
X440563D01*
X411837Y459526D02*
X440541D01*
X412319Y460589D02*
X440508D01*
X436515Y409211D02*
X440443D01*
X412122Y459881D02*
X440441D01*
X412269Y460235D02*
X440430D01*
X407098Y404959D02*
X440400D01*
X436840Y405668D02*
X440355D01*
X407452Y405314D02*
X440337D01*
X424405Y414172D02*
X440319D01*
X408878Y409566D02*
X440130D01*
X436890Y406022D02*
X440069D01*
X408878Y414526D02*
X440027D01*
X408878Y409920D02*
X439967D01*
X436890Y410629D02*
X439922D01*
X436771Y410274D02*
X439904D01*
X436652Y414881D02*
X439877D01*
X436890Y415589D02*
X439836D01*
X436878Y415235D02*
X439823D01*
X436906Y406377D02*
X439714D01*
X436890Y410983D02*
X439636D01*
X437064Y415944D02*
X439457D01*
X415705Y461652D02*
X439113D01*
X433567Y464133D02*
X439087D01*
X415820Y462007D02*
X438726D01*
X433657Y463778D02*
X438713D01*
X433008Y462361D02*
X438527D01*
X433660Y463424D02*
X438520D01*
X433381Y462715D02*
X438436D01*
X433574Y463070D02*
X438434D01*
X432883Y399644D02*
X438377D01*
X433066Y399290D02*
X438194D01*
X433071Y398936D02*
X438189D01*
X433071Y398581D02*
X438189D01*
X433071Y398227D02*
X438189D01*
X433071Y397873D02*
X438189D01*
X433071Y397518D02*
X438189D01*
X433071Y397164D02*
X438189D01*
X433071Y396810D02*
X438189D01*
X433071Y396455D02*
X438189D01*
X433071Y396101D02*
X438189D01*
X433071Y395747D02*
X438189D01*
X433071Y395392D02*
X438189D01*
X433075Y395038D02*
X438185D01*
X424287Y409211D02*
X432147D01*
X422479Y414881D02*
X432010D01*
X424881Y413818D02*
X431959D01*
X422597Y410274D02*
X431891D01*
X425155Y418424D02*
X431862D01*
X422667Y405668D02*
X431822D01*
X424763Y408857D02*
X431805D01*
X422704Y415235D02*
X431784D01*
X425115Y413463D02*
X431777D01*
X422717Y410629D02*
X431772D01*
X425270Y418070D02*
X431772D01*
X425293Y417715D02*
X431772D01*
X425230Y417361D02*
X431772D01*
X425067Y417007D02*
X431772D01*
X424753Y416652D02*
X431772D01*
X422717Y416298D02*
X431772D01*
X422717Y415944D02*
X431772D01*
X422717Y415589D02*
X431772D01*
X425230Y413109D02*
X431772D01*
X425254Y412755D02*
X431772D01*
X425191Y412400D02*
X431772D01*
X425028Y412046D02*
X431772D01*
X424714Y411692D02*
X431772D01*
X422717Y411337D02*
X431772D01*
X422717Y410983D02*
X431772D01*
X424997Y408503D02*
X431772D01*
X425112Y408148D02*
X431772D01*
X425136Y407794D02*
X431772D01*
X425072Y407440D02*
X431772D01*
X424909Y407085D02*
X431772D01*
X424596Y406731D02*
X431772D01*
X422717Y406377D02*
X431772D01*
X422717Y406022D02*
X431772D01*
X415844Y462361D02*
X431378D01*
X430056Y462715D02*
X431005D01*
X430396Y463070D02*
X430812D01*
X428371Y466613D02*
X429925D01*
X428554Y399644D02*
X429714D01*
X429131Y429408D02*
X429577D01*
X428743Y466259D02*
X429558D01*
X428935Y465904D02*
X429367D01*
X427954Y431888D02*
X429259D01*
X426529Y462715D02*
X428296D01*
X426978Y463070D02*
X427955D01*
X427202Y463424D02*
X427778D01*
X427313Y463778D02*
X427698D01*
X420532Y429054D02*
X427411D01*
X422443Y429408D02*
X426932D01*
X419721Y466613D02*
X426737D01*
X422809Y429762D02*
X426697D01*
X422999Y430117D02*
X426581D01*
X424550Y466259D02*
X426365D01*
X424999Y465904D02*
X426173D01*
X420064Y433306D02*
X426130D01*
X425225Y465550D02*
X426037D01*
X423082Y430471D02*
X425851D01*
X420672Y432951D02*
X425394D01*
X424223Y399644D02*
X425383D01*
X418496Y426573D02*
X425361D01*
X423078Y430825D02*
X425315D01*
X416015Y424093D02*
X425242D01*
X415782Y462715D02*
X425181D01*
X420942Y432597D02*
X425104D01*
X422984Y431180D02*
X425063D01*
X421079Y432243D02*
X424955D01*
X418141Y426219D02*
X424948D01*
X422781Y431534D02*
X424936D01*
X422386Y431888D02*
X424902D01*
X416370Y424448D02*
X424890D01*
X417787Y425865D02*
X424738D01*
X415662Y463070D02*
X424733D01*
X416724Y424802D02*
X424708D01*
X417433Y425510D02*
X424639D01*
X417078Y425156D02*
X424630D01*
X417319Y463424D02*
X424508D01*
X418972Y466259D02*
X423207D01*
X410384Y419133D02*
X423193D01*
X408878Y414172D02*
X423154D01*
X422341Y409211D02*
X423036D01*
X418067Y463778D02*
X422972D01*
X418152Y465904D02*
X422757D01*
X410291Y418778D02*
X422717D01*
X418359Y464133D02*
X422645D01*
X418403Y465550D02*
X422532D01*
X418509Y464487D02*
X422474D01*
X418529Y465196D02*
X422424D01*
X418562Y464841D02*
X422405D01*
X419893Y399644D02*
X421052D01*
X399803Y433306D02*
X419228D01*
X418169Y430471D02*
X418760D01*
X399606Y430117D02*
X418760D01*
X399606Y429762D02*
X418760D01*
X399736Y429408D02*
X418759D01*
X418234Y432951D02*
X418620D01*
X418044Y466259D02*
X418508D01*
X399803Y429054D02*
X418470D01*
X399803Y428699D02*
X418116D01*
X408878Y409211D02*
X417974D01*
X408878Y414881D02*
X417836D01*
X408878Y413818D02*
X417786D01*
X399803Y428345D02*
X417762D01*
X408878Y410274D02*
X417717D01*
X410153Y418424D02*
X417689D01*
X407807Y405668D02*
X417648D01*
X408878Y408857D02*
X417632D01*
X408878Y415235D02*
X417611D01*
X408878Y413463D02*
X417604D01*
X408878Y410629D02*
X417598D01*
X409882Y418070D02*
X417598D01*
X409267Y417715D02*
X417598D01*
X408878Y417361D02*
X417598D01*
X408878Y417007D02*
X417598D01*
X408878Y416652D02*
X417598D01*
X408878Y416298D02*
X417598D01*
X408878Y415944D02*
X417598D01*
X408878Y415589D02*
X417598D01*
X408878Y413109D02*
X417598D01*
X408878Y412755D02*
X417598D01*
X408878Y412400D02*
X417598D01*
X408878Y412046D02*
X417598D01*
X408878Y411692D02*
X417598D01*
X408878Y411337D02*
X417598D01*
X408878Y410983D02*
X417598D01*
X408878Y408503D02*
X417598D01*
X408878Y408148D02*
X417598D01*
X408878Y407794D02*
X417598D01*
X408878Y407440D02*
X417598D01*
X408878Y407085D02*
X417598D01*
X408795Y406731D02*
X417598D01*
X408515Y406377D02*
X417598D01*
X408161Y406022D02*
X417598D01*
X399803Y427991D02*
X417407D01*
X399803Y427636D02*
X417053D01*
X415981Y463424D02*
X416854D01*
X415562Y399644D02*
X416721D01*
X399803Y427282D02*
X416699D01*
X399606Y430471D02*
X416634D01*
X399803Y432951D02*
X416569D01*
X399606Y468739D02*
X416365D01*
X399803Y426928D02*
X416344D01*
X399803Y471219D02*
X416238D01*
X399734Y430825D02*
X416236D01*
X399803Y432597D02*
X416205D01*
X399803Y431180D02*
X416032D01*
X399736Y468385D02*
X416028D01*
X399803Y432243D02*
X416016D01*
X399606Y469093D02*
X415993D01*
X399769Y426573D02*
X415990D01*
X399803Y431534D02*
X415939D01*
X399803Y431888D02*
X415933D01*
X399803Y470865D02*
X415902D01*
X399606Y469448D02*
X415773D01*
X399803Y470510D02*
X415727D01*
X399734Y469802D02*
X415669D01*
X399803Y470156D02*
X415654D01*
X399606Y426219D02*
X415636D01*
X399803Y468030D02*
X415552D01*
X399803Y465904D02*
X415490D01*
X399803Y466259D02*
X415405D01*
X399803Y467676D02*
X415318D01*
X399606Y425865D02*
X415281D01*
X399803Y466613D02*
X415242D01*
X399803Y467322D02*
X415203D01*
X399803Y466967D02*
X415179D01*
X399606Y425510D02*
X414927D01*
X399686Y425156D02*
X414573D01*
X399803Y424802D02*
X414218D01*
X399769Y465550D02*
X413944D01*
X399803Y424448D02*
X413864D01*
X412283Y460944D02*
X413750D01*
X399606Y465196D02*
X413632D01*
X399803Y463778D02*
X413547D01*
X399803Y424093D02*
X413510D01*
X399606Y464841D02*
X413470D01*
X399803Y463424D02*
X413432D01*
X399686Y464133D02*
X413432D01*
X399606Y464487D02*
X413408D01*
X412154Y461298D02*
X413271D01*
X399803Y423739D02*
X413155D01*
X399803Y463070D02*
X413120D01*
X411897Y461652D02*
X413035D01*
X399803Y462715D02*
X412958D01*
X411345Y462007D02*
X412920D01*
X399803Y462361D02*
X412896D01*
X399803Y423385D02*
X412801D01*
X399803Y423030D02*
X412447D01*
X411231Y399644D02*
X412391D01*
X399803Y422676D02*
X412092D01*
X399791Y422322D02*
X411738D01*
X399612Y421967D02*
X411384D01*
X399803Y458463D02*
X411205D01*
X399606Y421613D02*
X411029D01*
X410446Y458109D02*
X410829D01*
X399606Y421259D02*
X410675D01*
X399803Y446062D02*
X410667D01*
X399803Y459172D02*
X410545D01*
X399803Y462007D02*
X410342D01*
X399803Y446416D02*
X410301D01*
X399713Y446770D02*
X410112D01*
X399606Y447125D02*
X410028D01*
X399606Y447479D02*
X409958D01*
X399798Y459526D02*
X409849D01*
X399803Y461652D02*
X409790D01*
X399628Y459881D02*
X409564D01*
X399791Y461298D02*
X409533D01*
X399628Y420904D02*
X409482D01*
X399606Y460235D02*
X409417D01*
X399612Y460944D02*
X409403D01*
X399606Y460589D02*
X409367D01*
X399803Y450668D02*
X409332D01*
X399803Y450314D02*
X409260D01*
X399803Y458109D02*
X409230D01*
X399606Y447833D02*
X409043D01*
X399803Y453148D02*
X409005D01*
X399754Y451022D02*
X408861D01*
X399803Y453503D02*
X408842D01*
X399607Y455629D02*
X408823D01*
X399803Y449959D02*
X408817D01*
X399803Y457755D02*
X408743D01*
X399753Y448188D02*
X408713D01*
X399803Y452794D02*
X408711D01*
X399782Y455274D02*
X408630D01*
X399606Y451377D02*
X408626D01*
X399803Y449605D02*
X408594D01*
X399803Y453857D02*
X408589D01*
X399606Y455983D02*
X408585D01*
X399711Y452440D02*
X408549D01*
X399803Y448542D02*
X408540D01*
X399606Y451731D02*
X408510D01*
X399803Y457400D02*
X408506D01*
X399803Y449251D02*
X408487D01*
X399606Y452085D02*
X408486D01*
X399803Y454920D02*
X408481D01*
X399803Y448896D02*
X408470D01*
X399803Y454211D02*
X408462D01*
X399798Y420550D02*
X408440D01*
X399803Y454566D02*
X408428D01*
X399606Y456337D02*
X408424D01*
X399802Y457046D02*
X408389D01*
X399652Y456692D02*
X408363D01*
X406901Y399644D02*
X408060D01*
X399803Y420196D02*
X407832D01*
X399606Y438621D02*
X407642D01*
X399803Y419841D02*
X407562D01*
X399803Y419487D02*
X407425D01*
X399803Y419133D02*
X407382D01*
X399803Y441455D02*
X407341D01*
X399803Y418778D02*
X407268D01*
X399803Y418424D02*
X407120D01*
X399802Y418070D02*
X407106D01*
X399652Y417715D02*
X407106D01*
X399606Y417361D02*
X407106D01*
X399606Y417007D02*
X407106D01*
X399607Y416652D02*
X407106D01*
X399782Y416298D02*
X407106D01*
X399803Y415944D02*
X407106D01*
X399803Y415589D02*
X407106D01*
X399803Y415235D02*
X407106D01*
X399803Y414881D02*
X407106D01*
X399803Y414526D02*
X407106D01*
X399803Y414172D02*
X407106D01*
X399803Y413818D02*
X407106D01*
X399711Y413463D02*
X407106D01*
X399606Y413109D02*
X407106D01*
X399606Y412755D02*
X407106D01*
X399606Y412400D02*
X407106D01*
X399754Y412046D02*
X407106D01*
X399803Y411692D02*
X407106D01*
X399803Y411337D02*
X407106D01*
X399803Y410983D02*
X407106D01*
X399803Y410629D02*
X407106D01*
X399803Y410274D02*
X407106D01*
X399803Y409920D02*
X407106D01*
X399803Y409566D02*
X407106D01*
X399753Y409211D02*
X407106D01*
X399606Y408857D02*
X407106D01*
X399606Y408503D02*
X407106D01*
X399606Y408148D02*
X407106D01*
X399713Y407794D02*
X407106D01*
X399803Y407440D02*
X407069D01*
X399606Y438975D02*
X406893D01*
X399803Y441101D02*
X406809D01*
X399803Y407085D02*
X406719D01*
X399626Y439329D02*
X406602D01*
X399803Y440747D02*
X406557D01*
X399798Y439684D02*
X406451D01*
X399803Y440392D02*
X406431D01*
X399803Y440038D02*
X406398D01*
X399803Y406731D02*
X406364D01*
X399803Y406377D02*
X406010D01*
X399803Y406022D02*
X405656D01*
X399803Y405668D02*
X405301D01*
X399803Y405314D02*
X404947D01*
X399781Y404959D02*
X404593D01*
X399606Y404605D02*
X404238D01*
X399606Y404251D02*
X403884D01*
X402974Y399644D02*
X403729D01*
X399606Y403896D02*
X403530D01*
X399851Y403542D02*
X403175D01*
X399999Y403188D02*
X402821D01*
X400000Y402833D02*
X402467D01*
X400000Y402479D02*
X402112D01*
X399950Y402125D02*
X401758D01*
X399653Y401770D02*
X401404D01*
X399298Y401416D02*
X401172D01*
X398944Y401062D02*
X401122D01*
X398590Y400707D02*
X401122D01*
X398235Y400353D02*
X401122D01*
X394882Y399999D02*
X401122D01*
X394882Y399644D02*
X400975D01*
X394882Y399290D02*
X400620D01*
X394882Y398936D02*
X400266D01*
X394882Y398581D02*
X399912D01*
X394882Y398227D02*
X399557D01*
X394882Y397873D02*
X399261D01*
X394882Y397518D02*
X399213D01*
X394882Y397164D02*
X399213D01*
X394882Y396810D02*
X399213D01*
X394882Y396455D02*
X399213D01*
X394882Y396101D02*
X399213D01*
X394882Y395747D02*
X399213D01*
X394882Y395392D02*
X399213D01*
X394886Y395038D02*
X399208D01*
X450961Y469448D02*
X453559D01*
X450607Y469093D02*
X453380D01*
X450252Y468739D02*
X453025D01*
X449898Y468385D02*
X452671D01*
X449544Y468030D02*
X452317D01*
X449189Y467676D02*
X451962D01*
X448835Y467322D02*
X451608D01*
X448481Y466967D02*
X451254D01*
X448126Y466613D02*
X450899D01*
X447772Y466259D02*
X450545D01*
X447418Y465904D02*
X450191D01*
X447063Y465550D02*
X449836D01*
X446709Y465196D02*
X449482D01*
X446355Y464841D02*
X449128D01*
X446000Y464487D02*
X448773D01*
X445646Y464133D02*
X448419D01*
X445292Y463778D02*
X448065D01*
X444937Y463424D02*
X447710D01*
X444583Y463070D02*
X447356D01*
X444229Y462715D02*
X447002D01*
X443874Y462361D02*
X446647D01*
X443520Y462007D02*
X446293D01*
X443166Y461652D02*
X445939D01*
X442883Y461298D02*
X445584D01*
X443113Y460944D02*
X445230D01*
X443294Y460589D02*
X444876D01*
X443371Y460235D02*
X444521D01*
X443361Y459881D02*
X444167D01*
X443261Y459526D02*
X443813D01*
X393701Y393701D02*
X464567D01*
Y503543*
X393701*
Y393701*
G54D326*
X394094Y475591D03*
Y471260D03*
Y466929D03*
Y462598D03*
Y458268D03*
Y453937D03*
Y449606D03*
Y445276D03*
Y440945D03*
Y436614D03*
Y432283D03*
Y427953D03*
Y423622D03*
Y419291D03*
Y414961D03*
Y410630D03*
Y406299D03*
Y401969D03*
X464173D03*
Y406299D03*
Y410630D03*
Y414961D03*
Y419291D03*
Y423622D03*
Y427953D03*
Y432283D03*
Y436614D03*
Y440945D03*
Y445276D03*
Y449606D03*
Y453937D03*
Y458268D03*
Y462598D03*
Y466929D03*
Y471260D03*
Y475591D03*
X394094D03*
Y471260D03*
Y466929D03*
Y462598D03*
Y458268D03*
Y453937D03*
Y449606D03*
Y445276D03*
Y440945D03*
Y436614D03*
Y432283D03*
Y427953D03*
Y423622D03*
Y419291D03*
Y414961D03*
Y410630D03*
Y406299D03*
Y401969D03*
X464173D03*
Y406299D03*
Y410630D03*
Y414961D03*
Y419291D03*
Y423622D03*
Y427953D03*
Y432283D03*
Y436614D03*
Y440945D03*
Y445276D03*
Y449606D03*
Y453937D03*
Y458268D03*
Y462598D03*
Y466929D03*
Y471260D03*
Y475591D03*
G54D329*
X405315Y394094D03*
X409646D03*
X413976D03*
X418307D03*
X422638D03*
X426969D03*
X431299D03*
X435630D03*
X439961D03*
X444291D03*
X448622D03*
X452953D03*
X400984D03*
X457283D03*
X405315D03*
X409646D03*
X413976D03*
X418307D03*
X422638D03*
X426969D03*
X431299D03*
X435630D03*
X439961D03*
X444291D03*
X448622D03*
X452953D03*
X400984D03*
X457283D03*
G54D418*
X400984D02*
Y397008D01*
X401024*
X402008Y397992*
Y401122*
X407992Y407106*
Y418268*
X408858Y419134*
X409882Y420079D02*
X410748D01*
X419646Y428976*
Y431890*
X407992Y418189D02*
X408622Y419134D01*
X408858*
X407992Y418189D02*
X409882Y420079D01*
X408858Y419134D02*
X409803Y420079D01*
X409882*
G54D421*
X395909Y395949D03*
X397901Y396701D03*
X395717Y398425D03*
X460901Y396901D03*
X462598Y395748D03*
X454528Y441535D03*
X409904Y454528D03*
X411732Y453346D03*
X409961Y452008D03*
X417126Y470039D03*
X414882Y464409D03*
X423780Y412835D03*
X441299Y415276D03*
X441378Y410354D03*
X442366Y430030D03*
X443740Y446024D03*
X445901Y446301D03*
X443346Y449016D03*
X445901Y449501D03*
X448301Y450101D03*
X451701Y452101D03*
X441901Y460101D03*
X451969Y427008D03*
X453583Y425551D03*
X410843Y460618D03*
X409943Y449004D03*
X411496Y447283D03*
X445354Y428858D03*
X444101Y455301D03*
X447101Y455101D03*
X449301Y454701D03*
X441811Y405394D03*
X446260Y442323D03*
X430197Y430748D03*
X428031Y430394D03*
X412014Y457228D03*
X411850Y450276D03*
X407874Y440079D03*
X418740Y467717D03*
X414370Y462283D03*
X417087Y464882D03*
X416654Y467047D03*
X430751Y465389D03*
X432193Y463592D03*
X423878Y464944D03*
X425855Y464029D03*
X427554Y465383D03*
X429176Y463901D03*
X417402Y431732D03*
X439901Y462901D03*
X421614Y430630D03*
X445787Y438622D03*
X426100Y425295D03*
X423819Y417795D03*
X426378Y431850D03*
X409838Y456763D03*
X423661Y407874D03*
X437559Y425039D03*
X421024Y400787D03*
X438307Y418858D03*
X438228Y409291D03*
X438307Y414291D03*
X456501Y464101D03*
X457301Y475901D03*
X436691Y471005D03*
X423299Y425440D03*
X410328Y467312D03*
X435272Y469764D03*
X435301Y472581D03*
X436123Y476250D03*
X433913Y474851D03*
X453884Y478380D03*
X449213Y431693D03*
X449803Y429370D03*
X430989Y470295D03*
X444865Y471608D03*
X440844Y476348D03*
X422258Y466390D03*
X414646Y468189D03*
X400512Y476299D03*
X400669Y473504D03*
Y420236D03*
X403384Y437180D03*
X400472Y412953D03*
X401220Y408386D03*
X410236Y407778D03*
X410200Y414161D03*
X409646Y417087D03*
X407901Y403501D03*
X407598Y400866D03*
X411811Y400827D03*
X415906Y401024D03*
X425079Y400709D03*
X429213Y400551D03*
X418425Y437613D03*
X429134Y409291D03*
X427323Y412756D03*
Y415945D03*
X427165Y420236D03*
X432480Y419961D03*
X433543Y400866D03*
X437087Y400984D03*
X431435Y425270D03*
X436024Y420039D03*
X442244Y400787D03*
X446417Y400630D03*
X450827Y400709D03*
X455301Y403101D03*
X462638Y398937D03*
X400433Y400906D03*
X456654Y401772D03*
X453901Y404701D03*
X457501Y429901D03*
X459094Y419291D03*
X457480Y423228D03*
X457205Y419291D03*
X457362Y415000D03*
X446969Y436575D03*
X452638Y405984D03*
X440433Y433858D03*
X457501Y451501D03*
X449252Y461142D03*
X447598Y459764D03*
X437126Y442638D03*
Y447559D03*
Y451969D03*
X457501Y456301D03*
X454901Y455301D03*
X456701Y460501D03*
X452901Y456501D03*
X445866Y463307D03*
X453071Y460354D03*
X452301Y464101D03*
X445101Y476501D03*
X450658Y473747D03*
X450701Y476098D03*
X451484Y478380D03*
X459584D03*
X462584D03*
X453228Y472756D03*
X447480Y464646D03*
X443465Y465354D03*
X457301Y434301D03*
X457717Y408425D03*
X440945Y422283D03*
X438701Y423071D03*
X447283Y422362D03*
X401098Y447381D03*
X403384Y433580D03*
X411560Y434661D03*
X409882Y405433D03*
X451969Y441929D03*
X425481Y473529D03*
X435354Y466614D03*
X445906Y431890D03*
X443425Y433858D03*
X456584Y478380D03*
X412809Y425096D03*
X417362Y444843D03*
Y453386D03*
X437087Y457205D03*
X423804Y438156D03*
X423819Y445039D03*
X423622Y451850D03*
X423425Y457087D03*
X430591Y457205D03*
Y452126D03*
X430788Y438125D03*
X430472Y447283D03*
X434173Y452126D03*
X434134Y457244D03*
X442122Y469471D03*
X430709Y442402D03*
X434094Y447480D03*
Y442677D03*
X434061Y438125D03*
X427087Y457087D03*
X426929Y452087D03*
X427087Y447402D03*
Y442717D03*
X427206Y438197D03*
X417323Y449528D03*
X417598Y456772D03*
X408858Y419134D03*
X419646Y431890D03*
X427992Y478937D03*
X405301Y478901D03*
X396301D03*
X444501D03*
X439921Y478898D03*
X433898D03*
X422244Y478937D03*
X415276Y478976D03*
X410236Y478937D03*
X401101Y478901D03*
G54D422*
X420157Y454528D03*
X427244D03*
X434331D03*
X420157Y449803D03*
X427244D03*
X434331D03*
X420157Y445079D03*
X427244D03*
X434331D03*
X420157Y440354D03*
X427244D03*
X434331D03*
X420157Y416732D03*
Y412008D03*
Y407283D03*
X434331Y416732D03*
Y412008D03*
Y407283D03*
G74*
X0Y0D02*
M02*
