*
*
G04 PADS 9.5 Build Number: 522968 generated Gerber (RS-274-X) file*
G04 PC Version=2.1*
*
%IN "SF32LB52-MOD-1_PCB_V1.0"*%
*
%MOIN*%
*
%FSLAX35Y35*%
*
*
*
*
G04 PC Standard Apertures*
*
*
G04 Thermal Relief Aperture macro.*
%AMTER*
1,1,$1,0,0*
1,0,$1-$2,0,0*
21,0,$3,$4,0,0,45*
21,0,$3,$4,0,0,135*
%
*
*
G04 Annular Aperture macro.*
%AMANN*
1,1,$1,0,0*
1,0,$2,0,0*
%
*
*
G04 Odd Aperture macro.*
%AMODD*
1,1,$1,0,0*
1,0,$1-0.005,0,0*
%
*
*
G04 PC Custom Aperture Macros*
*
*
*
*
*
*
G04 PC Aperture Table*
*
%ADD010C,0.001*%
%ADD158C,0.00394*%
%ADD405C,0.01*%
%ADD406C,0.005*%
%ADD424C,0.004*%
%ADD425C,0.006*%
%ADD426C,0.0035*%
%ADD427C,0.0055*%
%ADD428C,0.003*%
%ADD429C,0.007*%
%ADD430C,0.009*%
*
*
*
*
G04 PC Circuitry*
G04 Layer Name SF32LB52-MOD-1_PCB_V1.0 - circuitry*
%LPD*%
*
G54D10*
G01X420521Y493435D02*
X419984D01*
Y491501*
X419934Y491451*
X418304*
X418254Y491501*
Y493435*
X417716*
Y488787*
X418254*
Y490934*
X418304Y490984*
X419934*
X419984Y490934*
Y488787*
X420521*
Y493435*
X416907D02*
X414102D01*
Y492968*
X416319*
X416369Y492918*
Y491359*
X416319Y491309*
X414669*
Y490913*
X416319*
X416369Y490863*
Y488787*
X416907*
Y493435*
X414200Y492968D02*
Y493435D01*
X414300Y492968D02*
Y493435D01*
X414400Y492968D02*
Y493435D01*
X414500Y492968D02*
Y493435D01*
X414600Y492968D02*
Y493435D01*
X414700Y490913D02*
Y491309D01*
Y492968D02*
Y493435D01*
X414800Y490913D02*
Y491309D01*
Y492968D02*
Y493435D01*
X414900Y490913D02*
Y491309D01*
Y492968D02*
Y493435D01*
X415000Y490913D02*
Y491309D01*
Y492968D02*
Y493435D01*
X415100Y490913D02*
Y491309D01*
Y492968D02*
Y493435D01*
X415200Y490913D02*
Y491309D01*
Y492968D02*
Y493435D01*
X415300Y490913D02*
Y491309D01*
Y492968D02*
Y493435D01*
X415400Y490913D02*
Y491309D01*
Y492968D02*
Y493435D01*
X415500Y490913D02*
Y491309D01*
Y492968D02*
Y493435D01*
X415600Y490913D02*
Y491309D01*
Y492968D02*
Y493435D01*
X415700Y490913D02*
Y491309D01*
Y492968D02*
Y493435D01*
X415800Y490913D02*
Y491309D01*
Y492968D02*
Y493435D01*
X415900Y490913D02*
Y491309D01*
Y492968D02*
Y493435D01*
X416000Y490913D02*
Y491309D01*
Y492968D02*
Y493435D01*
X416100Y490913D02*
Y491309D01*
Y492968D02*
Y493435D01*
X416200Y490913D02*
Y491309D01*
Y492968D02*
Y493435D01*
X416300Y490913D02*
Y491309D01*
Y492968D02*
Y493435D01*
X416400Y488787D02*
Y493435D01*
X416500Y488787D02*
Y493435D01*
X416600Y488787D02*
Y493435D01*
X416700Y488787D02*
Y493435D01*
X416800Y488787D02*
Y493435D01*
X416900Y488787D02*
Y493435D01*
X417800Y488787D02*
Y493435D01*
X417900Y488787D02*
Y493435D01*
X418000Y488787D02*
Y493435D01*
X418100Y488787D02*
Y493435D01*
X418200Y488787D02*
Y493435D01*
X418300Y490984D02*
Y491451D01*
X418400Y490984D02*
Y491451D01*
X418500Y490984D02*
Y491451D01*
X418600Y490984D02*
Y491451D01*
X418700Y490984D02*
Y491451D01*
X418800Y490984D02*
Y491451D01*
X418900Y490984D02*
Y491451D01*
X419000Y490984D02*
Y491451D01*
X419100Y490984D02*
Y491451D01*
X419200Y490984D02*
Y491451D01*
X419300Y490984D02*
Y491451D01*
X419400Y490984D02*
Y491451D01*
X419500Y490984D02*
Y491451D01*
X419600Y490984D02*
Y491451D01*
X419700Y490984D02*
Y491451D01*
X419800Y490984D02*
Y491451D01*
X419900Y490984D02*
Y491451D01*
X420000Y488787D02*
Y493435D01*
X420100Y488787D02*
Y493435D01*
X420200Y488787D02*
Y493435D01*
X420300Y488787D02*
Y493435D01*
X420400Y488787D02*
Y493435D01*
X420500Y488787D02*
Y493435D01*
*
G04 PC Custom Flashes*
G04 Layer Name SF32LB52-MOD-1_PCB_V1.0 - flashes*
%LPD*%
*
*
G04 PC Circuitry*
G04 Layer Name SF32LB52-MOD-1_PCB_V1.0 - circuitry*
%LPD*%
*
G54D10*
G54D158*
X393701Y393701D02*
X464567D01*
Y503543*
X393701*
Y393701*
X400901Y399480D02*
Y400080D01*
X407384*
Y406980*
X412101*
Y407580*
X457301Y399480D02*
Y400080D01*
X451484*
Y406980*
X443501*
Y408101*
X405101Y400101D02*
Y399501D01*
X452901Y400101D02*
Y399501D01*
X448101Y407101D02*
Y408101D01*
G54D405*
X423175Y491325D02*
G75*
G03X423175I-5430J0D01*
G01X440675D02*
G03X440675I-5430J0D01*
G54D406*
G01X442976Y483206D02*
X443203Y483519D01*
X443544Y483675*
X443999*
X444340Y483519*
X444567Y483206*
Y482894*
X444453Y482581*
X444340Y482425*
X444112Y482269*
X443431Y481956*
X443203Y481800*
X443090Y481644*
X442976Y481331*
Y480862*
X443203Y480550*
X443544Y480394*
X443999*
X444340Y480550*
X444567Y480862*
X441953Y483675D02*
Y480394D01*
Y483675D02*
X440476D01*
X441953Y482112D02*
X441044D01*
X439226Y483675D02*
X437976D01*
X438658Y482425*
X438317*
X438090Y482269*
X437976Y482112*
X437862Y481644*
Y481331*
X437976Y480862*
X438203Y480550*
X438544Y480394*
X438885*
X439226Y480550*
X439340Y480706*
X439453Y481019*
X436726Y482894D02*
Y483050D01*
X436612Y483362*
X436499Y483519*
X436271Y483675*
X435817*
X435590Y483519*
X435476Y483362*
X435362Y483050*
Y482737*
X435476Y482425*
X435703Y481956*
X436840Y480394*
X435249*
X434226Y483675D02*
Y480394D01*
X432862*
X431840Y483675D02*
Y480394D01*
Y483675D02*
X430817D01*
X430476Y483519*
X430362Y483362*
X430249Y483050*
Y482737*
X430362Y482425*
X430476Y482269*
X430817Y482112*
X431840D02*
X430817D01*
X430476Y481956*
X430362Y481800*
X430249Y481487*
Y481019*
X430362Y480706*
X430476Y480550*
X430817Y480394*
X431840*
X427749Y483675D02*
X428885D01*
X428999Y482269*
X428885Y482425*
X428544Y482581*
X428203*
X427862Y482425*
X427635Y482112*
X427521Y481644*
X427635Y481331*
X427749Y480862*
X427976Y480550*
X428317Y480394*
X428658*
X428999Y480550*
X429112Y480706*
X429226Y481019*
X426385Y482894D02*
Y483050D01*
X426271Y483362*
X426158Y483519*
X425931Y483675*
X425476*
X425249Y483519*
X425135Y483362*
X425021Y483050*
Y482737*
X425135Y482425*
X425362Y481956*
X426499Y480394*
X424908*
X423885Y481800D02*
X421840D01*
X420817Y483675D02*
Y480394D01*
Y483675D02*
X419908Y480394D01*
X418999Y483675D02*
X419908Y480394D01*
X418999Y483675D02*
Y480394D01*
X417294Y483675D02*
X417521Y483519D01*
X417749Y483206*
X417862Y482894*
X417976Y482425*
Y481644*
X417862Y481175*
X417749Y480862*
X417521Y480550*
X417294Y480394*
X416840*
X416612Y480550*
X416385Y480862*
X416271Y481175*
X416158Y481644*
Y482425*
X416271Y482894*
X416385Y483206*
X416612Y483519*
X416840Y483675*
X417294*
X415135D02*
Y480394D01*
Y483675D02*
X414340D01*
X413999Y483519*
X413771Y483206*
X413658Y482894*
X413544Y482425*
Y481644*
X413658Y481175*
X413771Y480862*
X413999Y480550*
X414340Y480394*
X415135*
X412521Y481800D02*
X410476D01*
X409453Y483050D02*
X409226Y483206D01*
X408885Y483675*
Y480394*
X407862Y481800D02*
X405817D01*
X404794Y483675D02*
X403885Y480394D01*
X402976Y483675D02*
X403885Y480394D01*
X401953Y483050D02*
X401726Y483206D01*
X401385Y483675*
Y480394*
X400249Y480706D02*
X400362Y480550D01*
X400249Y480394*
X400135Y480550*
X400249Y480706*
X398431Y483675D02*
X398771Y483519D01*
X398999Y483050*
X399112Y482269*
Y481800*
X398999Y481019*
X398771Y480550*
X398431Y480394*
X398203*
X397862Y480550*
X397635Y481019*
X397521Y481800*
Y482269*
X397635Y483050*
X397862Y483519*
X398203Y483675*
X398431*
X397745Y495325D02*
X398825Y487095D01*
X404705Y495445D02*
X397555D01*
X400575Y485705D02*
X404155D01*
X405045Y495605*
G54D424*
X404821Y476180D02*
X404912Y476430D01*
X405093Y476680*
X405275Y476805*
X405639*
X405821Y476680*
X406002Y476430*
X406093Y476180*
X406184Y475805*
Y475180*
X406093Y474805*
X406002Y474555*
X405821Y474305*
X405639Y474180*
X405275*
X405093Y474305*
X404912Y474555*
X404821Y474805*
Y475180*
X405275D02*
X404821D01*
X404002Y476805D02*
Y474180D01*
Y476805D02*
X402730Y474180D01*
Y476805D02*
Y474180D01*
X401912Y476805D02*
Y474180D01*
Y476805D02*
X401275D01*
X401002Y476680*
X400821Y476430*
X400730Y476180*
X400639Y475805*
Y475180*
X400730Y474805*
X400821Y474555*
X401002Y474305*
X401275Y474180*
X401912*
X405457Y472605D02*
X406184Y469980D01*
X405457Y472605D02*
X404730Y469980D01*
X405912Y470855D02*
X405002D01*
X403002Y472605D02*
X403912Y470855D01*
X402548*
X403002Y472605D02*
Y469980D01*
X400821Y472605D02*
X401730Y470855D01*
X400366*
X400821Y472605D02*
Y469980D01*
X405457Y468105D02*
X406184Y465480D01*
X405457Y468105D02*
X404730Y465480D01*
X405912Y466355D02*
X405002D01*
X403002Y468105D02*
X403912Y466355D01*
X402548*
X403002Y468105D02*
Y465480D01*
X401548Y468105D02*
X400548D01*
X401093Y467105*
X400821*
X400639Y466980*
X400548Y466855*
X400457Y466480*
Y466230*
X400548Y465855*
X400730Y465605*
X401002Y465480*
X401275*
X401548Y465605*
X401639Y465730*
X401730Y465980*
X405457Y463905D02*
X406184Y461280D01*
X405457Y463905D02*
X404730Y461280D01*
X405912Y462155D02*
X405002D01*
X403002Y463905D02*
X403912Y462155D01*
X402548*
X403002Y463905D02*
Y461280D01*
X401639Y463280D02*
Y463405D01*
X401548Y463655*
X401457Y463780*
X401275Y463905*
X400912*
X400730Y463780*
X400639Y463655*
X400548Y463405*
Y463155*
X400639Y462905*
X400821Y462530*
X401730Y461280*
X400457*
X405457Y459705D02*
X406184Y457080D01*
X405457Y459705D02*
X404730Y457080D01*
X405912Y457955D02*
X405002D01*
X403821Y459080D02*
Y459205D01*
X403730Y459455*
X403639Y459580*
X403457Y459705*
X403093*
X402912Y459580*
X402821Y459455*
X402730Y459205*
Y458955*
X402821Y458705*
X403002Y458330*
X403912Y457080*
X402639*
X401639Y459705D02*
X400639D01*
X401184Y458705*
X400912*
X400730Y458580*
X400639Y458455*
X400548Y458080*
Y457830*
X400639Y457455*
X400821Y457205*
X401093Y457080*
X401366*
X401639Y457205*
X401730Y457330*
X401821Y457580*
X405457Y455205D02*
X406184Y452580D01*
X405457Y455205D02*
X404730Y452580D01*
X405912Y453455D02*
X405002D01*
X403821Y454580D02*
Y454705D01*
X403730Y454955*
X403639Y455080*
X403457Y455205*
X403093*
X402912Y455080*
X402821Y454955*
X402730Y454705*
Y454455*
X402821Y454205*
X403002Y453830*
X403912Y452580*
X402639*
X401730Y454580D02*
Y454705D01*
X401639Y454955*
X401548Y455080*
X401366Y455205*
X401002*
X400821Y455080*
X400730Y454955*
X400639Y454705*
Y454455*
X400730Y454205*
X400912Y453830*
X401821Y452580*
X400548*
X405457Y450705D02*
X406184Y448080D01*
X405457Y450705D02*
X404730Y448080D01*
X405912Y448955D02*
X405002D01*
X403002Y450705D02*
X403912Y448955D01*
X402548*
X403002Y450705D02*
Y448080D01*
X401730Y450205D02*
X401548Y450330D01*
X401275Y450705*
Y448080*
X405457Y446505D02*
X406184Y443880D01*
X405457Y446505D02*
X404730Y443880D01*
X405912Y444755D02*
X405002D01*
X403002Y446505D02*
X403912Y444755D01*
X402548*
X403002Y446505D02*
Y443880D01*
X401184Y446505D02*
X401457Y446380D01*
X401639Y446005*
X401730Y445380*
Y445005*
X401639Y444380*
X401457Y444005*
X401184Y443880*
X401002*
X400730Y444005*
X400548Y444380*
X400457Y445005*
Y445380*
X400548Y446005*
X400730Y446380*
X401002Y446505*
X401184*
X405457Y442305D02*
X406184Y439680D01*
X405457Y442305D02*
X404730Y439680D01*
X405912Y440555D02*
X405002D01*
X403730Y442305D02*
X402730D01*
X403275Y441305*
X403002*
X402821Y441180*
X402730Y441055*
X402639Y440680*
Y440430*
X402730Y440055*
X402912Y439805*
X403184Y439680*
X403457*
X403730Y439805*
X403821Y439930*
X403912Y440180*
X400639Y441430D02*
X400730Y441055D01*
X400912Y440805*
X401184Y440680*
X401275*
X401548Y440805*
X401730Y441055*
X401821Y441430*
Y441555*
X401730Y441930*
X401548Y442180*
X401275Y442305*
X401184*
X400912Y442180*
X400730Y441930*
X400639Y441430*
Y440805*
X400730Y440180*
X400912Y439805*
X401184Y439680*
X401366*
X401639Y439805*
X401730Y440055*
X405457Y438105D02*
X406184Y435480D01*
X405457Y438105D02*
X404730Y435480D01*
X405912Y436355D02*
X405002D01*
X403730Y438105D02*
X402730D01*
X403275Y437105*
X403002*
X402821Y436980*
X402730Y436855*
X402639Y436480*
Y436230*
X402730Y435855*
X402912Y435605*
X403184Y435480*
X403457*
X403730Y435605*
X403821Y435730*
X403912Y435980*
X401366Y438105D02*
X401639Y437980D01*
X401730Y437730*
Y437480*
X401639Y437230*
X401457Y437105*
X401093Y436980*
X400821Y436855*
X400639Y436605*
X400548Y436355*
Y435980*
X400639Y435730*
X400730Y435605*
X401002Y435480*
X401366*
X401639Y435605*
X401730Y435730*
X401821Y435980*
Y436355*
X401730Y436605*
X401548Y436855*
X401275Y436980*
X400912Y437105*
X400730Y437230*
X400639Y437480*
Y437730*
X400730Y437980*
X401002Y438105*
X401366*
X405457Y433605D02*
X406184Y430980D01*
X405457Y433605D02*
X404730Y430980D01*
X405912Y431855D02*
X405002D01*
X403730Y433605D02*
X402730D01*
X403275Y432605*
X403002*
X402821Y432480*
X402730Y432355*
X402639Y431980*
Y431730*
X402730Y431355*
X402912Y431105*
X403184Y430980*
X403457*
X403730Y431105*
X403821Y431230*
X403912Y431480*
X400548Y433605D02*
X401457Y430980D01*
X401821Y433605D02*
X400548D01*
X405457Y429405D02*
X406184Y426780D01*
X405457Y429405D02*
X404730Y426780D01*
X405912Y427655D02*
X405002D01*
X403730Y429405D02*
X402730D01*
X403275Y428405*
X403002*
X402821Y428280*
X402730Y428155*
X402639Y427780*
Y427530*
X402730Y427155*
X402912Y426905*
X403184Y426780*
X403457*
X403730Y426905*
X403821Y427030*
X403912Y427280*
X400730Y429030D02*
X400821Y429280D01*
X401093Y429405*
X401275*
X401548Y429280*
X401730Y428905*
X401821Y428280*
Y427655*
X401730Y427155*
X401548Y426905*
X401275Y426780*
X401184*
X400912Y426905*
X400730Y427155*
X400639Y427530*
Y427655*
X400730Y428030*
X400912Y428280*
X401184Y428405*
X401275*
X401548Y428280*
X401730Y428030*
X401821Y427655*
X405457Y424905D02*
X406184Y422280D01*
X405457Y424905D02*
X404730Y422280D01*
X405912Y423155D02*
X405002D01*
X403730Y424905D02*
X402730D01*
X403275Y423905*
X403002*
X402821Y423780*
X402730Y423655*
X402639Y423280*
Y423030*
X402730Y422655*
X402912Y422405*
X403184Y422280*
X403457*
X403730Y422405*
X403821Y422530*
X403912Y422780*
X400639Y424905D02*
X401548D01*
X401639Y423780*
X401548Y423905*
X401275Y424030*
X401002*
X400730Y423905*
X400548Y423655*
X400457Y423280*
X400548Y423030*
X400639Y422655*
X400821Y422405*
X401093Y422280*
X401366*
X401639Y422405*
X401730Y422530*
X401821Y422780*
X405457Y420405D02*
X406184Y417780D01*
X405457Y420405D02*
X404730Y417780D01*
X405912Y418655D02*
X405002D01*
X403730Y420405D02*
X402730D01*
X403275Y419405*
X403002*
X402821Y419280*
X402730Y419155*
X402639Y418780*
Y418530*
X402730Y418155*
X402912Y417905*
X403184Y417780*
X403457*
X403730Y417905*
X403821Y418030*
X403912Y418280*
X400912Y420405D02*
X401821Y418655D01*
X400457*
X400912Y420405D02*
Y417780D01*
X405457Y416205D02*
X406184Y413580D01*
X405457Y416205D02*
X404730Y413580D01*
X405912Y414455D02*
X405002D01*
X403730Y416205D02*
X402730D01*
X403275Y415205*
X403002*
X402821Y415080*
X402730Y414955*
X402639Y414580*
Y414330*
X402730Y413955*
X402912Y413705*
X403184Y413580*
X403457*
X403730Y413705*
X403821Y413830*
X403912Y414080*
X401639Y416205D02*
X400639D01*
X401184Y415205*
X400912*
X400730Y415080*
X400639Y414955*
X400548Y414580*
Y414330*
X400639Y413955*
X400821Y413705*
X401093Y413580*
X401366*
X401639Y413705*
X401730Y413830*
X401821Y414080*
X405457Y412005D02*
X406184Y409380D01*
X405457Y412005D02*
X404730Y409380D01*
X405912Y410255D02*
X405002D01*
X403730Y412005D02*
X402730D01*
X403275Y411005*
X403002*
X402821Y410880*
X402730Y410755*
X402639Y410380*
Y410130*
X402730Y409755*
X402912Y409505*
X403184Y409380*
X403457*
X403730Y409505*
X403821Y409630*
X403912Y409880*
X401730Y411380D02*
Y411505D01*
X401639Y411755*
X401548Y411880*
X401366Y412005*
X401002*
X400821Y411880*
X400730Y411755*
X400639Y411505*
Y411255*
X400730Y411005*
X400912Y410630*
X401821Y409380*
X400548*
X406184Y407505D02*
X405457Y404880D01*
X404730Y407505D02*
X405457Y404880D01*
X403730Y407505D02*
X402730D01*
X403275Y406505*
X403002*
X402821Y406380*
X402730Y406255*
X402639Y405880*
Y405630*
X402730Y405255*
X402912Y405005*
X403184Y404880*
X403457*
X403730Y405005*
X403821Y405130*
X403912Y405380*
X401639Y407505D02*
X400639D01*
X401184Y406505*
X400912*
X400730Y406380*
X400639Y406255*
X400548Y405880*
Y405630*
X400639Y405255*
X400821Y405005*
X401093Y404880*
X401366*
X401639Y405005*
X401730Y405130*
X401821Y405380*
X405457Y403305D02*
X406184Y400680D01*
X405457Y403305D02*
X404730Y400680D01*
X405912Y401555D02*
X405002D01*
X403821Y402680D02*
Y402805D01*
X403730Y403055*
X403639Y403180*
X403457Y403305*
X403093*
X402912Y403180*
X402821Y403055*
X402730Y402805*
Y402555*
X402821Y402305*
X403002Y401930*
X403912Y400680*
X402639*
X400912Y403305D02*
X401821Y401555D01*
X400457*
X400912Y403305D02*
Y400680D01*
X410909Y401107D02*
X408284Y400380D01*
X410909Y401107D02*
X408284Y401834D01*
X409159Y400652D02*
Y401561D01*
X410284Y402743D02*
X410409D01*
X410659Y402834*
X410784Y402925*
X410909Y403107*
Y403470*
X410784Y403652*
X410659Y403743*
X410409Y403834*
X410159*
X409909Y403743*
X409534Y403561*
X408284Y402652*
Y403925*
X410534Y405834D02*
X410784Y405743D01*
X410909Y405470*
Y405289*
X410784Y405016*
X410409Y404834*
X409784Y404743*
X409159*
X408659Y404834*
X408409Y405016*
X408284Y405289*
Y405380*
X408409Y405652*
X408659Y405834*
X409034Y405925*
X409159*
X409534Y405834*
X409784Y405652*
X409909Y405380*
Y405289*
X409784Y405016*
X409534Y404834*
X409159Y404743*
X415409Y401107D02*
X412784Y400380D01*
X415409Y401107D02*
X412784Y401834D01*
X413659Y400652D02*
Y401561D01*
X414784Y402743D02*
X414909D01*
X415159Y402834*
X415284Y402925*
X415409Y403107*
Y403470*
X415284Y403652*
X415159Y403743*
X414909Y403834*
X414659*
X414409Y403743*
X414034Y403561*
X412784Y402652*
Y403925*
X415409Y406016D02*
X412784Y405107D01*
X415409Y404743D02*
Y406016D01*
X419609Y401107D02*
X416984Y400380D01*
X419609Y401107D02*
X416984Y401834D01*
X417859Y400652D02*
Y401561D01*
X418984Y402743D02*
X419109D01*
X419359Y402834*
X419484Y402925*
X419609Y403107*
Y403470*
X419484Y403652*
X419359Y403743*
X419109Y403834*
X418859*
X418609Y403743*
X418234Y403561*
X416984Y402652*
Y403925*
X419609Y405198D02*
X419484Y404925D01*
X419234Y404834*
X418984*
X418734Y404925*
X418609Y405107*
X418484Y405470*
X418359Y405743*
X418109Y405925*
X417859Y406016*
X417484*
X417234Y405925*
X417109Y405834*
X416984Y405561*
Y405198*
X417109Y404925*
X417234Y404834*
X417484Y404743*
X417859*
X418109Y404834*
X418359Y405016*
X418484Y405289*
X418609Y405652*
X418734Y405834*
X418984Y405925*
X419234*
X419484Y405834*
X419609Y405561*
Y405198*
X423809Y401107D02*
X421184Y400380D01*
X423809Y401107D02*
X421184Y401834D01*
X422059Y400652D02*
Y401561D01*
X423184Y402743D02*
X423309D01*
X423559Y402834*
X423684Y402925*
X423809Y403107*
Y403470*
X423684Y403652*
X423559Y403743*
X423309Y403834*
X423059*
X422809Y403743*
X422434Y403561*
X421184Y402652*
Y403925*
X422934Y405925D02*
X422559Y405834D01*
X422309Y405652*
X422184Y405380*
Y405289*
X422309Y405016*
X422559Y404834*
X422934Y404743*
X423059*
X423434Y404834*
X423684Y405016*
X423809Y405289*
Y405380*
X423684Y405652*
X423434Y405834*
X422934Y405925*
X422309*
X421684Y405834*
X421309Y405652*
X421184Y405380*
Y405198*
X421309Y404925*
X421559Y404834*
X428309Y401107D02*
X425684Y400380D01*
X428309Y401107D02*
X425684Y401834D01*
X426559Y400652D02*
Y401561D01*
X428309Y402834D02*
Y403834D01*
X427309Y403289*
Y403561*
X427184Y403743*
X427059Y403834*
X426684Y403925*
X426434*
X426059Y403834*
X425809Y403652*
X425684Y403380*
Y403107*
X425809Y402834*
X425934Y402743*
X426184Y402652*
X428309Y405289D02*
X428184Y405016D01*
X427809Y404834*
X427184Y404743*
X426809*
X426184Y404834*
X425809Y405016*
X425684Y405289*
Y405470*
X425809Y405743*
X426184Y405925*
X426809Y406016*
X427184*
X427809Y405925*
X428184Y405743*
X428309Y405470*
Y405289*
X432509Y401107D02*
X429884Y400380D01*
X432509Y401107D02*
X429884Y401834D01*
X430759Y400652D02*
Y401561D01*
X432509Y402834D02*
Y403834D01*
X431509Y403289*
Y403561*
X431384Y403743*
X431259Y403834*
X430884Y403925*
X430634*
X430259Y403834*
X430009Y403652*
X429884Y403380*
Y403107*
X430009Y402834*
X430134Y402743*
X430384Y402652*
X432009Y404743D02*
X432134Y404925D01*
X432509Y405198*
X429884*
X436384Y401743D02*
X436634Y401652D01*
X436884Y401470*
X437009Y401289*
Y400925*
X436884Y400743*
X436634Y400561*
X436384Y400470*
X436009Y400380*
X435384*
X435009Y400470*
X434759Y400561*
X434509Y400743*
X434384Y400925*
Y401289*
X434509Y401470*
X434759Y401652*
X435009Y401743*
X435384*
Y401289D02*
Y401743D01*
X437009Y402561D02*
X434384D01*
X437009D02*
X434384Y403834D01*
X437009D02*
X434384D01*
X437009Y404652D02*
X434384D01*
X437009D02*
Y405289D01*
X436884Y405561*
X436634Y405743*
X436384Y405834*
X436009Y405925*
X435384*
X435009Y405834*
X434759Y405743*
X434509Y405561*
X434384Y405289*
Y404652*
X441509Y400380D02*
X438884Y401107D01*
X441509Y401834D02*
X438884Y401107D01*
X441134Y403925D02*
X441384Y403743D01*
X441509Y403470*
Y403107*
X441384Y402834*
X441134Y402652*
X440884*
X440634Y402743*
X440509Y402834*
X440384Y403016*
X440134Y403561*
X440009Y403743*
X439884Y403834*
X439634Y403925*
X439259*
X439009Y403743*
X438884Y403470*
Y403107*
X439009Y402834*
X439259Y402652*
X441509Y404743D02*
X440259Y405470D01*
X438884*
X441509Y406198D02*
X440259Y405470D01*
X441134Y408289D02*
X441384Y408107D01*
X441509Y407834*
Y407470*
X441384Y407198*
X441134Y407016*
X440884*
X440634Y407107*
X440509Y407198*
X440384Y407380*
X440134Y407925*
X440009Y408107*
X439884Y408198*
X439634Y408289*
X439259*
X439009Y408107*
X438884Y407834*
Y407470*
X439009Y407198*
X439259Y407016*
X445709Y401107D02*
X443084Y400380D01*
X445709Y401107D02*
X443084Y401834D01*
X443959Y400652D02*
Y401561D01*
X445084Y402743D02*
X445209D01*
X445459Y402834*
X445584Y402925*
X445709Y403107*
Y403470*
X445584Y403652*
X445459Y403743*
X445209Y403834*
X444959*
X444709Y403743*
X444334Y403561*
X443084Y402652*
Y403925*
X445709Y405289D02*
X445584Y405016D01*
X445209Y404834*
X444584Y404743*
X444209*
X443584Y404834*
X443209Y405016*
X443084Y405289*
Y405470*
X443209Y405743*
X443584Y405925*
X444209Y406016*
X444584*
X445209Y405925*
X445584Y405743*
X445709Y405470*
Y405289*
X449909Y401107D02*
X447284Y400380D01*
X449909Y401107D02*
X447284Y401834D01*
X448159Y400652D02*
Y401561D01*
X449409Y402652D02*
X449534Y402834D01*
X449909Y403107*
X447284*
X449034Y405107D02*
X448659Y405016D01*
X448409Y404834*
X448284Y404561*
Y404470*
X448409Y404198*
X448659Y404016*
X449034Y403925*
X449159*
X449534Y404016*
X449784Y404198*
X449909Y404470*
Y404561*
X449784Y404834*
X449534Y405016*
X449034Y405107*
X448409*
X447784Y405016*
X447409Y404834*
X447284Y404561*
Y404380*
X447409Y404107*
X447659Y404016*
X413688Y409428D02*
X411063Y408701D01*
X413688Y409428D02*
X411063Y410155D01*
X411938Y408974D02*
Y409883D01*
X413063Y411064D02*
X413188D01*
X413438Y411155*
X413563Y411246*
X413688Y411428*
Y411792*
X413563Y411974*
X413438Y412064*
X413188Y412155*
X412938*
X412688Y412064*
X412313Y411883*
X411063Y410974*
Y412246*
X413688Y414246D02*
Y413337D01*
X412563Y413246*
X412688Y413337*
X412813Y413610*
Y413883*
X412688Y414155*
X412438Y414337*
X412063Y414428*
X411813Y414337*
X411438Y414246*
X411188Y414064*
X411063Y413792*
Y413519*
X411188Y413246*
X411313Y413155*
X411563Y413064*
X444726Y409428D02*
X442101Y408701D01*
X444726Y409428D02*
X442101Y410155D01*
X442976Y408974D02*
Y409883D01*
X444226Y410974D02*
X444351Y411155D01*
X444726Y411428*
X442101*
X444726Y412701D02*
X444601Y412428D01*
X444351Y412337*
X444101*
X443851Y412428*
X443726Y412610*
X443601Y412974*
X443476Y413246*
X443226Y413428*
X442976Y413519*
X442601*
X442351Y413428*
X442226Y413337*
X442101Y413064*
Y412701*
X442226Y412428*
X442351Y412337*
X442601Y412246*
X442976*
X443226Y412337*
X443476Y412519*
X443601Y412792*
X443726Y413155*
X443851Y413337*
X444101Y413428*
X444351*
X444601Y413337*
X444726Y413064*
Y412701*
X456421Y476180D02*
X456512Y476430D01*
X456693Y476680*
X456875Y476805*
X457239*
X457421Y476680*
X457602Y476430*
X457693Y476180*
X457784Y475805*
Y475180*
X457693Y474805*
X457602Y474555*
X457421Y474305*
X457239Y474180*
X456875*
X456693Y474305*
X456512Y474555*
X456421Y474805*
Y475180*
X456875D02*
X456421D01*
X455602Y476805D02*
Y474180D01*
Y476805D02*
X454330Y474180D01*
Y476805D02*
Y474180D01*
X453512Y476805D02*
Y474180D01*
Y476805D02*
X452875D01*
X452602Y476680*
X452421Y476430*
X452330Y476180*
X452239Y475805*
Y475180*
X452330Y474805*
X452421Y474555*
X452602Y474305*
X452875Y474180*
X453512*
X457057Y472605D02*
X457784Y469980D01*
X457057Y472605D02*
X456330Y469980D01*
X457512Y470855D02*
X456602D01*
X454966Y472605D02*
X455239Y472480D01*
X455421Y472105*
X455512Y471480*
Y471105*
X455421Y470480*
X455239Y470105*
X454966Y469980*
X454784*
X454512Y470105*
X454330Y470480*
X454239Y471105*
Y471480*
X454330Y472105*
X454512Y472480*
X454784Y472605*
X454966*
X452875D02*
X453148Y472480D01*
X453330Y472105*
X453421Y471480*
Y471105*
X453330Y470480*
X453148Y470105*
X452875Y469980*
X452693*
X452421Y470105*
X452239Y470480*
X452148Y471105*
Y471480*
X452239Y472105*
X452421Y472480*
X452693Y472605*
X452875*
X457057Y468105D02*
X457784Y465480D01*
X457057Y468105D02*
X456330Y465480D01*
X457512Y466355D02*
X456602D01*
X454966Y468105D02*
X455239Y467980D01*
X455421Y467605*
X455512Y466980*
Y466605*
X455421Y465980*
X455239Y465605*
X454966Y465480*
X454784*
X454512Y465605*
X454330Y465980*
X454239Y466605*
Y466980*
X454330Y467605*
X454512Y467980*
X454784Y468105*
X454966*
X453421Y467605D02*
X453239Y467730D01*
X452966Y468105*
Y465480*
X457057Y463905D02*
X457784Y461280D01*
X457057Y463905D02*
X456330Y461280D01*
X457512Y462155D02*
X456602D01*
X454966Y463905D02*
X455239Y463780D01*
X455421Y463405*
X455512Y462780*
Y462405*
X455421Y461780*
X455239Y461405*
X454966Y461280*
X454784*
X454512Y461405*
X454330Y461780*
X454239Y462405*
Y462780*
X454330Y463405*
X454512Y463780*
X454784Y463905*
X454966*
X453330Y463280D02*
Y463405D01*
X453239Y463655*
X453148Y463780*
X452966Y463905*
X452602*
X452421Y463780*
X452330Y463655*
X452239Y463405*
Y463155*
X452330Y462905*
X452512Y462530*
X453421Y461280*
X452148*
X457057Y459705D02*
X457784Y457080D01*
X457057Y459705D02*
X456330Y457080D01*
X457512Y457955D02*
X456602D01*
X454966Y459705D02*
X455239Y459580D01*
X455421Y459205*
X455512Y458580*
Y458205*
X455421Y457580*
X455239Y457205*
X454966Y457080*
X454784*
X454512Y457205*
X454330Y457580*
X454239Y458205*
Y458580*
X454330Y459205*
X454512Y459580*
X454784Y459705*
X454966*
X453239D02*
X452239D01*
X452784Y458705*
X452512*
X452330Y458580*
X452239Y458455*
X452148Y458080*
Y457830*
X452239Y457455*
X452421Y457205*
X452693Y457080*
X452966*
X453239Y457205*
X453330Y457330*
X453421Y457580*
X457057Y455205D02*
X457784Y452580D01*
X457057Y455205D02*
X456330Y452580D01*
X457512Y453455D02*
X456602D01*
X454966Y455205D02*
X455239Y455080D01*
X455421Y454705*
X455512Y454080*
Y453705*
X455421Y453080*
X455239Y452705*
X454966Y452580*
X454784*
X454512Y452705*
X454330Y453080*
X454239Y453705*
Y454080*
X454330Y454705*
X454512Y455080*
X454784Y455205*
X454966*
X452512D02*
X453421Y453455D01*
X452057*
X452512Y455205D02*
Y452580D01*
X457057Y450705D02*
X457784Y448080D01*
X457057Y450705D02*
X456330Y448080D01*
X457512Y448955D02*
X456602D01*
X454966Y450705D02*
X455239Y450580D01*
X455421Y450205*
X455512Y449580*
Y449205*
X455421Y448580*
X455239Y448205*
X454966Y448080*
X454784*
X454512Y448205*
X454330Y448580*
X454239Y449205*
Y449580*
X454330Y450205*
X454512Y450580*
X454784Y450705*
X454966*
X452239D02*
X453148D01*
X453239Y449580*
X453148Y449705*
X452875Y449830*
X452602*
X452330Y449705*
X452148Y449455*
X452057Y449080*
X452148Y448830*
X452239Y448455*
X452421Y448205*
X452693Y448080*
X452966*
X453239Y448205*
X453330Y448330*
X453421Y448580*
X457057Y446505D02*
X457784Y443880D01*
X457057Y446505D02*
X456330Y443880D01*
X457512Y444755D02*
X456602D01*
X454966Y446505D02*
X455239Y446380D01*
X455421Y446005*
X455512Y445380*
Y445005*
X455421Y444380*
X455239Y444005*
X454966Y443880*
X454784*
X454512Y444005*
X454330Y444380*
X454239Y445005*
Y445380*
X454330Y446005*
X454512Y446380*
X454784Y446505*
X454966*
X452330Y446130D02*
X452421Y446380D01*
X452693Y446505*
X452875*
X453148Y446380*
X453330Y446005*
X453421Y445380*
Y444755*
X453330Y444255*
X453148Y444005*
X452875Y443880*
X452784*
X452512Y444005*
X452330Y444255*
X452239Y444630*
Y444755*
X452330Y445130*
X452512Y445380*
X452784Y445505*
X452875*
X453148Y445380*
X453330Y445130*
X453421Y444755*
X457057Y442305D02*
X457784Y439680D01*
X457057Y442305D02*
X456330Y439680D01*
X457512Y440555D02*
X456602D01*
X454966Y442305D02*
X455239Y442180D01*
X455421Y441805*
X455512Y441180*
Y440805*
X455421Y440180*
X455239Y439805*
X454966Y439680*
X454784*
X454512Y439805*
X454330Y440180*
X454239Y440805*
Y441180*
X454330Y441805*
X454512Y442180*
X454784Y442305*
X454966*
X452148D02*
X453057Y439680D01*
X453421Y442305D02*
X452148D01*
X457057Y437805D02*
X457784Y435180D01*
X457057Y437805D02*
X456330Y435180D01*
X457512Y436055D02*
X456602D01*
X454966Y437805D02*
X455239Y437680D01*
X455421Y437305*
X455512Y436680*
Y436305*
X455421Y435680*
X455239Y435305*
X454966Y435180*
X454784*
X454512Y435305*
X454330Y435680*
X454239Y436305*
Y436680*
X454330Y437305*
X454512Y437680*
X454784Y437805*
X454966*
X452966D02*
X453239Y437680D01*
X453330Y437430*
Y437180*
X453239Y436930*
X453057Y436805*
X452693Y436680*
X452421Y436555*
X452239Y436305*
X452148Y436055*
Y435680*
X452239Y435430*
X452330Y435305*
X452602Y435180*
X452966*
X453239Y435305*
X453330Y435430*
X453421Y435680*
Y436055*
X453330Y436305*
X453148Y436555*
X452875Y436680*
X452512Y436805*
X452330Y436930*
X452239Y437180*
Y437430*
X452330Y437680*
X452602Y437805*
X452966*
X457057Y433605D02*
X457784Y430980D01*
X457057Y433605D02*
X456330Y430980D01*
X457512Y431855D02*
X456602D01*
X454966Y433605D02*
X455239Y433480D01*
X455421Y433105*
X455512Y432480*
Y432105*
X455421Y431480*
X455239Y431105*
X454966Y430980*
X454784*
X454512Y431105*
X454330Y431480*
X454239Y432105*
Y432480*
X454330Y433105*
X454512Y433480*
X454784Y433605*
X454966*
X452239Y432730D02*
X452330Y432355D01*
X452512Y432105*
X452784Y431980*
X452875*
X453148Y432105*
X453330Y432355*
X453421Y432730*
Y432855*
X453330Y433230*
X453148Y433480*
X452875Y433605*
X452784*
X452512Y433480*
X452330Y433230*
X452239Y432730*
Y432105*
X452330Y431480*
X452512Y431105*
X452784Y430980*
X452966*
X453239Y431105*
X453330Y431355*
X457784Y429405D02*
Y426780D01*
Y429405D02*
X457057Y426780D01*
X456330Y429405D02*
X457057Y426780D01*
X456330Y429405D02*
Y426780D01*
X455512Y429405D02*
Y426780D01*
X453330Y428780D02*
X453421Y429030D01*
X453602Y429280*
X453784Y429405*
X454148*
X454330Y429280*
X454512Y429030*
X454602Y428780*
X454693Y428405*
Y427780*
X454602Y427405*
X454512Y427155*
X454330Y426905*
X454148Y426780*
X453784*
X453602Y426905*
X453421Y427155*
X453330Y427405*
X457784Y424905D02*
Y422280D01*
Y424905D02*
X456966D01*
X456693Y424780*
X456602Y424655*
X456512Y424405*
Y424155*
X456602Y423905*
X456693Y423780*
X456966Y423655*
X457784D02*
X456966D01*
X456693Y423530*
X456602Y423405*
X456512Y423155*
Y422780*
X456602Y422530*
X456693Y422405*
X456966Y422280*
X457784*
X455693Y424905D02*
Y422280D01*
X454148Y424905D02*
X454875Y422280D01*
X454148Y424905D02*
X453421Y422280D01*
X454602Y423155D02*
X453693D01*
X451330Y424530D02*
X451512Y424780D01*
X451784Y424905*
X452148*
X452421Y424780*
X452602Y424530*
Y424280*
X452512Y424030*
X452421Y423905*
X452239Y423780*
X451693Y423530*
X451512Y423405*
X451421Y423280*
X451330Y423030*
Y422655*
X451512Y422405*
X451784Y422280*
X452148*
X452421Y422405*
X452602Y422655*
X456421Y419780D02*
X456512Y420030D01*
X456693Y420280*
X456875Y420405*
X457239*
X457421Y420280*
X457602Y420030*
X457693Y419780*
X457784Y419405*
Y418780*
X457693Y418405*
X457602Y418155*
X457421Y417905*
X457239Y417780*
X456875*
X456693Y417905*
X456512Y418155*
X456421Y418405*
Y418780*
X456875D02*
X456421D01*
X455602Y420405D02*
Y417780D01*
Y420405D02*
X454330Y417780D01*
Y420405D02*
Y417780D01*
X453512Y420405D02*
Y417780D01*
Y420405D02*
X452875D01*
X452602Y420280*
X452421Y420030*
X452330Y419780*
X452239Y419405*
Y418780*
X452330Y418405*
X452421Y418155*
X452602Y417905*
X452875Y417780*
X453512*
X457784Y416205D02*
Y413580D01*
Y416205D02*
X457148D01*
X456875Y416080*
X456693Y415830*
X456602Y415580*
X456512Y415205*
Y414580*
X456602Y414205*
X456693Y413955*
X456875Y413705*
X457148Y413580*
X457784*
X454966Y416205D02*
X455693Y413580D01*
X454966Y416205D02*
X454239Y413580D01*
X455421Y414455D02*
X454512D01*
X452057Y415580D02*
X452148Y415830D01*
X452330Y416080*
X452512Y416205*
X452875*
X453057Y416080*
X453239Y415830*
X453330Y415580*
X453421Y415205*
Y414580*
X453330Y414205*
X453239Y413955*
X453057Y413705*
X452875Y413580*
X452512*
X452330Y413705*
X452148Y413955*
X452057Y414205*
X451239Y416205D02*
Y413580D01*
Y416205D02*
X449966Y413580D01*
Y416205D02*
Y413580D01*
X457784Y412005D02*
Y409380D01*
Y412005D02*
X457148D01*
X456875Y411880*
X456693Y411630*
X456602Y411380*
X456512Y411005*
Y410380*
X456602Y410005*
X456693Y409755*
X456875Y409505*
X457148Y409380*
X457784*
X454966Y412005D02*
X455693Y409380D01*
X454966Y412005D02*
X454239Y409380D01*
X455421Y410255D02*
X454512D01*
X452057Y411380D02*
X452148Y411630D01*
X452330Y411880*
X452512Y412005*
X452875*
X453057Y411880*
X453239Y411630*
X453330Y411380*
X453421Y411005*
Y410380*
X453330Y410005*
X453239Y409755*
X453057Y409505*
X452875Y409380*
X452512*
X452330Y409505*
X452148Y409755*
X452057Y410005*
X451239Y412005D02*
Y409380D01*
Y412005D02*
X450421D01*
X450148Y411880*
X450057Y411755*
X449966Y411505*
Y411130*
X450057Y410880*
X450148Y410755*
X450421Y410630*
X451239*
X457057Y407505D02*
X457784Y404880D01*
X457057Y407505D02*
X456330Y404880D01*
X457512Y405755D02*
X456602D01*
X455512Y407005D02*
X455330Y407130D01*
X455057Y407505*
Y404880*
X453693Y407505D02*
X453966Y407380D01*
X454148Y407005*
X454239Y406380*
Y406005*
X454148Y405380*
X453966Y405005*
X453693Y404880*
X453512*
X453239Y405005*
X453057Y405380*
X452966Y406005*
Y406380*
X453057Y407005*
X453239Y407380*
X453512Y407505*
X453693*
X457057Y403305D02*
X457784Y400680D01*
X457057Y403305D02*
X456330Y400680D01*
X457512Y401555D02*
X456602D01*
X455512Y402805D02*
X455330Y402930D01*
X455057Y403305*
Y400680*
X454239Y402805D02*
X454057Y402930D01*
X453784Y403305*
Y400680*
X410105Y408701D02*
X407480Y409428D01*
X410105Y410155D02*
X407480Y409428D01*
X410105Y410974D02*
X407480D01*
X410105D02*
Y411792D01*
X409980Y412064*
X409855Y412155*
X409605Y412246*
X409355*
X409105Y412155*
X408980Y412064*
X408855Y411792*
Y410974D02*
Y411792D01*
X408730Y412064*
X408605Y412155*
X408355Y412246*
X407980*
X407730Y412155*
X407605Y412064*
X407480Y411792*
Y410974*
X410105Y413792D02*
X407480Y413064D01*
X410105Y413792D02*
X407480Y414519D01*
X408355Y413337D02*
Y414246D01*
X410105Y415974D02*
X407480D01*
X410105Y415337D02*
Y416610D01*
X449109Y408701D02*
X446484D01*
X449109D02*
X446484Y409974D01*
X449109D02*
X446484D01*
X448484Y412155D02*
X448734Y412064D01*
X448984Y411883*
X449109Y411701*
Y411337*
X448984Y411155*
X448734Y410974*
X448484Y410883*
X448109Y410792*
X447484*
X447109Y410883*
X446859Y410974*
X446609Y411155*
X446484Y411337*
Y411701*
X446609Y411883*
X446859Y412064*
X447109Y412155*
X451796Y501785D02*
X448435Y495793D01*
X448957Y495293*
X449970Y494991*
X453457Y494642*
X455053Y494267*
X455432Y493384*
X456303Y494007*
X451796Y501785*
X443061Y486475D02*
X446329Y492277D01*
X446871Y491360*
X447162Y490740*
X447479Y490448*
X448559Y489703*
X448559D02*
X443061Y486475D01*
X457601Y491741D02*
X457006Y491477D01*
X458103Y489527*
X457488Y486196*
X456117Y484799*
X455452Y484751*
X455021Y485293*
X455073Y486818*
X455500Y487445*
X455657Y489731*
X455106Y490535*
X452960Y489254*
X453892Y488231*
X454494Y487461*
X454835Y486989*
X454851Y485654*
X454751Y485272*
X454363Y484805*
X453521Y484824*
X450830Y487971*
X444029Y484086*
X462238*
X457601Y491741*
X455123Y494103D02*
X456248D01*
X454220Y494463D02*
X456039D01*
X455278Y493743D02*
X455934D01*
X451650Y494823D02*
X455830D01*
X449326Y495183D02*
X455622D01*
X448696Y495543D02*
X455413D01*
X448496Y495903D02*
X455205D01*
X448698Y496263D02*
X454996D01*
X448900Y496623D02*
X454787D01*
X449102Y496983D02*
X454579D01*
X449304Y497343D02*
X454370D01*
X449506Y497703D02*
X454162D01*
X449708Y498063D02*
X453953D01*
X449910Y498423D02*
X453744D01*
X450112Y498783D02*
X453536D01*
X450314Y499143D02*
X453327D01*
X450516Y499503D02*
X453118D01*
X450718Y499863D02*
X452910D01*
X450920Y500223D02*
X452701D01*
X451122Y500583D02*
X452493D01*
X451324Y500943D02*
X452284D01*
X451526Y501303D02*
X452075D01*
X451728Y501663D02*
X451867D01*
X444885Y489714D02*
X448544D01*
X445088Y490074D02*
X448022D01*
X444683Y489354D02*
X447964D01*
X445291Y490434D02*
X447499D01*
X444480Y488994D02*
X447351D01*
X445494Y490794D02*
X447136D01*
X445697Y491154D02*
X446967D01*
X445899Y491514D02*
X446780D01*
X444277Y488634D02*
X446738D01*
X446102Y491874D02*
X446567D01*
X446305Y492234D02*
X446354D01*
X444074Y488274D02*
X446125D01*
X443871Y487914D02*
X445511D01*
X443669Y487554D02*
X444898D01*
X443466Y487194D02*
X444285D01*
X443263Y486834D02*
X443672D01*
X444657Y484444D02*
X462021D01*
X456122Y484804D02*
X461803D01*
X456475Y485164D02*
X461584D01*
X456829Y485524D02*
X461366D01*
X457182Y485884D02*
X461148D01*
X457497Y486244D02*
X460930D01*
X457563Y486604D02*
X460712D01*
X457630Y486964D02*
X460494D01*
X457696Y487324D02*
X460276D01*
X457763Y487684D02*
X460058D01*
X457829Y488044D02*
X459840D01*
X457896Y488404D02*
X459622D01*
X457962Y488764D02*
X459404D01*
X458029Y489124D02*
X459186D01*
X458095Y489484D02*
X458968D01*
X457924Y489844D02*
X458750D01*
X457722Y490204D02*
X458532D01*
X457519Y490564D02*
X458314D01*
X457317Y490924D02*
X458096D01*
X457114Y491284D02*
X457878D01*
X457382Y491644D02*
X457660D01*
X453346Y489484D02*
X455640D01*
X453079Y489124D02*
X455616D01*
X453407Y488764D02*
X455591D01*
X453949Y489844D02*
X455580D01*
X453735Y488404D02*
X455566D01*
X454038Y488044D02*
X455541D01*
X454320Y487684D02*
X455517D01*
X454593Y487324D02*
X455418D01*
X445287Y484804D02*
X455409D01*
X454552Y490204D02*
X455333D01*
X454835Y486964D02*
X455173D01*
X454661Y485164D02*
X455123D01*
X454839Y486604D02*
X455066D01*
X454844Y486244D02*
X455054D01*
X454848Y485884D02*
X455041D01*
X454817Y485524D02*
X455029D01*
X445917Y485164D02*
X453230D01*
X446547Y485524D02*
X452922D01*
X447177Y485884D02*
X452614D01*
X447808Y486244D02*
X452307D01*
X448438Y486604D02*
X451999D01*
X449068Y486964D02*
X451691D01*
X449698Y487324D02*
X451383D01*
X450328Y487684D02*
X451075D01*
X405075Y495605D02*
X404405Y496015D01*
X403905Y496265*
X403355Y496415*
X402765Y496555*
X401995Y496665*
X401415Y496715*
X400655Y496695*
X399925Y496645*
X399185Y496525*
X398565Y496385*
X397915Y496175*
X397345Y495905*
X397225Y495825*
X457216Y486449D02*
X457020Y486511D01*
X457020D02*
X456589Y486526D01*
X456119Y486071*
X455985Y485606*
X456005Y485317*
X456090Y485116*
X452733Y486153D02*
X452936Y486598D01*
X453305Y486837*
X453692Y486761*
X454234Y486099*
X454397Y485687*
X454435Y485366*
X454354Y485026*
G54D425*
X404145Y496355D02*
Y496975D01*
X407065Y497535D02*
X395275Y485045D01*
X406825Y484695D02*
X395325Y497685D01*
X400264Y485875D02*
G03X400264I-989J0D01*
G54D426*
G01X402215Y496755D02*
X402185Y497055D01*
X402045Y497175*
X401235Y497215*
X400655*
X400385Y497095*
X400275Y496995*
Y496695*
X396865Y496275D02*
X396975Y496485D01*
X397115Y496565*
X397325Y496555*
X397425Y496465*
X397505Y496375*
X397515Y496265*
Y496055*
X397745Y494045D02*
X397085D01*
G03Y493335I155J-355*
G01X397815*
X403835Y485475D02*
Y484795D01*
X403065*
Y485505*
G54D427*
X399525Y485875D02*
G03X399525I-260J0D01*
G54D428*
G01X401825Y492635D02*
G03X401875Y493095I-7J234D01*
G01X401825Y492635D02*
X400238D01*
X400298Y493145D02*
G03X400238Y492635I-44J-253D01*
G01X400298Y493145D02*
X401865D01*
G54D429*
X437930Y491275D02*
X436827D01*
Y494125D02*
G03Y491275I-0J-1425D01*
G01Y494125D02*
X437930D01*
Y491275*
X433895Y494125D02*
Y491835D01*
Y491860D02*
G03X432191Y491842I-827J-2350D01*
Y489075I805J-1383*
G01X433895*
Y491860*
X437930Y489075D02*
Y491275D01*
G54D430*
X438674Y494831D02*
X430776Y487002D01*
G74*
X0Y0D02*
M02*
