%
T1C.008F0S0
X041811Y039646
X041988Y039882
X039567Y041693
X039705Y041831
X040098Y042106
X039724Y042323
X039724Y042874
X03974Y043354
X03973Y043965
X039665Y044724
X039665Y045689
X041575Y046122
X041299Y04815
X040433Y049154
X041217Y049177
X039622Y050303
X039606Y050551
X041713Y050906
X039626Y051063
X04015Y051169
X041791Y051417
X041791Y051969
X039606Y052185
X041791Y053228
X039606Y053602
X041791Y05378
X041791Y054311
X039606Y05502
X041909Y055217
X041594Y055256
X041929Y055433
X041791Y055827
X041772Y056063
X039646Y056299
X041988Y056457
X039646Y057264
X041575Y058051
X039646Y05815
X041772Y05874
X042028Y058976
X041854Y059417
X040748Y059862
X041925Y059906
X04202Y061232
X042063Y061543
X039685Y062362
X040157Y062362
X039921Y062362
X041398Y062382
X041673Y062382
X042126Y062362
X043701Y062283
X044291Y062283
X043996Y062177
X043402Y062157
X04235Y061535
X043543Y060945
X042343Y060945
X043543Y06063
X044291Y06061
X043543Y060276
X044331Y060236
X043543Y059909
X044331Y059646
X043543Y059528
X044291Y059173
X043543Y059134
X04437Y058858
X043524Y05876
X042323Y05872
X043504Y058504
X04437Y058346
X043484Y058248
X044331Y05811
X043406Y057717
X044331Y057657
X042402Y057579
X043425Y0575
X044291Y057402
X042421Y057343
X042421Y056949
X043563Y056929
X044173Y056929
X043563Y056575
X042303Y056457
X042441Y05628
X043622Y056004
X043563Y05561
X044374Y055098
X04439Y054646
X044055Y053642
X044291Y053622
X043248Y052874
X043091Y052717
X043661Y052638
X04376Y052165
X043209Y052146
X043563Y052126
X043898Y052008
X043091Y05128
X043327Y05126
X044291Y05126
X042874Y05124
X043799Y05122
X04435Y050079
X043091Y050059
X042087Y050059
X04435Y049862
X042992Y04937
X04437Y04937
X044488Y048996
X043484Y048484
X044547Y048465
X042657Y048425
X042854Y048406
X044094Y048248
X043937Y04815
X044094Y048051
X043524Y047776
X042992Y047618
X043602Y047559
X043661Y047106
X044213Y047008
X044528Y046988
X042874Y046929
X04311Y046909
X043484Y046909
X042303Y046791
X044272Y045866
X042323Y045197
X043291Y044835
X043287Y044445
X044354Y04439
X04385Y044382
X042323Y04437
X044098Y04437
X043299Y044232
X044354Y044142
X044098Y044134
X043862Y044134
X042323Y044094
X043295Y044028
X04411Y043886
X044343Y043882
X043862Y043874
X043236Y043823
X043441Y043268
X043031Y04315
X044039Y043059
X042953Y042874
X043071Y042705
X042657Y042598
X044193Y042543
X044394Y04252
X043988Y042508
X043035Y042472
X042283Y042382
X042264Y040768
X044094Y040748
X043307Y040748
X042165Y040256
X043898Y040236
X044488Y040236
X043307Y040236
X042323Y039823
X044488Y039646
X042126Y039646
X042717Y039646
X043898Y039646
X043307Y039646
X04685Y039646
X04626Y039646
X045669Y039646
X045079Y039646
X046524Y040157
X045079Y040236
X045669Y040236
X04689Y040394
X044724Y040669
X04663Y040681
X04689Y040709
X045354Y040709
X04685Y041654
X04687Y041929
X046831Y042205
X045626Y042508
X044598Y042508
X044799Y042528
X04474Y043035
X044681Y043236
X045126Y043354
X045157Y043583
X045984Y04378
X045748Y04378
X045472Y04378
X045657Y044055
X045311Y044524
X046886Y044819
X046118Y04485
X045921Y044965
X04489Y044992
X045866Y046122
X046181Y04628
X04687Y046732
X045173Y046839
X046807Y047024
X045354Y047126
X045236Y04752
X045984Y047559
X045256Y047697
X045295Y048012
X046339Y04815
X044902Y04815
X045157Y04815
X045827Y048169
X046083Y048189
X044606Y048209
X045984Y048406
X046732Y048819
X045138Y048937
X046063Y049075
X04628Y049075
X04626Y049488
X04685Y049606
X04685Y049862
X046634Y050039
X045591Y050118
X044748Y051257
X045354Y05128
X046831Y051319
X046496Y051319
X045709Y051772
X046496Y051909
X045807Y051969
X045906Y052618
X044626Y052638
X045197Y052657
X04498Y052854
X045472Y053189
X045276Y053248
X044764Y053622
X046933Y053665
X045173Y053665
X046535Y053681
X046768Y053681
X046555Y054685
X046417Y054803
X046772Y055
X046142Y055138
X045909Y055165
X045705Y055315
X046417Y055394
X044961Y055394
X045984Y055453
X045886Y055689
X046319Y055689
X045079Y055945
X045886Y055965
X046319Y056024
X045886Y05622
X045055Y056445
X046319Y056457
X045886Y056535
X04563Y056575
X046319Y05685
X04561Y05687
X045886Y05687
X04685Y056969
X046339Y057146
X046831Y057185
X04561Y057205
X045866Y057205
X046299Y057421
X045866Y057638
X045295Y057638
X044685Y057638
X046752Y057677
X046516Y058031
X045098Y058051
X046102Y05811
X046472Y058248
X044764Y058327
X045315Y058327
X045728Y058327
X046417Y058701
X044587Y05876
X045709Y05876
X045Y05878
X044705Y058898
X045043Y059063
X046425Y059075
X045705Y059075
X046425Y059559
X04502Y059571
X045717Y059583
X046413Y06002
X045043Y060043
X045705Y060043
X044567Y060118
X046398Y060256
X045728Y060276
X047047Y060906
X046063Y060906
X045276Y060906
X044823Y061122
X044587Y06124
X045669Y062283
X04685Y062283
X046457Y062283
X045276Y062283
X044882Y062283
X046063Y062283
X047244Y062283
X047638Y062283
X048228Y062283
X048819Y062283
X049118Y062157
X049047Y061705
X048941Y06128
X049114Y061122
X048902Y060925
X048031Y060906
X049087Y060764
X048425Y060512
X049122Y060457
X047949Y060106
X048228Y060079
X04711Y06002
X04911Y059854
X047559Y059606
X047122Y059559
X049106Y059535
X048228Y05937
X047756Y059299
X047303Y059272
X047598Y059134
X04911Y059126
X047402Y059055
X048051Y059012
X047205Y058937
X047701Y058913
X047402Y058839
X04911Y058661
X047941Y05865
X047941Y058291
X04911Y058264
X04748Y057835
X049118Y057811
X047539Y057539
X049106Y057374
X049106Y056941
X049106Y056547
X047165Y056476
X047106Y05622
X049071Y056197
X049067Y055776
X049035Y055374
X047126Y055295
X047874Y055276
X047323Y055098
X047598Y055039
X048071Y055039
X049291Y053661
X048327Y053642
X047953Y053642
X048976Y053465
X047992Y053445
X049154Y053346
X04937Y053346
X047362Y052953
X04878Y052874
X048799Y052618
X049528Y0525
X047854Y052362
X048091Y052303
X048425Y052283
X04935Y052185
X047087Y05189
X047835Y051594
X048209Y051575
X047618Y051378
X047185Y051319
X04748Y050709
X047402Y050374
X04815Y050354
X0475Y050197
X049331Y05
X048165Y04974
X047106Y049587
X04813Y049496
X047283Y049409
X049094Y049409
X048181Y049264
X04748Y049134
X047362Y048937
X049071Y048728
X047461Y048366
X049311Y048248
X048713Y047685
X048917Y04765
X048488Y047614
X048988Y047406
X049177Y047382
X047126Y047087
X047126Y046732
X047441Y045886
X047252Y045752
X048469Y045563
X048823Y045563
X047795Y045563
X048102Y045563
X047343Y045492
X048469Y045185
X047795Y045173
X048102Y045173
X048823Y045173
X048823Y044854
X048469Y044854
X047795Y044843
X048114Y044843
X047134Y044807
X048591Y043406
X048508Y043228
X049476Y043146
X048976Y043031
X049488Y042756
X049102Y042535
X049504Y042524
X049303Y042508
X047524Y04248
X047244Y042461
X048122Y042457
X047244Y042205
X049173Y040748
X048228Y040728
X047185Y040669
X048622Y040236
X049213Y040236
X048031Y040236
X047213Y040173
X048622Y039646
X047441Y039646
X048031Y039646
X049213Y039646
X051949Y039626
X051575Y039646
X050984Y039646
X050394Y039646
X049803Y039646
X051713Y039862
X051575Y040098
X050394Y040236
X049803Y040236
X051457Y040413
X050591Y040787
X049764Y040787
X051437Y040866
X051063Y040945
X050118Y041417
X051988Y041909
X051752Y041929
X051831Y042283
X04972Y042508
X051043Y042516
X050673Y04252
X049736Y042732
X050886Y04287
X050697Y04287
X050394Y043307
X050354Y043504
X050541Y043617
X050413Y044496
X050394Y044937
X051748Y045079
X051228Y045083
X050827Y045083
X050398Y045421
X050984Y045551
X051575Y045551
X050413Y045709
X05061Y045807
X050965Y046004
X051417Y046063
X051969Y04628
X050787Y046969
X050433Y047047
X051331Y047051
X050984Y047134
X051441Y047252
X049823Y047303
X050295Y047303
X051319Y047559
X049843Y047894
X050394Y047933
X050787Y047972
X050512Y048386
X050709Y048504
X051319Y048878
X050512Y049094
X050886Y049213
X050295Y049272
X051339Y049374
X050866Y049449
X051232Y049681
X050886Y049685
X050295Y049744
X050984Y04998
X050354Y050531
X050236Y050709
X050374Y05128
X050276Y051476
X050374Y051693
X050374Y05189
X050374Y052106
X049846Y052681
X049846Y052894
X04985Y053107
X05163Y054209
X051587Y055094
X051858Y055118
X051433Y055591
X051496Y055811
X051197Y055811
X051811Y055823
X050067Y055866
X050354Y056055
X050531Y05628
X050138Y056287
X050437Y056528
X050134Y056583
X050319Y056776
X050157Y056969
X050236Y057205
X050169Y057429
X05102Y057469
X052024Y057504
X051268Y057551
X05185Y058228
X050374Y05928
X050228Y059843
X050945Y059882
X051984Y059902
X051142Y060079
X050602Y060228
X051417Y060354
X051622Y060563
X050827Y06063
X050386Y060713
X051142Y060748
X051409Y06076
X05063Y060768
X051654Y061024
X050098Y061083
X051575Y061339
X051102Y061484
X050114Y061492
X051339Y061496
X050602Y061531
X050276Y061614
X051575Y061732
X051535Y062008
X050098Y062157
X051496Y062244
X050315Y062244
X051969Y062283
X052559Y062283
X05315Y062283
X05374Y062283
X053819Y060906
X05315Y060906
X05252Y060866
X052441Y060551
X052165Y060315
X052559Y060079
X053504Y059921
X052165Y059724
X053937Y059724
X053079Y059697
X052461Y059406
X053315Y059287
X053937Y059134
X052461Y05911
X053323Y058787
X052433Y05863
X052165Y058543
X053937Y058543
X052988Y05839
X053311Y058299
X052524Y058067
X052283Y057752
X053937Y057362
X052598Y057299
X053335Y057142
X052331Y057094
X053937Y056772
X053315Y05652
X052894Y056185
X053937Y055591
X053543Y055583
X052173Y055343
X052787Y055102
X053083Y055094
X052142Y055059
X053937Y055
X053673Y054677
X053937Y054409
X052854Y053988
X053205Y053846
X052201Y053346
X053346Y053228
X053937Y053228
X052705Y052748
X053098Y05274
X053346Y052638
X053937Y052638
X053346Y052047
X053937Y052047
X053071Y051709
X052874Y051496
X053937Y051457
X053346Y051457
X053937Y050866
X053346Y050866
X053937Y050276
X053346Y050276
X052846Y050244
X052709Y049823
X053346Y049685
X053937Y049685
X053346Y049094
X053937Y049094
X05272Y049071
X052736Y048665
X053346Y048504
X053937Y048504
X052732Y048319
X053346Y047913
X053937Y047913
X053346Y047323
X053937Y047323
X052709Y047264
X053346Y046732
X053937Y046732
X052244Y046614
X054055Y046457
X05315Y046102
X054094Y046102
X052126Y045709
X053346Y045551
X053937Y045551
X054055Y045276
X054098Y044972
X052177Y044614
X052717Y044606
X052358Y044606
X052539Y044606
X052362Y044421
X05272Y044417
X052551Y044417
X052181Y044417
X054091Y04439
X052402Y043937
X054102Y043772
X054094Y042441
X052165Y042362
X052697Y042244
X052244Y042087
X053917Y042087
X054114Y041713
T2C.00984F0S0
X040394Y039893
X041102Y039893
X039893Y040394
X041603Y040394
X039893Y041102
X041603Y041102
X040394Y041603
X041102Y041603
X053307Y041603
X052599Y041603
X053808Y041102
X052098Y041102
X053808Y040394
X052098Y040394
X053307Y039893
X052599Y039893
T3C.01F095S3
X040984Y044173
X041949Y044685
X042126Y048957
X042343Y055709
X042126Y055965
X041972Y060476
X048591Y060354
X046949Y052992
X04937Y051496
X04937Y05122
X049114Y049921
X044803Y049764
X049047Y047075
X046929Y04622
X046535Y04565
X046535Y045413
X046862Y044217
X044984Y043835
X049823Y043228
X049874Y045492
X05248Y045591
X049626Y045917
X053669Y046268
X049803Y046732
X052185Y052638
X052083Y05685
T4C.02362F197S55
X047709Y04173G85X047709Y042163
X05111Y04173G85X05111Y042163
X047709Y040156G85X047709Y04047
X05111Y040156G85X05111Y04047
X042591Y04173G85X042591Y042163
X045992Y04173G85X045992Y042163
X042591Y040156G85X042591Y04047
X045992Y040156G85X045992Y04047
T5C.02559F197S55
X043154Y04175
X045429Y04175
X048272Y04175
X050547Y04175
T6C.0315F197S55
X052953Y053425
X053681Y054016
X052953Y054606
X052953Y055591
X053681Y056181
X052953Y056772
T7C.03937F197S55
X052756Y047894
X052756Y051035
T8C.04F139S55
X043799Y04565
X042795Y04565
X045787Y04565
X044795Y04565
T9C.04016F139S55
X041248Y042665
X040248Y042665
X041248Y043665
X040248Y043665
X041248Y044665
X040248Y044665
X041248Y045665
X040248Y045665
X041248Y046665
X040248Y046665
X041248Y047665
X040248Y047665
X041248Y048665
X040248Y048665
X041248Y049665
X040248Y049665
X041248Y050665
X040248Y050665
X041248Y051665
X040248Y051665
X041248Y052665
X040248Y052665
X041248Y053665
X040248Y053665
X041248Y054665
X040248Y054665
X041248Y055665
X040248Y055665
X041248Y056665
X040248Y056665
X041248Y057665
X040248Y057665
X041248Y058665
X040248Y058665
X041248Y059665
X040248Y059665
X041248Y060665
X040248Y060665
X041248Y061665
X040248Y061665
T10C.12598F035S794
X040748Y040748
X052953Y040748
T11C.1378F035S794
X040748Y063583
X052953Y063583
M30
