*
*
G04 PADS 9.5 Build Number: 522968 generated Gerber (RS-274-X) file*
G04 PC Version=2.1*
*
%IN "SF32LB52-DevKit-LCD_PCB"*%
*
%MOIN*%
*
%FSLAX35Y35*%
*
*
*
*
G04 PC Standard Apertures*
*
*
G04 Thermal Relief Aperture macro.*
%AMTER*
1,1,$1,0,0*
1,0,$1-$2,0,0*
21,0,$3,$4,0,0,45*
21,0,$3,$4,0,0,135*
%
*
*
G04 Annular Aperture macro.*
%AMANN*
1,1,$1,0,0*
1,0,$2,0,0*
%
*
*
G04 Odd Aperture macro.*
%AMODD*
1,1,$1,0,0*
1,0,$1-0.005,0,0*
%
*
*
G04 PC Custom Aperture Macros*
*
*
*
*
*
*
G04 PC Aperture Table*
*
%ADD010C,0.001*%
%ADD158C,0.00394*%
%ADD351C,0.03937*%
%ADD404C,0.01969*%
%ADD417C,0.06024*%
%ADD418C,0.23819*%
%ADD419O,0.03937X0.08268*%
%ADD420O,0.03937X0.07087*%
%ADD421C,0.02559*%
%ADD434C,0.05906*%
%ADD436C,0.1378*%
%ADD437C,0.05118*%
%ADD447C,0.015*%
%ADD448C,0.02*%
*
*
*
*
G04 PC Circuitry*
G04 Layer Name SF32LB52-DevKit-LCD_PCB - circuitry*
%LPD*%
*
*
G04 PC Custom Flashes*
G04 Layer Name SF32LB52-DevKit-LCD_PCB - flashes*
%LPD*%
*
*
G04 PC Circuitry*
G04 Layer Name SF32LB52-DevKit-LCD_PCB - circuitry*
%LPD*%
*
G54D10*
G54D158*
G01X538390Y462677D02*
G75*
G03X538390I-1697J0D01*
G01X540067Y540157D02*
G03X540067I-3256J0D01*
G01Y561811D02*
G03X540067I-3256J0D01*
G01X525463Y439370D02*
G03X525463I-1447J0D01*
G01X526500Y455906D02*
G03X526500I-1697J0D01*
G01X530224Y478937D02*
G03X530224I-2665J0D01*
G01Y510354D02*
G03X530224I-2665J0D01*
G01X530187Y514961D02*
G03X530187I-1447J0D01*
G01X532783Y534252D02*
G03X532783I-3255J0D01*
G01Y546063D02*
G03X532783I-3255J0D01*
G01Y555906D02*
G03X532783I-3255J0D01*
G01Y567717D02*
G03X532783I-3255J0D01*
G01X531329Y583898D02*
G03X531329I-1447J0D01*
G01X523547Y526378D02*
G03X523547I-1697J0D01*
G01X514754Y470512D02*
G03X514754I-1447J0D01*
G01X514636Y475591D02*
G03X514636I-1447J0D01*
G01Y488780D02*
G03X514636I-1447J0D01*
G01X522524Y568504D02*
G03X522524I-1697J0D01*
G01X506852Y436173D02*
G03X506852I-1446J0D01*
G01X507549Y458071D02*
G03X507549I-1447J0D01*
G01X509321Y479724D02*
G03X509321I-1447J0D01*
G01X504400Y473031D02*
G03X504400I-1447J0D01*
G01X515541Y607598D02*
G03X515541I-1447J0D01*
G01X517195Y617323D02*
G03X517195I-1447J0D01*
G01X504400Y492717D02*
G03X504400I-1447J0D01*
G01Y497441D02*
G03X504400I-1447J0D01*
G01X499925Y432283D02*
G03X499925I-1697J0D01*
G01X500437Y454921D02*
G03X500437I-1697J0D01*
G01X503022Y569685D02*
G03X503022I-1447J0D01*
G01X503140Y574291D02*
G03X503140I-1447J0D01*
G01X497957Y459173D02*
G03X497957I-1697J0D01*
G01X499728Y467323D02*
G03X499728I-1697J0D01*
G01X502431Y610827D02*
G03X502431I-1447J0D01*
G01X492169Y470748D02*
G03X492169I-1697J0D01*
G01X494557Y482480D02*
G03X494557I-1447J0D01*
G01X492392Y494094D02*
G03X492392I-1447J0D01*
G01X492839Y499213D02*
G03X492839I-1697J0D01*
G01X489242Y528740D02*
G03X489242I-1447J0D01*
G01X491801Y553740D02*
G03X491801I-1447J0D01*
G01X492628Y578110D02*
G03X492628I-1447J0D01*
G01X492549Y582638D02*
G03X492549I-1447J0D01*
G01Y586614D02*
G03X492549I-1447J0D01*
G01Y591260D02*
G03X492549I-1447J0D01*
G01X492589Y611220D02*
G03X492589I-1447J0D01*
G01X491919Y617047D02*
G03X491919I-1447J0D01*
G01X484693Y417500D02*
G03X484693I-1976J0D01*
G01X482746Y494961D02*
G03X482746I-1447J0D01*
G01X483533Y515748D02*
G03X483533I-1446J0D01*
G01X484715Y536417D02*
G03X484715I-1447J0D01*
G01X479793Y515945D02*
G03X479793I-1447J0D01*
G01X479990Y523622D02*
G03X479990I-1447J0D01*
G01X481368Y534449D02*
G03X481368I-1447J0D01*
G01X482156Y550394D02*
G03X482156I-1447J0D01*
G01X480856Y582913D02*
G03X480856I-1447J0D01*
G01Y586496D02*
G03X480856I-1447J0D01*
G01X481959Y590118D02*
G03X481959I-1447J0D01*
G01X483730Y593701D02*
G03X483730I-1447J0D01*
G01Y600787D02*
G03X483730I-1447J0D01*
G01X475069Y489370D02*
G03X475069I-1447J0D01*
G01X474282Y494094D02*
G03X474282I-1447J0D01*
G01X475463Y503740D02*
G03X475463I-1447J0D01*
G01X470319Y442165D02*
G03X470319I-1697J0D01*
G01X470988Y462205D02*
G03X470988I-1697J0D01*
G01X473297Y513189D02*
G03X473297I-1447J0D01*
G01X469951Y496063D02*
G03X469951I-1447J0D01*
G01X469754Y513189D02*
G03X469754I-1447J0D01*
G01X472313Y518898D02*
G03X472313I-1447J0D01*
G01X466801Y536811D02*
G03X466801I-1447J0D01*
G01X469163Y550000D02*
G03X469163I-1446J0D01*
G01X468967Y576772D02*
G03X468967I-1447J0D01*
G01X456268Y417500D02*
G03X456268I-1977J0D01*
G01X454557Y445236D02*
G03X454557I-1447J0D01*
G01X461524Y456496D02*
G03X461524I-3650J0D01*
G01X461289Y475591D02*
G03X461289I-1446J0D01*
G01X462470Y581102D02*
G03X462470I-1446J0D01*
G01X454990Y512795D02*
G03X454990I-1447J0D01*
G01X451539Y438346D02*
G03X451539I-1696J0D01*
G01X451602Y456496D02*
G03X451602I-3649J0D01*
G01X454203Y532480D02*
G03X454203I-1447J0D01*
G01X433512Y417500D02*
G03X433512I-1977J0D01*
G01X435856Y432677D02*
G03X435856I-1447J0D01*
G01X434400Y440276D02*
G03X434400I-1447J0D01*
G01X441642Y456496D02*
G03X441642I-3650J0D01*
G01X449728Y497638D02*
G03X449728I-1697J0D01*
G01X451250Y528543D02*
G03X451250I-1447J0D01*
G01X453179Y536654D02*
G03X453179I-1447J0D01*
G01X452234Y559449D02*
G03X452234I-1447J0D01*
G01X451998Y564449D02*
G03X451998I-1447J0D01*
G01X445345Y546457D02*
G03X445345I-1447J0D01*
G01X445187Y550984D02*
G03X445187I-1447J0D01*
G01X434321Y444449D02*
G03X434321I-1447J0D01*
G01X436289Y469094D02*
G03X436289I-1446J0D01*
G01X441998Y536417D02*
G03X441998I-1447J0D01*
G01X443179Y569291D02*
G03X443179I-1447J0D01*
G01X444754Y576575D02*
G03X444754I-1447J0D01*
G01Y581102D02*
G03X444754I-1447J0D01*
G01Y596457D02*
G03X444754I-1447J0D01*
G01X449675Y611220D02*
G03X449675I-1447J0D01*
G01X444360Y606102D02*
G03X444360I-1447J0D01*
G01X441408Y621772D02*
G03X441408I-1447J0D01*
G01X431602Y456496D02*
G03X431602I-3649J0D01*
G01X432549Y469094D02*
G03X432549I-1447J0D01*
G01X437077Y556102D02*
G03X437077I-1447J0D01*
G01X437667Y560039D02*
G03X437667I-1447J0D01*
G01X437077Y565748D02*
G03X437077I-1447J0D01*
G01X433533Y521457D02*
G03X433533I-1446J0D01*
G01X433927Y528740D02*
G03X433927I-1447J0D01*
G01X435502Y577165D02*
G03X435502I-1447J0D01*
G01X436880Y591339D02*
G03X436880I-1447J0D01*
G01Y595276D02*
G03X436880I-1447J0D01*
G01Y599094D02*
G03X436880I-1447J0D01*
G01Y602756D02*
G03X436880I-1447J0D01*
G01X421185Y446850D02*
G03X421185I-1697J0D01*
G01X422957Y489567D02*
G03X422957I-1697J0D01*
G01X425122Y557087D02*
G03X425122I-1697J0D01*
G01X425659Y569488D02*
G03X425659I-1446J0D01*
G01Y573425D02*
G03X425659I-1446J0D01*
G01X422077Y615433D02*
G03X422077I-1447J0D01*
G01X416189Y566654D02*
G03X416189I-3709J0D01*
G01Y576654D02*
G03X416189I-3709J0D01*
G01Y586654D02*
G03X416189I-3709J0D01*
G01Y596654D02*
G03X416189I-3709J0D01*
G01Y606654D02*
G03X416189I-3709J0D01*
G01Y616654D02*
G03X416189I-3709J0D01*
G01X406189Y426654D02*
G03X406189I-3709J0D01*
G01Y436654D02*
G03X406189I-3709J0D01*
G01Y446654D02*
G03X406189I-3709J0D01*
G01Y456654D02*
G03X406189I-3709J0D01*
G01Y466654D02*
G03X406189I-3709J0D01*
G01Y476654D02*
G03X406189I-3709J0D01*
G01Y486654D02*
G03X406189I-3709J0D01*
G01Y496654D02*
G03X406189I-3709J0D01*
G01Y506654D02*
G03X406189I-3709J0D01*
G01Y516654D02*
G03X406189I-3709J0D01*
G01Y526654D02*
G03X406189I-3709J0D01*
G01Y536654D02*
G03X406189I-3709J0D01*
G01Y546654D02*
G03X406189I-3709J0D01*
G01Y556654D02*
G03X406189I-3709J0D01*
G01Y566654D02*
G03X406189I-3709J0D01*
G01Y576654D02*
G03X406189I-3709J0D01*
G01Y586654D02*
G03X406189I-3709J0D01*
G01Y596654D02*
G03X406189I-3709J0D01*
G01Y606654D02*
G03X406189I-3709J0D01*
G01Y616654D02*
G03X406189I-3709J0D01*
G01X416189Y426654D02*
G03X416189I-3709J0D01*
G01Y436654D02*
G03X416189I-3709J0D01*
G01Y446654D02*
G03X416189I-3709J0D01*
G01Y456654D02*
G03X416189I-3709J0D01*
G01Y466654D02*
G03X416189I-3709J0D01*
G01Y476654D02*
G03X416189I-3709J0D01*
G01Y486654D02*
G03X416189I-3709J0D01*
G01Y496654D02*
G03X416189I-3709J0D01*
G01Y506654D02*
G03X416189I-3709J0D01*
G01Y516654D02*
G03X416189I-3709J0D01*
G01Y526654D02*
G03X416189I-3709J0D01*
G01Y536654D02*
G03X416189I-3709J0D01*
G01Y546654D02*
G03X416189I-3709J0D01*
G01X471185Y529921D02*
G03X471185I-1697J0D01*
G01X507449Y417500D02*
G03X507449I-1977J0D01*
G01X511289Y471339D02*
G03X511289I-1446J0D01*
G01X542126Y410662D02*
Y624409D01*
G03X541929Y624606I-197J0*
G01X512524*
G03X512415Y624574I-0J-197*
G01X509505Y623623D02*
G03X512415Y624574I-274J5770D01*
G01X509449Y623622D02*
G03X509505Y623623I-0J1181D01*
G01X509449Y623622D02*
X427165D01*
X426998Y623634D02*
G03X427165Y623622I167J1169D01*
G01X424574Y624572D02*
G03X426998Y623634I3244J4779D01*
G01X424574Y624572D02*
G03X424464Y624606I-110J-163D01*
G01X395079*
G03X394882Y624409I-0J-197*
G01Y410662*
G03X395269Y410613I197J-0*
G01X410613Y395269D02*
G03X395269Y410613I-3133J12211D01*
G01X410613Y395269D02*
G03X410662Y394882I49J-190D01*
G01X526346*
G03X526395Y395269I-0J197*
G01X541738Y410613D02*
G03X526395Y395269I-12210J-3133D01*
G01X541738Y410613D02*
G03X542126Y410662I191J49D01*
G01X538390Y462677D02*
G03X538390I-1697J0D01*
G01X540067Y540157D02*
G03X540067I-3256J0D01*
G01Y561811D02*
G03X540067I-3256J0D01*
G01X525463Y439370D02*
G03X525463I-1447J0D01*
G01X526500Y455906D02*
G03X526500I-1697J0D01*
G01X530224Y478937D02*
G03X530224I-2665J0D01*
G01Y510354D02*
G03X530224I-2665J0D01*
G01X530187Y514961D02*
G03X530187I-1447J0D01*
G01X532783Y534252D02*
G03X532783I-3255J0D01*
G01Y546063D02*
G03X532783I-3255J0D01*
G01Y555906D02*
G03X532783I-3255J0D01*
G01Y567717D02*
G03X532783I-3255J0D01*
G01X531329Y583898D02*
G03X531329I-1447J0D01*
G01X523547Y526378D02*
G03X523547I-1697J0D01*
G01X525242Y592756D02*
G03X523970I-636J1299D01*
G01X525242D02*
G03Y592402I87J-177D01*
G01X523970D02*
G03X525242I636J-1300D01*
G01X523970D02*
G03Y592756I-86J177D01*
G01X513768Y404705D02*
Y401555D01*
X508437D02*
G03X513768I2665J0D01*
G01X508437D02*
Y404705D01*
X513768D02*
G03X508437I-2666J-0D01*
G01X513768Y421634D02*
Y417303D01*
X508437D02*
G03X513768I2665J0D01*
G01X508437D02*
Y421634D01*
X513768D02*
G03X508437I-2666J-0D01*
G01X514754Y470512D02*
G03X514754I-1447J0D01*
G01X514636Y475591D02*
G03X514636I-1447J0D01*
G01Y488780D02*
G03X514636I-1447J0D01*
G01X512711Y495020D02*
G03X513125Y495163I675J-1280D01*
G01X512711Y495020D02*
G03X512584Y495388I-92J174D01*
G01X512997Y495531D02*
G03X512584Y495388I-674J1280D01*
G01X512997Y495531D02*
G03X513125Y495163I92J-174D01*
G01X517457Y550272D02*
G03X517317Y551882I1126J909D01*
G01X517457Y550272D02*
G03X517132Y550244I-153J-124D01*
G01X516992Y551854D02*
G03X517132Y550244I-1126J-909D01*
G01X516992Y551854D02*
G03X517317Y551882I153J124D01*
G01X522524Y568504D02*
G03X522524I-1697J0D01*
G01X506852Y436173D02*
G03X506852I-1446J0D01*
G01X507549Y458071D02*
G03X507549I-1447J0D01*
G01X509321Y479724D02*
G03X509321I-1447J0D01*
G01X504400Y473031D02*
G03X504400I-1447J0D01*
G01X506753Y483631D02*
G03X505687Y485408I334J1408D01*
G01X506753Y483631D02*
G03X506517Y483490I-45J-191D01*
G01X505452Y485266D02*
G03X506517Y483490I-334J-1408D01*
G01X505452Y485266D02*
G03X505687Y485408I45J192D01*
G01X509851Y498356D02*
G03X508968Y498651I-8J1447D01*
G01X509851Y498356D02*
G03X509733Y498003I1J-197D01*
G01X509771Y495727D02*
G03X509733Y498003I-913J1123D01*
G01X509771Y495727D02*
G03X509747Y495445I124J-152D01*
G01Y493532D02*
G03Y495445I-1086J956D01*
G01Y493532D02*
G03X509771Y493249I148J-130D01*
G01X507773Y493082D02*
G03X509771Y493249I1085J-956D01*
G01X507773Y493082D02*
G03X507749Y493365I-148J131D01*
G01Y495611D02*
G03Y493365I912J-1123D01*
G01Y495611D02*
G03X507773Y495894I-124J153D01*
G01X508850Y498297D02*
G03X507773Y495894I8J-1447D01*
G01X508850Y498297D02*
G03X508967Y498651I-2J197D01*
G01X513644Y557511D02*
G03Y558710I1317J599D01*
G01Y557511D02*
G03X513285I-179J-82D01*
G01Y558710D02*
G03Y557511I-1316J-600D01*
G01Y558710D02*
G03X513644I180J81D01*
G01X511863Y574316D02*
G03X511308Y575980I814J1196D01*
G01X511863Y574316D02*
G03X511566Y574217I-111J-163D01*
G01X511011Y575881D02*
G03X511566Y574217I-814J-1196D01*
G01X511011Y575881D02*
G03X511308Y575980I111J163D01*
G01X515541Y607598D02*
G03X515541I-1447J0D01*
G01X517195Y617323D02*
G03X517195I-1447J0D01*
G01X504400Y492717D02*
G03X504400I-1447J0D01*
G01Y497441D02*
G03X504400I-1447J0D01*
G01X502106Y505483D02*
G03X503941Y506706I1437J-168D01*
G01X502106Y505483D02*
G03X501965Y505695I-195J23D01*
G01X503799Y506918D02*
G03X501965Y505695I-1437J169D01*
G01X503799Y506918D02*
G03X503941Y506706I196J-23D01*
G01X502346Y513181D02*
G03X504268Y514142I1394J-386D01*
G01X502346Y513181D02*
G03X502228Y513417I-190J52D01*
G01X504150Y514378D02*
G03X502228Y513417I-1394J386D01*
G01X504150Y514378D02*
G03X504268Y514142I190J-52D01*
G01X496173Y424064D02*
G03X496331Y426232I1032J1015D01*
G01X496173Y424064D02*
G03X495914Y424083I-140J-138D01*
G01X494245Y424027D02*
G03X495914Y424083I794J1209D01*
G01X494245Y424027D02*
G03X494005Y424008I-108J-165D01*
G01X491993Y424071D02*
G03X494005Y424008I1038J1008D01*
G01X491993Y424071D02*
G03X491752Y424104I-141J-137D01*
G01X492062Y426362D02*
G03X491752Y424104I-1038J-1008D01*
G01X492062Y426362D02*
G03X492303Y426329I142J137D01*
G01X493826Y426288D02*
G03X492303Y426329I-795J-1209D01*
G01X493826Y426288D02*
G03X494066Y426307I108J165D01*
G01X496071Y426251D02*
G03X494066Y426307I-1032J-1015D01*
G01X496071Y426251D02*
G03X496331Y426232I141J138D01*
G01X499925Y432283D02*
G03X499925I-1697J0D01*
G01X500437Y454921D02*
G03X500437I-1697J0D01*
G01X503022Y569685D02*
G03X503022I-1447J0D01*
G01X503140Y574291D02*
G03X503140I-1447J0D01*
G01X497957Y459173D02*
G03X497957I-1697J0D01*
G01X499728Y467323D02*
G03X499728I-1697J0D01*
G01X502431Y610827D02*
G03X502431I-1447J0D01*
G01X492169Y470748D02*
G03X492169I-1697J0D01*
G01X494557Y482480D02*
G03X494557I-1447J0D01*
G01X492392Y494094D02*
G03X492392I-1447J0D01*
G01X492839Y499213D02*
G03X492839I-1697J0D01*
G01X489242Y528740D02*
G03X489242I-1447J0D01*
G01X492748Y532376D02*
G03X493575Y534906I953J1089D01*
G01X492748Y532376D02*
G03X492488I-130J-148D01*
G01X490144Y533067D02*
G03X492488Y532376I1391J398D01*
G01X490144Y533067D02*
G03X489932Y533209I-189J-54D01*
G01X491155Y535043D02*
G03X489932Y533209I-1391J-397D01*
G01X491155Y535043D02*
G03X491367Y534902I189J54D01*
G01X492488Y534553D02*
G03X491367Y534902I-953J-1088D01*
G01X492488Y534553D02*
G03X492748I130J148D01*
G01X493134Y534796D02*
G03X492748Y534553I567J-1331D01*
G01X493133Y534796D02*
G03X493039Y535173I-77J181D01*
G01X493481Y535283D02*
G03X493039Y535173I-568J1331D01*
G01X493481Y535283D02*
G03X493575Y534906I77J-181D01*
G01X491801Y553740D02*
G03X491801I-1447J0D01*
G01X492628Y578110D02*
G03X492628I-1447J0D01*
G01X492549Y582638D02*
G03X492549I-1447J0D01*
G01Y586614D02*
G03X492549I-1447J0D01*
G01Y591260D02*
G03X492549I-1447J0D01*
G01X491436Y597135D02*
G03X490734Y597144I-334J1408D01*
G01X491436Y597135D02*
G03X491431Y596754I45J-191D01*
G01X490729Y596762D02*
G03X491431Y596754I334J-1408D01*
G01X490729Y596762D02*
G03X490734Y597144I-45J192D01*
G01X490575Y605862D02*
G03X491554Y605975I645J-1295D01*
G01X490575Y605862D02*
G03X490533Y606230I-87J176D01*
G01X491511Y606343D02*
G03X490533Y606230I-645J1295D01*
G01X491511Y606343D02*
G03X491554Y605975I88J-177D01*
G01X492589Y611220D02*
G03X492589I-1447J0D01*
G01X491919Y617047D02*
G03X491919I-1447J0D01*
G01X484693Y417500D02*
G03X484693I-1976J0D01*
G01X482746Y494961D02*
G03X482746I-1447J0D01*
G01X483533Y515748D02*
G03X483533I-1446J0D01*
G01X484715Y536417D02*
G03X484715I-1447J0D01*
G01X479752Y404705D02*
Y401555D01*
X474421D02*
G03X479752I2666J0D01*
G01X474421D02*
Y404705D01*
X479752D02*
G03X474421I-2665J-0D01*
G01X479752Y421634D02*
Y417303D01*
X474421D02*
G03X479752I2666J0D01*
G01X474421D02*
Y421634D01*
X479752D02*
G03X474421I-2665J-0D01*
G01X479793Y515945D02*
G03X479793I-1447J0D01*
G01X479990Y523622D02*
G03X479990I-1447J0D01*
G01X481368Y534449D02*
G03X481368I-1447J0D01*
G01X482156Y550394D02*
G03X482156I-1447J0D01*
G01X480856Y582913D02*
G03X480856I-1447J0D01*
G01Y586496D02*
G03X480856I-1447J0D01*
G01X481959Y590118D02*
G03X481959I-1447J0D01*
G01X483730Y593701D02*
G03X483730I-1447J0D01*
G01Y600787D02*
G03X483730I-1447J0D01*
G01X475069Y489370D02*
G03X475069I-1447J0D01*
G01X474282Y494094D02*
G03X474282I-1447J0D01*
G01X475463Y503740D02*
G03X475463I-1447J0D01*
G01X470319Y442165D02*
G03X470319I-1697J0D01*
G01X470988Y462205D02*
G03X470988I-1697J0D01*
G01X473297Y513189D02*
G03X473297I-1447J0D01*
G01X469951Y496063D02*
G03X469951I-1447J0D01*
G01X466681Y455438D02*
G03X464028I-1327J1058D01*
G01X466681D02*
G03Y455192I154J-123D01*
G01X464028D02*
G03X466681I1326J-1058D01*
G01X464028D02*
G03Y455438I-154J123D01*
G01X469754Y513189D02*
G03X469754I-1447J0D01*
G01X472313Y518898D02*
G03X472313I-1447J0D01*
G01X474615Y549925D02*
G03X474927Y551382I1369J469D01*
G01X474615Y549925D02*
G03X474285Y549996I-186J-63D01*
G01X471818Y551306D02*
G03X474285Y549996I1410J-322D01*
G01X471818Y551306D02*
G03X471582Y551542I-192J44D01*
G01X472670Y552631D02*
G03X471582Y551542I-1410J322D01*
G01X472670Y552631D02*
G03X472906Y552395I192J-44D01*
G01X474597Y551453D02*
G03X472906Y552395I-1369J-469D01*
G01X474597Y551453D02*
G03X474927Y551382I187J63D01*
G01X472242Y563442D02*
G03X470546Y563833I-588J1322D01*
G01X472242Y563442D02*
G03X472171Y563135I80J-180D01*
G01X470475Y563527D02*
G03X472171Y563135I588J-1322D01*
G01X470475Y563527D02*
G03X470546Y563833I-80J180D01*
G01X466801Y536811D02*
G03X466801I-1447J0D01*
G01X469163Y550000D02*
G03X469163I-1446J0D01*
G01X468967Y576772D02*
G03X468967I-1447J0D01*
G01X463916Y581058D02*
G03X466018Y581478I1241J-743D01*
G01X463916Y581058D02*
G03X463864Y581317I-169J101D01*
G01X465966Y581738D02*
G03X463864Y581317I-1242J742D01*
G01X465966Y581738D02*
G03X466018Y581478I169J-102D01*
G01X462587Y404705D02*
Y401555D01*
X457256D02*
G03X462587I2665J0D01*
G01X457256D02*
Y404705D01*
X462587D02*
G03X457256I-2666J-0D01*
G01X462587Y421634D02*
Y417303D01*
X457256D02*
G03X462587I2665J0D01*
G01X457256D02*
Y421634D01*
X462587D02*
G03X457256I-2666J-0D01*
G01X456268Y417500D02*
G03X456268I-1977J0D01*
G01X454557Y445236D02*
G03X454557I-1447J0D01*
G01X461524Y456496D02*
G03X461524I-3650J0D01*
G01X461289Y475591D02*
G03X461289I-1446J0D01*
G01X458599Y518338D02*
G03X456676Y519299I-528J1347D01*
G01X458599Y518338D02*
G03X458481Y518102I72J-183D01*
G01X456558Y519064D02*
G03X458481Y518102I529J-1347D01*
G01X456558Y519064D02*
G03X456676Y519299I-71J183D01*
G01X457650Y551568D02*
G03X458737Y553055I1444J86D01*
G01X457650Y551568D02*
G03X457405Y551748I-196J-11D01*
G01X458492Y553235D02*
G03X457405Y551748I-1445J-85D01*
G01X458492Y553235D02*
G03X458737Y553056I196J11D01*
G01X462470Y581102D02*
G03X462470I-1446J0D01*
G01X454990Y512795D02*
G03X454990I-1447J0D01*
G01X451539Y438346D02*
G03X451539I-1696J0D01*
G01X445018Y424002D02*
G03X445148Y426260I966J1077D01*
G01X445018Y424002D02*
G03X444773Y424016I-131J-147D01*
G01X442920Y424168D02*
G03X444773Y424016I1017J1029D01*
G01X442920Y424168D02*
G03X442680Y424196I-138J-140D01*
G01X441219Y424172D02*
G03X442680Y424196I710J1261D01*
G01X441219Y424172D02*
G03X440974Y424130I-96J-171D01*
G01X440592Y426340D02*
G03X440974Y424130I-710J-1261D01*
G01X440592Y426340D02*
G03X440837Y426382I96J171D01*
G01X442946Y426462D02*
G03X440837Y426382I-1017J-1029D01*
G01X442946Y426462D02*
G03X443187Y426434I139J140D01*
G01X444903Y426274D02*
G03X443187Y426434I-966J-1077D01*
G01X444903Y426274D02*
G03X445148Y426260I132J146D01*
G01X451602Y456496D02*
G03X451602I-3649J0D01*
G01X454203Y532480D02*
G03X454203I-1447J0D01*
G01X433512Y417500D02*
G03X433512I-1977J0D01*
G01X435856Y432677D02*
G03X435856I-1447J0D01*
G01X434400Y440276D02*
G03X434400I-1447J0D01*
G01X441642Y456496D02*
G03X441642I-3650J0D01*
G01X443864Y469564D02*
G03X443915Y470373I1412J318D01*
G01X443864Y469564D02*
G03X443487Y469587I-192J-43D01*
G01X443537Y470397D02*
G03X443487Y469587I-1411J-318D01*
G01X443537Y470397D02*
G03X443915Y470373I193J43D01*
G01X449728Y497638D02*
G03X449728I-1697J0D01*
G01X451250Y528543D02*
G03X451250I-1447J0D01*
G01X453179Y536654D02*
G03X453179I-1447J0D01*
G01X452234Y559449D02*
G03X452234I-1447J0D01*
G01X451998Y564449D02*
G03X451998I-1447J0D01*
G01X445345Y546457D02*
G03X445345I-1447J0D01*
G01X445187Y550984D02*
G03X445187I-1447J0D01*
G01X434321Y444449D02*
G03X434321I-1447J0D01*
G01X436289Y469094D02*
G03X436289I-1446J0D01*
G01X437530Y520037D02*
G03X439210Y521507I1446J42D01*
G01X437530Y520037D02*
G03X437365Y520226I-197J-6D01*
G01X439045Y521695D02*
G03X437365Y520226I-1447J-41D01*
G01X439045Y521695D02*
G03X439210Y521507I196J6D01*
G01X441998Y536417D02*
G03X441998I-1447J0D01*
G01X443179Y569291D02*
G03X443179I-1447J0D01*
G01X444754Y576575D02*
G03X444754I-1447J0D01*
G01Y581102D02*
G03X444754I-1447J0D01*
G01X443133Y589914D02*
G03X443575Y590024I568J-1331D01*
G01X443133Y589914D02*
G03X443039Y590291I-77J181D01*
G01X443481Y590401D02*
G03X443039Y590291I-568J1331D01*
G01X443481Y590401D02*
G03X443575Y590024I77J-181D01*
G01X444754Y596457D02*
G03X444754I-1447J0D01*
G01X444244Y600930D02*
G03X445015Y602472I1425J251D01*
G01X444244Y600930D02*
G03X443961Y601072I-194J-34D01*
G01X444732Y602613D02*
G03X443961Y601072I-1425J-251D01*
G01X444732Y602613D02*
G03X445015Y602472I194J34D01*
G01X449675Y611220D02*
G03X449675I-1447J0D01*
G01X444360Y606102D02*
G03X444360I-1447J0D01*
G01X441408Y621772D02*
G03X441408I-1447J0D01*
G01X428571Y404705D02*
Y401555D01*
X423240D02*
G03X428571I2666J0D01*
G01X423240D02*
Y404705D01*
X428571D02*
G03X423240I-2665J-0D01*
G01X428571Y421634D02*
Y417303D01*
X423240D02*
G03X428571I2666J0D01*
G01X423240D02*
Y421634D01*
X428571D02*
G03X423240I-2665J-0D01*
G01X431602Y456496D02*
G03X431602I-3649J0D01*
G01X432549Y469094D02*
G03X432549I-1447J0D01*
G01X432145Y511686D02*
G03X432311Y513684I1123J912D01*
G01X432145Y511686D02*
G03X431862Y511710I-153J-124D01*
G01X430145Y511565D02*
G03X431862Y511710I761J1230D01*
G01X430145Y511565D02*
G03X429885Y511517I-104J-168D01*
G01X429501Y513632D02*
G03X429885Y511517I-761J-1230D01*
G01X429501Y513632D02*
G03X429760Y513679I103J168D01*
G01X432028Y513708D02*
G03X429760Y513679I-1122J-913D01*
G01X432028Y513708D02*
G03X432311Y513684I153J124D01*
G01X437077Y556102D02*
G03X437077I-1447J0D01*
G01X437667Y560039D02*
G03X437667I-1447J0D01*
G01X437077Y565748D02*
G03X437077I-1447J0D01*
G01X433533Y521457D02*
G03X433533I-1446J0D01*
G01X433927Y528740D02*
G03X433927I-1447J0D01*
G01X435502Y577165D02*
G03X435502I-1447J0D01*
G01X436051Y586403D02*
G03X434248Y586541I-815J1195D01*
G01X436051Y586403D02*
G03X436027Y586096I111J-163D01*
G01X435854Y583844D02*
G03X436027Y586096I-815J1195D01*
G01X435854Y583844D02*
G03X435831Y583537I111J-163D01*
G01X434028Y583676D02*
G03X435831Y583537I815J-1196D01*
G01X434028Y583676D02*
G03X434051Y583982I-111J163D01*
G01X434225Y586235D02*
G03X434051Y583982I814J-1196D01*
G01X434225Y586235D02*
G03X434248Y586541I-111J163D01*
G01X436880Y591339D02*
G03X436880I-1447J0D01*
G01Y595276D02*
G03X436880I-1447J0D01*
G01Y599094D02*
G03X436880I-1447J0D01*
G01Y602756D02*
G03X436880I-1447J0D01*
G01X435848Y608063D02*
G03X435019I-415J1386D01*
G01X435848D02*
G03Y607685I56J-189D01*
G01X435019D02*
G03X435848I414J-1386D01*
G01X435018D02*
G03Y608063I-56J189D01*
G01X421185Y446850D02*
G03X421185I-1697J0D01*
G01X422957Y489567D02*
G03X422957I-1697J0D01*
G01X425122Y557087D02*
G03X425122I-1697J0D01*
G01X422968Y562926D02*
G03X424637Y564224I1441J-131D01*
G01X422968Y562926D02*
G03X422803Y563138I-196J18D01*
G01X421645Y564152D02*
G03X422803Y563138I1386J415D01*
G01X421645Y564152D02*
G03X421268I-188J-56D01*
G01Y564981D02*
G03Y564152I-1386J-414D01*
G01Y564982D02*
G03X421645I189J56D01*
G01X424472Y564436D02*
G03X421645Y564981I-1441J131D01*
G01X424472Y564436D02*
G03X424637Y564224I196J-18D01*
G01X425659Y569488D02*
G03X425659I-1446J0D01*
G01Y573425D02*
G03X425659I-1446J0D01*
G01X422077Y615433D02*
G03X422077I-1447J0D01*
G01X416189Y566654D02*
G03X416189I-3709J0D01*
G01Y576654D02*
G03X416189I-3709J0D01*
G01Y586654D02*
G03X416189I-3709J0D01*
G01Y596654D02*
G03X416189I-3709J0D01*
G01Y606654D02*
G03X416189I-3709J0D01*
G01Y616654D02*
G03X416189I-3709J0D01*
G01X406189Y426654D02*
G03X406189I-3709J0D01*
G01Y436654D02*
G03X406189I-3709J0D01*
G01Y446654D02*
G03X406189I-3709J0D01*
G01Y456654D02*
G03X406189I-3709J0D01*
G01Y466654D02*
G03X406189I-3709J0D01*
G01Y476654D02*
G03X406189I-3709J0D01*
G01Y486654D02*
G03X406189I-3709J0D01*
G01Y496654D02*
G03X406189I-3709J0D01*
G01Y506654D02*
G03X406189I-3709J0D01*
G01Y516654D02*
G03X406189I-3709J0D01*
G01Y526654D02*
G03X406189I-3709J0D01*
G01Y536654D02*
G03X406189I-3709J0D01*
G01Y546654D02*
G03X406189I-3709J0D01*
G01Y556654D02*
G03X406189I-3709J0D01*
G01Y566654D02*
G03X406189I-3709J0D01*
G01Y576654D02*
G03X406189I-3709J0D01*
G01Y586654D02*
G03X406189I-3709J0D01*
G01Y596654D02*
G03X406189I-3709J0D01*
G01Y606654D02*
G03X406189I-3709J0D01*
G01Y616654D02*
G03X406189I-3709J0D01*
G01X416189Y426654D02*
G03X416189I-3709J0D01*
G01Y436654D02*
G03X416189I-3709J0D01*
G01Y446654D02*
G03X416189I-3709J0D01*
G01Y456654D02*
G03X416189I-3709J0D01*
G01Y466654D02*
G03X416189I-3709J0D01*
G01Y476654D02*
G03X416189I-3709J0D01*
G01Y486654D02*
G03X416189I-3709J0D01*
G01Y496654D02*
G03X416189I-3709J0D01*
G01Y506654D02*
G03X416189I-3709J0D01*
G01Y516654D02*
G03X416189I-3709J0D01*
G01Y526654D02*
G03X416189I-3709J0D01*
G01Y536654D02*
G03X416189I-3709J0D01*
G01Y546654D02*
G03X416189I-3709J0D01*
G01X420285Y553279D02*
G03X418124Y553476I-994J1052D01*
G01X420285Y553279D02*
G03X420262Y553020I136J-143D01*
G01X417662Y551965D02*
G03X420262Y553020I1432J200D01*
G01X417662Y551965D02*
G03X417284Y552012I-195J-27D01*
G01X414652Y553208D02*
G03X417284Y552012I1293J-649D01*
G01X414652Y553208D02*
G03X414375Y553465I-176J88D01*
G01X415311Y554257D02*
G03X414375Y553465I-2831J2397D01*
G01X415311Y554257D02*
G03X415519Y553942I150J-127D01*
G01X417378Y552759D02*
G03X415519Y553942I-1433J-200D01*
G01X417378Y552759D02*
G03X417755Y552712I195J28D01*
G01X418100Y553217D02*
G03X417755Y552712I994J-1052D01*
G01X418100Y553217D02*
G03X418124Y553476I-135J143D01*
G01X471185Y529921D02*
G03X471185I-1697J0D01*
G01X507449Y417500D02*
G03X507449I-1977J0D01*
G01X508027Y427517D02*
G03Y429885I831J1184D01*
G01Y427517D02*
G03X507800I-114J-161D01*
G01Y429885D02*
G03Y427517I-831J-1184D01*
G01Y429885D02*
G03X508027I113J161D01*
G01X511289Y471339D02*
G03X511289I-1446J0D01*
G01X512149Y624408D02*
X542126D01*
X511435Y624054D02*
X542126D01*
X510205Y623699D02*
X542126D01*
X394882Y623345D02*
X542126D01*
X440740Y622991D02*
X542126D01*
X441121Y622636D02*
X542126D01*
X441314Y622282D02*
X542126D01*
X441399Y621928D02*
X542126D01*
X441394Y621573D02*
X542126D01*
X441298Y621219D02*
X542126D01*
X441088Y620865D02*
X542126D01*
X440670Y620510D02*
X542126D01*
X413699Y620156D02*
X542126D01*
X414441Y619802D02*
X542126D01*
X414919Y619448D02*
X542126D01*
X415274Y619093D02*
X542126D01*
X516045Y618739D02*
X542126D01*
X516731Y618385D02*
X542126D01*
X517010Y618030D02*
X542126D01*
X517151Y617676D02*
X542126D01*
X517195Y617322D02*
X542126D01*
X517151Y616967D02*
X542126D01*
X517009Y616613D02*
X542126D01*
X516728Y616259D02*
X542126D01*
X516032Y615904D02*
X542126D01*
X422072Y615550D02*
X542126D01*
X422057Y615196D02*
X542126D01*
X421950Y614841D02*
X542126D01*
X421725Y614487D02*
X542126D01*
X421264Y614133D02*
X542126D01*
X414823Y613778D02*
X542126D01*
X414303Y613424D02*
X542126D01*
X413434Y613070D02*
X542126D01*
X394882Y612715D02*
X542126D01*
X492032Y612361D02*
X542126D01*
X501822Y612007D02*
X542126D01*
X502173Y611652D02*
X542126D01*
X502352Y611298D02*
X542126D01*
X502426Y610944D02*
X542126D01*
X502411Y610589D02*
X542126D01*
X502305Y610235D02*
X542126D01*
X502079Y609881D02*
X542126D01*
X501618Y609526D02*
X542126D01*
X436853Y609172D02*
X542126D01*
X514874Y608818D02*
X542126D01*
X515254Y608463D02*
X542126D01*
X515448Y608109D02*
X542126D01*
X515533Y607755D02*
X542126D01*
X515528Y607400D02*
X542126D01*
X515432Y607046D02*
X542126D01*
X515222Y606692D02*
X542126D01*
X514804Y606337D02*
X542126D01*
X491528Y605983D02*
X542126D01*
X492203Y605629D02*
X542126D01*
X492483Y605274D02*
X542126D01*
X492624Y604920D02*
X542126D01*
X492667Y604566D02*
X542126D01*
X492623Y604211D02*
X542126D01*
X492481Y603857D02*
X542126D01*
X492201Y603503D02*
X542126D01*
X491505Y603148D02*
X542126D01*
X444688Y602794D02*
X542126D01*
X446383Y602440D02*
X542126D01*
X482923Y602085D02*
X542126D01*
X483380Y601731D02*
X542126D01*
X483605Y601377D02*
X542126D01*
X483711Y601022D02*
X542126D01*
X483725Y600668D02*
X542126D01*
X483651Y600314D02*
X542126D01*
X491400Y599959D02*
X542126D01*
X492085Y599605D02*
X542126D01*
X492365Y599251D02*
X542126D01*
X492506Y598896D02*
X542126D01*
X492549Y598542D02*
X542126D01*
X492505Y598188D02*
X542126D01*
X492363Y597833D02*
X542126D01*
X492083Y597479D02*
X542126D01*
X491404Y597125D02*
X542126D01*
X491389Y596770D02*
X542126D01*
X492046Y596416D02*
X542126D01*
X492325Y596062D02*
X542126D01*
X492466Y595707D02*
X542126D01*
X525246Y595353D02*
X542126D01*
X525703Y594999D02*
X542126D01*
X525928Y594644D02*
X542126D01*
X526034Y594290D02*
X542126D01*
X526048Y593936D02*
X542126D01*
X525973Y593581D02*
X542126D01*
X525793Y593227D02*
X542126D01*
X525440Y592873D02*
X542126D01*
X525142Y592518D02*
X542126D01*
X525589Y592164D02*
X542126D01*
X525868Y591810D02*
X542126D01*
X526009Y591455D02*
X542126D01*
X526053Y591101D02*
X542126D01*
X526009Y590747D02*
X542126D01*
X525867Y590392D02*
X542126D01*
X525586Y590038D02*
X542126D01*
X524891Y589684D02*
X542126D01*
X481725Y589329D02*
X542126D01*
X481399Y588975D02*
X542126D01*
X445147Y588621D02*
X542126D01*
X445113Y588266D02*
X542126D01*
X491742Y587912D02*
X542126D01*
X492199Y587558D02*
X542126D01*
X492424Y587203D02*
X542126D01*
X492530Y586849D02*
X542126D01*
X492544Y586495D02*
X542126D01*
X492469Y586140D02*
X542126D01*
X492289Y585786D02*
X542126D01*
X491936Y585432D02*
X542126D01*
X530719Y585077D02*
X542126D01*
X531070Y584723D02*
X542126D01*
X531250Y584369D02*
X542126D01*
X531324Y584014D02*
X542126D01*
X531309Y583660D02*
X542126D01*
X531202Y583306D02*
X542126D01*
X530976Y582951D02*
X542126D01*
X530516Y582597D02*
X542126D01*
X492494Y582243D02*
X542126D01*
X492340Y581888D02*
X542126D01*
X492038Y581534D02*
X542126D01*
X466317Y581180D02*
X542126D01*
X466511Y580825D02*
X542126D01*
X466596Y580471D02*
X542126D01*
X466591Y580117D02*
X542126D01*
X466495Y579762D02*
X542126D01*
X491821Y579408D02*
X542126D01*
X492278Y579054D02*
X542126D01*
X492503Y578699D02*
X542126D01*
X492609Y578345D02*
X542126D01*
X492623Y577991D02*
X542126D01*
X492548Y577636D02*
X542126D01*
X492368Y577282D02*
X542126D01*
X512974Y576928D02*
X542126D01*
X513660Y576573D02*
X542126D01*
X513939Y576219D02*
X542126D01*
X514080Y575865D02*
X542126D01*
X514124Y575510D02*
X542126D01*
X514080Y575156D02*
X542126D01*
X513938Y574802D02*
X542126D01*
X513657Y574448D02*
X542126D01*
X512962Y574093D02*
X542126D01*
X511291Y573739D02*
X542126D01*
X510831Y573385D02*
X542126D01*
X502402Y573030D02*
X542126D01*
X425450Y572676D02*
X542126D01*
X425148Y572322D02*
X542126D01*
X394882Y571967D02*
X542126D01*
X394882Y571613D02*
X542126D01*
X394882Y571259D02*
X542126D01*
X530191Y570904D02*
X542126D01*
X531132Y570550D02*
X542126D01*
X531638Y570196D02*
X542126D01*
X531995Y569841D02*
X542126D01*
X532260Y569487D02*
X542126D01*
X532459Y569133D02*
X542126D01*
X532606Y568778D02*
X542126D01*
X532706Y568424D02*
X542126D01*
X532764Y568070D02*
X542126D01*
X532783Y567715D02*
X542126D01*
X532764Y567361D02*
X542126D01*
X532705Y567007D02*
X542126D01*
X532605Y566652D02*
X542126D01*
X532458Y566298D02*
X542126D01*
X532258Y565944D02*
X542126D01*
X531992Y565589D02*
X542126D01*
X531635Y565235D02*
X542126D01*
X537897Y564881D02*
X542126D01*
X538608Y564526D02*
X542126D01*
X539053Y564172D02*
X542126D01*
X539375Y563818D02*
X542126D01*
X539617Y563463D02*
X542126D01*
X539797Y563109D02*
X542126D01*
X539927Y562755D02*
X542126D01*
X540013Y562400D02*
X542126D01*
X540058Y562046D02*
X542126D01*
X540065Y561692D02*
X542126D01*
X540032Y561337D02*
X542126D01*
X539960Y560983D02*
X542126D01*
X539845Y560629D02*
X542126D01*
X539681Y560274D02*
X542126D01*
X539461Y559920D02*
X542126D01*
X539169Y559566D02*
X542126D01*
X538771Y559211D02*
X542126D01*
X538180Y558857D02*
X542126D01*
X531491Y558503D02*
X542126D01*
X531888Y558148D02*
X542126D01*
X532180Y557794D02*
X542126D01*
X532399Y557440D02*
X542126D01*
X532562Y557085D02*
X542126D01*
X532677Y556731D02*
X542126D01*
X532749Y556377D02*
X542126D01*
X532781Y556022D02*
X542126D01*
X532775Y555668D02*
X542126D01*
X532729Y555314D02*
X542126D01*
X532643Y554959D02*
X542126D01*
X532512Y554605D02*
X542126D01*
X532332Y554251D02*
X542126D01*
X532090Y553896D02*
X542126D01*
X531767Y553542D02*
X542126D01*
X531320Y553188D02*
X542126D01*
X530606Y552833D02*
X542126D01*
X519222Y552479D02*
X542126D01*
X519680Y552125D02*
X542126D01*
X519904Y551770D02*
X542126D01*
X520010Y551416D02*
X542126D01*
X520025Y551062D02*
X542126D01*
X519950Y550707D02*
X542126D01*
X519769Y550353D02*
X542126D01*
X519417Y549999D02*
X542126D01*
X516500Y549644D02*
X542126D01*
X529960Y549290D02*
X542126D01*
X531060Y548936D02*
X542126D01*
X531591Y548581D02*
X542126D01*
X531960Y548227D02*
X542126D01*
X532234Y547873D02*
X542126D01*
X532440Y547518D02*
X542126D01*
X532592Y547164D02*
X542126D01*
X532697Y546810D02*
X542126D01*
X532760Y546455D02*
X542126D01*
X532783Y546101D02*
X542126D01*
X532768Y545747D02*
X542126D01*
X532714Y545392D02*
X542126D01*
X532618Y545038D02*
X542126D01*
X532477Y544684D02*
X542126D01*
X532284Y544329D02*
X542126D01*
X532026Y543975D02*
X542126D01*
X531681Y543621D02*
X542126D01*
X537778Y543266D02*
X542126D01*
X538547Y542912D02*
X542126D01*
X539011Y542558D02*
X542126D01*
X539344Y542203D02*
X542126D01*
X539593Y541849D02*
X542126D01*
X539780Y541495D02*
X542126D01*
X539915Y541140D02*
X542126D01*
X540006Y540786D02*
X542126D01*
X540055Y540432D02*
X542126D01*
X540066Y540077D02*
X542126D01*
X540038Y539723D02*
X542126D01*
X539970Y539369D02*
X542126D01*
X539860Y539014D02*
X542126D01*
X539702Y538660D02*
X542126D01*
X539489Y538306D02*
X542126D01*
X539206Y537951D02*
X542126D01*
X538822Y537597D02*
X542126D01*
X538262Y537243D02*
X542126D01*
X531438Y536888D02*
X542126D01*
X531850Y536534D02*
X542126D01*
X532151Y536180D02*
X542126D01*
X532378Y535825D02*
X542126D01*
X532547Y535471D02*
X542126D01*
X532667Y535117D02*
X542126D01*
X532743Y534762D02*
X542126D01*
X532780Y534408D02*
X542126D01*
X532777Y534054D02*
X542126D01*
X532736Y533699D02*
X542126D01*
X532655Y533345D02*
X542126D01*
X532529Y532991D02*
X542126D01*
X532354Y532636D02*
X542126D01*
X532120Y532282D02*
X542126D01*
X531808Y531928D02*
X542126D01*
X531379Y531573D02*
X542126D01*
X530712Y531219D02*
X542126D01*
X470899Y530865D02*
X542126D01*
X471079Y530510D02*
X542126D01*
X488093Y530156D02*
X542126D01*
X488778Y529802D02*
X542126D01*
X489057Y529448D02*
X542126D01*
X489198Y529093D02*
X542126D01*
X489242Y528739D02*
X542126D01*
X489198Y528385D02*
X542126D01*
X522237Y528030D02*
X542126D01*
X522943Y527676D02*
X542126D01*
X523261Y527322D02*
X542126D01*
X523442Y526967D02*
X542126D01*
X523531Y526613D02*
X542126D01*
X523543Y526259D02*
X542126D01*
X523480Y525904D02*
X542126D01*
X523331Y525550D02*
X542126D01*
X523067Y525196D02*
X542126D01*
X522570Y524841D02*
X542126D01*
X479703Y524487D02*
X542126D01*
X479897Y524133D02*
X542126D01*
X479982Y523778D02*
X542126D01*
X479977Y523424D02*
X542126D01*
X479881Y523070D02*
X542126D01*
X479671Y522715D02*
X542126D01*
X479252Y522361D02*
X542126D01*
X439002Y522007D02*
X542126D01*
X439051Y521652D02*
X542126D01*
X439756Y521298D02*
X542126D01*
X458785Y520944D02*
X542126D01*
X459200Y520589D02*
X542126D01*
X471419Y520235D02*
X542126D01*
X471928Y519881D02*
X542126D01*
X472169Y519526D02*
X542126D01*
X472287Y519172D02*
X542126D01*
X472311Y518818D02*
X542126D01*
X472246Y518463D02*
X542126D01*
X472079Y518109D02*
X542126D01*
X471753Y517755D02*
X542126D01*
X458498Y517400D02*
X542126D01*
X482726Y517046D02*
X542126D01*
X483183Y516692D02*
X542126D01*
X529185Y516337D02*
X542126D01*
X529764Y515983D02*
X542126D01*
X530024Y515629D02*
X542126D01*
X530153Y515274D02*
X542126D01*
X530186Y514920D02*
X542126D01*
X530132Y514566D02*
X542126D01*
X529978Y514211D02*
X542126D01*
X529676Y513857D02*
X542126D01*
X505002Y513503D02*
X542126D01*
X505143Y513148D02*
X542126D01*
X528633Y512794D02*
X542126D01*
X529219Y512440D02*
X542126D01*
X529586Y512085D02*
X542126D01*
X529841Y511731D02*
X542126D01*
X530021Y511377D02*
X542126D01*
X530139Y511022D02*
X542126D01*
X530206Y510668D02*
X542126D01*
X530224Y510314D02*
X542126D01*
X530195Y509959D02*
X542126D01*
X530117Y509605D02*
X542126D01*
X529985Y509251D02*
X542126D01*
X529790Y508896D02*
X542126D01*
X529513Y508542D02*
X542126D01*
X529111Y508188D02*
X542126D01*
X528424Y507833D02*
X542126D01*
X503755Y507479D02*
X542126D01*
X503809Y507125D02*
X542126D01*
X503843Y506770D02*
X542126D01*
X504482Y506416D02*
X542126D01*
X504783Y506062D02*
X542126D01*
X504936Y505707D02*
X542126D01*
X504990Y505353D02*
X542126D01*
X504955Y504999D02*
X542126D01*
X504825Y504644D02*
X542126D01*
X504565Y504290D02*
X542126D01*
X503980Y503936D02*
X542126D01*
X475454Y503581D02*
X542126D01*
X475369Y503227D02*
X542126D01*
X475174Y502873D02*
X542126D01*
X474791Y502518D02*
X542126D01*
X394882Y502164D02*
X542126D01*
X394882Y501810D02*
X542126D01*
X394882Y501455D02*
X542126D01*
X510482Y501101D02*
X542126D01*
X510939Y500747D02*
X542126D01*
X511164Y500392D02*
X542126D01*
X511270Y500038D02*
X542126D01*
X511284Y499684D02*
X542126D01*
X511210Y499329D02*
X542126D01*
X511029Y498975D02*
X542126D01*
X510676Y498621D02*
X542126D01*
X509687Y498266D02*
X542126D01*
X513262Y497912D02*
X542126D01*
X513562Y497558D02*
X542126D01*
X513715Y497203D02*
X542126D01*
X513769Y496849D02*
X542126D01*
X513735Y496495D02*
X542126D01*
X513605Y496140D02*
X542126D01*
X513344Y495786D02*
X542126D01*
X512907Y495432D02*
X542126D01*
X513938Y495077D02*
X542126D01*
X514448Y494723D02*
X542126D01*
X514689Y494369D02*
X542126D01*
X514806Y494014D02*
X542126D01*
X514830Y493660D02*
X542126D01*
X514766Y493306D02*
X542126D01*
X514599Y492951D02*
X542126D01*
X514273Y492597D02*
X542126D01*
X510300Y492243D02*
X542126D01*
X510286Y491888D02*
X542126D01*
X510179Y491534D02*
X542126D01*
X509953Y491180D02*
X542126D01*
X509492Y490825D02*
X542126D01*
X474561Y490471D02*
X542126D01*
X513741Y490117D02*
X542126D01*
X514251Y489762D02*
X542126D01*
X514492Y489408D02*
X542126D01*
X514610Y489054D02*
X542126D01*
X514634Y488699D02*
X542126D01*
X514569Y488345D02*
X542126D01*
X514402Y487991D02*
X542126D01*
X514076Y487636D02*
X542126D01*
X416135Y487282D02*
X542126D01*
X416179Y486928D02*
X542126D01*
X416188Y486573D02*
X542126D01*
X507924Y486219D02*
X542126D01*
X508275Y485865D02*
X542126D01*
X508455Y485510D02*
X542126D01*
X508529Y485156D02*
X542126D01*
X508514Y484802D02*
X542126D01*
X508407Y484448D02*
X542126D01*
X508181Y484093D02*
X542126D01*
X507721Y483739D02*
X542126D01*
X506485Y483385D02*
X542126D01*
X506305Y483030D02*
X542126D01*
X505952Y482676D02*
X542126D01*
X494548Y482322D02*
X542126D01*
X494463Y481967D02*
X542126D01*
X494268Y481613D02*
X542126D01*
X528869Y481259D02*
X542126D01*
X529357Y480904D02*
X542126D01*
X529681Y480550D02*
X542126D01*
X529909Y480196D02*
X542126D01*
X530066Y479841D02*
X542126D01*
X530167Y479487D02*
X542126D01*
X530217Y479133D02*
X542126D01*
X530220Y478778D02*
X542126D01*
X530175Y478424D02*
X542126D01*
X530079Y478070D02*
X542126D01*
X529928Y477715D02*
X542126D01*
X529708Y477361D02*
X542126D01*
X529397Y477007D02*
X542126D01*
X528932Y476652D02*
X542126D01*
X527932Y476298D02*
X542126D01*
X514592Y475944D02*
X542126D01*
X514636Y475589D02*
X542126D01*
X514591Y475235D02*
X542126D01*
X514450Y474881D02*
X542126D01*
X514169Y474526D02*
X542126D01*
X513473Y474172D02*
X542126D01*
X504167Y473818D02*
X542126D01*
X504334Y473463D02*
X542126D01*
X504398Y473109D02*
X542126D01*
X510140Y472755D02*
X542126D01*
X510826Y472400D02*
X542126D01*
X511105Y472046D02*
X542126D01*
X514145Y471692D02*
X542126D01*
X514495Y471337D02*
X542126D01*
X514675Y470983D02*
X542126D01*
X514749Y470629D02*
X542126D01*
X514734Y470274D02*
X542126D01*
X514627Y469920D02*
X542126D01*
X514402Y469566D02*
X542126D01*
X513941Y469211D02*
X542126D01*
X498757Y468857D02*
X542126D01*
X499251Y468503D02*
X542126D01*
X499514Y468148D02*
X542126D01*
X499662Y467794D02*
X542126D01*
X499724Y467440D02*
X542126D01*
X499712Y467085D02*
X542126D01*
X499622Y466731D02*
X542126D01*
X499440Y466377D02*
X542126D01*
X499121Y466022D02*
X542126D01*
X498407Y465668D02*
X542126D01*
X415938Y465314D02*
X542126D01*
X415779Y464959D02*
X542126D01*
X415572Y464605D02*
X542126D01*
X537328Y464251D02*
X542126D01*
X537873Y463896D02*
X542126D01*
X538153Y463542D02*
X542126D01*
X538311Y463188D02*
X542126D01*
X538383Y462833D02*
X542126D01*
X538378Y462479D02*
X542126D01*
X538297Y462125D02*
X542126D01*
X538127Y461770D02*
X542126D01*
X537828Y461416D02*
X542126D01*
X537212Y461062D02*
X542126D01*
X496985Y460707D02*
X542126D01*
X497479Y460353D02*
X542126D01*
X497742Y459999D02*
X542126D01*
X497890Y459644D02*
X542126D01*
X506882Y459290D02*
X542126D01*
X507262Y458936D02*
X542126D01*
X507456Y458581D02*
X542126D01*
X507541Y458227D02*
X542126D01*
X507536Y457873D02*
X542126D01*
X525330Y457518D02*
X542126D01*
X525941Y457164D02*
X542126D01*
X526239Y456810D02*
X542126D01*
X526408Y456455D02*
X542126D01*
X526489Y456101D02*
X542126D01*
X526493Y455747D02*
X542126D01*
X526421Y455392D02*
X542126D01*
X526262Y455038D02*
X542126D01*
X525981Y454684D02*
X542126D01*
X525432Y454329D02*
X542126D01*
X500149Y453975D02*
X542126D01*
X499830Y453621D02*
X542126D01*
X499115Y453266D02*
X542126D01*
X466532Y452912D02*
X542126D01*
X465983Y452558D02*
X542126D01*
X394882Y452203D02*
X542126D01*
X394882Y451849D02*
X542126D01*
X394882Y451495D02*
X542126D01*
X394882Y451140D02*
X542126D01*
X394882Y450786D02*
X542126D01*
X394882Y450432D02*
X542126D01*
X413906Y450077D02*
X542126D01*
X414562Y449723D02*
X542126D01*
X415007Y449369D02*
X542126D01*
X415340Y449014D02*
X542126D01*
X415599Y448660D02*
X542126D01*
X420361Y448306D02*
X542126D01*
X420779Y447951D02*
X542126D01*
X421012Y447597D02*
X542126D01*
X421139Y447243D02*
X542126D01*
X421185Y446888D02*
X542126D01*
X453750Y446534D02*
X542126D01*
X454207Y446180D02*
X542126D01*
X454432Y445825D02*
X542126D01*
X454538Y445471D02*
X542126D01*
X454552Y445117D02*
X542126D01*
X454477Y444762D02*
X542126D01*
X454297Y444408D02*
X542126D01*
X453944Y444054D02*
X542126D01*
X469347Y443699D02*
X542126D01*
X469842Y443345D02*
X542126D01*
X470105Y442991D02*
X542126D01*
X470252Y442636D02*
X542126D01*
X470315Y442282D02*
X542126D01*
X470302Y441928D02*
X542126D01*
X470212Y441573D02*
X542126D01*
X470031Y441219D02*
X542126D01*
X469712Y440865D02*
X542126D01*
X524906Y440510D02*
X542126D01*
X525230Y440156D02*
X542126D01*
X525397Y439802D02*
X542126D01*
X525461Y439448D02*
X542126D01*
X525436Y439093D02*
X542126D01*
X525318Y438739D02*
X542126D01*
X525075Y438385D02*
X542126D01*
X524562Y438030D02*
X542126D01*
X451401Y437676D02*
X542126D01*
X506286Y437322D02*
X542126D01*
X506615Y436967D02*
X542126D01*
X506784Y436613D02*
X542126D01*
X506850Y436259D02*
X542126D01*
X506827Y435904D02*
X542126D01*
X506711Y435550D02*
X542126D01*
X506472Y435196D02*
X542126D01*
X505970Y434841D02*
X542126D01*
X415490Y434487D02*
X542126D01*
X415200Y434133D02*
X542126D01*
X499032Y433778D02*
X542126D01*
X499485Y433424D02*
X542126D01*
X499732Y433070D02*
X542126D01*
X499869Y432715D02*
X542126D01*
X499923Y432361D02*
X542126D01*
X499902Y432007D02*
X542126D01*
X499803Y431652D02*
X542126D01*
X499610Y431298D02*
X542126D01*
X499270Y430944D02*
X542126D01*
X498323Y430589D02*
X542126D01*
X413444Y430235D02*
X542126D01*
X509696Y429881D02*
X542126D01*
X510047Y429526D02*
X542126D01*
X510226Y429172D02*
X542126D01*
X510300Y428818D02*
X542126D01*
X510286Y428463D02*
X542126D01*
X510179Y428109D02*
X542126D01*
X509953Y427755D02*
X542126D01*
X509492Y427400D02*
X542126D01*
X416168Y427046D02*
X542126D01*
X491576Y426692D02*
X542126D01*
X497919Y426337D02*
X542126D01*
X498334Y425983D02*
X542126D01*
X498543Y425629D02*
X542126D01*
X498638Y425274D02*
X542126D01*
X498643Y424920D02*
X542126D01*
X498558Y424566D02*
X542126D01*
X511781Y424211D02*
X542126D01*
X512573Y423857D02*
X542126D01*
X513003Y423503D02*
X542126D01*
X513296Y423148D02*
X542126D01*
X513502Y422794D02*
X542126D01*
X513643Y422440D02*
X542126D01*
X513729Y422085D02*
X542126D01*
X513766Y421731D02*
X542126D01*
X513768Y421377D02*
X542126D01*
X513768Y421022D02*
X542126D01*
X513768Y420668D02*
X542126D01*
X513768Y420314D02*
X542126D01*
X531315Y419959D02*
X542126D01*
X532979Y419605D02*
X542126D01*
X534042Y419251D02*
X542126D01*
X534875Y418896D02*
X542126D01*
X535574Y418542D02*
X542126D01*
X536181Y418188D02*
X542126D01*
X536720Y417833D02*
X542126D01*
X537205Y417479D02*
X542126D01*
X537646Y417125D02*
X542126D01*
X538049Y416770D02*
X542126D01*
X538420Y416416D02*
X542126D01*
X538762Y416062D02*
X542126D01*
X539079Y415707D02*
X542126D01*
X539373Y415353D02*
X542126D01*
X539647Y414999D02*
X542126D01*
X539900Y414644D02*
X542126D01*
X540136Y414290D02*
X542126D01*
X540356Y413936D02*
X542126D01*
X540559Y413581D02*
X542126D01*
X540748Y413227D02*
X542126D01*
X540922Y412873D02*
X542126D01*
X541083Y412518D02*
X542126D01*
X541231Y412164D02*
X542126D01*
X541367Y411810D02*
X542126D01*
X541491Y411455D02*
X542126D01*
X541603Y411101D02*
X542126D01*
X541703Y410747D02*
X542126D01*
X470545Y461062D02*
X536174D01*
X415305Y464251D02*
X536058D01*
X531195Y543266D02*
X535844D01*
X531127Y564881D02*
X535725D01*
X470794Y461416D02*
X535558D01*
X469425Y463896D02*
X535513D01*
X530902Y558857D02*
X535442D01*
X530814Y537243D02*
X535360D01*
X470932Y461770D02*
X535259D01*
X470336Y463542D02*
X535233D01*
X470986Y462125D02*
X535089D01*
X530348Y542912D02*
X535075D01*
X470675Y463188D02*
X535075D01*
X530178Y564526D02*
X535014D01*
X470966Y462479D02*
X535008D01*
X470867Y462833D02*
X535003D01*
X515899Y559211D02*
X534851D01*
X493975Y537597D02*
X534800D01*
X394882Y542558D02*
X534611D01*
X472974Y564172D02*
X534569D01*
X452230Y559566D02*
X534453D01*
X493466Y537951D02*
X534416D01*
X394882Y542203D02*
X534278D01*
X472748Y563818D02*
X534247D01*
X452155Y559920D02*
X534161D01*
X415801Y538306D02*
X534133D01*
X394882Y541849D02*
X534029D01*
X472288Y563463D02*
X534005D01*
X451976Y560274D02*
X533941D01*
X415599Y538660D02*
X533920D01*
X394882Y541495D02*
X533842D01*
X472193Y563109D02*
X533825D01*
X451625Y560629D02*
X533777D01*
X415340Y539014D02*
X533762D01*
X394882Y541140D02*
X533707D01*
X472401Y562755D02*
X533695D01*
X471838Y560983D02*
X533662D01*
X415007Y539369D02*
X533652D01*
X394882Y540786D02*
X533616D01*
X472497Y562400D02*
X533609D01*
X472221Y561337D02*
X533590D01*
X414562Y539723D02*
X533584D01*
X394882Y540432D02*
X533567D01*
X472501Y562046D02*
X533564D01*
X472416Y561692D02*
X533557D01*
X413906Y540077D02*
X533556D01*
X492549Y582597D02*
X529248D01*
X481644Y549290D02*
X529095D01*
X479694Y585077D02*
X529044D01*
X473081Y564526D02*
X528877D01*
X502354Y570904D02*
X528864D01*
X492515Y582951D02*
X528787D01*
X394882Y542912D02*
X528707D01*
X436451Y584723D02*
X528694D01*
X492386Y583306D02*
X528562D01*
X436321Y584369D02*
X528514D01*
X492126Y583660D02*
X528455D01*
X491482Y552833D02*
X528449D01*
X491548Y584014D02*
X528440D01*
X470581Y531219D02*
X528343D01*
X483408Y516337D02*
X528295D01*
X494217Y537243D02*
X528241D01*
X516200Y558857D02*
X528153D01*
X468697Y548936D02*
X527995D01*
X473096Y564881D02*
X527928D01*
X502735Y570550D02*
X527923D01*
X413991Y543266D02*
X527860D01*
X504723Y513857D02*
X527805D01*
X513768Y419959D02*
X527740D01*
X491692Y553188D02*
X527735D01*
X503535Y515983D02*
X527716D01*
X469875Y531573D02*
X527676D01*
X494334Y536888D02*
X527617D01*
X516353Y558503D02*
X527564D01*
X504180Y514211D02*
X527502D01*
X468001Y548581D02*
X527464D01*
X503916Y515629D02*
X527457D01*
X473022Y565235D02*
X527420D01*
X520960Y570196D02*
X527417D01*
X414615Y543621D02*
X527374D01*
X504189Y514566D02*
X527348D01*
X504110Y515274D02*
X527328D01*
X504194Y514920D02*
X527294D01*
X491788Y553542D02*
X527288D01*
X454093Y531928D02*
X527247D01*
X494358Y536534D02*
X527205D01*
X514451Y476298D02*
X527186D01*
X516407Y558148D02*
X527167D01*
X415839Y548227D02*
X527095D01*
X472842Y565589D02*
X527063D01*
X521871Y569841D02*
X527060D01*
X415045Y543975D02*
X527029D01*
X491793Y553896D02*
X526965D01*
X494535Y532282D02*
X526935D01*
X494294Y536180D02*
X526904D01*
X516373Y557794D02*
X526875D01*
X444195Y547873D02*
X526821D01*
X472491Y565944D02*
X526797D01*
X522210Y569487D02*
X526795D01*
X415370Y544329D02*
X526772D01*
X491708Y554251D02*
X526724D01*
X494887Y532636D02*
X526701D01*
X503601Y507833D02*
X526694D01*
X494126Y535825D02*
X526677D01*
X516243Y557440D02*
X526656D01*
X444881Y547518D02*
X526615D01*
X436968Y566298D02*
X526597D01*
X522403Y569133D02*
X526596D01*
X415623Y544684D02*
X526578D01*
X491514Y554605D02*
X526543D01*
X410481Y395156D02*
X526527D01*
X495068Y532991D02*
X526526D01*
X493800Y535471D02*
X526509D01*
X515982Y557085D02*
X526493D01*
X505187Y512794D02*
X526486D01*
X445160Y547164D02*
X526463D01*
X436759Y566652D02*
X526450D01*
X522501Y568778D02*
X526450D01*
X444182Y545038D02*
X526437D01*
X491133Y554959D02*
X526412D01*
X495143Y533345D02*
X526400D01*
X493362Y535117D02*
X526389D01*
X515398Y556731D02*
X526378D01*
X445301Y546810D02*
X526358D01*
X521625Y567007D02*
X526350D01*
X522522Y568424D02*
X526349D01*
X444878Y545392D02*
X526341D01*
X436843Y555314D02*
X526326D01*
X495128Y533699D02*
X526319D01*
X494340Y534762D02*
X526312D01*
X437051Y556377D02*
X526306D01*
X445345Y546455D02*
X526295D01*
X522081Y567361D02*
X526291D01*
X522467Y568070D02*
X526291D01*
X445158Y545747D02*
X526287D01*
X437010Y555668D02*
X526280D01*
X495022Y534054D02*
X526278D01*
X494798Y534408D02*
X526275D01*
X437075Y556022D02*
X526274D01*
X445300Y546101D02*
X526272D01*
X522329Y567715D02*
X526272D01*
X493885Y481259D02*
X526250D01*
X514172Y476652D02*
X526186D01*
X513768Y419605D02*
X526076D01*
X503301Y508188D02*
X526007D01*
X505143Y512440D02*
X525899D01*
X508712Y480904D02*
X525761D01*
X513486Y477007D02*
X525721D01*
X415672Y508542D02*
X525605D01*
X411435Y395510D02*
X525572D01*
X505001Y512085D02*
X525532D01*
X509062Y480550D02*
X525437D01*
X416121Y477361D02*
X525410D01*
X415434Y508896D02*
X525328D01*
X504720Y511731D02*
X525277D01*
X509242Y480196D02*
X525210D01*
X416034Y477715D02*
X525190D01*
X415128Y509251D02*
X525133D01*
X504025Y511377D02*
X525098D01*
X509316Y479841D02*
X525052D01*
X415908Y478070D02*
X525039D01*
X513768Y419251D02*
X525013D01*
X414726Y509605D02*
X525001D01*
X429177Y511022D02*
X524979D01*
X509301Y479487D02*
X524951D01*
X508508Y478424D02*
X524944D01*
X414161Y509959D02*
X524923D01*
X394882Y510668D02*
X524912D01*
X509194Y479133D02*
X524901D01*
X508969Y478778D02*
X524898D01*
X413079Y510314D02*
X524894D01*
X412379Y395865D02*
X524629D01*
X481892Y589684D02*
X524322D01*
X507440Y457518D02*
X524276D01*
X513768Y418896D02*
X524180D01*
X500330Y454329D02*
X524174D01*
X491816Y592518D02*
X524071D01*
X492510Y595353D02*
X523967D01*
X413147Y396219D02*
X523861D01*
X483470Y592873D02*
X523772D01*
X507230Y457164D02*
X523665D01*
X491877Y590038D02*
X523626D01*
X500420Y454684D02*
X523626D01*
X492232Y592164D02*
X523623D01*
X492465Y594999D02*
X523509D01*
X513768Y418542D02*
X523481D01*
X451510Y438030D02*
X523470D01*
X483651Y593227D02*
X523420D01*
X506812Y456810D02*
X523367D01*
X492260Y590392D02*
X523346D01*
X500433Y455038D02*
X523345D01*
X492441Y591810D02*
X523344D01*
X492324Y594644D02*
X523285D01*
X483725Y593581D02*
X523239D01*
X413802Y396573D02*
X523206D01*
X492455Y590747D02*
X523204D01*
X492536Y591455D02*
X523203D01*
X499465Y456455D02*
X523198D01*
X500370Y455392D02*
X523186D01*
X492043Y594290D02*
X523179D01*
X491347Y593936D02*
X523164D01*
X492540Y591101D02*
X523159D01*
X468997Y440510D02*
X523125D01*
X499960Y456101D02*
X523118D01*
X500223Y455747D02*
X523114D01*
X451539Y438385D02*
X522956D01*
X513768Y418188D02*
X522874D01*
X434395Y440156D02*
X522801D01*
X451493Y438739D02*
X522714D01*
X450715Y439802D02*
X522635D01*
X414377Y396928D02*
X522631D01*
X451366Y439093D02*
X522596D01*
X451134Y439448D02*
X522571D01*
X513768Y417833D02*
X522335D01*
X414891Y397282D02*
X522117D01*
X513768Y417479D02*
X521850D01*
X415355Y397636D02*
X521652D01*
X489056Y528030D02*
X521464D01*
X513762Y417125D02*
X521409D01*
X415779Y397991D02*
X521229D01*
X479322Y524841D02*
X521131D01*
X513714Y416770D02*
X521006D01*
X416168Y398345D02*
X520840D01*
X488775Y527676D02*
X520757D01*
X502929Y570196D02*
X520693D01*
X513616Y416416D02*
X520635D01*
X415890Y525196D02*
X520633D01*
X416526Y398699D02*
X520482D01*
X488080Y527322D02*
X520440D01*
X416021Y525550D02*
X520369D01*
X513461Y416062D02*
X520293D01*
X416176Y526967D02*
X520259D01*
X416113Y525904D02*
X520221D01*
X416189Y526613D02*
X520170D01*
X416168Y526259D02*
X520158D01*
X512023Y399054D02*
X520151D01*
X436344Y567007D02*
X520028D01*
X513237Y415707D02*
X519976D01*
X512682Y399408D02*
X519845D01*
X503013Y569841D02*
X519782D01*
X512919Y415353D02*
X519682D01*
X416121Y567361D02*
X519573D01*
X513075Y399762D02*
X519560D01*
X503008Y569487D02*
X519444D01*
X512442Y414999D02*
X519409D01*
X416034Y567715D02*
X519324D01*
X513346Y400117D02*
X519295D01*
X502912Y569133D02*
X519251D01*
X442507Y568070D02*
X519186D01*
X511290Y414644D02*
X519155D01*
X502702Y568778D02*
X519152D01*
X502284Y568424D02*
X519132D01*
X513537Y400471D02*
X519049D01*
X418089Y414290D02*
X518919D01*
X513666Y400825D02*
X518821D01*
X418308Y413936D02*
X518699D01*
X513741Y401180D02*
X518609D01*
X418512Y413581D02*
X518496D01*
X513768Y401534D02*
X518412D01*
X418701Y413227D02*
X518307D01*
X513768Y401888D02*
X518229D01*
X418875Y412873D02*
X518133D01*
X513768Y402243D02*
X518061D01*
X419036Y412518D02*
X517972D01*
X491064Y552479D02*
X517943D01*
X513768Y402597D02*
X517905D01*
X419184Y412164D02*
X517824D01*
X513768Y402951D02*
X517763D01*
X516961Y549999D02*
X517749D01*
X419320Y411810D02*
X517688D01*
X513768Y403306D02*
X517632D01*
X419444Y411455D02*
X517564D01*
X513768Y403660D02*
X517514D01*
X516704Y552125D02*
X517486D01*
X419555Y411101D02*
X517452D01*
X513768Y404014D02*
X517407D01*
X419656Y410747D02*
X517352D01*
X513768Y404369D02*
X517311D01*
X419746Y410392D02*
X517262D01*
X513768Y404723D02*
X517226D01*
X419824Y410038D02*
X517183D01*
X513742Y405077D02*
X517152D01*
X419893Y409684D02*
X517115D01*
X513667Y405432D02*
X517089D01*
X419950Y409329D02*
X517058D01*
X513539Y405786D02*
X517036D01*
X419998Y408975D02*
X517010D01*
X513348Y406140D02*
X516993D01*
X420035Y408621D02*
X516973D01*
X513077Y406495D02*
X516960D01*
X420062Y408266D02*
X516946D01*
X512685Y406849D02*
X516937D01*
X420079Y407912D02*
X516929D01*
X512030Y407203D02*
X516924D01*
X420086Y407558D02*
X516921D01*
X491360Y615904D02*
X515464D01*
X415547Y618739D02*
X515451D01*
X481946Y549644D02*
X515232D01*
X474119Y552125D02*
X515029D01*
X482101Y549999D02*
X514772D01*
X491685Y616259D02*
X514768D01*
X491025Y618385D02*
X514765D01*
X481154Y551770D02*
X514678D01*
X482155Y550353D02*
X514546D01*
X512406Y556731D02*
X514524D01*
X481733Y551416D02*
X514498D01*
X491853Y616613D02*
X514487D01*
X491534Y618030D02*
X514486D01*
X482121Y550707D02*
X514439D01*
X481992Y551062D02*
X514424D01*
X491917Y616967D02*
X514346D01*
X491776Y617676D02*
X514345D01*
X491893Y617322D02*
X514301D01*
X512907Y559211D02*
X514022D01*
X512990Y557085D02*
X513939D01*
X513208Y558857D02*
X513721D01*
X513251Y557440D02*
X513679D01*
X491501Y606337D02*
X513385D01*
X491704Y608818D02*
X513315D01*
X491961Y606692D02*
X512967D01*
X492054Y608463D02*
X512935D01*
X503843Y474172D02*
X512905D01*
X460140Y477007D02*
X512892D01*
X509983Y495077D02*
X512778D01*
X492186Y607046D02*
X512757D01*
X492234Y608109D02*
X512741D01*
X491192Y469211D02*
X512673D01*
X492293Y607400D02*
X512661D01*
X492308Y607755D02*
X512656D01*
X474861Y490117D02*
X512637D01*
X510226Y492597D02*
X512499D01*
X511246Y471692D02*
X512470D01*
X511517Y574093D02*
X512393D01*
X492015Y576928D02*
X512380D01*
X510089Y494723D02*
X512324D01*
X416056Y487636D02*
X512302D01*
X491690Y469566D02*
X512212D01*
X460823Y474526D02*
X512209D01*
X460826Y476652D02*
X512206D01*
X510047Y492951D02*
X512173D01*
X475015Y489762D02*
X512127D01*
X511289Y471337D02*
X512119D01*
X510103Y494369D02*
X512083D01*
X509723Y493306D02*
X512006D01*
X510127Y469920D02*
X511987D01*
X474059Y487991D02*
X511976D01*
X510029Y494014D02*
X511965D01*
X509848Y493660D02*
X511941D01*
X511245Y470983D02*
X511939D01*
X461103Y474881D02*
X511928D01*
X461105Y476298D02*
X511927D01*
X475068Y489408D02*
X511886D01*
X509758Y495432D02*
X511886D01*
X510823Y470274D02*
X511880D01*
X511103Y470629D02*
X511865D01*
X474643Y488345D02*
X511809D01*
X461245Y475235D02*
X511786D01*
X461246Y475944D02*
X511786D01*
X475034Y489054D02*
X511768D01*
X474904Y488699D02*
X511744D01*
X461289Y475589D02*
X511742D01*
X468953Y576573D02*
X511694D01*
X436933Y556731D02*
X511531D01*
X468857Y576219D02*
X511415D01*
X509841Y497912D02*
X511384D01*
X509838Y495786D02*
X511302D01*
X511040Y575865D02*
X511204D01*
X510120Y497558D02*
X511084D01*
X510119Y496140D02*
X511041D01*
X452215Y559211D02*
X511030D01*
X436692Y557085D02*
X510947D01*
X510261Y497203D02*
X510930D01*
X477274Y414644D02*
X510915D01*
X510261Y496495D02*
X510911D01*
X510305Y496849D02*
X510876D01*
X452108Y558857D02*
X510729D01*
X436182Y557440D02*
X510686D01*
X451882Y558503D02*
X510576D01*
X424968Y557794D02*
X510557D01*
X451421Y558148D02*
X510522D01*
X498363Y424211D02*
X510423D01*
X478007Y399054D02*
X510182D01*
X478014Y407203D02*
X510175D01*
X478426Y414999D02*
X509763D01*
X497980Y423857D02*
X509632D01*
X502820Y573385D02*
X509563D01*
X491954Y469920D02*
X509558D01*
X504373Y472755D02*
X509545D01*
X478666Y399408D02*
X509523D01*
X478670Y406849D02*
X509519D01*
X468647Y575865D02*
X509359D01*
X478904Y415353D02*
X509285D01*
X394882Y501101D02*
X509203D01*
X478987Y423503D02*
X509202D01*
X479059Y399762D02*
X509130D01*
X479061Y406495D02*
X509128D01*
X503030Y573739D02*
X509102D01*
X502472Y575510D02*
X509009D01*
X503790Y498621D02*
X508999D01*
X506305Y415707D02*
X508967D01*
X479280Y423148D02*
X508909D01*
X503126Y574093D02*
X508877D01*
X492102Y470274D02*
X508862D01*
X504255Y472400D02*
X508860D01*
X479331Y400117D02*
X508858D01*
X479332Y406140D02*
X508857D01*
X502853Y575156D02*
X508829D01*
X503131Y574448D02*
X508770D01*
X503047Y574802D02*
X508755D01*
X491867Y500747D02*
X508746D01*
X506828Y416062D02*
X508744D01*
X479486Y422794D02*
X508703D01*
X479522Y400471D02*
X508667D01*
X479523Y405786D02*
X508666D01*
X492822Y498975D02*
X508656D01*
X507125Y416416D02*
X508589D01*
X492165Y470629D02*
X508582D01*
X504012Y472046D02*
X508580D01*
X479627Y422440D02*
X508562D01*
X504141Y498266D02*
X508561D01*
X479650Y400825D02*
X508539D01*
X479651Y405432D02*
X508538D01*
X492361Y500392D02*
X508521D01*
X507309Y416770D02*
X508491D01*
X479713Y422085D02*
X508475D01*
X492835Y499329D02*
X508475D01*
X479725Y401180D02*
X508464D01*
X479726Y405077D02*
X508463D01*
X507413Y417125D02*
X508443D01*
X492153Y470983D02*
X508440D01*
X503499Y471692D02*
X508439D01*
X479750Y421731D02*
X508439D01*
X479752Y401534D02*
X508437D01*
X479752Y404723D02*
X508437D01*
X479752Y421377D02*
X508437D01*
X479752Y421022D02*
X508437D01*
X479752Y420668D02*
X508437D01*
X479752Y420314D02*
X508437D01*
X479752Y419959D02*
X508437D01*
X479752Y419605D02*
X508437D01*
X506390Y419251D02*
X508437D01*
X506871Y418896D02*
X508437D01*
X507152Y418542D02*
X508437D01*
X507325Y418188D02*
X508437D01*
X507421Y417833D02*
X508437D01*
X507449Y417479D02*
X508437D01*
X479752Y404369D02*
X508437D01*
X479752Y404014D02*
X508437D01*
X479752Y403660D02*
X508437D01*
X479752Y403306D02*
X508437D01*
X479752Y402951D02*
X508437D01*
X479752Y402597D02*
X508437D01*
X479752Y402243D02*
X508437D01*
X479752Y401888D02*
X508437D01*
X492624Y500038D02*
X508415D01*
X492772Y499684D02*
X508401D01*
X492064Y471337D02*
X508396D01*
X422398Y490825D02*
X508224D01*
X507603Y427400D02*
X508224D01*
X507806Y429881D02*
X508020D01*
X504321Y497912D02*
X507875D01*
X482488Y495786D02*
X507820D01*
X504274Y493306D02*
X507798D01*
X421787Y491180D02*
X507764D01*
X504380Y492951D02*
X507670D01*
X503587Y496140D02*
X507598D01*
X504395Y497558D02*
X507596D01*
X491497Y495432D02*
X507565D01*
X503787Y491534D02*
X507538D01*
X504395Y492597D02*
X507490D01*
X504050Y493660D02*
X507475D01*
X504047Y496495D02*
X507456D01*
X504380Y497203D02*
X507455D01*
X504139Y491888D02*
X507431D01*
X504320Y492243D02*
X507416D01*
X504273Y496849D02*
X507411D01*
X492007Y495077D02*
X507340D01*
X503592Y494014D02*
X507294D01*
X415739Y478424D02*
X507240D01*
X492248Y494723D02*
X507234D01*
X492366Y494369D02*
X507219D01*
X394882Y480904D02*
X507036D01*
X415520Y478778D02*
X506779D01*
X394882Y480550D02*
X506686D01*
X415239Y479133D02*
X506554D01*
X413580Y480196D02*
X506506D01*
X414873Y479487D02*
X506447D01*
X414376Y479841D02*
X506432D01*
X416113Y427400D02*
X506334D01*
X416163Y486219D02*
X506249D01*
X414308Y429881D02*
X506131D01*
X416104Y485865D02*
X505898D01*
X416022Y427755D02*
X505874D01*
X414826Y429526D02*
X505780D01*
X416008Y485510D02*
X505719D01*
X415892Y428109D02*
X505648D01*
X415203Y429172D02*
X505600D01*
X415717Y428463D02*
X505541D01*
X415492Y428818D02*
X505526D01*
X467022Y456810D02*
X505393D01*
X497953Y459290D02*
X505323D01*
X466914Y457164D02*
X504975D01*
X497940Y458936D02*
X504942D01*
X415716Y434841D02*
X504841D01*
X496635Y457518D02*
X504765D01*
X497850Y458581D02*
X504749D01*
X497350Y457873D02*
X504669D01*
X497668Y458227D02*
X504664D01*
X483549Y415707D02*
X504640D01*
X483634Y419251D02*
X504555D01*
X451195Y437322D02*
X504525D01*
X415873Y485156D02*
X504479D01*
X415890Y435196D02*
X504339D01*
X494544Y482676D02*
X504284D01*
X450831Y436967D02*
X504196D01*
X484072Y416062D02*
X504117D01*
X416021Y435550D02*
X504100D01*
X484115Y418896D02*
X504074D01*
X416189Y436613D02*
X504027D01*
X415694Y484802D02*
X504021D01*
X416113Y435904D02*
X503984D01*
X416168Y436259D02*
X503961D01*
X494449Y483030D02*
X503932D01*
X484369Y416416D02*
X503820D01*
X415462Y484448D02*
X503797D01*
X484396Y418542D02*
X503793D01*
X494240Y483385D02*
X503751D01*
X415163Y484093D02*
X503690D01*
X493824Y483739D02*
X503676D01*
X484553Y416770D02*
X503636D01*
X484569Y418188D02*
X503620D01*
X484657Y417125D02*
X503532D01*
X484665Y417833D02*
X503524D01*
X484693Y417479D02*
X503496D01*
X453828Y511377D02*
X503456D01*
X475449Y503936D02*
X503106D01*
X454523Y511731D02*
X502760D01*
X475354Y504290D02*
X502522D01*
X472786Y512085D02*
X502479D01*
X491883Y471692D02*
X502407D01*
X473088Y512440D02*
X502338D01*
X473297Y513148D02*
X502337D01*
X482137Y496140D02*
X502319D01*
X492390Y494014D02*
X502313D01*
X473242Y512794D02*
X502293D01*
X475145Y504644D02*
X502261D01*
X474730Y504999D02*
X502131D01*
X394882Y491534D02*
X502119D01*
X492732Y498621D02*
X502115D01*
X415953Y505353D02*
X502097D01*
X460127Y474172D02*
X502062D01*
X473263Y513503D02*
X502047D01*
X483514Y515983D02*
X501977D01*
X416066Y505707D02*
X501925D01*
X491566Y472046D02*
X501893D01*
X469885Y496495D02*
X501858D01*
X492325Y493660D02*
X501856D01*
X394882Y491888D02*
X501766D01*
X492550Y498266D02*
X501764D01*
X414870Y473818D02*
X501738D01*
X490859Y472400D02*
X501651D01*
X469719Y496849D02*
X501632D01*
X492158Y493306D02*
X501631D01*
X473134Y513857D02*
X501628D01*
X483529Y515629D02*
X501596D01*
X394882Y492243D02*
X501586D01*
X492232Y497912D02*
X501585D01*
X414371Y473463D02*
X501572D01*
X394882Y472755D02*
X501533D01*
X469394Y497203D02*
X501526D01*
X491832Y492951D02*
X501525D01*
X394882Y492597D02*
X501511D01*
X491517Y497558D02*
X501511D01*
X413571Y473109D02*
X501508D01*
X415857Y508188D02*
X501424D01*
X472874Y514211D02*
X501419D01*
X483454Y515274D02*
X501402D01*
X416141Y506062D02*
X501341D01*
X482920Y514566D02*
X501323D01*
X483273Y514920D02*
X501317D01*
X415996Y507833D02*
X501123D01*
X416181Y506416D02*
X501080D01*
X425605Y573030D02*
X500984D01*
X416096Y507479D02*
X500970D01*
X416187Y506770D02*
X500950D01*
X416159Y507125D02*
X500916D01*
X468229Y575510D02*
X500914D01*
X442890Y568424D02*
X500866D01*
X424510Y570904D02*
X500796D01*
X425659Y573385D02*
X500565D01*
X443592Y575156D02*
X500533D01*
X443085Y568778D02*
X500447D01*
X442446Y570550D02*
X500415D01*
X425625Y573739D02*
X500356D01*
X436878Y609526D02*
X500350D01*
X424658Y574802D02*
X500339D01*
X425496Y574093D02*
X500260D01*
X425236Y574448D02*
X500254D01*
X443170Y569133D02*
X500238D01*
X442862Y570196D02*
X500221D01*
X492356Y612007D02*
X500147D01*
X443166Y569487D02*
X500142D01*
X443071Y569841D02*
X500136D01*
X491688Y609881D02*
X499890D01*
X492523Y611652D02*
X499796D01*
X492201Y610235D02*
X499664D01*
X492587Y611298D02*
X499616D01*
X492444Y610589D02*
X499557D01*
X492562Y610944D02*
X499542D01*
X466813Y453266D02*
X498365D01*
X394882Y430589D02*
X498134D01*
X467051Y456455D02*
X498015D01*
X416056Y465668D02*
X497656D01*
X466972Y453621D02*
X497650D01*
X467005Y456101D02*
X497521D01*
X435348Y433778D02*
X497425D01*
X467044Y453975D02*
X497332D01*
X446297Y468857D02*
X497306D01*
X466877Y455747D02*
X497258D01*
X394882Y430944D02*
X497187D01*
X467040Y454329D02*
X497150D01*
X466654Y455392D02*
X497110D01*
X466960Y454684D02*
X497060D01*
X466790Y455038D02*
X497047D01*
X435649Y433424D02*
X496972D01*
X416135Y466022D02*
X496942D01*
X434847Y431298D02*
X496847D01*
X445713Y468503D02*
X496812D01*
X435802Y433070D02*
X496725D01*
X435431Y431652D02*
X496653D01*
X416179Y466377D02*
X496623D01*
X435856Y432715D02*
X496587D01*
X435692Y432007D02*
X496554D01*
X435937Y468148D02*
X496549D01*
X435821Y432361D02*
X496533D01*
X495978Y426337D02*
X496491D01*
X416188Y466731D02*
X496441D01*
X495476Y423857D02*
X496430D01*
X435477Y467794D02*
X496401D01*
X416164Y467085D02*
X496351D01*
X416105Y467440D02*
X496339D01*
X466709Y457518D02*
X495885D01*
X470090Y460707D02*
X495535D01*
X466346Y457873D02*
X495170D01*
X412741Y460353D02*
X495040D01*
X461087Y458227D02*
X494851D01*
X458899Y459999D02*
X494777D01*
X460869Y458581D02*
X494670D01*
X459720Y459644D02*
X494630D01*
X493807Y423857D02*
X494602D01*
X460588Y458936D02*
X494580D01*
X460222Y459290D02*
X494567D01*
X493745Y426337D02*
X494101D01*
X491132Y535117D02*
X493195D01*
X492175Y534762D02*
X493061D01*
X492369Y532282D02*
X492867D01*
X414774Y483739D02*
X492396D01*
X466245Y537951D02*
X492361D01*
X394882Y481259D02*
X492335D01*
X492091Y426337D02*
X492318D01*
X478557Y423857D02*
X492256D01*
X490952Y535471D02*
X492026D01*
X414232Y483385D02*
X491981D01*
X394882Y481613D02*
X491952D01*
X484105Y537597D02*
X491852D01*
X413271Y483030D02*
X491772D01*
X394882Y481967D02*
X491757D01*
X490601Y535825D02*
X491700D01*
X394882Y482676D02*
X491677D01*
X394882Y482322D02*
X491672D01*
X484456Y537243D02*
X491610D01*
X484695Y536180D02*
X491533D01*
X484636Y536888D02*
X491493D01*
X484710Y536534D02*
X491469D01*
X444522Y603148D02*
X490936D01*
X483470Y599959D02*
X490805D01*
X444591Y597125D02*
X490782D01*
X483711Y593936D02*
X490779D01*
X449726Y497558D02*
X490766D01*
X444720Y596770D02*
X490755D01*
X454189Y532282D02*
X490702D01*
X444355Y605983D02*
X490677D01*
X480348Y584014D02*
X490657D01*
X448774Y609881D02*
X490596D01*
X466285Y579408D02*
X490542D01*
X442643Y426692D02*
X490471D01*
X479707Y587912D02*
X490463D01*
X394882Y500747D02*
X490417D01*
X482667Y495432D02*
X490392D01*
X483117Y592518D02*
X490389D01*
X454194Y532636D02*
X490349D01*
X468958Y576928D02*
X490347D01*
X481956Y590038D02*
X490327D01*
X480390Y585432D02*
X490268D01*
X449119Y612361D02*
X490251D01*
X444198Y603503D02*
X490240D01*
X444280Y605629D02*
X490237D01*
X444341Y606337D02*
X490232D01*
X454110Y532991D02*
X490168D01*
X479847Y581534D02*
X490167D01*
X477766Y424211D02*
X490137D01*
X444331Y597479D02*
X490122D01*
X483117Y599605D02*
X490119D01*
X394882Y472400D02*
X490086D01*
X465867Y579054D02*
X490084D01*
X483605Y594290D02*
X490083D01*
X449288Y610235D02*
X490082D01*
X444753Y596416D02*
X490080D01*
X480649Y583660D02*
X490078D01*
X473722Y492951D02*
X490058D01*
X449706Y497912D02*
X490052D01*
X436735Y608818D02*
X490029D01*
X480392Y587558D02*
X490005D01*
X468874Y577282D02*
X489995D01*
X444294Y592164D02*
X489973D01*
X446698Y426337D02*
X489962D01*
X436372Y603857D02*
X489960D01*
X444100Y605274D02*
X489958D01*
X481932Y590392D02*
X489944D01*
X449443Y612007D02*
X489927D01*
X394882Y500392D02*
X489922D01*
X415760Y618385D02*
X489920D01*
X480670Y585786D02*
X489916D01*
X482741Y495077D02*
X489883D01*
X480431Y581888D02*
X489865D01*
X415574Y578699D02*
X489860D01*
X443752Y597833D02*
X489842D01*
X436871Y599251D02*
X489840D01*
X449530Y610589D02*
X489840D01*
X480802Y583306D02*
X489819D01*
X415271Y604211D02*
X489818D01*
X443747Y604920D02*
X489817D01*
X468680Y577636D02*
X489814D01*
X447337Y424566D02*
X489811D01*
X483380Y594644D02*
X489802D01*
X444699Y596062D02*
X489801D01*
X480672Y587203D02*
X489781D01*
X415545Y604566D02*
X489774D01*
X444235Y606692D02*
X489772D01*
X444358Y591810D02*
X489764D01*
X449609Y611652D02*
X489761D01*
X434893Y578345D02*
X489753D01*
X446558Y469211D02*
X489753D01*
X481815Y590747D02*
X489750D01*
X468299Y577991D02*
X489739D01*
X480812Y586140D02*
X489735D01*
X449608Y498266D02*
X489733D01*
X474048Y493306D02*
X489732D01*
X449648Y610944D02*
X489722D01*
X447114Y425983D02*
X489720D01*
X480692Y582243D02*
X489710D01*
X436561Y598188D02*
X489700D01*
X436866Y598896D02*
X489699D01*
X449673Y611298D02*
X489697D01*
X480856Y582951D02*
X489690D01*
X436492Y608463D02*
X489678D01*
X480813Y586849D02*
X489675D01*
X481064Y591455D02*
X489669D01*
X481574Y591101D02*
X489664D01*
X482923Y594999D02*
X489661D01*
X480856Y586495D02*
X489660D01*
X444545Y595707D02*
X489660D01*
X413997Y500038D02*
X489659D01*
X480821Y582597D02*
X489656D01*
X436770Y598542D02*
X489655D01*
X472698Y552479D02*
X489645D01*
X447422Y424920D02*
X489643D01*
X482726Y494723D02*
X489642D01*
X444243Y595353D02*
X489616D01*
X447323Y425629D02*
X489603D01*
X421998Y615904D02*
X489585D01*
X447418Y425274D02*
X489579D01*
X436517Y554959D02*
X489575D01*
X481933Y493660D02*
X489565D01*
X449415Y498621D02*
X489551D01*
X444010Y607046D02*
X489546D01*
X482619Y494369D02*
X489524D01*
X414619Y499684D02*
X489512D01*
X482394Y494014D02*
X489500D01*
X435979Y608109D02*
X489498D01*
X449076Y498975D02*
X489462D01*
X448165Y499329D02*
X489449D01*
X443553Y607400D02*
X489439D01*
X435748Y607755D02*
X489424D01*
X415924Y618030D02*
X489411D01*
X394882Y472046D02*
X489379D01*
X421818Y616259D02*
X489259D01*
X446687Y469566D02*
X489255D01*
X472702Y552833D02*
X489227D01*
X420712Y554605D02*
X489194D01*
X416045Y617676D02*
X489169D01*
X480857Y533345D02*
X489130D01*
X421467Y616613D02*
X489092D01*
X394882Y471692D02*
X489062D01*
X416128Y617322D02*
X489052D01*
X416176Y616967D02*
X489028D01*
X472688Y553188D02*
X489017D01*
X471899Y554251D02*
X489001D01*
X446722Y469920D02*
X488991D01*
X484588Y535825D02*
X488926D01*
X472581Y553542D02*
X488921D01*
X472357Y553896D02*
X488916D01*
X442840Y471337D02*
X488881D01*
X446668Y470274D02*
X488843D01*
X446214Y470983D02*
X488792D01*
X446515Y470629D02*
X488780D01*
X481159Y533699D02*
X488669D01*
X484362Y535471D02*
X488575D01*
X481313Y534054D02*
X488444D01*
X483902Y535117D02*
X488396D01*
X481368Y534408D02*
X488337D01*
X481334Y534762D02*
X488322D01*
X450578Y527322D02*
X487511D01*
X471169Y530156D02*
X487498D01*
X450961Y527676D02*
X486815D01*
X471181Y529802D02*
X486812D01*
X451156Y528030D02*
X486535D01*
X471118Y529448D02*
X486533D01*
X470208Y528385D02*
X486393D01*
X470969Y529093D02*
X486392D01*
X470705Y528739D02*
X486348D01*
X481205Y535117D02*
X482634D01*
X466569Y537597D02*
X482430D01*
X480945Y535471D02*
X482173D01*
X466735Y537243D02*
X482079D01*
X480367Y535825D02*
X481947D01*
X466799Y536888D02*
X481900D01*
X479221Y415707D02*
X481884D01*
X466656Y536180D02*
X481840D01*
X466774Y536534D02*
X481826D01*
X479752Y419251D02*
X481799D01*
X446799Y602085D02*
X481644D01*
X436853Y594999D02*
X481644D01*
X436787Y599605D02*
X481450D01*
X444128Y592518D02*
X481450D01*
X479285Y517046D02*
X481447D01*
X479445Y416062D02*
X481361D01*
X479752Y418896D02*
X481318D01*
X478784Y514566D02*
X481253D01*
X447008Y601731D02*
X481187D01*
X436735Y594644D02*
X481187D01*
X446444Y599959D02*
X481097D01*
X443804Y592873D02*
X481097D01*
X479600Y416416D02*
X481064D01*
X479752Y418542D02*
X481037D01*
X479586Y516692D02*
X480990D01*
X447103Y601377D02*
X480962D01*
X436492Y594290D02*
X480962D01*
X446827Y600314D02*
X480916D01*
X413899Y593227D02*
X480916D01*
X479368Y514920D02*
X480900D01*
X479698Y416770D02*
X480880D01*
X479752Y418188D02*
X480864D01*
X447107Y601022D02*
X480856D01*
X435979Y593936D02*
X480856D01*
X447022Y600668D02*
X480842D01*
X414558Y593581D02*
X480842D01*
X479746Y417125D02*
X480776D01*
X479752Y417833D02*
X480768D01*
X479739Y516337D02*
X480765D01*
X479752Y417479D02*
X480740D01*
X479629Y515274D02*
X480720D01*
X474215Y493660D02*
X480665D01*
X479793Y515983D02*
X480659D01*
X479758Y515629D02*
X480645D01*
X469949Y496140D02*
X480462D01*
X476430Y551770D02*
X480263D01*
X474279Y494014D02*
X480205D01*
X469924Y495786D02*
X480111D01*
X474255Y494369D02*
X479979D01*
X444334Y591455D02*
X479959D01*
X473387Y495432D02*
X479931D01*
X474138Y494723D02*
X479872D01*
X473896Y495077D02*
X479857D01*
X476920Y549290D02*
X479773D01*
X477008Y551416D02*
X479685D01*
X445093Y588975D02*
X479625D01*
X466414Y535825D02*
X479476D01*
X477222Y549644D02*
X479471D01*
X444215Y591101D02*
X479450D01*
X477268Y551062D02*
X479425D01*
X477376Y549999D02*
X479317D01*
X444940Y589329D02*
X479299D01*
X477397Y550707D02*
X479296D01*
X477431Y550353D02*
X479262D01*
X443973Y590747D02*
X479209D01*
X444639Y589684D02*
X479132D01*
X436486Y585077D02*
X479125D01*
X444983Y587912D02*
X479112D01*
X443463Y590392D02*
X479091D01*
X443483Y590038D02*
X479067D01*
X453916Y533345D02*
X478986D01*
X465967Y581534D02*
X478972D01*
X465900Y535471D02*
X478897D01*
X453535Y533699D02*
X478684D01*
X441185Y535117D02*
X478638D01*
X415125Y534054D02*
X478529D01*
X415671Y534762D02*
X478509D01*
X415432Y534408D02*
X478475D01*
X436061Y584014D02*
X478471D01*
X436432Y585432D02*
X478429D01*
X444722Y587558D02*
X478426D01*
X466045Y581888D02*
X478388D01*
X465562Y583660D02*
X478170D01*
X436279Y585786D02*
X478149D01*
X444138Y587203D02*
X478147D01*
X466152Y582243D02*
X478127D01*
X465913Y583306D02*
X478017D01*
X435992Y586140D02*
X478007D01*
X436474Y586849D02*
X478006D01*
X466167Y582597D02*
X477998D01*
X466092Y582951D02*
X477963D01*
X436172Y586495D02*
X477963D01*
X472296Y514566D02*
X477909D01*
X438861Y522361D02*
X477834D01*
X415716Y524841D02*
X477764D01*
X438581Y522715D02*
X477416D01*
X458369Y517046D02*
X477408D01*
X415490Y524487D02*
X477383D01*
X415759Y514920D02*
X477325D01*
X437896Y523070D02*
X477206D01*
X415200Y524133D02*
X477189D01*
X414303Y523424D02*
X477110D01*
X458108Y516692D02*
X477107D01*
X414823Y523778D02*
X477105D01*
X415923Y515274D02*
X477064D01*
X457524Y516337D02*
X476954D01*
X416045Y515629D02*
X476935D01*
X416128Y515983D02*
X476900D01*
X460108Y414644D02*
X476899D01*
X460600Y424211D02*
X476408D01*
X460842Y399054D02*
X476166D01*
X460849Y407203D02*
X476159D01*
X461261Y414999D02*
X475747D01*
X461392Y423857D02*
X475616D01*
X474443Y551770D02*
X475539D01*
X461501Y399408D02*
X475507D01*
X461504Y406849D02*
X475504D01*
X461738Y415353D02*
X475270D01*
X461822Y423503D02*
X475186D01*
X461894Y399762D02*
X475114D01*
X461896Y406495D02*
X475112D01*
X468977Y549290D02*
X475049D01*
X474614Y551416D02*
X474960D01*
X462056Y415707D02*
X474952D01*
X462115Y423148D02*
X474893D01*
X462165Y400117D02*
X474843D01*
X462167Y406140D02*
X474841D01*
X473774Y549644D02*
X474747D01*
X462280Y416062D02*
X474728D01*
X462321Y422794D02*
X474687D01*
X462356Y400471D02*
X474652D01*
X462357Y405786D02*
X474650D01*
X462435Y416416D02*
X474573D01*
X474288Y549999D02*
X474570D01*
X462462Y422440D02*
X474546D01*
X462485Y400825D02*
X474523D01*
X462486Y405432D02*
X474522D01*
X462533Y416770D02*
X474475D01*
X462548Y422085D02*
X474460D01*
X462560Y401180D02*
X474448D01*
X462560Y405077D02*
X474447D01*
X462581Y417125D02*
X474427D01*
X462585Y421731D02*
X474423D01*
X462587Y401534D02*
X474421D01*
X462587Y404723D02*
X474421D01*
X462587Y421377D02*
X474421D01*
X462587Y421022D02*
X474421D01*
X462587Y420668D02*
X474421D01*
X462587Y420314D02*
X474421D01*
X462587Y419959D02*
X474421D01*
X462587Y419605D02*
X474421D01*
X462587Y419251D02*
X474421D01*
X462587Y418896D02*
X474421D01*
X462587Y418542D02*
X474421D01*
X462587Y418188D02*
X474421D01*
X462587Y417833D02*
X474421D01*
X462587Y417479D02*
X474421D01*
X462587Y404369D02*
X474421D01*
X462587Y404014D02*
X474421D01*
X462587Y403660D02*
X474421D01*
X462587Y403306D02*
X474421D01*
X462587Y402951D02*
X474421D01*
X462587Y402597D02*
X474421D01*
X462587Y402243D02*
X474421D01*
X462587Y401888D02*
X474421D01*
X415799Y504999D02*
X473302D01*
X394882Y502518D02*
X473241D01*
X421889Y487991D02*
X473185D01*
X415598Y504644D02*
X472886D01*
X394882Y502873D02*
X472858D01*
X422696Y490471D02*
X472683D01*
X469119Y549644D02*
X472682D01*
X415338Y504290D02*
X472677D01*
X413899Y503227D02*
X472663D01*
X422437Y488345D02*
X472601D01*
X415004Y503936D02*
X472582D01*
X414558Y503581D02*
X472578D01*
X422865Y490117D02*
X472383D01*
X422718Y488699D02*
X472340D01*
X469806Y495432D02*
X472282D01*
X422945Y489762D02*
X472229D01*
X422877Y489054D02*
X472210D01*
X422949Y489408D02*
X472176D01*
X469163Y549999D02*
X472169D01*
X412701Y492951D02*
X471948D01*
X469120Y550353D02*
X471926D01*
X468014Y551416D02*
X471811D01*
X468979Y550707D02*
X471808D01*
X468700Y551062D02*
X471784D01*
X469563Y495077D02*
X471773D01*
X414076Y493306D02*
X471622D01*
X469050Y494723D02*
X471531D01*
X414670Y493660D02*
X471455D01*
X415402Y494369D02*
X471414D01*
X468752Y514566D02*
X471405D01*
X415086Y494014D02*
X471390D01*
X469243Y512085D02*
X470915D01*
X469331Y514211D02*
X470827D01*
X437064Y565944D02*
X470816D01*
X457986Y554251D02*
X470620D01*
X469545Y512440D02*
X470613D01*
X469591Y513857D02*
X470567D01*
X451853Y563818D02*
X470557D01*
X451442Y565589D02*
X470465D01*
X469699Y512794D02*
X470458D01*
X469720Y513503D02*
X470438D01*
X460537Y551770D02*
X470426D01*
X469753Y513148D02*
X470404D01*
X451610Y563463D02*
X470349D01*
X451971Y564172D02*
X470333D01*
X459409Y520235D02*
X470314D01*
X437317Y560983D02*
X470288D01*
X451766Y565235D02*
X470286D01*
X451996Y564526D02*
X470226D01*
X451932Y564881D02*
X470211D01*
X458287Y553896D02*
X470163D01*
X460463Y552125D02*
X470073D01*
X458533Y517755D02*
X469979D01*
X458440Y553542D02*
X469938D01*
X451097Y563109D02*
X469933D01*
X436860Y561337D02*
X469905D01*
X460283Y552479D02*
X469893D01*
X458500Y553188D02*
X469832D01*
X459932Y552833D02*
X469818D01*
X459504Y519881D02*
X469804D01*
X425856Y562755D02*
X469725D01*
X425345Y561692D02*
X469710D01*
X458479Y518109D02*
X469653D01*
X425801Y562400D02*
X469629D01*
X425647Y562046D02*
X469625D01*
X459509Y519526D02*
X469563D01*
X458846Y518463D02*
X469486D01*
X459424Y519172D02*
X469446D01*
X459229Y518818D02*
X469421D01*
X414961Y463896D02*
X469158D01*
X453883Y531573D02*
X469102D01*
X451241Y528385D02*
X468769D01*
X394882Y460707D02*
X468493D01*
X453465Y531219D02*
X468395D01*
X451237Y528739D02*
X468271D01*
X414498Y463542D02*
X468247D01*
X434380Y440510D02*
X468247D01*
X394882Y530865D02*
X468078D01*
X394882Y461062D02*
X468037D01*
X451141Y529093D02*
X468007D01*
X415647Y494723D02*
X467958D01*
X413800Y463188D02*
X467908D01*
X394882Y530510D02*
X467897D01*
X434112Y443699D02*
X467897D01*
X415545Y514566D02*
X467862D01*
X450933Y529448D02*
X467859D01*
X432778Y530156D02*
X467808D01*
X450517Y529802D02*
X467796D01*
X394882Y461416D02*
X467789D01*
X394882Y462833D02*
X467715D01*
X394882Y461770D02*
X467651D01*
X394882Y462479D02*
X467617D01*
X449672Y497203D02*
X467613D01*
X394882Y462125D02*
X467596D01*
X434274Y440865D02*
X467532D01*
X415837Y495077D02*
X467445D01*
X415649Y548581D02*
X467432D01*
X460522Y551416D02*
X467419D01*
X433810Y443345D02*
X467402D01*
X454804Y512085D02*
X467371D01*
X449534Y496849D02*
X467289D01*
X453841Y514211D02*
X467283D01*
X434050Y441219D02*
X467213D01*
X415982Y495432D02*
X467202D01*
X413062Y442991D02*
X467139D01*
X449286Y496495D02*
X467123D01*
X416086Y495786D02*
X467084D01*
X454946Y512440D02*
X467069D01*
X448830Y496140D02*
X467059D01*
X433592Y441573D02*
X467032D01*
X454526Y513857D02*
X467024D01*
X394882Y442636D02*
X466992D01*
X394882Y441928D02*
X466942D01*
X394882Y442282D02*
X466929D01*
X454990Y512794D02*
X466915D01*
X454805Y513503D02*
X466895D01*
X454946Y513148D02*
X466861D01*
X444287Y575510D02*
X466811D01*
X443604Y577991D02*
X466741D01*
X415404Y548936D02*
X466736D01*
X460415Y551062D02*
X466734D01*
X415089Y549290D02*
X466456D01*
X460189Y550707D02*
X466454D01*
X444568Y575865D02*
X466392D01*
X444290Y577636D02*
X466360D01*
X444286Y549644D02*
X466314D01*
X459729Y550353D02*
X466313D01*
X444799Y549999D02*
X466270D01*
X444710Y576219D02*
X466182D01*
X444569Y577282D02*
X466166D01*
X444754Y576573D02*
X466086D01*
X444710Y576928D02*
X466081D01*
X452566Y535471D02*
X464808D01*
X394882Y452558D02*
X464726D01*
X452372Y537951D02*
X464464D01*
X415308Y579054D02*
X464448D01*
X461254Y457873D02*
X464362D01*
X452919Y535825D02*
X464295D01*
X458563Y452912D02*
X464177D01*
X452829Y537597D02*
X464140D01*
X461353Y455392D02*
X464055D01*
X453099Y536180D02*
X464052D01*
X414964Y579408D02*
X464030D01*
X461378Y457518D02*
X464000D01*
X453054Y537243D02*
X463973D01*
X462468Y581180D02*
X463943D01*
X453174Y536534D02*
X463934D01*
X461220Y455038D02*
X463918D01*
X453160Y536888D02*
X463910D01*
X459574Y453266D02*
X463896D01*
X435769Y583660D02*
X463887D01*
X461446Y455747D02*
X463832D01*
X461570Y579762D02*
X463820D01*
X462444Y580825D02*
X463804D01*
X461462Y457164D02*
X463794D01*
X461042Y454684D02*
X463749D01*
X460122Y453621D02*
X463737D01*
X462083Y580117D02*
X463724D01*
X462326Y580471D02*
X463719D01*
X461502Y456101D02*
X463704D01*
X461510Y456810D02*
X463687D01*
X460811Y454329D02*
X463669D01*
X460513Y453975D02*
X463665D01*
X461523Y456455D02*
X463658D01*
X462405Y581534D02*
X463630D01*
X436031Y583306D02*
X463536D01*
X462238Y581888D02*
X463404D01*
X436211Y582951D02*
X463356D01*
X461914Y582243D02*
X463297D01*
X436285Y582597D02*
X463282D01*
X443853Y579762D02*
X460478D01*
X444198Y582243D02*
X460133D01*
X444366Y580117D02*
X459964D01*
X444522Y581888D02*
X459809D01*
X426093Y414644D02*
X459734D01*
X444609Y580471D02*
X459722D01*
X444688Y581534D02*
X459643D01*
X444727Y580825D02*
X459603D01*
X444752Y581180D02*
X459579D01*
X415236Y474172D02*
X459558D01*
X416172Y477007D02*
X459545D01*
X447142Y424211D02*
X459242D01*
X426826Y399054D02*
X459001D01*
X426833Y407203D02*
X458993D01*
X415518Y474526D02*
X458862D01*
X416189Y476652D02*
X458860D01*
X427245Y414999D02*
X458582D01*
X415738Y474881D02*
X458582D01*
X416172Y476298D02*
X458580D01*
X445042Y550353D02*
X458460D01*
X446759Y423857D02*
X458451D01*
X415907Y475235D02*
X458440D01*
X416120Y475944D02*
X458439D01*
X416033Y475589D02*
X458396D01*
X427485Y399408D02*
X458342D01*
X427489Y406849D02*
X458338D01*
X427722Y415353D02*
X458104D01*
X427806Y423503D02*
X458021D01*
X445160Y550707D02*
X458000D01*
X427878Y399762D02*
X457949D01*
X427880Y406495D02*
X457946D01*
X455124Y415707D02*
X457786D01*
X445185Y551062D02*
X457774D01*
X428099Y423148D02*
X457728D01*
X428149Y400117D02*
X457677D01*
X428151Y406140D02*
X457676D01*
X445121Y551416D02*
X457667D01*
X455647Y416062D02*
X457563D01*
X428305Y422794D02*
X457522D01*
X428341Y400471D02*
X457486D01*
X428342Y405786D02*
X457485D01*
X455944Y416416D02*
X457408D01*
X428446Y422440D02*
X457381D01*
X428469Y400825D02*
X457358D01*
X440136Y520944D02*
X457357D01*
X428470Y405432D02*
X457357D01*
X456128Y416770D02*
X457310D01*
X428532Y422085D02*
X457294D01*
X428544Y401180D02*
X457282D01*
X428545Y405077D02*
X457282D01*
X456232Y417125D02*
X457262D01*
X428569Y421731D02*
X457258D01*
X428571Y401534D02*
X457256D01*
X428571Y404723D02*
X457256D01*
X428571Y421377D02*
X457256D01*
X428571Y421022D02*
X457256D01*
X428571Y420668D02*
X457256D01*
X428571Y420314D02*
X457256D01*
X428571Y419959D02*
X457256D01*
X428571Y419605D02*
X457256D01*
X455209Y419251D02*
X457256D01*
X455690Y418896D02*
X457256D01*
X455971Y418542D02*
X457256D01*
X456144Y418188D02*
X457256D01*
X456239Y417833D02*
X457256D01*
X456268Y417479D02*
X457256D01*
X428571Y404369D02*
X457256D01*
X428571Y404014D02*
X457256D01*
X428571Y403660D02*
X457256D01*
X428571Y403306D02*
X457256D01*
X428571Y402951D02*
X457256D01*
X428571Y402597D02*
X457256D01*
X428571Y402243D02*
X457256D01*
X428571Y401888D02*
X457256D01*
X448642Y452912D02*
X457185D01*
X440330Y520589D02*
X456941D01*
X448978Y459999D02*
X456849D01*
X440415Y520235D02*
X456733D01*
X440104Y519172D02*
X456669D01*
X416175Y516337D02*
X456650D01*
X440410Y519881D02*
X456637D01*
X440314Y519526D02*
X456633D01*
X444955Y551770D02*
X456610D01*
X449652Y453266D02*
X456174D01*
X439686Y518818D02*
X456148D01*
X420736Y554251D02*
X456109D01*
X416189Y516692D02*
X456065D01*
X449799Y459644D02*
X456028D01*
X444631Y552125D02*
X456026D01*
X415717Y518463D02*
X455847D01*
X420671Y553896D02*
X455808D01*
X416168Y517046D02*
X455805D01*
X420507Y552479D02*
X455765D01*
X415892Y518109D02*
X455694D01*
X416113Y517400D02*
X455675D01*
X420504Y553542D02*
X455655D01*
X416022Y517755D02*
X455640D01*
X420378Y552833D02*
X455635D01*
X450200Y453621D02*
X455626D01*
X420231Y553188D02*
X455601D01*
X450301Y459290D02*
X455526D01*
X450592Y453975D02*
X455235D01*
X450667Y458936D02*
X455160D01*
X450890Y454329D02*
X454937D01*
X450948Y458581D02*
X454879D01*
X451121Y454684D02*
X454706D01*
X451166Y458227D02*
X454661D01*
X451298Y455038D02*
X454528D01*
X451333Y457873D02*
X454494D01*
X451432Y455392D02*
X454395D01*
X451456Y457518D02*
X454370D01*
X451525Y455747D02*
X454302D01*
X451541Y457164D02*
X454286D01*
X451581Y456101D02*
X454246D01*
X451589Y456810D02*
X454238D01*
X451602Y456455D02*
X454225D01*
X432368Y415707D02*
X453459D01*
X432453Y419251D02*
X453374D01*
X434043Y511377D02*
X453259D01*
X431203Y514211D02*
X453246D01*
X432891Y416062D02*
X452936D01*
X432934Y418896D02*
X452893D01*
X433188Y416416D02*
X452639D01*
X433215Y418542D02*
X452612D01*
X434426Y511731D02*
X452563D01*
X433982Y513857D02*
X452560D01*
X421155Y446534D02*
X452471D01*
X433372Y416770D02*
X452455D01*
X433388Y418188D02*
X452438D01*
X433476Y417125D02*
X452351D01*
X433484Y417833D02*
X452343D01*
X433512Y417479D02*
X452315D01*
X434621Y512085D02*
X452283D01*
X434397Y513503D02*
X452281D01*
X434266Y444054D02*
X452276D01*
X434706Y512440D02*
X452141D01*
X434606Y513148D02*
X452140D01*
X434701Y512794D02*
X452096D01*
X394882Y531219D02*
X452047D01*
X421047Y446180D02*
X452013D01*
X414723Y533699D02*
X451977D01*
X434320Y444408D02*
X451924D01*
X433319Y445825D02*
X451789D01*
X434286Y444762D02*
X451743D01*
X433898Y445471D02*
X451683D01*
X434157Y445117D02*
X451668D01*
X394882Y531573D02*
X451628D01*
X414156Y533345D02*
X451596D01*
X394882Y531928D02*
X451419D01*
X413062Y532991D02*
X451402D01*
X394882Y532282D02*
X451323D01*
X394882Y532636D02*
X451317D01*
X415954Y537951D02*
X451093D01*
X441646Y535471D02*
X450898D01*
X441389Y537597D02*
X450635D01*
X441871Y535825D02*
X450546D01*
X441739Y537243D02*
X450411D01*
X441978Y536180D02*
X450365D01*
X441919Y536888D02*
X450305D01*
X441993Y536534D02*
X450290D01*
X424749Y558148D02*
X450153D01*
X425822Y563109D02*
X450005D01*
X437542Y560629D02*
X449950D01*
X424360Y558503D02*
X449693D01*
X437068Y565589D02*
X449661D01*
X437648Y560274D02*
X449599D01*
X425693Y563463D02*
X449492D01*
X437054Y558857D02*
X449467D01*
X437662Y559920D02*
X449419D01*
X437407Y559211D02*
X449360D01*
X437588Y559566D02*
X449345D01*
X436983Y565235D02*
X449336D01*
X425433Y563818D02*
X449249D01*
X436788Y564881D02*
X449170D01*
X424855Y564172D02*
X449131D01*
X436405Y564526D02*
X449106D01*
X433463Y529802D02*
X449089D01*
X432765Y527322D02*
X449028D01*
X434320Y439802D02*
X448970D01*
X416176Y436967D02*
X448854D01*
X433742Y529448D02*
X448674D01*
X433460Y527676D02*
X448645D01*
X434139Y439448D02*
X448551D01*
X416128Y437322D02*
X448490D01*
X433883Y529093D02*
X448465D01*
X433741Y528030D02*
X448450D01*
X433927Y528739D02*
X448370D01*
X433883Y528385D02*
X448365D01*
X433787Y439093D02*
X448319D01*
X416045Y437676D02*
X448284D01*
X415547Y438739D02*
X448192D01*
X415924Y438030D02*
X448175D01*
X415760Y438385D02*
X448146D01*
X415048Y499329D02*
X447898D01*
X436814Y609881D02*
X447682D01*
X394882Y612361D02*
X447338D01*
X438681Y452912D02*
X447264D01*
X416153Y496140D02*
X447233D01*
X436648Y610235D02*
X447169D01*
X394882Y612007D02*
X447014D01*
X415373Y498975D02*
X446987D01*
X439018Y459999D02*
X446927D01*
X436324Y610589D02*
X446926D01*
X394882Y611652D02*
X446847D01*
X394882Y610944D02*
X446808D01*
X394882Y611298D02*
X446784D01*
X416186Y496495D02*
X446777D01*
X415624Y498621D02*
X446648D01*
X416184Y496849D02*
X446529D01*
X415820Y498266D02*
X446455D01*
X416148Y497203D02*
X446391D01*
X415969Y497912D02*
X446357D01*
X416077Y497558D02*
X446337D01*
X439692Y453266D02*
X446253D01*
X439838Y459644D02*
X446107D01*
X440240Y453621D02*
X445705D01*
X440340Y459290D02*
X445605D01*
X440631Y453975D02*
X445314D01*
X444827Y426337D02*
X445270D01*
X440707Y458936D02*
X445238D01*
X444483Y423857D02*
X445209D01*
X440929Y454329D02*
X445016D01*
X440987Y458581D02*
X444958D01*
X436593Y599959D02*
X444894D01*
X436163Y468503D02*
X444838D01*
X441160Y454684D02*
X444785D01*
X441205Y458227D02*
X444740D01*
X441338Y455038D02*
X444607D01*
X441372Y457873D02*
X444573D01*
X436212Y600314D02*
X444511D01*
X441471Y455392D02*
X444474D01*
X441496Y457518D02*
X444449D01*
X441564Y455747D02*
X444381D01*
X441580Y457164D02*
X444365D01*
X443256Y470983D02*
X444337D01*
X441620Y456101D02*
X444325D01*
X441628Y456810D02*
X444317D01*
X394882Y600668D02*
X444316D01*
X441642Y456455D02*
X444303D01*
X442901Y468857D02*
X444254D01*
X443853Y601022D02*
X444202D01*
X443464Y470629D02*
X444036D01*
X443284Y469211D02*
X443994D01*
X443479Y469566D02*
X443864D01*
X443623Y470274D02*
X443836D01*
X415819Y545038D02*
X443613D01*
X415983Y547873D02*
X443600D01*
X440657Y423857D02*
X443391D01*
X436628Y587203D02*
X443264D01*
X436067Y590038D02*
X443245D01*
X414673Y549644D02*
X443194D01*
X415873Y575156D02*
X443023D01*
X435243Y577991D02*
X443010D01*
X415968Y545392D02*
X442917D01*
X416087Y547518D02*
X442915D01*
X436142Y597833D02*
X442862D01*
X442711Y424211D02*
X442853D01*
X420541Y552125D02*
X442850D01*
X414619Y589684D02*
X442762D01*
X394882Y601022D02*
X442761D01*
X414502Y579762D02*
X442761D01*
X414082Y549999D02*
X442681D01*
X436683Y587558D02*
X442680D01*
X416076Y545747D02*
X442637D01*
X416154Y547164D02*
X442635D01*
X420486Y551770D02*
X442525D01*
X416148Y546101D02*
X442495D01*
X416186Y546810D02*
X442494D01*
X415048Y589329D02*
X442461D01*
X416184Y546455D02*
X442451D01*
X412741Y550353D02*
X442438D01*
X436649Y587912D02*
X442419D01*
X436672Y603503D02*
X442417D01*
X436270Y582243D02*
X442417D01*
X436878Y595353D02*
X442371D01*
X436528Y590392D02*
X442367D01*
X420332Y551416D02*
X442359D01*
X416008Y575510D02*
X442327D01*
X435423Y577636D02*
X442324D01*
X394882Y550707D02*
X442320D01*
X435682Y588975D02*
X442308D01*
X420030Y551062D02*
X442295D01*
X436520Y588266D02*
X442289D01*
X416096Y597479D02*
X442283D01*
X436372Y607400D02*
X442274D01*
X436260Y588621D02*
X442254D01*
X435870Y601377D02*
X442248D01*
X413807Y580117D02*
X442248D01*
X436826Y603148D02*
X442092D01*
X436163Y581888D02*
X442092D01*
X435870Y604920D02*
X442080D01*
X436814Y595707D02*
X442069D01*
X434689Y575865D02*
X442046D01*
X435497Y577282D02*
X442045D01*
X416159Y597125D02*
X442024D01*
X394882Y592873D02*
X442023D01*
X436454Y601731D02*
X442005D01*
X394882Y580471D02*
X442005D01*
X436879Y602794D02*
X441926D01*
X435937Y581534D02*
X441926D01*
X436648Y596062D02*
X441915D01*
X435150Y576219D02*
X441905D01*
X435482Y576928D02*
X441904D01*
X416187Y596770D02*
X441895D01*
X436715Y602085D02*
X441887D01*
X394882Y580825D02*
X441887D01*
X436845Y602440D02*
X441862D01*
X435477Y581180D02*
X441862D01*
X436324Y596416D02*
X441861D01*
X435375Y576573D02*
X441860D01*
X436753Y590747D02*
X441854D01*
X436672Y607046D02*
X441817D01*
X436454Y605274D02*
X441727D01*
X436271Y592518D02*
X441699D01*
X436860Y591101D02*
X441611D01*
X436826Y606692D02*
X441592D01*
X436715Y605629D02*
X441546D01*
X436621Y592164D02*
X441532D01*
X436875Y591455D02*
X441493D01*
X436879Y606337D02*
X441486D01*
X436845Y605983D02*
X441471D01*
X436801Y591810D02*
X441469D01*
X394882Y471337D02*
X441412D01*
X436270Y468857D02*
X441351D01*
X416189Y426692D02*
X441215D01*
X425196Y570550D02*
X441018D01*
X394882Y470983D02*
X440996D01*
X436285Y469211D02*
X440968D01*
X424497Y568070D02*
X440957D01*
X394882Y470629D02*
X440788D01*
X440596Y426337D02*
X440781D01*
X436211Y469566D02*
X440773D01*
X435680Y470274D02*
X440692D01*
X436031Y469920D02*
X440688D01*
X425475Y570196D02*
X440603D01*
X425193Y568424D02*
X440574D01*
X425616Y569841D02*
X440394D01*
X425473Y568778D02*
X440379D01*
X425659Y569487D02*
X440299D01*
X425615Y569133D02*
X440294D01*
X415856Y535117D02*
X439917D01*
X416067Y537597D02*
X439714D01*
X415995Y535471D02*
X439457D01*
X416142Y537243D02*
X439363D01*
X394882Y620510D02*
X439251D01*
X416095Y535825D02*
X439231D01*
X416182Y536888D02*
X439183D01*
X394882Y622991D02*
X439181D01*
X416175Y426337D02*
X439168D01*
X416159Y536180D02*
X439124D01*
X416187Y536534D02*
X439109D01*
X427376Y423857D02*
X439107D01*
X394882Y620865D02*
X438833D01*
X394882Y622636D02*
X438801D01*
X416128Y425983D02*
X438752D01*
X426585Y424211D02*
X438724D01*
X394882Y621219D02*
X438623D01*
X394882Y622282D02*
X438607D01*
X416045Y425629D02*
X438544D01*
X415545Y424566D02*
X438529D01*
X394882Y621573D02*
X438527D01*
X394882Y621928D02*
X438522D01*
X415923Y425274D02*
X438448D01*
X415759Y424920D02*
X438444D01*
X415492Y518818D02*
X438267D01*
X415203Y519172D02*
X437849D01*
X414826Y519526D02*
X437639D01*
X414308Y519881D02*
X437543D01*
X432862Y520235D02*
X437314D01*
X428642Y452912D02*
X437303D01*
X413434Y523070D02*
X437301D01*
X428978Y459999D02*
X436967D01*
X433245Y520589D02*
X436618D01*
X432800Y522715D02*
X436615D01*
X433439Y520944D02*
X436338D01*
X433216Y522361D02*
X436336D01*
X429652Y453266D02*
X436292D01*
X433525Y521298D02*
X436196D01*
X433425Y522007D02*
X436195D01*
X433520Y521652D02*
X436152D01*
X429799Y459644D02*
X436146D01*
X430200Y453621D02*
X435744D01*
X430301Y459290D02*
X435644D01*
X394882Y561337D02*
X435581D01*
X415463Y558857D02*
X435387D01*
X430592Y453975D02*
X435353D01*
X430667Y458936D02*
X435278D01*
X394882Y560983D02*
X435124D01*
X416022Y607755D02*
X435119D01*
X425085Y557440D02*
X435078D01*
X430890Y454329D02*
X435055D01*
X415166Y559211D02*
X435034D01*
X430948Y458581D02*
X434997D01*
X415759Y604920D02*
X434996D01*
X394882Y601377D02*
X434996D01*
X416172Y567007D02*
X434916D01*
X394882Y560629D02*
X434899D01*
X415892Y608109D02*
X434887D01*
X415004Y593936D02*
X434887D01*
X424478Y564526D02*
X434855D01*
X414777Y559566D02*
X434853D01*
X431121Y454684D02*
X434824D01*
X413997Y590038D02*
X434799D01*
X413283Y560274D02*
X434793D01*
X415373Y588975D02*
X434791D01*
X431166Y458227D02*
X434779D01*
X414237Y559920D02*
X434779D01*
X420595Y554959D02*
X434743D01*
X415996Y597833D02*
X434724D01*
X413079Y600314D02*
X434654D01*
X431298Y455038D02*
X434646D01*
X431333Y457873D02*
X434612D01*
X394882Y592518D02*
X434595D01*
X425122Y557085D02*
X434568D01*
X394882Y610589D02*
X434543D01*
X416181Y596416D02*
X434543D01*
X431432Y455392D02*
X434513D01*
X416189Y566652D02*
X434500D01*
X416113Y607400D02*
X434494D01*
X414916Y603857D02*
X434494D01*
X431456Y457518D02*
X434489D01*
X424444Y564881D02*
X434472D01*
X431525Y455747D02*
X434420D01*
X420353Y555314D02*
X434417D01*
X415923Y605274D02*
X434412D01*
X394882Y601731D02*
X434412D01*
X431541Y457164D02*
X434404D01*
X415717Y608463D02*
X434374D01*
X415338Y594290D02*
X434374D01*
X431581Y456101D02*
X434364D01*
X431589Y456810D02*
X434356D01*
X431602Y456455D02*
X434343D01*
X394882Y590392D02*
X434338D01*
X425084Y556731D02*
X434327D01*
X415857Y598188D02*
X434306D01*
X416172Y566298D02*
X434292D01*
X416186Y586495D02*
X434285D01*
X424315Y565235D02*
X434277D01*
X414161Y599959D02*
X434273D01*
X424356Y555668D02*
X434250D01*
X394882Y592164D02*
X434245D01*
X413444Y610235D02*
X434218D01*
X416141Y596062D02*
X434218D01*
X415624Y588621D02*
X434212D01*
X424966Y556377D02*
X434209D01*
X394882Y581180D02*
X434208D01*
X431736Y467794D02*
X434208D01*
X423477Y565944D02*
X434196D01*
X416168Y607046D02*
X434194D01*
X414436Y603503D02*
X434194D01*
X424055Y565589D02*
X434192D01*
X424747Y556022D02*
X434185D01*
X416045Y605629D02*
X434151D01*
X394882Y602085D02*
X434151D01*
X415492Y608818D02*
X434131D01*
X415598Y594644D02*
X434131D01*
X394882Y590747D02*
X434113D01*
X416153Y586140D02*
X434101D01*
X415672Y598542D02*
X434096D01*
X414726Y599605D02*
X434079D01*
X394882Y591810D02*
X434065D01*
X414308Y609881D02*
X434052D01*
X416066Y595707D02*
X434052D01*
X416189Y606692D02*
X434040D01*
X413692Y603148D02*
X434040D01*
X416128Y605983D02*
X434021D01*
X394882Y602440D02*
X434021D01*
X415086Y584014D02*
X434018D01*
X415203Y609172D02*
X434013D01*
X415799Y594999D02*
X434013D01*
X394882Y591101D02*
X434006D01*
X414670Y583660D02*
X434005D01*
X431940Y470274D02*
X434005D01*
X415434Y598896D02*
X434000D01*
X416184Y586849D02*
X433999D01*
X415128Y599251D02*
X433995D01*
X394882Y591455D02*
X433991D01*
X414826Y609526D02*
X433988D01*
X415953Y595353D02*
X433988D01*
X416175Y606337D02*
X433987D01*
X394882Y602794D02*
X433987D01*
X394882Y431298D02*
X433972D01*
X415820Y588266D02*
X433953D01*
X416148Y587203D02*
X433844D01*
X415969Y587912D02*
X433824D01*
X416086Y585786D02*
X433800D01*
X416077Y587558D02*
X433790D01*
X415402Y584369D02*
X433757D01*
X394882Y581534D02*
X433748D01*
X432197Y468148D02*
X433748D01*
X414076Y583306D02*
X433654D01*
X432291Y469920D02*
X433654D01*
X415982Y585432D02*
X433647D01*
X415647Y584723D02*
X433627D01*
X415837Y585077D02*
X433593D01*
X394882Y581888D02*
X433522D01*
X432423Y468503D02*
X433522D01*
X412701Y582951D02*
X433475D01*
X432470Y469566D02*
X433475D01*
X414823Y433778D02*
X433471D01*
X416104Y575865D02*
X433421D01*
X394882Y582243D02*
X433415D01*
X432530Y468857D02*
X433415D01*
X394882Y582597D02*
X433400D01*
X432545Y469211D02*
X433400D01*
X394882Y431652D02*
X433388D01*
X415781Y578345D02*
X433218D01*
X414303Y433424D02*
X433170D01*
X394882Y432007D02*
X433127D01*
X413434Y433070D02*
X433017D01*
X394882Y432361D02*
X432998D01*
X394882Y432715D02*
X432963D01*
X416163Y576219D02*
X432961D01*
X415940Y577991D02*
X432867D01*
X416188Y576573D02*
X432735D01*
X416056Y577636D02*
X432687D01*
X416179Y576928D02*
X432628D01*
X416135Y577282D02*
X432613D01*
X431889Y513857D02*
X432554D01*
X431190Y511377D02*
X432493D01*
X420841Y445825D02*
X432429D01*
X394882Y441573D02*
X432313D01*
X416128Y527322D02*
X432196D01*
X413699Y530156D02*
X432183D01*
X415274Y439093D02*
X432119D01*
X431891Y511731D02*
X432093D01*
X414156Y443345D02*
X431938D01*
X394882Y441219D02*
X431856D01*
X420477Y445471D02*
X431850D01*
X414919Y439448D02*
X431766D01*
X414723Y443699D02*
X431636D01*
X394882Y440865D02*
X431631D01*
X415856Y445117D02*
X431591D01*
X414441Y439802D02*
X431586D01*
X394882Y440510D02*
X431525D01*
X413699Y440156D02*
X431511D01*
X416045Y527676D02*
X431500D01*
X414441Y529802D02*
X431497D01*
X415125Y444054D02*
X431482D01*
X415671Y444762D02*
X431462D01*
X415432Y444408D02*
X431428D01*
X394882Y522715D02*
X431373D01*
X413444Y520235D02*
X431312D01*
X415924Y528030D02*
X431220D01*
X414919Y529448D02*
X431218D01*
X415760Y528385D02*
X431078D01*
X415274Y529093D02*
X431077D01*
X415547Y528739D02*
X431033D01*
X394882Y522361D02*
X430957D01*
X394882Y520589D02*
X430929D01*
X394882Y522007D02*
X430748D01*
X394882Y520944D02*
X430734D01*
X428040Y415707D02*
X430703D01*
X394882Y521652D02*
X430653D01*
X394882Y521298D02*
X430648D01*
X429761Y511377D02*
X430621D01*
X428571Y419251D02*
X430618D01*
X415271Y514211D02*
X430608D01*
X416009Y467794D02*
X430468D01*
X413283Y470274D02*
X430265D01*
X428264Y416062D02*
X430180D01*
X428571Y418896D02*
X430137D01*
X415874Y468148D02*
X430008D01*
X414916Y513857D02*
X429923D01*
X414237Y469920D02*
X429914D01*
X428419Y416416D02*
X429883D01*
X428571Y418542D02*
X429856D01*
X415695Y468503D02*
X429782D01*
X414777Y469566D02*
X429734D01*
X428517Y416770D02*
X429699D01*
X428571Y418188D02*
X429683D01*
X415463Y468857D02*
X429675D01*
X415166Y469211D02*
X429660D01*
X428565Y417125D02*
X429595D01*
X428571Y417833D02*
X429587D01*
X428571Y417479D02*
X429559D01*
X394882Y511022D02*
X428303D01*
X414436Y513503D02*
X427801D01*
X394882Y511377D02*
X427719D01*
X413692Y513148D02*
X427501D01*
X394882Y511731D02*
X427458D01*
X394882Y512794D02*
X427348D01*
X394882Y512085D02*
X427328D01*
X394882Y512440D02*
X427294D01*
X394882Y452912D02*
X427264D01*
X414082Y459999D02*
X426927D01*
X394882Y623699D02*
X426627D01*
X413991Y453266D02*
X426253D01*
X414673Y459644D02*
X426107D01*
X417853Y414644D02*
X425718D01*
X414615Y453621D02*
X425705D01*
X415089Y459290D02*
X425605D01*
X394882Y624054D02*
X425516D01*
X415045Y453975D02*
X425314D01*
X415404Y458936D02*
X425238D01*
X415271Y424211D02*
X425226D01*
X415370Y454329D02*
X425016D01*
X416857Y399054D02*
X424985D01*
X420084Y407203D02*
X424978D01*
X415649Y458581D02*
X424958D01*
X394882Y624408D02*
X424830D01*
X415623Y454684D02*
X424785D01*
X415839Y458227D02*
X424740D01*
X415819Y455038D02*
X424607D01*
X415983Y457873D02*
X424573D01*
X417599Y414999D02*
X424566D01*
X415968Y455392D02*
X424474D01*
X416087Y457518D02*
X424449D01*
X414916Y423857D02*
X424435D01*
X416076Y455747D02*
X424381D01*
X416154Y457164D02*
X424365D01*
X417163Y399408D02*
X424326D01*
X416148Y456101D02*
X424325D01*
X420071Y406849D02*
X424322D01*
X416186Y456810D02*
X424317D01*
X416184Y456455D02*
X424303D01*
X417326Y415353D02*
X424089D01*
X414436Y423503D02*
X424005D01*
X417448Y399762D02*
X423933D01*
X420048Y406495D02*
X423931D01*
X415908Y568070D02*
X423928D01*
X394882Y570904D02*
X423915D01*
X417032Y415707D02*
X423771D01*
X415694Y574802D02*
X423767D01*
X413692Y423148D02*
X423712D01*
X417713Y400117D02*
X423662D01*
X420015Y406140D02*
X423660D01*
X416715Y416062D02*
X423547D01*
X394882Y422794D02*
X423506D01*
X394882Y561692D02*
X423474D01*
X417958Y400471D02*
X423471D01*
X419972Y405786D02*
X423469D01*
X416373Y416416D02*
X423392D01*
X394882Y422440D02*
X423365D01*
X418187Y400825D02*
X423342D01*
X419919Y405432D02*
X423341D01*
X416002Y416770D02*
X423294D01*
X394882Y422085D02*
X423279D01*
X394882Y572322D02*
X423277D01*
X418399Y401180D02*
X423267D01*
X419856Y405077D02*
X423266D01*
X415599Y417125D02*
X423246D01*
X394882Y421731D02*
X423242D01*
X418596Y401534D02*
X423240D01*
X419781Y404723D02*
X423240D01*
X394882Y421377D02*
X423240D01*
X394882Y421022D02*
X423240D01*
X394882Y420668D02*
X423240D01*
X394882Y420314D02*
X423240D01*
X409267Y419959D02*
X423240D01*
X410932Y419605D02*
X423240D01*
X411995Y419251D02*
X423240D01*
X412828Y418896D02*
X423240D01*
X413527Y418542D02*
X423240D01*
X414134Y418188D02*
X423240D01*
X414673Y417833D02*
X423240D01*
X415158Y417479D02*
X423240D01*
X419697Y404369D02*
X423240D01*
X419601Y404014D02*
X423240D01*
X419494Y403660D02*
X423240D01*
X419375Y403306D02*
X423240D01*
X419245Y402951D02*
X423240D01*
X419102Y402597D02*
X423240D01*
X418947Y402243D02*
X423240D01*
X418779Y401888D02*
X423240D01*
X415739Y568424D02*
X423232D01*
X394882Y570550D02*
X423230D01*
X415462Y574448D02*
X423189D01*
X394882Y562046D02*
X423172D01*
X394882Y562400D02*
X423018D01*
X394882Y572676D02*
X422975D01*
X394882Y562755D02*
X422963D01*
X415520Y568778D02*
X422952D01*
X413580Y570196D02*
X422950D01*
X415163Y574093D02*
X422929D01*
X413571Y563109D02*
X422880D01*
X413271Y573030D02*
X422821D01*
X415239Y569133D02*
X422810D01*
X414376Y569841D02*
X422809D01*
X414774Y573739D02*
X422800D01*
X414232Y573385D02*
X422766D01*
X414873Y569487D02*
X422766D01*
X420327Y565944D02*
X422586D01*
X419844Y555668D02*
X422494D01*
X415695Y558503D02*
X422490D01*
X416135Y556022D02*
X422104D01*
X415874Y558148D02*
X422101D01*
X420817Y563463D02*
X422096D01*
X420906Y565589D02*
X422008D01*
X416179Y556377D02*
X421884D01*
X416009Y557794D02*
X421883D01*
X421120Y563818D02*
X421794D01*
X416188Y556731D02*
X421766D01*
X416105Y557440D02*
X421765D01*
X421165Y565235D02*
X421748D01*
X416164Y557085D02*
X421728D01*
X421275Y564172D02*
X421638D01*
X421338Y564881D02*
X421575D01*
X394882Y491180D02*
X420733D01*
X415940Y487991D02*
X420631D01*
X394882Y490825D02*
X420122D01*
X415781Y488345D02*
X420082D01*
X415200Y614133D02*
X419996D01*
X394882Y490471D02*
X419824D01*
X415574Y488699D02*
X419801D01*
X416189Y616613D02*
X419792D01*
X413807Y490117D02*
X419655D01*
X415308Y489054D02*
X419642D01*
X414502Y489762D02*
X419574D01*
X414964Y489408D02*
X419570D01*
X415490Y614487D02*
X419535D01*
X416168Y616259D02*
X419442D01*
X416120Y565944D02*
X419437D01*
X415716Y614841D02*
X419310D01*
X416113Y615904D02*
X419262D01*
X415890Y615196D02*
X419203D01*
X416021Y615550D02*
X419188D01*
X414371Y563463D02*
X418946D01*
X416033Y565589D02*
X418858D01*
X416056Y555668D02*
X418739D01*
X414870Y563818D02*
X418644D01*
X415801Y448306D02*
X418616D01*
X415907Y565235D02*
X418598D01*
X415995Y445471D02*
X418500D01*
X415236Y564172D02*
X418490D01*
X415738Y564881D02*
X418469D01*
X415518Y564526D02*
X418436D01*
X415938Y555314D02*
X418230D01*
X415954Y447951D02*
X418197D01*
X394882Y551062D02*
X418159D01*
X416095Y445825D02*
X418136D01*
X417007Y553542D02*
X418078D01*
X417248Y553188D02*
X418071D01*
X415779Y554959D02*
X417988D01*
X416067Y447597D02*
X417964D01*
X416159Y446180D02*
X417929D01*
X416497Y553896D02*
X417911D01*
X415572Y554605D02*
X417871D01*
X416832Y551416D02*
X417857D01*
X415306Y554251D02*
X417847D01*
X416142Y447243D02*
X417837D01*
X416187Y446534D02*
X417821D01*
X417366Y552833D02*
X417811D01*
X416182Y446888D02*
X417792D01*
X417158Y551770D02*
X417703D01*
X417405Y552125D02*
X417528D01*
X394882Y551416D02*
X415058D01*
X394882Y551770D02*
X414732D01*
X413800Y553188D02*
X414642D01*
X394882Y552125D02*
X414565D01*
X394882Y552833D02*
X414524D01*
X394882Y552479D02*
X414500D01*
X402701Y582951D02*
X412259D01*
X402701Y492951D02*
X412259D01*
X402741Y550353D02*
X412219D01*
X402741Y460353D02*
X412219D01*
X403062Y532991D02*
X411898D01*
X403062Y442991D02*
X411898D01*
X403079Y600314D02*
X411882D01*
X403079Y510314D02*
X411882D01*
X403271Y573030D02*
X411689D01*
X403271Y483030D02*
X411689D01*
X403283Y560274D02*
X411677D01*
X403283Y470274D02*
X411677D01*
X403434Y613070D02*
X411527D01*
X403434Y523070D02*
X411527D01*
X403434Y433070D02*
X411527D01*
X403444Y610235D02*
X411517D01*
X403444Y520235D02*
X411517D01*
X403444Y430235D02*
X411517D01*
X403571Y563109D02*
X411389D01*
X403571Y473109D02*
X411389D01*
X403580Y570196D02*
X411381D01*
X403580Y480196D02*
X411381D01*
X403692Y603148D02*
X411269D01*
X403692Y513148D02*
X411269D01*
X403692Y423148D02*
X411269D01*
X403699Y620156D02*
X411261D01*
X403699Y530156D02*
X411261D01*
X403699Y440156D02*
X411261D01*
X403800Y553188D02*
X411160D01*
X403800Y463188D02*
X411160D01*
X403807Y580117D02*
X411154D01*
X403807Y490117D02*
X411154D01*
X403899Y593227D02*
X411061D01*
X403899Y503227D02*
X411061D01*
X403906Y540077D02*
X411055D01*
X403906Y450077D02*
X411055D01*
X403991Y543266D02*
X410970D01*
X403991Y453266D02*
X410970D01*
X403997Y590038D02*
X410964D01*
X403997Y500038D02*
X410964D01*
X404076Y583306D02*
X410884D01*
X404076Y493306D02*
X410884D01*
X404082Y549999D02*
X410879D01*
X404082Y459999D02*
X410879D01*
X404156Y533345D02*
X410804D01*
X404156Y443345D02*
X410804D01*
X404161Y599959D02*
X410799D01*
X404161Y509959D02*
X410799D01*
X404232Y573385D02*
X410729D01*
X404232Y483385D02*
X410729D01*
X404237Y559920D02*
X410724D01*
X404237Y469920D02*
X410724D01*
X404303Y613424D02*
X410657D01*
X404303Y523424D02*
X410657D01*
X404303Y433424D02*
X410657D01*
X404308Y609881D02*
X410653D01*
X404308Y519881D02*
X410653D01*
X404308Y429881D02*
X410653D01*
X404371Y563463D02*
X410589D01*
X404371Y473463D02*
X410589D01*
X404376Y569841D02*
X410585D01*
X404376Y479841D02*
X410585D01*
X404436Y603503D02*
X410524D01*
X404436Y513503D02*
X410524D01*
X404436Y423503D02*
X410524D01*
X404441Y619802D02*
X410520D01*
X404441Y529802D02*
X410520D01*
X404441Y439802D02*
X410520D01*
X404498Y553542D02*
X410462D01*
X404498Y463542D02*
X410462D01*
X404502Y579762D02*
X410458D01*
X404502Y489762D02*
X410458D01*
X404558Y593581D02*
X410403D01*
X404558Y503581D02*
X410403D01*
X404562Y539723D02*
X410399D01*
X404562Y449723D02*
X410399D01*
X404615Y543621D02*
X410346D01*
X404615Y453621D02*
X410346D01*
X404619Y589684D02*
X410342D01*
X404619Y499684D02*
X410342D01*
X404670Y583660D02*
X410291D01*
X404670Y493660D02*
X410291D01*
X404673Y549644D02*
X410287D01*
X404673Y459644D02*
X410287D01*
X404723Y533699D02*
X410238D01*
X404723Y443699D02*
X410238D01*
X404726Y599605D02*
X410235D01*
X404726Y509605D02*
X410235D01*
X404774Y573739D02*
X410187D01*
X404774Y483739D02*
X410187D01*
X404777Y559566D02*
X410184D01*
X404777Y469566D02*
X410184D01*
X404823Y613778D02*
X410138D01*
X404823Y523778D02*
X410138D01*
X404823Y433778D02*
X410138D01*
X404826Y609526D02*
X410135D01*
X404826Y519526D02*
X410135D01*
X404826Y429526D02*
X410135D01*
X404870Y563818D02*
X410090D01*
X404870Y473818D02*
X410090D01*
X404873Y569487D02*
X410087D01*
X404873Y479487D02*
X410087D01*
X404916Y603857D02*
X410044D01*
X404916Y513857D02*
X410044D01*
X404916Y423857D02*
X410044D01*
X404919Y619448D02*
X410041D01*
X404919Y529448D02*
X410041D01*
X404919Y439448D02*
X410041D01*
X404961Y553896D02*
X410000D01*
X404961Y463896D02*
X410000D01*
X404964Y579408D02*
X409997D01*
X404964Y489408D02*
X409997D01*
X405004Y593936D02*
X409957D01*
X405004Y503936D02*
X409957D01*
X405007Y539369D02*
X409954D01*
X405007Y449369D02*
X409954D01*
X405045Y543975D02*
X409915D01*
X405045Y453975D02*
X409915D01*
X405048Y589329D02*
X409912D01*
X405048Y499329D02*
X409912D01*
X405086Y584014D02*
X409875D01*
X405086Y494014D02*
X409875D01*
X405089Y549290D02*
X409872D01*
X405089Y459290D02*
X409872D01*
X405125Y534054D02*
X409835D01*
X405125Y444054D02*
X409835D01*
X405128Y599251D02*
X409833D01*
X405128Y509251D02*
X409833D01*
X405163Y574093D02*
X409797D01*
X405163Y484093D02*
X409797D01*
X405166Y559211D02*
X409795D01*
X405166Y469211D02*
X409795D01*
X405200Y614133D02*
X409760D01*
X405200Y524133D02*
X409760D01*
X405200Y434133D02*
X409760D01*
X405203Y609172D02*
X409758D01*
X405203Y519172D02*
X409758D01*
X405203Y429172D02*
X409758D01*
X405236Y564172D02*
X409724D01*
X405236Y474172D02*
X409724D01*
X405239Y569133D02*
X409722D01*
X405239Y479133D02*
X409722D01*
X405271Y604211D02*
X409689D01*
X405271Y514211D02*
X409689D01*
X405271Y424211D02*
X409689D01*
X405274Y619093D02*
X409687D01*
X405274Y529093D02*
X409687D01*
X405274Y439093D02*
X409687D01*
X405305Y554251D02*
X409655D01*
X405305Y464251D02*
X409655D01*
X405308Y579054D02*
X409653D01*
X405308Y489054D02*
X409653D01*
X405338Y594290D02*
X409622D01*
X405338Y504290D02*
X409622D01*
X405340Y539014D02*
X409620D01*
X405340Y449014D02*
X409620D01*
X405370Y544329D02*
X409590D01*
X405370Y454329D02*
X409590D01*
X405373Y588975D02*
X409588D01*
X405373Y498975D02*
X409588D01*
X405402Y584369D02*
X409559D01*
X405402Y494369D02*
X409559D01*
X405404Y548936D02*
X409557D01*
X405404Y458936D02*
X409557D01*
X405432Y534408D02*
X409529D01*
X405432Y444408D02*
X409529D01*
X405434Y598896D02*
X409527D01*
X405434Y508896D02*
X409527D01*
X405462Y574448D02*
X409499D01*
X405462Y484448D02*
X409499D01*
X405463Y558857D02*
X409497D01*
X405463Y468857D02*
X409497D01*
X405490Y614487D02*
X409470D01*
X405490Y524487D02*
X409470D01*
X405490Y434487D02*
X409470D01*
X405492Y608818D02*
X409468D01*
X405492Y518818D02*
X409468D01*
X405492Y428818D02*
X409468D01*
X405518Y564526D02*
X409442D01*
X405518Y474526D02*
X409442D01*
X405520Y568778D02*
X409441D01*
X405520Y478778D02*
X409441D01*
X405545Y604566D02*
X409415D01*
X405545Y514566D02*
X409415D01*
X405545Y424566D02*
X409415D01*
X405547Y618739D02*
X409413D01*
X405547Y528739D02*
X409413D01*
X405547Y438739D02*
X409413D01*
X405572Y554605D02*
X409389D01*
X405572Y464605D02*
X409389D01*
X405574Y578699D02*
X409387D01*
X405574Y488699D02*
X409387D01*
X405598Y594644D02*
X409363D01*
X405598Y504644D02*
X409363D01*
X405599Y538660D02*
X409361D01*
X405599Y448660D02*
X409361D01*
X405623Y544684D02*
X409338D01*
X405623Y454684D02*
X409338D01*
X405624Y588621D02*
X409336D01*
X405624Y498621D02*
X409336D01*
X405647Y584723D02*
X409314D01*
X405647Y494723D02*
X409314D01*
X405649Y548581D02*
X409312D01*
X405649Y458581D02*
X409312D01*
X405671Y534762D02*
X409290D01*
X405671Y444762D02*
X409290D01*
X405672Y598542D02*
X409288D01*
X405672Y508542D02*
X409288D01*
X405694Y574802D02*
X409267D01*
X405694Y484802D02*
X409267D01*
X405695Y558503D02*
X409265D01*
X405695Y468503D02*
X409265D01*
X405716Y614841D02*
X409245D01*
X405716Y524841D02*
X409245D01*
X405716Y434841D02*
X409245D01*
X405717Y608463D02*
X409243D01*
X405717Y518463D02*
X409243D01*
X405717Y428463D02*
X409243D01*
X405738Y564881D02*
X409223D01*
X405738Y474881D02*
X409223D01*
X405739Y568424D02*
X409221D01*
X405739Y478424D02*
X409221D01*
X405759Y604920D02*
X409202D01*
X405759Y514920D02*
X409202D01*
X405759Y424920D02*
X409202D01*
X405760Y618385D02*
X409200D01*
X405760Y528385D02*
X409200D01*
X405760Y438385D02*
X409200D01*
X405779Y554959D02*
X409181D01*
X405779Y464959D02*
X409181D01*
X405781Y578345D02*
X409180D01*
X405781Y488345D02*
X409180D01*
X405799Y594999D02*
X409161D01*
X405799Y504999D02*
X409161D01*
X405801Y538306D02*
X409160D01*
X405801Y448306D02*
X409160D01*
X405819Y545038D02*
X409142D01*
X405819Y455038D02*
X409142D01*
X405820Y588266D02*
X409141D01*
X405820Y498266D02*
X409141D01*
X405837Y585077D02*
X409123D01*
X405837Y495077D02*
X409123D01*
X405839Y548227D02*
X409122D01*
X405839Y458227D02*
X409122D01*
X405856Y535117D02*
X409105D01*
X405856Y445117D02*
X409105D01*
X405857Y598188D02*
X409104D01*
X405857Y508188D02*
X409104D01*
X405873Y575156D02*
X409087D01*
X405873Y485156D02*
X409087D01*
X405874Y558148D02*
X409086D01*
X405874Y468148D02*
X409086D01*
X405890Y615196D02*
X409070D01*
X405890Y525196D02*
X409070D01*
X405890Y435196D02*
X409070D01*
X405892Y608109D02*
X409069D01*
X405892Y518109D02*
X409069D01*
X405892Y428109D02*
X409069D01*
X405907Y565235D02*
X409054D01*
X405907Y475235D02*
X409054D01*
X405908Y568070D02*
X409053D01*
X405908Y478070D02*
X409053D01*
X405923Y605274D02*
X409038D01*
X405923Y515274D02*
X409038D01*
X405923Y425274D02*
X409038D01*
X405924Y618030D02*
X409037D01*
X405924Y528030D02*
X409037D01*
X405924Y438030D02*
X409037D01*
X405938Y555314D02*
X409022D01*
X405938Y465314D02*
X409022D01*
X405940Y577991D02*
X409021D01*
X405940Y487991D02*
X409021D01*
X405953Y595353D02*
X409007D01*
X405953Y505353D02*
X409007D01*
X405954Y537951D02*
X409006D01*
X405954Y447951D02*
X409006D01*
X405968Y545392D02*
X408993D01*
X405968Y455392D02*
X408993D01*
X405969Y587912D02*
X408992D01*
X405969Y497912D02*
X408992D01*
X405982Y585432D02*
X408979D01*
X405982Y495432D02*
X408979D01*
X405983Y547873D02*
X408978D01*
X405983Y457873D02*
X408978D01*
X405995Y535471D02*
X408965D01*
X405995Y445471D02*
X408965D01*
X405996Y597833D02*
X408964D01*
X405996Y507833D02*
X408964D01*
X406008Y575510D02*
X408952D01*
X406008Y485510D02*
X408952D01*
X406009Y557794D02*
X408951D01*
X406009Y467794D02*
X408951D01*
X406021Y615550D02*
X408940D01*
X406021Y525550D02*
X408940D01*
X406021Y435550D02*
X408940D01*
X406022Y607755D02*
X408939D01*
X406022Y517755D02*
X408939D01*
X406022Y427755D02*
X408939D01*
X406033Y565589D02*
X408928D01*
X406033Y475589D02*
X408928D01*
X406034Y567715D02*
X408927D01*
X406034Y477715D02*
X408927D01*
X406045Y605629D02*
X408916D01*
X406045Y515629D02*
X408916D01*
X406045Y425629D02*
X408916D01*
X406045Y617676D02*
X408915D01*
X406045Y527676D02*
X408915D01*
X406045Y437676D02*
X408915D01*
X406056Y555668D02*
X408905D01*
X406056Y465668D02*
X408905D01*
X406056Y577636D02*
X408904D01*
X406056Y487636D02*
X408904D01*
X406066Y595707D02*
X408894D01*
X406066Y505707D02*
X408894D01*
X406067Y537597D02*
X408894D01*
X406067Y447597D02*
X408894D01*
X406076Y545747D02*
X408884D01*
X406076Y455747D02*
X408884D01*
X406077Y587558D02*
X408884D01*
X406077Y497558D02*
X408884D01*
X406086Y585786D02*
X408875D01*
X406086Y495786D02*
X408875D01*
X406087Y547518D02*
X408874D01*
X406087Y457518D02*
X408874D01*
X406095Y535825D02*
X408865D01*
X406095Y445825D02*
X408865D01*
X406096Y597479D02*
X408865D01*
X406096Y507479D02*
X408865D01*
X406104Y575865D02*
X408856D01*
X406104Y485865D02*
X408856D01*
X406105Y557440D02*
X408856D01*
X406105Y467440D02*
X408856D01*
X406113Y615904D02*
X408848D01*
X406113Y525904D02*
X408848D01*
X406113Y435904D02*
X408848D01*
X406113Y607400D02*
X408848D01*
X406113Y517400D02*
X408848D01*
X406113Y427400D02*
X408848D01*
X406120Y565944D02*
X408840D01*
X406120Y475944D02*
X408840D01*
X406121Y567361D02*
X408840D01*
X406121Y477361D02*
X408840D01*
X406128Y605983D02*
X408833D01*
X406128Y515983D02*
X408833D01*
X406128Y425983D02*
X408833D01*
X406128Y617322D02*
X408832D01*
X406128Y527322D02*
X408832D01*
X406128Y437322D02*
X408832D01*
X406135Y556022D02*
X408826D01*
X406135Y466022D02*
X408826D01*
X406135Y577282D02*
X408825D01*
X406135Y487282D02*
X408825D01*
X406141Y596062D02*
X408819D01*
X406141Y506062D02*
X408819D01*
X406142Y537243D02*
X408819D01*
X406142Y447243D02*
X408819D01*
X406148Y546101D02*
X408813D01*
X406148Y456101D02*
X408813D01*
X406148Y587203D02*
X408813D01*
X406148Y497203D02*
X408813D01*
X406153Y586140D02*
X408807D01*
X406153Y496140D02*
X408807D01*
X406154Y547164D02*
X408807D01*
X406154Y457164D02*
X408807D01*
X406159Y536180D02*
X408802D01*
X406159Y446180D02*
X408802D01*
X406159Y597125D02*
X408802D01*
X406159Y507125D02*
X408802D01*
X406163Y576219D02*
X408797D01*
X406163Y486219D02*
X408797D01*
X406164Y557085D02*
X408797D01*
X406164Y467085D02*
X408797D01*
X406168Y616259D02*
X408793D01*
X406168Y526259D02*
X408793D01*
X406168Y436259D02*
X408793D01*
X406168Y607046D02*
X408792D01*
X406168Y517046D02*
X408792D01*
X406168Y427046D02*
X408792D01*
X406172Y566298D02*
X408789D01*
X406172Y476298D02*
X408789D01*
X406172Y567007D02*
X408788D01*
X406172Y477007D02*
X408788D01*
X406175Y606337D02*
X408785D01*
X406175Y516337D02*
X408785D01*
X406175Y426337D02*
X408785D01*
X406176Y616967D02*
X408785D01*
X406176Y526967D02*
X408785D01*
X406176Y436967D02*
X408785D01*
X406179Y556377D02*
X408782D01*
X406179Y466377D02*
X408782D01*
X406179Y576928D02*
X408782D01*
X406179Y486928D02*
X408782D01*
X406181Y596416D02*
X408779D01*
X406181Y506416D02*
X408779D01*
X406182Y536888D02*
X408779D01*
X406182Y446888D02*
X408779D01*
X406184Y546455D02*
X408777D01*
X406184Y456455D02*
X408777D01*
X406184Y586849D02*
X408777D01*
X406184Y496849D02*
X408777D01*
X406186Y586495D02*
X408775D01*
X406186Y496495D02*
X408775D01*
X406186Y546810D02*
X408775D01*
X406186Y456810D02*
X408775D01*
X406187Y536534D02*
X408774D01*
X406187Y446534D02*
X408774D01*
X406187Y596770D02*
X408773D01*
X406187Y506770D02*
X408773D01*
X406188Y576573D02*
X408772D01*
X406188Y486573D02*
X408772D01*
X406188Y556731D02*
X408772D01*
X406188Y466731D02*
X408772D01*
X406189Y616613D02*
X408772D01*
X406189Y526613D02*
X408772D01*
X406189Y436613D02*
X408772D01*
X406189Y606692D02*
X408772D01*
X406189Y516692D02*
X408772D01*
X406189Y426692D02*
X408772D01*
X406189Y566652D02*
X408772D01*
X406189Y476652D02*
X408772D01*
X394882Y419959D02*
X405693D01*
X394882Y419605D02*
X404029D01*
X394882Y419251D02*
X402966D01*
X394882Y582951D02*
X402259D01*
X394882Y492951D02*
X402259D01*
X394882Y550353D02*
X402219D01*
X394882Y460353D02*
X402219D01*
X394882Y418896D02*
X402133D01*
X394882Y532991D02*
X401898D01*
X394882Y442991D02*
X401898D01*
X394882Y600314D02*
X401882D01*
X394882Y510314D02*
X401882D01*
X394882Y573030D02*
X401689D01*
X394882Y483030D02*
X401689D01*
X394882Y560274D02*
X401677D01*
X394882Y470274D02*
X401677D01*
X394882Y613070D02*
X401527D01*
X394882Y523070D02*
X401527D01*
X394882Y433070D02*
X401527D01*
X394882Y610235D02*
X401517D01*
X394882Y520235D02*
X401517D01*
X394882Y430235D02*
X401517D01*
X394882Y418542D02*
X401434D01*
X394882Y563109D02*
X401389D01*
X394882Y473109D02*
X401389D01*
X394882Y570196D02*
X401381D01*
X394882Y480196D02*
X401381D01*
X394882Y603148D02*
X401269D01*
X394882Y513148D02*
X401269D01*
X394882Y423148D02*
X401269D01*
X394882Y620156D02*
X401261D01*
X394882Y530156D02*
X401261D01*
X394882Y440156D02*
X401261D01*
X394882Y553188D02*
X401160D01*
X394882Y463188D02*
X401160D01*
X394882Y580117D02*
X401154D01*
X394882Y490117D02*
X401154D01*
X394882Y593227D02*
X401061D01*
X394882Y503227D02*
X401061D01*
X394882Y540077D02*
X401055D01*
X394882Y450077D02*
X401055D01*
X394882Y543266D02*
X400970D01*
X394882Y453266D02*
X400970D01*
X394882Y590038D02*
X400964D01*
X394882Y500038D02*
X400964D01*
X394882Y583306D02*
X400884D01*
X394882Y493306D02*
X400884D01*
X394882Y549999D02*
X400879D01*
X394882Y459999D02*
X400879D01*
X394882Y418188D02*
X400827D01*
X394882Y533345D02*
X400804D01*
X394882Y443345D02*
X400804D01*
X394882Y599959D02*
X400799D01*
X394882Y509959D02*
X400799D01*
X394882Y573385D02*
X400729D01*
X394882Y483385D02*
X400729D01*
X394882Y559920D02*
X400724D01*
X394882Y469920D02*
X400724D01*
X394882Y613424D02*
X400657D01*
X394882Y523424D02*
X400657D01*
X394882Y433424D02*
X400657D01*
X394882Y609881D02*
X400653D01*
X394882Y519881D02*
X400653D01*
X394882Y429881D02*
X400653D01*
X394882Y563463D02*
X400589D01*
X394882Y473463D02*
X400589D01*
X394882Y569841D02*
X400585D01*
X394882Y479841D02*
X400585D01*
X394882Y603503D02*
X400524D01*
X394882Y513503D02*
X400524D01*
X394882Y423503D02*
X400524D01*
X394882Y619802D02*
X400520D01*
X394882Y529802D02*
X400520D01*
X394882Y439802D02*
X400520D01*
X394882Y553542D02*
X400462D01*
X394882Y463542D02*
X400462D01*
X394882Y579762D02*
X400458D01*
X394882Y489762D02*
X400458D01*
X394882Y593581D02*
X400403D01*
X394882Y503581D02*
X400403D01*
X394882Y539723D02*
X400399D01*
X394882Y449723D02*
X400399D01*
X394882Y543621D02*
X400346D01*
X394882Y453621D02*
X400346D01*
X394882Y589684D02*
X400342D01*
X394882Y499684D02*
X400342D01*
X394882Y583660D02*
X400291D01*
X394882Y493660D02*
X400291D01*
X394882Y417833D02*
X400288D01*
X394882Y549644D02*
X400287D01*
X394882Y459644D02*
X400287D01*
X394882Y533699D02*
X400238D01*
X394882Y443699D02*
X400238D01*
X394882Y599605D02*
X400235D01*
X394882Y509605D02*
X400235D01*
X394882Y573739D02*
X400187D01*
X394882Y483739D02*
X400187D01*
X394882Y559566D02*
X400184D01*
X394882Y469566D02*
X400184D01*
X394882Y613778D02*
X400138D01*
X394882Y523778D02*
X400138D01*
X394882Y433778D02*
X400138D01*
X394882Y609526D02*
X400135D01*
X394882Y519526D02*
X400135D01*
X394882Y429526D02*
X400135D01*
X394882Y563818D02*
X400090D01*
X394882Y473818D02*
X400090D01*
X394882Y569487D02*
X400087D01*
X394882Y479487D02*
X400087D01*
X394882Y603857D02*
X400044D01*
X394882Y513857D02*
X400044D01*
X394882Y423857D02*
X400044D01*
X394882Y619448D02*
X400041D01*
X394882Y529448D02*
X400041D01*
X394882Y439448D02*
X400041D01*
X394882Y553896D02*
X400000D01*
X394882Y463896D02*
X400000D01*
X394882Y579408D02*
X399997D01*
X394882Y489408D02*
X399997D01*
X394882Y593936D02*
X399957D01*
X394882Y503936D02*
X399957D01*
X394882Y539369D02*
X399954D01*
X394882Y449369D02*
X399954D01*
X394882Y543975D02*
X399915D01*
X394882Y453975D02*
X399915D01*
X394882Y589329D02*
X399912D01*
X394882Y499329D02*
X399912D01*
X394882Y584014D02*
X399875D01*
X394882Y494014D02*
X399875D01*
X394882Y549290D02*
X399872D01*
X394882Y459290D02*
X399872D01*
X394882Y534054D02*
X399835D01*
X394882Y444054D02*
X399835D01*
X394882Y599251D02*
X399833D01*
X394882Y509251D02*
X399833D01*
X394882Y417479D02*
X399803D01*
X394882Y574093D02*
X399797D01*
X394882Y484093D02*
X399797D01*
X394882Y559211D02*
X399795D01*
X394882Y469211D02*
X399795D01*
X394882Y614133D02*
X399760D01*
X394882Y524133D02*
X399760D01*
X394882Y434133D02*
X399760D01*
X394882Y609172D02*
X399758D01*
X394882Y519172D02*
X399758D01*
X394882Y429172D02*
X399758D01*
X394882Y564172D02*
X399724D01*
X394882Y474172D02*
X399724D01*
X394882Y569133D02*
X399722D01*
X394882Y479133D02*
X399722D01*
X394882Y604211D02*
X399689D01*
X394882Y514211D02*
X399689D01*
X394882Y424211D02*
X399689D01*
X394882Y619093D02*
X399687D01*
X394882Y529093D02*
X399687D01*
X394882Y439093D02*
X399687D01*
X394882Y554251D02*
X399655D01*
X394882Y464251D02*
X399655D01*
X394882Y579054D02*
X399653D01*
X394882Y489054D02*
X399653D01*
X394882Y594290D02*
X399622D01*
X394882Y504290D02*
X399622D01*
X394882Y539014D02*
X399620D01*
X394882Y449014D02*
X399620D01*
X394882Y544329D02*
X399590D01*
X394882Y454329D02*
X399590D01*
X394882Y588975D02*
X399588D01*
X394882Y498975D02*
X399588D01*
X394882Y584369D02*
X399559D01*
X394882Y494369D02*
X399559D01*
X394882Y548936D02*
X399557D01*
X394882Y458936D02*
X399557D01*
X394882Y534408D02*
X399529D01*
X394882Y444408D02*
X399529D01*
X394882Y598896D02*
X399527D01*
X394882Y508896D02*
X399527D01*
X394882Y574448D02*
X399499D01*
X394882Y484448D02*
X399499D01*
X394882Y558857D02*
X399497D01*
X394882Y468857D02*
X399497D01*
X394882Y614487D02*
X399470D01*
X394882Y524487D02*
X399470D01*
X394882Y434487D02*
X399470D01*
X394882Y608818D02*
X399468D01*
X394882Y518818D02*
X399468D01*
X394882Y428818D02*
X399468D01*
X394882Y564526D02*
X399442D01*
X394882Y474526D02*
X399442D01*
X394882Y568778D02*
X399441D01*
X394882Y478778D02*
X399441D01*
X394882Y604566D02*
X399415D01*
X394882Y514566D02*
X399415D01*
X394882Y424566D02*
X399415D01*
X394882Y618739D02*
X399413D01*
X394882Y528739D02*
X399413D01*
X394882Y438739D02*
X399413D01*
X394882Y554605D02*
X399389D01*
X394882Y464605D02*
X399389D01*
X394882Y578699D02*
X399387D01*
X394882Y488699D02*
X399387D01*
X394882Y594644D02*
X399363D01*
X394882Y504644D02*
X399363D01*
X394882Y417125D02*
X399362D01*
X394882Y538660D02*
X399361D01*
X394882Y448660D02*
X399361D01*
X394882Y544684D02*
X399338D01*
X394882Y454684D02*
X399338D01*
X394882Y588621D02*
X399336D01*
X394882Y498621D02*
X399336D01*
X394882Y584723D02*
X399314D01*
X394882Y494723D02*
X399314D01*
X394882Y548581D02*
X399312D01*
X394882Y458581D02*
X399312D01*
X394882Y534762D02*
X399290D01*
X394882Y444762D02*
X399290D01*
X394882Y598542D02*
X399288D01*
X394882Y508542D02*
X399288D01*
X394882Y574802D02*
X399267D01*
X394882Y484802D02*
X399267D01*
X394882Y558503D02*
X399265D01*
X394882Y468503D02*
X399265D01*
X394882Y614841D02*
X399245D01*
X394882Y524841D02*
X399245D01*
X394882Y434841D02*
X399245D01*
X394882Y608463D02*
X399243D01*
X394882Y518463D02*
X399243D01*
X394882Y428463D02*
X399243D01*
X394882Y564881D02*
X399223D01*
X394882Y474881D02*
X399223D01*
X394882Y568424D02*
X399221D01*
X394882Y478424D02*
X399221D01*
X394882Y604920D02*
X399202D01*
X394882Y514920D02*
X399202D01*
X394882Y424920D02*
X399202D01*
X394882Y618385D02*
X399200D01*
X394882Y528385D02*
X399200D01*
X394882Y438385D02*
X399200D01*
X394882Y554959D02*
X399181D01*
X394882Y464959D02*
X399181D01*
X394882Y578345D02*
X399180D01*
X394882Y488345D02*
X399180D01*
X394882Y594999D02*
X399161D01*
X394882Y504999D02*
X399161D01*
X394882Y538306D02*
X399160D01*
X394882Y448306D02*
X399160D01*
X394882Y545038D02*
X399142D01*
X394882Y455038D02*
X399142D01*
X394882Y588266D02*
X399141D01*
X394882Y498266D02*
X399141D01*
X394882Y585077D02*
X399123D01*
X394882Y495077D02*
X399123D01*
X394882Y548227D02*
X399122D01*
X394882Y458227D02*
X399122D01*
X394882Y535117D02*
X399105D01*
X394882Y445117D02*
X399105D01*
X394882Y598188D02*
X399104D01*
X394882Y508188D02*
X399104D01*
X394882Y575156D02*
X399087D01*
X394882Y485156D02*
X399087D01*
X394882Y558148D02*
X399086D01*
X394882Y468148D02*
X399086D01*
X394882Y615196D02*
X399070D01*
X394882Y525196D02*
X399070D01*
X394882Y435196D02*
X399070D01*
X394882Y608109D02*
X399069D01*
X394882Y518109D02*
X399069D01*
X394882Y428109D02*
X399069D01*
X394882Y565235D02*
X399054D01*
X394882Y475235D02*
X399054D01*
X394882Y568070D02*
X399053D01*
X394882Y478070D02*
X399053D01*
X394882Y605274D02*
X399038D01*
X394882Y515274D02*
X399038D01*
X394882Y425274D02*
X399038D01*
X394882Y618030D02*
X399037D01*
X394882Y528030D02*
X399037D01*
X394882Y438030D02*
X399037D01*
X394882Y555314D02*
X399022D01*
X394882Y465314D02*
X399022D01*
X394882Y577991D02*
X399021D01*
X394882Y487991D02*
X399021D01*
X394882Y595353D02*
X399007D01*
X394882Y505353D02*
X399007D01*
X394882Y537951D02*
X399006D01*
X394882Y447951D02*
X399006D01*
X394882Y545392D02*
X398993D01*
X394882Y455392D02*
X398993D01*
X394882Y587912D02*
X398992D01*
X394882Y497912D02*
X398992D01*
X394882Y585432D02*
X398979D01*
X394882Y495432D02*
X398979D01*
X394882Y547873D02*
X398978D01*
X394882Y457873D02*
X398978D01*
X394882Y535471D02*
X398965D01*
X394882Y445471D02*
X398965D01*
X394882Y597833D02*
X398964D01*
X394882Y507833D02*
X398964D01*
X394882Y416770D02*
X398959D01*
X394882Y575510D02*
X398952D01*
X394882Y485510D02*
X398952D01*
X394882Y557794D02*
X398951D01*
X394882Y467794D02*
X398951D01*
X394882Y615550D02*
X398940D01*
X394882Y525550D02*
X398940D01*
X394882Y435550D02*
X398940D01*
X394882Y607755D02*
X398939D01*
X394882Y517755D02*
X398939D01*
X394882Y427755D02*
X398939D01*
X394882Y565589D02*
X398928D01*
X394882Y475589D02*
X398928D01*
X394882Y567715D02*
X398927D01*
X394882Y477715D02*
X398927D01*
X394882Y605629D02*
X398916D01*
X394882Y515629D02*
X398916D01*
X394882Y425629D02*
X398916D01*
X394882Y617676D02*
X398915D01*
X394882Y527676D02*
X398915D01*
X394882Y437676D02*
X398915D01*
X394882Y555668D02*
X398905D01*
X394882Y465668D02*
X398905D01*
X394882Y577636D02*
X398904D01*
X394882Y487636D02*
X398904D01*
X394882Y595707D02*
X398894D01*
X394882Y505707D02*
X398894D01*
X394882Y537597D02*
X398894D01*
X394882Y447597D02*
X398894D01*
X394882Y545747D02*
X398884D01*
X394882Y455747D02*
X398884D01*
X394882Y587558D02*
X398884D01*
X394882Y497558D02*
X398884D01*
X394882Y585786D02*
X398875D01*
X394882Y495786D02*
X398875D01*
X394882Y547518D02*
X398874D01*
X394882Y457518D02*
X398874D01*
X394882Y535825D02*
X398865D01*
X394882Y445825D02*
X398865D01*
X394882Y597479D02*
X398865D01*
X394882Y507479D02*
X398865D01*
X394882Y575865D02*
X398856D01*
X394882Y485865D02*
X398856D01*
X394882Y557440D02*
X398856D01*
X394882Y467440D02*
X398856D01*
X394882Y615904D02*
X398848D01*
X394882Y525904D02*
X398848D01*
X394882Y435904D02*
X398848D01*
X394882Y607400D02*
X398848D01*
X394882Y517400D02*
X398848D01*
X394882Y427400D02*
X398848D01*
X394882Y565944D02*
X398840D01*
X394882Y475944D02*
X398840D01*
X394882Y567361D02*
X398840D01*
X394882Y477361D02*
X398840D01*
X394882Y605983D02*
X398833D01*
X394882Y515983D02*
X398833D01*
X394882Y425983D02*
X398833D01*
X394882Y617322D02*
X398832D01*
X394882Y527322D02*
X398832D01*
X394882Y437322D02*
X398832D01*
X394882Y556022D02*
X398826D01*
X394882Y466022D02*
X398826D01*
X394882Y577282D02*
X398825D01*
X394882Y487282D02*
X398825D01*
X394882Y596062D02*
X398819D01*
X394882Y506062D02*
X398819D01*
X394882Y537243D02*
X398819D01*
X394882Y447243D02*
X398819D01*
X394882Y546101D02*
X398813D01*
X394882Y456101D02*
X398813D01*
X394882Y587203D02*
X398813D01*
X394882Y497203D02*
X398813D01*
X394882Y586140D02*
X398807D01*
X394882Y496140D02*
X398807D01*
X394882Y547164D02*
X398807D01*
X394882Y457164D02*
X398807D01*
X394882Y536180D02*
X398802D01*
X394882Y446180D02*
X398802D01*
X394882Y597125D02*
X398802D01*
X394882Y507125D02*
X398802D01*
X394882Y576219D02*
X398797D01*
X394882Y486219D02*
X398797D01*
X394882Y557085D02*
X398797D01*
X394882Y467085D02*
X398797D01*
X394882Y616259D02*
X398793D01*
X394882Y526259D02*
X398793D01*
X394882Y436259D02*
X398793D01*
X394882Y607046D02*
X398792D01*
X394882Y517046D02*
X398792D01*
X394882Y427046D02*
X398792D01*
X394882Y566298D02*
X398789D01*
X394882Y476298D02*
X398789D01*
X394882Y567007D02*
X398788D01*
X394882Y477007D02*
X398788D01*
X394882Y606337D02*
X398785D01*
X394882Y516337D02*
X398785D01*
X394882Y426337D02*
X398785D01*
X394882Y616967D02*
X398785D01*
X394882Y526967D02*
X398785D01*
X394882Y436967D02*
X398785D01*
X394882Y556377D02*
X398782D01*
X394882Y466377D02*
X398782D01*
X394882Y576928D02*
X398782D01*
X394882Y486928D02*
X398782D01*
X394882Y596416D02*
X398779D01*
X394882Y506416D02*
X398779D01*
X394882Y536888D02*
X398779D01*
X394882Y446888D02*
X398779D01*
X394882Y546455D02*
X398777D01*
X394882Y456455D02*
X398777D01*
X394882Y586849D02*
X398777D01*
X394882Y496849D02*
X398777D01*
X394882Y586495D02*
X398775D01*
X394882Y496495D02*
X398775D01*
X394882Y546810D02*
X398775D01*
X394882Y456810D02*
X398775D01*
X394882Y536534D02*
X398774D01*
X394882Y446534D02*
X398774D01*
X394882Y596770D02*
X398773D01*
X394882Y506770D02*
X398773D01*
X394882Y576573D02*
X398772D01*
X394882Y486573D02*
X398772D01*
X394882Y556731D02*
X398772D01*
X394882Y466731D02*
X398772D01*
X394882Y616613D02*
X398772D01*
X394882Y526613D02*
X398772D01*
X394882Y436613D02*
X398772D01*
X394882Y606692D02*
X398772D01*
X394882Y516692D02*
X398772D01*
X394882Y426692D02*
X398772D01*
X394882Y566652D02*
X398772D01*
X394882Y476652D02*
X398772D01*
X394882Y416416D02*
X398588D01*
X394882Y416062D02*
X398246D01*
X394882Y415707D02*
X397929D01*
X394882Y415353D02*
X397635D01*
X394882Y414999D02*
X397361D01*
X394882Y414644D02*
X397107D01*
X394882Y414290D02*
X396871D01*
X394882Y413936D02*
X396652D01*
X394882Y413581D02*
X396449D01*
X394882Y413227D02*
X396260D01*
X394882Y412873D02*
X396086D01*
X394882Y412518D02*
X395924D01*
X394882Y412164D02*
X395776D01*
X394882Y411810D02*
X395641D01*
X394882Y411455D02*
X395517D01*
X394882Y411101D02*
X395405D01*
X394882Y410747D02*
X395305D01*
X407468Y649606D02*
G03X393701Y635815I146J-13913D01*
G01X407480Y649606D02*
X419291D01*
X423228Y645231D02*
G03X419288Y649607I-4586J-168D01*
G01X423228Y645226D02*
Y629134D01*
Y629135D02*
G03X427163Y624804I4590J216D01*
G01X427165Y624803D02*
X509449D01*
X509448D02*
G03X513779Y628738I-217J4590D01*
G01X513780Y628740D02*
Y645669D01*
X518113Y649606D02*
G03X513780Y645671I250J-4628D01*
G01X518110Y649606D02*
X529528D01*
X543308Y635814D02*
G03X529540Y649606I-14476J-683D01*
G01X543307Y635827D02*
Y407480D01*
X529512Y393701D02*
G03X543307Y407471I0J13795D01*
G01X529528Y393701D02*
X407480D01*
X393701Y407480D02*
G03X407480Y393701I13779J0D01*
G01X393701Y407480D02*
Y635827D01*
G54D351*
X527559Y510354D03*
Y478937D03*
G54D404*
X525987Y416028D03*
X520980Y411021D03*
Y403940D03*
X525987Y398933D03*
X533068D03*
X538075Y403940D03*
Y411021D03*
X533068Y416028D03*
X403940D03*
X398933Y411021D03*
Y403940D03*
X403940Y398933D03*
X411021D03*
X416028Y403940D03*
Y411021D03*
X411021Y416028D03*
G54D417*
X412480Y426654D03*
X402480D03*
X412480Y436654D03*
X402480D03*
X412480Y446654D03*
X402480D03*
X412480Y456654D03*
X402480D03*
X412480Y466654D03*
X402480D03*
X412480Y476654D03*
X402480D03*
X412480Y486654D03*
X402480D03*
X412480Y496654D03*
X402480D03*
X412480Y506654D03*
X402480D03*
X412480Y516654D03*
X402480D03*
X412480Y526654D03*
X402480D03*
X412480Y536654D03*
X402480D03*
X412480Y546654D03*
X402480D03*
X412480Y556654D03*
X402480D03*
X412480Y566654D03*
X402480D03*
X412480Y576654D03*
X402480D03*
X412480Y586654D03*
X402480D03*
X412480Y596654D03*
X402480D03*
X412480Y606654D03*
X402480D03*
X412480Y616654D03*
X402480D03*
G54D418*
X529528Y407480D03*
X407480D03*
G54D419*
X477087Y419469D03*
X511102D03*
X425906D03*
X459921D03*
G54D420*
X477087Y403130D03*
X511102D03*
X425906D03*
X459921D03*
G54D421*
X482717Y417500D03*
X505472D03*
X431535D03*
X454291D03*
G54D434*
X437992Y456496D03*
X427953D03*
X457874D03*
X447953D03*
G54D436*
X407480Y635827D03*
X529528D03*
G54D437*
Y555906D03*
Y567717D03*
X536811Y561811D03*
X529528Y534252D03*
Y546063D03*
X536811Y540157D03*
G54D447*
X419882Y398819D03*
X418110Y396457D03*
X423228Y398228D03*
X421654Y402559D03*
X433071Y402362D03*
Y396457D03*
X427165D03*
X421260D03*
X482283Y407283D03*
X447244Y406693D03*
X472126Y401732D03*
X471850Y406693D03*
X465236Y401575D03*
X468898Y403937D03*
X466299Y406811D03*
X514567Y404134D03*
X515748Y400984D03*
X517126Y398622D03*
X515748Y396457D03*
X438976Y402362D03*
X444882D03*
X450787D03*
X456693D03*
X503937D03*
X498031D03*
X492126D03*
X486220D03*
X480315D03*
X509843Y396457D03*
X503937D03*
X498031D03*
X492126D03*
X486220D03*
X480315D03*
X474409D03*
X468504D03*
X462598D03*
X456693D03*
X450787D03*
X444882D03*
X438976D03*
X468898Y407087D03*
X453543D03*
X519488Y396260D03*
X434409Y432677D03*
X432874Y444449D03*
X432953Y440276D03*
X431102Y469094D03*
X434843D03*
X428543Y484055D03*
X433071Y407480D03*
X430315Y431496D03*
X423228Y440945D03*
Y443701D03*
Y451969D03*
X435236Y477756D03*
X436614Y471063D03*
X396654Y447244D03*
Y456890D03*
X429921Y476181D03*
X400984Y421063D03*
X395669Y416929D03*
X422638Y407677D03*
X397244Y423228D03*
Y428740D03*
X397047Y418307D03*
X422835Y423819D03*
X428740Y469291D03*
X415748Y461220D03*
X434843Y484843D03*
X426575Y484252D03*
X412992Y481496D03*
X436024Y475591D03*
X423031Y467913D03*
X426575Y425984D03*
X429528Y428740D03*
X430709Y427047D03*
X438622Y441339D03*
X438504Y443819D03*
X438622Y438740D03*
X432992Y442323D03*
X432913Y448346D03*
X432362Y438228D03*
X430354Y424724D03*
X397402Y433543D03*
X397303Y439654D03*
X439882Y425079D03*
X443937Y425197D03*
X441929Y425433D03*
X445984Y425079D03*
X502953Y473031D03*
X513307Y470512D03*
X505406Y436173D03*
X506102Y458071D03*
X513189Y475591D03*
X505118Y483858D03*
X508858Y428701D03*
X506969D03*
X507874Y479724D03*
X491024Y425354D03*
X495039Y425236D03*
X497205Y425079D03*
X493031D03*
X445276Y469882D03*
X459843Y475591D03*
X493110Y482480D03*
X442126Y470079D03*
X507087Y485039D03*
X509843Y471339D03*
X453110Y445236D03*
X451575Y481496D03*
X446063Y482087D03*
X510630Y409449D03*
X517520Y419291D03*
X518307Y422835D03*
X505906Y407874D03*
X497638D03*
X491732Y407480D03*
X440945D03*
X442717Y458661D03*
X440945Y480512D03*
X445472Y484646D03*
X439370Y481496D03*
X440945Y482480D03*
X452559Y476969D03*
X497362Y427323D03*
X503543Y435039D03*
X440394Y430591D03*
X447402Y430354D03*
X447992Y425276D03*
X458268Y481693D03*
X471260Y467323D03*
X453543Y471260D03*
X458661Y461220D03*
X484882Y476142D03*
X474606Y483661D03*
X472520Y457520D03*
X498228Y473031D03*
X448898Y449921D03*
X461811Y462795D03*
X468701Y467323D03*
X471260Y470866D03*
X468071Y470236D03*
X514173Y460630D03*
X509646Y460039D03*
X507874Y469685D03*
X504331Y470472D03*
X504134Y457087D03*
X503976Y454213D03*
X503937Y449370D03*
X504134Y444961D03*
X517480Y450787D03*
X512283Y450827D03*
X508268D03*
X489173Y476496D03*
X514409Y472520D03*
X494882Y427559D03*
X489764Y430315D03*
X503937Y433071D03*
X454724Y437795D03*
X468307Y422047D03*
X472441Y424606D03*
X501181Y414173D03*
X446811Y432362D03*
X451575Y435827D03*
X461181Y448504D03*
X509843Y455512D03*
X515748D03*
X510433Y425157D03*
X514370Y408661D03*
X474409Y458858D03*
X473425Y454921D03*
X452362Y475197D03*
X463386Y481496D03*
X503937Y479331D03*
X460827Y481890D03*
X459213Y449646D03*
X468701Y419291D03*
X459843Y437795D03*
X457480D03*
X472441Y422047D03*
X468504Y416535D03*
X456260Y425079D03*
X452953Y480118D03*
X449016Y481496D03*
X451732Y468386D03*
X441102Y438858D03*
X443543Y443898D03*
X451260Y433543D03*
X440984Y441339D03*
X443543Y441417D03*
X440984Y443701D03*
X443425Y438819D03*
X471339Y448071D03*
X468858Y448189D03*
X488228Y448543D03*
X484685D03*
X481142Y448425D03*
X477953D03*
X488228Y451732D03*
X484685Y451850D03*
X481024Y451732D03*
X477953D03*
X488228Y455630D03*
X484685D03*
X481024D03*
X477953D03*
X506732Y425197D03*
X456575Y440551D03*
X459843Y484055D03*
X489882Y474055D03*
X498425Y478937D03*
X481220Y424567D03*
X475236Y424803D03*
X485079Y432283D03*
X485906Y434055D03*
X494764Y431457D03*
X490709Y487283D03*
X487126Y476850D03*
X491772Y473819D03*
X524016Y439370D03*
X540551Y452756D03*
Y464567D03*
X531496Y461024D03*
X540945D03*
X527362Y486654D03*
X527323Y483189D03*
X527087Y472638D03*
X519685Y462795D03*
X527205Y444173D03*
X525512D03*
X523622Y444213D03*
X521811Y444173D03*
X527165Y446063D03*
X525394D03*
X523583D03*
X521772Y446142D03*
X522441Y466142D03*
X533465Y467323D03*
Y473228D03*
Y479134D03*
Y485039D03*
X539370D03*
Y479134D03*
Y473228D03*
Y467323D03*
X521260Y457087D03*
X533465Y455512D03*
X539370D03*
X541024Y437717D03*
X540984Y449724D03*
X540906Y443898D03*
X519882Y419094D03*
X521654Y423622D03*
X540945Y424409D03*
X539173Y420866D03*
X522441D03*
X526969Y422441D03*
X541142Y417126D03*
X437598Y521654D03*
X428740Y512402D03*
X436220Y560039D03*
X433268Y512598D03*
X424409Y562795D03*
X435630Y556102D03*
X415945Y552559D03*
X419094Y552165D03*
X419291Y554331D03*
X423031Y564567D03*
X430906Y512795D03*
X419882Y564567D03*
X432087Y521457D03*
X432480Y528740D03*
X435630Y565748D03*
X430906Y527165D03*
X437992Y512205D03*
X404331Y491535D03*
X417913Y543110D03*
Y532283D03*
Y537795D03*
X396260Y510630D03*
X396063Y521850D03*
Y536024D03*
Y550197D03*
X396457Y562992D03*
X429921Y493701D03*
X430906Y500591D03*
X417913Y558268D03*
X417717Y560630D03*
X420866Y500591D03*
X417126Y509055D03*
X401496Y511693D03*
X412165Y491772D03*
X396063Y505512D03*
X417913Y514173D03*
X396220Y503031D03*
X417913Y519685D03*
X435630Y521260D03*
X436614Y526378D03*
X471260Y552953D03*
X450787Y559449D03*
X518583Y551181D03*
X515866Y550945D03*
X514961Y558110D03*
X511969D03*
X513189Y488780D03*
X513386Y493740D03*
X457047Y553150D03*
X452756Y532480D03*
X473622Y489370D03*
X482087Y515748D03*
X490945Y494094D03*
X512323Y496811D03*
X490354Y553740D03*
X509843Y499803D03*
X508858Y496850D03*
X508661Y494488D03*
X438976Y520079D03*
X508858Y492126D03*
X471654Y564764D03*
X503740Y512795D03*
X480709Y550394D03*
X503543Y505315D03*
X471063Y562205D03*
X475984Y550394D03*
X502362Y507087D03*
X443898Y546457D03*
X440551Y536417D03*
X468307Y513189D03*
X453543Y512795D03*
X502756Y514764D03*
X443740Y550984D03*
X471850Y513189D03*
X450551Y564449D03*
X468504Y496063D03*
X458071Y519685D03*
X467717Y550000D03*
X487795Y528740D03*
X457087Y517717D03*
X472835Y494094D03*
X451732Y536654D03*
X474016Y503740D03*
X449803Y528543D03*
X465354Y536811D03*
X493701Y533465D03*
X470866Y518898D03*
X478346Y515945D03*
X459094Y551654D03*
X502953Y492717D03*
Y497441D03*
X478543Y523622D03*
X481299Y494961D03*
X479921Y534449D03*
X473228Y550984D03*
X483268Y536417D03*
X489764Y534646D03*
X484252Y522835D03*
X493504Y521850D03*
X493307Y500000D03*
X444882Y489961D03*
X460630Y490748D03*
X464173Y553937D03*
X463189Y556890D03*
X449606Y553937D03*
X464961Y513189D03*
X476181Y513780D03*
X474803Y507087D03*
X443504Y498622D03*
Y500787D03*
X462795Y490748D03*
X462598Y494882D03*
X466339Y500394D03*
X468504Y498622D03*
X467323Y488189D03*
X474803Y491339D03*
X467677Y536811D03*
X487992Y526181D03*
X447480Y512571D03*
X442913Y512598D03*
X446260Y526378D03*
X464961Y519094D03*
X495276Y525000D03*
X479528Y536417D03*
X478740Y552756D03*
X456299Y565748D03*
X458858Y562205D03*
Y565354D03*
X463189Y564567D03*
Y560236D03*
X455906Y501181D03*
X451378Y489370D03*
X443701Y493701D03*
X481654Y497402D03*
X504370Y565276D03*
X503740Y521063D03*
X480906Y523031D03*
X442913Y536220D03*
X447638D03*
X500669Y558661D03*
X503543Y560551D03*
X505315Y562795D03*
X501378Y562874D03*
X490669Y557756D03*
X490709Y561969D03*
X503740Y518898D03*
Y516929D03*
X498465Y528937D03*
Y526811D03*
X481811Y492638D03*
X498500Y531071D03*
X481496Y503543D03*
X516299Y542087D03*
X518110Y558228D03*
X505118Y490945D03*
X458858Y559646D03*
X491063Y565472D03*
X458858Y556890D03*
X459843Y554528D03*
X464173Y548031D03*
X461417Y551378D03*
X459055Y526181D03*
X451969Y526575D03*
X469331Y536654D03*
X465551Y546850D03*
X454724Y531890D03*
X473622Y529528D03*
X514331Y555906D03*
X501339Y565827D03*
X471063Y495866D03*
X475000Y501969D03*
X492913Y536614D03*
X491535Y533465D03*
X528740Y514961D03*
X530827Y550945D03*
X527874Y551024D03*
X521417Y550591D03*
X521732Y553425D03*
X533150Y565197D03*
X528937Y561850D03*
X528543Y539882D03*
X536732Y546772D03*
X532047Y538465D03*
X522008Y533465D03*
X535433Y555827D03*
X530709Y517087D03*
X530984Y527402D03*
X527047Y527480D03*
X528465Y502441D03*
X527087Y498228D03*
X527205Y490709D03*
X539370Y555906D03*
Y550000D03*
Y544094D03*
X533465Y490945D03*
Y496850D03*
Y502756D03*
Y508661D03*
Y514567D03*
Y520472D03*
Y526378D03*
Y532283D03*
X539370D03*
Y526378D03*
Y520472D03*
Y514567D03*
Y508661D03*
Y502756D03*
Y496850D03*
Y490945D03*
X435433Y602756D03*
Y599094D03*
X434055Y577165D03*
X435236Y587598D03*
X435433Y591339D03*
Y595276D03*
Y606299D03*
Y609449D03*
X420630Y615433D03*
X435039Y585039D03*
X434843Y582480D03*
X424213Y573425D03*
Y569488D03*
X396457Y572638D03*
Y581496D03*
X424016Y575787D03*
X415748Y580512D03*
X423228Y587205D03*
X423425Y609449D03*
X434252Y575000D03*
X435630Y569291D03*
X423504Y615354D03*
X417717Y587402D03*
X418543Y594173D03*
X420276Y589764D03*
X407480Y598622D03*
X420197Y612323D03*
X419252Y599055D03*
X396850Y623622D03*
X401575D03*
X399213D03*
X413976Y623819D03*
X416732D03*
X421260Y623622D03*
X437008Y622835D03*
X434016Y621575D03*
X467520Y576772D03*
X491102Y582638D03*
Y586614D03*
X501575Y569685D03*
X515748Y617323D03*
X514094Y607598D03*
X501693Y574291D03*
X491063Y595354D03*
X510197Y574685D03*
X491102Y591260D03*
X512677Y575512D03*
X439961Y621772D03*
X491142Y611220D03*
X500984Y610827D03*
X491220Y604567D03*
X491102Y598543D03*
X443307Y602362D03*
X490472Y617047D03*
X464724Y582480D03*
X490866Y607638D03*
X448228Y611220D03*
X491181Y578110D03*
X482283Y600787D03*
Y593701D03*
X480512Y590118D03*
X479409Y582913D03*
X442913Y606102D03*
X443307Y596457D03*
X461024Y581102D03*
X443701Y588583D03*
X479409Y586496D03*
X445669Y601181D03*
X443307Y581102D03*
Y576575D03*
X442913Y591732D03*
X441732Y569291D03*
X465157Y580315D03*
X457283Y602756D03*
X463976Y602559D03*
X450984Y580512D03*
X475394Y575394D03*
X474803Y578346D03*
X458661Y576378D03*
X452953D03*
X446850D03*
X447638Y583268D03*
X453150D03*
X457283D03*
X445866Y612402D03*
X456102Y568701D03*
Y572047D03*
X458858Y568701D03*
X458661Y572047D03*
X463189Y568504D03*
X463386Y571457D03*
X468504Y569685D03*
X468307Y571850D03*
X443701Y583465D03*
X503189Y567756D03*
X489409Y612795D03*
X489016Y609252D03*
X491063Y569409D03*
Y573740D03*
X506024Y615315D03*
X511024Y614843D03*
X515354Y620079D03*
X509449Y598819D03*
X503740Y592795D03*
X511417Y600787D03*
X514173Y603543D03*
X506299Y607677D03*
X501142Y614921D03*
X502756Y616142D03*
X503858Y607126D03*
X515748Y613386D03*
X513386Y614961D03*
X511417Y607480D03*
X502283Y598425D03*
X518504Y582283D03*
X508268Y606299D03*
X506024Y602283D03*
X502362Y572047D03*
X479488Y601063D03*
X477559Y592992D03*
X442913Y574016D03*
X473031Y592717D03*
X474016Y588386D03*
X475984Y591339D03*
X462992Y574213D03*
X447047Y588976D03*
X445866Y587598D03*
X477008Y589134D03*
X475591Y596063D03*
X484252Y605118D03*
X452756Y609055D03*
X460630D03*
X470472D03*
X480315D03*
X442913Y622835D03*
X448819D03*
X452756D03*
X456693D03*
X460630D03*
X464567D03*
X468504D03*
X472441D03*
X476378D03*
X482283D03*
X488189D03*
X503150Y622441D03*
X514961D03*
X500984Y621575D03*
X491181D03*
X450433Y600433D03*
X450197Y595709D03*
X450433Y590630D03*
X450000Y587795D03*
X472047Y589370D03*
X474016Y590551D03*
X471220Y595591D03*
X471102Y600197D03*
X464134D03*
X464252Y595591D03*
Y590748D03*
X464173Y587008D03*
X457087Y587598D03*
X457047Y590748D03*
X457165Y595827D03*
X457047Y600433D03*
X516220Y605630D03*
X516535Y610236D03*
X529882Y583898D03*
X524606Y591102D03*
Y594055D03*
X525984Y572992D03*
X533346Y571417D03*
X533150Y592874D03*
X533228Y587874D03*
X530787Y596969D03*
X533110Y582992D03*
X520236Y575039D03*
X522835Y577520D03*
X519843Y599016D03*
X523307Y570945D03*
X525197Y608661D03*
X535039Y599213D03*
X525591Y600787D03*
X538189Y609055D03*
X531496D03*
X524409Y605512D03*
X525236Y580669D03*
X519685Y622835D03*
X525591D03*
X531496D03*
X537402D03*
X521654Y603150D03*
Y585433D03*
Y597244D03*
X539370D03*
Y591339D03*
Y585433D03*
Y573622D03*
Y567717D03*
X524331Y586299D03*
X536811Y565067D02*
Y564370D01*
X533555Y561811D02*
X534252D01*
X536811Y558555D02*
Y559252D01*
X540067Y561811D02*
X539370D01*
X536811Y543413D02*
Y542717D01*
X533555Y540157D02*
X534252D01*
X536811Y536902D02*
Y537598D01*
X540067Y540157D02*
X539370D01*
X462587Y403130D02*
X461890D01*
X459921Y407370D02*
Y406673D01*
X457256Y403130D02*
X457953D01*
X459921Y398890D02*
Y399587D01*
X428571Y403130D02*
X427874D01*
X425906Y407370D02*
Y406673D01*
X423240Y403130D02*
X423937D01*
X425906Y398890D02*
Y399587D01*
X462587Y419469D02*
X461890D01*
X459921Y424299D02*
Y423602D01*
X457256Y419469D02*
X457953D01*
X459921Y414638D02*
Y415335D01*
X428571Y419469D02*
X427874D01*
X425906Y424299D02*
Y423602D01*
X423240Y419469D02*
X423937D01*
X425906Y414638D02*
Y415335D01*
X513768Y403130D02*
X513071D01*
X511102Y407370D02*
Y406673D01*
X508437Y403130D02*
X509134D01*
X511102Y398890D02*
Y399587D01*
X479752Y403130D02*
X479055D01*
X477087Y407370D02*
Y406673D01*
X474421Y403130D02*
X475118D01*
X477087Y398890D02*
Y399587D01*
X513768Y419469D02*
X513071D01*
X511102Y424299D02*
Y423602D01*
X508437Y419469D02*
X509134D01*
X511102Y414638D02*
Y415335D01*
X479752Y419469D02*
X479055D01*
X477087Y424299D02*
Y423602D01*
X474421Y419469D02*
X475118D01*
X477087Y414638D02*
Y415335D01*
X420087Y407480D02*
X419390D01*
X407480Y420087D02*
Y419390D01*
X529528Y420087D02*
Y419390D01*
X516921Y407480D02*
X517618D01*
X412480Y620362D02*
Y619665D01*
X408772Y616654D02*
X409469D01*
X412480Y612945D02*
Y613642D01*
X416189Y616654D02*
X415492D01*
X402480Y590362D02*
Y589665D01*
X398772Y586654D02*
X399469D01*
X402480Y582945D02*
Y583642D01*
X406189Y586654D02*
X405492D01*
X402480Y570362D02*
Y569665D01*
X398772Y566654D02*
X399469D01*
X402480Y562945D02*
Y563642D01*
X406189Y566654D02*
X405492D01*
X412480Y550362D02*
Y549665D01*
X408772Y546654D02*
X409469D01*
X412480Y542945D02*
Y543642D01*
X416189Y546654D02*
X415492D01*
X402480Y520362D02*
Y519665D01*
X398772Y516654D02*
X399469D01*
X402480Y512945D02*
Y513642D01*
X406189Y516654D02*
X405492D01*
X402480Y490362D02*
Y489665D01*
X398772Y486654D02*
X399469D01*
X402480Y482945D02*
Y483642D01*
X406189Y486654D02*
X405492D01*
X412480Y470362D02*
Y469665D01*
X408772Y466654D02*
X409469D01*
X412480Y462945D02*
Y463642D01*
X416189Y466654D02*
X415492D01*
X402480Y450362D02*
Y449665D01*
X398772Y446654D02*
X399469D01*
X402480Y442945D02*
Y443642D01*
X406189Y446654D02*
X405492D01*
G54D448*
X419488Y446850D03*
X409843Y441732D03*
X469291Y462205D03*
X498031Y467323D03*
X449843Y438346D03*
X496260Y459173D03*
X490472Y470748D03*
X498228Y432283D03*
X465354Y454134D03*
Y456496D03*
X498740Y454921D03*
X468622Y442165D03*
X524803Y455906D03*
X536693Y462677D03*
X421260Y489567D03*
X423425Y557087D03*
X421260Y559646D03*
X448031Y497638D03*
X491142Y499213D03*
X469488Y529921D03*
X493701Y514961D03*
Y512205D03*
X521850Y526378D03*
X419724Y604764D03*
X485906Y603543D03*
X520827Y568504D03*
G74*
X0Y0D02*
M02*
