*
*
G04 PADS 9.5 Build Number: 522968 generated Gerber (RS-274-X) file*
G04 PC Version=2.1*
*
%IN "SF32LB52-DevKit-LCD_PCB"*%
*
%MOIN*%
*
%FSLAX35Y35*%
*
*
*
*
G04 PC Standard Apertures*
*
*
G04 Thermal Relief Aperture macro.*
%AMTER*
1,1,$1,0,0*
1,0,$1-$2,0,0*
21,0,$3,$4,0,0,45*
21,0,$3,$4,0,0,135*
%
*
*
G04 Annular Aperture macro.*
%AMANN*
1,1,$1,0,0*
1,0,$2,0,0*
%
*
*
G04 Odd Aperture macro.*
%AMODD*
1,1,$1,0,0*
1,0,$1-0.005,0,0*
%
*
*
G04 PC Custom Aperture Macros*
*
*
*
*
*
*
G04 PC Aperture Table*
*
%ADD010C,0.001*%
%ADD094C,0.00039*%
%ADD158C,0.00394*%
%ADD240C,0.00787*%
%ADD351C,0.03937*%
%ADD361C,0.01102*%
%ADD404C,0.01969*%
%ADD408R,0.0748X0.02362*%
%ADD409R,0.05512X0.02362*%
%ADD410R,0.02362X0.0748*%
%ADD411R,0.05906X0.02362*%
%ADD412R,0.04331X0.0315*%
%ADD413R,0.02362X0.05906*%
%ADD414C,0.00866*%
%ADD415C,0.01575*%
%ADD422R,0.03937X0.05906*%
%ADD423R,0.00394X0.00394*%
%ADD424R,0.0126X0.00984*%
%ADD425R,0.00984X0.0126*%
%ADD426R,0.02362X0.00984*%
%ADD427R,0.00984X0.02362*%
%ADD429R,0.02362X0.04724*%
%ADD430R,0.13386X0.09843*%
%ADD432R,0.06299X0.07874*%
%ADD433R,0.05906X0.03937*%
%ADD435C,0.0315*%
%ADD438C,0.004*%
%ADD458R,0.05118X0.01181*%
*
*
*
*
G04 PC Circuitry*
G04 Layer Name SF32LB52-DevKit-LCD_PCB - circuitry*
%LPD*%
*
*
G04 PC Custom Flashes*
G04 Layer Name SF32LB52-DevKit-LCD_PCB - flashes*
%LPD*%
*
*
G04 PC Circuitry*
G04 Layer Name SF32LB52-DevKit-LCD_PCB - circuitry*
%LPD*%
*
G54D10*
G01X444241Y441782D02*
Y444635D01*
X441389*
Y441782*
X444241*
X441395D02*
Y444635D01*
X441445Y441782D02*
Y444635D01*
X441495Y441782D02*
Y444635D01*
X441545Y441782D02*
Y444635D01*
X441595Y441782D02*
Y444635D01*
X441645Y441782D02*
Y444635D01*
X441695Y441782D02*
Y444635D01*
X441745Y441782D02*
Y444635D01*
X441795Y441782D02*
Y444635D01*
X441845Y441782D02*
Y444635D01*
X441895Y441782D02*
Y444635D01*
X441945Y441782D02*
Y444635D01*
X441995Y441782D02*
Y444635D01*
X442045Y441782D02*
Y444635D01*
X442095Y441782D02*
Y444635D01*
X442145Y441782D02*
Y444635D01*
X442195Y441782D02*
Y444635D01*
X442245Y441782D02*
Y444635D01*
X442295Y441782D02*
Y444635D01*
X442345Y441782D02*
Y444635D01*
X442395Y441782D02*
Y444635D01*
X442445Y441782D02*
Y444635D01*
X442495Y441782D02*
Y444635D01*
X442545Y441782D02*
Y444635D01*
X442595Y441782D02*
Y444635D01*
X442645Y441782D02*
Y444635D01*
X442695Y441782D02*
Y444635D01*
X442745Y441782D02*
Y444635D01*
X442795Y441782D02*
Y444635D01*
X442845Y441782D02*
Y444635D01*
X442895Y441782D02*
Y444635D01*
X442945Y441782D02*
Y444635D01*
X442995Y441782D02*
Y444635D01*
X443045Y441782D02*
Y444635D01*
X443095Y441782D02*
Y444635D01*
X443145Y441782D02*
Y444635D01*
X443195Y441782D02*
Y444635D01*
X443245Y441782D02*
Y444635D01*
X443295Y441782D02*
Y444635D01*
X443345Y441782D02*
Y444635D01*
X443395Y441782D02*
Y444635D01*
X443445Y441782D02*
Y444635D01*
X443495Y441782D02*
Y444635D01*
X443545Y441782D02*
Y444635D01*
X443595Y441782D02*
Y444635D01*
X443645Y441782D02*
Y444635D01*
X443695Y441782D02*
Y444635D01*
X443745Y441782D02*
Y444635D01*
X443795Y441782D02*
Y444635D01*
X443845Y441782D02*
Y444635D01*
X443895Y441782D02*
Y444635D01*
X443945Y441782D02*
Y444635D01*
X443995Y441782D02*
Y444635D01*
X444045Y441782D02*
Y444635D01*
X444095Y441782D02*
Y444635D01*
X444145Y441782D02*
Y444635D01*
X444195Y441782D02*
Y444635D01*
X444241Y438042D02*
Y440895D01*
X441389*
Y438042*
X444241*
X441395D02*
Y440895D01*
X441445Y438042D02*
Y440895D01*
X441495Y438042D02*
Y440895D01*
X441545Y438042D02*
Y440895D01*
X441595Y438042D02*
Y440895D01*
X441645Y438042D02*
Y440895D01*
X441695Y438042D02*
Y440895D01*
X441745Y438042D02*
Y440895D01*
X441795Y438042D02*
Y440895D01*
X441845Y438042D02*
Y440895D01*
X441895Y438042D02*
Y440895D01*
X441945Y438042D02*
Y440895D01*
X441995Y438042D02*
Y440895D01*
X442045Y438042D02*
Y440895D01*
X442095Y438042D02*
Y440895D01*
X442145Y438042D02*
Y440895D01*
X442195Y438042D02*
Y440895D01*
X442245Y438042D02*
Y440895D01*
X442295Y438042D02*
Y440895D01*
X442345Y438042D02*
Y440895D01*
X442395Y438042D02*
Y440895D01*
X442445Y438042D02*
Y440895D01*
X442495Y438042D02*
Y440895D01*
X442545Y438042D02*
Y440895D01*
X442595Y438042D02*
Y440895D01*
X442645Y438042D02*
Y440895D01*
X442695Y438042D02*
Y440895D01*
X442745Y438042D02*
Y440895D01*
X442795Y438042D02*
Y440895D01*
X442845Y438042D02*
Y440895D01*
X442895Y438042D02*
Y440895D01*
X442945Y438042D02*
Y440895D01*
X442995Y438042D02*
Y440895D01*
X443045Y438042D02*
Y440895D01*
X443095Y438042D02*
Y440895D01*
X443145Y438042D02*
Y440895D01*
X443195Y438042D02*
Y440895D01*
X443245Y438042D02*
Y440895D01*
X443295Y438042D02*
Y440895D01*
X443345Y438042D02*
Y440895D01*
X443395Y438042D02*
Y440895D01*
X443445Y438042D02*
Y440895D01*
X443495Y438042D02*
Y440895D01*
X443545Y438042D02*
Y440895D01*
X443595Y438042D02*
Y440895D01*
X443645Y438042D02*
Y440895D01*
X443695Y438042D02*
Y440895D01*
X443745Y438042D02*
Y440895D01*
X443795Y438042D02*
Y440895D01*
X443845Y438042D02*
Y440895D01*
X443895Y438042D02*
Y440895D01*
X443945Y438042D02*
Y440895D01*
X443995Y438042D02*
Y440895D01*
X444045Y438042D02*
Y440895D01*
X444095Y438042D02*
Y440895D01*
X444145Y438042D02*
Y440895D01*
X444195Y438042D02*
Y440895D01*
X440501Y438042D02*
Y440895D01*
X437648*
Y438042*
X440501*
X437695D02*
Y440895D01*
X437745Y438042D02*
Y440895D01*
X437795Y438042D02*
Y440895D01*
X437845Y438042D02*
Y440895D01*
X437895Y438042D02*
Y440895D01*
X437945Y438042D02*
Y440895D01*
X437995Y438042D02*
Y440895D01*
X438045Y438042D02*
Y440895D01*
X438095Y438042D02*
Y440895D01*
X438145Y438042D02*
Y440895D01*
X438195Y438042D02*
Y440895D01*
X438245Y438042D02*
Y440895D01*
X438295Y438042D02*
Y440895D01*
X438345Y438042D02*
Y440895D01*
X438395Y438042D02*
Y440895D01*
X438445Y438042D02*
Y440895D01*
X438495Y438042D02*
Y440895D01*
X438545Y438042D02*
Y440895D01*
X438595Y438042D02*
Y440895D01*
X438645Y438042D02*
Y440895D01*
X438695Y438042D02*
Y440895D01*
X438745Y438042D02*
Y440895D01*
X438795Y438042D02*
Y440895D01*
X438845Y438042D02*
Y440895D01*
X438895Y438042D02*
Y440895D01*
X438945Y438042D02*
Y440895D01*
X438995Y438042D02*
Y440895D01*
X439045Y438042D02*
Y440895D01*
X439095Y438042D02*
Y440895D01*
X439145Y438042D02*
Y440895D01*
X439195Y438042D02*
Y440895D01*
X439245Y438042D02*
Y440895D01*
X439295Y438042D02*
Y440895D01*
X439345Y438042D02*
Y440895D01*
X439395Y438042D02*
Y440895D01*
X439445Y438042D02*
Y440895D01*
X439495Y438042D02*
Y440895D01*
X439545Y438042D02*
Y440895D01*
X439595Y438042D02*
Y440895D01*
X439645Y438042D02*
Y440895D01*
X439695Y438042D02*
Y440895D01*
X439745Y438042D02*
Y440895D01*
X439795Y438042D02*
Y440895D01*
X439845Y438042D02*
Y440895D01*
X439895Y438042D02*
Y440895D01*
X439945Y438042D02*
Y440895D01*
X439995Y438042D02*
Y440895D01*
X440045Y438042D02*
Y440895D01*
X440095Y438042D02*
Y440895D01*
X440145Y438042D02*
Y440895D01*
X440195Y438042D02*
Y440895D01*
X440245Y438042D02*
Y440895D01*
X440295Y438042D02*
Y440895D01*
X440345Y438042D02*
Y440895D01*
X440395Y438042D02*
Y440895D01*
X440445Y438042D02*
Y440895D01*
X440495Y438042D02*
Y440895D01*
X440501Y441782D02*
Y444635D01*
X437648*
Y441782*
X440501*
X437695D02*
Y444635D01*
X437745Y441782D02*
Y444635D01*
X437795Y441782D02*
Y444635D01*
X437845Y441782D02*
Y444635D01*
X437895Y441782D02*
Y444635D01*
X437945Y441782D02*
Y444635D01*
X437995Y441782D02*
Y444635D01*
X438045Y441782D02*
Y444635D01*
X438095Y441782D02*
Y444635D01*
X438145Y441782D02*
Y444635D01*
X438195Y441782D02*
Y444635D01*
X438245Y441782D02*
Y444635D01*
X438295Y441782D02*
Y444635D01*
X438345Y441782D02*
Y444635D01*
X438395Y441782D02*
Y444635D01*
X438445Y441782D02*
Y444635D01*
X438495Y441782D02*
Y444635D01*
X438545Y441782D02*
Y444635D01*
X438595Y441782D02*
Y444635D01*
X438645Y441782D02*
Y444635D01*
X438695Y441782D02*
Y444635D01*
X438745Y441782D02*
Y444635D01*
X438795Y441782D02*
Y444635D01*
X438845Y441782D02*
Y444635D01*
X438895Y441782D02*
Y444635D01*
X438945Y441782D02*
Y444635D01*
X438995Y441782D02*
Y444635D01*
X439045Y441782D02*
Y444635D01*
X439095Y441782D02*
Y444635D01*
X439145Y441782D02*
Y444635D01*
X439195Y441782D02*
Y444635D01*
X439245Y441782D02*
Y444635D01*
X439295Y441782D02*
Y444635D01*
X439345Y441782D02*
Y444635D01*
X439395Y441782D02*
Y444635D01*
X439445Y441782D02*
Y444635D01*
X439495Y441782D02*
Y444635D01*
X439545Y441782D02*
Y444635D01*
X439595Y441782D02*
Y444635D01*
X439645Y441782D02*
Y444635D01*
X439695Y441782D02*
Y444635D01*
X439745Y441782D02*
Y444635D01*
X439795Y441782D02*
Y444635D01*
X439845Y441782D02*
Y444635D01*
X439895Y441782D02*
Y444635D01*
X439945Y441782D02*
Y444635D01*
X439995Y441782D02*
Y444635D01*
X440045Y441782D02*
Y444635D01*
X440095Y441782D02*
Y444635D01*
X440145Y441782D02*
Y444635D01*
X440195Y441782D02*
Y444635D01*
X440245Y441782D02*
Y444635D01*
X440295Y441782D02*
Y444635D01*
X440345Y441782D02*
Y444635D01*
X440395Y441782D02*
Y444635D01*
X440445Y441782D02*
Y444635D01*
X440495Y441782D02*
Y444635D01*
G54D94*
X453957Y428543D02*
X453958Y428523D01*
X453961Y428504*
X453967Y428485*
X453974Y428466*
X453984Y428449*
X453995Y428433*
X454009Y428418*
X454023Y428405*
X454040Y428393*
X454057Y428384*
X454075Y428376*
X454094Y428371*
X454114Y428367*
X454134Y428366*
X460039*
X460059Y428367*
X460079Y428371*
X460098Y428376*
X460116Y428384*
X460134Y428393*
X460150Y428405*
X460165Y428418*
X460178Y428433*
X460189Y428449*
X460199Y428466*
X460207Y428485*
X460212Y428504*
X460215Y428523*
X460217Y428543*
Y432480*
X460215Y432500*
X460212Y432520*
X460207Y432539*
X460199Y432557*
X460189Y432575*
X460178Y432591*
X460165Y432606*
X460150Y432619*
X460134Y432630*
X460116Y432640*
X460098Y432648*
X460079Y432653*
X460059Y432656*
X460039Y432657*
X454134*
X454114Y432656*
X454094Y432653*
X454075Y432648*
X454057Y432640*
X454040Y432630*
X454023Y432619*
X454009Y432606*
X453995Y432591*
X453984Y432575*
X453974Y432557*
X453967Y432539*
X453961Y432520*
X453958Y432500*
X453957Y432480*
Y428543*
Y432480*
X453976Y428463D02*
Y432561D01*
X453996Y428432D02*
Y432592D01*
X454016Y428412D02*
Y432612D01*
X454035Y428396D02*
Y432627D01*
X454055Y428385D02*
Y432639D01*
X454075Y428376D02*
Y432647D01*
X454094Y428371D02*
Y432653D01*
X454114Y428367D02*
Y432656D01*
X454134Y428366D02*
Y432657D01*
X454154Y428366D02*
Y432657D01*
X454173Y428366D02*
Y432657D01*
X454193Y428366D02*
Y432657D01*
X454213Y428366D02*
Y432657D01*
X454232Y428366D02*
Y432657D01*
X454252Y428366D02*
Y432657D01*
X454272Y428366D02*
Y432657D01*
X454291Y428366D02*
Y432657D01*
X454311Y428366D02*
Y432657D01*
X454331Y428366D02*
Y432657D01*
X454350Y428366D02*
Y432657D01*
X454370Y428366D02*
Y432657D01*
X454390Y428366D02*
Y432657D01*
X454409Y428366D02*
Y432657D01*
X454429Y428366D02*
Y432657D01*
X454449Y428366D02*
Y432657D01*
X454469Y428366D02*
Y432657D01*
X454488Y428366D02*
Y432657D01*
X454508Y428366D02*
Y432657D01*
X454528Y428366D02*
Y432657D01*
X454547Y428366D02*
Y432657D01*
X454567Y428366D02*
Y432657D01*
X454587Y428366D02*
Y432657D01*
X454606Y428366D02*
Y432657D01*
X454626Y428366D02*
Y432657D01*
X454646Y428366D02*
Y432657D01*
X454665Y428366D02*
Y432657D01*
X454685Y428366D02*
Y432657D01*
X454705Y428366D02*
Y432657D01*
X454724Y428366D02*
Y432657D01*
X454744Y428366D02*
Y432657D01*
X454764Y428366D02*
Y432657D01*
X454783Y428366D02*
Y432657D01*
X454803Y428366D02*
Y432657D01*
X454823Y428366D02*
Y432657D01*
X454843Y428366D02*
Y432657D01*
X454862Y428366D02*
Y432657D01*
X454882Y428366D02*
Y432657D01*
X454902Y428366D02*
Y432657D01*
X454921Y428366D02*
Y432657D01*
X454941Y428366D02*
Y432657D01*
X454961Y428366D02*
Y432657D01*
X454980Y428366D02*
Y432657D01*
X455000Y428366D02*
Y432657D01*
X455020Y428366D02*
Y432657D01*
X455039Y428366D02*
Y432657D01*
X455059Y428366D02*
Y432657D01*
X455079Y428366D02*
Y432657D01*
X455098Y428366D02*
Y432657D01*
X455118Y428366D02*
Y432657D01*
X455138Y428366D02*
Y432657D01*
X455157Y428366D02*
Y432657D01*
X455177Y428366D02*
Y432657D01*
X455197Y428366D02*
Y432657D01*
X455217Y428366D02*
Y432657D01*
X455236Y428366D02*
Y432657D01*
X455256Y428366D02*
Y432657D01*
X455276Y428366D02*
Y432657D01*
X455295Y428366D02*
Y432657D01*
X455315Y428366D02*
Y432657D01*
X455335Y428366D02*
Y432657D01*
X455354Y428366D02*
Y432657D01*
X455374Y428366D02*
Y432657D01*
X455394Y428366D02*
Y432657D01*
X455413Y428366D02*
Y432657D01*
X455433Y428366D02*
Y432657D01*
X455453Y428366D02*
Y432657D01*
X455472Y428366D02*
Y432657D01*
X455492Y428366D02*
Y432657D01*
X455512Y428366D02*
Y432657D01*
X455531Y428366D02*
Y432657D01*
X455551Y428366D02*
Y432657D01*
X455571Y428366D02*
Y432657D01*
X455591Y428366D02*
Y432657D01*
X455610Y428366D02*
Y432657D01*
X455630Y428366D02*
Y432657D01*
X455650Y428366D02*
Y432657D01*
X455669Y428366D02*
Y432657D01*
X455689Y428366D02*
Y432657D01*
X455709Y428366D02*
Y432657D01*
X455728Y428366D02*
Y432657D01*
X455748Y428366D02*
Y432657D01*
X455768Y428366D02*
Y432657D01*
X455787Y428366D02*
Y432657D01*
X455807Y428366D02*
Y432657D01*
X455827Y428366D02*
Y432657D01*
X455846Y428366D02*
Y432657D01*
X455866Y428366D02*
Y432657D01*
X455886Y428366D02*
Y432657D01*
X455906Y428366D02*
Y432657D01*
X455925Y428366D02*
Y432657D01*
X455945Y428366D02*
Y432657D01*
X455965Y428366D02*
Y432657D01*
X455984Y428366D02*
Y432657D01*
X456004Y428366D02*
Y432657D01*
X456024Y428366D02*
Y432657D01*
X456043Y428366D02*
Y432657D01*
X456063Y428366D02*
Y432657D01*
X456083Y428366D02*
Y432657D01*
X456102Y428366D02*
Y432657D01*
X456122Y428366D02*
Y432657D01*
X456142Y428366D02*
Y432657D01*
X456161Y428366D02*
Y432657D01*
X456181Y428366D02*
Y432657D01*
X456201Y428366D02*
Y432657D01*
X456220Y428366D02*
Y432657D01*
X456240Y428366D02*
Y432657D01*
X456260Y428366D02*
Y432657D01*
X456280Y428366D02*
Y432657D01*
X456299Y428366D02*
Y432657D01*
X456319Y428366D02*
Y432657D01*
X456339Y428366D02*
Y432657D01*
X456358Y428366D02*
Y432657D01*
X456378Y428366D02*
Y432657D01*
X456398Y428366D02*
Y432657D01*
X456417Y428366D02*
Y432657D01*
X456437Y428366D02*
Y432657D01*
X456457Y428366D02*
Y432657D01*
X456476Y428366D02*
Y432657D01*
X456496Y428366D02*
Y432657D01*
X456516Y428366D02*
Y432657D01*
X456535Y428366D02*
Y432657D01*
X456555Y428366D02*
Y432657D01*
X456575Y428366D02*
Y432657D01*
X456594Y428366D02*
Y432657D01*
X456614Y428366D02*
Y432657D01*
X456634Y428366D02*
Y432657D01*
X456654Y428366D02*
Y432657D01*
X456673Y428366D02*
Y432657D01*
X456693Y428366D02*
Y432657D01*
X456713Y428366D02*
Y432657D01*
X456732Y428366D02*
Y432657D01*
X456752Y428366D02*
Y432657D01*
X456772Y428366D02*
Y432657D01*
X456791Y428366D02*
Y432657D01*
X456811Y428366D02*
Y432657D01*
X456831Y428366D02*
Y432657D01*
X456850Y428366D02*
Y432657D01*
X456870Y428366D02*
Y432657D01*
X456890Y428366D02*
Y432657D01*
X456909Y428366D02*
Y432657D01*
X456929Y428366D02*
Y432657D01*
X456949Y428366D02*
Y432657D01*
X456969Y428366D02*
Y432657D01*
X456988Y428366D02*
Y432657D01*
X457008Y428366D02*
Y432657D01*
X457028Y428366D02*
Y432657D01*
X457047Y428366D02*
Y432657D01*
X457067Y428366D02*
Y432657D01*
X457087Y428366D02*
Y432657D01*
X457106Y428366D02*
Y432657D01*
X457126Y428366D02*
Y432657D01*
X457146Y428366D02*
Y432657D01*
X457165Y428366D02*
Y432657D01*
X457185Y428366D02*
Y432657D01*
X457205Y428366D02*
Y432657D01*
X457224Y428366D02*
Y432657D01*
X457244Y428366D02*
Y432657D01*
X457264Y428366D02*
Y432657D01*
X457283Y428366D02*
Y432657D01*
X457303Y428366D02*
Y432657D01*
X457323Y428366D02*
Y432657D01*
X457343Y428366D02*
Y432657D01*
X457362Y428366D02*
Y432657D01*
X457382Y428366D02*
Y432657D01*
X457402Y428366D02*
Y432657D01*
X457421Y428366D02*
Y432657D01*
X457441Y428366D02*
Y432657D01*
X457461Y428366D02*
Y432657D01*
X457480Y428366D02*
Y432657D01*
X457500Y428366D02*
Y432657D01*
X457520Y428366D02*
Y432657D01*
X457539Y428366D02*
Y432657D01*
X457559Y428366D02*
Y432657D01*
X457579Y428366D02*
Y432657D01*
X457598Y428366D02*
Y432657D01*
X457618Y428366D02*
Y432657D01*
X457638Y428366D02*
Y432657D01*
X457657Y428366D02*
Y432657D01*
X457677Y428366D02*
Y432657D01*
X457697Y428366D02*
Y432657D01*
X457717Y428366D02*
Y432657D01*
X457736Y428366D02*
Y432657D01*
X457756Y428366D02*
Y432657D01*
X457776Y428366D02*
Y432657D01*
X457795Y428366D02*
Y432657D01*
X457815Y428366D02*
Y432657D01*
X457835Y428366D02*
Y432657D01*
X457854Y428366D02*
Y432657D01*
X457874Y428366D02*
Y432657D01*
X457894Y428366D02*
Y432657D01*
X457913Y428366D02*
Y432657D01*
X457933Y428366D02*
Y432657D01*
X457953Y428366D02*
Y432657D01*
X457972Y428366D02*
Y432657D01*
X457992Y428366D02*
Y432657D01*
X458012Y428366D02*
Y432657D01*
X458031Y428366D02*
Y432657D01*
X458051Y428366D02*
Y432657D01*
X458071Y428366D02*
Y432657D01*
X458091Y428366D02*
Y432657D01*
X458110Y428366D02*
Y432657D01*
X458130Y428366D02*
Y432657D01*
X458150Y428366D02*
Y432657D01*
X458169Y428366D02*
Y432657D01*
X458189Y428366D02*
Y432657D01*
X458209Y428366D02*
Y432657D01*
X458228Y428366D02*
Y432657D01*
X458248Y428366D02*
Y432657D01*
X458268Y428366D02*
Y432657D01*
X458287Y428366D02*
Y432657D01*
X458307Y428366D02*
Y432657D01*
X458327Y428366D02*
Y432657D01*
X458346Y428366D02*
Y432657D01*
X458366Y428366D02*
Y432657D01*
X458386Y428366D02*
Y432657D01*
X458406Y428366D02*
Y432657D01*
X458425Y428366D02*
Y432657D01*
X458445Y428366D02*
Y432657D01*
X458465Y428366D02*
Y432657D01*
X458484Y428366D02*
Y432657D01*
X458504Y428366D02*
Y432657D01*
X458524Y428366D02*
Y432657D01*
X458543Y428366D02*
Y432657D01*
X458563Y428366D02*
Y432657D01*
X458583Y428366D02*
Y432657D01*
X458602Y428366D02*
Y432657D01*
X458622Y428366D02*
Y432657D01*
X458642Y428366D02*
Y432657D01*
X458661Y428366D02*
Y432657D01*
X458681Y428366D02*
Y432657D01*
X458701Y428366D02*
Y432657D01*
X458720Y428366D02*
Y432657D01*
X458740Y428366D02*
Y432657D01*
X458760Y428366D02*
Y432657D01*
X458780Y428366D02*
Y432657D01*
X458799Y428366D02*
Y432657D01*
X458819Y428366D02*
Y432657D01*
X458839Y428366D02*
Y432657D01*
X458858Y428366D02*
Y432657D01*
X458878Y428366D02*
Y432657D01*
X458898Y428366D02*
Y432657D01*
X458917Y428366D02*
Y432657D01*
X458937Y428366D02*
Y432657D01*
X458957Y428366D02*
Y432657D01*
X458976Y428366D02*
Y432657D01*
X458996Y428366D02*
Y432657D01*
X459016Y428366D02*
Y432657D01*
X459035Y428366D02*
Y432657D01*
X459055Y428366D02*
Y432657D01*
X459075Y428366D02*
Y432657D01*
X459094Y428366D02*
Y432657D01*
X459114Y428366D02*
Y432657D01*
X459134Y428366D02*
Y432657D01*
X459154Y428366D02*
Y432657D01*
X459173Y428366D02*
Y432657D01*
X459193Y428366D02*
Y432657D01*
X459213Y428366D02*
Y432657D01*
X459232Y428366D02*
Y432657D01*
X459252Y428366D02*
Y432657D01*
X459272Y428366D02*
Y432657D01*
X459291Y428366D02*
Y432657D01*
X459311Y428366D02*
Y432657D01*
X459331Y428366D02*
Y432657D01*
X459350Y428366D02*
Y432657D01*
X459370Y428366D02*
Y432657D01*
X459390Y428366D02*
Y432657D01*
X459409Y428366D02*
Y432657D01*
X459429Y428366D02*
Y432657D01*
X459449Y428366D02*
Y432657D01*
X459469Y428366D02*
Y432657D01*
X459488Y428366D02*
Y432657D01*
X459508Y428366D02*
Y432657D01*
X459528Y428366D02*
Y432657D01*
X459547Y428366D02*
Y432657D01*
X459567Y428366D02*
Y432657D01*
X459587Y428366D02*
Y432657D01*
X459606Y428366D02*
Y432657D01*
X459626Y428366D02*
Y432657D01*
X459646Y428366D02*
Y432657D01*
X459665Y428366D02*
Y432657D01*
X459685Y428366D02*
Y432657D01*
X459705Y428366D02*
Y432657D01*
X459724Y428366D02*
Y432657D01*
X459744Y428366D02*
Y432657D01*
X459764Y428366D02*
Y432657D01*
X459783Y428366D02*
Y432657D01*
X459803Y428366D02*
Y432657D01*
X459823Y428366D02*
Y432657D01*
X459843Y428366D02*
Y432657D01*
X459862Y428366D02*
Y432657D01*
X459882Y428366D02*
Y432657D01*
X459902Y428366D02*
Y432657D01*
X459921Y428366D02*
Y432657D01*
X459941Y428366D02*
Y432657D01*
X459961Y428366D02*
Y432657D01*
X459980Y428366D02*
Y432657D01*
X460000Y428366D02*
Y432657D01*
X460020Y428366D02*
Y432657D01*
X460039Y428366D02*
Y432657D01*
X460059Y428367D02*
Y432656D01*
X460079Y428371D02*
Y432653D01*
X460098Y428376D02*
Y432647D01*
X460118Y428385D02*
Y432639D01*
X460138Y428396D02*
Y432627D01*
X460157Y428412D02*
Y432612D01*
X460177Y428432D02*
Y432592D01*
X460197Y428463D02*
Y432561D01*
G54D158*
X463209Y489173D02*
X465531D01*
Y485669*
X463209*
Y489173*
Y485827D02*
X465531D01*
X463209Y486220D02*
X465531D01*
X463209Y486614D02*
X465531D01*
X463209Y487008D02*
X465531D01*
X463209Y487402D02*
X465531D01*
X463209Y487795D02*
X465531D01*
X463209Y488189D02*
X465531D01*
X463209Y488583D02*
X465531D01*
X463209Y488976D02*
X465531D01*
X463386Y485669D02*
Y489173D01*
X463780Y485669D02*
Y489173D01*
X464173Y485669D02*
Y489173D01*
X464567Y485669D02*
Y489173D01*
X464961Y485669D02*
Y489173D01*
X465354Y485669D02*
Y489173D01*
X459469D02*
X461791D01*
Y485669*
X459469*
Y489173*
Y485827D02*
X461791D01*
X459469Y486220D02*
X461791D01*
X459469Y486614D02*
X461791D01*
X459469Y487008D02*
X461791D01*
X459469Y487402D02*
X461791D01*
X459469Y487795D02*
X461791D01*
X459469Y488189D02*
X461791D01*
X459469Y488583D02*
X461791D01*
X459469Y488976D02*
X461791D01*
X459843Y485669D02*
Y489173D01*
X460236Y485669D02*
Y489173D01*
X460630Y485669D02*
Y489173D01*
X461024Y485669D02*
Y489173D01*
X461417Y485669D02*
Y489173D01*
X455728D02*
X458051D01*
Y485669*
X455728*
Y489173*
Y485827D02*
X458051D01*
X455728Y486220D02*
X458051D01*
X455728Y486614D02*
X458051D01*
X455728Y487008D02*
X458051D01*
X455728Y487402D02*
X458051D01*
X455728Y487795D02*
X458051D01*
X455728Y488189D02*
X458051D01*
X455728Y488583D02*
X458051D01*
X455728Y488976D02*
X458051D01*
X455906Y485669D02*
Y489173D01*
X456299Y485669D02*
Y489173D01*
X456693Y485669D02*
Y489173D01*
X457087Y485669D02*
Y489173D01*
X457480Y485669D02*
Y489173D01*
X457874Y485669D02*
Y489173D01*
X455728Y478976D02*
X458051D01*
Y475472*
X455728*
Y478976*
Y475591D02*
X458051D01*
X455728Y475984D02*
X458051D01*
X455728Y476378D02*
X458051D01*
X455728Y476772D02*
X458051D01*
X455728Y477165D02*
X458051D01*
X455728Y477559D02*
X458051D01*
X455728Y477953D02*
X458051D01*
X455728Y478346D02*
X458051D01*
X455728Y478740D02*
X458051D01*
X455906Y475472D02*
Y478976D01*
X456299Y475472D02*
Y478976D01*
X456693Y475472D02*
Y478976D01*
X457087Y475472D02*
Y478976D01*
X457480Y475472D02*
Y478976D01*
X457874Y475472D02*
Y478976D01*
X463209D02*
X465531D01*
Y475472*
X463209*
Y478976*
Y475591D02*
X465531D01*
X463209Y475984D02*
X465531D01*
X463209Y476378D02*
X465531D01*
X463209Y476772D02*
X465531D01*
X463209Y477165D02*
X465531D01*
X463209Y477559D02*
X465531D01*
X463209Y477953D02*
X465531D01*
X463209Y478346D02*
X465531D01*
X463209Y478740D02*
X465531D01*
X463386Y475472D02*
Y478976D01*
X463780Y475472D02*
Y478976D01*
X464173Y475472D02*
Y478976D01*
X464567Y475472D02*
Y478976D01*
X464961Y475472D02*
Y478976D01*
X465354Y475472D02*
Y478976D01*
X447835Y488780D02*
X449803D01*
Y486024*
X447835*
Y488780*
Y486220D02*
X449803D01*
X447835Y486614D02*
X449803D01*
X447835Y487008D02*
X449803D01*
X447835Y487402D02*
X449803D01*
X447835Y487795D02*
X449803D01*
X447835Y488189D02*
X449803D01*
X447835Y488583D02*
X449803D01*
X448031Y486024D02*
Y488780D01*
X448425Y486024D02*
Y488780D01*
X448819Y486024D02*
Y488780D01*
X449213Y486024D02*
Y488780D01*
X449606Y486024D02*
Y488780D01*
X444094D02*
X446063D01*
Y486024*
X444094*
Y488780*
Y486220D02*
X446063D01*
X444094Y486614D02*
X446063D01*
X444094Y487008D02*
X446063D01*
X444094Y487402D02*
X446063D01*
X444094Y487795D02*
X446063D01*
X444094Y488189D02*
X446063D01*
X444094Y488583D02*
X446063D01*
X444094Y486024D02*
Y488780D01*
X444488Y486024D02*
Y488780D01*
X444882Y486024D02*
Y488780D01*
X445276Y486024D02*
Y488780D01*
X445669Y486024D02*
Y488780D01*
X446063Y486024D02*
Y488780D01*
X440354D02*
X442323D01*
Y486024*
X440354*
Y488780*
Y486220D02*
X442323D01*
X440354Y486614D02*
X442323D01*
X440354Y487008D02*
X442323D01*
X440354Y487402D02*
X442323D01*
X440354Y487795D02*
X442323D01*
X440354Y488189D02*
X442323D01*
X440354Y488583D02*
X442323D01*
X440551Y486024D02*
Y488780D01*
X440945Y486024D02*
Y488780D01*
X441339Y486024D02*
Y488780D01*
X441732Y486024D02*
Y488780D01*
X442126Y486024D02*
Y488780D01*
X440354Y478543D02*
X442323D01*
Y475787*
X440354*
Y478543*
Y475984D02*
X442323D01*
X440354Y476378D02*
X442323D01*
X440354Y476772D02*
X442323D01*
X440354Y477165D02*
X442323D01*
X440354Y477559D02*
X442323D01*
X440354Y477953D02*
X442323D01*
X440354Y478346D02*
X442323D01*
X440551Y475787D02*
Y478543D01*
X440945Y475787D02*
Y478543D01*
X441339Y475787D02*
Y478543D01*
X441732Y475787D02*
Y478543D01*
X442126Y475787D02*
Y478543D01*
X447835D02*
X449803D01*
Y475787*
X447835*
Y478543*
Y475984D02*
X449803D01*
X447835Y476378D02*
X449803D01*
X447835Y476772D02*
X449803D01*
X447835Y477165D02*
X449803D01*
X447835Y477559D02*
X449803D01*
X447835Y477953D02*
X449803D01*
X447835Y478346D02*
X449803D01*
X448031Y475787D02*
Y478543D01*
X448425Y475787D02*
Y478543D01*
X448819Y475787D02*
Y478543D01*
X449213Y475787D02*
Y478543D01*
X449606Y475787D02*
Y478543D01*
X457480Y500000D02*
X460433D01*
Y492520*
X457480*
Y500000*
Y492520D02*
X460433D01*
X457480Y492913D02*
X460433D01*
X457480Y493307D02*
X460433D01*
X457480Y493701D02*
X460433D01*
X457480Y494094D02*
X460433D01*
X457480Y494488D02*
X460433D01*
X457480Y494882D02*
X460433D01*
X457480Y495276D02*
X460433D01*
X457480Y495669D02*
X460433D01*
X457480Y496063D02*
X460433D01*
X457480Y496457D02*
X460433D01*
X457480Y496850D02*
X460433D01*
X457480Y497244D02*
X460433D01*
X457480Y497638D02*
X460433D01*
X457480Y498031D02*
X460433D01*
X457480Y498425D02*
X460433D01*
X457480Y498819D02*
X460433D01*
X457480Y499213D02*
X460433D01*
X457480Y499606D02*
X460433D01*
X457480Y500000D02*
X460433D01*
X457480Y492520D02*
Y500000D01*
X457874Y492520D02*
Y500000D01*
X458268Y492520D02*
Y500000D01*
X458661Y492520D02*
Y500000D01*
X459055Y492520D02*
Y500000D01*
X459449Y492520D02*
Y500000D01*
X459843Y492520D02*
Y500000D01*
X460236Y492520D02*
Y500000D01*
X450984D02*
X453937D01*
Y492520*
X450984*
Y500000*
Y492520D02*
X453937D01*
X450984Y492913D02*
X453937D01*
X450984Y493307D02*
X453937D01*
X450984Y493701D02*
X453937D01*
X450984Y494094D02*
X453937D01*
X450984Y494488D02*
X453937D01*
X450984Y494882D02*
X453937D01*
X450984Y495276D02*
X453937D01*
X450984Y495669D02*
X453937D01*
X450984Y496063D02*
X453937D01*
X450984Y496457D02*
X453937D01*
X450984Y496850D02*
X453937D01*
X450984Y497244D02*
X453937D01*
X450984Y497638D02*
X453937D01*
X450984Y498031D02*
X453937D01*
X450984Y498425D02*
X453937D01*
X450984Y498819D02*
X453937D01*
X450984Y499213D02*
X453937D01*
X450984Y499606D02*
X453937D01*
X450984Y500000D02*
X453937D01*
X451181Y492520D02*
Y500000D01*
X451575Y492520D02*
Y500000D01*
X451969Y492520D02*
Y500000D01*
X452362Y492520D02*
Y500000D01*
X452756Y492520D02*
Y500000D01*
X453150Y492520D02*
Y500000D01*
X453543Y492520D02*
Y500000D01*
X453937Y492520D02*
Y500000D01*
X499016Y438976D02*
Y440748D01*
X501772*
Y438976*
X499016*
X501772*
X499016Y439370D02*
X501772D01*
X499016Y439764D02*
X501772D01*
X499016Y440157D02*
X501772D01*
X499016Y440551D02*
X501772D01*
X499213Y438976D02*
Y440748D01*
X499606Y438976D02*
Y440748D01*
X500000Y438976D02*
Y440748D01*
X500394Y438976D02*
Y440748D01*
X500787Y438976D02*
Y440748D01*
X501181Y438976D02*
Y440748D01*
X501575Y438976D02*
Y440748D01*
X499016Y434055D02*
Y435827D01*
X501772*
Y434055*
X499016*
Y434252D02*
X501772D01*
X499016Y434646D02*
X501772D01*
X499016Y435039D02*
X501772D01*
X499016Y435433D02*
X501772D01*
X499016Y435827D02*
X501772D01*
X499213Y434055D02*
Y435827D01*
X499606Y434055D02*
Y435827D01*
X500000Y434055D02*
Y435827D01*
X500394Y434055D02*
Y435827D01*
X500787Y434055D02*
Y435827D01*
X501181Y434055D02*
Y435827D01*
X501575Y434055D02*
Y435827D01*
X476969Y467913D02*
X474016D01*
Y475394*
X476969*
Y467913*
X474016Y468110D02*
X476969D01*
X474016Y468504D02*
X476969D01*
X474016Y468898D02*
X476969D01*
X474016Y469291D02*
X476969D01*
X474016Y469685D02*
X476969D01*
X474016Y470079D02*
X476969D01*
X474016Y470472D02*
X476969D01*
X474016Y470866D02*
X476969D01*
X474016Y471260D02*
X476969D01*
X474016Y471654D02*
X476969D01*
X474016Y472047D02*
X476969D01*
X474016Y472441D02*
X476969D01*
X474016Y472835D02*
X476969D01*
X474016Y473228D02*
X476969D01*
X474016Y473622D02*
X476969D01*
X474016Y474016D02*
X476969D01*
X474016Y474409D02*
X476969D01*
X474016Y474803D02*
X476969D01*
X474016Y475197D02*
X476969D01*
X474016Y467913D02*
Y475394D01*
X474409Y467913D02*
Y475394D01*
X474803Y467913D02*
Y475394D01*
X475197Y467913D02*
Y475394D01*
X475591Y467913D02*
Y475394D01*
X475984Y467913D02*
Y475394D01*
X476378Y467913D02*
Y475394D01*
X476772Y467913D02*
Y475394D01*
X483465Y467913D02*
X480512D01*
Y475394*
X483465*
Y467913*
X480512Y468110D02*
X483465D01*
X480512Y468504D02*
X483465D01*
X480512Y468898D02*
X483465D01*
X480512Y469291D02*
X483465D01*
X480512Y469685D02*
X483465D01*
X480512Y470079D02*
X483465D01*
X480512Y470472D02*
X483465D01*
X480512Y470866D02*
X483465D01*
X480512Y471260D02*
X483465D01*
X480512Y471654D02*
X483465D01*
X480512Y472047D02*
X483465D01*
X480512Y472441D02*
X483465D01*
X480512Y472835D02*
X483465D01*
X480512Y473228D02*
X483465D01*
X480512Y473622D02*
X483465D01*
X480512Y474016D02*
X483465D01*
X480512Y474409D02*
X483465D01*
X480512Y474803D02*
X483465D01*
X480512Y475197D02*
X483465D01*
X480709Y467913D02*
Y475394D01*
X481102Y467913D02*
Y475394D01*
X481496Y467913D02*
Y475394D01*
X481890Y467913D02*
Y475394D01*
X482283Y467913D02*
Y475394D01*
X482677Y467913D02*
Y475394D01*
X483071Y467913D02*
Y475394D01*
X483465Y467913D02*
Y475394D01*
X459055Y435433D02*
X460236D01*
Y433858*
X459055*
Y435433*
Y433858D02*
X460236D01*
X459055Y434252D02*
X460236D01*
X459055Y434646D02*
X460236D01*
X459055Y435039D02*
X460236D01*
X459055Y435433D02*
X460236D01*
X459055Y433858D02*
Y435433D01*
X459449Y433858D02*
Y435433D01*
X459843Y433858D02*
Y435433D01*
X460236Y433858D02*
Y435433D01*
X453937D02*
X455118D01*
Y433858*
X453937*
Y435433*
Y433858D02*
X455118D01*
X453937Y434252D02*
X455118D01*
X453937Y434646D02*
X455118D01*
X453937Y435039D02*
X455118D01*
X453937Y435433D02*
X455118D01*
X453937Y433858D02*
Y435433D01*
X454331Y433858D02*
Y435433D01*
X454724Y433858D02*
Y435433D01*
X455118Y433858D02*
Y435433D01*
X456496Y429134D02*
X457677D01*
Y427559*
X456496*
Y429134*
Y427559D02*
X457677D01*
X456496Y427953D02*
X457677D01*
X456496Y428346D02*
X457677D01*
X456496Y428740D02*
X457677D01*
X456496Y429134D02*
X457677D01*
X456693Y427559D02*
Y429134D01*
X457087Y427559D02*
Y429134D01*
X457480Y427559D02*
Y429134D01*
X431693Y488780D02*
X433661D01*
Y486024*
X431693*
Y488780*
Y486220D02*
X433661D01*
X431693Y486614D02*
X433661D01*
X431693Y487008D02*
X433661D01*
X431693Y487402D02*
X433661D01*
X431693Y487795D02*
X433661D01*
X431693Y488189D02*
X433661D01*
X431693Y488583D02*
X433661D01*
X431890Y486024D02*
Y488780D01*
X432283Y486024D02*
Y488780D01*
X432677Y486024D02*
Y488780D01*
X433071Y486024D02*
Y488780D01*
X433465Y486024D02*
Y488780D01*
X427953D02*
X429921D01*
Y486024*
X427953*
Y488780*
Y486220D02*
X429921D01*
X427953Y486614D02*
X429921D01*
X427953Y487008D02*
X429921D01*
X427953Y487402D02*
X429921D01*
X427953Y487795D02*
X429921D01*
X427953Y488189D02*
X429921D01*
X427953Y488583D02*
X429921D01*
X427953Y486024D02*
Y488780D01*
X428346Y486024D02*
Y488780D01*
X428740Y486024D02*
Y488780D01*
X429134Y486024D02*
Y488780D01*
X429528Y486024D02*
Y488780D01*
X429921Y486024D02*
Y488780D01*
X424213D02*
X426181D01*
Y486024*
X424213*
Y488780*
Y486220D02*
X426181D01*
X424213Y486614D02*
X426181D01*
X424213Y487008D02*
X426181D01*
X424213Y487402D02*
X426181D01*
X424213Y487795D02*
X426181D01*
X424213Y488189D02*
X426181D01*
X424213Y488583D02*
X426181D01*
X424409Y486024D02*
Y488780D01*
X424803Y486024D02*
Y488780D01*
X425197Y486024D02*
Y488780D01*
X425591Y486024D02*
Y488780D01*
X425984Y486024D02*
Y488780D01*
X424213Y478543D02*
X426181D01*
Y475787*
X424213*
Y478543*
Y475984D02*
X426181D01*
X424213Y476378D02*
X426181D01*
X424213Y476772D02*
X426181D01*
X424213Y477165D02*
X426181D01*
X424213Y477559D02*
X426181D01*
X424213Y477953D02*
X426181D01*
X424213Y478346D02*
X426181D01*
X424409Y475787D02*
Y478543D01*
X424803Y475787D02*
Y478543D01*
X425197Y475787D02*
Y478543D01*
X425591Y475787D02*
Y478543D01*
X425984Y475787D02*
Y478543D01*
X431693D02*
X433661D01*
Y475787*
X431693*
Y478543*
Y475984D02*
X433661D01*
X431693Y476378D02*
X433661D01*
X431693Y476772D02*
X433661D01*
X431693Y477165D02*
X433661D01*
X431693Y477559D02*
X433661D01*
X431693Y477953D02*
X433661D01*
X431693Y478346D02*
X433661D01*
X431890Y475787D02*
Y478543D01*
X432283Y475787D02*
Y478543D01*
X432677Y475787D02*
Y478543D01*
X433071Y475787D02*
Y478543D01*
X433465Y475787D02*
Y478543D01*
X432677Y548819D02*
X425591D01*
Y546850*
X431218*
X432677Y548310*
Y548819*
X425591Y546850D02*
Y548819D01*
X425787Y546850D02*
Y548819D01*
X425984Y546850D02*
Y548819D01*
X426181Y546850D02*
Y548819D01*
X426378Y546850D02*
Y548819D01*
X426575Y546850D02*
Y548819D01*
X426772Y546850D02*
Y548819D01*
X426969Y546850D02*
Y548819D01*
X427165Y546850D02*
Y548819D01*
X427362Y546850D02*
Y548819D01*
X427559Y546850D02*
Y548819D01*
X427756Y546850D02*
Y548819D01*
X427953Y546850D02*
Y548819D01*
X428150Y546850D02*
Y548819D01*
X428346Y546850D02*
Y548819D01*
X428543Y546850D02*
Y548819D01*
X428740Y546850D02*
Y548819D01*
X428937Y546850D02*
Y548819D01*
X429134Y546850D02*
Y548819D01*
X429331Y546850D02*
Y548819D01*
X429528Y546850D02*
Y548819D01*
X429724Y546850D02*
Y548819D01*
X429921Y546850D02*
Y548819D01*
X430118Y546850D02*
Y548819D01*
X430315Y546850D02*
Y548819D01*
X430512Y546850D02*
Y548819D01*
X430709Y546850D02*
Y548819D01*
X430906Y546850D02*
Y548819D01*
X431102Y546850D02*
Y548819D01*
X431299Y546932D02*
Y548819D01*
X431496Y547129D02*
Y548819D01*
X431693Y547326D02*
Y548819D01*
X431890Y547522D02*
Y548819D01*
X432087Y547719D02*
Y548819D01*
X432283Y547916D02*
Y548819D01*
X432480Y548113D02*
Y548819D01*
X499606D02*
X492520D01*
Y548310*
X493979Y546850*
X499606*
Y548819*
X492520Y548310D02*
Y548819D01*
X492717Y548113D02*
Y548819D01*
X492913Y547916D02*
Y548819D01*
X493110Y547719D02*
Y548819D01*
X493307Y547522D02*
Y548819D01*
X493504Y547326D02*
Y548819D01*
X493701Y547129D02*
Y548819D01*
X493898Y546932D02*
Y548819D01*
X494094Y546850D02*
Y548819D01*
X494291Y546850D02*
Y548819D01*
X494488Y546850D02*
Y548819D01*
X494685Y546850D02*
Y548819D01*
X494882Y546850D02*
Y548819D01*
X495079Y546850D02*
Y548819D01*
X495276Y546850D02*
Y548819D01*
X495472Y546850D02*
Y548819D01*
X495669Y546850D02*
Y548819D01*
X495866Y546850D02*
Y548819D01*
X496063Y546850D02*
Y548819D01*
X496260Y546850D02*
Y548819D01*
X496457Y546850D02*
Y548819D01*
X496654Y546850D02*
Y548819D01*
X496850Y546850D02*
Y548819D01*
X497047Y546850D02*
Y548819D01*
X497244Y546850D02*
Y548819D01*
X497441Y546850D02*
Y548819D01*
X497638Y546850D02*
Y548819D01*
X497835Y546850D02*
Y548819D01*
X498031Y546850D02*
Y548819D01*
X498228Y546850D02*
Y548819D01*
X498425Y546850D02*
Y548819D01*
X498622Y546850D02*
Y548819D01*
X498819Y546850D02*
Y548819D01*
X499016Y546850D02*
Y548819D01*
X499213Y546850D02*
Y548819D01*
X499409Y546850D02*
Y548819D01*
X435433Y545079D02*
X434924D01*
X433465Y543619*
Y537992*
X435433*
Y545079*
X433465Y537992D02*
Y543619D01*
X433661Y537992D02*
Y543816D01*
X433858Y537992D02*
Y544013D01*
X434055Y537992D02*
Y544210D01*
X434252Y537992D02*
Y544407D01*
X434449Y537992D02*
Y544604D01*
X434646Y537992D02*
Y544800D01*
X434843Y537992D02*
Y544997D01*
X435039Y537992D02*
Y545079D01*
X435236Y537992D02*
Y545079D01*
X491732Y543619D02*
X490273Y545079D01*
X489764*
Y537992*
X491732*
Y543619*
X489764Y537992D02*
Y545079D01*
X489961Y537992D02*
Y545079D01*
X490157Y537992D02*
Y545079D01*
X490354Y537992D02*
Y544997D01*
X490551Y537992D02*
Y544800D01*
X490748Y537992D02*
Y544604D01*
X490945Y537992D02*
Y544407D01*
X491142Y537992D02*
Y544210D01*
X491339Y537992D02*
Y544013D01*
X491535Y537992D02*
Y543816D01*
X456496Y429134D02*
X457677D01*
Y427559*
X456496*
Y429134*
Y427559D02*
X457677D01*
X456496Y427953D02*
X457677D01*
X456496Y428346D02*
X457677D01*
X456496Y428740D02*
X457677D01*
X456496Y429134D02*
X457677D01*
X456693Y427559D02*
Y429134D01*
X457087Y427559D02*
Y429134D01*
X457480Y427559D02*
Y429134D01*
X407468Y649606D02*
G75*
G03X393701Y635815I146J-13913D01*
G01X407480Y649606D02*
X419291D01*
X423228Y645231D02*
G03X419288Y649607I-4586J-168D01*
G01X423228Y645226D02*
Y629134D01*
Y629135D02*
G03X427163Y624804I4590J216D01*
G01X427165Y624803D02*
X509449D01*
X509448D02*
G03X513779Y628738I-217J4590D01*
G01X513780Y628740D02*
Y645669D01*
X518113Y649606D02*
G03X513780Y645671I250J-4628D01*
G01X518110Y649606D02*
X529528D01*
X543308Y635814D02*
G03X529540Y649606I-14476J-683D01*
G01X543307Y635827D02*
Y407480D01*
X529512Y393701D02*
G03X543307Y407471I0J13795D01*
G01X529528Y393701D02*
X407480D01*
X393701Y407480D02*
G03X407480Y393701I13779J0D01*
G01X393701Y407480D02*
Y635827D01*
G54D240*
X500039Y531811D02*
X503386D01*
Y524724*
X500039*
Y531811*
Y525197D02*
X503386D01*
X500039Y525984D02*
X503386D01*
X500039Y526772D02*
X503386D01*
X500039Y527559D02*
X503386D01*
X500039Y528346D02*
X503386D01*
X500039Y529134D02*
X503386D01*
X500039Y529921D02*
X503386D01*
X500039Y530709D02*
X503386D01*
X500039Y531496D02*
X503386D01*
X500787Y524724D02*
Y531811D01*
X501575Y524724D02*
Y531811D01*
X502362Y524724D02*
Y531811D01*
X503150Y524724D02*
Y531811D01*
X482520D02*
X485866D01*
Y524724*
X482520*
Y531811*
Y525197D02*
X485866D01*
X482520Y525984D02*
X485866D01*
X482520Y526772D02*
X485866D01*
X482520Y527559D02*
X485866D01*
X482520Y528346D02*
X485866D01*
X482520Y529134D02*
X485866D01*
X482520Y529921D02*
X485866D01*
X482520Y530709D02*
X485866D01*
X482520Y531496D02*
X485866D01*
X482677Y524724D02*
Y531811D01*
X483465Y524724D02*
Y531811D01*
X484252Y524724D02*
Y531811D01*
X485039Y524724D02*
Y531811D01*
X485827Y524724D02*
Y531811D01*
X482283Y419862D02*
X480709D01*
Y423602*
X482283*
Y419862*
X480709Y420472D02*
X482283D01*
X480709Y421260D02*
X482283D01*
X480709Y422047D02*
X482283D01*
X480709Y422835D02*
X482283D01*
X481102Y419862D02*
Y423602D01*
X481890Y419862D02*
Y423602D01*
X485433Y419862D02*
X483858D01*
Y423602*
X485433*
Y419862*
X483858Y420472D02*
X485433D01*
X483858Y421260D02*
X485433D01*
X483858Y422047D02*
X485433D01*
X483858Y422835D02*
X485433D01*
X484252Y419862D02*
Y423602D01*
X485039Y419862D02*
Y423602D01*
X487402Y419862D02*
X487008D01*
Y423602*
X487402*
Y419862*
X487008Y420472D02*
X487402D01*
X487008Y421260D02*
X487402D01*
X487008Y422047D02*
X487402D01*
X487008Y422835D02*
X487402D01*
Y419862D02*
Y423602D01*
X489370Y419862D02*
X488976D01*
Y423602*
X489370*
Y419862*
X488976Y420472D02*
X489370D01*
X488976Y421260D02*
X489370D01*
X488976Y422047D02*
X489370D01*
X488976Y422835D02*
X489370D01*
X488976Y419862D02*
Y423602D01*
X491339Y419862D02*
X490945D01*
Y423602*
X491339*
Y419862*
X490945Y420472D02*
X491339D01*
X490945Y421260D02*
X491339D01*
X490945Y422047D02*
X491339D01*
X490945Y422835D02*
X491339D01*
Y419862D02*
Y423602D01*
X493307Y419862D02*
X492913D01*
Y423602*
X493307*
Y419862*
X492913Y420472D02*
X493307D01*
X492913Y421260D02*
X493307D01*
X492913Y422047D02*
X493307D01*
X492913Y422835D02*
X493307D01*
X492913Y419862D02*
Y423602D01*
X495276Y419862D02*
X494882D01*
Y423602*
X495276*
Y419862*
X494882Y420472D02*
X495276D01*
X494882Y421260D02*
X495276D01*
X494882Y422047D02*
X495276D01*
X494882Y422835D02*
X495276D01*
Y419862D02*
Y423602D01*
X497244Y419862D02*
X496850D01*
Y423602*
X497244*
Y419862*
X496850Y420472D02*
X497244D01*
X496850Y421260D02*
X497244D01*
X496850Y422047D02*
X497244D01*
X496850Y422835D02*
X497244D01*
X496850Y419862D02*
Y423602D01*
X499213Y419862D02*
X498819D01*
Y423602*
X499213*
Y419862*
X498819Y420472D02*
X499213D01*
X498819Y421260D02*
X499213D01*
X498819Y422047D02*
X499213D01*
X498819Y422835D02*
X499213D01*
Y419862D02*
Y423602D01*
X501181Y419862D02*
X500787D01*
Y423602*
X501181*
Y419862*
X500787Y420472D02*
X501181D01*
X500787Y421260D02*
X501181D01*
X500787Y422047D02*
X501181D01*
X500787Y422835D02*
X501181D01*
X500787Y419862D02*
Y423602D01*
X504331Y419862D02*
X502756D01*
Y423602*
X504331*
Y419862*
X502756Y420472D02*
X504331D01*
X502756Y421260D02*
X504331D01*
X502756Y422047D02*
X504331D01*
X502756Y422835D02*
X504331D01*
X503150Y419862D02*
Y423602D01*
X503937Y419862D02*
Y423602D01*
X507480Y419862D02*
X505906D01*
Y423602*
X507480*
Y419862*
X505906Y420472D02*
X507480D01*
X505906Y421260D02*
X507480D01*
X505906Y422047D02*
X507480D01*
X505906Y422835D02*
X507480D01*
X506299Y419862D02*
Y423602D01*
X507087Y419862D02*
Y423602D01*
X431102Y419862D02*
X429528D01*
Y423602*
X431102*
Y419862*
X429528Y420472D02*
X431102D01*
X429528Y421260D02*
X431102D01*
X429528Y422047D02*
X431102D01*
X429528Y422835D02*
X431102D01*
X429921Y419862D02*
Y423602D01*
X430709Y419862D02*
Y423602D01*
X434252Y419862D02*
X432677D01*
Y423602*
X434252*
Y419862*
X432677Y420472D02*
X434252D01*
X432677Y421260D02*
X434252D01*
X432677Y422047D02*
X434252D01*
X432677Y422835D02*
X434252D01*
X433071Y419862D02*
Y423602D01*
X433858Y419862D02*
Y423602D01*
X436220Y419862D02*
X435827D01*
Y423602*
X436220*
Y419862*
X435827Y420472D02*
X436220D01*
X435827Y421260D02*
X436220D01*
X435827Y422047D02*
X436220D01*
X435827Y422835D02*
X436220D01*
Y419862D02*
Y423602D01*
X438189Y419862D02*
X437795D01*
Y423602*
X438189*
Y419862*
X437795Y420472D02*
X438189D01*
X437795Y421260D02*
X438189D01*
X437795Y422047D02*
X438189D01*
X437795Y422835D02*
X438189D01*
X437795Y419862D02*
Y423602D01*
X440157Y419862D02*
X439764D01*
Y423602*
X440157*
Y419862*
X439764Y420472D02*
X440157D01*
X439764Y421260D02*
X440157D01*
X439764Y422047D02*
X440157D01*
X439764Y422835D02*
X440157D01*
Y419862D02*
Y423602D01*
X442126Y419862D02*
X441732D01*
Y423602*
X442126*
Y419862*
X441732Y420472D02*
X442126D01*
X441732Y421260D02*
X442126D01*
X441732Y422047D02*
X442126D01*
X441732Y422835D02*
X442126D01*
X441732Y419862D02*
Y423602D01*
X444094Y419862D02*
X443701D01*
Y423602*
X444094*
Y419862*
X443701Y420472D02*
X444094D01*
X443701Y421260D02*
X444094D01*
X443701Y422047D02*
X444094D01*
X443701Y422835D02*
X444094D01*
Y419862D02*
Y423602D01*
X446063Y419862D02*
X445669D01*
Y423602*
X446063*
Y419862*
X445669Y420472D02*
X446063D01*
X445669Y421260D02*
X446063D01*
X445669Y422047D02*
X446063D01*
X445669Y422835D02*
X446063D01*
X445669Y419862D02*
Y423602D01*
X448031Y419862D02*
X447638D01*
Y423602*
X448031*
Y419862*
X447638Y420472D02*
X448031D01*
X447638Y421260D02*
X448031D01*
X447638Y422047D02*
X448031D01*
X447638Y422835D02*
X448031D01*
Y419862D02*
Y423602D01*
X450000Y419862D02*
X449606D01*
Y423602*
X450000*
Y419862*
X449606Y420472D02*
X450000D01*
X449606Y421260D02*
X450000D01*
X449606Y422047D02*
X450000D01*
X449606Y422835D02*
X450000D01*
X449606Y419862D02*
Y423602D01*
X453150Y419862D02*
X451575D01*
Y423602*
X453150*
Y419862*
X451575Y420472D02*
X453150D01*
X451575Y421260D02*
X453150D01*
X451575Y422047D02*
X453150D01*
X451575Y422835D02*
X453150D01*
X451969Y419862D02*
Y423602D01*
X452756Y419862D02*
Y423602D01*
X456299Y419862D02*
X454724D01*
Y423602*
X456299*
Y419862*
X454724Y420472D02*
X456299D01*
X454724Y421260D02*
X456299D01*
X454724Y422047D02*
X456299D01*
X454724Y422835D02*
X456299D01*
X455118Y419862D02*
Y423602D01*
X455906Y419862D02*
Y423602D01*
X500827Y465728D02*
Y462933D01*
X496811*
Y465728*
X500827*
X496811Y462992D02*
X500827D01*
X496811Y463780D02*
X500827D01*
X496811Y464567D02*
X500827D01*
X496811Y465354D02*
X500827D01*
X496850Y462933D02*
Y465728D01*
X497638Y462933D02*
Y465728D01*
X498425Y462933D02*
Y465728D01*
X499213Y462933D02*
Y465728D01*
X500000Y462933D02*
Y465728D01*
X500787Y462933D02*
Y465728D01*
X500827Y452815D02*
Y450020D01*
X496811*
Y452815*
X500827*
X496811Y450394D02*
X500827D01*
X496811Y451181D02*
X500827D01*
X496811Y451969D02*
X500827D01*
X496811Y452756D02*
X500827D01*
X496850Y450020D02*
Y452815D01*
X497638Y450020D02*
Y452815D01*
X498425Y450020D02*
Y452815D01*
X499213Y450020D02*
Y452815D01*
X500000Y450020D02*
Y452815D01*
X500787Y450020D02*
Y452815D01*
G54D351*
X424606Y430866D03*
X509055Y620079D03*
G54D361*
X448661Y495906D02*
Y494843D01*
X446220*
Y495906*
X448661*
X446220Y495118D02*
X448661D01*
X446614Y494843D02*
Y495906D01*
X447717Y494843D02*
Y495906D01*
X448661Y501220D02*
Y500157D01*
X446220*
Y501220*
X448661*
X446220Y500630D02*
X448661D01*
X446614Y500157D02*
Y501220D01*
X447717Y500157D02*
Y501220D01*
X465157Y533701D02*
Y534764D01*
X467598*
Y533701*
X465157*
X467598*
X465354D02*
Y534764D01*
X466457Y533701D02*
Y534764D01*
X467559Y533701D02*
Y534764D01*
X465157Y528386D02*
Y529449D01*
X467598*
Y528386*
X465157*
Y529291D02*
X467598D01*
X465354Y528386D02*
Y529449D01*
X466457Y528386D02*
Y529449D01*
X467559Y528386D02*
Y529449D01*
X460197Y533701D02*
Y534764D01*
X462638*
Y533701*
X460197*
X462638*
X460945D02*
Y534764D01*
X462047Y533701D02*
Y534764D01*
X460197Y528386D02*
Y529449D01*
X462638*
Y528386*
X460197*
Y529291D02*
X462638D01*
X460945Y528386D02*
Y529449D01*
X462047Y528386D02*
Y529449D01*
X464016Y468858D02*
X462953D01*
Y471299*
X464016*
Y468858*
X462953Y469764D02*
X464016D01*
X462953Y470866D02*
X464016D01*
X463150Y468858D02*
Y471299D01*
X469331Y468858D02*
X468268D01*
Y471299*
X469331*
Y468858*
X468268Y469764D02*
X469331D01*
X468268Y470866D02*
X469331D01*
X468661Y468858D02*
Y471299D01*
X466969Y459291D02*
Y458228D01*
X464528*
Y459291*
X466969*
X464528Y458740D02*
X466969D01*
X465354Y458228D02*
Y459291D01*
X466457Y458228D02*
Y459291D01*
X466969Y464606D02*
Y463543D01*
X464528*
Y464606*
X466969*
X464528Y464252D02*
X466969D01*
X465354Y463543D02*
Y464606D01*
X466457Y463543D02*
Y464606D01*
X496496Y469528D02*
Y468465D01*
X494055*
Y469528*
X496496*
X494055Y468661D02*
X496496D01*
X495118Y468465D02*
Y469528D01*
X496220Y468465D02*
Y469528D01*
X496496Y474843D02*
Y473780D01*
X494055*
Y474843*
X496496*
X494055Y474173D02*
X496496D01*
X495118Y473780D02*
Y474843D01*
X496220Y473780D02*
Y474843D01*
X463543Y442913D02*
X464606D01*
Y440472*
X463543*
Y442913*
Y441102D02*
X464606D01*
X463543Y442205D02*
X464606D01*
X464252Y440472D02*
Y442913D01*
X458228D02*
X459291D01*
Y440472*
X458228*
Y442913*
Y441102D02*
X459291D01*
X458228Y442205D02*
X459291D01*
X458740Y440472D02*
Y442913D01*
X473976Y432047D02*
Y433110D01*
X476417*
Y432047*
X473976*
Y432283D02*
X476417D01*
X474173Y432047D02*
Y433110D01*
X475276Y432047D02*
Y433110D01*
X476378Y432047D02*
Y433110D01*
X473976Y426732D02*
Y427795D01*
X476417*
Y426732*
X473976*
Y426772D02*
X476417D01*
X474173Y426732D02*
Y427795D01*
X475276Y426732D02*
Y427795D01*
X476378Y426732D02*
Y427795D01*
X519567Y567362D02*
Y566299D01*
X517126*
Y567362*
X519567*
X517126Y566772D02*
X519567D01*
X517165Y566299D02*
Y567362D01*
X518268Y566299D02*
Y567362D01*
X519370Y566299D02*
Y567362D01*
X519567Y572677D02*
Y571614D01*
X517126*
Y572677*
X519567*
X517126Y572283D02*
X519567D01*
X517165Y571614D02*
Y572677D01*
X518268Y571614D02*
Y572677D01*
X519370Y571614D02*
Y572677D01*
X481929Y427795D02*
Y426732D01*
X479488*
Y427795*
X481929*
X479488Y426772D02*
X481929D01*
X479685Y426732D02*
Y427795D01*
X480787Y426732D02*
Y427795D01*
X481890Y426732D02*
Y427795D01*
X481929Y433110D02*
Y432047D01*
X479488*
Y433110*
X481929*
X479488Y432283D02*
X481929D01*
X479685Y432047D02*
Y433110D01*
X480787Y432047D02*
Y433110D01*
X481890Y432047D02*
Y433110D01*
X488622Y469567D02*
Y468504D01*
X486181*
Y469567*
X488622*
X486181Y468661D02*
X488622D01*
X486299Y468504D02*
Y469567D01*
X487402Y468504D02*
Y469567D01*
X488504Y468504D02*
Y469567D01*
X488622Y474882D02*
Y473819D01*
X486181*
Y474882*
X488622*
X486181Y474173D02*
X488622D01*
X486299Y473819D02*
Y474882D01*
X487402Y473819D02*
Y474882D01*
X488504Y473819D02*
Y474882D01*
X497087Y444843D02*
X496024D01*
Y447283*
X497087*
Y444843*
X496024Y445512D02*
X497087D01*
X496024Y446614D02*
X497087D01*
X496220Y444843D02*
Y447283D01*
X502402Y444843D02*
X501339D01*
Y447283*
X502402*
Y444843*
X501339Y445512D02*
X502402D01*
X501339Y446614D02*
X502402D01*
X501732Y444843D02*
Y447283D01*
X469843Y441024D02*
Y439961D01*
X467402*
Y441024*
X469843*
X467402Y440000D02*
X469843D01*
X467559Y439961D02*
Y441024D01*
X468661Y439961D02*
Y441024D01*
X469764Y439961D02*
Y441024D01*
X469843Y446339D02*
Y445276D01*
X467402*
Y446339*
X469843*
X467402Y445512D02*
X469843D01*
X467559Y445276D02*
Y446339D01*
X468661Y445276D02*
Y446339D01*
X469764Y445276D02*
Y446339D01*
X511732Y571575D02*
Y572638D01*
X514173*
Y571575*
X511732*
Y572283D02*
X514173D01*
X512756Y571575D02*
Y572638D01*
X513858Y571575D02*
Y572638D01*
X511732Y566260D02*
Y567323D01*
X514173*
Y566260*
X511732*
Y566772D02*
X514173D01*
X512756Y566260D02*
Y567323D01*
X513858Y566260D02*
Y567323D01*
X506535Y548268D02*
X505472D01*
Y550709*
X506535*
Y548268*
X505472Y549134D02*
X506535D01*
X505472Y550236D02*
X506535D01*
X506142Y548268D02*
Y550709D01*
X511850Y548268D02*
X510787D01*
Y550709*
X511850*
Y548268*
X510787Y549134D02*
X511850D01*
X510787Y550236D02*
X511850D01*
X511654Y548268D02*
Y550709D01*
X510787Y555827D02*
X511850D01*
Y553386*
X510787*
Y555827*
Y553543D02*
X511850D01*
X510787Y554646D02*
X511850D01*
X510787Y555748D02*
X511850D01*
X511654Y553386D02*
Y555827D01*
X505472D02*
X506535D01*
Y553386*
X505472*
Y555827*
Y553543D02*
X506535D01*
X505472Y554646D02*
X506535D01*
X505472Y555748D02*
X506535D01*
X506142Y553386D02*
Y555827D01*
G54D404*
X517717Y440748D02*
Y438780D01*
X505906*
Y440748*
X517717*
X505906Y438976D02*
X517717D01*
X505906Y438780D02*
Y440748D01*
X507874Y438780D02*
Y440748D01*
X509843Y438780D02*
Y440748D01*
X511811Y438780D02*
Y440748D01*
X513780Y438780D02*
Y440748D01*
X515748Y438780D02*
Y440748D01*
X517717Y438780D02*
Y440748D01*
Y448622D02*
Y446654D01*
X505906*
Y448622*
X517717*
X505906Y446850D02*
X517717D01*
X505906Y446654D02*
Y448622D01*
X507874Y446654D02*
Y448622D01*
X509843Y446654D02*
Y448622D01*
X511811Y446654D02*
Y448622D01*
X513780Y446654D02*
Y448622D01*
X515748Y446654D02*
Y448622D01*
X517717Y446654D02*
Y448622D01*
X540157Y458661D02*
Y454724D01*
X528346*
Y458661*
X540157*
X528346Y454724D02*
X540157D01*
X528346Y456693D02*
X540157D01*
X528346Y458661D02*
X540157D01*
X529528Y454724D02*
Y458661D01*
X531496Y454724D02*
Y458661D01*
X533465Y454724D02*
Y458661D01*
X535433Y454724D02*
Y458661D01*
X537402Y454724D02*
Y458661D01*
X539370Y454724D02*
Y458661D01*
X540157Y432677D02*
Y428740D01*
X528346*
Y432677*
X540157*
X528346Y429134D02*
X540157D01*
X528346Y431102D02*
X540157D01*
X529528Y428740D02*
Y432677D01*
X531496Y428740D02*
Y432677D01*
X533465Y428740D02*
Y432677D01*
X535433Y428740D02*
Y432677D01*
X537402Y428740D02*
Y432677D01*
X539370Y428740D02*
Y432677D01*
X517717Y588386D02*
Y586417D01*
X505906*
Y588386*
X517717*
X505906Y586614D02*
X517717D01*
X505906Y586417D02*
Y588386D01*
X507874Y586417D02*
Y588386D01*
X509843Y586417D02*
Y588386D01*
X511811Y586417D02*
Y588386D01*
X513780Y586417D02*
Y588386D01*
X515748Y586417D02*
Y588386D01*
X517717Y586417D02*
Y588386D01*
Y596260D02*
Y594291D01*
X505906*
Y596260*
X517717*
X505906Y594488D02*
X517717D01*
X505906Y594291D02*
Y596260D01*
X507874Y594291D02*
Y596260D01*
X509843Y594291D02*
Y596260D01*
X511811Y594291D02*
Y596260D01*
X513780Y594291D02*
Y596260D01*
X515748Y594291D02*
Y596260D01*
X517717Y594291D02*
Y596260D01*
X540157Y606299D02*
Y602362D01*
X528346*
Y606299*
X540157*
X528346Y602362D02*
X540157D01*
X528346Y604331D02*
X540157D01*
X528346Y606299D02*
X540157D01*
X529528Y602362D02*
Y606299D01*
X531496Y602362D02*
Y606299D01*
X533465Y602362D02*
Y606299D01*
X535433Y602362D02*
Y606299D01*
X537402Y602362D02*
Y606299D01*
X539370Y602362D02*
Y606299D01*
X540157Y580315D02*
Y576378D01*
X528346*
Y580315*
X540157*
X528346Y576772D02*
X540157D01*
X528346Y578740D02*
X540157D01*
X529528Y576378D02*
Y580315D01*
X531496Y576378D02*
Y580315D01*
X533465Y576378D02*
Y580315D01*
X535433Y576378D02*
Y580315D01*
X537402Y576378D02*
Y580315D01*
X539370Y576378D02*
Y580315D01*
G54D408*
X429134Y621457D03*
Y617126D03*
Y612795D03*
Y608465D03*
Y604134D03*
Y599803D03*
Y595472D03*
Y591142D03*
Y586811D03*
Y582480D03*
Y578150D03*
Y573819D03*
Y569488D03*
Y565157D03*
Y560827D03*
Y556496D03*
Y552165D03*
X496063D03*
Y556496D03*
Y560827D03*
Y565157D03*
Y569488D03*
Y573819D03*
Y578150D03*
Y582480D03*
Y586811D03*
Y591142D03*
Y595472D03*
Y599803D03*
Y604134D03*
Y608465D03*
Y612795D03*
Y617126D03*
Y621457D03*
G54D409*
X428150Y547835D03*
X428150D03*
G54D410*
X438780Y541535D03*
X443110D03*
X447441D03*
X451772D03*
X456102D03*
X460433D03*
X464764D03*
X469094D03*
X473425D03*
X477756D03*
X482087D03*
X486417D03*
G54D411*
X496850Y547835D03*
X496850D03*
G54D412*
X453780Y600394D03*
X460709D03*
X467638D03*
X453780Y595669D03*
X460709D03*
X467638D03*
X453780Y590945D03*
X460709D03*
X467638D03*
X453780Y586220D03*
X460709D03*
X467638D03*
X453780Y562598D03*
Y557874D03*
Y553150D03*
X467638Y562598D03*
Y557874D03*
Y553150D03*
G54D413*
X434449Y540748D03*
X490748D03*
X434449D03*
X490748D03*
G54D414*
X479587Y511654D02*
X478681D01*
Y512756*
X479587*
Y511654*
X478681Y512362D02*
X479587D01*
X479449Y511654D02*
Y512756D01*
X482736Y511654D02*
X481831D01*
Y512756*
X482736*
Y511654*
X481831Y512362D02*
X482736D01*
X482047Y511654D02*
Y512756D01*
X499843Y491673D02*
Y492579D01*
X500945*
Y491673*
X499843*
Y492441D02*
X500945D01*
X500236Y491673D02*
Y492579D01*
X499843Y488524D02*
Y489429D01*
X500945*
Y488524*
X499843*
Y488976D02*
X500945D01*
X500236Y488524D02*
Y489429D01*
X508799Y487756D02*
X509705D01*
Y486654*
X508799*
Y487756*
Y487244D02*
X509705D01*
X508898Y486654D02*
Y487756D01*
X505650D02*
X506555D01*
Y486654*
X505650*
Y487756*
Y487244D02*
X506555D01*
X506299Y486654D02*
Y487756D01*
X421102Y554665D02*
Y555571D01*
X422205*
Y554665*
X421102*
Y554803D02*
X422205D01*
X421417Y554665D02*
Y555571D01*
X421102Y551516D02*
Y552421D01*
X422205*
Y551516*
X421102*
Y552205D02*
X422205D01*
X421417Y551516D02*
Y552421D01*
X430866Y444587D02*
Y443681D01*
X429764*
Y444587*
X430866*
X429764Y443937D02*
X430866D01*
X430079Y443681D02*
Y444587D01*
X430866Y447736D02*
Y446831D01*
X429764*
Y447736*
X430866*
X429764Y447402D02*
X430866D01*
X430079Y446831D02*
Y447736D01*
X506555Y477205D02*
X505650D01*
Y478307*
X506555*
Y477205*
X505650Y477717D02*
X506555D01*
X506299Y477205D02*
Y478307D01*
X509705Y477205D02*
X508799D01*
Y478307*
X509705*
Y477205*
X508799Y477717D02*
X509705D01*
X508898Y477205D02*
Y478307D01*
X433130Y472087D02*
X432224D01*
Y473189*
X433130*
Y472087*
X432224Y472520D02*
X433130D01*
X432677Y472087D02*
Y473189D01*
X436280Y472087D02*
X435374D01*
Y473189*
X436280*
Y472087*
X435374Y472520D02*
X436280D01*
X436142Y472087D02*
Y473189D01*
X447579Y492283D02*
X448484D01*
Y491181*
X447579*
Y492283*
Y491575D02*
X448484D01*
X448268Y491181D02*
Y492283D01*
X444429D02*
X445335D01*
Y491181*
X444429*
Y492283*
Y491575D02*
X445335D01*
X444803Y491181D02*
Y492283D01*
X432028D02*
X432933D01*
Y491181*
X432028*
Y492283*
Y491575D02*
X432933D01*
X432677Y491181D02*
Y492283D01*
X428878D02*
X429783D01*
Y491181*
X428878*
Y492283*
Y491575D02*
X429783D01*
X429213Y491181D02*
Y492283D01*
X469843Y476437D02*
Y475531D01*
X468740*
Y476437*
X469843*
X468740Y475984D02*
X469843D01*
X469055Y475531D02*
Y476437D01*
X469843Y479587D02*
Y478681D01*
X468740*
Y479587*
X469843*
X468740Y479449D02*
X469843D01*
X469055Y478681D02*
Y479587D01*
X465906Y494350D02*
Y493445D01*
X464803*
Y494350*
X465906*
X464803Y494173D02*
X465906D01*
X465591Y493445D02*
Y494350D01*
X465906Y497500D02*
Y496594D01*
X464803*
Y497500*
X465906*
X464803Y496772D02*
X465906D01*
X465591Y496594D02*
Y497500D01*
X500945Y469350D02*
Y468445D01*
X499843*
Y469350*
X500945*
X499843Y469055D02*
X500945D01*
X500236Y468445D02*
Y469350D01*
X500945Y472500D02*
Y471594D01*
X499843*
Y472500*
X500945*
X499843Y471654D02*
X500945D01*
X500236Y471594D02*
Y472500D01*
X500945Y476043D02*
Y475138D01*
X499843*
Y476043*
X500945*
X499843Y475984D02*
X500945D01*
X500236Y475138D02*
Y476043D01*
X500945Y479193D02*
Y478287D01*
X499843*
Y479193*
X500945*
X499843Y478583D02*
X500945D01*
X500236Y478287D02*
Y479193D01*
X449272Y472087D02*
X448366D01*
Y473189*
X449272*
Y472087*
X448366Y472520D02*
X449272D01*
X449134Y472087D02*
Y473189D01*
X452421Y472087D02*
X451516D01*
Y473189*
X452421*
Y472087*
X451516Y472520D02*
X452421D01*
X451732Y472087D02*
Y473189D01*
X506555Y481142D02*
X505650D01*
Y482244*
X506555*
Y481142*
X505650Y481181D02*
X506555D01*
X505650Y482047D02*
X506555D01*
X506299Y481142D02*
Y482244D01*
X509705Y481142D02*
X508799D01*
Y482244*
X509705*
Y481142*
X508799Y481181D02*
X509705D01*
X508799Y482047D02*
X509705D01*
X508898Y481142D02*
Y482244D01*
X503110Y500059D02*
Y499154D01*
X502008*
Y500059*
X503110*
X502008Y499370D02*
X503110D01*
X502835Y499154D02*
Y500059D01*
X503110Y503209D02*
Y502303D01*
X502008*
Y503209*
X503110*
X502008Y502835D02*
X503110D01*
X502835Y502303D02*
Y503209D01*
X506850Y500059D02*
Y499154D01*
X505748*
Y500059*
X506850*
X505748Y499370D02*
X506850D01*
X506299Y499154D02*
Y500059D01*
X506850Y503209D02*
Y502303D01*
X505748*
Y503209*
X506850*
X505748Y502835D02*
X506850D01*
X506299Y502303D02*
Y503209D01*
X431457Y464232D02*
Y463327D01*
X430354*
Y464232*
X431457*
X430354Y463858D02*
X431457D01*
X430945Y463327D02*
Y464232D01*
X431457Y467382D02*
Y466476D01*
X430354*
Y467382*
X431457*
X430354Y467323D02*
X431457D01*
X430945Y466476D02*
Y467382D01*
X434803Y464232D02*
Y463327D01*
X433701*
Y464232*
X434803*
X433701Y463858D02*
X434803D01*
X434409Y463327D02*
Y464232D01*
X434803Y467382D02*
Y466476D01*
X433701*
Y467382*
X434803*
X433701Y467323D02*
X434803D01*
X434409Y466476D02*
Y467382D01*
X442480Y464232D02*
Y463327D01*
X441378*
Y464232*
X442480*
X441378Y463858D02*
X442480D01*
X442205Y463327D02*
Y464232D01*
X442480Y467382D02*
Y466476D01*
X441378*
Y467382*
X442480*
X441378Y467323D02*
X442480D01*
X442205Y466476D02*
Y467382D01*
X446024Y464232D02*
Y463327D01*
X444921*
Y464232*
X446024*
X444921Y463858D02*
X446024D01*
X445669Y463327D02*
Y464232D01*
X446024Y467382D02*
Y466476D01*
X444921*
Y467382*
X446024*
X444921Y467323D02*
X446024D01*
X445669Y466476D02*
Y467382D01*
X469843Y490610D02*
Y489705D01*
X468740*
Y490610*
X469843*
X468740Y489843D02*
X469843D01*
X469055Y489705D02*
Y490610D01*
X469843Y493760D02*
Y492854D01*
X468740*
Y493760*
X469843*
X468740Y493307D02*
X469843D01*
X469055Y492854D02*
Y493760D01*
X432618Y530394D02*
X431713D01*
Y531496*
X432618*
Y530394*
X431713Y530551D02*
X432618D01*
X431713Y531417D02*
X432618D01*
X431811Y530394D02*
Y531496D01*
X435768Y530394D02*
X434862D01*
Y531496*
X435768*
Y530394*
X434862Y530551D02*
X435768D01*
X434862Y531417D02*
X435768D01*
X435276Y530394D02*
Y531496D01*
X501909Y427717D02*
X502815D01*
Y426614*
X501909*
Y427717*
Y426614D02*
X502815D01*
X501909Y427480D02*
X502815D01*
X501969Y426614D02*
Y427717D01*
X498760D02*
X499665D01*
Y426614*
X498760*
Y427717*
Y426614D02*
X499665D01*
X498760Y427480D02*
X499665D01*
X499370Y426614D02*
Y427717D01*
X450709Y427815D02*
Y426909D01*
X449606*
Y427815*
X450709*
X449606Y427480D02*
X450709D01*
X450000Y426909D02*
Y427815D01*
X450709Y430965D02*
Y430059D01*
X449606*
Y430965*
X450709*
X449606Y430079D02*
X450709D01*
X449606Y430945D02*
X450709D01*
X450000Y430059D02*
Y430965D01*
X434252Y427894D02*
Y426988D01*
X433150*
Y427894*
X434252*
X433150Y427480D02*
X434252D01*
X433543Y426988D02*
Y427894D01*
X434252Y431043D02*
Y430138D01*
X433150*
Y431043*
X434252*
X433150Y430945D02*
X434252D01*
X433543Y430138D02*
Y431043D01*
X438268Y427894D02*
Y426988D01*
X437165*
Y427894*
X438268*
X437165Y427480D02*
X438268D01*
X437874Y426988D02*
Y427894D01*
X438268Y431043D02*
Y430138D01*
X437165*
Y431043*
X438268*
X437165Y430945D02*
X438268D01*
X437874Y430138D02*
Y431043D01*
X476004Y494173D02*
X475098D01*
Y495276*
X476004*
Y494173*
X475098D02*
X476004D01*
X475098Y495039D02*
X476004D01*
X475118Y494173D02*
Y495276D01*
X475984Y494173D02*
Y495276D01*
X479154Y494173D02*
X478248D01*
Y495276*
X479154*
Y494173*
X478248D02*
X479154D01*
X478248Y495039D02*
X479154D01*
X478583Y494173D02*
Y495276D01*
X450315Y446870D02*
Y447776D01*
X451417*
Y446870*
X450315*
Y447402D02*
X451417D01*
X450866Y446870D02*
Y447776D01*
X450315Y443720D02*
Y444626D01*
X451417*
Y443720*
X450315*
Y443937D02*
X451417D01*
X450866Y443720D02*
Y444626D01*
X500945Y482736D02*
Y481831D01*
X499843*
Y482736*
X500945*
X499843Y482047D02*
X500945D01*
X500236Y481831D02*
Y482736D01*
X500945Y485886D02*
Y484980D01*
X499843*
Y485886*
X500945*
X499843Y485512D02*
X500945D01*
X500236Y484980D02*
Y485886D01*
X518957Y539094D02*
X519862D01*
Y537992*
X518957*
Y539094*
Y538346D02*
X519862D01*
X519291Y537992D02*
Y539094D01*
X515807D02*
X516713D01*
Y537992*
X515807*
Y539094*
Y538346D02*
X516713D01*
X515827Y537992D02*
Y539094D01*
X516693Y537992D02*
Y539094D01*
X518504Y562539D02*
Y563445D01*
X519606*
Y562539*
X518504*
Y562598D02*
X519606D01*
X519291Y562539D02*
Y563445D01*
X518504Y559390D02*
Y560295D01*
X519606*
Y559390*
X518504*
Y560000D02*
X519606D01*
X519291Y559390D02*
Y560295D01*
X516791Y533504D02*
X515886D01*
Y534606*
X516791*
Y533504*
X515886Y534016D02*
X516791D01*
X516693Y533504D02*
Y534606D01*
X519941Y533504D02*
X519035D01*
Y534606*
X519941*
Y533504*
X519035Y534016D02*
X519941D01*
X519291Y533504D02*
Y534606D01*
X516791Y529370D02*
X515886D01*
Y530472*
X516791*
Y529370*
X515886Y529685D02*
X516791D01*
X516693Y529370D02*
Y530472D01*
X519941Y529370D02*
X519035D01*
Y530472*
X519941*
Y529370*
X519035Y529685D02*
X519941D01*
X519291Y529370D02*
Y530472D01*
X508799Y516496D02*
X509705D01*
Y515394*
X508799*
Y516496*
Y515827D02*
X509705D01*
X508898Y515394D02*
Y516496D01*
X505650D02*
X506555D01*
Y515394*
X505650*
Y516496*
Y515827D02*
X506555D01*
X506299Y515394D02*
Y516496D01*
X492520Y435610D02*
Y436516D01*
X493622*
Y435610*
X492520*
Y436142D02*
X493622D01*
X493307Y435610D02*
Y436516D01*
X492520Y432461D02*
Y433366D01*
X493622*
Y432461*
X492520*
Y432677D02*
X493622D01*
X493307Y432461D02*
Y433366D01*
X488622Y435610D02*
Y436516D01*
X489724*
Y435610*
X488622*
Y436142D02*
X489724D01*
X488976Y435610D02*
Y436516D01*
X488622Y432461D02*
Y433366D01*
X489724*
Y432461*
X488622*
Y432677D02*
X489724D01*
X488976Y432461D02*
Y433366D01*
X429764Y440335D02*
Y441240D01*
X430866*
Y440335*
X429764*
Y440472D02*
X430866D01*
X430079Y440335D02*
Y441240D01*
X429764Y437185D02*
Y438091D01*
X430866*
Y437185*
X429764*
Y437874D02*
X430866D01*
X430079Y437185D02*
Y438091D01*
X485984Y427618D02*
Y426713D01*
X484882*
Y427618*
X485984*
X484882Y427480D02*
X485984D01*
X485512Y426713D02*
Y427618D01*
X485984Y430768D02*
Y429862D01*
X484882*
Y430768*
X485984*
X484882Y430079D02*
X485984D01*
X485512Y429862D02*
Y430768D01*
X519055Y617776D02*
Y616870D01*
X517953*
Y617776*
X519055*
X517953Y617165D02*
X519055D01*
X518425Y616870D02*
Y617776D01*
X519055Y620925D02*
Y620020D01*
X517953*
Y620925*
X519055*
X517953Y620630D02*
X519055D01*
X518425Y620020D02*
Y620925D01*
X523386Y611083D02*
Y610177D01*
X522283*
Y611083*
X523386*
X522283Y610236D02*
X523386D01*
X522756Y610177D02*
Y611083D01*
X523386Y614232D02*
Y613327D01*
X522283*
Y614232*
X523386*
X522283Y613701D02*
X523386D01*
X522756Y613327D02*
Y614232D01*
X471496Y533878D02*
Y534783D01*
X472598*
Y533878*
X471496*
Y534016D02*
X472598D01*
X471654Y533878D02*
Y534783D01*
X472520Y533878D02*
Y534783D01*
X471496Y530728D02*
Y531634D01*
X472598*
Y530728*
X471496*
Y531417D02*
X472598D01*
X471654Y530728D02*
Y531634D01*
X472520Y530728D02*
Y531634D01*
X522283Y620020D02*
Y620925D01*
X523386*
Y620020*
X522283*
Y620630D02*
X523386D01*
X522756Y620020D02*
Y620925D01*
X522283Y616870D02*
Y617776D01*
X523386*
Y616870*
X522283*
Y617165D02*
X523386D01*
X522756Y616870D02*
Y617776D01*
X481949Y435669D02*
X481043D01*
Y436772*
X481949*
Y435669*
X481043Y436142D02*
X481949D01*
X481181Y435669D02*
Y436772D01*
X485098Y435669D02*
X484193D01*
Y436772*
X485098*
Y435669*
X484193Y436142D02*
X485098D01*
X484646Y435669D02*
Y436772D01*
X477500D02*
X478406D01*
Y435669*
X477500*
Y436772*
Y436142D02*
X478406D01*
X477717Y435669D02*
Y436772D01*
X474350D02*
X475256D01*
Y435669*
X474350*
Y436772*
Y436142D02*
X475256D01*
X475118Y435669D02*
Y436772D01*
X469843Y483524D02*
Y482618D01*
X468740*
Y483524*
X469843*
X468740Y482913D02*
X469843D01*
X469055Y482618D02*
Y483524D01*
X469843Y486673D02*
Y485768D01*
X468740*
Y486673*
X469843*
X468740Y486378D02*
X469843D01*
X469055Y485768D02*
Y486673D01*
X476850Y531516D02*
Y530610D01*
X475748*
Y531516*
X476850*
X475748Y531417D02*
X476850D01*
X475984Y530610D02*
Y531516D01*
X476850Y530610D02*
Y531516D01*
Y534665D02*
Y533760D01*
X475748*
Y534665*
X476850*
X475748Y534016D02*
X476850D01*
X475984Y533760D02*
Y534665D01*
X476850Y533760D02*
Y534665D01*
X516201Y547874D02*
X515295D01*
Y548976*
X516201*
Y547874*
X515295D02*
X516201D01*
X515295Y548740D02*
X516201D01*
X515827Y547874D02*
Y548976D01*
X519350Y547874D02*
X518445D01*
Y548976*
X519350*
Y547874*
X518445D02*
X519350D01*
X518445Y548740D02*
X519350D01*
X519291Y547874D02*
Y548976D01*
X516201Y552992D02*
X515295D01*
Y554094*
X516201*
Y552992*
X515295Y553071D02*
X516201D01*
X515295Y553937D02*
X516201D01*
X515827Y552992D02*
Y554094D01*
X519350Y552992D02*
X518445D01*
Y554094*
X519350*
Y552992*
X518445Y553071D02*
X519350D01*
X518445Y553937D02*
X519350D01*
X519291Y552992D02*
Y554094D01*
X515591Y560295D02*
Y559390D01*
X514488*
Y560295*
X515591*
X514488Y560000D02*
X515591D01*
X514961Y559390D02*
Y560295D01*
X515591Y563445D02*
Y562539D01*
X514488*
Y563445*
X515591*
X514488Y562598D02*
X515591D01*
X514961Y562539D02*
Y563445D01*
X519055Y611083D02*
Y610177D01*
X517953*
Y611083*
X519055*
X517953Y610236D02*
X519055D01*
X518425Y610177D02*
Y611083D01*
X519055Y614232D02*
Y613327D01*
X517953*
Y614232*
X519055*
X517953Y613701D02*
X519055D01*
X518425Y613327D02*
Y614232D01*
X507441Y570571D02*
Y571476D01*
X508543*
Y570571*
X507441*
Y571260D02*
X508543D01*
X508031Y570571D02*
Y571476D01*
X507441Y567421D02*
Y568327D01*
X508543*
Y567421*
X507441*
Y567795D02*
X508543D01*
X508031Y567421D02*
Y568327D01*
X510591Y562539D02*
Y563445D01*
X511693*
Y562539*
X510591*
Y562598D02*
X511693D01*
X510630Y562539D02*
Y563445D01*
X511496Y562539D02*
Y563445D01*
X510591Y559390D02*
Y560295D01*
X511693*
Y559390*
X510591*
Y560000D02*
X511693D01*
X510630Y559390D02*
Y560295D01*
X511496Y559390D02*
Y560295D01*
X501909Y431063D02*
X502815D01*
Y429961*
X501909*
Y431063*
Y430079D02*
X502815D01*
X501909Y430945D02*
X502815D01*
X501969Y429961D02*
Y431063D01*
X498760D02*
X499665D01*
Y429961*
X498760*
Y431063*
Y430079D02*
X499665D01*
X498760Y430945D02*
X499665D01*
X499370Y429961D02*
Y431063D01*
G54D415*
X494685Y478346D02*
Y479921D01*
X496260*
Y478346*
X494685*
Y478740D02*
X496260D01*
X496063Y478346D02*
Y479921D01*
X488780Y478346D02*
Y479921D01*
X490354*
Y478346*
X488780*
Y478740D02*
X490354D01*
X489764Y478346D02*
Y479921D01*
X494685Y483858D02*
Y485433D01*
X496260*
Y483858*
X494685*
Y485039D02*
X496260D01*
X496063Y483858D02*
Y485433D01*
X488780Y483858D02*
Y485433D01*
X490354*
Y483858*
X488780*
Y485039D02*
X490354D01*
X489764Y483858D02*
Y485433D01*
X494685Y489370D02*
Y490945D01*
X496260*
Y489370*
X494685*
Y489764D02*
X496260D01*
X496063Y489370D02*
Y490945D01*
X488780Y489370D02*
Y490945D01*
X490354*
Y489370*
X488780*
Y489764D02*
X490354D01*
X489764Y489370D02*
Y490945D01*
G54D422*
X496811Y514134D03*
X489803D03*
Y503189D03*
X496811D03*
G54D423*
X492638Y426791D03*
X489764Y426831D03*
X444862Y427638D03*
X442776D03*
X519941Y541535D03*
X523268Y567028D03*
X492638Y426791D03*
X489764Y426831D03*
X444862Y427638D03*
X442776D03*
X519941Y541535D03*
X523268Y567028D03*
G54D424*
X492638Y428957D03*
X489764Y428996D03*
X523268Y569193D03*
G54D425*
X447028Y427638D03*
X440610D03*
X517776Y541535D03*
G54D426*
X435433Y444291D03*
Y442323D03*
Y440354D03*
Y438386D03*
X446457D03*
Y440354D03*
Y442323D03*
Y444291D03*
G54D427*
X437992Y435827D03*
X439961D03*
X441929D03*
X443898D03*
Y446850D03*
X441929D03*
X439961D03*
X437992D03*
G54D429*
X490571Y463386D03*
X485571D03*
X480571D03*
X475571D03*
Y441339D03*
X480571D03*
X485571D03*
X490571D03*
G54D430*
X483071Y452362D03*
G54D432*
X527559Y467520D03*
Y522244D03*
G54D433*
X466890Y427953D03*
Y435827D03*
G54D435*
X528622Y619488D03*
X538307D03*
Y612795D03*
X528622D03*
G54D438*
X492208Y427083D02*
Y426677D01*
X492390Y426495*
X493068*
Y427083*
X492208*
X492238Y426647D02*
Y427083D01*
X492438Y426495D02*
Y427083D01*
X492638Y426495D02*
Y427083D01*
X492838Y426495D02*
Y427083D01*
X493038Y426495D02*
Y427083D01*
X489334Y427123D02*
Y426717D01*
X489516Y426535*
X490194*
Y427123*
X489334*
X489364Y426687D02*
Y427123D01*
X489564Y426535D02*
Y427123D01*
X489764Y426535D02*
Y427123D01*
X489964Y426535D02*
Y427123D01*
X490164Y426535D02*
Y427123D01*
X445154Y428068D02*
X444748D01*
X444566Y427886*
Y427208*
X445154*
Y428068*
X444745Y427208D02*
Y428064D01*
X444945Y427208D02*
Y428068D01*
X445145Y427208D02*
Y428068D01*
X442483Y427208D02*
X442890D01*
X443072Y427390*
Y428068*
X442483*
Y427208*
X442493D02*
Y428068D01*
X442693Y427208D02*
Y428068D01*
X442893Y427211D02*
Y428068D01*
X519649Y541106D02*
X520055D01*
X520237Y541288*
Y541965*
X519649*
Y541106*
X519658D02*
Y541965D01*
X519858Y541106D02*
Y541965D01*
X520058Y541109D02*
Y541965D01*
X522838Y567320D02*
Y566914D01*
X523020Y566731*
X523698*
Y567320*
X522838*
X522868Y566884D02*
Y567320D01*
X523068Y566731D02*
Y567320D01*
X523268Y566731D02*
Y567320D01*
X523468Y566731D02*
Y567320D01*
X523668Y566731D02*
Y567320D01*
G54D458*
X517008Y515551D03*
Y513583D03*
Y511614D03*
Y509646D03*
Y507677D03*
Y505709D03*
Y503740D03*
Y501772D03*
Y499803D03*
Y497835D03*
Y495866D03*
Y493898D03*
Y491929D03*
Y489961D03*
Y487992D03*
Y486024D03*
Y484055D03*
Y482087D03*
Y480118D03*
Y478150D03*
Y476181D03*
Y474213D03*
G74*
X0Y0D02*
M02*
