*
*
G04 PADS 9.5 Build Number: 522968 generated Gerber (RS-274-X) file*
G04 PC Version=2.1*
*
%IN "SF32LB52-DevKit-LCD_PCB"*%
*
%MOIN*%
*
%FSLAX35Y35*%
*
*
*
*
G04 PC Standard Apertures*
*
*
G04 Thermal Relief Aperture macro.*
%AMTER*
1,1,$1,0,0*
1,0,$1-$2,0,0*
21,0,$3,$4,0,0,45*
21,0,$3,$4,0,0,135*
%
*
*
G04 Annular Aperture macro.*
%AMANN*
1,1,$1,0,0*
1,0,$2,0,0*
%
*
*
G04 Odd Aperture macro.*
%AMODD*
1,1,$1,0,0*
1,0,$1-0.005,0,0*
%
*
*
G04 PC Custom Aperture Macros*
*
*
*
*
*
*
G04 PC Aperture Table*
*
%ADD010C,0.001*%
%ADD094C,0.00039*%
%ADD158C,0.00394*%
%ADD240C,0.00787*%
%ADD405C,0.01*%
%ADD406C,0.005*%
%ADD438C,0.004*%
%ADD443C,0.00591*%
%ADD457C,0.006*%
*
*
*
*
G04 PC Circuitry*
G04 Layer Name SF32LB52-DevKit-LCD_PCB - circuitry*
%LPD*%
*
G54D10*
G01X482241Y445434D02*
X481757D01*
Y439617*
X482241*
Y445434*
X481741D02*
X480379D01*
X479560Y445270*
X479323Y445111*
X479086Y444875*
X479007Y444561*
Y443738*
X479088Y443251*
X479325Y442857*
X479726Y442697*
X479733Y442607*
X479324Y442362*
X479005Y441963*
X478924Y441397*
Y440495*
X479081Y440182*
X479568Y439776*
X479886Y439617*
X481741*
Y440017*
X480457*
X480449Y440018*
X479949Y440101*
X479930Y440109*
X479680Y440275*
X479672Y440282*
X479422Y440532*
X479407Y440567*
Y441400*
X479408Y441408*
X479491Y441908*
X479505Y441936*
X479839Y442269*
X479866Y442283*
X480366Y442366*
X480374Y442367*
X481741*
Y442850*
X480374*
X480364Y442851*
X479948Y442935*
X479942Y442936*
X479692Y443019*
X479663Y443045*
X479496Y443378*
X479491Y443400*
Y444484*
X479499Y444511*
X479666Y444761*
X479685Y444778*
X480018Y444945*
X480041Y444950*
X481741*
Y445434*
X478224Y439617D02*
X476503Y445434D01*
X475828*
X474108Y439617*
X474670*
X475046Y440934*
X474874*
X474824Y440984*
Y441567*
X474874Y441617*
X475241*
X476159Y444831*
X476256Y444830*
X477123Y441617*
X477457*
X477507Y441567*
Y440984*
X477457Y440934*
X477307*
X477662Y439617*
X478224*
X473324Y445434D02*
X471545D01*
X471050Y445351*
X470649Y445271*
X470412Y445034*
X470167Y444707*
X470005Y444384*
X469924Y443979*
Y443654*
X470005Y443166*
X470167Y442843*
X470412Y442516*
X470652Y442276*
X470911Y442172*
X469784Y439617*
X470340*
X471356Y442117*
X472841*
Y439617*
X473324*
Y445434*
X472841Y444950D02*
Y442600D01*
X471457*
X471449Y442601*
X470949Y442684*
X470922Y442698*
X470589Y443032*
X470576Y443053*
X470409Y443637*
X470407Y443650*
Y443900*
X470409Y443914*
X470576Y444497*
X470589Y444519*
X470922Y444852*
X470949Y444866*
X471449Y444950*
X471457*
X472841*
X473319Y483865D02*
X473002Y483955D01*
X472901Y483702*
X472890Y483685*
X472713Y483508*
X472696Y483497*
X472400Y483379*
X472382Y483375*
X471732*
X471707Y483382*
X471411Y483559*
X471402Y483567*
X471224Y483744*
X471211Y483771*
X471151Y484126*
Y484134*
Y484252*
X471153Y484268*
X471271Y484622*
X471288Y484645*
X471583Y484882*
X471597Y484889*
X472069Y485067*
X472069D02*
X472087Y485070D01*
X472138*
X472481Y485184*
X472709Y485298*
X473051Y485583*
X473161Y485804*
X473218Y486088*
Y486197*
X473161Y486539*
X473048Y486765*
X472880Y486988*
X472657Y487100*
X472368Y487215*
X472029Y487272*
X471514Y487158*
X471121Y486933*
X470915Y486521*
X471232Y486385*
X471332Y486633*
X471343Y486650*
X471520Y486827*
X471527Y486833*
X471705Y486951*
X471732Y486959*
X472028*
X472036*
X472390Y486900*
X472404Y486895*
X472640Y486777*
X472658Y486762*
X472835Y486526*
X472844Y486506*
X472903Y486211*
X472904Y486201*
Y486142*
X472903Y486130*
X472844Y485893*
X472843Y485890*
X472784Y485713*
X472762Y485685*
X472467Y485508*
X472463Y485506*
X472227Y485388*
X472215Y485384*
X471934Y485328*
X471886Y485280*
X471866Y485268*
X471346Y485094*
X471006Y484754*
X470896Y484535*
Y483791*
X471007Y483570*
X471177Y483343*
X471398Y483177*
X472086Y483063*
X472659Y483177*
X473057Y483404*
X473224Y483627*
X473319Y483865*
X473122Y494101D02*
X472805Y494191D01*
X472704Y493938*
X472693Y493921*
X472516Y493744*
X472499Y493733*
X472204Y493615*
X472185Y493611*
X471535*
X471510Y493619*
X471214Y493796*
X471205Y493803*
X471028Y493980*
X471014Y494008*
X470955Y494362*
X470954Y494370*
Y494488*
X470957Y494504*
X471075Y494858*
X471091Y494882*
X471386Y495118*
X471400Y495126*
X471872Y495303*
X471890Y495306*
X471941*
X472284Y495420*
X472512Y495534*
X472854Y495819*
X472964Y496040*
X473021Y496324*
Y496433*
X472964Y496776*
X472851Y497001*
X472684Y497224*
X472460Y497336*
X472171Y497452*
X471832Y497508*
X471317Y497394*
X470924Y497169*
X470718Y496757*
X471036Y496621*
X471135Y496869*
X471146Y496886*
X471323Y497063*
X471331Y497069*
X471508Y497187*
X471535Y497196*
X471831*
X471839Y497195*
X472193Y497136*
X472207Y497131*
X472444Y497013*
X472461Y496999*
X472638Y496762*
X472647Y496742*
X472707Y496447*
Y496437*
Y496378*
X472706Y496366*
X472647Y496130*
X472646Y496126*
X472587Y495949*
X472565Y495922*
X472270Y495745*
X472266Y495743*
X472030Y495625*
X472018Y495620*
X471737Y495564*
X471689Y495516*
X471669Y495504*
X471149Y495330*
X470809Y494990*
X470700Y494772*
Y494028*
X470810Y493806*
X470981Y493579*
X471201Y493413*
X471889Y493299*
X472463Y493414*
X472860Y493641*
X473027Y493863*
X473122Y494101*
X473319Y504337D02*
X473002Y504428D01*
X472901Y504174*
X472890Y504158*
X472713Y503980*
X472696Y503969*
X472400Y503851*
X472382Y503848*
X471732*
X471707Y503855*
X471411Y504032*
X471402Y504039*
X471224Y504217*
X471211Y504244*
X471151Y504598*
Y504606*
Y504724*
X471153Y504740*
X471271Y505095*
X471288Y505118*
X471583Y505354*
X471597Y505362*
X472069Y505539*
X472087Y505542*
X472138*
X472481Y505657*
X472709Y505770*
X473051Y506055*
X473161Y506276*
X473218Y506560*
Y506669*
X473161Y507012*
X473048Y507237*
X472880Y507461*
X472657Y507572*
X472368Y507688*
X472029Y507744*
X471514Y507630*
X471121Y507405*
X470915Y506994*
X471232Y506857*
X471332Y507105*
X471343Y507122*
X471520Y507299*
X471527Y507305*
X471705Y507423*
X471732Y507432*
X472028*
X472036Y507431*
X472390Y507372*
X472404Y507368*
X472640Y507249*
X472658Y507235*
X472835Y506999*
X472844Y506978*
X472903Y506683*
X472904Y506673*
Y506614*
X472903Y506602*
X472844Y506366*
X472843Y506362*
X472784Y506185*
X472762Y506158*
X472467Y505981*
X472463Y505979*
X472227Y505861*
X472215Y505856*
X471934Y505800*
X471886Y505752*
X471866Y505740*
X471346Y505567*
X471006Y505226*
X470896Y505008*
Y504264*
X471007Y504042*
X471177Y503815*
X471398Y503650*
X472086Y503535*
X472659Y503650*
X473057Y503877*
X473224Y504100*
X473319Y504337*
X470088Y487214D02*
X468003D01*
Y486900*
X469774*
Y485265*
X468180*
Y484952*
X469774*
Y483121*
X470088*
Y487214*
X469891Y497450D02*
X467806D01*
Y497137*
X469578*
Y495501*
X467983*
Y495188*
X469578*
Y493357*
X469891*
Y497450*
X470088Y507686D02*
X468003D01*
Y507373*
X469774*
Y505737*
X468180*
Y505424*
X469774*
Y503593*
X470088*
Y507686*
X466907Y443647D02*
X466825Y444221D01*
X466662Y444628*
X466420Y445033*
X466099Y445273*
X465694Y445435*
X465208Y445516*
X464805Y445435*
X464399Y445273*
X464076Y445031*
X463835Y444709*
X463672Y444303*
X463600Y443867*
X464085*
X464242Y444496*
X464259Y444523*
X464676Y444856*
X464692Y444864*
X465192Y445031*
X465221Y445032*
X465804Y444865*
X465826Y444852*
X466243Y444436*
X466256Y444411*
X466423Y443661*
X466424Y443650*
Y441400*
X466423Y441389*
X466256Y440639*
X466243Y440615*
X465826Y440198*
X465818Y440192*
X465568Y440025*
X465541Y440017*
X465207*
X465199Y440018*
X464699Y440101*
X464672Y440115*
X464255Y440532*
X464242Y440555*
X464085Y441184*
X463600*
X463672Y440747*
X463835Y440342*
X464076Y440019*
X464399Y439778*
X464805Y439615*
X465208Y439534*
X465694Y439615*
X466099Y439778*
X466420Y440018*
X466662Y440423*
X466825Y440830*
X466907Y441404*
Y443647*
X467548Y484084D02*
X467228D01*
X467175Y483713*
X467161Y483685*
X466925Y483449*
X466897Y483435*
X466483Y483376*
X466476Y483375*
X466240*
X466210Y483385*
X465974Y483562*
X465962Y483575*
X465844Y483752*
X465837Y483770*
X465778Y484065*
X465777Y484075*
Y484429*
X465778Y484441*
X465837Y484677*
X465841Y484688*
X465959Y484924*
X465976Y484943*
X466153Y485061*
X466171Y485069*
X466467Y485128*
X466476Y485129*
X466722*
Y485383*
X466476*
X466464Y485385*
X466228Y485444*
X466224Y485445*
X466047Y485504*
X466021Y485523*
X465903Y485701*
X465895Y485728*
Y486555*
X465903Y486583*
X466021Y486760*
X466035Y486774*
X466212Y486892*
X466230Y486899*
X466526Y486958*
X466545*
X466841Y486899*
X466866Y486886*
X467102Y486650*
X467116Y486621*
X467169Y486251*
X467480*
X467431Y486546*
X467375Y486826*
X467041Y487160*
X466821Y487215*
X466476Y487272*
X466084Y487216*
X465806Y486994*
X465637Y486712*
X465522Y486312*
Y485971*
X465580Y485742*
X465633Y485580*
X465977Y485294*
X465967Y485211*
X465743Y485099*
X465634Y484935*
X465520Y484708*
X465463Y484424*
Y484080*
X465578Y483509*
X465741Y483345*
X465967Y483176*
X466192Y483120*
X466477Y483063*
X466822Y483120*
X467101Y483176*
X467438Y483512*
X467548Y483789*
Y484084*
X467352Y494320D02*
X467032D01*
X466979Y493950*
X466964Y493921*
X466728Y493685*
X466700Y493671*
X466287Y493612*
X466280Y493611*
X466043*
X466013Y493621*
X465777Y493799*
X465765Y493811*
X465647Y493988*
X465640Y494006*
X465581Y494301*
X465580Y494311*
Y494665*
X465581Y494677*
X465640Y494914*
X465644Y494924*
X465762Y495160*
X465779Y495179*
X465957Y495298*
X465974Y495305*
X466270Y495364*
X466280Y495365*
X466525*
Y495619*
X466280*
X466267Y495621*
X466031Y495680*
X466027Y495681*
X465850Y495740*
X465825Y495760*
X465706Y495937*
X465698Y495965*
Y496791*
X465706Y496819*
X465825Y496996*
X465838Y497010*
X466016Y497128*
X466034Y497136*
X466034D02*
X466329Y497195D01*
X466348*
X466644Y497136*
X466669Y497122*
X466905Y496886*
X466920Y496857*
X466972Y496487*
X466972D02*
X467283D01*
X467234Y496782*
X467178Y497062*
X466845Y497396*
X466624Y497451*
X466279Y497508*
X465887Y497452*
X465609Y497230*
X465440Y496948*
X465326Y496548*
Y496207*
X465383Y495979*
X465437Y495817*
X465780Y495531*
X465770Y495447*
X465546Y495335*
X465437Y495172*
X465323Y494944*
X465267Y494660*
Y494316*
X465381Y493745*
X465545Y493581*
X465770Y493412*
X465995Y493356*
X466280Y493299*
X466625Y493356*
X466904Y493412*
X467241Y493749*
X467352Y494025*
Y494320*
X467548Y504556D02*
X467228D01*
X467175Y504186*
X467161Y504158*
X466925Y503921*
X466897Y503907*
X466483Y503848*
X466476*
X466240*
X466210Y503858*
X465974Y504035*
X465962Y504047*
X465844Y504224*
X465837Y504242*
X465778Y504537*
X465777Y504547*
Y504902*
X465778Y504914*
X465837Y505150*
X465841Y505160*
X465959Y505396*
X465976Y505416*
X466153Y505534*
X466171Y505541*
X466467Y505600*
X466476Y505601*
X466722*
Y505856*
X466476*
X466464Y505857*
X466228Y505916*
X466224Y505917*
X466047Y505976*
X466021Y505996*
X465903Y506173*
X465895Y506201*
Y507028*
X465903Y507055*
X466021Y507232*
X466035Y507246*
X466212Y507364*
X466230Y507372*
X466526Y507431*
X466545*
X466841Y507372*
X466866Y507358*
X467102Y507122*
X467116Y507094*
X467169Y506723*
X467480*
X467431Y507019*
X467375Y507298*
X467041Y507632*
X466821Y507687*
X466476Y507745*
X466084Y507689*
X465806Y507467*
X465637Y507185*
X465522Y506784*
Y506443*
X465580Y506215*
X465633Y506053*
X465977Y505767*
X465967Y505684*
X465743Y505571*
X465634Y505408*
X465520Y505180*
X465463Y504897*
Y504552*
X465578Y503981*
X465741Y503817*
X465967Y503648*
X466192Y503592*
X466477Y503535*
X466822Y503592*
X466822D02*
X467101Y503648D01*
X467438Y503985*
X467548Y504262*
Y504556*
X464773Y483409D02*
X463424Y485286D01*
X463419Y485295*
X463183Y485826*
X463180Y485833*
X463062Y486246*
X463061Y486270*
X463120Y486565*
X463128Y486583*
X463246Y486760*
X463260Y486774*
X463437Y486892*
X463455Y486899*
X463750Y486958*
X463772*
X464008Y486899*
X464018Y486895*
X464255Y486777*
X464279Y486751*
X464397Y486456*
X464399Y486447*
X464450Y486192*
X464763*
X464658Y486767*
X464495Y486931*
X464265Y487103*
X464039Y487216*
X463760Y487272*
X463194Y487159*
X463030Y486995*
X462858Y486765*
X462747Y486543*
Y486033*
X462861Y485749*
X463153Y485163*
X464332Y483454*
X464332D02*
X464291Y483375D01*
X462747*
Y483121*
X464773*
Y483409*
X462574Y443729D02*
X462492Y444222D01*
X462329Y444710*
X462088Y445031*
X461766Y445273*
X461360Y445435*
X460873Y445516*
X460304Y445435*
X459899Y445273*
X459576Y445031*
X459336Y444710*
X459173Y444222*
X459091Y443729*
Y441321*
X459173Y440829*
X459336Y440340*
X459576Y440019*
X459899Y439778*
X460304Y439616*
X460873Y439534*
X461360Y439615*
X461766Y439778*
X462088Y440019*
X462329Y440340*
X462492Y440829*
X462574Y441321*
Y443729*
X462091Y443734D02*
Y441317D01*
X462089Y441305*
X461923Y440638*
X461909Y440615*
X461493Y440198*
X461471Y440186*
X460888Y440019*
X460862Y440018*
X460195Y440185*
X460172Y440198*
X459755Y440615*
X459742Y440638*
X459576Y441305*
X459574Y441317*
Y443734*
X459576Y443746*
X459742Y444412*
X459755Y444436*
X460172Y444852*
X460195Y444865*
X460862Y445032*
X460888*
X461471Y444865*
X461493Y444852*
X461909Y444436*
X461923Y444412*
X462089Y443746*
X462091Y443734*
X464576Y493645D02*
X463227Y495522D01*
X463222Y495531*
X462986Y496062*
X462983Y496069*
X462865Y496482*
X462864Y496506*
X462923Y496801*
X462931Y496819*
X463049Y496996*
X463063Y497010*
X463240Y497128*
X463258Y497136*
X463553Y497195*
X463575Y497194*
X463811Y497135*
X463822Y497131*
X464058Y497013*
X464082Y496987*
X464200Y496692*
X464203Y496683*
X464254Y496428*
X464566*
X464461Y497003*
X464298Y497167*
X464068Y497339*
X463842Y497452*
X463563Y497508*
X462997Y497395*
X462833Y497231*
X462661Y497001*
X462550Y496780*
Y496269*
X462664Y495985*
X462957Y495400*
X464136Y493690*
X464094Y493611*
X462550*
Y493357*
X464576*
Y493645*
X464773Y503882D02*
X463424Y505758D01*
X463419Y505767*
X463183Y506299*
X463180Y506305*
X463062Y506719*
X463061Y506742*
X463120Y507037*
X463128Y507055*
X463246Y507232*
X463260Y507246*
X463437Y507364*
X463455Y507372*
X463750Y507431*
X463772Y507430*
X464008Y507371*
X464018Y507368*
X464255Y507249*
X464279Y507223*
X464397Y506928*
X464399Y506919*
X464450Y506664*
X464763*
X464658Y507239*
X464495Y507403*
X464265Y507575*
X464039Y507689*
X463760Y507744*
X463194Y507631*
X463030Y507467*
X462858Y507237*
X462747Y507016*
Y506506*
X462861Y506221*
X463153Y505636*
X464332Y503926*
X464332D02*
X464291Y503848D01*
X462747*
Y503593*
X464773*
Y503882*
X461938Y487214D02*
X461625D01*
Y483375*
X459853*
Y483121*
X461938*
Y487214*
X461741Y497450D02*
X461428D01*
Y493611*
X459656*
Y493357*
X461741*
Y497450*
X461938Y507686D02*
X461625D01*
Y503848*
X459853*
Y503593*
X461938*
Y507686*
X459163Y487214D02*
X458849D01*
Y483121*
X459163*
Y487214*
X457907Y445434D02*
X456128D01*
X455634Y445351*
X455313Y445271*
X454993Y445031*
X454750Y444707*
X454591Y444388*
Y440660*
X454750Y440262*
X454990Y440021*
X455315Y439778*
X455717Y439617*
X457907*
Y445434*
X457424Y444950D02*
Y440017D01*
X456124*
X456114Y440018*
X455698Y440101*
X455677Y440110*
X455344Y440360*
X455339Y440365*
X455089Y440615*
X455074Y440650*
Y444317*
X455084Y444347*
X455334Y444680*
X455344Y444690*
X455677Y444940*
X455707Y444950*
X457424*
X458808Y487214D02*
X457859D01*
X457283Y487099*
X457118Y486989*
X456955Y486825*
X456900Y486608*
Y486028*
X456957Y485687*
X457121Y485414*
X457400Y485302*
X457408Y485213*
X457120Y485040*
X456898Y484763*
X456841Y484367*
Y483732*
X456949Y483516*
X457291Y483231*
X457512Y483121*
X458808*
Y483375*
X457913*
X457905Y483376*
X457551Y483435*
X457531Y483443*
X457354Y483561*
X457347Y483567*
X457169Y483744*
X457155Y483780*
Y484370*
Y484378*
X457214Y484733*
X457228Y484760*
X457465Y484996*
X457492Y485010*
X457846Y485069*
X457854Y485070*
X458808*
Y485383*
X457854*
X457845Y485384*
X457549Y485443*
X457543Y485445*
X457366Y485504*
X457337Y485529*
X457219Y485765*
X457214Y485787*
Y486555*
X457222Y486583*
X457340Y486760*
X457360Y486777*
X457596Y486895*
X457618Y486900*
X458808*
Y487214*
X458966Y497450D02*
X458652D01*
Y493357*
X458966*
Y497450*
X459163Y507686D02*
X458849D01*
Y503593*
X459163*
Y507686*
X458611Y497450D02*
X457662D01*
X457086Y497335*
X456922Y497225*
X456758Y497061*
X456704Y496844*
Y496264*
X456760Y495923*
X456924Y495650*
X457204Y495539*
X457211Y495449*
X456923Y495277*
X456701Y494999*
X456644Y494603*
Y493968*
X456753Y493752*
X457094Y493467*
X457315Y493357*
X458611*
Y493611*
X457717*
X457708Y493612*
X457354Y493671*
X457334Y493679*
X457157Y493797*
X457150Y493803*
X456973Y493980*
X456958Y494016*
Y494606*
X456959Y494615*
X457018Y494969*
X457032Y494996*
X457268Y495232*
X457295Y495246*
X457649Y495305*
X457657Y495306*
X458611*
Y495619*
X457657*
X457648Y495620*
X457352Y495679*
X457346Y495681*
X457169Y495740*
X457140Y495765*
X457022Y496001*
X457017Y496024*
Y496791*
X457025Y496819*
X457143Y496996*
X457163Y497013*
X457399Y497131*
X457421Y497137*
X458611*
Y497450*
X458808Y507686D02*
X457859D01*
X457283Y507571*
X457118Y507461*
X456955Y507297*
X456900Y507080*
Y506500*
X456957Y506159*
X457121Y505887*
X457400Y505775*
X457408Y505685*
X457120Y505513*
X456898Y505235*
X456841Y504839*
Y504205*
X456949Y503988*
X457291Y503704*
X457512Y503593*
X458808*
Y503848*
X457913*
X457905*
X457551Y503907*
X457531Y503915*
X457354Y504033*
X457347Y504039*
X457169Y504217*
X457155Y504252*
Y504843*
Y504851*
X457214Y505205*
X457228Y505232*
X457465Y505468*
X457492Y505482*
X457846Y505541*
X457854Y505542*
X458808*
Y505856*
X457854*
X457845*
X457549Y505916*
X457543Y505917*
X457366Y505976*
X457337Y506001*
X457219Y506237*
X457214Y506260*
Y507028*
X457222Y507055*
X457340Y507232*
X457360Y507249*
X457596Y507368*
X457618Y507373*
X458808*
Y507686*
X456081Y484025D02*
X455769D01*
X455718Y483770*
X455711Y483752*
X455593Y483575*
X455587Y483567*
X455409Y483390*
X455374Y483375*
X454843*
X454813Y483385*
X454576Y483562*
X454565Y483575*
X454447Y483752*
X454438Y483780*
Y485197*
X454447Y485225*
X454565Y485402*
X454579Y485416*
X454756Y485534*
X454771Y485541*
X455008Y485600*
X455032*
X455268Y485541*
X455272Y485540*
X455449Y485481*
X455475Y485461*
X455696Y485129*
X455974*
Y487214*
X454184*
Y486900*
X455610*
X455660Y486850*
Y485669*
X455580Y485629*
X455351Y485802*
X455017Y485913*
X454513Y485801*
X454180Y485467*
X454066Y484897*
Y484080*
X454123Y483794*
X454237Y483508*
X454348Y483342*
X454569Y483176*
X454794Y483120*
X455079Y483063*
X455645Y483176*
X455808Y483339*
X455920Y483508*
X456035Y483794*
X456081Y484025*
X455884Y494261D02*
X455572D01*
X455521Y494006*
X455514Y493988*
X455396Y493811*
X455390Y493803*
X455213Y493626*
X455177Y493611*
X454646*
X454616Y493621*
X454379Y493799*
X454368Y493811*
X454250Y493988*
X454241Y494016*
Y495433*
X454250Y495461*
X454368Y495638*
X454382Y495652*
X454559Y495770*
X454574Y495777*
X454811Y495836*
X454835*
X455071Y495777*
X455075Y495776*
X455252Y495717*
X455278Y495697*
X455499Y495365*
X455777*
Y497450*
X453987*
Y497137*
X455413*
X455463Y497087*
Y495906*
X455383Y495866*
X455154Y496038*
X454820Y496149*
X454316Y496037*
X453983Y495704*
X453869Y495133*
Y494316*
X453926Y494030*
X454041Y493744*
X454151Y493578*
X454372Y493412*
X454598Y493356*
X454882Y493299*
X455448Y493412*
X455611Y493575*
X455723Y493744*
X455838Y494030*
X455884Y494261*
X456081Y504497D02*
X455769D01*
X455718Y504242*
X455711Y504224*
X455593Y504047*
X455587Y504039*
X455409Y503862*
X455374Y503848*
X454843*
X454813Y503858*
X454576Y504035*
X454565Y504047*
X454447Y504224*
X454438Y504252*
Y505669*
X454447Y505697*
X454565Y505874*
X454579Y505888*
X454756Y506006*
X454771Y506013*
X455008Y506072*
X455032*
X455268Y506013*
X455272Y506012*
X455449Y505953*
X455475Y505933*
X455696Y505601*
X455974*
Y507686*
X454184*
Y507373*
X455610*
X455660Y507323*
Y506142*
X455580Y506102*
X455351Y506274*
X455017Y506385*
X454513Y506273*
X454180Y505940*
X454066Y505369*
Y504552*
X454123Y504266*
X454237Y503980*
X454348Y503814*
X454569Y503648*
X454794Y503592*
X455079Y503535*
X455645Y503648*
X455808Y503811*
X455920Y503980*
X456035Y504266*
X456081Y504497*
X453407Y445434D02*
X450341D01*
Y444950*
X452924*
Y442684*
X450674*
Y442284*
X452924*
Y440017*
X450341*
Y439617*
X453407*
Y445434*
X453316Y483409D02*
X451967Y485286D01*
X451962Y485295*
X451726Y485826*
X451724Y485833*
X451605Y486246*
Y486270*
X451664Y486565*
X451671Y486583*
X451789Y486760*
X451803Y486774*
X451980Y486892*
X451998Y486899*
X452293Y486958*
X452315*
X452551Y486899*
X452562Y486895*
X452798Y486777*
X452822Y486751*
X452940Y486456*
X452943Y486447*
X452994Y486192*
X453306*
X453202Y486767*
X453038Y486931*
X452808Y487103*
X452582Y487216*
X452303Y487272*
X451737Y487159*
X451573Y486995*
X451401Y486765*
X451290Y486543*
Y486033*
X451404Y485749*
X451697Y485163*
X452876Y483454*
X452835Y483375*
X451290*
Y483121*
X453316*
Y483409*
X453119Y493645D02*
X451770Y495522D01*
X451765Y495531*
X451529Y496062*
X451527Y496069*
X451409Y496482*
X451408Y496506*
X451467Y496801*
X451474Y496819*
X451592Y496996*
X451606Y497010*
X451783Y497128*
X451801Y497136*
X452096Y497195*
X452118Y497194*
X452355Y497135*
X452365Y497131*
X452601Y497013*
X452625Y496987*
X452743Y496692*
X452746Y496683*
X452797Y496428*
X453109*
X453005Y497003*
X452841Y497167*
X452611Y497339*
X452385Y497452*
X452106Y497508*
X451540Y497395*
X451376Y497231*
X451204Y497001*
X451093Y496780*
Y496269*
X451207Y495985*
X451500Y495400*
X452679Y493690*
X452638Y493611*
X451093*
Y493357*
X453119*
Y493645*
X453316Y503882D02*
X451967Y505758D01*
X451962Y505767*
X451726Y506299*
X451724Y506305*
X451605Y506719*
Y506742*
X451664Y507037*
X451671Y507055*
X451789Y507232*
X451803Y507246*
X451980Y507364*
X451998Y507372*
X452293Y507431*
X452315Y507430*
X452551Y507371*
X452562Y507368*
X452798Y507249*
X452822Y507223*
X452940Y506928*
X452943Y506919*
X452994Y506664*
X453306*
X453202Y507239*
X453038Y507403*
X452808Y507575*
X452582Y507689*
X452303Y507744*
X451737Y507631*
X451573Y507467*
X451401Y507237*
X451290Y507016*
Y506506*
X451404Y506221*
X451697Y505636*
X452876Y503926*
X452835Y503848*
X451290*
Y503593*
X453316*
Y503882*
X450481Y484733D02*
X448869D01*
Y484420*
X450481*
Y484733*
X450285Y494970D02*
X448672D01*
Y494656*
X450285*
Y494970*
X450481Y505206D02*
X448869D01*
Y504893*
X450481*
Y505206*
X448001Y487214D02*
X447673D01*
X446563Y484176*
X446469Y484175*
X445300Y487214*
X444971*
Y483121*
X445285*
Y486555*
X445382Y486539*
X445329Y486379*
X446373Y483711*
X446600*
X447650Y486337*
X447688Y486270*
Y483121*
X448001*
Y487214*
X447804Y497450D02*
X447476D01*
X446366Y494412*
X446272Y494411*
X445103Y497450*
X444774*
Y493357*
X445088*
Y496791*
X445185Y496776*
X445132Y496616*
X446176Y493948*
X446403*
X447454Y496574*
X447491Y496506*
Y493357*
X447804*
Y497450*
X448001Y507686D02*
X447673D01*
X446563Y504648*
X446469Y504647*
X445300Y507686*
X444971*
Y503593*
X445285*
Y507028*
X445382Y507012*
X445329Y506852*
X446373Y504184*
X446600*
X447650Y506810*
X447688Y506742*
Y503593*
X448001*
Y507686*
X444104Y486019D02*
X444046Y486366D01*
X443932Y486709*
X443763Y486933*
X443763D02*
X443538Y487102D01*
X443254Y487215*
X442913Y487272*
X442513Y487215*
X442229Y487102*
X442004Y486933*
X441836Y486709*
X441722Y486366*
X441664Y486019*
Y484315*
X441722Y483969*
X441836Y483626*
X442004Y483402*
X442229Y483233*
X442513Y483120*
X442913Y483062*
X443254Y483119*
X443538Y483233*
X443763Y483402*
X443763D02*
X443932Y483626D01*
X444046Y483969*
X444104Y484315*
Y486019*
X443790Y486024D02*
Y484311D01*
X443789Y484299*
X443671Y483826*
X443657Y483803*
X443362Y483508*
X443341Y483495*
X442927Y483377*
X442901*
X442429Y483495*
X442406Y483508*
X442110Y483803*
X442097Y483826*
X441979Y484299*
X441978Y484311*
Y486024*
X441979Y486036*
X442097Y486508*
X442110Y486531*
X442406Y486827*
X442429Y486840*
X442901Y486958*
X442927*
X443341Y486839*
X443362Y486827*
X443657Y486531*
X443671Y486508*
X443789Y486036*
X443790Y486024*
X443907Y496256D02*
X443849Y496602D01*
X443735Y496945*
X443567Y497169*
X443341Y497338*
X443057Y497452*
X442716Y497508*
X442316Y497451*
X442033Y497338*
X441807Y497169*
X441639Y496945*
X441525Y496602*
X441467Y496256*
Y494551*
X441525Y494205*
X441639Y493862*
X441807Y493638*
X442033Y493469*
X442316Y493356*
X442716Y493299*
X443057Y493356*
X443341Y493469*
X443567Y493638*
X443735Y493862*
X443849Y494205*
X443907Y494551*
Y496256*
X443593Y496260D02*
Y494547D01*
X443592Y494535*
X443474Y494063*
X443461Y494039*
X443165Y493744*
X443144Y493731*
X442730Y493613*
X442704*
X442232Y493731*
X442209Y493744*
X441913Y494039*
X441900Y494063*
X441782Y494535*
X441781Y494547*
Y496260*
X441782Y496272*
X441900Y496744*
X441913Y496768*
X442209Y497063*
X442232Y497076*
X442704Y497194*
X442730*
X443144Y497076*
X443165Y497063*
X443461Y496768*
X443474Y496744*
X443592Y496272*
X443593Y496260*
X444104Y506492D02*
X444046Y506838D01*
X443932Y507181*
X443763Y507405*
X443763D02*
X443538Y507574D01*
X443254Y507688*
X442913Y507745*
X442513Y507688*
X442229Y507574*
X442004Y507405*
X441836Y507181*
X441722Y506838*
X441664Y506492*
Y504788*
X441722Y504441*
X441836Y504098*
X442004Y503874*
X442229Y503705*
X442513Y503592*
X442913Y503535*
X443254Y503592*
X443538Y503705*
X443763Y503874*
X443763D02*
X443932Y504098D01*
X444046Y504441*
X444104Y504788*
Y506492*
X443790Y506496D02*
Y504783D01*
X443789Y504771*
X443671Y504299*
X443657Y504276*
X443362Y503980*
X443341Y503968*
X442927Y503850*
X442901Y503849*
X442429Y503967*
X442406Y503980*
X442110Y504276*
X442097Y504299*
X441979Y504771*
X441978Y504783*
Y506496*
X441979Y506508*
X442097Y506981*
X442110Y507004*
X442406Y507299*
X442429Y507312*
X442901Y507430*
X442927*
X443341Y507312*
X443362Y507299*
X443657Y507004*
X443671Y506981*
X443789Y506508*
X443790Y506496*
X440796Y487214D02*
X439551D01*
X439203Y487156*
X438979Y487100*
X438756Y486933*
X438586Y486706*
X438475Y486484*
Y483848*
X438586Y483571*
X438753Y483404*
X438981Y483233*
X439262Y483121*
X440796*
Y487214*
X440483Y486900D02*
Y483375D01*
X439547*
X439537Y483376*
X439242Y483435*
X439222Y483444*
X438986Y483621*
X438980Y483626*
X438803Y483803*
X438789Y483839*
Y486437*
X438799Y486467*
X438976Y486703*
X438986Y486713*
X439222Y486890*
X439252Y486900*
X440483*
X440600Y497450D02*
X439355D01*
X439006Y497392*
X438782Y497336*
X438559Y497169*
X438389Y496942*
X438278Y496720*
Y494084*
X438389Y493808*
X438556Y493640*
X438785Y493469*
X439065Y493357*
X440600*
Y497450*
X440286Y497137D02*
Y493611D01*
X439350*
X439341Y493612*
X439045Y493671*
X439025Y493680*
X438789Y493858*
X438784Y493862*
X438606Y494039*
X438592Y494075*
Y496673*
X438602Y496703*
X438779Y496939*
X438789Y496949*
X439025Y497127*
X439055Y497137*
X440286*
X440796Y507686D02*
X439551D01*
X439203Y507628*
X438979Y507572*
X438756Y507405*
X438586Y507178*
X438475Y506957*
Y504321*
X438586Y504044*
X438753Y503876*
X438981Y503705*
X439262Y503593*
X440796*
Y507686*
X440483Y507373D02*
Y503848D01*
X439547*
X439537Y503849*
X439242Y503908*
X439222Y503917*
X438986Y504094*
X438980Y504099*
X438803Y504276*
X438789Y504311*
Y506909*
X438799Y506939*
X438976Y507176*
X438986Y507186*
X439222Y507363*
X439252Y507373*
X440483*
X437607Y484733D02*
X435995D01*
Y484420*
X437607*
Y484733*
X437411Y494970D02*
X435798D01*
Y494656*
X437411*
Y494970*
X437607Y505206D02*
X435995D01*
Y504893*
X437607*
Y505206*
X435363Y486824D02*
X434807Y487214D01*
X434282*
Y483121*
X434596*
Y486909*
X434672Y486952*
X435363Y486526*
Y486824*
X434930Y497450D02*
X434617D01*
Y493357*
X434930*
Y497450*
X435406Y503593D02*
X434195Y507686D01*
X433738*
X432528Y503593*
X432895*
X433154Y504497*
X433051*
X433001Y504547*
Y504961*
X433051Y505011*
X433300*
X433948Y507278*
X434044Y507277*
X434656Y505011*
X434882*
X434932Y504961*
Y504547*
X434882Y504497*
X434794*
X435038Y503593*
X435406*
X434576Y497450D02*
X433627D01*
X433051Y497335*
X432886Y497225*
X432722Y497061*
X432668Y496844*
Y496264*
X432725Y495923*
X432889Y495650*
X433168Y495539*
X433175Y495449*
X432888Y495277*
X432666Y494999*
X432609Y494603*
Y493968*
X432717Y493752*
X433059Y493467*
X433280Y493357*
X434576*
Y493611*
X433681*
X433673Y493612*
X433319Y493671*
X433299Y493679*
X433122Y493797*
X433114Y493803*
X432937Y493980*
X432922Y494016*
Y494606*
X432923Y494615*
X432982Y494969*
X432996Y494996*
X433232Y495232*
X433259Y495246*
X433614Y495305*
X433622Y495306*
X434576*
Y495619*
X433622*
X433612Y495620*
X433317Y495679*
X433311Y495681*
X433134Y495740*
X433105Y495765*
X432987Y496001*
X432981Y496024*
Y496791*
X432990Y496819*
X433108Y496996*
X433127Y497013*
X433363Y497131*
X433386Y497137*
X434576*
Y497450*
X432600Y503593D02*
Y503838D01*
X432700Y493787D02*
Y495042D01*
Y496073D02*
Y496972D01*
Y503593D02*
Y504176D01*
X432800Y493683D02*
Y495167D01*
Y495798D02*
Y497139D01*
Y503593D02*
Y504514D01*
X432900Y493600D02*
Y495284D01*
Y495646D02*
Y497234D01*
Y503610D02*
Y504853D01*
X433000Y493517D02*
Y493917D01*
Y495000D02*
Y495344D01*
Y495606D02*
Y495975D01*
Y496834D02*
Y497301D01*
Y503960D02*
Y505191D01*
X433100Y493447D02*
Y493817D01*
Y495100D02*
Y495404D01*
Y495566D02*
Y495775D01*
Y496984D02*
Y497345D01*
Y504310D02*
Y504497D01*
Y505011D02*
Y505529D01*
X433200Y493397D02*
Y493745D01*
Y495200D02*
Y495718D01*
Y497050D02*
Y497365D01*
Y505011D02*
Y505867D01*
X433300Y493357D02*
Y493678D01*
Y495253D02*
Y495685D01*
Y497100D02*
Y497385D01*
Y505011D02*
Y506205D01*
X433400Y493357D02*
Y493658D01*
Y495270D02*
Y495663D01*
Y497137D02*
Y497405D01*
Y505360D02*
Y506543D01*
X433500Y493357D02*
Y493641D01*
Y495286D02*
Y495643D01*
Y497137D02*
Y497425D01*
Y505710D02*
Y506881D01*
X433600Y493357D02*
Y493624D01*
Y495303D02*
Y495623D01*
Y497137D02*
Y497445D01*
Y506060D02*
Y507219D01*
X433700Y493357D02*
Y493611D01*
Y495306D02*
Y495619D01*
Y497137D02*
Y497450D01*
Y506410D02*
Y507557D01*
X433800Y493357D02*
Y493611D01*
Y495306D02*
Y495619D01*
Y497137D02*
Y497450D01*
Y506760D02*
Y507686D01*
X433900Y493357D02*
Y493611D01*
Y495306D02*
Y495619D01*
Y497137D02*
Y497450D01*
Y507110D02*
Y507686D01*
X434000Y493357D02*
Y493611D01*
Y495306D02*
Y495619D01*
Y497137D02*
Y497450D01*
Y507314D02*
Y507686D01*
X434100Y493357D02*
Y493611D01*
Y495306D02*
Y495619D01*
Y497137D02*
Y497450D01*
Y507071D02*
Y507686D01*
X434200Y493357D02*
Y493611D01*
Y495306D02*
Y495619D01*
Y497137D02*
Y497450D01*
Y506700D02*
Y507669D01*
X434300Y483121D02*
Y487214D01*
Y493357D02*
Y493611D01*
Y495306D02*
Y495619D01*
Y497137D02*
Y497450D01*
Y506329D02*
Y507331D01*
X434400Y483121D02*
Y487214D01*
Y493357D02*
Y493611D01*
Y495306D02*
Y495619D01*
Y497137D02*
Y497450D01*
Y505959D02*
Y506993D01*
X434500Y483121D02*
Y487214D01*
Y493357D02*
Y493611D01*
Y495306D02*
Y495619D01*
Y497137D02*
Y497450D01*
Y505588D02*
Y506655D01*
X434600Y486930D02*
Y487214D01*
Y505218D02*
Y506317D01*
X434700Y486935D02*
Y487214D01*
Y493357D02*
Y497450D01*
Y505011D02*
Y505979D01*
X434800Y486873D02*
Y487214D01*
Y493357D02*
Y497450D01*
Y504476D02*
Y504497D01*
Y505011D02*
Y505641D01*
X434900Y486812D02*
Y487149D01*
Y493357D02*
Y497450D01*
Y504106D02*
Y504501D01*
Y505007D02*
Y505302D01*
X435000Y486750D02*
Y487079D01*
Y503735D02*
Y504964D01*
X435100Y486689D02*
Y487009D01*
Y503593D02*
Y504626D01*
X435200Y486627D02*
Y486939D01*
Y503593D02*
Y504288D01*
X435300Y486565D02*
Y486869D01*
Y503593D02*
Y503950D01*
X435400Y503593D02*
Y503612D01*
X435800Y494656D02*
Y494970D01*
X435900Y494656D02*
Y494970D01*
X436000Y484420D02*
Y484733D01*
Y494656D02*
Y494970D01*
Y504893D02*
Y505206D01*
X436100Y484420D02*
Y484733D01*
Y494656D02*
Y494970D01*
Y504893D02*
Y505206D01*
X436200Y484420D02*
Y484733D01*
Y494656D02*
Y494970D01*
Y504893D02*
Y505206D01*
X436300Y484420D02*
Y484733D01*
Y494656D02*
Y494970D01*
Y504893D02*
Y505206D01*
X436400Y484420D02*
Y484733D01*
Y494656D02*
Y494970D01*
Y504893D02*
Y505206D01*
X436500Y484420D02*
Y484733D01*
Y494656D02*
Y494970D01*
Y504893D02*
Y505206D01*
X436600Y484420D02*
Y484733D01*
Y494656D02*
Y494970D01*
Y504893D02*
Y505206D01*
X436700Y484420D02*
Y484733D01*
Y494656D02*
Y494970D01*
Y504893D02*
Y505206D01*
X436800Y484420D02*
Y484733D01*
Y494656D02*
Y494970D01*
Y504893D02*
Y505206D01*
X436900Y484420D02*
Y484733D01*
Y494656D02*
Y494970D01*
Y504893D02*
Y505206D01*
X437000Y484420D02*
Y484733D01*
Y494656D02*
Y494970D01*
Y504893D02*
Y505206D01*
X437100Y484420D02*
Y484733D01*
Y494656D02*
Y494970D01*
Y504893D02*
Y505206D01*
X437200Y484420D02*
Y484733D01*
Y494656D02*
Y494970D01*
Y504893D02*
Y505206D01*
X437300Y484420D02*
Y484733D01*
Y494656D02*
Y494970D01*
Y504893D02*
Y505206D01*
X437400Y484420D02*
Y484733D01*
Y494656D02*
Y494970D01*
Y504893D02*
Y505206D01*
X437500Y484420D02*
Y484733D01*
Y504893D02*
Y505206D01*
X437600Y484420D02*
Y484733D01*
Y504893D02*
Y505206D01*
X438300Y494030D02*
Y496764D01*
X438400Y493797D02*
Y496957D01*
X438500Y483786D02*
Y486534D01*
Y493697D02*
Y497090D01*
Y504259D02*
Y507006D01*
X438600Y483557D02*
Y486725D01*
Y493608D02*
Y494047D01*
Y496701D02*
Y497200D01*
Y504030D02*
Y507197D01*
X438700Y483457D02*
Y486858D01*
Y493533D02*
Y493946D01*
Y496834D02*
Y497275D01*
Y503930D02*
Y507330D01*
X438800Y483369D02*
Y483807D01*
Y486469D02*
Y486966D01*
Y493463D02*
Y493849D01*
Y496958D02*
Y497340D01*
Y503841D02*
Y504279D01*
Y506941D02*
Y507438D01*
X438900Y483294D02*
Y483706D01*
Y486602D02*
Y487041D01*
Y493423D02*
Y493774D01*
Y497033D02*
Y497365D01*
Y503766D02*
Y504179D01*
Y507075D02*
Y507513D01*
X439000Y483226D02*
Y483611D01*
Y486724D02*
Y487105D01*
Y493383D02*
Y493699D01*
Y497108D02*
Y497390D01*
Y503698D02*
Y504083D01*
Y507196D02*
Y507577D01*
X439100Y483186D02*
Y483536D01*
Y486799D02*
Y487130D01*
Y493357D02*
Y493661D01*
Y497137D02*
Y497408D01*
Y503658D02*
Y504008D01*
Y507271D02*
Y507602D01*
X439200Y483146D02*
Y483461D01*
Y486874D02*
Y487155D01*
Y493357D02*
Y493641D01*
Y497137D02*
Y497424D01*
Y503618D02*
Y503933D01*
Y507346D02*
Y507627D01*
X439300Y483121D02*
Y483424D01*
Y486900D02*
Y487172D01*
Y493357D02*
Y493621D01*
Y497137D02*
Y497441D01*
Y503593D02*
Y503896D01*
Y507373D02*
Y507644D01*
X439400Y483121D02*
Y483404D01*
Y486900D02*
Y487189D01*
Y493357D02*
Y493611D01*
Y497137D02*
Y497450D01*
Y503593D02*
Y503876D01*
Y507373D02*
Y507661D01*
X439500Y483121D02*
Y483384D01*
Y486900D02*
Y487205D01*
Y493357D02*
Y493611D01*
Y497137D02*
Y497450D01*
Y503593D02*
Y503856D01*
Y507373D02*
Y507678D01*
X439600Y483121D02*
Y483375D01*
Y486900D02*
Y487214D01*
Y493357D02*
Y493611D01*
Y497137D02*
Y497450D01*
Y503593D02*
Y503848D01*
Y507373D02*
Y507686D01*
X439700Y483121D02*
Y483375D01*
Y486900D02*
Y487214D01*
Y493357D02*
Y493611D01*
Y497137D02*
Y497450D01*
Y503593D02*
Y503848D01*
Y507373D02*
Y507686D01*
X439800Y483121D02*
Y483375D01*
Y486900D02*
Y487214D01*
Y493357D02*
Y493611D01*
Y497137D02*
Y497450D01*
Y503593D02*
Y503848D01*
Y507373D02*
Y507686D01*
X439900Y483121D02*
Y483375D01*
Y486900D02*
Y487214D01*
Y493357D02*
Y493611D01*
Y497137D02*
Y497450D01*
Y503593D02*
Y503848D01*
Y507373D02*
Y507686D01*
X440000Y483121D02*
Y483375D01*
Y486900D02*
Y487214D01*
Y493357D02*
Y493611D01*
Y497137D02*
Y497450D01*
Y503593D02*
Y503848D01*
Y507373D02*
Y507686D01*
X440100Y483121D02*
Y483375D01*
Y486900D02*
Y487214D01*
Y493357D02*
Y493611D01*
Y497137D02*
Y497450D01*
Y503593D02*
Y503848D01*
Y507373D02*
Y507686D01*
X440200Y483121D02*
Y483375D01*
Y486900D02*
Y487214D01*
Y493357D02*
Y493611D01*
Y497137D02*
Y497450D01*
Y503593D02*
Y503848D01*
Y507373D02*
Y507686D01*
X440300Y483121D02*
Y483375D01*
Y486900D02*
Y487214D01*
Y493357D02*
Y497450D01*
Y503593D02*
Y503848D01*
Y507373D02*
Y507686D01*
X440400Y483121D02*
Y483375D01*
Y486900D02*
Y487214D01*
Y493357D02*
Y497450D01*
Y503593D02*
Y503848D01*
Y507373D02*
Y507686D01*
X440500Y483121D02*
Y487214D01*
Y493357D02*
Y497450D01*
Y503593D02*
Y507686D01*
X440600Y483121D02*
Y487214D01*
Y503593D02*
Y507686D01*
X440700Y483121D02*
Y487214D01*
Y503593D02*
Y507686D01*
X441500Y494355D02*
Y496452D01*
X441600Y493980D02*
Y496827D01*
X441700Y484100D02*
Y486234D01*
Y493781D02*
Y497026D01*
Y504573D02*
Y506707D01*
X441800Y483734D02*
Y486600D01*
Y493648D02*
Y494464D01*
Y496343D02*
Y497159D01*
Y504207D02*
Y507073D01*
X441900Y483541D02*
Y486794D01*
Y493569D02*
Y494064D01*
Y496743D02*
Y497238D01*
Y504013D02*
Y507266D01*
X442000Y483407D02*
Y484215D01*
Y486120D02*
Y486927D01*
Y493494D02*
Y493953D01*
Y496854D02*
Y497313D01*
Y503880D02*
Y504688D01*
Y506592D02*
Y507400D01*
X442100Y483330D02*
Y483818D01*
Y486516D02*
Y487005D01*
Y493442D02*
Y493853D01*
Y496954D02*
Y497365D01*
Y503802D02*
Y504291D01*
Y506989D02*
Y507477D01*
X442200Y483255D02*
Y483714D01*
Y486621D02*
Y487080D01*
Y493402D02*
Y493753D01*
Y497054D02*
Y497405D01*
Y503727D02*
Y504186D01*
Y507094D02*
Y507552D01*
X442300Y483205D02*
Y483614D01*
Y486721D02*
Y487130D01*
Y493362D02*
Y493714D01*
Y497093D02*
Y497445D01*
Y503677D02*
Y504086D01*
Y507194D02*
Y507602D01*
X442400Y483165D02*
Y483514D01*
Y486821D02*
Y487170D01*
Y493344D02*
Y493689D01*
Y497118D02*
Y497463D01*
Y503637D02*
Y503986D01*
Y507294D02*
Y507642D01*
X442500Y483125D02*
Y483477D01*
Y486858D02*
Y487210D01*
Y493329D02*
Y493664D01*
Y497143D02*
Y497478D01*
Y503597D02*
Y503949D01*
Y507330D02*
Y507682D01*
X442600Y483107D02*
Y483452D01*
Y486883D02*
Y487228D01*
Y493315D02*
Y493639D01*
Y497168D02*
Y497492D01*
Y503580D02*
Y503924D01*
Y507355D02*
Y507700D01*
X442700Y483093D02*
Y483427D01*
Y486908D02*
Y487242D01*
Y493301D02*
Y493614D01*
Y497193D02*
Y497506D01*
Y503565D02*
Y503899D01*
Y507380D02*
Y507714D01*
X442800Y483079D02*
Y483402D01*
Y486933D02*
Y487256D01*
Y493313D02*
Y493633D01*
Y497174D02*
Y497494D01*
Y503551D02*
Y503874D01*
Y507405D02*
Y507729D01*
X442900Y483064D02*
Y483377D01*
Y486958D02*
Y487270D01*
Y493329D02*
Y493662D01*
Y497145D02*
Y497478D01*
Y503537D02*
Y503849D01*
Y507430D02*
Y507743D01*
X443000Y483077D02*
Y483398D01*
Y486937D02*
Y487258D01*
Y493346D02*
Y493690D01*
Y497117D02*
Y497461D01*
Y503549D02*
Y503870D01*
Y507409D02*
Y507730D01*
X443100Y483094D02*
Y483427D01*
Y486908D02*
Y487241D01*
Y493373D02*
Y493719D01*
Y497088D02*
Y497434D01*
Y503566D02*
Y503899D01*
Y507381D02*
Y507713D01*
X443200Y483110D02*
Y483455D01*
Y486880D02*
Y487224D01*
Y493413D02*
Y493779D01*
Y497028D02*
Y497394D01*
Y503583D02*
Y503928D01*
Y507352D02*
Y507697D01*
X443300Y483138D02*
Y483484D01*
Y486851D02*
Y487197D01*
Y493453D02*
Y493879D01*
Y496928D02*
Y497354D01*
Y503610D02*
Y503956D01*
Y507323D02*
Y507669D01*
X443400Y483178D02*
Y483546D01*
Y486789D02*
Y487157D01*
Y493513D02*
Y493979D01*
Y496828D02*
Y497294D01*
Y503650D02*
Y504018D01*
Y507261D02*
Y507629D01*
X443500Y483218D02*
Y483646D01*
Y486689D02*
Y487117D01*
Y493588D02*
Y494168D01*
Y496639D02*
Y497219D01*
Y503690D02*
Y504118D01*
Y507161D02*
Y507589D01*
X443600Y483279D02*
Y483746D01*
Y486589D02*
Y487055D01*
Y493683D02*
Y497125D01*
Y503752D02*
Y504218D01*
Y507061D02*
Y507528D01*
X443700Y483354D02*
Y483944D01*
Y486390D02*
Y486980D01*
Y493816D02*
Y496991D01*
Y503827D02*
Y504417D01*
Y506863D02*
Y507453D01*
X443800Y483451D02*
Y486884D01*
Y494058D02*
Y496749D01*
Y503923D02*
Y507357D01*
X443900Y483584D02*
Y486751D01*
Y494511D02*
Y496296D01*
Y504056D02*
Y507223D01*
X444000Y483831D02*
Y486503D01*
Y504304D02*
Y506976D01*
X444100Y484294D02*
Y486041D01*
Y504766D02*
Y506513D01*
X444800Y493357D02*
Y497450D01*
X444900Y493357D02*
Y497450D01*
X445000Y483121D02*
Y487214D01*
Y493357D02*
Y497450D01*
Y503593D02*
Y507686D01*
X445100Y483121D02*
Y487214D01*
Y496824D02*
Y497450D01*
Y503593D02*
Y507686D01*
X445200Y483121D02*
Y487214D01*
Y496441D02*
Y497199D01*
Y503593D02*
Y507686D01*
X445300Y486591D02*
Y487214D01*
Y496186D02*
Y496939D01*
Y507064D02*
Y507686D01*
X445400Y486197D02*
Y486955D01*
Y495930D02*
Y496679D01*
Y506670D02*
Y507427D01*
X445500Y485942D02*
Y486695D01*
Y495675D02*
Y496419D01*
Y506414D02*
Y507167D01*
X445600Y485686D02*
Y486435D01*
Y495419D02*
Y496159D01*
Y506159D02*
Y506907D01*
X445700Y485431D02*
Y486175D01*
Y495164D02*
Y495899D01*
Y505903D02*
Y506647D01*
X445800Y485175D02*
Y485915D01*
Y494908D02*
Y495639D01*
Y505647D02*
Y506387D01*
X445900Y484919D02*
Y485655D01*
Y494653D02*
Y495379D01*
Y505392D02*
Y506127D01*
X446000Y484664D02*
Y485395D01*
Y494397D02*
Y495119D01*
Y505136D02*
Y505867D01*
X446100Y484408D02*
Y485135D01*
Y494141D02*
Y494859D01*
Y504881D02*
Y505607D01*
X446200Y484153D02*
Y484875D01*
Y493948D02*
Y494599D01*
Y504625D02*
Y505347D01*
X446300Y483897D02*
Y484615D01*
Y493948D02*
Y494383D01*
Y504370D02*
Y505087D01*
X446400Y483711D02*
Y484355D01*
Y493948D02*
Y494505D01*
Y504184D02*
Y504827D01*
X446500Y483711D02*
Y484145D01*
Y494190D02*
Y494779D01*
Y504184D02*
Y504618D01*
X446600Y483711D02*
Y484278D01*
Y494440D02*
Y495053D01*
Y504184D02*
Y504750D01*
X446700Y483961D02*
Y484551D01*
Y494690D02*
Y495326D01*
Y504434D02*
Y505024D01*
X446800Y484211D02*
Y484825D01*
Y494940D02*
Y495600D01*
Y504684D02*
Y505298D01*
X446900Y484461D02*
Y485099D01*
Y495190D02*
Y495874D01*
Y504934D02*
Y505571D01*
X447000Y484711D02*
Y485373D01*
Y495440D02*
Y496148D01*
Y505184D02*
Y505845D01*
X447100Y484961D02*
Y485646D01*
Y495690D02*
Y496421D01*
Y505434D02*
Y506119D01*
X447200Y485211D02*
Y485920D01*
Y495940D02*
Y496695D01*
Y505684D02*
Y506392D01*
X447300Y485461D02*
Y486194D01*
Y496190D02*
Y496969D01*
Y505934D02*
Y506666D01*
X447400Y485711D02*
Y486467D01*
Y496440D02*
Y497242D01*
Y506184D02*
Y506940D01*
X447500Y485961D02*
Y486741D01*
Y493357D02*
Y496505D01*
Y496605D02*
Y497450D01*
Y506434D02*
Y507213D01*
X447600Y486211D02*
Y487015D01*
Y493357D02*
Y497450D01*
Y506684D02*
Y507487D01*
X447700Y483121D02*
Y486269D01*
Y486369D02*
Y487214D01*
Y493357D02*
Y497450D01*
Y503593D02*
Y506741D01*
Y506841D02*
Y507686D01*
X447800Y483121D02*
Y487214D01*
Y493357D02*
Y497450D01*
Y503593D02*
Y507686D01*
X447900Y483121D02*
Y487214D01*
Y503593D02*
Y507686D01*
X448000Y483121D02*
Y487214D01*
Y503593D02*
Y507686D01*
X448700Y494656D02*
Y494970D01*
X448800Y494656D02*
Y494970D01*
X448900Y484420D02*
Y484733D01*
Y494656D02*
Y494970D01*
Y504893D02*
Y505206D01*
X449000Y484420D02*
Y484733D01*
Y494656D02*
Y494970D01*
Y504893D02*
Y505206D01*
X449100Y484420D02*
Y484733D01*
Y494656D02*
Y494970D01*
Y504893D02*
Y505206D01*
X449200Y484420D02*
Y484733D01*
Y494656D02*
Y494970D01*
Y504893D02*
Y505206D01*
X449300Y484420D02*
Y484733D01*
Y494656D02*
Y494970D01*
Y504893D02*
Y505206D01*
X449400Y484420D02*
Y484733D01*
Y494656D02*
Y494970D01*
Y504893D02*
Y505206D01*
X449500Y484420D02*
Y484733D01*
Y494656D02*
Y494970D01*
Y504893D02*
Y505206D01*
X449600Y484420D02*
Y484733D01*
Y494656D02*
Y494970D01*
Y504893D02*
Y505206D01*
X449700Y484420D02*
Y484733D01*
Y494656D02*
Y494970D01*
Y504893D02*
Y505206D01*
X449800Y484420D02*
Y484733D01*
Y494656D02*
Y494970D01*
Y504893D02*
Y505206D01*
X449900Y484420D02*
Y484733D01*
Y494656D02*
Y494970D01*
Y504893D02*
Y505206D01*
X450000Y484420D02*
Y484733D01*
Y494656D02*
Y494970D01*
Y504893D02*
Y505206D01*
X450100Y484420D02*
Y484733D01*
Y494656D02*
Y494970D01*
Y504893D02*
Y505206D01*
X450200Y484420D02*
Y484733D01*
Y494656D02*
Y494970D01*
Y504893D02*
Y505206D01*
X450300Y484420D02*
Y484733D01*
Y504893D02*
Y505206D01*
X450400Y439617D02*
Y440017D01*
Y444950D02*
Y445434D01*
Y484420D02*
Y484733D01*
Y504893D02*
Y505206D01*
X450500Y439617D02*
Y440017D01*
Y444950D02*
Y445434D01*
X450600Y439617D02*
Y440017D01*
Y444950D02*
Y445434D01*
X450700Y439617D02*
Y440017D01*
Y442284D02*
Y442684D01*
Y444950D02*
Y445434D01*
X450800Y439617D02*
Y440017D01*
Y442284D02*
Y442684D01*
Y444950D02*
Y445434D01*
X450900Y439617D02*
Y440017D01*
Y442284D02*
Y442684D01*
Y444950D02*
Y445434D01*
X451000Y439617D02*
Y440017D01*
Y442284D02*
Y442684D01*
Y444950D02*
Y445434D01*
X451100Y439617D02*
Y440017D01*
Y442284D02*
Y442684D01*
Y444950D02*
Y445434D01*
Y493357D02*
Y493611D01*
Y496253D02*
Y496793D01*
X451200Y439617D02*
Y440017D01*
Y442284D02*
Y442684D01*
Y444950D02*
Y445434D01*
Y493357D02*
Y493611D01*
Y496003D02*
Y496993D01*
X451300Y439617D02*
Y440017D01*
Y442284D02*
Y442684D01*
Y444950D02*
Y445434D01*
Y483121D02*
Y483375D01*
Y486009D02*
Y486563D01*
Y493357D02*
Y493611D01*
Y495799D02*
Y497129D01*
Y503593D02*
Y503848D01*
Y506481D02*
Y507035D01*
X451400Y439617D02*
Y440017D01*
Y442284D02*
Y442684D01*
Y444950D02*
Y445434D01*
Y483121D02*
Y483375D01*
Y485759D02*
Y486763D01*
Y493357D02*
Y493611D01*
Y495599D02*
Y497254D01*
Y503593D02*
Y503848D01*
Y506231D02*
Y507235D01*
X451500Y439617D02*
Y440017D01*
Y442284D02*
Y442684D01*
Y444950D02*
Y445434D01*
Y483121D02*
Y483375D01*
Y485557D02*
Y486897D01*
Y493357D02*
Y493611D01*
Y495399D02*
Y496162D01*
Y496858D02*
Y497354D01*
Y503593D02*
Y503848D01*
Y506029D02*
Y507369D01*
X451600Y439617D02*
Y440017D01*
Y442284D02*
Y442684D01*
Y444950D02*
Y445434D01*
Y483121D02*
Y483375D01*
Y485357D02*
Y487021D01*
Y493357D02*
Y493611D01*
Y495254D02*
Y495903D01*
Y497005D02*
Y497407D01*
Y503593D02*
Y503848D01*
Y505829D02*
Y507494D01*
X451700Y439617D02*
Y440017D01*
Y442284D02*
Y442684D01*
Y444950D02*
Y445434D01*
Y483121D02*
Y483375D01*
Y485159D02*
Y485915D01*
Y486626D02*
Y487121D01*
Y493357D02*
Y493611D01*
Y495109D02*
Y495678D01*
Y497073D02*
Y497427D01*
Y503593D02*
Y503848D01*
Y505631D02*
Y506388D01*
Y507099D02*
Y507594D01*
X451800Y439617D02*
Y440017D01*
Y442284D02*
Y442684D01*
Y444950D02*
Y445434D01*
Y483121D02*
Y483375D01*
Y485014D02*
Y485660D01*
Y486772D02*
Y487171D01*
Y493357D02*
Y493611D01*
Y494964D02*
Y495481D01*
Y497135D02*
Y497447D01*
Y503593D02*
Y503848D01*
Y505486D02*
Y506132D01*
Y507244D02*
Y507644D01*
X451900Y439617D02*
Y440017D01*
Y442284D02*
Y442684D01*
Y444950D02*
Y445434D01*
Y483121D02*
Y483375D01*
Y484869D02*
Y485435D01*
Y486839D02*
Y487191D01*
Y493357D02*
Y493611D01*
Y494819D02*
Y495342D01*
Y497155D02*
Y497467D01*
Y503593D02*
Y503848D01*
Y505341D02*
Y505907D01*
Y507311D02*
Y507664D01*
X452000Y439617D02*
Y440017D01*
Y442284D02*
Y442684D01*
Y444950D02*
Y445434D01*
Y483121D02*
Y483375D01*
Y484724D02*
Y485240D01*
Y486900D02*
Y487211D01*
Y493357D02*
Y493611D01*
Y494674D02*
Y495203D01*
Y497175D02*
Y497487D01*
Y503593D02*
Y503848D01*
Y505196D02*
Y505713D01*
Y507372D02*
Y507684D01*
X452100Y439617D02*
Y440017D01*
Y442284D02*
Y442684D01*
Y444950D02*
Y445434D01*
Y483121D02*
Y483375D01*
Y484579D02*
Y485101D01*
Y486920D02*
Y487231D01*
Y493357D02*
Y493611D01*
Y494529D02*
Y495063D01*
Y497195D02*
Y497507D01*
Y503593D02*
Y503848D01*
Y505051D02*
Y505574D01*
Y507392D02*
Y507704D01*
X452200Y439617D02*
Y440017D01*
Y442284D02*
Y442684D01*
Y444950D02*
Y445434D01*
Y483121D02*
Y483375D01*
Y484434D02*
Y484962D01*
Y486940D02*
Y487251D01*
Y493357D02*
Y493611D01*
Y494384D02*
Y494924D01*
Y497174D02*
Y497489D01*
Y503593D02*
Y503848D01*
Y504906D02*
Y505434D01*
Y507412D02*
Y507724D01*
X452300Y439617D02*
Y440017D01*
Y442284D02*
Y442684D01*
Y444950D02*
Y445434D01*
Y483121D02*
Y483375D01*
Y484289D02*
Y484823D01*
Y486959D02*
Y487271D01*
Y493357D02*
Y493611D01*
Y494239D02*
Y494785D01*
Y497149D02*
Y497469D01*
Y503593D02*
Y503848D01*
Y504761D02*
Y505295D01*
Y507432D02*
Y507744D01*
X452400Y439617D02*
Y440017D01*
Y442284D02*
Y442684D01*
Y444950D02*
Y445434D01*
Y483121D02*
Y483375D01*
Y484144D02*
Y484684D01*
Y486937D02*
Y487252D01*
Y493357D02*
Y493611D01*
Y494094D02*
Y494646D01*
Y497114D02*
Y497445D01*
Y503593D02*
Y503848D01*
Y504616D02*
Y505156D01*
Y507409D02*
Y507725D01*
X452500Y439617D02*
Y440017D01*
Y442284D02*
Y442684D01*
Y444950D02*
Y445434D01*
Y483121D02*
Y483375D01*
Y483999D02*
Y484545D01*
Y486912D02*
Y487232D01*
Y493357D02*
Y493611D01*
Y493949D02*
Y494507D01*
Y497064D02*
Y497395D01*
Y503593D02*
Y503848D01*
Y504471D02*
Y505017D01*
Y507384D02*
Y507705D01*
X452600Y439617D02*
Y440017D01*
Y442284D02*
Y442684D01*
Y444950D02*
Y445434D01*
Y483121D02*
Y483375D01*
Y483854D02*
Y484405D01*
Y486876D02*
Y487207D01*
Y493357D02*
Y493611D01*
Y493804D02*
Y494368D01*
Y497014D02*
Y497345D01*
Y503593D02*
Y503848D01*
Y504326D02*
Y504878D01*
Y507348D02*
Y507680D01*
X452700Y439617D02*
Y440017D01*
Y442284D02*
Y442684D01*
Y444950D02*
Y445434D01*
Y483121D02*
Y483375D01*
Y483709D02*
Y484266D01*
Y486826D02*
Y487157D01*
Y493357D02*
Y494229D01*
Y496800D02*
Y497273D01*
Y503593D02*
Y503848D01*
Y504181D02*
Y504739D01*
Y507298D02*
Y507630D01*
X452800Y439617D02*
Y440017D01*
Y442284D02*
Y442684D01*
Y444950D02*
Y445434D01*
Y483121D02*
Y483375D01*
Y483564D02*
Y484127D01*
Y486776D02*
Y487107D01*
Y493357D02*
Y494090D01*
Y496428D02*
Y497198D01*
Y503593D02*
Y503848D01*
Y504036D02*
Y504600D01*
Y507248D02*
Y507580D01*
X452900Y439617D02*
Y440017D01*
Y442284D02*
Y442684D01*
Y444950D02*
Y445434D01*
Y483121D02*
Y483988D01*
Y486556D02*
Y487034D01*
Y493357D02*
Y493950D01*
Y496428D02*
Y497108D01*
Y503593D02*
Y504461D01*
Y507028D02*
Y507507D01*
X453000Y439617D02*
Y445434D01*
Y483121D02*
Y483849D01*
Y486192D02*
Y486959D01*
Y493357D02*
Y493811D01*
Y496428D02*
Y497008D01*
Y503593D02*
Y504321D01*
Y506664D02*
Y507432D01*
X453100Y439617D02*
Y445434D01*
Y483121D02*
Y483710D01*
Y486192D02*
Y486869D01*
Y493357D02*
Y493672D01*
Y496428D02*
Y496480D01*
Y503593D02*
Y504182D01*
Y506664D02*
Y507341D01*
X453200Y439617D02*
Y445434D01*
Y483121D02*
Y483571D01*
Y486192D02*
Y486769D01*
Y503593D02*
Y504043D01*
Y506664D02*
Y507241D01*
X453300Y439617D02*
Y445434D01*
Y483121D02*
Y483432D01*
Y486192D02*
Y486226D01*
Y503593D02*
Y503904D01*
Y506664D02*
Y506698D01*
X453400Y439617D02*
Y445434D01*
X453900Y494160D02*
Y495288D01*
X454000Y493845D02*
Y495721D01*
Y497137D02*
Y497450D01*
X454100Y483908D02*
Y485068D01*
Y493655D02*
Y495821D01*
Y497137D02*
Y497450D01*
Y504381D02*
Y505540D01*
X454200Y483601D02*
Y485488D01*
Y486900D02*
Y487214D01*
Y493541D02*
Y495921D01*
Y497137D02*
Y497450D01*
Y504074D02*
Y505960D01*
Y507373D02*
Y507686D01*
X454300Y483414D02*
Y485588D01*
Y486900D02*
Y487214D01*
Y493466D02*
Y493913D01*
Y495536D02*
Y496021D01*
Y497137D02*
Y497450D01*
Y503886D02*
Y506060D01*
Y507373D02*
Y507686D01*
X454400Y483303D02*
Y485688D01*
Y486900D02*
Y487214D01*
Y493405D02*
Y493783D01*
Y495664D02*
Y496056D01*
Y497137D02*
Y497450D01*
Y503775D02*
Y506160D01*
Y507373D02*
Y507686D01*
X454500Y483228D02*
Y483672D01*
Y485305D02*
Y485788D01*
Y486900D02*
Y487214D01*
Y493380D02*
Y493708D01*
Y495731D02*
Y496078D01*
Y497137D02*
Y497450D01*
Y503700D02*
Y504144D01*
Y505777D02*
Y506260D01*
Y507373D02*
Y507686D01*
X454600Y440637D02*
Y444407D01*
Y483168D02*
Y483545D01*
Y485430D02*
Y485820D01*
Y486900D02*
Y487214D01*
Y493355D02*
Y493633D01*
Y495783D02*
Y496100D01*
Y497137D02*
Y497450D01*
Y503641D02*
Y504017D01*
Y505902D02*
Y506293D01*
Y507373D02*
Y507686D01*
X454700Y440387D02*
Y444607D01*
Y483143D02*
Y483470D01*
Y485497D02*
Y485842D01*
Y486900D02*
Y487214D01*
Y493335D02*
Y493611D01*
Y495808D02*
Y496122D01*
Y497137D02*
Y497450D01*
Y503616D02*
Y503942D01*
Y505969D02*
Y506315D01*
Y507373D02*
Y507686D01*
X454800Y440212D02*
Y444774D01*
Y483119D02*
Y483395D01*
Y485548D02*
Y485865D01*
Y486900D02*
Y487214D01*
Y493315D02*
Y493611D01*
Y495833D02*
Y496144D01*
Y497137D02*
Y497450D01*
Y503591D02*
Y503867D01*
Y506020D02*
Y506337D01*
Y507373D02*
Y507686D01*
X454900Y440112D02*
Y444907D01*
Y483099D02*
Y483375D01*
Y485573D02*
Y485887D01*
Y486900D02*
Y487214D01*
Y493303D02*
Y493611D01*
Y495820D02*
Y496122D01*
Y497137D02*
Y497450D01*
Y503571D02*
Y503848D01*
Y506045D02*
Y506359D01*
Y507373D02*
Y507686D01*
X455000Y440014D02*
Y445036D01*
Y483079D02*
Y483375D01*
Y485598D02*
Y485909D01*
Y486900D02*
Y487214D01*
Y493323D02*
Y493611D01*
Y495795D02*
Y496089D01*
Y497137D02*
Y497450D01*
Y503551D02*
Y503848D01*
Y506070D02*
Y506381D01*
Y507373D02*
Y507686D01*
X455100Y439939D02*
Y440604D01*
Y444368D02*
Y445111D01*
Y483067D02*
Y483375D01*
Y485583D02*
Y485885D01*
Y486900D02*
Y487214D01*
Y493343D02*
Y493611D01*
Y495767D02*
Y496056D01*
Y497137D02*
Y497450D01*
Y503539D02*
Y503848D01*
Y506055D02*
Y506358D01*
Y507373D02*
Y507686D01*
X455200Y439864D02*
Y440504D01*
Y444502D02*
Y445186D01*
Y483087D02*
Y483375D01*
Y485558D02*
Y485852D01*
Y486900D02*
Y487214D01*
Y493363D02*
Y493617D01*
Y495734D02*
Y496003D01*
Y497137D02*
Y497450D01*
Y503559D02*
Y503848D01*
Y506030D02*
Y506324D01*
Y507373D02*
Y507686D01*
X455300Y439789D02*
Y440404D01*
Y444635D02*
Y445261D01*
Y483107D02*
Y483375D01*
Y485530D02*
Y485818D01*
Y486900D02*
Y487214D01*
Y493383D02*
Y493714D01*
Y495664D02*
Y495928D01*
Y497137D02*
Y497450D01*
Y503579D02*
Y503848D01*
Y506003D02*
Y506291D01*
Y507373D02*
Y507686D01*
X455400Y439744D02*
Y440318D01*
Y444732D02*
Y445293D01*
Y483127D02*
Y483382D01*
Y485497D02*
Y485764D01*
Y486900D02*
Y487214D01*
Y493403D02*
Y493817D01*
Y495514D02*
Y495857D01*
Y497137D02*
Y497450D01*
Y503599D02*
Y503855D01*
Y505969D02*
Y506237D01*
Y507373D02*
Y507686D01*
X455500Y439704D02*
Y440243D01*
Y444807D02*
Y445318D01*
Y483147D02*
Y483480D01*
Y485423D02*
Y485689D01*
Y486900D02*
Y487214D01*
Y493464D02*
Y493967D01*
Y495365D02*
Y497450D01*
Y503619D02*
Y503953D01*
Y505895D02*
Y506162D01*
Y507373D02*
Y507686D01*
X455600Y439664D02*
Y440168D01*
Y444882D02*
Y445343D01*
Y483167D02*
Y483585D01*
Y485273D02*
Y485620D01*
Y486900D02*
Y487214D01*
Y493564D02*
Y494261D01*
Y495365D02*
Y497450D01*
Y503639D02*
Y504058D01*
Y505745D02*
Y506093D01*
Y507373D02*
Y507686D01*
X455700Y439624D02*
Y440101D01*
Y444950D02*
Y445362D01*
Y483231D02*
Y483735D01*
Y485129D02*
Y487214D01*
Y493709D02*
Y494261D01*
Y495365D02*
Y497450D01*
Y503704D02*
Y504208D01*
Y505601D02*
Y507686D01*
X455800Y439617D02*
Y440081D01*
Y444950D02*
Y445379D01*
Y483331D02*
Y484025D01*
Y485129D02*
Y487214D01*
Y493936D02*
Y494261D01*
Y503804D02*
Y504497D01*
Y505601D02*
Y507686D01*
X455900Y439617D02*
Y440061D01*
Y444950D02*
Y445396D01*
Y483478D02*
Y484025D01*
Y485129D02*
Y487214D01*
Y503950D02*
Y504497D01*
Y505601D02*
Y507686D01*
X456000Y439617D02*
Y440041D01*
Y444950D02*
Y445412D01*
Y483707D02*
Y484025D01*
Y504180D02*
Y504497D01*
X456100Y439617D02*
Y440021D01*
Y444950D02*
Y445429D01*
X456200Y439617D02*
Y440017D01*
Y444950D02*
Y445434D01*
X456300Y439617D02*
Y440017D01*
Y444950D02*
Y445434D01*
X456400Y439617D02*
Y440017D01*
Y444950D02*
Y445434D01*
X456500Y439617D02*
Y440017D01*
Y444950D02*
Y445434D01*
X456600Y439617D02*
Y440017D01*
Y444950D02*
Y445434D01*
X456700Y439617D02*
Y440017D01*
Y444950D02*
Y445434D01*
Y493857D02*
Y494991D01*
X456800Y439617D02*
Y440017D01*
Y444950D02*
Y445434D01*
Y493713D02*
Y495123D01*
Y495857D02*
Y497103D01*
X456900Y439617D02*
Y440017D01*
Y444950D02*
Y445434D01*
Y483615D02*
Y484765D01*
Y493629D02*
Y495248D01*
Y495690D02*
Y497203D01*
Y504087D02*
Y505238D01*
X457000Y439617D02*
Y440017D01*
Y444950D02*
Y445434D01*
Y483474D02*
Y484890D01*
Y485616D02*
Y486870D01*
Y493546D02*
Y493953D01*
Y494863D02*
Y495323D01*
Y495620D02*
Y497277D01*
Y503946D02*
Y505363D01*
Y506088D02*
Y507343D01*
X457100Y439617D02*
Y440017D01*
Y444950D02*
Y445434D01*
Y483391D02*
Y485015D01*
Y485449D02*
Y486970D01*
Y493465D02*
Y493853D01*
Y495064D02*
Y495383D01*
Y495580D02*
Y495846D01*
Y496931D02*
Y497338D01*
Y503863D02*
Y505488D01*
Y505921D02*
Y507443D01*
X457200Y439617D02*
Y440017D01*
Y444950D02*
Y445434D01*
Y483307D02*
Y483714D01*
Y484646D02*
Y485088D01*
Y485383D02*
Y487043D01*
Y493415D02*
Y493769D01*
Y495164D02*
Y495443D01*
Y495540D02*
Y495730D01*
Y497032D02*
Y497358D01*
Y503780D02*
Y504186D01*
Y505118D02*
Y505561D01*
Y505855D02*
Y507515D01*
X457300Y439617D02*
Y440017D01*
Y444950D02*
Y445434D01*
Y483227D02*
Y483614D01*
Y484831D02*
Y485148D01*
Y485343D02*
Y485603D01*
Y486700D02*
Y487102D01*
Y493365D02*
Y493702D01*
Y495247D02*
Y495696D01*
Y497082D02*
Y497378D01*
Y503699D02*
Y504086D01*
Y505304D02*
Y505621D01*
Y505815D02*
Y506076D01*
Y507172D02*
Y507574D01*
X457400Y439617D02*
Y440017D01*
Y444950D02*
Y445434D01*
Y483177D02*
Y483530D01*
Y484931D02*
Y485208D01*
Y485303D02*
Y485492D01*
Y486797D02*
Y487122D01*
Y493357D02*
Y493663D01*
Y495264D02*
Y495670D01*
Y497132D02*
Y497398D01*
Y503649D02*
Y504003D01*
Y505404D02*
Y505681D01*
Y505775D02*
Y505965D01*
Y507270D02*
Y507594D01*
X457500Y439617D02*
Y445434D01*
Y483127D02*
Y483464D01*
Y485011D02*
Y485459D01*
Y486847D02*
Y487142D01*
Y493357D02*
Y493647D01*
Y495280D02*
Y495650D01*
Y497137D02*
Y497418D01*
Y503599D02*
Y503936D01*
Y505484D02*
Y505932D01*
Y507320D02*
Y507614D01*
X457600Y439617D02*
Y445434D01*
Y483121D02*
Y483427D01*
Y485028D02*
Y485433D01*
Y486897D02*
Y487162D01*
Y493357D02*
Y493630D01*
Y495297D02*
Y495630D01*
Y497137D02*
Y497438D01*
Y503593D02*
Y503899D01*
Y505500D02*
Y505905D01*
Y507369D02*
Y507634D01*
X457700Y439617D02*
Y445434D01*
Y483121D02*
Y483410D01*
Y485045D02*
Y485413D01*
Y486900D02*
Y487182D01*
Y493357D02*
Y493613D01*
Y495306D02*
Y495619D01*
Y497137D02*
Y497450D01*
Y503593D02*
Y503883D01*
Y505517D02*
Y505885D01*
Y507373D02*
Y507654D01*
X457800Y439617D02*
Y445434D01*
Y483121D02*
Y483393D01*
Y485061D02*
Y485393D01*
Y486900D02*
Y487202D01*
Y493357D02*
Y493611D01*
Y495306D02*
Y495619D01*
Y497137D02*
Y497450D01*
Y503593D02*
Y503866D01*
Y505534D02*
Y505865D01*
Y507373D02*
Y507674D01*
X457900Y439617D02*
Y445434D01*
Y483121D02*
Y483377D01*
Y485070D02*
Y485383D01*
Y486900D02*
Y487214D01*
Y493357D02*
Y493611D01*
Y495306D02*
Y495619D01*
Y497137D02*
Y497450D01*
Y503593D02*
Y503849D01*
Y505542D02*
Y505856D01*
Y507373D02*
Y507686D01*
X458000Y483121D02*
Y483375D01*
Y485070D02*
Y485383D01*
Y486900D02*
Y487214D01*
Y493357D02*
Y493611D01*
Y495306D02*
Y495619D01*
Y497137D02*
Y497450D01*
Y503593D02*
Y503848D01*
Y505542D02*
Y505856D01*
Y507373D02*
Y507686D01*
X458100Y483121D02*
Y483375D01*
Y485070D02*
Y485383D01*
Y486900D02*
Y487214D01*
Y493357D02*
Y493611D01*
Y495306D02*
Y495619D01*
Y497137D02*
Y497450D01*
Y503593D02*
Y503848D01*
Y505542D02*
Y505856D01*
Y507373D02*
Y507686D01*
X458200Y483121D02*
Y483375D01*
Y485070D02*
Y485383D01*
Y486900D02*
Y487214D01*
Y493357D02*
Y493611D01*
Y495306D02*
Y495619D01*
Y497137D02*
Y497450D01*
Y503593D02*
Y503848D01*
Y505542D02*
Y505856D01*
Y507373D02*
Y507686D01*
X458300Y483121D02*
Y483375D01*
Y485070D02*
Y485383D01*
Y486900D02*
Y487214D01*
Y493357D02*
Y493611D01*
Y495306D02*
Y495619D01*
Y497137D02*
Y497450D01*
Y503593D02*
Y503848D01*
Y505542D02*
Y505856D01*
Y507373D02*
Y507686D01*
X458400Y483121D02*
Y483375D01*
Y485070D02*
Y485383D01*
Y486900D02*
Y487214D01*
Y493357D02*
Y493611D01*
Y495306D02*
Y495619D01*
Y497137D02*
Y497450D01*
Y503593D02*
Y503848D01*
Y505542D02*
Y505856D01*
Y507373D02*
Y507686D01*
X458500Y483121D02*
Y483375D01*
Y485070D02*
Y485383D01*
Y486900D02*
Y487214D01*
Y493357D02*
Y493611D01*
Y495306D02*
Y495619D01*
Y497137D02*
Y497450D01*
Y503593D02*
Y503848D01*
Y505542D02*
Y505856D01*
Y507373D02*
Y507686D01*
X458600Y483121D02*
Y483375D01*
Y485070D02*
Y485383D01*
Y486900D02*
Y487214D01*
Y493357D02*
Y493611D01*
Y495306D02*
Y495619D01*
Y497137D02*
Y497450D01*
Y503593D02*
Y503848D01*
Y505542D02*
Y505856D01*
Y507373D02*
Y507686D01*
X458700Y483121D02*
Y483375D01*
Y485070D02*
Y485383D01*
Y486900D02*
Y487214D01*
Y493357D02*
Y497450D01*
Y503593D02*
Y503848D01*
Y505542D02*
Y505856D01*
Y507373D02*
Y507686D01*
X458800Y483121D02*
Y483375D01*
Y485070D02*
Y485383D01*
Y486900D02*
Y487214D01*
Y493357D02*
Y497450D01*
Y503593D02*
Y503848D01*
Y505542D02*
Y505856D01*
Y507373D02*
Y507686D01*
X458900Y483121D02*
Y487214D01*
Y493357D02*
Y497450D01*
Y503593D02*
Y507686D01*
X459000Y483121D02*
Y487214D01*
Y503593D02*
Y507686D01*
X459100Y441265D02*
Y443785D01*
Y483121D02*
Y487214D01*
Y503593D02*
Y507686D01*
X459200Y440747D02*
Y444303D01*
X459300Y440447D02*
Y444603D01*
X459400Y440255D02*
Y444796D01*
X459500Y440121D02*
Y444929D01*
X459600Y440002D02*
Y441207D01*
Y443844D02*
Y445049D01*
X459700Y439927D02*
Y440807D01*
Y444244D02*
Y445124D01*
Y493357D02*
Y493611D01*
X459800Y439852D02*
Y440570D01*
Y444480D02*
Y445199D01*
Y493357D02*
Y493611D01*
X459900Y439777D02*
Y440470D01*
Y444580D02*
Y445273D01*
Y483121D02*
Y483375D01*
Y493357D02*
Y493611D01*
Y503593D02*
Y503848D01*
X460000Y439737D02*
Y440370D01*
Y444680D02*
Y445313D01*
Y483121D02*
Y483375D01*
Y493357D02*
Y493611D01*
Y503593D02*
Y503848D01*
X460100Y439697D02*
Y440270D01*
Y444780D02*
Y445353D01*
Y483121D02*
Y483375D01*
Y493357D02*
Y493611D01*
Y503593D02*
Y503848D01*
X460200Y439657D02*
Y440184D01*
Y444867D02*
Y445393D01*
Y483121D02*
Y483375D01*
Y493357D02*
Y493611D01*
Y503593D02*
Y503848D01*
X460300Y439617D02*
Y440159D01*
Y444892D02*
Y445433D01*
Y483121D02*
Y483375D01*
Y493357D02*
Y493611D01*
Y503593D02*
Y503848D01*
X460400Y439602D02*
Y440134D01*
Y444917D02*
Y445449D01*
Y483121D02*
Y483375D01*
Y493357D02*
Y493611D01*
Y503593D02*
Y503848D01*
X460500Y439588D02*
Y440109D01*
Y444942D02*
Y445463D01*
Y483121D02*
Y483375D01*
Y493357D02*
Y493611D01*
Y503593D02*
Y503848D01*
X460600Y439573D02*
Y440084D01*
Y444967D02*
Y445477D01*
Y483121D02*
Y483375D01*
Y493357D02*
Y493611D01*
Y503593D02*
Y503848D01*
X460700Y439559D02*
Y440059D01*
Y444992D02*
Y445492D01*
Y483121D02*
Y483375D01*
Y493357D02*
Y493611D01*
Y503593D02*
Y503848D01*
X460800Y439545D02*
Y440034D01*
Y445017D02*
Y445506D01*
Y483121D02*
Y483375D01*
Y493357D02*
Y493611D01*
Y503593D02*
Y503848D01*
X460900Y439539D02*
Y440022D01*
Y445028D02*
Y445512D01*
Y483121D02*
Y483375D01*
Y493357D02*
Y493611D01*
Y503593D02*
Y503848D01*
X461000Y439555D02*
Y440051D01*
Y445000D02*
Y445495D01*
Y483121D02*
Y483375D01*
Y493357D02*
Y493611D01*
Y503593D02*
Y503848D01*
X461100Y439572D02*
Y440079D01*
Y444971D02*
Y445479D01*
Y483121D02*
Y483375D01*
Y493357D02*
Y493611D01*
Y503593D02*
Y503848D01*
X461200Y439589D02*
Y440108D01*
Y444942D02*
Y445462D01*
Y483121D02*
Y483375D01*
Y493357D02*
Y493611D01*
Y503593D02*
Y503848D01*
X461300Y439605D02*
Y440137D01*
Y444914D02*
Y445445D01*
Y483121D02*
Y483375D01*
Y493357D02*
Y493611D01*
Y503593D02*
Y503848D01*
X461400Y439631D02*
Y440165D01*
Y444885D02*
Y445419D01*
Y483121D02*
Y483375D01*
Y493357D02*
Y493611D01*
Y503593D02*
Y503848D01*
X461500Y439671D02*
Y440206D01*
Y444845D02*
Y445379D01*
Y483121D02*
Y483375D01*
Y493357D02*
Y497450D01*
Y503593D02*
Y503848D01*
X461600Y439711D02*
Y440306D01*
Y444745D02*
Y445339D01*
Y483121D02*
Y483375D01*
Y493357D02*
Y497450D01*
Y503593D02*
Y503848D01*
X461700Y439751D02*
Y440406D01*
Y444645D02*
Y445299D01*
Y483121D02*
Y487214D01*
Y493357D02*
Y497450D01*
Y503593D02*
Y507686D01*
X461800Y439803D02*
Y440506D01*
Y444545D02*
Y445247D01*
Y483121D02*
Y487214D01*
Y503593D02*
Y507686D01*
X461900Y439878D02*
Y440606D01*
Y444445D02*
Y445172D01*
Y483121D02*
Y487214D01*
Y503593D02*
Y507686D01*
X462000Y439953D02*
Y440948D01*
Y444102D02*
Y445097D01*
X462100Y440035D02*
Y445016D01*
X462200Y440168D02*
Y444882D01*
X462300Y440302D02*
Y444749D01*
X462400Y440553D02*
Y444498D01*
X462500Y440877D02*
Y444174D01*
X462600Y493357D02*
Y493611D01*
Y496144D02*
Y496880D01*
X462700Y493357D02*
Y493611D01*
Y495913D02*
Y497053D01*
X462800Y483121D02*
Y483375D01*
Y485900D02*
Y486650D01*
Y493357D02*
Y493611D01*
Y495713D02*
Y497187D01*
Y503593D02*
Y503848D01*
Y506373D02*
Y507122D01*
X462900Y483121D02*
Y483375D01*
Y485670D02*
Y486821D01*
Y493357D02*
Y493611D01*
Y495513D02*
Y496361D01*
Y496684D02*
Y497298D01*
Y503593D02*
Y503848D01*
Y506143D02*
Y507294D01*
X463000Y483121D02*
Y483375D01*
Y485470D02*
Y486955D01*
Y493357D02*
Y493611D01*
Y495336D02*
Y496030D01*
Y496923D02*
Y497395D01*
Y503593D02*
Y503848D01*
Y505943D02*
Y507427D01*
X463100Y483121D02*
Y483375D01*
Y485270D02*
Y486114D01*
Y486464D02*
Y487065D01*
Y493357D02*
Y493611D01*
Y495191D02*
Y495805D01*
Y497035D02*
Y497415D01*
Y503593D02*
Y503848D01*
Y505743D02*
Y506586D01*
Y506936D02*
Y507537D01*
X463200Y483121D02*
Y483375D01*
Y485096D02*
Y485787D01*
Y486691D02*
Y487160D01*
Y493357D02*
Y493611D01*
Y495046D02*
Y495580D01*
Y497102D02*
Y497435D01*
Y503593D02*
Y503848D01*
Y505568D02*
Y506260D01*
Y507164D02*
Y507632D01*
X463300Y483121D02*
Y483375D01*
Y484951D02*
Y485562D01*
Y486801D02*
Y487180D01*
Y493357D02*
Y493611D01*
Y494901D02*
Y495421D01*
Y497144D02*
Y497455D01*
Y503593D02*
Y503848D01*
Y505423D02*
Y506035D01*
Y507273D02*
Y507652D01*
X463400Y483121D02*
Y483375D01*
Y484806D02*
Y485337D01*
Y486867D02*
Y487200D01*
Y493357D02*
Y493611D01*
Y494756D02*
Y495281D01*
Y497164D02*
Y497475D01*
Y503593D02*
Y503848D01*
Y505278D02*
Y505810D01*
Y507340D02*
Y507672D01*
X463500Y483121D02*
Y483375D01*
Y484661D02*
Y485180D01*
Y486908D02*
Y487220D01*
Y493357D02*
Y493611D01*
Y494611D02*
Y495142D01*
Y497184D02*
Y497495D01*
Y503593D02*
Y503848D01*
Y505133D02*
Y505652D01*
Y507381D02*
Y507692D01*
X463600Y441182D02*
Y441184D01*
Y443867D02*
Y443869D01*
Y483121D02*
Y483375D01*
Y484516D02*
Y485041D01*
Y486928D02*
Y487240D01*
Y493357D02*
Y493611D01*
Y494466D02*
Y495003D01*
Y497188D02*
Y497501D01*
Y503593D02*
Y503848D01*
Y504988D02*
Y505513D01*
Y507401D02*
Y507712D01*
X463700Y440678D02*
Y441184D01*
Y443867D02*
Y444372D01*
Y483121D02*
Y483375D01*
Y484371D02*
Y484902D01*
Y486948D02*
Y487260D01*
Y493357D02*
Y493611D01*
Y494321D02*
Y494864D01*
Y497163D02*
Y497481D01*
Y503593D02*
Y503848D01*
Y504843D02*
Y505374D01*
Y507421D02*
Y507732D01*
X463800Y440428D02*
Y441184D01*
Y443867D02*
Y444622D01*
Y483121D02*
Y483375D01*
Y484226D02*
Y484763D01*
Y486951D02*
Y487264D01*
Y493357D02*
Y493611D01*
Y494176D02*
Y494725D01*
Y497138D02*
Y497461D01*
Y503593D02*
Y503848D01*
Y504698D02*
Y505235D01*
Y507423D02*
Y507736D01*
X463900Y440255D02*
Y441184D01*
Y443867D02*
Y444796D01*
Y483121D02*
Y483375D01*
Y484081D02*
Y484623D01*
Y486926D02*
Y487244D01*
Y493357D02*
Y493611D01*
Y494031D02*
Y494586D01*
Y497092D02*
Y497423D01*
Y503593D02*
Y503848D01*
Y504553D02*
Y505096D01*
Y507398D02*
Y507716D01*
X464000Y440121D02*
Y441184D01*
Y443867D02*
Y444929D01*
Y483121D02*
Y483375D01*
Y483936D02*
Y484484D01*
Y486901D02*
Y487224D01*
Y493357D02*
Y493611D01*
Y493886D02*
Y494447D01*
Y497042D02*
Y497373D01*
Y503593D02*
Y503848D01*
Y504408D02*
Y504957D01*
Y507373D02*
Y507696D01*
X464100Y440002D02*
Y441124D01*
Y443927D02*
Y445049D01*
Y483121D02*
Y483375D01*
Y483791D02*
Y484345D01*
Y486854D02*
Y487185D01*
Y493357D02*
Y493612D01*
Y493741D02*
Y494308D01*
Y496942D02*
Y497315D01*
Y503593D02*
Y503848D01*
Y504263D02*
Y504818D01*
Y507327D02*
Y507658D01*
X464200Y439927D02*
Y440724D01*
Y444327D02*
Y445124D01*
Y483121D02*
Y483375D01*
Y483646D02*
Y484206D01*
Y486804D02*
Y487135D01*
Y493357D02*
Y494168D01*
Y496692D02*
Y497240D01*
Y503593D02*
Y503848D01*
Y504118D02*
Y504679D01*
Y507277D02*
Y507608D01*
X464300Y439852D02*
Y440487D01*
Y444555D02*
Y445199D01*
Y483121D02*
Y483376D01*
Y483501D02*
Y484067D01*
Y486698D02*
Y487077D01*
Y493357D02*
Y494029D01*
Y496428D02*
Y497165D01*
Y503593D02*
Y503848D01*
Y503973D02*
Y504539D01*
Y507170D02*
Y507549D01*
X464400Y439777D02*
Y440387D01*
Y444635D02*
Y445273D01*
Y483121D02*
Y483928D01*
Y486444D02*
Y487002D01*
Y493357D02*
Y493890D01*
Y496428D02*
Y497065D01*
Y503593D02*
Y504400D01*
Y506916D02*
Y507474D01*
X464500Y439737D02*
Y440287D01*
Y444715D02*
Y445313D01*
Y483121D02*
Y483789D01*
Y486192D02*
Y486925D01*
Y493357D02*
Y493751D01*
Y496428D02*
Y496791D01*
Y503593D02*
Y504261D01*
Y506664D02*
Y507398D01*
X464600Y439697D02*
Y440187D01*
Y444795D02*
Y445353D01*
Y483121D02*
Y483650D01*
Y486192D02*
Y486825D01*
Y503593D02*
Y504122D01*
Y506664D02*
Y507298D01*
X464700Y439657D02*
Y440101D01*
Y444867D02*
Y445393D01*
Y483121D02*
Y483510D01*
Y486192D02*
Y486538D01*
Y503593D02*
Y503983D01*
Y506664D02*
Y507010D01*
X464800Y439617D02*
Y440084D01*
Y444901D02*
Y445433D01*
X464900Y439596D02*
Y440067D01*
Y444934D02*
Y445454D01*
X465000Y439576D02*
Y440051D01*
Y444967D02*
Y445474D01*
X465100Y439556D02*
Y440034D01*
Y445001D02*
Y445494D01*
X465200Y439536D02*
Y440017D01*
Y445033D02*
Y445514D01*
X465300Y439550D02*
Y440017D01*
Y445009D02*
Y445501D01*
Y494149D02*
Y494828D01*
X465400Y439566D02*
Y440017D01*
Y444981D02*
Y445484D01*
Y493726D02*
Y495098D01*
Y495927D02*
Y496809D01*
X465500Y439583D02*
Y440017D01*
Y444952D02*
Y445467D01*
Y483897D02*
Y484607D01*
Y493626D02*
Y495266D01*
Y495764D02*
Y497048D01*
Y504369D02*
Y505080D01*
X465600Y439600D02*
Y440046D01*
Y444923D02*
Y445451D01*
Y483486D02*
Y484868D01*
Y485681D02*
Y486583D01*
Y493540D02*
Y494206D01*
Y494752D02*
Y495362D01*
Y495681D02*
Y497215D01*
Y503959D02*
Y505340D01*
Y506153D02*
Y507056D01*
X465700Y439618D02*
Y440113D01*
Y444895D02*
Y445433D01*
Y483386D02*
Y485035D01*
Y485525D02*
Y486818D01*
Y493465D02*
Y493909D01*
Y495035D02*
Y495412D01*
Y495597D02*
Y495951D01*
Y496805D02*
Y497303D01*
Y503859D02*
Y505507D01*
Y505998D02*
Y507290D01*
X465800Y439658D02*
Y440180D01*
Y444866D02*
Y445393D01*
Y483301D02*
Y483954D01*
Y484528D02*
Y485128D01*
Y485442D02*
Y486984D01*
Y493405D02*
Y493781D01*
Y495193D02*
Y495796D01*
Y496959D02*
Y497383D01*
Y503774D02*
Y504426D01*
Y505001D02*
Y505600D01*
Y505914D02*
Y507457D01*
X465900Y439698D02*
Y440272D01*
Y444778D02*
Y445353D01*
Y483226D02*
Y483668D01*
Y484806D02*
Y485178D01*
Y485358D02*
Y485706D01*
Y486577D02*
Y487069D01*
Y493380D02*
Y493706D01*
Y495260D02*
Y495723D01*
Y497051D02*
Y497454D01*
Y503699D02*
Y504141D01*
Y505278D02*
Y505650D01*
Y505831D02*
Y506179D01*
Y507050D02*
Y507542D01*
X466000Y439738D02*
Y440372D01*
Y444678D02*
Y445313D01*
Y483168D02*
Y483543D01*
Y484959D02*
Y485556D01*
Y486728D02*
Y487149D01*
Y493355D02*
Y493631D01*
Y495310D02*
Y495690D01*
Y497118D02*
Y497469D01*
Y503640D02*
Y504015D01*
Y505431D02*
Y506028D01*
Y507200D02*
Y507622D01*
X466100Y439778D02*
Y440472D01*
Y444578D02*
Y445272D01*
Y483143D02*
Y483468D01*
Y485026D02*
Y485486D01*
Y486817D02*
Y487219D01*
Y493335D02*
Y493611D01*
Y495330D02*
Y495663D01*
Y497149D02*
Y497483D01*
Y503615D02*
Y503940D01*
Y505498D02*
Y505959D01*
Y507289D02*
Y507691D01*
X466200Y439853D02*
Y440572D01*
Y444478D02*
Y445197D01*
Y483118D02*
Y483393D01*
Y485074D02*
Y485453D01*
Y486884D02*
Y487233D01*
Y493315D02*
Y493611D01*
Y495350D02*
Y495638D01*
Y497169D02*
Y497497D01*
Y503591D02*
Y503865D01*
Y505547D02*
Y505925D01*
Y507356D02*
Y507705D01*
X466300Y439928D02*
Y440837D01*
Y444214D02*
Y445122D01*
Y483098D02*
Y483375D01*
Y485094D02*
Y485426D01*
Y486913D02*
Y487247D01*
Y493302D02*
Y493614D01*
Y495365D02*
Y495619D01*
Y497189D02*
Y497505D01*
Y503571D02*
Y503848D01*
Y505567D02*
Y505898D01*
Y507386D02*
Y507720D01*
X466400Y440003D02*
Y441287D01*
Y443764D02*
Y445047D01*
Y483078D02*
Y483375D01*
Y485114D02*
Y485401D01*
Y486933D02*
Y487261D01*
Y493319D02*
Y493628D01*
Y495365D02*
Y495619D01*
Y497184D02*
Y497488D01*
Y503551D02*
Y503848D01*
Y505587D02*
Y505873D01*
Y507406D02*
Y507734D01*
X466500Y440152D02*
Y444899D01*
Y483066D02*
Y483378D01*
Y485129D02*
Y485383D01*
Y486953D02*
Y487268D01*
Y493335D02*
Y493642D01*
Y495365D02*
Y495619D01*
Y497164D02*
Y497472D01*
Y503539D02*
Y503851D01*
Y505601D02*
Y505856D01*
Y507426D02*
Y507741D01*
X466600Y440319D02*
Y444732D01*
Y483083D02*
Y483392D01*
Y485129D02*
Y485383D01*
Y486948D02*
Y487252D01*
Y493352D02*
Y493657D01*
Y497144D02*
Y497455D01*
Y503556D02*
Y503865D01*
Y505601D02*
Y505856D01*
Y507420D02*
Y507724D01*
X466700Y440517D02*
Y444534D01*
Y483100D02*
Y483407D01*
Y485129D02*
Y485383D01*
Y486928D02*
Y487235D01*
Y493371D02*
Y493671D01*
Y497091D02*
Y497432D01*
Y503572D02*
Y503879D01*
Y505601D02*
Y505856D01*
Y507400D02*
Y507707D01*
X466800Y440767D02*
Y444284D01*
Y483116D02*
Y483421D01*
Y486908D02*
Y487218D01*
Y493391D02*
Y493757D01*
Y496991D02*
Y497407D01*
Y503589D02*
Y503893D01*
Y507380D02*
Y507691D01*
X466900Y441352D02*
Y443698D01*
Y483136D02*
Y483435D01*
Y486852D02*
Y487195D01*
Y493411D02*
Y493857D01*
Y496891D02*
Y497340D01*
Y503608D02*
Y503908D01*
Y507324D02*
Y507667D01*
X467000Y483156D02*
Y483524D01*
Y486752D02*
Y487170D01*
Y493508D02*
Y494099D01*
Y496487D02*
Y497240D01*
Y503628D02*
Y503996D01*
Y507224D02*
Y507642D01*
X467100Y483176D02*
Y483624D01*
Y486652D02*
Y487101D01*
Y493608D02*
Y494320D01*
Y496487D02*
Y497140D01*
Y503648D02*
Y504096D01*
Y507124D02*
Y507573D01*
X467200Y483275D02*
Y483885D01*
Y486251D02*
Y487001D01*
Y493708D02*
Y494320D01*
Y496487D02*
Y496954D01*
Y503747D02*
Y504357D01*
Y506723D02*
Y507473D01*
X467300Y483375D02*
Y484084D01*
Y486251D02*
Y486901D01*
Y493896D02*
Y494320D01*
Y503847D02*
Y504556D01*
Y506723D02*
Y507373D01*
X467400Y483475D02*
Y484084D01*
Y486251D02*
Y486702D01*
Y503947D02*
Y504556D01*
Y506723D02*
Y507174D01*
X467500Y483668D02*
Y484084D01*
Y504141D02*
Y504556D01*
X467900Y497137D02*
Y497450D01*
X468000Y495188D02*
Y495501D01*
Y497137D02*
Y497450D01*
X468100Y486900D02*
Y487214D01*
Y495188D02*
Y495501D01*
Y497137D02*
Y497450D01*
Y507373D02*
Y507686D01*
X468200Y484952D02*
Y485265D01*
Y486900D02*
Y487214D01*
Y495188D02*
Y495501D01*
Y497137D02*
Y497450D01*
Y505424D02*
Y505737D01*
Y507373D02*
Y507686D01*
X468300Y484952D02*
Y485265D01*
Y486900D02*
Y487214D01*
Y495188D02*
Y495501D01*
Y497137D02*
Y497450D01*
Y505424D02*
Y505737D01*
Y507373D02*
Y507686D01*
X468400Y484952D02*
Y485265D01*
Y486900D02*
Y487214D01*
Y495188D02*
Y495501D01*
Y497137D02*
Y497450D01*
Y505424D02*
Y505737D01*
Y507373D02*
Y507686D01*
X468500Y484952D02*
Y485265D01*
Y486900D02*
Y487214D01*
Y495188D02*
Y495501D01*
Y497137D02*
Y497450D01*
Y505424D02*
Y505737D01*
Y507373D02*
Y507686D01*
X468600Y484952D02*
Y485265D01*
Y486900D02*
Y487214D01*
Y495188D02*
Y495501D01*
Y497137D02*
Y497450D01*
Y505424D02*
Y505737D01*
Y507373D02*
Y507686D01*
X468700Y484952D02*
Y485265D01*
Y486900D02*
Y487214D01*
Y495188D02*
Y495501D01*
Y497137D02*
Y497450D01*
Y505424D02*
Y505737D01*
Y507373D02*
Y507686D01*
X468800Y484952D02*
Y485265D01*
Y486900D02*
Y487214D01*
Y495188D02*
Y495501D01*
Y497137D02*
Y497450D01*
Y505424D02*
Y505737D01*
Y507373D02*
Y507686D01*
X468900Y484952D02*
Y485265D01*
Y486900D02*
Y487214D01*
Y495188D02*
Y495501D01*
Y497137D02*
Y497450D01*
Y505424D02*
Y505737D01*
Y507373D02*
Y507686D01*
X469000Y484952D02*
Y485265D01*
Y486900D02*
Y487214D01*
Y495188D02*
Y495501D01*
Y497137D02*
Y497450D01*
Y505424D02*
Y505737D01*
Y507373D02*
Y507686D01*
X469100Y484952D02*
Y485265D01*
Y486900D02*
Y487214D01*
Y495188D02*
Y495501D01*
Y497137D02*
Y497450D01*
Y505424D02*
Y505737D01*
Y507373D02*
Y507686D01*
X469200Y484952D02*
Y485265D01*
Y486900D02*
Y487214D01*
Y495188D02*
Y495501D01*
Y497137D02*
Y497450D01*
Y505424D02*
Y505737D01*
Y507373D02*
Y507686D01*
X469300Y484952D02*
Y485265D01*
Y486900D02*
Y487214D01*
Y495188D02*
Y495501D01*
Y497137D02*
Y497450D01*
Y505424D02*
Y505737D01*
Y507373D02*
Y507686D01*
X469400Y484952D02*
Y485265D01*
Y486900D02*
Y487214D01*
Y495188D02*
Y495501D01*
Y497137D02*
Y497450D01*
Y505424D02*
Y505737D01*
Y507373D02*
Y507686D01*
X469500Y484952D02*
Y485265D01*
Y486900D02*
Y487214D01*
Y495188D02*
Y495501D01*
Y497137D02*
Y497450D01*
Y505424D02*
Y505737D01*
Y507373D02*
Y507686D01*
X469600Y484952D02*
Y485265D01*
Y486900D02*
Y487214D01*
Y493357D02*
Y497450D01*
Y505424D02*
Y505737D01*
Y507373D02*
Y507686D01*
X469700Y484952D02*
Y485265D01*
Y486900D02*
Y487214D01*
Y493357D02*
Y497450D01*
Y505424D02*
Y505737D01*
Y507373D02*
Y507686D01*
X469800Y439617D02*
Y439653D01*
Y483121D02*
Y487214D01*
Y493357D02*
Y497450D01*
Y503593D02*
Y507686D01*
X469900Y439617D02*
Y439880D01*
Y483121D02*
Y487214D01*
Y503593D02*
Y507686D01*
X470000Y439617D02*
Y440106D01*
Y443198D02*
Y444359D01*
Y483121D02*
Y487214D01*
Y503593D02*
Y507686D01*
X470100Y439617D02*
Y440333D01*
Y442977D02*
Y444574D01*
X470200Y439617D02*
Y440560D01*
Y442799D02*
Y444752D01*
X470300Y439617D02*
Y440786D01*
Y442666D02*
Y444885D01*
X470400Y439764D02*
Y441013D01*
Y442532D02*
Y445018D01*
X470500Y440010D02*
Y441240D01*
Y442428D02*
Y443319D01*
Y444232D02*
Y445122D01*
X470600Y440256D02*
Y441466D01*
Y442328D02*
Y443020D01*
Y444530D02*
Y445222D01*
X470700Y440502D02*
Y441693D01*
Y442257D02*
Y442920D01*
Y444630D02*
Y445281D01*
Y494027D02*
Y494772D01*
X470800Y440748D02*
Y441920D01*
Y442217D02*
Y442820D01*
Y444730D02*
Y445301D01*
Y493827D02*
Y494972D01*
Y496722D02*
Y496921D01*
X470900Y440995D02*
Y442146D01*
Y442177D02*
Y442720D01*
Y444830D02*
Y445321D01*
Y483784D02*
Y484543D01*
Y493686D02*
Y495081D01*
Y496679D02*
Y497121D01*
Y504257D02*
Y505015D01*
X471000Y441241D02*
Y442676D01*
Y444875D02*
Y445341D01*
Y483584D02*
Y484743D01*
Y486485D02*
Y486691D01*
Y493564D02*
Y494090D01*
Y494634D02*
Y495181D01*
Y496637D02*
Y497212D01*
Y504057D02*
Y505215D01*
Y506957D02*
Y507164D01*
X471100Y441487D02*
Y442659D01*
Y444891D02*
Y445359D01*
Y483446D02*
Y484848D01*
Y486442D02*
Y486891D01*
Y493489D02*
Y493908D01*
Y494889D02*
Y495281D01*
Y496782D02*
Y497270D01*
Y503919D02*
Y505321D01*
Y506914D02*
Y507364D01*
X471200Y441733D02*
Y442642D01*
Y444908D02*
Y445376D01*
Y483326D02*
Y483834D01*
Y484408D02*
Y484948D01*
Y486399D02*
Y486978D01*
Y493414D02*
Y493808D01*
Y494969D02*
Y495347D01*
Y496940D02*
Y497327D01*
Y503798D02*
Y504307D01*
Y504880D02*
Y505421D01*
Y506871D02*
Y507450D01*
X471300Y441979D02*
Y442626D01*
Y444925D02*
Y445393D01*
Y483251D02*
Y483669D01*
Y484655D02*
Y485048D01*
Y486554D02*
Y487035D01*
Y493397D02*
Y493744D01*
Y495049D02*
Y495381D01*
Y497040D02*
Y497384D01*
Y503723D02*
Y504141D01*
Y505128D02*
Y505521D01*
Y507026D02*
Y507508D01*
X471400Y442117D02*
Y442609D01*
Y444941D02*
Y445409D01*
Y483177D02*
Y483569D01*
Y484735D02*
Y485112D01*
Y486707D02*
Y487092D01*
Y493380D02*
Y493684D01*
Y495126D02*
Y495414D01*
Y497115D02*
Y497412D01*
Y503649D02*
Y504041D01*
Y505208D02*
Y505585D01*
Y507179D02*
Y507565D01*
X471500Y442117D02*
Y442600D01*
Y444950D02*
Y445426D01*
Y483160D02*
Y483506D01*
Y484815D02*
Y485145D01*
Y486807D02*
Y487149D01*
Y493364D02*
Y493624D01*
Y495163D02*
Y495447D01*
Y497182D02*
Y497434D01*
Y503633D02*
Y503979D01*
Y505288D02*
Y505618D01*
Y507279D02*
Y507622D01*
X471600Y442117D02*
Y442600D01*
Y444950D02*
Y445434D01*
Y483144D02*
Y483446D01*
Y484891D02*
Y485179D01*
Y486881D02*
Y487177D01*
Y493347D02*
Y493611D01*
Y495201D02*
Y495481D01*
Y497196D02*
Y497457D01*
Y503616D02*
Y503919D01*
Y505363D02*
Y505651D01*
Y507354D02*
Y507649D01*
X471700Y442117D02*
Y442600D01*
Y444950D02*
Y445434D01*
Y483127D02*
Y483386D01*
Y484928D02*
Y485212D01*
Y486948D02*
Y487199D01*
Y493330D02*
Y493611D01*
Y495238D02*
Y495527D01*
Y497196D02*
Y497479D01*
Y503599D02*
Y503859D01*
Y505401D02*
Y505685D01*
Y507420D02*
Y507671D01*
X471800Y442117D02*
Y442600D01*
Y444950D02*
Y445434D01*
Y483110D02*
Y483375D01*
Y484966D02*
Y485245D01*
Y486959D02*
Y487221D01*
Y493314D02*
Y493611D01*
Y495276D02*
Y495577D01*
Y497196D02*
Y497501D01*
Y503583D02*
Y503848D01*
Y505438D02*
Y505718D01*
Y507432D02*
Y507693D01*
X471900Y442117D02*
Y442600D01*
Y444950D02*
Y445434D01*
Y483094D02*
Y483375D01*
Y485003D02*
Y485294D01*
Y486959D02*
Y487243D01*
Y493301D02*
Y493611D01*
Y495306D02*
Y495597D01*
Y497185D02*
Y497497D01*
Y503566D02*
Y503848D01*
Y505476D02*
Y505766D01*
Y507432D02*
Y507716D01*
X472000Y442117D02*
Y442600D01*
Y444950D02*
Y445434D01*
Y483077D02*
Y483375D01*
Y485041D02*
Y485341D01*
Y486959D02*
Y487265D01*
Y493321D02*
Y493611D01*
Y495326D02*
Y495617D01*
Y497168D02*
Y497480D01*
Y503549D02*
Y503848D01*
Y505513D02*
Y505814D01*
Y507432D02*
Y507738D01*
X472100Y442117D02*
Y442600D01*
Y444950D02*
Y445434D01*
Y483065D02*
Y483375D01*
Y485070D02*
Y485361D01*
Y486948D02*
Y487260D01*
Y493341D02*
Y493611D01*
Y495359D02*
Y495659D01*
Y497151D02*
Y497463D01*
Y503538D02*
Y503848D01*
Y505542D02*
Y505834D01*
Y507421D02*
Y507733D01*
X472200Y442117D02*
Y442600D01*
Y444950D02*
Y445434D01*
Y483085D02*
Y483375D01*
Y485090D02*
Y485381D01*
Y486931D02*
Y487243D01*
Y493361D02*
Y493614D01*
Y495392D02*
Y495709D01*
Y497134D02*
Y497440D01*
Y503558D02*
Y503848D01*
Y505563D02*
Y505854D01*
Y507404D02*
Y507716D01*
X472300Y442117D02*
Y442600D01*
Y444950D02*
Y445434D01*
Y483105D02*
Y483375D01*
Y485124D02*
Y485425D01*
Y486915D02*
Y487227D01*
Y493381D02*
Y493654D01*
Y495428D02*
Y495763D01*
Y497085D02*
Y497400D01*
Y503578D02*
Y503848D01*
Y505596D02*
Y505897D01*
Y507387D02*
Y507699D01*
X472400Y442117D02*
Y442600D01*
Y444950D02*
Y445434D01*
Y483125D02*
Y483379D01*
Y485157D02*
Y485475D01*
Y486897D02*
Y487203D01*
Y493401D02*
Y493694D01*
Y495478D02*
Y495823D01*
Y497035D02*
Y497360D01*
Y503598D02*
Y503851D01*
Y505630D02*
Y505947D01*
Y507369D02*
Y507675D01*
X472500Y442117D02*
Y442600D01*
Y444950D02*
Y445434D01*
Y483145D02*
Y483419D01*
Y485194D02*
Y485528D01*
Y486847D02*
Y487163D01*
Y493435D02*
Y493734D01*
Y495528D02*
Y495883D01*
Y496947D02*
Y497316D01*
Y503618D02*
Y503891D01*
Y505666D02*
Y506001D01*
Y507320D02*
Y507635D01*
X472600Y442117D02*
Y442600D01*
Y444950D02*
Y445434D01*
Y483165D02*
Y483459D01*
Y485244D02*
Y485588D01*
Y486797D02*
Y487123D01*
Y493492D02*
Y493829D01*
Y495608D02*
Y495988D01*
Y496814D02*
Y497266D01*
Y503638D02*
Y503931D01*
Y505716D02*
Y506061D01*
Y507270D02*
Y507595D01*
X472700Y442117D02*
Y442600D01*
Y444950D02*
Y445434D01*
Y483201D02*
Y483499D01*
Y485294D02*
Y485648D01*
Y486706D02*
Y487078D01*
Y493549D02*
Y493930D01*
Y495691D02*
Y496342D01*
Y496479D02*
Y497202D01*
Y503673D02*
Y503971D01*
Y505766D02*
Y506121D01*
Y507179D02*
Y507551D01*
X472800Y442117D02*
Y442600D01*
Y444950D02*
Y445434D01*
Y483258D02*
Y483595D01*
Y485374D02*
Y485762D01*
Y486573D02*
Y487028D01*
Y493606D02*
Y494178D01*
Y495774D02*
Y497069D01*
Y503730D02*
Y504068D01*
Y505847D02*
Y506234D01*
Y507046D02*
Y507501D01*
X472900Y439617D02*
Y445434D01*
Y483315D02*
Y483700D01*
Y485457D02*
Y486118D01*
Y486227D02*
Y486962D01*
Y493694D02*
Y494164D01*
Y495912D02*
Y496903D01*
Y503787D02*
Y504173D01*
Y505930D02*
Y506591D01*
Y506700D02*
Y507435D01*
X473000Y439617D02*
Y445434D01*
Y483372D02*
Y483950D01*
Y485541D02*
Y486829D01*
Y493827D02*
Y494136D01*
Y496220D02*
Y496558D01*
Y503844D02*
Y504422D01*
Y506013D02*
Y507301D01*
X473100Y439617D02*
Y445434D01*
Y483462D02*
Y483927D01*
Y485682D02*
Y486661D01*
Y494046D02*
Y494107D01*
Y503935D02*
Y504400D01*
Y506154D02*
Y507133D01*
X473200Y439617D02*
Y445434D01*
Y483595D02*
Y483899D01*
Y485999D02*
Y486303D01*
Y504068D02*
Y504371D01*
Y506471D02*
Y506775D01*
X473300Y439617D02*
Y445434D01*
Y483818D02*
Y483870D01*
Y504290D02*
Y504343D01*
X474200Y439617D02*
Y439929D01*
X474300Y439617D02*
Y440267D01*
X474400Y439617D02*
Y440605D01*
X474500Y439617D02*
Y440944D01*
X474600Y439617D02*
Y441282D01*
X474700Y439723D02*
Y441620D01*
X474800Y440073D02*
Y441958D01*
X474900Y440423D02*
Y440934D01*
Y441617D02*
Y442296D01*
X475000Y440773D02*
Y440934D01*
Y441617D02*
Y442634D01*
X475100Y441617D02*
Y442972D01*
X475200Y441617D02*
Y443310D01*
X475300Y441823D02*
Y443648D01*
X475400Y442173D02*
Y443986D01*
X475500Y442523D02*
Y444325D01*
X475600Y442873D02*
Y444663D01*
X475700Y443223D02*
Y445001D01*
X475800Y443573D02*
Y445339D01*
X475900Y443923D02*
Y445434D01*
X476000Y444273D02*
Y445434D01*
X476100Y444623D02*
Y445434D01*
X476200Y444866D02*
Y445434D01*
X476300Y444665D02*
Y445434D01*
X476400Y444295D02*
Y445434D01*
X476500Y443924D02*
Y445434D01*
X476600Y443554D02*
Y445107D01*
X476700Y443183D02*
Y444769D01*
X476800Y442813D02*
Y444431D01*
X476900Y442442D02*
Y444092D01*
X477000Y442071D02*
Y443754D01*
X477100Y441701D02*
Y443416D01*
X477200Y441617D02*
Y443078D01*
X477300Y441617D02*
Y442740D01*
X477400Y440589D02*
Y440934D01*
Y441617D02*
Y442402D01*
X477500Y440218D02*
Y440958D01*
Y441593D02*
Y442064D01*
X477600Y439848D02*
Y441726D01*
X477700Y439617D02*
Y441388D01*
X477800Y439617D02*
Y441050D01*
X477900Y439617D02*
Y440712D01*
X478000Y439617D02*
Y440373D01*
X478100Y439617D02*
Y440035D01*
X478200Y439617D02*
Y439697D01*
X479000Y440343D02*
Y441929D01*
X479100Y440166D02*
Y442082D01*
Y443232D02*
Y444889D01*
X479200Y440083D02*
Y442207D01*
Y443065D02*
Y444989D01*
X479300Y439999D02*
Y442332D01*
Y442899D02*
Y445089D01*
X479400Y439916D02*
Y442408D01*
Y442827D02*
Y445163D01*
X479500Y439833D02*
Y440454D01*
Y441929D02*
Y442468D01*
Y442787D02*
Y443370D01*
Y444513D02*
Y445230D01*
X479600Y439760D02*
Y440354D01*
Y442030D02*
Y442528D01*
Y442747D02*
Y443170D01*
Y444663D02*
Y445278D01*
X479700Y439710D02*
Y440262D01*
Y442130D02*
Y442588D01*
Y442707D02*
Y443017D01*
Y444786D02*
Y445298D01*
X479800Y439660D02*
Y440195D01*
Y442230D02*
Y442983D01*
Y444836D02*
Y445318D01*
X479900Y439617D02*
Y440128D01*
Y442289D02*
Y442950D01*
Y444886D02*
Y445338D01*
X480000Y439617D02*
Y440092D01*
Y442305D02*
Y442924D01*
Y444936D02*
Y445358D01*
X480100Y439617D02*
Y440076D01*
Y442322D02*
Y442904D01*
Y444950D02*
Y445378D01*
X480200Y439617D02*
Y440059D01*
Y442339D02*
Y442884D01*
Y444950D02*
Y445398D01*
X480300Y439617D02*
Y440042D01*
Y442355D02*
Y442864D01*
Y444950D02*
Y445418D01*
X480400Y439617D02*
Y440026D01*
Y442367D02*
Y442850D01*
Y444950D02*
Y445434D01*
X480500Y439617D02*
Y440017D01*
Y442367D02*
Y442850D01*
Y444950D02*
Y445434D01*
X480600Y439617D02*
Y440017D01*
Y442367D02*
Y442850D01*
Y444950D02*
Y445434D01*
X480700Y439617D02*
Y440017D01*
Y442367D02*
Y442850D01*
Y444950D02*
Y445434D01*
X480800Y439617D02*
Y440017D01*
Y442367D02*
Y442850D01*
Y444950D02*
Y445434D01*
X480900Y439617D02*
Y440017D01*
Y442367D02*
Y442850D01*
Y444950D02*
Y445434D01*
X481000Y439617D02*
Y440017D01*
Y442367D02*
Y442850D01*
Y444950D02*
Y445434D01*
X481100Y439617D02*
Y440017D01*
Y442367D02*
Y442850D01*
Y444950D02*
Y445434D01*
X481200Y439617D02*
Y440017D01*
Y442367D02*
Y442850D01*
Y444950D02*
Y445434D01*
X481300Y439617D02*
Y440017D01*
Y442367D02*
Y442850D01*
Y444950D02*
Y445434D01*
X481400Y439617D02*
Y440017D01*
Y442367D02*
Y442850D01*
Y444950D02*
Y445434D01*
X481500Y439617D02*
Y440017D01*
Y442367D02*
Y442850D01*
Y444950D02*
Y445434D01*
X481600Y439617D02*
Y440017D01*
Y442367D02*
Y442850D01*
Y444950D02*
Y445434D01*
X481700Y439617D02*
Y440017D01*
Y442367D02*
Y442850D01*
Y444950D02*
Y445434D01*
X481800Y439617D02*
Y445434D01*
X481900Y439617D02*
Y445434D01*
X482000Y439617D02*
Y445434D01*
X482100Y439617D02*
Y445434D01*
X482200Y439617D02*
Y445434D01*
*
G04 PC Custom Flashes*
G04 Layer Name SF32LB52-DevKit-LCD_PCB - flashes*
%LPD*%
*
*
G04 PC Circuitry*
G04 Layer Name SF32LB52-DevKit-LCD_PCB - circuitry*
%LPD*%
*
G54D10*
G54D94*
X476063Y491850D02*
Y490866D01*
Y484764D02*
Y483780D01*
Y501299D02*
Y500315D01*
Y508780D02*
Y507795D01*
G54D158*
X485236Y529331D02*
Y528740D01*
X478150*
Y529134*
Y540354D02*
Y540945D01*
X485236*
Y540354*
X446260Y554921D02*
Y552362D01*
X452165*
X472244D02*
X478150D01*
Y554921*
X446260Y573819D02*
Y576378D01*
X452165*
X520669Y440827D02*
X519882D01*
Y449094*
X520669*
X527362D02*
X528150D01*
Y440827*
X527362*
X521850Y451260D02*
G75*
G03X521850I-393J0D01*
G01X530709Y439075D02*
X530118D01*
Y428091*
X530709*
X536220Y439075D02*
X536811D01*
Y428091*
X536220*
X530118Y437520D02*
X536811D01*
X516260Y437717D02*
X528071D01*
X516260Y425512D02*
X528071D01*
X505315Y567520D02*
Y565551D01*
X505906*
X517520Y575787D02*
Y577756D01*
X516929*
X505315Y575787D02*
Y577756D01*
X505906*
X466535Y542323D02*
X467126D01*
Y535236*
X466732*
X455512D02*
X454921D01*
Y542323*
X455512*
X477953Y576263D02*
X477247Y576969D01*
X478659*
X477953Y576263*
X517404Y565748D02*
X518110Y566454D01*
Y565042*
X517404Y565748*
X477600Y576616D02*
X478306D01*
X517760Y566104D02*
X518110D01*
X517406Y565750D02*
X518110D01*
X517757Y565395D02*
X518110D01*
X407468Y649606D02*
G03X393701Y635815I146J-13913D01*
G01X407480Y649606D02*
X419291D01*
X423228Y645231D02*
G03X419288Y649607I-4586J-168D01*
G01X423228Y645226D02*
Y629134D01*
Y629135D02*
G03X427163Y624804I4590J216D01*
G01X427165Y624803D02*
X509449D01*
X509448D02*
G03X513779Y628738I-217J4590D01*
G01X513780Y628740D02*
Y645669D01*
X518113Y649606D02*
G03X513780Y645671I250J-4628D01*
G01X518110Y649606D02*
X529528D01*
X543308Y635814D02*
G03X529540Y649606I-14476J-683D01*
G01X543307Y635827D02*
Y407480D01*
X529512Y393701D02*
G03X543307Y407471I0J13795D01*
G01X529528Y393701D02*
X407480D01*
X393701Y407480D02*
G03X407480Y393701I13779J0D01*
G01X393701Y407480D02*
Y635827D01*
G54D240*
X537402Y440276D02*
G03X537402I-394J0D01*
G01X465157Y530709D02*
G03X465157I-393J0D01*
G01X474016Y531102D02*
G03X474016I-394J0D01*
G01X465157Y530709D02*
G03X465157I-393J0D01*
G01X474016Y531102D02*
G03X474016I-394J0D01*
G01X464526Y531022D02*
X465002D01*
X473384Y531416D02*
X473860D01*
G54D405*
G54D406*
X481890Y526969D02*
G03X481102Y527756I-788J-0D01*
G01X476378*
G03X475591Y526969I-0J-787*
G01Y525394*
G03X476378Y524606I787J-0*
G01X481102*
G03X481890Y525394I0J788*
G01Y526969*
X465764Y577240D02*
X472063D01*
Y580390*
X465764*
Y577240*
X468307Y550000D02*
Y543701D01*
X471457*
Y550000*
X468307*
X475197Y543701D02*
Y550000D01*
X472047*
Y543701*
X475197*
X474409Y517461D02*
X480709D01*
Y520610*
X474409*
Y517461*
Y509843D02*
X480709D01*
Y512992*
X474409*
Y509843*
Y502756D02*
X480709D01*
Y505906*
X474409*
Y502756*
X490157Y532874D02*
Y526575D01*
X493307*
Y532874*
X490157*
X456260Y550945D02*
X449961D01*
Y547795*
X456260*
Y550945*
X474409Y493307D02*
X480709D01*
Y496457*
X474409*
Y493307*
X479134Y550000D02*
Y543701D01*
X482283*
Y550000*
X479134*
X450453Y547146D02*
Y540846D01*
X453602*
Y547146*
X450453*
X449843Y540823D02*
Y547122D01*
X446693*
Y540823*
X449843*
X428150Y556299D02*
X434449D01*
Y559449*
X428150*
Y556299*
X436260Y544213D02*
X442559D01*
Y547362*
X436260*
Y544213*
X457480Y548543D02*
G03X458268Y547756I788J0D01*
G01X462992*
G03X463780Y548543I0J787*
G01Y550118*
G03X462992Y550906I-788J0*
G01X458268*
G03X457480Y550118I-0J-788*
G01Y548543*
X472102Y587386D02*
X465803D01*
Y584236*
X472102*
Y587386*
X465803Y580890D02*
X472102D01*
Y584039*
X465803*
Y580890*
X472693Y587386D02*
Y581087D01*
X475843*
Y587386*
X472693*
X442520Y572244D02*
G03X441732Y573031I-788J0D01*
G01X437008*
G03X436220Y572244I-0J-787*
G01Y570669*
G03X437008Y569882I788J0*
G01X441732*
G03X442520Y570669I0J787*
G01Y572244*
Y563583D02*
X436220D01*
Y560433*
X442520*
Y563583*
Y593307D02*
X436220D01*
Y590157*
X442520*
Y593307*
X436220Y548031D02*
X442520D01*
Y551181*
X436220*
Y548031*
X442520Y559449D02*
X436220D01*
Y556299*
X442520*
Y559449*
X428150Y560433D02*
X434449D01*
Y563583*
X428150*
Y560433*
X436220Y564764D02*
X442520D01*
Y567913*
X436220*
Y564764*
X482677Y550000D02*
Y543701D01*
X485827*
Y550000*
X482677*
X486220D02*
Y543701D01*
X489370*
Y550000*
X486220*
X489764D02*
Y543701D01*
X492913*
Y550000*
X489764*
X475591D02*
Y543701D01*
X478740*
Y550000*
X475591*
X442520Y579134D02*
X436220D01*
Y575984*
X442520*
Y579134*
X517008Y439764D02*
G03X517795Y440551I-0J787D01*
G01Y445276*
G03X517008Y446063I-787J-0*
G01X515433*
G03X514646Y445276I0J-787*
G01Y440551*
G03X515433Y439764I787J0*
G01X517008*
X509055Y439055D02*
G03X509843Y438268I788J0D01*
G01X509055Y439055D02*
Y446142D01*
X509843Y446929D02*
G03X509055Y446142I-0J-787D01*
G01X509843Y446929D02*
X512992D01*
X513780Y446142D02*
G03X512992Y446929I-788J-0D01*
G01X513780Y446142D02*
Y439055D01*
X512992Y438268D02*
G03X513780Y439055I0J787D01*
G01X512992Y438268D02*
X509843D01*
X442520Y601575D02*
X436220D01*
Y598425*
X442520*
Y601575*
X492126Y520276D02*
X520866D01*
X485827Y479724D02*
Y467717D01*
X492520*
Y461614*
X520866*
X531102Y520276D02*
X542913D01*
Y485948*
X545669Y476348*
Y461614*
X531102*
X436220Y583071D02*
X442520D01*
Y586220*
X436220*
Y583071*
Y579528D02*
X442520D01*
Y582677*
X436220*
Y579528*
X442520Y605118D02*
X436220D01*
Y601969*
X442520*
Y605118*
X537835Y447717D02*
G03X538622Y448504I-0J787D01*
G01X537835Y447717D02*
X530748D01*
X529961Y448504D02*
G03X530748Y447717I787J-0D01*
G01X529961Y448504D02*
Y451654D01*
X530748Y452441D02*
G03X529961Y451654I0J-787D01*
G01X530748Y452441D02*
X537835D01*
X538622Y451654D02*
G03X537835Y452441I-787J-0D01*
G01X538622Y451654D02*
Y448504D01*
X537638Y446142D02*
G03X536850Y446929I-788J-0D01*
G01X532126*
G03X531339Y446142I-0J-787*
G01Y444567*
G03X532126Y443780I787J-0*
G01X536850*
G03X537638Y444567I0J787*
G01Y446142*
X442520Y608661D02*
X436220D01*
Y605512*
X442520*
Y608661*
Y612205D02*
X436220D01*
Y609055*
X442520*
Y612205*
X492126Y609843D02*
X498425D01*
Y612992*
X492126*
Y609843*
X489764Y595276D02*
X483465D01*
Y592126*
X489764*
Y595276*
X442520Y598031D02*
X436220D01*
Y594882*
X442520*
Y598031*
X489764Y591732D02*
X483465D01*
Y588583*
X489764*
Y591732*
X483465Y600000D02*
G03X484252Y599213I787J0D01*
G01X488976*
G03X489764Y600000I0J787*
G01Y601575*
G03X488976Y602362I-788J-0*
G01X484252*
G03X483465Y601575I-0J-787*
G01Y600000*
X521260Y595669D02*
G03X520472Y594882I-0J-787D01*
G01Y590157*
G03X521260Y589370I788J0*
G01X522835*
G03X523622Y590157I-0J787*
G01Y594882*
G03X522835Y595669I-787J-0*
G01X521260*
X531417Y591063D02*
G03X530630Y591850I-787J-0D01*
G01X525906*
G03X525118Y591063I-0J-787*
G01Y589488*
G03X525906Y588701I788J0*
G01X530630*
G03X531417Y589488I-0J787*
G01Y591063*
X525000Y593386D02*
G03X525787Y592598I787J-0D01*
G01X530512*
G03X531299Y593386I-0J788*
G01Y594961*
G03X530512Y595748I-787J-0*
G01X525787*
G03X525000Y594961I0J-787*
G01Y593386*
X525118Y584685D02*
X531417D01*
Y587835*
X525118*
Y584685*
X489764Y588189D02*
X483465D01*
Y585039*
X489764*
Y588189*
X474409Y486220D02*
X480709D01*
Y489370*
X474409*
Y486220*
X489764Y598819D02*
X483465D01*
Y595669*
X489764*
Y598819*
Y584646D02*
X483465D01*
Y581496*
X489764*
Y584646*
X509252Y427362D02*
Y436024D01*
X513976*
Y427362*
X509252*
X442520Y589764D02*
X436220D01*
Y586614*
X442520*
Y589764*
X520079Y451969D02*
X526378D01*
Y455118*
X520079*
Y451969*
X519291Y595276D02*
X518898Y595669D01*
X513386*
X512992Y595276*
Y592913*
X513386Y592520*
X518898*
X519291Y592913*
Y595276*
Y591339D02*
X518898Y591732D01*
X513386*
X512992Y591339*
Y588976*
X513386Y588583*
X518898*
X519291Y588976*
Y591339*
X510472Y552520D02*
Y558819D01*
X507323*
Y552520*
X510472*
X506693D02*
Y558819D01*
X503543*
Y552520*
X506693*
G54D438*
X478898Y491929D02*
Y492047D01*
X476181*
X478898D02*
Y490630D01*
X476181*
Y492047*
X478898Y484843D02*
Y484961D01*
X476181*
X478898D02*
Y483543D01*
X476181*
Y484961*
X478898Y501378D02*
Y501496D01*
X476181*
X478898D02*
Y500079D01*
X476181*
Y501496*
X478898Y508858D02*
Y508976D01*
X476181*
X478898D02*
Y507559D01*
X476181*
Y508976*
G54D443*
X450394Y573346D02*
Y574213D01*
X474016*
Y573386*
X450394Y555354D02*
Y554528D01*
X474016*
Y555394*
X476977Y574409D02*
G03X476977I-835J0D01*
G01X477953Y573465D02*
Y576181D01*
X471220*
G54D457*
X431393Y509346D02*
X420576D01*
Y502269*
X431393*
Y509346*
Y499109D02*
X420576D01*
Y492032*
X431393*
Y499109*
Y488480D02*
X420576D01*
Y481402*
X431393*
Y488480*
X420576Y509287D02*
X431393D01*
X420576Y508747D02*
X431393D01*
X420576Y508207D02*
X431393D01*
X420576Y507667D02*
X431393D01*
X420576Y507127D02*
X431393D01*
X420576Y506587D02*
X431393D01*
X420576Y506047D02*
X431393D01*
X420576Y505507D02*
X431393D01*
X420576Y504967D02*
X431393D01*
X420576Y504427D02*
X431393D01*
X420576Y503887D02*
X431393D01*
X420576Y503347D02*
X431393D01*
X420576Y502807D02*
X431393D01*
X420576Y499051D02*
X431393D01*
X420576Y498511D02*
X431393D01*
X420576Y497971D02*
X431393D01*
X420576Y497431D02*
X431393D01*
X420576Y496891D02*
X431393D01*
X420576Y496351D02*
X431393D01*
X420576Y495811D02*
X431393D01*
X420576Y495271D02*
X431393D01*
X420576Y494731D02*
X431393D01*
X420576Y494191D02*
X431393D01*
X420576Y493651D02*
X431393D01*
X420576Y493111D02*
X431393D01*
X420576Y492571D02*
X431393D01*
X420576Y488421D02*
X431393D01*
X420576Y487881D02*
X431393D01*
X420576Y487341D02*
X431393D01*
X420576Y486801D02*
X431393D01*
X420576Y486261D02*
X431393D01*
X420576Y485721D02*
X431393D01*
X420576Y485181D02*
X431393D01*
X420576Y484641D02*
X431393D01*
X420576Y484101D02*
X431393D01*
X420576Y483561D02*
X431393D01*
X420576Y483021D02*
X431393D01*
X420576Y482481D02*
X431393D01*
X420576Y481941D02*
X431393D01*
X508071Y453150D02*
Y394094D01*
X429331*
Y453150*
X508071*
G74*
X0Y0D02*
M02*
